<svg version="1.1" xmlns="http://www.w3.org/2000/svg" xmlns:xlink="http://www.w3.org/1999/xlink" x="0px" y="0px" width="173px" height="104.001px" viewBox="0 0 173 104.001" xml:space="preserve" style="height: 334px; width: 555.5756px;">
                <path fill="#B9BBC1" d="M86.197,97.001H0v4.333c0,0,0.474,2.667,4.029,2.667s82.167,0,82.167,0s78.612,0,82.167,0 s4.636-2.667,4.636-2.667v-4.333H86.197z"></path>
                <path fill="#D5D7DB" d="M86.215,97.001H75.512c0,0,0.259,2,2.37,2c2.111,0,8.333,0,8.333,0s6.186,0,8.296,0 c2.111,0,2.371-2,2.371-2H86.215z"></path>
                <path fill="#30303A" d="M153.975,0.001H18.418C15.751,0.001,13,1.703,13,5.259s0,91.742,0,91.742h73.197H159c0,0,0-88.187,0-91.742 S156.642,0.001,153.975,0.001z"></path>
</svg>