<?xml version="1.0" standalone="no"?>
<!DOCTYPE svg PUBLIC "-//W3C//DTD SVG 20010904//EN"
 "http://www.w3.org/TR/2001/REC-SVG-20010904/DTD/svg10.dtd">
<svg version="1.0" xmlns="http://www.w3.org/2000/svg"
 width="851.000000pt" height="851.000000pt" viewBox="0 0 851.000000 851.000000"
 preserveAspectRatio="xMidYMid meet">
<metadata>
Created by potrace 1.11, written by Peter Selinger 2001-2013
</metadata>
<g transform="translate(0.000000,851.000000) scale(0.100000,-0.100000)"
fill="#000000" stroke="none">
<path d="M20 4360 l0 -4130 74 0 c55 0 77 -4 87 -16 7 -8 26 -23 43 -32 29
-16 299 -17 4021 -17 3353 0 3995 2 4022 14 18 7 43 30 55 50 l23 36 3 3965
c1 2181 0 3984 -3 4008 -4 27 -17 55 -36 76 -26 30 -29 40 -29 105 l0 71
-4130 0 -4130 0 0 -4130z m7180 0 l0 -3050 -3050 0 -3050 0 0 3050 0 3050
3050 0 3050 0 0 -3050z"/>
<path d="M2390 4330 l0 -2130 685 0 685 0 0 684 0 684 588 5 c537 5 596 7 698
26 305 56 569 203 763 426 142 163 258 404 310 645 22 100 32 346 22 498 -12
171 -20 218 -63 357 -87 282 -253 518 -486 688 -89 65 -286 160 -397 192 -194
56 -179 55 -1545 55 l-1260 0 0 -2130z m2072 1109 c116 -24 213 -100 258 -201
30 -68 44 -208 31 -312 -23 -192 -121 -304 -298 -341 -51 -11 -148 -15 -380
-15 l-313 0 0 440 0 440 325 0 c199 0 345 -4 377 -11z"/>
</g>
</svg>
