<svg xmlns="http://www.w3.org/2000/svg" width='100%' height='100%' viewBox='-5 -5 85 85 ' preserveAspectRatio='none'>
 <g>
  <path d="m37.54215,8.35202c3.16423,0.00383 6.18708,0.52889 9.04986,1.40605l-2.26568,3.75536l16.08268,0l-4.0217,-6.67489l-4.01863,-6.6729l-2.11544,3.51619c-3.96467,-1.38912 -8.23873,-2.16655 -12.70821,-2.16655c-20.5727,0 -37.24753,15.98129 -37.24753,35.69702c0,8.18268 2.904,15.70077 7.7369,21.72429l5.66368,-4.16744c-3.90871,-4.86783 -6.25885,-10.94221 -6.2716,-17.55488c0.02847,-15.93991 13.48502,-28.83781 30.11566,-28.86225l0,0zm29.51455,7.14352l-5.66367,4.16943c3.90773,4.86598 6.25788,10.93653 6.26863,17.55117c-0.02847,15.93978 -13.48502,28.83584 -30.11663,28.8621c-2.94722,-0.00365 -5.7668,-0.46291 -8.45476,-1.23097l2.13208,-3.53323l-16.08261,0l4.01873,6.6712l4.02163,6.6804l2.24212,-3.72889c3.80261,1.26864 7.87235,1.97641 12.12283,1.97825c20.57567,-0.00367 37.24763,-15.98498 37.25247,-35.70073c-0.00483,-8.18266 -2.9109,-15.69892 -7.7408,-21.71873l0,0z" />
 </g>
</svg>