<svg xmlns="http://www.w3.org/2000/svg" width='100%' height='100%' viewBox='-5 -5 85 85 ' preserveAspectRatio='none'>
 <g>
  <path d="m65.48961,65.85771l8.88887,-8.33673l-8.88887,-8.33354l-8.89077,-8.3304l0,9.26745c-2.33222,-0.00624 -6.19721,-0.00624 -7.29286,-0.00624c-3.23731,-0.1254 -5.36208,-1.77074 -7.57321,-4.71681c-3.29569,-4.39713 -6.10842,-12.31073 -9.50061,-19.93593c-1.72527,-3.7922 -3.6474,-7.55314 -6.20734,-10.57749c-2.53436,-3.03697 -5.8455,-5.14308 -9.52618,-5.10233l-15.95353,0l0,14.80545l15.95353,0c2.21835,0.06582 3.6223,1.24106 5.5372,4.15581c2.83301,4.33446 5.5951,12.62095 9.40461,20.47188c3.73326,7.77564 9.47794,15.62656 17.81004,15.70178l7.34835,0l0,9.26742l8.89077,-8.33032zm-37.6054,-56.07202c0.10084,0.11598 0.20748,0.21623 0.30589,0.33538c3.04048,3.59162 5.23615,7.9982 6.97397,11.83118c0.39948,0.8963 0.75361,1.7582 1.13282,2.63889l20.30194,0l0,9.27062l8.89077,-8.33045l8.88887,-8.33349l-8.88887,-8.33667l-8.89077,-8.33983l0,9.26437l-28.71462,0z" />
 </g>
</svg>