<svg xmlns="http://www.w3.org/2000/svg" width='100%' height='100%' viewBox='-5 -5 85 85 ' preserveAspectRatio='none'>
 <g>
  <path d="m65.5538,28.25615l-9.18427,-9.24633l0,10.28845l-16.48249,0c-2.88597,0.37583 -7.8687,-5.33045 -13.40878,-12.90226c-5.5788,-7.1824 -11.95455,-15.99472 -20.49134,-16.23049l-5.74348,0l0,16.40123l5.74348,0c4.1809,-0.21184 9.33621,5.51839 14.82482,12.91269c2.04585,2.58309 4.10934,5.43285 6.29587,8.00581c-2.18653,2.57634 -4.24757,5.4295 -6.29587,8.01265c-5.4886,7.37371 -10.64392,13.11759 -14.81942,12.90913l-5.74887,0l0,16.42516l5.74592,0c8.51866,-0.20831 14.89687,-9.04451 20.4938,-16.21669c5.54058,-7.57195 10.52087,-13.28156 13.40928,-12.91255l16.47709,0l0,10.28835l9.18427,-9.23593l9.18964,-9.24273l-9.18964,-9.25647l-0.00001,0z" />
 </g>
</svg>