<svg xmlns="http://www.w3.org/2000/svg" width='100%' height='100%' viewBox='-5 -5 85 85 ' preserveAspectRatio='none'>
 <g>
  <path d="m56.60098,74.69384l9.23033,-7.20679l9.22551,-7.20976l-9.23039,-7.21485l-9.22545,-7.20931l0,8.01761c-2.26126,0 -4.8889,0 -5.76922,0c-4.19713,0.16009 -9.37749,-4.31307 -14.88874,-10.07948c-2.0545,-2.02187 -4.12724,-4.24626 -6.32404,-6.25479c2.19681,-2.011 4.26657,-4.23283 6.32404,-6.25463c5.51124,-5.75844 10.6916,-10.23964 14.88332,-10.07671l5.77463,-0.0027l0,8.02835l9.22545,-7.21219l9.23039,-7.21774l-9.23039,-7.22547l-9.22545,-7.21488l0,8.02322l-5.77166,0c-8.57257,0.16249 -14.97932,7.05753 -20.58558,12.66132c-5.56542,5.91323 -10.56802,10.36486 -13.46935,10.0768l-16.5509,0l0,12.80816l16.55633,0c2.89885,-0.29089 7.90396,4.16364 13.46884,10.0767c5.6038,5.60663 12.0081,12.49594 20.58311,12.66142l5.76922,0l0,8.0257l0,0l0,0z"/>
 </g>
</svg>