<svg xmlns="http://www.w3.org/2000/svg" width='100%' height='100%'  stroke-width="0.25" viewBox='-5 -5 85 85 ' preserveAspectRatio='none'>
 <g>
  <path d="m41.50575,67.9856c1.96499,-0.99801 3.57673,-1.92737 0.5243,-1.95457c-2.69573,0.50135 -9.66934,-3.18375 -4.08028,-4.99506c3.49659,-1.88917 11.45405,2.47439 11.49647,-4.98956c-0.63254,-4.67761 -10.89699,-1.02537 -7.52032,-7.29866c3.71878,-2.10416 11.09283,2.85351 12.34032,-3.65758c-1.14356,-6.31328 -8.29623,-2.28417 -11.89134,-4.02895c-3.48518,0.99477 -4.403,-5.34699 -0.4915,-4.38978c9.04231,-0.67506 18.14769,0.31567 27.15885,-1.06195c1.45561,-1.1157 2.53159,-7.97889 0.69467,-8.44107c-13.12648,-0.37638 -26.27615,-0.03043 -39.38185,-1.1531c-4.70845,-0.06767 -1.11093,-7.02491 2.36834,-5.39103c3.31421,-1.50179 4.62764,-5.43959 7.06005,-9.32787c1.243,-8.49902 -4.73098,-5.34457 -7.17071,-2.85756c-2.72431,2.47147 -7.41024,7.60154 -9.89608,10.29463c-2.17909,2.1804 -7.19954,4.59991 -10.25354,7.5227c-2.61044,1.28373 -5.46706,0.64462 -8.03099,0.87514c0,11.51523 0,23.03029 0,34.54551c7.2538,4.37068 14.88681,8.2099 22.92862,7.77071c4.71084,-0.02654 9.557,0.21725 14.14498,-1.46197l0,0zm-29.88599,3.69336c-3.70296,-1.96882 -7.3992,-3.96273 -11.06861,-6.04876c0.1756,-14.38007 0.3512,-28.7603 0.52679,-43.14037c2.92969,-0.15396 7.27686,1.85696 9.36507,-1.10404c5.61427,-2.49349 9.25934,-8.00852 14.18104,-12.14786c3.46355,-3.76605 6.23008,-5.0514 9.80746,-7.9075c2.71718,-1.73879 4.18841,-0.85086 7.24812,-0.09276c1.33448,3.02187 2.99113,4.58372 2.13148,10.34044c-1.79379,1.24861 -4.12165,9.64062 -0.59655,9.70732c9.81388,1.30138 19.78578,-0.52774 29.52247,1.74672c2.42451,4.54211 2.88689,14.74641 -1.55054,17.6268c-4.24654,1.69896 -8.72391,0.8562 -13.08683,1.06049c-0.00027,4.29702 0.51313,9.78065 -2.93354,11.93919c-2.54499,4.59327 -2.72396,11.34104 -6.82488,14.70206c-3.449,4.89048 -8.35873,6.40119 -13.1477,6.23995c-7.85273,0.14731 -16.11844,1.18902 -23.57377,-2.92135l0,-0.00033l0,0.00001z" />
 </g>
</svg>