<svg xmlns="http://www.w3.org/2000/svg" width='100%' height='100%' viewBox='-5 -5 85 85' preserveAspectRatio='none'>
 <g>
  <path  id="svg_2" d="m57.62765,30.14658c-1.38896,-0.33038 -2.94133,0 -4.16689,1.23893c-0.0817,0.0826 -0.16341,0 -0.16341,-0.0826c0.0817,-2.47786 -1.71578,-4.62534 -4.16689,-4.87313c-1.79748,-0.16519 -3.43156,0.66076 -4.412,2.14748c-0.0817,0.0826 -0.16341,0 -0.16341,-0.0826c0.24511,-2.64305 -1.71578,-4.70794 -4.24859,-4.70794c-2.04259,-0.16519 -3.84007,0.99114 -4.65711,2.72565c-0.0817,0.16519 -0.40852,0.16519 -0.40852,-0.0826l-2.53282,-22.30076c-0.24511,-2.39527 -1.79748,-4.12977 -3.51326,-3.96458c-1.71578,0.16519 -2.94133,2.23008 -2.85963,4.70794l1.06215,29.73434c0,0 -0.65363,7.43359 -0.65363,7.43359c-1.63407,-2.89084 -4.98393,-12.80229 -9.88615,-10.48962c-1.30726,0.57817 -2.1243,1.65191 -2.36941,2.72565c-0.0817,0.49557 -0.0817,0.90855 0.0817,1.32153c1.87919,4.95572 3.75837,9.91145 5.63756,14.86717c0.73533,1.89969 1.30726,3.88198 2.206,5.69908c0.65363,1.32153 1.55237,2.47786 2.45111,3.71679c0.73533,0.99114 1.55237,1.98229 2.45111,2.89084c0.89874,0.90855 1.87919,1.65191 2.36941,2.80824c0.24511,0.66076 1.38896,7.76397 1.79748,8.75511c0,0.0826 0.0817,0.16519 0.0817,0.16519c0,0 24.26601,0 24.26601,0c0.0817,-2.56046 0.16341,-5.03832 0.32681,-7.59878c0.0817,-1.8171 0,-3.6342 0.32681,-5.3687c0.40852,-2.14748 0.89874,-4.37756 1.30726,-6.60763c0.73533,-3.71679 1.47067,-7.43359 2.2877,-11.15038c0,-0.0826 0,-0.16519 0.0817,-0.24779l0,-0.24779c0,0 0,-0.16519 0,-0.16519c0.32681,-0.74336 0.40852,-1.89969 0.57193,-2.64305c0.57193,-3.5516 1.87919,-9.25068 -3.10474,-10.32442z"/>
   </g>
</svg>