<svg xmlns="http://www.w3.org/2000/svg" width='100%' height='100%' viewBox='-5 -5 85 85 ' preserveAspectRatio='none'>
 <g>
  <path  d="m33.63212,60.75514c-3.61818,-2.07384 -1.13794,-8.6877 -3.54051,-12.01702c-3.18941,-2.7997 -0.52244,-8.72694 -3.09463,-12.02162c-1.84228,-2.4014 -1.2897,-6.00364 -0.90518,-9.09701c-7.31967,-0.08504 -14.64705,0.22523 -21.95998,-0.28336c-3.71881,0.46245 -4.92844,-6.59779 -3.15083,-10.41925c1.72325,-4.0598 5.38257,-3.00201 8.15004,-3.39575c15.98696,-0.27759 31.97816,-0.22078 47.96539,0.01055c4.24695,0.28916 9.10732,-0.43152 12.46309,4.22091c3.99753,5.47736 3.94058,14.20878 3.94843,21.64942c-0.10399,6.94056 -0.71375,15.17566 -5.04026,19.3099c-4.02732,3.9551 -9.08774,2.7696 -13.66833,3.1141c-6.87476,-0.10839 -13.79511,0.37723 -20.63435,-0.81881l-0.53288,-0.25205l0,0l0,-0.00001zm17.05788,-3.81295c2.36953,-4.05605 -0.8663,-7.40416 -3.60532,-6.34146c-3.9721,-0.03805 -8.03402,-0.6147 -11.93888,0.63373c-3.3643,1.87644 -1.19468,7.78077 1.83657,6.59394c4.44055,0.36996 8.97424,0.65779 13.35608,-0.60927l0.35156,-0.27694l0,0.00001l-0.00001,0zm16.22131,-0.78604c3.8537,-3.14142 3.88253,-10.33054 3.9982,-15.97995c-0.08413,-5.96115 0.41983,-12.48973 -1.73348,-17.82789c-1.78076,-3.91531 -5.0976,-5.24574 -8.15274,-5.09936c-5.74887,0.01361 -11.58297,-0.65988 -17.26277,0.91192c-3.85399,1.21442 -5.46964,7.55874 -5.77138,12.70851c-0.11894,4.98387 -0.44808,10.11492 0.3014,15.00906c1.78285,1.81647 3.91066,-3.30026 4.71688,-5.56973c1.06228,-4.21656 -0.15253,-9.4801 1.99519,-13.07091c2.14605,-3.4179 6.14192,-3.08202 8.00221,0.68155c2.06204,3.33419 -0.1189,7.83523 0.44854,11.74265c1.02155,3.58635 -0.17228,7.0276 -0.21107,10.29486c1.01816,2.48126 0.70825,5.42767 0.39646,8.12777c3.98832,-0.20846 8.08491,0.61585 11.96949,-0.98184c0.45477,-0.24991 0.88915,-0.57507 1.30309,-0.94664l0,0l-0.00001,0.00001zm-31.13212,-12.98065c0.53824,-4.94709 -4.58969,-4.54909 -5.04193,-0.56702c-1.0791,4.41773 4.33291,5.62259 5.11265,2.53958c0.0091,-0.65964 -0.03457,-1.31626 -0.0707,-1.97257l-0.00001,0zm15.36482,0.15258c0.34835,-4.26032 -5.0582,-4.30276 -6.08959,-1.31139c-0.57664,1.81731 -2.47005,5.50891 0.27882,4.5477c1.85673,-0.61522 6.18092,1.35501 5.81077,-3.23632l0,0.00001zm-15.36282,-11.23573c-0.18539,-1.06248 0.74599,-3.71516 -0.27858,-3.58272c-2.26586,0.36653 -4.69456,-0.16358 -6.81743,1.1519c-1.91209,3.84147 1.29018,7.5938 3.91726,6.33413c1.91694,0.04144 3.42283,-0.44944 3.17877,-3.9033l0,0l-0.00001,0zm15.0089,2.71982c2.17938,-3.44483 -1.2196,-7.93035 -3.67692,-5.65846c-2.55806,1.95242 -1.79401,9.06697 1.62045,6.92556c0.73061,-0.1968 1.51023,-0.46969 2.05648,-1.26711l0,0.00001l-0.00001,0zm-13.08492,-13.86426c0.4929,-1.26693 0.9858,-2.53387 1.4787,-3.80082c-11.06899,0.08689 -22.14334,-0.22263 -33.20783,0.26371c-3.00513,-1.20105 -5.43179,5.49718 -1.6785,6.62986c5.91,1.12194 11.90558,0.55036 17.85285,0.7145c4.69203,-0.00219 9.38407,-0.00428 14.07609,-0.00648c0.4929,-1.26693 0.9858,-2.53387 1.4787,-3.80081l0,0.00003z"/>
 </g>
</svg>