<svg xmlns="http://www.w3.org/2000/svg" width='100%' height='100%' viewBox='-5 -5 85 85 ' preserveAspectRatio='none'>
 <g>
  <path d="m27.21114,73.56128c-2.41405,-2.00156 -2.09733,-3.21361 3.77194,-14.43362c2.9637,-5.66552 5.38852,-10.4656 5.38852,-10.66682c0,-0.20121 -8.18378,-0.36585 -18.18624,-0.36585l-18.18624,0l0,-10.61096l0,-10.61096l18.33038,0c14.13375,0 18.17259,-0.31965 17.64128,-1.39618c-0.379,-0.7679 -2.96436,-5.86354 -5.74524,-11.32362c-5.242,-10.29239 -5.24035,-13.05256 0.0081,-13.90811c2.61196,-0.42576 43.27702,32.2876 44.67476,35.93903c-13.54518,13.0376 -29.73626,26.68462 -44.65088,38.71742c-0.78641,0 -2.15727,-0.60315 -3.04637,-1.34034l0,0z" />
 </g>
</svg>