<svg xmlns="http://www.w3.org/2000/svg" width='100%' height='100%' viewBox='-5 -5 85 85 ' preserveAspectRatio='none'>
 <g>
  <path d="m42.03741,30.39152c3.40677,0 6.81354,0 10.22031,0c0,4.77657 0,9.55314 0,14.32971c-3.40677,0 -6.81354,0 -10.22031,0c0,-4.77657 0,-9.55314 0,-14.32971zm-14.76267,0c3.78528,0 7.57062,0 11.3559,0c0,4.77657 0,9.55314 0,14.32971c-3.78528,0 -7.57062,0 -11.3559,0c0,-4.77657 0,-9.55314 0,-14.32971zm-13.62708,0c3.78528,0 7.57062,0 11.3559,0c0,4.77657 0,9.55314 0,14.32971c-3.78528,0 -7.57062,0 -11.3559,0c0,-4.77657 0,-9.55314 0,-14.32971zm-13.62708,0c3.78528,0 7.57062,0 11.3559,0c0,4.77657 0,9.55314 0,14.32971c-3.78528,0 -7.57062,0 -11.3559,0c0,-4.77657 0,-9.55314 0,-14.32971zm42.01682,29.55043c3.59605,-0.32353 7.19205,0.22859 10.7881,-0.09494c0.23073,-5.04193 0.12386,-10.08387 0.35459,-15.1258c3.36532,0 7.06825,0 10.43351,0c0,-4.77657 0,-9.55314 0,-14.32971c-3.40677,0 -6.81354,0 -10.22031,0c0,-5.30731 0,-10.6146 0,-15.9219c-3.78528,0 -7.57062,0 -11.3559,0c0,-4.77657 0,-9.55314 0,-14.32971c3.78528,0 7.57062,0 11.3559,0c0,4.77657 0,9.55314 0,14.32971c3.36525,0 7.06818,-0.23667 10.43351,-0.23667c0.23073,5.04192 0.12386,10.32054 0.3546,15.36247c3.59605,0.32352 7.24276,-0.02745 10.83882,0.29608c0,4.71842 -0.05072,10.1113 -0.05072,14.82973c-3.78528,0 -7.57062,0 -11.3559,0c0,5.3073 0,10.61459 0,15.9219c-3.40677,0 -6.81354,0 -10.22031,0c0,4.77657 0,9.55314 0,14.32971c-3.78528,0 -7.57062,0 -11.3559,0c0,-4.71842 0,-10.31245 0,-15.03087l0,0.00001z" />
 </g>
</svg>