<svg xmlns="http://www.w3.org/2000/svg" width='100%' height='100%' viewBox='-5 -5 85 85 ' preserveAspectRatio='none'>
 <g>
  <path d="m22.07759,32.1907c0.88287,1.08669 1.76089,2.496 2.66176,4.08811c0.12993,-0.24368 0.25257,-0.47991 0.38255,-0.72875c1.30389,-2.49609 2.78149,-5.32229 4.43725,-8.05703c0.26281,-0.44429 0.53879,-0.81762 0.80648,-1.23665c-1.24256,-1.90186 -2.6131,-3.72756 -4.26644,-5.29685c-2.55664,-2.45798 -5.89688,-4.16689 -9.60993,-4.13142l-16.09085,0l0,11.99551l16.09377,0c2.23784,0.05585 3.65659,1.00037 5.58541,3.36707l-0.00001,0l0.00001,-0.00001zm34.86679,9.81682l0,7.50849c-2.3527,-0.00765 -6.25167,-0.00765 -7.35649,-0.00765c-3.2662,-0.09897 -5.40968,-1.4575 -7.63975,-3.82153c-0.96465,-1.03343 -1.88839,-2.32856 -2.7995,-3.7708c-0.6838,1.25181 -1.37298,2.54434 -2.07431,3.88752c-0.85223,1.62523 -1.73023,3.29608 -2.64621,4.93894c-0.2273,0.40375 -0.48232,0.82011 -0.72228,1.22904c3.7126,5.08602 8.86235,9.47123 15.82559,9.52461l7.41294,0l0,7.5085l8.96945,-6.74159l8.98458,-6.75692l-8.98458,-6.74928l-8.96945,-6.74934l0,0l0.00001,0.00001zm-14.99624,-9.35981c2.23007,-2.36911 4.37355,-3.7225 7.63975,-3.82157c1.10482,0 5.00379,0 7.35649,-0.00506l0,7.50863l8.96945,-6.74429l8.98458,-6.74934l-8.98458,-6.75451l-8.96945,-6.74417l0,7.50092l-7.41294,0c-8.4024,0.06612 -14.19513,6.42437 -17.96656,12.72163c-3.84255,6.36349 -6.62939,13.07477 -9.48728,16.5814c-1.93174,2.35895 -3.34757,3.31363 -5.58541,3.36701l-16.09377,0l0,11.99542l16.09377,0c3.71258,0.03556 7.05279,-1.67077 9.60943,-4.13383c2.58247,-2.44526 4.52196,-5.49493 6.26192,-8.56489c3.422,-6.18314 6.2619,-12.59721 9.58461,-16.15734l0,0l-0.00001,-0.00001z"/>
 </g>
</svg>