<svg xmlns="http://www.w3.org/2000/svg" width='100%' height='100%' viewBox='-5 -5 85 85 ' preserveAspectRatio='none'>
 <g>
<path id="svg_1" d="m63.29902,11.87702l-0.00658,0.00523l-0.00658,-0.00523l-11.0342,11.71762l7.3005,0.00348l0,25.50096l0,0c0,5.3794 -4.11522,9.73812 -9.19325,9.73812c-5.07639,0 -9.19407,-4.35873 -9.19407,-9.73812l-0.00247,0l0,-19.36652l0.00247,0c0,-9.86092 -7.54799,-17.85555 -16.85882,-17.85555s-16.85799,7.99463 -16.85799,17.85555l0,25.50183l-7.11468,0.00348l11.03256,11.71849l0.0074,-0.00697l0.00658,0.00697l11.0342,-11.71849l-7.3005,-0.00348l0,-25.50183l0,0c0,-5.37765 4.11522,-9.73725 9.19325,-9.73725c5.07639,0 9.19407,4.3596 9.19407,9.73725l0,0l0,19.52763l0.00247,0c0.0814,9.78776 7.59568,17.69618 16.85635,17.69618c9.31083,0 16.85799,-7.99463 16.85799,-17.85729l0,-25.50096l7.11468,-0.00348l-11.03338,-11.71762z" />
 </g>
</svg>