<svg xmlns="http://www.w3.org/2000/svg" width='100%' height='100%' viewBox='-5 -5 85 85 ' preserveAspectRatio='none'>
 <g>
  <path   d="m0.28417,37.44911c0,-12.44201 0,-24.88402 0,-37.32603c4.37054,0 8.74108,0 13.11162,0c0,24.88402 0,49.76804 0,74.65206c-4.37054,0 -8.74107,0 -13.11162,0c0,-12.44202 0,-24.88402 0,-37.32603l0,0zm19.36943,0c0,-12.44201 0,-24.88402 0,-37.32603c3.19812,-0.6197 4.8779,0.46285 4.17919,2.51209c0.04723,11.4047 0.09445,22.80941 0.14168,34.2141c8.086,-3.84982 11.14951,-10.51568 13.65523,-16.6054c1.4381,3.96583 3.72529,8.7955 10.29188,10.08794c6.2588,1.25189 11.80177,-2.6724 11.73651,-6.69285c1.09316,-5.13771 1.24443,-10.47531 -0.43259,-15.55637c-1.57008,-3.2146 -6.27587,-5.86932 -11.50927,-5.65692c-4.30691,-1.32113 -9.13733,2.7554 -3.61759,4.24745c4.642,3.28605 -0.7539,8.91147 -7.20747,7.59432c-6.2568,-0.89323 -7.92081,-6.38974 -4.30065,-9.49713c5.19302,-4.51532 14.7659,-5.08477 22.6336,-4.42756c10.2374,0.77604 18.02392,6.92358 19.12771,13.57008c1.40953,5.93124 -0.88794,12.63246 -8.34042,16.42244c-6.24862,3.50545 -15.43348,3.94318 -22.7759,1.80159c-1.78564,1.79001 -3.57129,3.58002 -5.35693,5.37002c1.75437,1.74647 3.50874,3.49293 5.2631,5.23939c8.89108,-2.65525 20.51268,-1.27484 26.39039,4.12736c8.27848,7.27629 6.66366,18.97145 -4.0894,24.77827c-6.75368,3.6746 -16.24627,3.68723 -24.27254,2.21829c-6.07413,-1.08 -12.00023,-5.01528 -10.12174,-9.50034c0.94771,-3.90853 9.01538,-5.37898 12.9458,-2.4701c5.35183,3.22143 -2.40521,6.46575 -2.00764,9.57073c5.95511,3.00725 15.6009,0.17599 16.98714,-4.62063c2.20391,-5.26628 1.68631,-10.8643 0.60845,-16.2191c-0.57802,-3.60006 -5.27867,-7.22945 -11.10629,-6.2254c-6.13003,0.92745 -9.18967,5.17957 -10.23968,8.95432c-1.28724,2.76441 -1.69786,-2.64308 -2.70243,-3.52832c-2.08825,-4.4368 -5.73136,-8.79444 -11.33992,-11.59166c-0.57778,1.19638 -0.05228,2.68876 -0.23713,4.01125c-0.04477,10.84139 -0.08954,21.68277 -0.1343,32.52416c-3.20004,0.62006 -4.87628,-0.46327 -4.16879,-2.5121c0,-11.60464 0,-23.20929 0,-34.81393l0,0z" />
 </g>
</svg>