<svg xmlns="http://www.w3.org/2000/svg" width='100%' height='100%' viewBox='-5 -5 85 85 ' preserveAspectRatio='none'>
 <g>
  <path d="m5.88758,74.47885c-5.3039,-0.75609 -7.13284,-6.038 -3.97068,-9.20244c4.1966,-4.89402 13.17352,-8.19322 20.20704,-5.10521c0.14016,-17.29052 0.05929,-34.58199 0.08072,-51.87293c17.53728,-2.7348 35.11421,-5.31693 52.65762,-8.02909c-0.038,19.31531 -0.07599,38.63061 -0.11398,57.94592c-2.74851,5.84211 -11.62956,9.89325 -19.3627,8.08171c-4.60393,-1.08635 -5.70766,-5.77075 -3.14401,-8.64094c3.51068,-4.28144 10.04493,-7.22102 16.61396,-6.41906c1.87462,-0.14948 4.63514,2.2429 3.84279,-0.4635c-0.06507,-15.27757 0.16185,-30.55921 -0.16744,-45.83356c-2.86208,-0.83759 -7.95202,1.08952 -11.61658,1.24544c-12.25447,1.88001 -24.53514,3.66039 -36.76147,5.65029c0.3689,16.92808 0.19688,33.86652 0.14196,50.79818c0.64911,3.86503 -2.05337,7.50583 -6.16251,9.52059c-3.54588,2.03317 -7.92681,2.7661 -12.24471,2.32461l0,-0.00001z"/>
 </g>
</svg>