<svg xmlns="http://www.w3.org/2000/svg" width='100%' height='100%' viewBox='-5 -5 85 85 ' preserveAspectRatio='none'>
 <g>
  <path d="m27.93828,73.45477c-9.05876,-2.36664 -18.69283,-7.47158 -24.42264,-19.81792c-2.38879,-5.16101 -3.3619,-11.73265 -3.05769,-18.1046c-0.39849,-8.26885 2.56818,-15.70153 6.42699,-20.66966c7.70436,-10.07993 17.8656,-13.59128 27.54452,-14.45674c10.302,-0.66804 21.0068,2.08242 30.00656,10.57239c5.48698,5.44702 10.34614,14.81487 10.07283,25.7598c0.30002,6.42631 -0.45059,13.24562 -3.23203,18.12854c-5.51085,10.82349 -14.18095,15.55158 -22.41536,18.15584c-6.89563,2.01952 -13.9972,2.13842 -20.92318,0.43234l0,0.00001zm16.83072,-6.31707c4.4446,-1.53564 7.35983,-8.76035 7.29786,-15.89993c0.75912,-14.99901 -2.32136,-31.40184 -9.84958,-40.8931c-4.22331,-4.81158 -10.24058,-5.28409 -14.71005,-1.12985c-3.33187,3.25635 -4.57633,9.71361 -4.56802,15.70122c-0.36108,12.73389 1.94986,26.04919 7.18693,35.73356c3.67445,6.24699 9.48465,9.59169 14.64287,6.48809l0,0z" />
 </g>
</svg>