<svg xmlns="http://www.w3.org/2000/svg" width='100%' height='100%' viewBox='-5 -5 85 85 ' preserveAspectRatio='none'>
 <g>
  <path d="m11.2245,74.52443c-7.07335,-0.31663 -12.34581,-3.4246 -10.05841,-6.32907c3.7901,-4.37147 14.72429,-7.39265 25.59344,-7.63399c4.47979,-0.62206 12.30711,2.48546 10.57019,-0.8122c0.28588,-19.73075 0.14237,-39.46202 0.17772,-59.19303c3.39382,-0.42404 3.672,0.6355 3.72932,1.82208c1.05158,4.43301 11.28284,6.67631 17.57633,9.74637c9.07507,3.75447 16.22907,8.94891 14.45056,14.48415c-1.81896,2.64167 -0.49333,5.17575 0.17721,7.83906c0.04038,2.87498 -2.46624,5.61736 -0.23926,8.44275c0.9904,2.73565 -1.90903,5.49279 1.19909,8.07187c1.41457,4.53117 0.41137,9.55241 -6.20054,13.30602c-4.19303,0.47967 1.7525,-2.07399 1.3737,-2.95157c3.72018,-4.53113 4.28733,-10.37533 -5.02534,-13.81553c-7.28931,-2.68735 -15.62249,-4.82489 -23.56952,-7.14503c-0.42232,8.89241 -0.28574,17.78891 -0.40614,26.68323c-2.99708,3.23591 -9.43167,5.73414 -17.22517,6.84558c-3.85073,0.58408 -8.03939,0.92566 -12.12319,0.63931l0.00001,0zm58.18784,-31.40137c-3.73868,-5.64761 -15.6255,-9.47487 -27.23271,-12.2334c-3.09999,0.14333 1.37066,3.63545 2.874,4.85869c5.2247,3.24391 13.18817,5.45774 19.29784,8.38713c2.02976,0.3624 6.14961,3.94933 5.52842,1.47419c0.07803,-0.83211 -0.05879,-1.67106 -0.46755,-2.4866l0,0zm0.46227,-7.70379c0.00723,-4.75556 -8.56916,-8.53314 -16.7491,-11.36701c-3.54047,-0.8489 -9.89215,-3.57636 -12.26561,-2.71515c0.87234,2.78298 4.4369,5.23968 9.71067,6.92834c6.99011,2.91769 14.54503,5.74441 19.20932,9.4447c0.45638,-0.68953 0.02846,-1.55256 0.09472,-2.29088zm0.00754,-9.72218c-0.23758,-5.39168 -10.45975,-9.5363 -20.37396,-12.37272c-2.77004,-0.62156 -10.88213,-3.65922 -8.12701,-0.44281c1.84366,4.25513 11.70601,6.30056 17.95463,9.29401c4.2218,1.35866 7.89614,4.6856 10.61066,5.47076c0.08332,-0.64954 -0.0221,-1.29993 -0.06432,-1.94923l0.00001,0z" />
 </g>
</svg>