<svg xmlns="http://www.w3.org/2000/svg" width='100%' height='100%' viewBox='-5 -5 85 85 ' preserveAspectRatio='none'>
 <g>
  <path d="m5.89911,74.63879c-5.31577,-0.75615 -7.1488,-6.03854 -3.97956,-9.20326c4.20598,-4.89446 13.20299,-8.19394 20.25225,-5.10566c0.14049,-17.23536 0.05941,-34.47167 0.0809,-51.70745c17.57692,-2.78922 35.19185,-5.43498 52.77542,-8.19993c-0.03808,19.31703 -0.07616,38.63406 -0.11424,57.95109c-2.75464,5.84263 -11.65557,9.89414 -19.40601,8.08243c-4.61423,-1.08644 -5.72044,-5.77126 -3.15104,-8.64172c3.51853,-4.28182 10.0674,-7.22167 16.65113,-6.41964c1.87881,-0.1495 4.64548,2.2431 3.85138,-0.46354c0,-13.54019 0,-27.08037 0,-40.62055c-16.13487,2.55484 -32.30163,4.98832 -48.44397,7.51551c-0.0551,15.75667 0.13716,31.51573 -0.14382,47.27047c-0.51365,4.78546 -6.35346,8.05036 -11.80482,9.32597c-2.15354,0.28566 -4.39589,0.46291 -6.56762,0.21625l0,0zm42.08944,-64.2397c8.29015,-1.28327 16.58421,-2.55112 24.87079,-3.84861c1.05458,-3.30461 -3.66499,-1.1585 -5.97308,-1.07783c-14.15496,2.19788 -28.3181,4.36322 -42.47089,6.56964c-1.05458,3.30461 3.66498,1.1585 5.97308,1.07783c5.86611,-0.90938 11.733,-1.81565 17.6001,-2.72103l0,0z" />
 </g>
</svg>