<svg xmlns="http://www.w3.org/2000/svg" width='100%' height='100%' viewBox='-5 -5 85 85 ' preserveAspectRatio='none'>
 <g>
  <path  d="m3.90631,74.64726c-3.57735,-0.57262 -4.60412,-6.07641 -2.23311,-8.9506c2.59586,-4.08182 7.56381,-6.6581 11.62098,-4.14435c0.16533,-15.55447 0.07179,-31.11216 0.09648,-46.66801c20.48359,-4.89536 40.99528,-9.62895 61.48767,-14.47273c-0.05905,17.19712 0.1442,34.39986 -0.14265,51.59247c-0.49191,4.4352 -4.28176,7.38068 -7.69356,8.30177c-2.98962,1.09471 -7.19947,-1.27722 -6.49146,-5.55372c0.87549,-4.6254 4.87027,-7.95822 8.71055,-8.36368c1.90174,-0.87193 5.04251,2.88126 4.16829,-1.28461c0.05454,-8.34648 0.02715,-16.69326 0.03384,-25.0399c-9.56301,2.23273 -19.12359,4.48129 -28.68544,6.72186c-0.05736,10.8885 0.13893,21.78482 -0.14741,32.66733c-0.79458,4.74494 -5.07171,7.8814 -8.9327,8.12739c-3.72285,0.8647 -6.76791,-4.3043 -4.48139,-8.071c2.4092,-4.67673 7.91055,-7.82656 12.22678,-4.99123c0.08297,-9.12668 0.03576,-18.25459 0.04811,-27.38172c-9.59401,2.33583 -19.2202,4.49097 -28.81427,6.8268c-0.06431,11.02463 0.15731,22.06307 -0.17512,33.07663c-1.30068,5.04947 -6.30803,8.32159 -10.59558,7.60731l0,0l0,0zm25.33287,-47.54608c4.70723,-1.11959 9.42236,-2.19571 14.11768,-3.38413c0.73747,-4.0408 -4.47651,0.02597 -6.33491,-0.3904c-7.4476,1.75352 -14.89917,3.48323 -22.34495,5.24766c-0.56619,3.89453 3.8181,0.36966 5.61445,0.63255c2.98233,-0.70338 5.96494,-1.40506 8.94772,-2.10567l0,0zm-0.54091,-5.23476c4.93093,-1.15954 9.86422,-2.30402 14.79302,-3.47601c0.40957,-3.90184 -4.27507,-0.08327 -6.10298,-0.46169c-7.55081,1.7652 -15.09813,3.55145 -22.64697,5.32863c-0.69325,3.77039 3.63749,0.38057 5.35134,0.62839c2.86832,-0.67433 5.7369,-1.34714 8.60559,-2.01932l0,0zm30.77584,-1.94035c4.6629,-1.09363 9.3258,-2.18726 13.98884,-3.28073c0.43801,-3.89015 -4.12469,-0.2678 -5.98682,-0.56033c-7.54588,1.76904 -15.08945,3.55176 -22.63404,5.32863c-0.889,3.2964 2.14744,1.17782 3.71641,1.07089c3.63858,-0.85225 7.27716,-1.70528 10.91561,-2.55846zm-30.19698,-3.48384c4.71662,-1.11145 9.4333,-2.22281 14.14985,-3.33424c0.79458,-3.96871 -3.58327,-0.53736 -5.3367,-0.75855c-7.78674,1.87121 -15.57206,3.75063 -23.36211,5.60187c-0.45118,4.06385 4.69609,-0.11032 6.61325,0.35338c2.64569,-0.61795 5.29086,-1.23928 7.93571,-1.86246l0,0zm29.93984,-1.82129c4.74883,-1.11369 9.49766,-2.22739 14.24637,-3.34108c0.56343,-3.73585 -3.60591,-0.39197 -5.30313,-0.641c-7.79337,1.83485 -15.59086,3.64482 -23.38257,5.4904c-0.12027,3.84921 4.92261,-0.15272 7.05256,0.22001c2.46247,-0.57462 4.9248,-1.15094 7.38676,-1.72834l0,0zm-0.09648,-5.27369c4.7334,-1.13665 9.49059,-2.17149 14.20867,-3.37576c0.70698,-3.95075 -4.54802,0.12751 -6.38803,-0.32672c-7.33929,1.71324 -14.70714,3.29788 -22.03035,5.08191c-0.78365,4.18005 4.56321,0.01387 6.47846,0.43349c2.57695,-0.60517 5.15404,-1.20933 7.73125,-1.81292l0,0z" />
 </g>
</svg>