<svg xmlns="http://www.w3.org/2000/svg" width='100%' height='100%' viewBox='-5 -5 85 85 ' preserveAspectRatio='none'>
 <g>
  <path  d="m24.0331,74.30004c-8.25226,-0.50031 -11.7427,-5.42781 -10.05583,-9.11629c2.90209,-5.82657 14.25553,-9.85311 25.64625,-10.50774c4.32181,-0.18172 9.08697,-0.15093 12.64639,1.23642c2.92117,-0.59096 0.86592,-2.92162 1.39909,-4.31854c0,-17.19131 0,-34.38264 0,-51.57395c7.3461,-0.5451 2.60253,4.75321 3.89823,6.92327c-0.04867,18.97611 0.30476,37.95412 -0.3728,56.92843c-3.58222,7.09149 -19.32146,11.58422 -33.16133,10.4284zm1.39553,-3.09985c11.27379,-1.82604 21.76551,-5.63698 27.12914,-11.1153c0.46862,-3.38661 -7.85037,-2.68214 -11.61069,-1.53867c-6.62275,1.69028 -12.85598,3.91062 -18.02081,6.6235c-3.42967,1.60535 -7.79514,6.53979 0.38599,6.25983l1.13012,-0.08125l0.98624,-0.14812l0,0l0.00001,0l0,0.00001z" />
 </g>
</svg>