<svg xmlns="http://www.w3.org/2000/svg" width='100%' height='100%' viewBox='-5 -5 85 85 ' preserveAspectRatio='none'>
 <g>
  <path d="m32.4847,74.71791c-8.06542,-0.79216 -12.42025,-8.19716 -4.36124,-10.90973c8.40132,-2.67463 13.39794,6.84696 4.22105,7.77763c-5.025,1.16314 6.52415,3.11097 8.6767,1.15516c6.72598,-2.01147 5.68698,-7.24675 4.06874,-10.9338c-0.56159,-2.82464 -1.2639,-5.84867 -7.03193,-4.24334c-13.91584,0.69178 -24.93301,-8.03094 -23.8264,-16.19102c0.3757,-7.69677 10.57942,-12.96841 18.13503,-18.31325c-2.48052,-6.9924 -3.2295,-15.07053 3.96131,-21.16387c6.62356,-4.95321 9.98553,4.11076 11.10593,7.18641c2.4887,7.18933 -2.47356,14.74417 -10.73069,19.81203c0.78843,2.40389 1.56418,4.80939 2.36767,7.21138c8.7257,-1.0409 17.05478,3.5147 17.5307,8.85072c1.34826,4.81851 -3.65376,9.36899 -10.48601,11.43985c-0.11234,4.13771 3.58801,8.42976 2.25842,12.70255c-1.27688,4.41768 -9.29538,6.58399 -15.88928,5.61927l-0.00001,0l-0.00001,0.00001zm9.10933,-18.85143c2.47213,-2.86722 -2.01197,-7.93094 -2.25816,-11.61137c0.09683,-6.41789 -10.9212,1.24321 -7.64468,4.39488c0.97126,1.86492 9.40164,5.2849 1.65767,3.17566c-8.08491,-2.98976 -7.7146,-10.68224 -0.32732,-13.93024c6.19767,-0.84822 2.41237,-5.9582 1.24457,-7.63664c-7.61205,4.28629 -16.23999,9.68359 -14.92721,16.62099c0.98887,6.50239 12.46146,10.44696 22.25513,8.98672l0,0l-0.00001,0zm5.12171,-1.24115c7.2601,-2.87973 7.02184,-10.43738 -0.92124,-12.78141c-8.4753,-2.76702 -2.67026,4.4821 -2.51497,7.24138c1.1762,1.05628 0.50993,7.21113 3.43621,5.54003zm-8.94768,-34.64264c4.46588,-3.338 9.57087,-8.15704 6.4345,-12.57031c-6.75415,-2.75471 -10.50748,4.69303 -10.67358,7.95423c-0.06145,2.11463 -0.56582,9.40342 4.23909,4.61609l0,0l-0.00001,0l0,-0.00001z" />
 </g>
</svg>