<svg xmlns="http://www.w3.org/2000/svg" width='100%' height='100%' viewBox='-5 -5 85 85 ' preserveAspectRatio='none'>
 <g>
  <path  d="m4.02909,74.61081c-3.56939,-0.57267 -4.59379,-6.07652 -2.22808,-8.95088c2.59003,-4.08185 7.54684,-6.65819 11.59493,-4.14445c0.16496,-15.55478 0.07163,-31.1129 0.09626,-46.6692c20.43783,-4.89542 40.90354,-9.62913 61.35019,-14.47303c-0.05891,17.19754 0.14376,34.40073 -0.14241,51.59379c-0.49085,4.43526 -4.27215,7.38077 -7.67632,8.30187c-2.983,1.09474 -7.18343,-1.27713 -6.47692,-5.55382c0.8735,-4.62551 4.85936,-7.95842 8.691,-8.36384c2.05222,-0.75547 5.08929,2.8402 4.15274,-1.56375c-0.01925,-13.52415 0.21195,-27.06752 -0.11367,-40.57991c-9.4498,2.04065 -18.99257,4.304 -28.46778,6.49025c-0.05654,16.144 0.13455,32.2933 -0.14215,48.43308c-0.44252,4.45082 -4.24574,7.38847 -7.65205,8.27215c-3.46586,1.37401 -7.85571,-2.28635 -6.18415,-6.8464c2.041,-5.37209 8.04167,-9.06329 12.64687,-6.07546c0.08181,-14.49551 0.03596,-28.99188 0.04801,-43.48779c-9.55919,2.34674 -19.13041,4.62658 -28.69884,6.91994c-0.17669,16.3612 0.14959,32.73761 -0.22577,49.09002c-1.31527,5.06489 -6.27608,8.31196 -10.57186,7.60743l0,0.00001z" />
 </g>
</svg>