<svg xmlns="http://www.w3.org/2000/svg" width='100%' height='100%' viewBox='-5 -5 85 85 ' preserveAspectRatio='none'>
 <g>
  <path d="m3.72248,74.79935c-3.5854,-0.57405 -4.61439,-6.08994 -2.23807,-8.97069c2.60164,-4.09076 7.58068,-6.67278 11.64692,-4.15358c0.16567,-15.58896 0.07194,-31.18131 0.09669,-46.77194c20.52947,-4.9062 41.08692,-9.65033 61.6253,-14.50491c-0.05918,17.23535 0.14439,34.47656 -0.14298,51.70746c-0.49313,4.44492 -4.29134,7.39697 -7.71077,8.32011c-2.99643,1.09714 -7.2157,-1.27993 -6.50598,-5.56609c0.87745,-4.63571 4.88116,-7.97595 8.7299,-8.38216c2.15264,-0.64304 5.16363,2.76895 4.18021,-1.76898c0.02385,-11.76598 -0.01791,-23.5318 -0.033,-35.29779c-9.56185,2.24385 -19.12176,4.49948 -28.68542,6.73239c-0.05827,14.41189 0.13872,28.8298 -0.14401,43.23707c-0.57731,4.63556 -4.65838,7.70031 -8.31284,8.29085c-3.6181,1.16936 -7.41605,-3.32992 -5.37197,-7.518c2.25783,-5.02453 8.01489,-8.44591 12.49137,-5.52775c0.03404,-12.52928 0.14388,-25.06471 -0.05196,-37.59153c-2.42105,-0.62841 -6.14306,1.33797 -9.00838,1.62084c-6.56941,1.54231 -13.13715,3.09402 -19.70578,4.64126c-0.08973,14.72911 0.03184,29.46544 -0.2728,44.18855c-1.5467,4.85668 -6.31325,8.02337 -10.58644,7.31489l0,0l-0.00001,0zm25.42756,-58.33466c4.72723,-1.11395 9.45433,-2.22784 14.18156,-3.34175c0.79623,-3.97755 -3.59129,-0.53856 -5.34877,-0.76024c-7.80411,1.87537 -15.6068,3.75907 -23.41426,5.61427c-0.45226,4.07305 4.7066,-0.11041 6.62794,0.35432c2.65169,-0.61948 5.30274,-1.24204 7.95353,-1.8666l0,0zm29.91019,-7.11086c4.74386,-1.13918 9.51183,-2.17634 14.24046,-3.38328c0.70844,-3.95956 -4.55833,0.12779 -6.40245,-0.32745c-7.35571,1.71704 -14.73992,3.30522 -22.07965,5.09323c-0.7854,4.18942 4.57355,0.01389 6.49296,0.43445c2.58272,-0.60652 5.16569,-1.21205 7.74867,-1.81696l0,0z" />
 </g>
</svg>