<svg xmlns="http://www.w3.org/2000/svg" width='100%' height='100%' viewBox='-5 -5 85 85 ' preserveAspectRatio='none'>
 <g>
  <path  d="m10.56848,74.60739c-5.89435,-0.5418 -11.36924,-3.48867 -10.25727,-6.92867c0.56279,-3.77642 6.07517,-6.8158 11.62148,-8.81834c7.3814,-2.73644 17.47385,-3.75297 25.6083,-1.39284c0.47663,-19.0355 0.20499,-38.07576 0.27719,-57.11341c5.12963,-0.67636 3.47106,2.98085 4.63608,4.67214c1.11167,4.97332 7.23732,8.87571 13.33468,12.36035c7.56478,4.38004 15.59749,9.0242 18.05632,15.09245c2.68497,7.0405 -1.60739,14.24299 -7.17775,20.55262c-0.40336,2.02218 -7.21499,4.9478 -3.96969,1.29362c5.46451,-6.2511 9.9789,-13.45029 6.24903,-20.3724c-3.55193,-6.90697 -14.62302,-12.67532 -27.80239,-13.70963c-0.08518,14.58458 0.20741,29.17192 -0.31235,43.75416c-1.29568,4.29542 -8.14694,7.48258 -15.01756,9.30248c-4.73761,1.12326 -10.08467,1.80288 -15.24607,1.30747l0,0z" />
 </g>
</svg>