<svg xmlns="http://www.w3.org/2000/svg" width='100%' height='100%' viewBox='-5 -5 85 85 ' preserveAspectRatio='none'>
 <g>
  <path  d="m5.87258,74.66228c-5.3039,-0.75444 -7.13284,-6.02485 -3.97067,-9.18241c4.1966,-4.88337 13.17352,-8.17538 20.20704,-5.09409c0.14018,-17.19631 0.05928,-34.39355 0.08072,-51.59027c17.53769,-2.7829 35.11329,-5.42266 52.65762,-8.18135c-0.03799,19.27326 -0.07599,38.54651 -0.11398,57.81977c-2.7485,5.82939 -11.62956,9.87171 -19.3627,8.06411c-4.60394,-1.08398 -5.70767,-5.75818 -3.14402,-8.62213c3.51069,-4.27212 10.04493,-7.2053 16.61397,-6.40509c1.87462,-0.14916 4.63512,2.23802 3.84278,-0.46249c0,-11.58594 0,-23.17188 0,-34.75781c-16.09885,2.54905 -32.22954,4.97702 -48.33583,7.49848c-0.07212,13.97722 0.17879,27.95951 -0.18531,41.93267c-1.10976,4.69077 -6.97357,7.93929 -12.63183,8.8861c-1.86909,0.17517 -3.78721,0.32703 -5.65779,0.0945l0,0zm41.99549,-58.32345c8.27165,-1.28036 16.5472,-2.54534 24.81527,-3.83989c1.05222,-3.29712 -3.6568,-1.15587 -5.95974,-1.07538c-14.12337,2.1929 -28.25489,4.35333 -42.3761,6.55475c-1.05223,3.29712 3.6568,1.15587 5.95974,1.07538c5.85301,-0.90732 11.70681,-1.81153 17.56082,-2.71486zm0,-5.77069c8.27165,-1.28036 16.5472,-2.54534 24.81527,-3.83989c1.05222,-3.29712 -3.6568,-1.15587 -5.95974,-1.07538c-14.12337,2.1929 -28.25489,4.35333 -42.3761,6.55475c-1.05223,3.29712 3.6568,1.15588 5.95974,1.07538c5.85301,-0.90732 11.70681,-1.81153 17.56082,-2.71486z" />
 </g>
</svg>