<svg xmlns="http://www.w3.org/2000/svg" width='100%' height='100%' viewBox='-5 -5 85 85 ' preserveAspectRatio='none'>
 <g>
  <path d="m0.47811,74.04231c0.03335,-3.36149 6.3199,-4.46891 8.90056,-6.80107c9.96176,-5.76568 19.66798,-12.42224 25.77418,-21.50879c6.48705,-9.28408 10.00502,-20.65641 7.36622,-31.42547c-1.39934,-6.6823 -8.93056,-12.03045 -16.89939,-11.19409c-5.24834,0.61923 -11.31075,1.66112 -14.34747,5.84012c-3.29626,2.13514 -1.48275,7.13935 2.91163,5.23874c5.62211,-1.85083 12.68342,1.92327 12.46108,7.27254c0.00652,5.07213 -5.94702,8.65021 -11.49521,8.17412c-6.1796,-0.05329 -12.2969,-4.35346 -12.16774,-9.92813c-0.42827,-8.98485 8.58574,-16.32312 18.23432,-18.20621c8.62738,-2.31847 18.65734,-1.38554 25.93241,3.4375c5.41331,3.19131 9.67625,8.02931 10.56564,13.73978c1.92025,7.42432 -0.56134,15.08626 -4.86621,21.54532c-5.53257,8.70149 -13.98605,15.82495 -23.79905,20.93502c-9.11408,5.01257 -18.59421,9.53955 -28.40139,13.46333c-0.05653,-0.19423 -0.11305,-0.38847 -0.16958,-0.5827l0,0zm65.47445,-36.63375c-4.69224,-1.83253 -3.65701,-9.27891 1.80462,-9.44639c4.08672,-0.82215 7.904,2.86154 6.64244,6.26803c-0.79581,3.18773 -5.23322,4.56933 -8.44706,3.17836zm0,-20.36999c-4.69224,-1.83253 -3.65701,-9.27891 1.80462,-9.44638c4.08672,-0.82214 7.904,2.86155 6.64244,6.26803c-0.81648,3.19854 -5.21037,4.56351 -8.44706,3.17836z" />
 </g>
</svg>