<svg xmlns="http://www.w3.org/2000/svg" width='100%' height='100%' viewBox='-5 -5 85 85 ' preserveAspectRatio='none'>
 <g>
  <path  d="m6.02536,74.49505c-5.28017,-0.75275 -7.10093,-6.01131 -3.95291,-9.16177c4.17782,-4.8724 13.11458,-8.15701 20.11663,-5.08265c0.13955,-17.15766 0.05901,-34.31626 0.08035,-51.47434c17.45922,-2.77664 34.95619,-5.41048 52.42202,-8.16296c-0.03782,19.22995 -0.07565,38.45989 -0.11347,57.68983c-2.7362,5.81629 -11.57753,9.84953 -19.27607,8.04599c-4.58333,-1.08155 -5.68213,-5.74524 -3.12994,-8.60275c3.49497,-4.26252 9.99999,-7.18911 16.53963,-6.3907c1.86622,-0.14881 4.61439,2.233 3.82559,-0.46144c0,-9.64066 0,-19.28132 0,-28.92199c-16.02682,2.54332 -32.08534,4.96584 -48.11957,7.48163c-0.07397,12.04237 0.18266,24.09061 -0.18515,36.12838c-1.1592,4.65298 -6.95278,7.87761 -12.57464,8.81847c-1.86073,0.17479 -3.77027,0.32629 -5.63248,0.09429l0,0zm41.8076,-52.43466c8.23465,-1.27748 16.47317,-2.53962 24.70424,-3.83126c1.04752,-3.28971 -3.64044,-1.15328 -5.93308,-1.07297c-14.06017,2.18797 -28.12846,4.34355 -42.18649,6.54002c-1.04752,3.28971 3.64044,1.15328 5.93308,1.07296c5.82683,-0.90528 11.65443,-1.80746 17.48224,-2.70876l0,0zm0,-5.75772c8.23465,-1.27748 16.47317,-2.53962 24.70424,-3.83126c1.04752,-3.28971 -3.64044,-1.15328 -5.93308,-1.07297c-14.06017,2.18797 -28.12846,4.34355 -42.18649,6.54002c-1.04752,3.28971 3.64044,1.15328 5.93308,1.07297c5.82683,-0.90528 11.65443,-1.80746 17.48224,-2.70876l0,0zm0,-5.75772c8.23465,-1.27748 16.47317,-2.53962 24.70424,-3.83126c1.04752,-3.28971 -3.64044,-1.15328 -5.93308,-1.07297c-14.06017,2.18797 -28.12846,4.34355 -42.18649,6.54002c-1.04752,3.28971 3.64044,1.15328 5.93308,1.07297c5.82683,-0.90528 11.65443,-1.80746 17.48224,-2.70876l0,0z" />
 </g>
</svg>