<svg xmlns="http://www.w3.org/2000/svg" width='100%' height='100%' viewBox='-5 -5 85 85 ' preserveAspectRatio='none'>
 <g>
  <path  d="m10.19846,74.61297c-6.26583,-0.49447 -11.09182,-3.4143 -9.70297,-6.53916c1.64426,-4.12422 9.33517,-7.03114 16.87309,-8.64525c6.09712,-1.2089 13.54475,-1.40932 19.34441,0.28493c0.23106,-19.84917 0.10116,-39.69917 0.13542,-59.54872c2.04672,-0.04247 4.39124,-0.25 3.83258,1.15156c0.16629,3.30487 4.19511,6.09185 9.20068,8.15941c10.63304,4.77227 22.42051,10.29296 23.35745,17.7676c1.00195,2.92841 -2.22442,5.81066 -0.85837,8.6534c1.30395,2.80195 0.9152,5.71063 0.09165,8.52697c3.87228,5.05473 2.93724,10.87462 -1.28131,15.81033c0.38969,1.54251 -7.11324,4.05908 -3.82658,1.48832c4.43801,-4.68875 6.77265,-10.45547 1.95995,-15.2802c-5.82864,-4.67619 -16.43559,-7.07384 -25.13322,-10.26646c-6.05384,-2.96819 -2.79049,2.79892 -3.69236,4.51813c-0.13458,8.43348 -0.14523,16.86727 -0.21112,25.30092c-2.71043,3.21274 -7.68206,5.93273 -14.30345,7.3274c-4.85419,1.10304 -10.43089,1.83226 -15.78585,1.29082l-0.00001,0zm59.04036,-36.35586c-3.75143,-6.54974 -15.68646,-10.98877 -27.33803,-14.18793c-3.18954,-0.21713 0.94564,3.54031 1.8417,4.70388c4.17327,3.98398 12.39132,6.33562 18.31739,9.62604c2.58522,1.04265 5.52811,3.19418 7.54561,3.76977c0.29315,-1.29783 0.11566,-2.62908 -0.36666,-3.91175l-0.00001,0zm0.47198,-8.93462c-0.05937,-5.50512 -8.55333,-9.89317 -16.78598,-13.16962c-3.83862,-1.23678 -8.48069,-3.31934 -12.42317,-3.56904c0.75027,3.06438 3.57242,6.06517 8.75672,7.94473c7.37582,3.48465 15.1738,6.96056 20.29144,11.33677c0.58913,-0.76076 0.0674,-1.7312 0.16098,-2.54284z" />
 </g>
</svg>