<svg xmlns="http://www.w3.org/2000/svg" width='100%' height='100%' viewBox='-5 -5 85 85 ' preserveAspectRatio='none'>
 <g>
  <path  d="m3.89796,74.59665c-3.57739,-0.57138 -4.60409,-6.06276 -2.23307,-8.93059c2.59584,-4.0726 7.56376,-6.64309 11.62092,-4.13505c0.16533,-15.51952 0.07179,-31.04236 0.09648,-46.56339c20.48365,-4.88432 40.99525,-9.6073 61.48775,-14.44022c-0.05904,17.15855 0.14408,34.32274 -0.14273,51.47681c-0.49194,4.4252 -4.28172,7.36403 -7.69353,8.28304c-2.98968,1.09226 -7.19953,-1.27424 -6.49144,-5.54123c0.87546,-4.61502 4.87026,-7.94038 8.71048,-8.34487c2.16811,-0.65771 5.12572,2.79937 4.16837,-1.73829c-0.0246,-9.94566 0.19682,-19.91042 -0.12694,-29.84468c-9.49301,2.18402 -18.97407,4.44148 -28.46059,6.66522c-0.10102,12.88602 0.05723,25.78221 -0.27553,38.66014c-1.66426,5.37562 -7.43251,8.9832 -11.99057,6.70065c-3.59403,-2.21535 -1.98895,-8.05978 0.74179,-10.26705c2.58445,-3.22236 7.40446,-3.67799 10.13519,-2.39776c0.06379,-10.7748 0.02981,-21.55003 0.03845,-32.32504c-9.59666,2.30411 -19.21305,4.49457 -28.81434,6.77269c-0.06442,12.79228 0.15785,25.59731 -0.17512,38.37942c-1.30067,5.0381 -6.30804,8.30287 -10.59556,7.59018l0,0zm24.79195,-52.66253c4.93089,-1.15688 9.86428,-2.29881 14.79307,-3.46822c0.40956,-3.89306 -4.27508,-0.08312 -6.10303,-0.46061c-7.55081,1.76119 -15.09814,3.54352 -22.64699,5.31661c-0.69324,3.76203 3.6375,0.37972 5.35135,0.6271c2.86833,-0.67286 5.7369,-1.34423 8.6056,-2.01487zm0.57886,-5.41195c4.71664,-1.10894 9.43327,-2.21788 14.1499,-3.32682c0.79447,-3.95981 -3.58332,-0.53616 -5.33681,-0.75686c-7.78668,1.86702 -15.57201,3.74229 -23.36206,5.58924c-0.45117,4.05487 4.69609,-0.10997 6.61325,0.35271c2.6457,-0.61664 5.29086,-1.23651 7.93572,-1.85828l0,0zm29.9399,-1.81726c4.74879,-1.1112 9.49759,-2.22239 14.24638,-3.33359c0.56342,-3.72747 -3.60603,-0.39109 -5.3032,-0.63956c-7.79339,1.83072 -15.59092,3.63664 -23.38251,5.47814c-0.12031,3.84053 4.92257,-0.1524 7.05251,0.21943c2.46251,-0.57332 4.92476,-1.14833 7.38682,-1.72442l0,0zm-0.09648,-5.26186c4.73331,-1.1341 9.49059,-2.16664 14.20865,-3.36819c0.70691,-3.9419 -4.54811,0.12722 -6.38809,-0.32599c-7.33927,1.70939 -14.70707,3.29047 -22.03035,5.07051c-0.78363,4.17073 4.56324,0.01383 6.47843,0.43251c2.57698,-0.60381 5.15412,-1.20663 7.73137,-1.80885l0,0z" />
 </g>
</svg>