<svg xmlns="http://www.w3.org/2000/svg" width='100%' height='100%' viewBox='-5 -5 85 85 ' preserveAspectRatio='none'>
 <g>
  <path d="m16.00451,75.09708c-5.55285,-0.70772 -9.7448,-4.13516 -8.3545,-7.69873c1.96631,-4.99956 9.41598,-8.45797 16.87154,-10.10162c4.96619,-1.03262 10.60173,-0.87652 15.26481,0.65887c0.41639,-19.0962 0.17861,-38.19721 0.24185,-57.29556c1.68318,-0.00026 3.8431,-0.34048 3.38576,1.18568c0.23487,3.42952 2.92679,6.56907 7.06372,8.78136c9.22905,5.38351 19.6108,11.22932 21.73083,19.43425c0.60182,3.46151 -0.04319,6.95006 -1.2714,10.33035c3.63725,4.25034 3.41808,9.39987 1.94119,14.00974c-0.95769,2.43422 -2.51976,4.77914 -4.50543,6.9506c-4.68852,1.36649 0.55573,-2.23351 0.48995,-3.5304c2.536,-3.89604 2.82692,-8.23589 1.67346,-12.33984c-2.51274,-6.00352 -12.01225,-8.93686 -19.65137,-12.07569c-2.76402,-0.67725 -8.67226,-4.76187 -7.50071,-0.75935c-0.25607,10.84956 -0.21234,21.70069 -0.29256,32.55109c-3.20659,5.03043 -10.56272,8.86959 -19.1069,9.83229c-2.61757,0.28322 -5.35885,0.38679 -7.98024,0.06698l0,-0.00001l-0.00001,-0.00001zm53.27403,-41.02265c0.07618,-6.17453 -7.26944,-11.17027 -14.46717,-14.8319c-3.60168,-1.70012 -7.41681,-3.50128 -11.46676,-4.60163c0.2491,3.55062 2.84406,7.01016 5.95017,9.9587c5.85354,4.91055 14.69064,8.19518 19.59413,13.6019c0.58798,-1.3424 0.41063,-2.7513 0.38963,-4.12707z"  />
 </g>
</svg>