<svg xmlns="http://www.w3.org/2000/svg" width='100%' height='100%' viewBox='-5 -5 85 85' preserveAspectRatio='none'>
 <g>
 <path  id="svg_1" d="m5.43981,25.03571l63.3056,0c0.02202,0.00306 0.04404,0 0.05505,0c0.75967,0 1.37621,-0.6855 1.37621,-1.53013c0,-0.6549 -0.37158,-1.21493 -0.89178,-1.43221l-30.07566,-21.2811c-0.43488,-0.30603 -0.98537,-0.31827 -1.43401,-0.0306l-33.02901,21.42188c-0.53672,0.34887 -0.7982,1.05579 -0.63306,1.72293c0.15964,0.66714 0.70737,1.12924 1.32667,1.12924z"/>
   <path  id="svg_3" d="m68.74541,61.75893l-63.3056,0c-0.75967,0 -1.37621,0.6855 -1.37621,1.53013l0,9.1808c0,0.84463 0.61654,1.53013 1.37621,1.53013l63.3056,0c0.75967,0 1.37621,-0.6855 1.37621,-1.53013l0,-9.1808c0,-0.84463 -0.61379,-1.53013 -1.37621,-1.53013z"/>
   <path  id="svg_4" d="m24.70673,31.15625c0.75967,0 1.37621,-0.6855 1.37621,-1.53013s-0.61379,-1.53013 -1.37621,-1.53013l-2.75242,0l-8.25725,0l-2.75242,0c-0.75967,0 -1.37621,0.6855 -1.37621,1.53013s0.61654,1.53013 1.37621,1.53013l1.37621,0l0,24.48214l-1.37621,0c-0.75967,0 -1.37621,0.6855 -1.37621,1.53013s0.61654,1.53013 1.37621,1.53013l2.75242,0l8.25725,0l2.75242,0c0.75967,0 1.37621,-0.6855 1.37621,-1.53013s-0.61379,-1.53013 -1.37621,-1.53013l-1.37621,0l0,-24.48214l1.37621,0z"/>
   <path  id="svg_5" d="m43.97365,31.15625c0.75967,0 1.37621,-0.6855 1.37621,-1.53013s-0.61379,-1.53013 -1.37621,-1.53013l-2.75242,0l-8.25725,0l-2.75242,0c-0.75967,0 -1.37621,0.6855 -1.37621,1.53013s0.61654,1.53013 1.37621,1.53013l1.37621,0l0,24.48214l-1.37621,0c-0.75967,0 -1.37621,0.6855 -1.37621,1.53013s0.61654,1.53013 1.37621,1.53013l2.75242,0l8.25725,0l2.75242,0c0.75967,0 1.37621,-0.6855 1.37621,-1.53013s-0.61654,-1.53013 -1.37621,-1.53013l-1.37621,0l0,-24.48214l1.37621,0z"/>
   <path  id="svg_6" d="m63.24057,31.15625c0.75967,0 1.37621,-0.6855 1.37621,-1.53013s-0.61379,-1.53013 -1.37621,-1.53013l-2.75242,0l-8.25725,0l-2.75242,0c-0.75967,0 -1.37621,0.6855 -1.37621,1.53013s0.61654,1.53013 1.37621,1.53013l1.37621,0l0,24.48214l-1.37621,0c-0.75967,0 -1.37621,0.6855 -1.37621,1.53013s0.61654,1.53013 1.37621,1.53013l2.75242,0l8.25725,0l2.75242,0c0.75967,0 1.37621,-0.6855 1.37621,-1.53013s-0.61654,-1.53013 -1.37621,-1.53013l-1.37621,0l0,-24.48214l1.37621,0z"/>
      </g>
   </svg>