<svg xmlns="http://www.w3.org/2000/svg" width='100%' height='100%' viewBox='-5 -5 85 85 ' preserveAspectRatio='none'>
 <g>
   <path id="svg_1" d="m74.13232,34.22832c-0.10278,-0.43222 -0.42673,-0.76388 -0.83291,-0.85562l-0.49745,-0.11114l0,-7.46331l0.81154,-0.74448c0.32067,-0.29285 0.45469,-0.75859 0.34451,-1.19434s-0.44482,-0.76477 -0.85922,-0.84504l-4.55924,-0.88738l0.00164,-6.28396l-0.00164,-0.12967l0.83949,-0.76918c0.31985,-0.29373 0.45469,-0.75947 0.34451,-1.19434c-0.11018,-0.43663 -0.44482,-0.76565 -0.85922,-0.84592l-36.84965,-7.13341c-0.28613,-0.05645 -0.57967,0.01323 -0.81729,0.19141l-28.5534,21.36319c-0.53938,0.32108 -2.51436,1.77563 -2.47736,5.81822c0.04193,4.39013 2.46339,6.38364 2.56699,6.46656c0.01398,0.01147 0.0296,0.01852 0.0444,0.02911c0.02467,0.01852 0.04933,0.03528 0.07482,0.05116c0.02713,0.01676 0.05509,0.03087 0.08387,0.04499c0.02549,0.01323 0.05098,0.0247 0.07893,0.03528c0.03124,0.01235 0.06249,0.02117 0.09456,0.02999c0.01809,0.00617 0.03536,0.01411 0.05344,0.01852l1.68638,0.3793c-0.2738,0.79829 -0.45962,1.79857 -0.44729,3.05554c0.02056,2.17522 0.62489,3.76121 1.24238,4.81882l-1.30652,0.97647c-0.54267,0.32461 -2.51436,1.78181 -2.47572,5.81822c0.04111,4.39013 2.46174,6.38805 2.56781,6.46656c0.09127,0.06704 0.2738,0.17024 0.42838,0.20817l38.65608,8.70176c0.00411,0.00088 0.00822,0.00265 0.01233,0.00353l1.38052,0.31049c0.074,0.01676 0.14964,0.0247 0.22365,0.0247c0.25653,0 0.50813,-0.09791 0.70711,-0.27962l25.40593,-23.28172c0.31656,-0.29021 0.4514,-0.74801 0.34862,-1.17935c-0.1036,-0.43222 -0.42673,-0.76388 -0.83374,-0.85562l-0.45387,-0.10144l0,-6.29014l3.47719,-3.18609c0.31738,-0.29109 0.45305,-0.74889 0.34945,-1.18023zm-30.86797,4.27899c0.25736,0 0.50896,-0.09791 0.70794,-0.2805l22.40069,-20.52697l0,7.43244l-23.31007,21.2688l0,-7.9167c0.06824,0.01323 0.13484,0.02293 0.20145,0.02293zm-38.93317,-8.7388l36.5479,8.2272l0,7.91229l-36.5479,-8.21044l0,-7.92905zm1.69625,29.64419l0,-7.92288l36.54707,8.22896l0,7.92288l-36.54707,-8.22896zm2.55712,-11.60381l0,-6.76999l33.23515,7.48095c0.00411,0.00088 0.0074,0.00265 0.01151,0.00353l1.38052,0.31049c0.07482,0.01676 0.14964,0.0247 0.22365,0.0247c0.25653,0 0.50896,-0.09791 0.70794,-0.27962l0.60434,-0.55483l0.36507,0.08203l0,7.92023l-36.52816,-8.21749zm59.54059,-1.00646l-23.35859,21.3332l-0.0074,-7.92729c0.0666,0.01411 0.13402,0.02205 0.20145,0.02205c0.25653,0 0.50813,-0.09703 0.70711,-0.27962l1.23252,-1.12907l0.54514,0.12261c0.074,0.01676 0.14964,0.0247 0.22282,0.0247c0.25736,0 0.50896,-0.09791 0.70794,-0.27962l19.74902,-18.10565l0,6.21869zm2.53574,-11.6091l-23.3553,21.32614l-0.00822,-7.92376c0.06742,0.01323 0.13402,0.02205 0.20062,0.02205c0.25736,0 0.50896,-0.09791 0.70794,-0.27962l22.45825,-20.58078l-0.00329,7.43597z" />
 </g>
</svg>