<svg xmlns="http://www.w3.org/2000/svg" width='100%' height='100%' viewBox='-5 -5 85 85 ' preserveAspectRatio='none'>
 <g>
   <path  id="svg_2" d="m44.18838,43.36089l0,2.92973c0,0.44722 -0.36424,0.81229 -0.81414,0.81229l-12.08237,0c-0.44907,0 -0.81414,-0.36508 -0.81414,-0.81229l0,-2.92973c-10.64785,-0.45966 -20.87492,-1.97058 -30.1814,-4.45972l0,25.74028c0,1.33335 1.08524,2.41613 2.42246,2.41613l69.22769,0c1.33722,0 2.42246,-1.08278 2.42246,-2.41613l0,-25.74028c-9.30481,2.48915 -19.53188,4.00006 -30.18056,4.45972z"/>
   <path  id="svg_3" d="m71.94732,18.50592l-69.22769,0c-1.33722,0 -2.42246,1.08278 -2.42246,2.41696l0,14.4661c9.09192,2.49081 19.31816,4.07805 30.1814,4.55846l0,-2.66754c0,-0.44805 0.36424,-0.81229 0.81414,-0.81229l12.08237,0c0.44907,0 0.81414,0.36425 0.81414,0.81229l0,2.66754c10.86324,-0.48041 21.0903,-2.06765 30.1814,-4.55846l0,-14.4661c-0.00083,-1.33418 -1.08607,-2.41696 -2.42329,-2.41696z"/>
   <path  id="svg_4" d="m41.98879,44.68844c0,0.28874 -0.24865,0.52521 -0.55302,0.52521l-8.20294,0c-0.30603,0 -0.55302,-0.23647 -0.55302,-0.52521l0,-5.80635c0,-0.28957 0.24699,-0.52438 0.55302,-0.52438l8.20294,0c0.30437,0 0.55302,0.23481 0.55302,0.52438l0,5.80635z"/>
   <path  id="svg_5" d="m47.87072,14.85102l0,-3.34293c0,-2.0577 -1.67818,-3.73206 -3.74055,-3.73206l-13.67406,0c-2.06155,0 -3.73972,1.67437 -3.73972,3.73206l0,3.31638l-0.7526,0l0,1.83865l0.7526,0l0,0.02655l3.84534,0l0,-0.02655l0.90229,0l0,-1.83865l-0.90229,0l0,-3.21183l13.462,0l0,3.23755l-0.82162,0l0,1.83865l0.82162,0l3.84617,0l0.83244,0l0,-1.83865l-0.8316,0l0,0.00083z"/>
  
  
  
 </g>
</svg>