<svg xmlns="http://www.w3.org/2000/svg" width='100%' height='100%' viewBox='-5 -5 85 85 ' preserveAspectRatio='none'>
 <g>
  <path   d="m21.27195,15.91667l32.45916,0l1.0175,3.08333l-34.49416,0l1.0175,-3.08333zm-1.77528,-9.25l36.00972,0l6.11111,18.5l6.43805,0l-8.14611,-24.66667l-44.81583,0l-8.14917,24.66667l6.44111,0l6.11111,-18.5zm3.81333,3.08333l-1.0175,3.08333l30.42111,0l-1.02056,-3.08333l-28.38305,0zm-5.09361,15.41667l38.57027,0l-1.0175,-3.08333l-36.53527,0l-1.0175,3.08333zm-12.79972,24.66667l-4.58333,-18.5l73.33332,0l-4.58333,18.5l-64.16666,0zm25.97222,-9.25l12.22222,0l0,-3.08333l-12.22222,0l0,3.08333zm42.77777,15.41667l-4.58333,18.5l-64.16666,0l-4.58333,-18.5l73.33332,0zm-30.55555,6.16667l-12.22222,0l0,3.08333l12.22222,0l0,-3.08333z" />
 </g>
</svg>