<svg xmlns="http://www.w3.org/2000/svg" width='100%' height='100%' viewBox='-5 -5 85 85' preserveAspectRatio='none'>
 <g>
  <path  d="m22.57039,38.15337c1.12652,-0.97 1.47315,-1.59079 1.47315,-1.59079l0.08666,0c0,0 -0.04332,0.8536 -0.04332,1.70719l0,17.68302l-6.75554,0l0,3.33355l17.58391,0l0,-3.33355l-6.66888,0l0,-24.04296l-3.80924,0l-7.31881,6.35994l2.59607,2.40559l2.85603,-2.52199l-0.00001,0zm15.90495,19.04102c0,0.66283 0.08666,1.35799 0.21664,2.09196l19.70336,0l0,-3.33355l-15.15393,0c0.08305,-6.24354 14.67733,-7.6371 14.67733,-16.63866c0,-4.73035 -4.02227,-7.87637 -9.6549,-7.87637c-6.88553,0 -9.65851,5.19594 -9.65851,5.19594l3.15933,1.89796c0,0 2.1664,-3.49199 6.19589,-3.49199c3.20265,0 5.49542,1.82036 5.49542,4.53635c0,6.45371 -14.98062,7.8505 -14.98062,17.61836zm-15.03116,-56.91612l-7.22131,0l0,10.78312l7.22131,0l0,-10.78312zm39.71723,3.77005l0,10.24962l-14.44263,0l0,-10.24962l-21.66394,0l0,10.24316l-14.43541,0l0,-10.24316l-8.73418,0l0,70.0628l67.99951,0l0,-70.0628l-8.72335,0zm5.1163,66.82625l-60.7782,0l0,-48.22819l60.7782,0l0,48.22819zm-8.72696,-70.5963l-7.22131,0l0,10.78312l7.22131,0l0,-10.78312z" />
 </g>
</svg>