<svg xmlns="http://www.w3.org/2000/svg" width='100%' height='100%' viewBox='-5 -5 85 85 ' preserveAspectRatio='none'>
 <g>
  <path  d="m55.0185,32.92994c-1.65881,-1.12821 -1.43989,-0.84466 -2.0658,-2.67273c-0.26208,-0.76321 -1.01748,-1.28206 -1.86539,-1.28206l-0.00617,0c-2.04422,0.00905 -1.69272,0.11463 -3.34228,-1.01962c-0.34224,-0.23831 -0.74924,-0.35596 -1.15623,-0.35596s-0.81399,0.11765 -1.15623,0.35596c-1.66189,1.1433 -1.30115,1.02867 -3.34228,1.01962l-0.00617,0c-0.8479,0 -1.60639,0.51886 -1.86539,1.28206c-0.62591,1.83411 -0.41008,1.55054 -2.0658,2.67273c-0.52108,0.35294 -0.81399,0.91102 -0.81399,1.49323l0.09558,0.57316c0.64132,1.83109 0.64132,1.47814 0,3.3032l-0.09558,0.57618c0,0.57919 0.29291,1.14029 0.81399,1.49624c1.65572,1.12219 1.44298,0.83862 2.0658,2.67273c0.26208,0.76321 1.01748,1.27905 1.86539,1.27905l0.00617,0c2.04422,-0.00604 1.69272,-0.11463 3.34228,1.01962c0.34224,0.2353 0.74924,0.35596 1.15623,0.35596s0.81399,-0.12066 1.15623,-0.35596c1.64956,-1.13425 1.29498,-1.02565 3.34228,-1.01962l0.00617,0c0.8479,0 1.60639,-0.51584 1.86539,-1.27905c0.62591,-1.83109 0.40699,-1.54753 2.0658,-2.67273c0.52108,-0.35294 0.81399,-0.91706 0.81399,-1.49624l-0.09558,-0.57316c-0.64132,-1.83411 -0.63824,-1.48116 0,-3.3032l0.09558,-0.57618c0,-0.58221 -0.29291,-1.1433 -0.81399,-1.49323zm-8.43587,8.24443c-2.55296,0 -4.62493,-2.02416 -4.62493,-4.52493s2.07197,-4.52493 4.62493,-4.52493s4.62493,2.02416 4.62493,4.52493s-2.07197,4.52493 -4.62493,4.52493zm3.2837,7.56267l0.0555,-0.02111l2.82737,0l0,21.11635l-6.10799,-3.87636l-6.22516,3.87636l0,-21.11635l2.81504,0c1.09765,0.75416 1.82531,1.29413 3.35153,1.29413c1.25181,0 2.46355,-0.52489 3.2837,-1.27301l0.00001,0zm24.46588,-39.23719l0,54.29919l-15.41643,0c0.30525,-3.4118 1.19323,-10.36209 9.24986,-13.81009l0,-26.679c-3.54886,-1.52038 -6.39474,-4.30472 -7.94871,-7.77685l-45.7683,0c-1.55398,3.47213 -4.39985,6.25647 -7.94871,7.77685l0,26.679c3.54886,1.52038 6.39474,4.30472 7.94871,7.77685l19.80087,0l0,6.03325l-33.91615,0l0,-54.29919l73.99888,0l-0.00002,-0.00001zm-43.16601,27.14959l-15.41643,0l0,-3.01662l15.41643,0l0,3.01662zm0,3.01662l-15.41643,0l0,3.01662l15.41643,0l0,-3.01662zm-6.16657,6.03325l-9.24986,0l0,3.01662l9.24986,0l0,-3.01662zm6.16657,-15.08311l-15.41643,0l0,-3.01662l15.41643,0l0,3.01662z" />
 </g>
</svg>