<svg xmlns="http://www.w3.org/2000/svg" width='100%' height='100%' viewBox='-5 -5 85 85 ' preserveAspectRatio='none'>
 <g>
  <path d="m68.18055,15.78328l0,46.26675l-4.72841,0c-2.12886,-3.45555 -6.10663,-5.78334 -10.65353,-5.78334s-8.52467,2.3278 -10.65353,5.78334l-9.45682,0c-2.12886,-3.45555 -6.10663,-5.78334 -10.65353,-5.78334s-8.52467,2.3278 -10.65353,5.78334l-4.72841,0l0,-46.26675l61.52778,0l-0.00002,0zm6.15278,-5.78334l-73.83333,0l0,57.83344l15.38194,0c0,-3.19241 2.75644,-5.78334 6.15278,-5.78334s6.15278,2.59094 6.15278,5.78334l18.45833,0c0,-3.19241 2.75644,-5.78334 6.15278,-5.78334s6.15278,2.59094 6.15278,5.78334l15.38194,0l0,-57.83344zm-30.76389,39.31807l0,1.16534l-30.76389,0l0,-1.20583c-0.01231,-3.21554 0.13536,-5.05175 4.07314,-5.90769c4.3131,-0.9369 8.5739,-1.7726 6.52502,-5.32357c-6.06664,-10.51701 -1.72893,-16.47964 4.78378,-16.47964c6.38966,0 10.83197,5.73997 4.78686,16.47964c-1.99042,3.52784 2.11656,4.36642 6.52502,5.32357c3.95008,0.85883 4.08544,2.70661 4.07006,5.94817l0.00001,0zm18.45833,-27.75138l-12.30556,0l0,5.78334l12.30556,0l0,-5.78334zm0,11.56669l-12.30556,0l0,5.78334l12.30556,0l0,-5.78334zm0,11.56669l-12.30556,0l0,5.78334l12.30556,0l0,-5.78334z"/>
 </g>
</svg>