<svg xmlns="http://www.w3.org/2000/svg" width='100%' height='100%' viewBox='-5 -5 85 85' preserveAspectRatio='none'>
 <g>
 <path  id="svg_2" d="m46.774,20.88022c1.05532,-0.75236 2.03998,-1.57487 2.93294,-2.45791c3.56208,-3.52259 5.44647,-7.72814 5.44647,-12.16109l0,-2.60779c0,-1.74173 -1.43641,-3.15342 -3.20955,-3.15342c-1.77164,0 -3.2103,1.41169 -3.2103,3.15342l0,0.63054l-22.46837,0l0,-0.63054c0,-1.74173 -1.43716,-3.15342 -3.20955,-3.15342c-1.77315,0 -3.2103,1.41169 -3.2103,3.15342l0,2.60779c0,4.43295 1.88289,8.6385 5.44647,12.16109c2.99984,2.96589 7.02569,5.25693 11.33641,6.45156c3.21632,0.89191 6.3244,2.65062 8.52523,4.82722c1.30863,1.2943 2.81945,3.25384 3.3674,5.75826l-22.04218,0c0.26834,-1.22563 0.76744,-2.32058 1.35899,-3.27156l17.3857,0c-0.39537,-0.52274 -0.81254,-0.98494 -1.20866,-1.37625c-0.96888,-0.95762 -2.13244,-1.82811 -3.40949,-2.56497l-9.07319,0c1.09365,-0.82915 2.31659,-1.56379 3.60943,-2.1707c-2.45264,-0.78337 -4.7993,-1.89899 -6.9152,-3.2782c-1.05532,0.75236 -2.03998,1.57487 -2.93294,2.45791c-3.56508,3.52259 -5.44797,7.72814 -5.44797,12.16109c0,4.43369 1.88289,8.63924 5.44647,12.16257c2.99984,2.96515 7.02569,5.2562 11.33641,6.45082c3.21632,0.89043 6.3244,2.65062 8.52523,4.82649c1.30787,1.29356 2.81644,3.25088 3.36665,5.75236l-22.03993,0c0.26909,-1.22563 0.76819,-2.32132 1.36199,-3.27082l17.37743,0c-0.39387,-0.522 -0.81028,-0.98051 -1.20565,-1.37035c-0.97113,-0.96131 -2.1392,-1.83328 -3.42077,-2.57088l-9.05364,0c1.09065,-0.8262 2.31133,-1.55788 3.60041,-2.16406c-2.45264,-0.78411 -4.7993,-1.89973 -6.9152,-3.2782c-1.05532,0.75236 -2.03998,1.57487 -2.93294,2.45791c-3.56358,3.52259 -5.44647,7.7274 -5.44647,12.16035l0,2.60779c0,1.74173 1.43716,3.15268 3.2103,3.15268c1.77164,0 3.20955,-1.41096 3.20955,-3.15268l0,-0.63128l22.46987,0l0,0.63128c0,1.74099 1.43716,3.15268 3.2103,3.15268c1.77315,0 3.2103,-1.41096 3.2103,-3.15268l0,-2.60779c0,-4.43295 -1.88364,-8.63776 -5.44647,-12.16109c-2.99984,-2.96589 -7.02644,-5.25693 -11.33566,-6.45156c-3.21707,-0.89117 -6.3244,-2.65062 -8.52523,-4.82649c-1.30938,-1.2943 -2.81945,-3.25457 -3.3674,-5.759l22.04068,0c-0.26759,1.22563 -0.76744,2.32132 -1.36049,3.27156l-17.38495,0c0.39537,0.52274 0.81254,0.98494 1.20866,1.37625c0.96888,0.95836 2.13319,1.82885 3.40949,2.56497l9.07244,0c-1.09365,0.82841 -2.31659,1.56305 -3.60943,2.16996c2.45339,0.78411 4.7993,1.89973 6.9152,3.2782c1.05532,-0.75236 2.03923,-1.57487 2.93294,-2.45717c3.56208,-3.52259 5.44647,-7.72887 5.44647,-12.16257c0,-4.43295 -1.88439,-8.6385 -5.44647,-12.16183c-2.99984,-2.96515 -7.02644,-5.25693 -11.33566,-6.45082c-3.21707,-0.89117 -6.3244,-2.65062 -8.52523,-4.82649c-1.30863,-1.29356 -2.81719,-3.25162 -3.36665,-5.75236l22.03918,0c-0.26834,1.22563 -0.76744,2.32058 -1.36199,3.27082l-17.37819,0c0.39462,0.52126 0.81028,0.97977 1.20565,1.37035c0.97189,0.96057 2.13995,1.83328 3.42077,2.57088l9.0544,0c-1.09215,0.8262 -2.31283,1.55862 -3.60116,2.16406c2.45414,0.78411 4.80005,1.90047 6.91745,3.27968z"/>
 </g>
 </svg>