<svg xmlns="http://www.w3.org/2000/svg" width='100%' height='100%' viewBox='-5 -5 85 85' preserveAspectRatio='none'>
 <g>
  <path   d="m74.03003,26.04347c-0.01099,-5.70563 -4.92268,-10.32854 -10.98537,-10.33629l0,-0.00258l-33.67035,0c-1.38725,-4.19137 -5.52428,-7.25608 -10.45245,-7.26384l-7.89771,0c-6.06544,0.00517 -10.97988,4.63066 -10.99087,10.33629l0,36.66285c0.01099,5.70047 4.92543,10.32338 10.99087,10.33371l52.02326,0c6.0572,-0.01034 10.97439,-4.63324 10.98537,-10.33371l0,-29.39643l-0.00275,0zm-63.00589,-12.43715l7.89771,0c2.87339,-0.01034 5.26606,2.15512 5.44736,4.84772l0.15933,2.42128l38.51886,0c3.0025,0.00517 5.48582,2.34117 5.49131,5.16815l0,1.27912c-1.62349,-0.8915 -3.48323,-1.43933 -5.49406,-1.44191l-52.02326,0c-2.01083,0.00258 -3.87331,0.55299 -5.49406,1.44449l0,-8.5507c0.00824,-2.82697 2.49156,-5.16298 5.49681,-5.16815zm52.02051,46.99914l-52.02051,0c-3.0025,-0.00517 -5.48582,-2.34634 -5.49681,-5.16815l0,-19.22034l0.00275,0c0.00549,-2.82956 2.48881,-5.16556 5.49406,-5.17073l52.02326,0c3.0025,0.00517 5.46934,2.32825 5.49406,5.14489l0,19.2436c-0.01099,2.82956 -2.4943,5.16556 -5.49681,5.17073z"/>
 </g>
</svg>