<svg xmlns="http://www.w3.org/2000/svg" width='100%' height='100%' viewBox='-5 -5 85 85' preserveAspectRatio='none'>
 <g>
  <path d="m9.74511,42.05301c0.53724,-0.37255 0.88917,-0.99439 0.88917,-1.69859c0,-0.76406 -0.4143,-1.43118 -1.03009,-1.7881l0,-7.50105l0,0l27.81249,9.28915l37.08332,-12.38554l-37.08332,-12.38554l-37.08332,12.38554l7.21064,2.4083l0,8.18914l0,0c-0.61579,0.35692 -1.03009,1.02404 -1.03009,1.7881c0,0.73507 0.38345,1.3804 0.96087,1.74613c-0.45419,1.30377 -2.97504,8.62125 -2.50601,9.09121c0.51505,0.51606 2.57523,-1.03213 2.57523,-1.03213c0,0 0.51505,1.54819 1.03009,1.54819c0.51505,0 1.03009,-1.54819 1.03009,-1.54819c0,0 1.54514,2.06426 2.06018,1.54819c0.47625,-0.47719 -1.24938,-8.45558 -1.91926,-9.65482zm7.06972,-6.85923l0,15.48192c0,0 3.60532,7.74096 20.60184,7.74096c16.99652,0 20.60184,-7.74096 20.60184,-7.74096l0,-15.48192l-20.60184,7.2249l-20.60184,-7.2249z"/>
 </g>
</svg>