<svg xmlns="http://www.w3.org/2000/svg" width='100%' height='100%' viewBox='-5 -5 85 85' preserveAspectRatio='none'>
 <g  id="svg_4">
  <path  id="svg_2" d="m71.88371,63.98344c-0.95479,-2.34888 -2.77178,-4.11396 -4.95359,-5.09939l0.23458,-0.016l-18.14878,-6.5261l0.01648,-5.70986c1.50553,-2.29705 2.65959,-4.89743 3.32567,-7.49171c1.57222,-0.70573 2.913,-3.0165 3.38372,-5.95984c0.26753,-1.67744 0.21261,-3.31449 -0.1624,-4.61163c-0.44091,-1.54102 -1.29998,-2.48377 -2.41403,-2.65982l0.11219,-1.03116c0,0 0.19614,-2.00211 -0.21653,-4.35175l0.13886,0l0,-6.36605l4.46247,-1.288l0,17.37574l2.30576,-2.1492l2.30498,2.1492l0,-18.70794l6.88121,-1.98687l-31.87902,-9.04874l-31.87667,9.04874l15.95442,4.60477l0,6.36605l0.25105,0l0.08395,4.35175l0.1114,1.04792c-1.07717,0.20806 -1.90957,1.13786 -2.33872,2.64306c-0.37423,1.29714 -0.4315,2.93495 -0.16162,4.61163c0.45817,2.85874 1.71501,5.11387 3.2276,5.89429c0.78925,3.09805 2.27046,6.21134 4.22004,8.80714l0.00706,4.1475l-17.55253,6.3127c-2.83376,0.77737 -5.27839,2.77795 -6.44422,5.64203l-2.44306,10.74676l74.03866,0l-2.46895,-10.74523zm-24.81266,-12.34265l-0.00157,3.29468l-9.14617,6.10083l-9.21521,-6.14732l0,-3.56447l-0.00235,-1.18968c0.29969,0.29952 0.60645,0.58684 0.92105,0.85892c2.3089,2.00287 4.98497,3.26648 7.82501,3.26648c2.83611,0 5.50983,-1.26589 7.81795,-3.26876c0.63077,-0.54797 1.23408,-1.14624 1.8068,-1.79329l-0.00549,2.44262zm-0.15142,-5.373c-1.09836,1.55322 -2.3701,2.91971 -3.75873,3.96535c-1.75894,1.32458 -3.70225,2.13091 -5.7091,2.13091s-3.95173,-0.80633 -5.70832,-2.13091c-1.09443,-0.82538 -2.11904,-1.8474 -3.04245,-3.00583c-0.71785,-0.90083 -1.37295,-1.88322 -1.95821,-2.90828c-1.1062,-1.95257 -1.94801,-4.07586 -2.42894,-6.14884c-0.08159,-0.34829 -0.35697,-0.62342 -0.71236,-0.71183c-0.71629,-0.17453 -1.9386,-1.86188 -2.37402,-4.57276c-0.22359,-1.39164 -0.18123,-2.781 0.11376,-3.80835c0.1828,-0.63409 0.4315,-1.02887 0.66607,-1.20035l0.48485,4.55295c0.8018,0 0.89124,-0.86501 0.89124,-0.86501s0,-1.9983 0,-3.46539c0,-0.11584 0.00235,-0.21644 0.00785,-0.32162l0.00392,-0.00152c0.28322,-0.17605 0.45425,-0.47862 0.45425,-0.80176l0,-0.80862c0.19535,-0.17605 0.46209,-0.27056 0.84181,-0.27056c1.09365,0 1.09365,-1.06241 1.09365,-1.06241c0,-0.20196 0,-0.72021 0,-1.92513c9.80676,-0.16081 13.56784,-1.25522 13.56784,-1.25522s1.573,-0.3864 3.48728,-1.12719l5.98055,0c0.21104,0.5152 0.3554,1.12947 0.3554,1.88931c0,1.56693 0,2.19035 0,2.41899c0,0 0,1.06241 1.09679,1.06241c0.34206,0 0.58997,0.08155 0.77983,0.22483l0,0.92751c0,0.33838 0.18358,0.64857 0.48249,0.81852c0.01255,0.0061 0.02746,0.00838 0.03844,0.016c0,0.07164 0.00628,0.13871 0.00628,0.21644c0,1.46709 0,3.46539 0,3.46539s0.08551,0.86501 0.89202,0.86501l0.48955,-4.61011c0.23536,0.12804 0.528,0.53349 0.7359,1.25751c0.2942,1.02659 0.33657,2.41594 0.11376,3.80835c-0.44719,2.79015 -1.71344,4.47597 -2.41795,4.57657c-0.39855,0.05868 -0.72099,0.34905 -0.80886,0.73012c-0.44562,1.90837 -1.19486,3.86017 -2.17553,5.67861c-0.4519,0.83072 -0.95008,1.63705 -1.48906,2.39689z"/>
       </g>
  </svg>