<svg xmlns="http://www.w3.org/2000/svg" width='100%' height='100%' viewBox='-5 -5 85 85' preserveAspectRatio='none'>
 <g>
 <path  id="svg_1" d="m57.91852,70.65884l-40.47155,0c-0.9286,0 -1.70244,0.78966 -1.70244,1.73726c0,0.94759 0.77383,1.73726 1.70244,1.73726l40.47155,0c0.9286,0 1.70244,-0.78966 1.70244,-1.73726c0,-0.94759 -0.77383,-1.73726 -1.70244,-1.73726z"/>
   <path  id="svg_3" d="m11.79799,18.93601c2.39889,0 4.41086,-1.97415 4.41086,-4.50107c0,-0.31586 -0.07738,-0.63173 -0.07738,-0.94759l19.81016,0l0,51.48593l-11.76229,0c-0.9286,0 -1.70244,0.78966 -1.70244,1.73726s0.77383,1.73726 1.70244,1.73726l26.92944,0c0.9286,0 1.70244,-0.78966 1.70244,-1.73726s-0.77383,-1.73726 -1.70244,-1.73726l-11.76229,0l0,-51.48593l19.81016,0c-0.07738,0.31586 -0.07738,0.63173 -0.07738,0.94759c0,2.44795 1.93459,4.50107 4.41086,4.50107c2.39889,0 4.41086,-1.97415 4.41086,-4.50107c0,-2.36898 -1.77982,-4.26417 -4.02394,-4.4221c-0.07738,0 -0.23215,0 -0.38692,0l-24.14364,0l0,-7.97558c0,-0.94759 -0.77383,-1.73726 -1.70244,-1.73726s-1.70244,0.78966 -1.70244,1.73726l0,7.97558l-24.14364,0c-0.15477,0 -0.23215,0 -0.38692,0c-2.24412,0.15793 -4.02394,2.13209 -4.02394,4.4221c0,2.52692 2.01197,4.50107 4.41086,4.50107z"/>
   <path  id="svg_4" d="m22.70905,43.33655c0,0 0,0 0,0c0,-0.07897 0,-0.15793 0,-0.2369c0,-0.07897 0,-0.07897 0,-0.15793c0,-0.07897 0,-0.07897 -0.07738,-0.15793c0,-0.07897 -0.07738,-0.15793 -0.07738,-0.2369c0,0 0,0 0,0l-9.20863,-20.5312c-0.30953,-0.63173 -0.85122,-1.02656 -1.54767,-1.02656c-0.61907,0 -1.31552,0.39483 -1.54767,1.02656l-9.59555,20.5312c0,0 0,0 0,0c0,0.07897 -0.07738,0.15793 -0.07738,0.15793c0,0.07897 0,0.07897 -0.07738,0.15793c0,0.07897 0,0.07897 0,0.15793c0,0.07897 0,0.15793 0,0.15793c0,0 0,0 0,0c0,4.97487 4.72039,9.00214 10.67892,9.23904c0.07738,0 0.15477,0 0.23215,0c0.15477,0 0.23215,0 0.38692,0c0.07738,0 0.15477,0 0.23215,0c5.95853,-0.07897 10.67892,-4.10624 10.67892,-9.08111zm-10.91107,-16.34599l6.50021,14.60874l-13.30995,0l6.80974,-14.60874z"/>
   <path  id="svg_6" d="m74.63335,43.33655c0,-0.07897 0,-0.15793 0,-0.15793c0,-0.07897 0,-0.07897 0,-0.15793c0,-0.07897 0,-0.07897 -0.07738,-0.15793c0,-0.07897 -0.07738,-0.15793 -0.07738,-0.15793c0,0 0,0 0,0l-9.3634,-20.61016c-0.30953,-0.63173 -0.9286,-1.02656 -1.54767,-1.02656s-1.31552,0.39483 -1.54767,1.02656l-9.3634,20.5312c0,0 0,0 0,0c0,0.07897 -0.07738,0.15793 -0.07738,0.15793c0,0.07897 0,0.07897 -0.07738,0.15793c0,0.07897 0,0.07897 0,0.15793c0,0.07897 0,0.15793 0,0.15793c0,0 0,0 0,0c0,4.97487 4.72039,9.00214 10.67892,9.23904c0.07738,0 0.15477,0 0.23215,0c0.15477,0 0.23215,0 0.38692,0c0.07738,0 0.15477,0 0.23215,0c5.88114,-0.15793 10.60153,-4.18521 10.60153,-9.16007c0,0 0,0 0,0zm-11.14322,-16.34599l6.65498,14.60874l-13.30995,0l6.65498,-14.60874z"/>
   </g>
   </svg>