<svg xmlns="http://www.w3.org/2000/svg" width='100%' height='100%' viewBox='-5 -5 85 85 ' preserveAspectRatio='none'>
 <g>
   <path id="svg_2" d="m49.44827,62.99952c-0.03415,0.43817 -0.0683,0.87706 -0.10245,1.31523c0,-0.00717 0.00081,-0.01363 0.00081,-0.02008c0,-0.00645 0,-0.01363 -0.00081,-0.02008c0,-0.00645 -0.00081,-0.01363 -0.00163,-0.02008s-0.00163,-0.01434 -0.00325,-0.02008l0.10245,-1.31451c0.00163,0.00717 0.00244,0.01363 0.00325,0.02008s0.00163,0.01363 0.00163,0.02008c0.00081,0.00645 0.00081,0.01363 0.00081,0.02008c0,0.00574 -0.00081,0.01291 -0.00081,0.01936z"/>
   <path id="svg_3" d="m25.49052,64.31475c-0.03415,-0.43817 -0.0683,-0.87706 -0.10245,-1.31523c0,-0.00645 -0.00081,-0.01363 -0.00081,-0.01936c0,-0.00717 0,-0.01434 0,-0.02008c0,-0.00717 0.00081,-0.01363 0.00163,-0.02008s0.00163,-0.01363 0.00325,-0.02008l0.10245,1.31451c-0.00163,0.00645 -0.00244,0.01363 -0.00325,0.02008c0,0.00717 -0.00081,0.01434 -0.00163,0.02008c0,0.00717 0,0.01434 0,0.02008c0,0.00645 0,0.01291 0.00081,0.02008z"/>
   <path id="svg_5" d="m61.63977,45.72082c0.27564,0 0.54965,0.02008 0.80903,0.05809c0.26019,0.03801 0.50656,0.09251 0.72609,0.15992c0.22035,0.06813 0.41305,0.14916 0.56591,0.23952c0.15367,0.09036 0.26751,0.19148 0.32768,0.29618l9.81727,17.13025c0.11465,0.19865 0.14473,0.38941 0.10245,0.56295c-0.04228,0.17498 -0.15855,0.33419 -0.33825,0.46757c-0.18132,0.13482 -0.42525,0.24311 -0.72365,0.31841c-0.2984,0.07602 -0.64966,0.11833 -1.04157,0.11833l-68.93392,0c-0.39272,0 -0.74398,-0.04231 -1.04238,-0.11833c-0.29759,-0.0753 -0.54233,-0.1843 -0.72365,-0.31841c-0.17969,-0.1341 -0.29597,-0.29259 -0.33906,-0.46757c-0.04228,-0.17355 -0.01138,-0.36431 0.10245,-0.56295l9.81646,-17.13025c0.06017,-0.1047 0.174,-0.20582 0.32849,-0.29618c0.15286,-0.09036 0.34638,-0.1714 0.56672,-0.23952c0.21953,-0.06741 0.4659,-0.12191 0.72609,-0.15992c0.25938,-0.03801 0.5342,-0.05809 0.80984,-0.05809l48.44401,0zm-12.19638,17.19838l-1.29688,-6.78627c-0.0122,-0.06454 -0.05204,-0.1255 -0.11465,-0.18072c-0.06179,-0.05594 -0.14636,-0.10542 -0.24637,-0.14701c-0.0992,-0.04231 -0.21547,-0.0753 -0.34069,-0.09896s-0.261,-0.03657 -0.40085,-0.03657l-19.25483,0c-0.13904,0 -0.27483,0.01363 -0.40004,0.03657s-0.24068,0.05665 -0.33987,0.09896c-0.10001,0.04159 -0.18376,0.09108 -0.24555,0.14701c-0.06179,0.05522 -0.10164,0.11618 -0.11465,0.18072l-1.29607,6.78627c-0.01545,0.08032 0.00163,0.15849 0.04635,0.22805c0.04472,0.071 0.1179,0.13482 0.2114,0.18861c0.09432,0.05379 0.21059,0.09753 0.34312,0.12765c0.13253,0.03012 0.28133,0.04661 0.4407,0.04661l21.96486,0c0.15937,0 0.30897,-0.01649 0.44232,-0.04661c0.13253,-0.03012 0.24962,-0.07387 0.34394,-0.12765s0.16668,-0.11761 0.2114,-0.18861c0.04472,-0.07028 0.06261,-0.14773 0.04635,-0.22805m-23.6195,-8.55473c-0.00813,0.03657 0.00163,0.071 0.02521,0.10255c0.02358,0.03155 0.06179,0.06024 0.11058,0.08391c0.0496,0.02367 0.10895,0.04375 0.17807,0.05665c0.0683,0.01363 0.14554,0.02008 0.22767,0.02008l18.69461,0c0.08212,0 0.15937,-0.00717 0.22929,-0.02008c0.06911,-0.01363 0.13091,-0.03299 0.18132,-0.05665c0.05041,-0.02367 0.09025,-0.05235 0.11627,-0.08391s0.03659,-0.06598 0.0309,-0.10255l-0.11709,-0.77523c-0.00569,-0.03514 -0.02683,-0.06885 -0.06098,-0.09968c-0.03415,-0.03012 -0.08131,-0.05737 -0.13741,-0.08032c-0.0561,-0.02223 -0.12115,-0.04159 -0.19352,-0.05379c-0.07155,-0.01291 -0.14961,-0.01936 -0.22929,-0.01936l-18.2531,0c-0.0805,0 -0.15855,0.00717 -0.23092,0.01936c-0.07237,0.01291 -0.13904,0.03155 -0.19677,0.05379c-0.05773,0.02295 -0.10652,0.0502 -0.14229,0.08032c-0.03659,0.03084 -0.06017,0.06454 -0.06749,0.09968l-0.16506,0.77523m37.7364,-3.02417l-1.04076,-2.04527c-0.01545,-0.0294 -0.04472,-0.05737 -0.08456,-0.08319s-0.09107,-0.04877 -0.15042,-0.06813c-0.05854,-0.01936 -0.1244,-0.03514 -0.19352,-0.0459c-0.06993,-0.01076 -0.14392,-0.01649 -0.21791,-0.01649l-1.46357,0l-0.39028,0l-0.95538,0c-0.0748,0 -0.14229,0.00645 -0.20165,0.01649c-0.05936,0.01147 -0.11139,0.02653 -0.15124,0.0459c-0.04065,0.01865 -0.06993,0.04231 -0.08619,0.06813c-0.01626,0.02582 -0.0187,0.05379 -0.0065,0.08319l0.28214,0.65546c0.01301,0.03084 0.04147,0.06024 0.0805,0.08677c0.03984,0.02653 0.08944,0.0502 0.1488,0.071c0.05773,0.02008 0.1244,0.03657 0.19514,0.04733c0.06993,0.01147 0.14554,0.01721 0.22035,0.01721l0.42687,0l0.52444,1.16678c0.01545,0.03227 0.04472,0.06311 0.08537,0.09108s0.09351,0.05379 0.15367,0.07458c0.06098,0.0208 0.12928,0.03873 0.20246,0.0502s0.15042,0.01793 0.22767,0.01793l1.94817,0c0.07806,0 0.1488,-0.00645 0.21059,-0.01793c0.06098,-0.01219 0.11383,-0.0294 0.15286,-0.0502c0.04065,-0.0208 0.06911,-0.04661 0.08375,-0.07458s0.01545,-0.05809 -0.00081,-0.09036m-7.53736,0.73722l0.261,0.7322c0.0122,0.03371 0.03984,0.06669 0.07968,0.0961c0.03984,0.03012 0.09188,0.05665 0.15286,0.07889s0.12847,0.04088 0.20246,0.05307c0.0748,0.01291 0.15286,0.01936 0.23254,0.01936l6.56816,0c0.0805,0 0.15286,-0.00717 0.21628,-0.01936s0.11627,-0.03084 0.15693,-0.05307s0.06993,-0.04877 0.08456,-0.07889c0.01464,-0.0294 0.01464,-0.06239 -0.00325,-0.0961l-0.36752,-0.7322c-0.01707,-0.03371 -0.04879,-0.06526 -0.09107,-0.09394s-0.09757,-0.0545 -0.15937,-0.07602s-0.13172,-0.03944 -0.20571,-0.05092s-0.15205,-0.01865 -0.22929,-0.01865l-6.41773,0c-0.07806,0 -0.15042,0.00717 -0.21384,0.01865c-0.06261,0.01219 -0.1179,0.0294 -0.16099,0.05092s-0.07562,0.04733 -0.09351,0.07602c-0.02033,0.0294 -0.02439,0.06096 -0.0122,0.09394m-44.42733,-1.42925l-0.35207,0.69204c-0.01707,0.03227 -0.01707,0.06311 -0.00244,0.09108c0.01382,0.02797 0.04228,0.05379 0.08212,0.07458s0.09188,0.03873 0.15367,0.0502c0.06098,0.01219 0.13172,0.01793 0.20978,0.01793l4.50697,0c0.07724,0 0.15449,-0.00645 0.22604,-0.01793c0.07237,-0.01219 0.13985,-0.0294 0.19921,-0.0502s0.11058,-0.04661 0.15042,-0.07458c0.03903,-0.02797 0.06749,-0.05881 0.0805,-0.09108l0.27645,-0.69204c0.01301,-0.03155 0.00894,-0.06096 -0.00813,-0.08821s-0.04716,-0.05163 -0.08944,-0.07243c-0.04147,-0.02008 -0.09432,-0.03729 -0.1553,-0.04805s-0.13091,-0.01721 -0.20653,-0.01721l-4.40696,0c-0.07562,0 -0.15124,0.00645 -0.22279,0.01721c-0.07155,0.01147 -0.13904,0.02797 -0.20002,0.04805c-0.06017,0.02008 -0.11302,0.04446 -0.15449,0.07243s-0.07074,0.05665 -0.087,0.08821m0.6895,-1.35252l-0.33418,0.65546c-0.01545,0.03084 -0.01545,0.06024 -0.00081,0.08677c0.01464,0.02653 0.04228,0.0502 0.08131,0.071s0.08944,0.03657 0.14961,0.04733s0.12847,0.01721 0.20409,0.01721l3.47272,0c0.07562,0 0.15042,-0.00645 0.22035,-0.01721c0.06993,-0.01147 0.13579,-0.02725 0.19352,-0.04733s0.10814,-0.04446 0.14717,-0.071c0.03822,-0.02653 0.06667,-0.05594 0.07887,-0.08677l0.27401,-0.65546c0.0122,-0.0294 0.00894,-0.05737 -0.00732,-0.08319s-0.04635,-0.04877 -0.08619,-0.06813c-0.04065,-0.01936 -0.09188,-0.03514 -0.15124,-0.0459c-0.05936,-0.01076 -0.12766,-0.01649 -0.20165,-0.01649l-3.3971,0c-0.07399,0 -0.14717,0.00645 -0.2171,0.01649c-0.06911,0.01147 -0.13579,0.02653 -0.19352,0.0459c-0.05854,0.01865 -0.10977,0.04231 -0.14961,0.06813s-0.0683,0.05379 -0.08294,0.08319m49.89863,-0.65977l-0.31629,-0.62176c-0.01464,-0.02797 -0.04309,-0.0545 -0.08212,-0.07889s-0.08863,-0.0459 -0.14554,-0.06526c-0.05692,-0.01793 -0.12034,-0.03299 -0.18864,-0.04375c-0.06749,-0.01004 -0.13904,-0.01506 -0.2114,-0.01506l-3.30684,0c-0.07237,0 -0.13823,0.00574 -0.19596,0.01506c-0.05854,0.01076 -0.10814,0.0251 -0.14798,0.04375c-0.03984,0.01865 -0.0683,0.04088 -0.08456,0.06526c-0.01626,0.02438 -0.01951,0.05092 -0.00813,0.07889l0.25938,0.62176c0.0122,0.02869 0.03903,0.05594 0.07643,0.08104s0.08537,0.04733 0.14229,0.06741c0.0561,0.01865 0.11952,0.03442 0.18782,0.04446c0.0683,0.01147 0.14066,0.01649 0.21466,0.01649l3.3784,0c0.07399,0 0.14148,-0.00574 0.20002,-0.01649c0.05773,-0.01076 0.10814,-0.02582 0.14717,-0.04446c0.03903,-0.01936 0.06586,-0.04231 0.08131,-0.06741c0.01382,-0.0251 0.01464,-0.05235 0,-0.08104m-51.23617,4.42187l2.70516,0c0.07968,0 0.15937,-0.00717 0.23417,-0.01936c0.0748,-0.01291 0.14554,-0.03084 0.20734,-0.05307c0.06179,-0.02223 0.11627,-0.04877 0.15855,-0.07889c0.04228,-0.0294 0.07237,-0.06239 0.087,-0.0961l0.31955,-0.7322c0.01464,-0.03371 0.0122,-0.06526 -0.00325,-0.09394c-0.01626,-0.02869 -0.04635,-0.0545 -0.08781,-0.07602s-0.09513,-0.03944 -0.15693,-0.05092s-0.13416,-0.01865 -0.21222,-0.01865l-2.64255,0c-0.07806,0 -0.15611,0.00717 -0.22929,0.01865c-0.07399,0.01219 -0.14392,0.0294 -0.20571,0.05092s-0.11709,0.04733 -0.16018,0.07602c-0.04391,0.02869 -0.07562,0.06024 -0.09269,0.09394l-0.3724,0.7322c-0.01707,0.03371 -0.01707,0.06669 -0.00325,0.0961c0.01464,0.03012 0.04309,0.05665 0.08375,0.07889s0.09432,0.04088 0.15693,0.05307s0.13335,0.01936 0.21384,0.01936m13.96079,1.30662l0.17888,-0.77523c0.00813,-0.03514 -0.00081,-0.06885 -0.02358,-0.09968c-0.02195,-0.03012 -0.05854,-0.05737 -0.1057,-0.08032c-0.04797,-0.02223 -0.1057,-0.04159 -0.17238,-0.05379c-0.06667,-0.01291 -0.14148,-0.01936 -0.22197,-0.01936l-2.71979,0c-0.0805,0 -0.15937,0.00717 -0.23254,0.01936c-0.07318,0.01291 -0.14148,0.03155 -0.20083,0.05379c-0.06017,0.02295 -0.11058,0.0502 -0.14961,0.08032c-0.03903,0.03084 -0.06505,0.06454 -0.07562,0.09968l-0.23498,0.77523c-0.01138,0.03657 -0.00488,0.071 0.01545,0.10255s0.05529,0.06024 0.10245,0.08391c0.04635,0.02367 0.10489,0.04375 0.17238,0.05665s0.14392,0.02008 0.22604,0.02008l2.78565,0c0.08212,0 0.16262,-0.00717 0.23661,-0.02008c0.0748,-0.01363 0.1431,-0.03299 0.20327,-0.05665c0.05936,-0.02367 0.10977,-0.05235 0.14717,-0.08391s0.06098,-0.06598 0.06911,-0.10255m25.60833,0l-0.1862,-0.77523c-0.00894,-0.03514 -0.03334,-0.06885 -0.06993,-0.09968c-0.03659,-0.03012 -0.08537,-0.05737 -0.14473,-0.08032c-0.05773,-0.02223 -0.1244,-0.04159 -0.19758,-0.05379c-0.07237,-0.01291 -0.15124,-0.01936 -0.23092,-0.01936l-2.71979,0c-0.0805,0 -0.1553,0.00717 -0.22279,0.01936s-0.12684,0.03155 -0.17563,0.05379c-0.0496,0.02295 -0.087,0.0502 -0.11139,0.08032c-0.02439,0.03084 -0.03578,0.06454 -0.02927,0.09968l0.13009,0.77523c0.0065,0.03657 0.02846,0.071 0.06423,0.10255c0.03496,0.03155 0.08375,0.06024 0.14148,0.08391s0.12522,0.04375 0.19921,0.05665s0.15286,0.02008 0.2358,0.02008l2.78484,0c0.08294,0 0.15855,-0.00717 0.22685,-0.02008s0.12766,-0.03299 0.17644,-0.05665s0.08456,-0.05235 0.10733,-0.08391s0.0309,-0.06598 0.02195,-0.10255m-3.21578,-5.06872c-0.00569,-0.0294 -0.02602,-0.05737 -0.05854,-0.08319s-0.07643,-0.04877 -0.12847,-0.06813c-0.05204,-0.01936 -0.11302,-0.03514 -0.17969,-0.0459c-0.06586,-0.01076 -0.13741,-0.01649 -0.2114,-0.01649l-1.60911,0c-0.07399,0 -0.14392,0.00645 -0.20653,0.01649c-0.06179,0.01147 -0.1179,0.02653 -0.16343,0.0459c-0.04635,0.01865 -0.08212,0.04231 -0.1057,0.06813s-0.03496,0.05379 -0.03008,0.08319l0.09513,0.65546c0.00488,0.03084 0.02439,0.06024 0.05529,0.08677c0.03171,0.02653 0.07562,0.0502 0.12847,0.071c0.05204,0.02008 0.11465,0.03657 0.18213,0.04733s0.14066,0.01721 0.21628,0.01721l1.64326,0c0.07643,0 0.14717,-0.00645 0.20978,-0.01721c0.06342,-0.01147 0.11871,-0.02725 0.16506,-0.04733c0.04553,-0.02008 0.0805,-0.04446 0.10245,-0.071c0.02277,-0.02653 0.03171,-0.05594 0.02602,-0.08677l-0.13091,-0.65546m-12.92491,0.65546c-0.00163,0.03084 0.01138,0.06024 0.0374,0.08677s0.06505,0.0502 0.11383,0.071s0.10652,0.03657 0.17156,0.04733c0.06505,0.01147 0.1366,0.01721 0.21222,0.01721l1.64407,0c0.07562,0 0.14798,-0.00645 0.21303,-0.01721s0.12522,-0.02725 0.17481,-0.04733s0.08944,-0.04446 0.1179,-0.071s0.04309,-0.05594 0.04391,-0.08677l0.00407,-0.65546c0,-0.0294 -0.01464,-0.05737 -0.04147,-0.08319s-0.06667,-0.04877 -0.11465,-0.06813c-0.04879,-0.01936 -0.1057,-0.03514 -0.16994,-0.0459c-0.06423,-0.01076 -0.13416,-0.01649 -0.20815,-0.01649l-1.6083,0c-0.07399,0 -0.14473,0.00645 -0.20978,0.01649c-0.06505,0.01147 -0.12359,0.02653 -0.17319,0.0459c-0.05041,0.01865 -0.09025,0.04231 -0.11952,0.06813s-0.04553,0.05379 -0.04797,0.08319l-0.03984,0.65546m3.27676,2.12631l0.00325,0.7322c0,0.03371 0.01626,0.06669 0.04553,0.0961c0.03008,0.03012 0.07237,0.05665 0.12522,0.07889s0.11546,0.04088 0.18538,0.05307s0.14554,0.01936 0.22523,0.01936l1.7392,0c0.0805,0 0.1553,-0.00717 0.22441,-0.01936c0.0683,-0.01291 0.12928,-0.03084 0.18132,-0.05307c0.05041,-0.02223 0.09107,-0.04877 0.11871,-0.07889c0.02683,-0.0294 0.04147,-0.06239 0.03984,-0.0961l-0.04391,-0.7322c-0.00163,-0.03371 -0.01951,-0.06526 -0.05041,-0.09394s-0.07318,-0.0545 -0.12522,-0.07602s-0.11465,-0.03944 -0.18376,-0.05092c-0.06749,-0.01219 -0.1431,-0.01865 -0.22035,-0.01865l-1.69855,0c-0.07806,0 -0.15286,0.00717 -0.22035,0.01865c-0.06749,0.01219 -0.12847,0.0294 -0.17969,0.05092s-0.09269,0.04733 -0.12115,0.07602c-0.02927,0.0294 -0.04472,0.06096 -0.04472,0.09394m11.08325,0l0.15855,0.7322c0.00813,0.03371 0.0309,0.06669 0.06667,0.0961c0.03578,0.03012 0.08456,0.05665 0.14148,0.07889c0.05773,0.02223 0.1244,0.04088 0.19677,0.05307c0.07155,0.01291 0.14961,0.01936 0.22929,0.01936l1.7392,0c0.07968,0 0.15367,-0.00717 0.22035,-0.01936s0.12359,-0.03084 0.16994,-0.05307s0.08131,-0.04877 0.10245,-0.07889c0.02033,-0.0294 0.02846,-0.06239 0.0187,-0.0961l-0.19839,-0.7322c-0.00976,-0.03371 -0.03334,-0.06526 -0.07074,-0.09394c-0.03578,-0.02869 -0.08456,-0.0545 -0.14148,-0.07602c-0.05692,-0.02151 -0.12278,-0.03944 -0.19352,-0.05092c-0.07155,-0.01219 -0.14798,-0.01865 -0.22523,-0.01865l-1.69855,0c-0.07887,0 -0.15205,0.00717 -0.2171,0.01865s-0.12196,0.0294 -0.16912,0.05092c-0.04635,0.02151 -0.08294,0.04733 -0.10489,0.07602s-0.03171,0.06096 -0.02439,0.09394m-33.08389,0.98033l1.73839,0c0.07968,0 0.15855,-0.00717 0.23336,-0.01936c0.07399,-0.01291 0.1431,-0.03084 0.20409,-0.05307c0.06098,-0.02223 0.11302,-0.04877 0.15367,-0.07889c0.03984,-0.0294 0.0683,-0.06239 0.0805,-0.0961l0.26832,-0.7322c0.0122,-0.03371 0.00732,-0.06526 -0.01057,-0.09394s-0.05041,-0.0545 -0.09351,-0.07602c-0.04391,-0.02151 -0.09838,-0.03944 -0.16181,-0.05092s-0.13579,-0.01865 -0.21384,-0.01865l-1.69855,0c-0.07806,0 -0.1553,0.00717 -0.22767,0.01865s-0.14066,0.0294 -0.20165,0.05092s-0.11302,0.04733 -0.15286,0.07602c-0.04065,0.02869 -0.06993,0.06024 -0.08375,0.09394l-0.30816,0.7322c-0.01464,0.03371 -0.0122,0.06669 0.00488,0.0961c0.01707,0.03012 0.04797,0.05665 0.09025,0.07889s0.09757,0.04088 0.16181,0.05307c0.06342,0.01219 0.1366,0.01936 0.2171,0.01936m9.90264,-0.24813l0.16424,-0.7322c0.00732,-0.03371 -0.00081,-0.06526 -0.02358,-0.09394c-0.02195,-0.02869 -0.05773,-0.0545 -0.10408,-0.07602c-0.04635,-0.02151 -0.10326,-0.03944 -0.16831,-0.05092s-0.13823,-0.01865 -0.2171,-0.01865l-1.69692,0c-0.07806,0 -0.1553,0.00717 -0.22604,0.01865s-0.1366,0.0294 -0.19433,0.05092c-0.05692,0.02151 -0.1057,0.04733 -0.14229,0.07602c-0.03659,0.02869 -0.06179,0.06024 -0.07074,0.09394l-0.20409,0.7322c-0.00976,0.03371 -0.00244,0.06669 0.0187,0.0961c0.02033,0.03012 0.0561,0.05665 0.10164,0.07889s0.10326,0.04088 0.16912,0.05307c0.06667,0.01291 0.14066,0.01936 0.22116,0.01936l1.73676,0c0.0805,0 0.15855,-0.00717 0.23092,-0.01936c0.07237,-0.01291 0.13904,-0.03084 0.19677,-0.05307s0.1057,-0.04877 0.14148,-0.07889c0.03578,-0.0294 0.05854,-0.06239 0.06667,-0.0961m1.01393,-0.7322l-0.15205,0.7322c-0.00732,0.03371 0.00163,0.06669 0.02521,0.0961c0.02277,0.03012 0.06017,0.05665 0.10814,0.07889s0.10652,0.04088 0.17319,0.05307c0.06749,0.01291 0.14229,0.01936 0.22197,0.01936l1.73839,0c0.0805,0 0.15693,-0.00717 0.22848,-0.01936c0.07074,-0.01291 0.1366,-0.03084 0.19189,-0.05307c0.0561,-0.02223 0.10245,-0.04877 0.13579,-0.07889c0.03415,-0.0294 0.05448,-0.06239 0.06017,-0.0961l0.11221,-0.7322c0.00488,-0.03371 -0.00569,-0.06526 -0.03008,-0.09394c-0.02439,-0.02869 -0.06179,-0.0545 -0.10977,-0.07602c-0.04797,-0.02151 -0.1057,-0.03944 -0.17156,-0.05092c-0.06586,-0.01219 -0.13904,-0.01865 -0.2171,-0.01865l-1.69855,0c-0.07806,0 -0.15367,0.00717 -0.22441,0.01865s-0.13497,0.0294 -0.19108,0.05092s-0.10245,0.04733 -0.13741,0.07602c-0.03334,0.0294 -0.0561,0.06096 -0.06342,0.09394m3.69469,0l-0.10082,0.7322c-0.00488,0.03371 0.00732,0.06669 0.03252,0.0961c0.02521,0.03012 0.06423,0.05665 0.11383,0.07889s0.10977,0.04088 0.17725,0.05307s0.1431,0.01936 0.22279,0.01936l1.73839,0c0.07968,0 0.15611,-0.00717 0.22685,-0.01936c0.06993,-0.01291 0.13416,-0.03084 0.18864,-0.05307c0.05366,-0.02223 0.09838,-0.04877 0.13009,-0.07889c0.03171,-0.0294 0.05041,-0.06239 0.05285,-0.0961l0.06098,-0.7322c0.00244,-0.03371 -0.01057,-0.06526 -0.03659,-0.09394s-0.06586,-0.0545 -0.11546,-0.07602c-0.0496,-0.02151 -0.10895,-0.03944 -0.17481,-0.05092c-0.06667,-0.01219 -0.14066,-0.01865 -0.21872,-0.01865l-1.69774,0c-0.07806,0 -0.15367,0.00717 -0.22279,0.01865s-0.13335,0.0294 -0.18701,0.05092c-0.05448,0.02151 -0.10001,0.04733 -0.13253,0.07602s-0.05285,0.06096 -0.05773,0.09394m-9.65872,-2.12631c-0.01057,0.03084 -0.00488,0.06024 0.01464,0.08677s0.05041,0.0502 0.09432,0.071c0.04309,0.02008 0.09676,0.03657 0.15855,0.04733s0.13253,0.01721 0.20734,0.01721l1.64407,0c0.07562,0 0.14961,-0.00645 0.21791,-0.01721s0.13253,-0.02725 0.18701,-0.04733s0.10164,-0.04446 0.13741,-0.071c0.03496,-0.02653 0.05854,-0.05594 0.06749,-0.08677l0.18457,-0.65546c0.00813,-0.0294 0.00163,-0.05737 -0.0187,-0.08319c-0.01951,-0.02582 -0.05204,-0.04877 -0.09594,-0.06813c-0.04309,-0.01936 -0.09594,-0.03514 -0.15693,-0.0459c-0.06098,-0.01076 -0.13009,-0.01649 -0.20327,-0.01649l-1.6083,0c-0.07399,0 -0.14717,0.00645 -0.21466,0.01649c-0.06749,0.01147 -0.13091,0.02653 -0.1862,0.0459c-0.05529,0.01865 -0.10245,0.04231 -0.13823,0.06813c-0.03578,0.02582 -0.06017,0.05379 -0.06993,0.08319l-0.22116,0.65546m20.74197,2.12631l0.05529,0.7322c0.00244,0.03371 0.02033,0.06669 0.05204,0.0961c0.03171,0.03012 0.07724,0.05665 0.13091,0.07889s0.11871,0.04088 0.18864,0.05307c0.06993,0.01291 0.14717,0.01936 0.22685,0.01936l1.73839,0c0.0805,0 0.1553,-0.00717 0.22279,-0.01936s0.12766,-0.03084 0.17725,-0.05307s0.08781,-0.04877 0.11383,-0.07889c0.02521,-0.0294 0.0374,-0.06239 0.03252,-0.0961l-0.09432,-0.7322c-0.00488,-0.03371 -0.02439,-0.06526 -0.05692,-0.09394s-0.07724,-0.0545 -0.13091,-0.07602s-0.11709,-0.03944 -0.1862,-0.05092c-0.06993,-0.01219 -0.14473,-0.01865 -0.22279,-0.01865l-1.69855,0c-0.07806,0 -0.15286,0.00717 -0.21953,0.01865s-0.12603,0.0294 -0.17644,0.05092s-0.08944,0.04733 -0.11627,0.07602c-0.02521,0.0294 -0.03903,0.06096 -0.03659,0.09394m2.55799,-2.78177c-0.00407,-0.0294 -0.02277,-0.05737 -0.05285,-0.08319c-0.0309,-0.02582 -0.07318,-0.04877 -0.12359,-0.06813c-0.05122,-0.01936 -0.11139,-0.03514 -0.17725,-0.0459c-0.06505,-0.01076 -0.1366,-0.01649 -0.2114,-0.01649l-1.60911,0c-0.07399,0 -0.14392,0.00645 -0.20734,0.01649c-0.06261,0.01147 -0.11871,0.02653 -0.16587,0.0459c-0.04797,0.01865 -0.08456,0.04231 -0.10977,0.06813c-0.02521,0.02582 -0.03822,0.05379 -0.03578,0.08319l0.05041,0.65546c0.00244,0.03084 0.01951,0.06024 0.0496,0.08677c0.03008,0.02653 0.07237,0.0502 0.12278,0.071s0.11139,0.03657 0.17807,0.04733s0.13904,0.01721 0.21466,0.01721l1.64407,0c0.07643,0 0.14798,-0.00645 0.21222,-0.01721s0.12034,-0.02725 0.16831,-0.04733c0.04716,-0.02008 0.08375,-0.04446 0.10814,-0.071c0.02358,-0.02653 0.03578,-0.05594 0.03171,-0.08677l-0.087,-0.65546m-9.94655,2.78177l-0.04879,0.7322c-0.00163,0.03371 0.0122,0.06669 0.03903,0.0961c0.02765,0.03012 0.0683,0.05665 0.11871,0.07889c0.05122,0.02223 0.11221,0.04088 0.18132,0.05307c0.0683,0.01291 0.14473,0.01936 0.22441,0.01936l1.73839,0c0.0805,0 0.15611,-0.00717 0.22604,-0.01936s0.13253,-0.03084 0.18457,-0.05307c0.05285,-0.02223 0.09513,-0.04877 0.12522,-0.07889c0.02927,-0.0294 0.04635,-0.06239 0.04635,-0.0961l0.00813,-0.7322c0,-0.03371 -0.01545,-0.06526 -0.04309,-0.09394s-0.06911,-0.0545 -0.12034,-0.07602s-0.11139,-0.03944 -0.17888,-0.05092s-0.14229,-0.01865 -0.22035,-0.01865l-1.69855,0c-0.07806,0 -0.15286,0.00717 -0.22116,0.01865c-0.0683,0.01219 -0.13091,0.0294 -0.18376,0.05092s-0.09594,0.04733 -0.12684,0.07602c-0.03008,0.0294 -0.04797,0.06096 -0.05041,0.09394m18.47263,0l0.21059,0.7322c0.01057,0.03371 0.03578,0.06669 0.07399,0.0961c0.0374,0.03012 0.08781,0.05665 0.14717,0.07889c0.05936,0.02223 0.12684,0.04088 0.20002,0.05307s0.15205,0.01936 0.23092,0.01936l1.7392,0c0.0805,0 0.15367,-0.00717 0.21953,-0.01936s0.12034,-0.03084 0.16587,-0.05307c0.04472,-0.02223 0.07806,-0.04877 0.09594,-0.07889c0.01951,-0.0294 0.02439,-0.06239 0.01301,-0.0961l-0.25125,-0.7322c-0.01138,-0.03371 -0.03822,-0.06526 -0.07643,-0.09394c-0.03903,-0.02869 -0.08863,-0.0545 -0.14798,-0.07602s-0.12522,-0.03944 -0.19677,-0.05092c-0.07237,-0.01219 -0.1488,-0.01865 -0.22685,-0.01865l-1.69855,0c-0.07806,0 -0.15124,0.00717 -0.21547,0.01865s-0.11952,0.0294 -0.16506,0.05092s-0.07968,0.04733 -0.10001,0.07602s-0.02765,0.06096 -0.01789,0.09394m-34.80927,-1.904l1.64407,0c0.07562,0 0.15042,-0.00645 0.21953,-0.01721s0.13416,-0.02725 0.19108,-0.04733c0.0561,-0.02008 0.10489,-0.04446 0.14148,-0.071c0.0374,-0.02653 0.06261,-0.05594 0.07318,-0.08677l0.2301,-0.65546c0.01057,-0.0294 0.00488,-0.05737 -0.01301,-0.08319c-0.01789,-0.02582 -0.0496,-0.04877 -0.09107,-0.06813c-0.04147,-0.01936 -0.09351,-0.03514 -0.15367,-0.0459c-0.06017,-0.01076 -0.12847,-0.01649 -0.20246,-0.01649l-1.6083,0c-0.07399,0 -0.14717,0.00645 -0.21628,0.01649c-0.0683,0.01147 -0.13335,0.02653 -0.18945,0.0459c-0.0561,0.01865 -0.10489,0.04231 -0.14229,0.06813c-0.0374,0.02582 -0.06423,0.05379 -0.07643,0.08319l-0.26588,0.65546c-0.0122,0.03084 -0.00894,0.06024 0.00813,0.08677c0.01707,0.02653 0.04716,0.0502 0.08863,0.071c0.04147,0.02008 0.09432,0.03657 0.1553,0.04733c0.06179,0.01076 0.13172,0.01721 0.20734,0.01721m15.56908,-1.0922l-1.60748,0c-0.07399,0 -0.14554,0.00645 -0.2114,0.01649c-0.06586,0.01147 -0.12522,0.02653 -0.17644,0.0459c-0.05122,0.01865 -0.09351,0.04231 -0.12359,0.06813s-0.0496,0.05379 -0.05285,0.08319l-0.08537,0.65546c-0.00407,0.03084 0.00732,0.06024 0.03252,0.08677c0.02358,0.02653 0.06098,0.0502 0.10814,0.071c0.04716,0.02008 0.10408,0.03657 0.16831,0.04733s0.13579,0.01721 0.21222,0.01721l1.64245,0c0.07562,0 0.1488,-0.00645 0.21547,-0.01721s0.12684,-0.02725 0.17807,-0.04733c0.05041,-0.02008 0.09269,-0.04446 0.12278,-0.071c0.02927,-0.02653 0.04716,-0.05594 0.0496,-0.08677l0.0496,-0.65546c0.00244,-0.0294 -0.01057,-0.05737 -0.03578,-0.08319c-0.02521,-0.02582 -0.06261,-0.04877 -0.10977,-0.06813c-0.04716,-0.01936 -0.10326,-0.03514 -0.1675,-0.0459c-0.06505,-0.01076 -0.13497,-0.01649 -0.20896,-0.01649m-2.87672,0.21442c0.00407,-0.0294 -0.0065,-0.05737 -0.03008,-0.08319s-0.05936,-0.04877 -0.1057,-0.06813c-0.04553,-0.01936 -0.10164,-0.03514 -0.16424,-0.0459c-0.06261,-0.01076 -0.13253,-0.01649 -0.20653,-0.01649l-1.6083,0c-0.07399,0 -0.14554,0.00645 -0.2114,0.01649c-0.06667,0.01147 -0.12684,0.02653 -0.17969,0.0459c-0.05204,0.01865 -0.09594,0.04231 -0.12847,0.06813s-0.05285,0.05379 -0.05854,0.08319l-0.13009,0.65546c-0.00569,0.03084 0.00325,0.06024 0.02602,0.08677s0.05773,0.0502 0.10326,0.071s0.10164,0.03657 0.16424,0.04733c0.06342,0.01147 0.13416,0.01721 0.20978,0.01721l1.64407,0c0.07562,0 0.1488,-0.00645 0.21628,-0.01721c0.06749,-0.01147 0.12847,-0.02725 0.18132,-0.04733c0.05204,-0.02008 0.09594,-0.04446 0.12766,-0.071c0.03171,-0.02653 0.05122,-0.05594 0.05529,-0.08677l0.09513,-0.65546m-13.85996,5.06872l0.29922,-0.77523c0.01382,-0.03514 0.00976,-0.06885 -0.00813,-0.09968c-0.01789,-0.03012 -0.05041,-0.05737 -0.09432,-0.08032c-0.04391,-0.02223 -0.10001,-0.04159 -0.16506,-0.05379c-0.06505,-0.01291 -0.13823,-0.01936 -0.21872,-0.01936l-1.74733,0c-0.0805,0 -0.16018,0.00717 -0.2358,0.01936s-0.14636,0.03155 -0.20815,0.05379c-0.06261,0.02295 -0.1179,0.0502 -0.16018,0.08032c-0.04309,0.03084 -0.07399,0.06454 -0.08944,0.09968l-0.34069,0.77523c-0.01626,0.03657 -0.01464,0.071 0.00163,0.10255s0.04716,0.06024 0.09025,0.08391s0.0992,0.04375 0.16506,0.05665s0.14066,0.02008 0.22279,0.02008l1.78962,0c0.08294,0 0.16424,-0.00717 0.24068,-0.02008s0.1488,-0.03299 0.21222,-0.05665s0.1179,-0.05235 0.16099,-0.08391c0.04147,-0.03155 0.07155,-0.06598 0.08537,-0.10255m44.93226,0l-0.3415,-0.77523c-0.01626,-0.03514 -0.04716,-0.06885 -0.08944,-0.09968c-0.04309,-0.03012 -0.09757,-0.05737 -0.16099,-0.08032c-0.06261,-0.02223 -0.13335,-0.04159 -0.20896,-0.05379s-0.1553,-0.01936 -0.2358,-0.01936l-1.74733,0c-0.0805,0 -0.15367,0.00717 -0.21872,0.01936c-0.06505,0.01291 -0.12034,0.03155 -0.16424,0.05379c-0.04391,0.02295 -0.07562,0.0502 -0.09351,0.08032c-0.01707,0.03084 -0.02114,0.06454 -0.00813,0.09968l0.29922,0.77523c0.01464,0.03657 0.04472,0.071 0.08619,0.10255s0.09676,0.06024 0.16018,0.08391c0.06261,0.02367 0.13497,0.04375 0.2114,0.05665s0.15693,0.02008 0.23986,0.02008l1.78962,0c0.08294,0 0.15774,-0.00717 0.2236,-0.02008c0.06505,-0.01363 0.12115,-0.03299 0.16506,-0.05665s0.0748,-0.05235 0.09107,-0.08391c0.01707,-0.03155 0.0187,-0.06598 0.00244,-0.10255m-48.71395,0l0.35288,-0.77523c0.01626,-0.03514 0.01464,-0.06885 -0.00081,-0.09968c-0.01626,-0.03012 -0.04635,-0.05737 -0.08863,-0.08032c-0.04228,-0.02223 -0.09676,-0.04159 -0.16099,-0.05379s-0.13741,-0.01936 -0.21872,-0.01936l-1.74733,0c-0.0805,0 -0.16018,0.00717 -0.23661,0.01936c-0.07562,0.01291 -0.14798,0.03155 -0.21222,0.05379c-0.06423,0.02295 -0.12034,0.0502 -0.16587,0.08032c-0.04553,0.03084 -0.07887,0.06454 -0.09676,0.09968l-0.39516,0.77523c-0.01789,0.03657 -0.01951,0.071 -0.00569,0.10255c0.01464,0.03155 0.04309,0.06024 0.08456,0.08391s0.09594,0.04375 0.16099,0.05665s0.13904,0.02008 0.22116,0.02008l1.79043,0c0.08294,0 0.16506,-0.00717 0.2423,-0.02008s0.15124,-0.03299 0.21628,-0.05665c0.06505,-0.02367 0.12115,-0.05235 0.16587,-0.08391s0.07806,-0.06598 0.09432,-0.10255m6.74378,-1.30662l1.73839,0c0.0805,0 0.15937,-0.00717 0.23254,-0.01936c0.07318,-0.01291 0.14066,-0.03084 0.20002,-0.05307s0.10977,-0.04877 0.14798,-0.07889c0.0374,-0.0294 0.06342,-0.06239 0.07399,-0.0961l0.21628,-0.7322c0.00976,-0.03371 0.00325,-0.06526 -0.01707,-0.09394s-0.05366,-0.0545 -0.0992,-0.07602s-0.10082,-0.03944 -0.16506,-0.05092c-0.06423,-0.01219 -0.1366,-0.01865 -0.21547,-0.01865l-1.69855,0c-0.07806,0 -0.15449,0.00717 -0.22685,0.01865s-0.13904,0.0294 -0.19758,0.05092c-0.05854,0.02151 -0.10977,0.04733 -0.14798,0.07602c-0.03903,0.02869 -0.06586,0.06024 -0.07724,0.09394l-0.25612,0.7322c-0.0122,0.03371 -0.00732,0.06669 0.01138,0.0961c0.0187,0.03012 0.05204,0.05665 0.09676,0.07889s0.10082,0.04088 0.16587,0.05307c0.06423,0.01219 0.13823,0.01936 0.21791,0.01936m0.82041,1.30662l0.24474,-0.77523c0.01138,-0.03514 0.00569,-0.06885 -0.01464,-0.09968c-0.01951,-0.03012 -0.05366,-0.05737 -0.10001,-0.08032c-0.04553,-0.02223 -0.10245,-0.04159 -0.16831,-0.05379c-0.06586,-0.01291 -0.14066,-0.01936 -0.22116,-0.01936l-1.74571,0c-0.0805,0 -0.15937,0.00717 -0.23417,0.01936c-0.0748,0.01291 -0.14473,0.03155 -0.20571,0.05379c-0.06179,0.02295 -0.11465,0.0502 -0.1553,0.08032c-0.04065,0.03084 -0.06911,0.06454 -0.08294,0.09968l-0.28702,0.77523c-0.01382,0.03657 -0.00976,0.071 0.00894,0.10255s0.05204,0.06024 0.09757,0.08391s0.10245,0.04375 0.16912,0.05665c0.06667,0.01363 0.14229,0.02008 0.22441,0.02008l1.78799,0c0.08294,0 0.16424,-0.00717 0.23986,-0.02008s0.14636,-0.03299 0.20815,-0.05665c0.06179,-0.02367 0.11383,-0.05235 0.15367,-0.08391s0.0683,-0.06598 0.0805,-0.10255m12.07685,-2.78966l1.68879,0c0.07806,0 0.15286,-0.00645 0.22116,-0.01793s0.13009,-0.0294 0.18213,-0.0502c0.05204,-0.0208 0.09513,-0.04661 0.12522,-0.07458c0.03008,-0.02797 0.04716,-0.05881 0.0496,-0.09108l0.03822,-0.69204c0.00163,-0.03155 -0.0122,-0.06096 -0.03822,-0.08821s-0.06586,-0.05163 -0.11465,-0.07243s-0.10733,-0.03729 -0.17238,-0.04805c-0.06505,-0.01147 -0.13741,-0.01721 -0.21384,-0.01721l-1.65058,0c-0.07643,0 -0.14961,0.00645 -0.2171,0.01721c-0.06749,0.01147 -0.12847,0.02797 -0.18051,0.04805s-0.09513,0.04446 -0.12603,0.07243c-0.0309,0.02725 -0.05041,0.05665 -0.05285,0.08821l-0.07562,0.69204c-0.00407,0.03227 0.00813,0.06311 0.03415,0.09108c0.02521,0.02797 0.06342,0.05379 0.11221,0.07458s0.10733,0.03873 0.174,0.0502s0.13823,0.01793 0.21628,0.01793m7.15277,0l1.6896,0c0.07806,0 0.15205,-0.00645 0.21791,-0.01793c0.06667,-0.01219 0.12522,-0.0294 0.17481,-0.0502s0.08781,-0.04661 0.11465,-0.07458s0.03984,-0.05881 0.03659,-0.09108l-0.05692,-0.69204c-0.00325,-0.03155 -0.02114,-0.06096 -0.05041,-0.08821c-0.03008,-0.02725 -0.07318,-0.05163 -0.1244,-0.07243c-0.05041,-0.02008 -0.11221,-0.03729 -0.17888,-0.04805s-0.13904,-0.01721 -0.21547,-0.01721l-1.6522,0c-0.07643,0 -0.1488,0.00645 -0.21384,0.01721c-0.06586,0.01147 -0.1244,0.02797 -0.174,0.04805c-0.05041,0.02008 -0.08944,0.04446 -0.11709,0.07243c-0.02765,0.02725 -0.04228,0.05665 -0.04147,0.08821l0.01951,0.69204c0.00081,0.03227 0.01707,0.06311 0.04716,0.09108s0.07155,0.05379 0.12278,0.07458c0.05204,0.0208 0.11383,0.03873 0.18132,0.0502c0.06749,0.01147 0.14229,0.01793 0.22035,0.01793m10.72712,0l1.69042,0c0.07806,0 0.15042,-0.00645 0.21384,-0.01793c0.06423,-0.01219 0.11952,-0.0294 0.16424,-0.0502s0.07887,-0.04661 0.09838,-0.07458c0.02033,-0.02797 0.02683,-0.05881 0.01789,-0.09108l-0.20165,-0.69204c-0.00976,-0.03155 -0.03334,-0.06096 -0.06911,-0.08821s-0.08375,-0.05163 -0.13904,-0.07243s-0.11952,-0.03729 -0.18864,-0.04805s-0.1431,-0.01721 -0.21953,-0.01721l-1.6522,0c-0.07643,0 -0.14717,0.00645 -0.21059,0.01721c-0.06261,0.01147 -0.11871,0.02797 -0.16343,0.04805s-0.0805,0.04446 -0.10164,0.07243s-0.03008,0.05665 -0.02195,0.08821l0.16343,0.69204c0.00732,0.03227 0.03008,0.06311 0.06586,0.09108c0.03496,0.02797 0.08294,0.05379 0.13823,0.07458c0.0561,0.0208 0.12115,0.03873 0.19189,0.0502c0.06993,0.01147 0.14554,0.01793 0.2236,0.01793m-9.64652,-1.6236l-0.04065,-0.65546c-0.00244,-0.0294 -0.0187,-0.05737 -0.04797,-0.08319s-0.06993,-0.04877 -0.11871,-0.06813c-0.05041,-0.01936 -0.10814,-0.03514 -0.17319,-0.0459c-0.06423,-0.01076 -0.13579,-0.01649 -0.20978,-0.01649l-1.6083,0c-0.07399,0 -0.14473,0.00645 -0.20815,0.01649c-0.06423,0.01147 -0.12115,0.02653 -0.16994,0.0459c-0.04797,0.01865 -0.087,0.04231 -0.11465,0.06813s-0.04147,0.05379 -0.04147,0.08319l0.00488,0.65546c0,0.03084 0.01626,0.06024 0.04391,0.08677s0.06749,0.0502 0.1179,0.071c0.0496,0.02008 0.10895,0.03657 0.174,0.04733s0.13823,0.01721 0.21384,0.01721l1.64326,0c0.07643,0 0.14798,-0.00645 0.21303,-0.01721c0.06423,-0.01147 0.12196,-0.02725 0.17075,-0.04733s0.08619,-0.04446 0.11302,-0.071s0.04065,-0.05594 0.03822,-0.08677m-15.7195,0.69706l-0.17156,0.69204c-0.00813,0.03227 0,0.06311 0.02114,0.09108s0.0561,0.05379 0.10164,0.07458s0.10164,0.03873 0.16668,0.0502c0.06423,0.01219 0.1366,0.01793 0.21466,0.01793l1.69042,0c0.07806,0 0.15286,-0.00645 0.22279,-0.01793s0.13416,-0.0294 0.18945,-0.0502s0.10164,-0.04661 0.13579,-0.07458c0.03415,-0.02797 0.0561,-0.05881 0.06261,-0.09108l0.13416,-0.69204c0.0065,-0.03155 -0.00325,-0.06096 -0.02602,-0.08821s-0.05854,-0.05163 -0.10489,-0.07243c-0.04553,-0.02008 -0.10164,-0.03729 -0.16587,-0.04805c-0.06342,-0.01147 -0.13497,-0.01721 -0.21059,-0.01721l-1.6522,0c-0.07562,0 -0.14961,0.00645 -0.21872,0.01721s-0.13172,0.02797 -0.18701,0.04805c-0.05448,0.02008 -0.10164,0.04446 -0.13579,0.07243s-0.05936,0.05665 -0.06667,0.08821m21.79005,0.92654l1.6896,0c0.07806,0 0.15124,-0.00645 0.21547,-0.01793c0.06505,-0.01219 0.12115,-0.0294 0.1675,-0.0502c0.04716,-0.0208 0.08212,-0.04661 0.10408,-0.07458s0.03171,-0.05881 0.02358,-0.09108l-0.15286,-0.69204c-0.00732,-0.03155 -0.02846,-0.06096 -0.06261,-0.08821s-0.0805,-0.05163 -0.13416,-0.07243s-0.1179,-0.03729 -0.18538,-0.04805c-0.06911,-0.01147 -0.1431,-0.01721 -0.21872,-0.01721l-1.6522,0c-0.07643,0 -0.14798,0.00645 -0.2114,0.01721c-0.06423,0.01147 -0.12034,0.02797 -0.1675,0.04805s-0.08294,0.04446 -0.10652,0.07243s-0.03415,0.05665 -0.02846,0.08821l0.11627,0.69204c0.00488,0.03227 0.02602,0.06311 0.05854,0.09108c0.03334,0.02797 0.07968,0.05379 0.13416,0.07458s0.11871,0.03873 0.18782,0.0502c0.06993,0.01147 0.14554,0.01793 0.22279,0.01793m7.15196,0l1.6896,0c0.07806,0 0.15042,-0.00645 0.21303,-0.01793c0.06342,-0.01219 0.1179,-0.0294 0.16099,-0.0502c0.04309,-0.0208 0.07562,-0.04661 0.09351,-0.07458s0.02195,-0.05881 0.01138,-0.09108l-0.24962,-0.69204c-0.0122,-0.03155 -0.03822,-0.06096 -0.07562,-0.08821s-0.08619,-0.05163 -0.14392,-0.07243s-0.12196,-0.03729 -0.19189,-0.04805s-0.14473,-0.01721 -0.22035,-0.01721l-1.6522,0c-0.07643,0 -0.14636,0.00645 -0.20896,0.01721s-0.11709,0.02797 -0.16018,0.04805s-0.07724,0.04446 -0.09676,0.07243s-0.02602,0.05665 -0.01707,0.08821l0.21222,0.69204c0.00976,0.03227 0.03496,0.06311 0.07237,0.09108s0.08537,0.05379 0.14392,0.07458s0.12359,0.03873 0.19514,0.0502c0.07074,0.01147 0.14717,0.01793 0.22441,0.01793m0.75861,-2.93883c0.00976,0.02869 0.03415,0.05594 0.07074,0.08104c0.03578,0.0251 0.08294,0.04733 0.13823,0.06741c0.05448,0.01865 0.11871,0.03442 0.1862,0.04446c0.06749,0.01147 0.13985,0.01649 0.21384,0.01649l1.60098,0c0.07399,0 0.14148,-0.00574 0.20083,-0.01649c0.05936,-0.01076 0.11058,-0.02582 0.15124,-0.04446c0.04065,-0.01936 0.07074,-0.04231 0.087,-0.06741s0.01951,-0.05235 0.00813,-0.08104l-0.25206,-0.62176c-0.0122,-0.02797 -0.0374,-0.0545 -0.07399,-0.07889s-0.08375,-0.0459 -0.13823,-0.06526c-0.05366,-0.01793 -0.11709,-0.03299 -0.18376,-0.04375c-0.06586,-0.01004 -0.13741,-0.01506 -0.20896,-0.01506l-1.56764,0c-0.07155,0 -0.13823,0.00574 -0.19758,0.01506c-0.05854,0.01076 -0.10977,0.0251 -0.15124,0.04375c-0.04065,0.01865 -0.07155,0.04088 -0.08944,0.06526c-0.01707,0.02438 -0.02277,0.05092 -0.01382,0.07889l0.21953,0.62176m-35.5191,-0.62247c0.01057,-0.02797 0.0065,-0.0545 -0.01057,-0.07889s-0.04716,-0.0459 -0.087,-0.06526c-0.03984,-0.01793 -0.09025,-0.03299 -0.1488,-0.04375c-0.05854,-0.01004 -0.12522,-0.01506 -0.19677,-0.01506l-1.56683,0c-0.07237,0 -0.14392,0.00574 -0.21059,0.01506c-0.06749,0.01076 -0.13009,0.0251 -0.18538,0.04375c-0.05529,0.01865 -0.10326,0.04088 -0.13985,0.06526c-0.0374,0.02438 -0.06423,0.05092 -0.07643,0.07889l-0.27157,0.62176c-0.01301,0.02869 -0.00976,0.05594 0.00569,0.08104s0.04472,0.04733 0.08456,0.06741c0.03984,0.01865 0.09107,0.03442 0.15042,0.04446c0.05936,0.01147 0.12766,0.01649 0.20165,0.01649l1.60016,0c0.07318,0 0.14636,-0.00574 0.21384,-0.01649c0.06749,-0.01076 0.13172,-0.02582 0.18701,-0.04446c0.05529,-0.01936 0.10326,-0.04231 0.13985,-0.06741s0.06179,-0.05235 0.07318,-0.08104l0.23742,-0.62176m13.73068,0.62247l0.05936,-0.62176c0.00244,-0.02797 -0.00894,-0.0545 -0.03415,-0.07889c-0.02358,-0.02438 -0.06017,-0.0459 -0.1057,-0.06526c-0.04553,-0.01793 -0.10082,-0.03299 -0.16181,-0.04375c-0.06179,-0.01004 -0.13009,-0.01506 -0.20165,-0.01506l-1.56683,0c-0.07155,0 -0.14148,0.00574 -0.2049,0.01506c-0.06423,0.01076 -0.12196,0.0251 -0.17238,0.04375c-0.05041,0.01865 -0.09107,0.04088 -0.12115,0.06526s-0.04879,0.05092 -0.05285,0.07889l-0.09351,0.62176c-0.00407,0.02869 0.0065,0.05594 0.02927,0.08104c0.02358,0.0251 0.05854,0.04733 0.10408,0.06741c0.04553,0.01865 0.10082,0.03442 0.16262,0.04446c0.06261,0.01147 0.13172,0.01649 0.2049,0.01649l1.60098,0c0.07318,0 0.14473,-0.00574 0.20896,-0.01649c0.06505,-0.01076 0.1244,-0.02582 0.17481,-0.04446c0.05041,-0.01936 0.09107,-0.04231 0.12034,-0.06741c0.02927,-0.0251 0.04716,-0.05235 0.0496,-0.08104m20.74522,-0.62247c-0.00976,-0.02797 -0.03252,-0.0545 -0.06749,-0.07889s-0.0805,-0.0459 -0.13335,-0.06526c-0.05366,-0.01793 -0.11546,-0.03299 -0.18132,-0.04375c-0.06586,-0.01004 -0.1366,-0.01506 -0.20978,-0.01506l-1.56683,0c-0.07237,0 -0.13904,0.00574 -0.19839,0.01506c-0.05936,0.01076 -0.11139,0.0251 -0.15286,0.04375c-0.04228,0.01865 -0.0748,0.04088 -0.09351,0.06526c-0.01951,0.02438 -0.02683,0.05092 -0.0187,0.07889l0.174,0.62176c0.00813,0.02869 0.0309,0.05594 0.06423,0.08104c0.03415,0.0251 0.07968,0.04733 0.13335,0.06741c0.05285,0.01865 0.11546,0.03442 0.18213,0.04446c0.06667,0.01147 0.13904,0.01649 0.21222,0.01649l1.60098,0c0.07399,0 0.1431,-0.00574 0.20327,-0.01649c0.06017,-0.01076 0.11302,-0.02582 0.15449,-0.04446c0.04228,-0.01936 0.07318,-0.04231 0.09188,-0.06741c0.01789,-0.0251 0.02358,-0.05235 0.01464,-0.08104l-0.20896,-0.62176m-3.44751,0c-0.00813,-0.02797 -0.02927,-0.0545 -0.06261,-0.07889c-0.03252,-0.02438 -0.07724,-0.0459 -0.12928,-0.06526c-0.05204,-0.01793 -0.11221,-0.03299 -0.17725,-0.04375c-0.06505,-0.01004 -0.13579,-0.01506 -0.20815,-0.01506l-1.56683,0c-0.07237,0 -0.13985,0.00574 -0.19921,0.01506c-0.06017,0.01076 -0.11383,0.0251 -0.15693,0.04375c-0.04309,0.01865 -0.07724,0.04088 -0.09838,0.06526s-0.03008,0.05092 -0.02439,0.07889l0.12928,0.62176c0.0065,0.02869 0.02683,0.05594 0.05854,0.08104c0.03252,0.0251 0.07643,0.04733 0.12766,0.06741c0.05204,0.01865 0.11383,0.03442 0.17969,0.04446c0.06586,0.01147 0.13741,0.01649 0.2114,0.01649l1.60016,0c0.07399,0 0.1431,-0.00574 0.20409,-0.01649c0.06098,-0.01076 0.11465,-0.02582 0.15774,-0.04446c0.04391,-0.01936 0.07724,-0.04231 0.09676,-0.06741c0.02033,-0.0251 0.02846,-0.05235 0.02033,-0.08104l-0.16262,-0.62176m-6.99584,3.5613l1.69042,0c0.07724,0 0.15124,-0.00645 0.21628,-0.01793c0.06586,-0.01219 0.12359,-0.0294 0.17156,-0.0502s0.08456,-0.04661 0.10895,-0.07458c0.02439,-0.02797 0.03496,-0.05881 0.03008,-0.09108l-0.1057,-0.69204c-0.00488,-0.03155 -0.02439,-0.06096 -0.0561,-0.08821c-0.03252,-0.02725 -0.07643,-0.05163 -0.12928,-0.07243c-0.05204,-0.02008 -0.11465,-0.03729 -0.18213,-0.04805s-0.14066,-0.01721 -0.2171,-0.01721l-1.6522,0c-0.07643,0 -0.14798,0.00645 -0.21303,0.01721c-0.06423,0.01147 -0.12196,0.02797 -0.17075,0.04805c-0.04797,0.02008 -0.08537,0.04446 -0.11139,0.07243s-0.03822,0.05665 -0.03496,0.08821l0.06749,0.69204c0.00325,0.03227 0.02195,0.06311 0.05366,0.09108c0.0309,0.02797 0.0748,0.05379 0.12766,0.07458s0.11627,0.03873 0.18457,0.0502c0.06911,0.01147 0.14392,0.01793 0.22197,0.01793m8.54966,-1.6236c0.00894,0.03084 0.03171,0.06024 0.06749,0.08677c0.03496,0.02653 0.08212,0.0502 0.1366,0.071c0.05529,0.02008 0.11871,0.03657 0.18782,0.04733c0.0683,0.01147 0.14229,0.01721 0.21872,0.01721l1.64326,0c0.07562,0 0.14554,-0.00645 0.20734,-0.01721s0.11627,-0.02725 0.15774,-0.04733c0.04309,-0.02008 0.0748,-0.04446 0.09351,-0.071c0.01789,-0.02653 0.02358,-0.05594 0.01382,-0.08677l-0.22116,-0.65546c-0.01057,-0.0294 -0.03496,-0.05737 -0.07074,-0.08319s-0.08294,-0.04877 -0.13823,-0.06813c-0.05448,-0.01936 -0.1179,-0.03514 -0.18538,-0.0459c-0.06749,-0.01076 -0.14066,-0.01649 -0.21466,-0.01649l-1.6083,0c-0.0748,0 -0.1431,0.00645 -0.20409,0.01649c-0.06098,0.01147 -0.11465,0.02653 -0.15693,0.0459c-0.04309,0.01865 -0.07562,0.04231 -0.09513,0.06813s-0.02683,0.05379 -0.0187,0.08319l0.18701,0.65546m-3.44263,0c0.0065,0.03084 0.02765,0.06024 0.06098,0.08677s0.07887,0.0502 0.13253,0.071c0.05285,0.02008 0.11627,0.03657 0.18457,0.04733c0.06749,0.01147 0.14148,0.01721 0.2171,0.01721l1.64407,0c0.07562,0 0.14636,-0.00645 0.20815,-0.01721c0.06261,-0.01147 0.1179,-0.02725 0.16181,-0.04733c0.04391,-0.02008 0.07724,-0.04446 0.09757,-0.071s0.02765,-0.05594 0.01951,-0.08677l-0.17644,-0.65546c-0.00813,-0.0294 -0.0309,-0.05737 -0.06505,-0.08319s-0.07968,-0.04877 -0.13335,-0.06813c-0.05285,-0.01936 -0.11546,-0.03514 -0.18213,-0.0459c-0.06749,-0.01076 -0.13904,-0.01649 -0.21384,-0.01649l-1.6083,0c-0.07399,0 -0.1431,0.00645 -0.2049,0.01649c-0.06179,0.01147 -0.11627,0.02653 -0.16018,0.0459c-0.04472,0.01865 -0.07887,0.04231 -0.10001,0.06813s-0.0309,0.05379 -0.02439,0.08319l0.14229,0.65546m5.98354,4.41326l-0.23824,-0.77523c-0.01138,-0.03514 -0.0374,-0.06885 -0.07643,-0.09968c-0.03903,-0.03012 -0.08944,-0.05737 -0.14961,-0.08032c-0.06017,-0.02223 -0.12847,-0.04159 -0.20165,-0.05379c-0.07399,-0.01291 -0.15286,-0.01936 -0.23254,-0.01936l-1.74733,0c-0.0805,0 -0.15449,0.00717 -0.22116,0.01936s-0.1244,0.03155 -0.17156,0.05379c-0.04716,0.02295 -0.08294,0.0502 -0.10408,0.08032c-0.02195,0.03084 -0.03008,0.06454 -0.02033,0.09968l0.19514,0.77523c0.00976,0.03657 0.03496,0.071 0.07318,0.10255s0.08863,0.06024 0.1488,0.08391c0.06017,0.02367 0.12928,0.04375 0.20409,0.05665s0.15449,0.02008 0.23742,0.02008l1.78962,0c0.08294,0 0.15855,-0.00717 0.22604,-0.02008c0.06667,-0.01363 0.12522,-0.03299 0.17156,-0.05665c0.04716,-0.02367 0.08212,-0.05235 0.10245,-0.08391c0.0187,-0.03155 0.02521,-0.06598 0.01464,-0.10255m-25.39611,-2.78966l1.69042,0c0.07724,0 0.15286,-0.00645 0.22116,-0.01793s0.13253,-0.0294 0.1862,-0.0502c0.05366,-0.0208 0.09838,-0.04661 0.13091,-0.07458c0.03171,-0.02797 0.05122,-0.05881 0.05529,-0.09108l0.08619,-0.69204c0.00407,-0.03155 -0.00813,-0.06096 -0.03252,-0.08821s-0.06261,-0.05163 -0.10977,-0.07243c-0.04797,-0.02008 -0.10489,-0.03729 -0.16912,-0.04805c-0.06423,-0.01147 -0.13579,-0.01721 -0.21222,-0.01721l-1.6522,0c-0.07562,0 -0.14961,0.00645 -0.2171,0.01721s-0.13009,0.02797 -0.18376,0.04805s-0.09838,0.04446 -0.13091,0.07243c-0.03252,0.02725 -0.05285,0.05665 -0.05854,0.08821l-0.1244,0.69204c-0.00569,0.03227 0.00407,0.06311 0.02765,0.09108s0.06017,0.05379 0.10733,0.07458c0.04716,0.0208 0.10489,0.03873 0.16994,0.0502s0.13741,0.01793 0.21547,0.01793m-4.68666,-1.6236c-0.00813,0.03084 -0.00081,0.06024 0.01951,0.08677s0.05366,0.0502 0.09838,0.071s0.0992,0.03657 0.16181,0.04733c0.06261,0.01147 0.13335,0.01721 0.20815,0.01721l1.64407,0c0.07562,0 0.1488,-0.00645 0.2171,-0.01721c0.06749,-0.01147 0.13009,-0.02725 0.18457,-0.04733c0.05366,-0.02008 0.0992,-0.04446 0.13253,-0.071s0.05448,-0.05594 0.06179,-0.08677l0.13904,-0.65546c0.0065,-0.0294 -0.00244,-0.05737 -0.02439,-0.08319c-0.02114,-0.02582 -0.0561,-0.04877 -0.10001,-0.06813c-0.04472,-0.01936 -0.0992,-0.03514 -0.16018,-0.0459c-0.06179,-0.01076 -0.13091,-0.01649 -0.2049,-0.01649l-1.6083,0c-0.07399,0 -0.14636,0.00645 -0.21303,0.01649c-0.06667,0.01147 -0.12847,0.02653 -0.18213,0.0459c-0.05366,0.01865 -0.0992,0.04231 -0.13335,0.06813s-0.0561,0.05379 -0.06423,0.08319l-0.17644,0.65546m20.99403,2.12631l0.10733,0.7322c0.00488,0.03371 0.02602,0.06669 0.05936,0.0961c0.03334,0.03012 0.0805,0.05665 0.13579,0.07889s0.12034,0.04088 0.19108,0.05307c0.07155,0.01291 0.1488,0.01936 0.22848,0.01936l1.7392,0c0.07968,0 0.15449,-0.00717 0.22116,-0.01936s0.12522,-0.03084 0.17319,-0.05307s0.08456,-0.04877 0.10814,-0.07889c0.02277,-0.0294 0.03252,-0.06239 0.02602,-0.0961l-0.14717,-0.7322c-0.00732,-0.03371 -0.02927,-0.06526 -0.06342,-0.09394s-0.08131,-0.0545 -0.1366,-0.07602s-0.11952,-0.03944 -0.19026,-0.05092c-0.06993,-0.01219 -0.14554,-0.01865 -0.22279,-0.01865l-1.69936,0c-0.07806,0 -0.15124,0.00717 -0.2171,0.01865s-0.1244,0.0294 -0.17238,0.05092c-0.04879,0.02151 -0.08537,0.04733 -0.11058,0.07602s-0.03496,0.06096 -0.03008,0.09394m-22.58769,-4.06402c0.00894,-0.02797 0.00244,-0.0545 -0.01626,-0.07889c-0.0187,-0.02438 -0.05041,-0.0459 -0.09188,-0.06526c-0.04147,-0.01793 -0.09269,-0.03299 -0.15205,-0.04375c-0.05936,-0.01004 -0.12603,-0.01506 -0.19839,-0.01506l-1.56683,0c-0.07237,0 -0.1431,0.00574 -0.20896,0.01506c-0.06667,0.01076 -0.12766,0.0251 -0.18213,0.04375c-0.05366,0.01865 -0.10082,0.04088 -0.13579,0.06526c-0.03578,0.02438 -0.06017,0.05092 -0.07074,0.07889l-0.22685,0.62176c-0.01138,0.02869 -0.00569,0.05594 0.0122,0.08104s0.04879,0.04733 0.09025,0.06741c0.04147,0.01865 0.09351,0.03442 0.15286,0.04446c0.06017,0.01147 0.12847,0.01649 0.20246,0.01649l1.60016,0c0.07399,0 0.14554,-0.00574 0.21303,-0.01649c0.06667,-0.01076 0.12928,-0.02582 0.18376,-0.04446c0.05366,-0.01936 0.10001,-0.04231 0.13497,-0.06741c0.03415,-0.0251 0.05773,-0.05235 0.06749,-0.08104l0.1927,-0.62176m-9.51724,0l-0.31711,0.62176c-0.01464,0.02869 -0.01382,0.05594 0,0.08104c0.01464,0.0251 0.04147,0.04733 0.0805,0.06741c0.03822,0.01865 0.08781,0.03442 0.14636,0.04446c0.05854,0.01147 0.12522,0.01649 0.19921,0.01649l1.60016,0c0.07399,0 0.14717,-0.00574 0.21628,-0.01649c0.0683,-0.01076 0.13335,-0.02582 0.19026,-0.04446c0.05692,-0.01936 0.10652,-0.04231 0.14554,-0.06741s0.06586,-0.05235 0.07887,-0.08104l0.28296,-0.62176c0.01301,-0.02797 0.01057,-0.0545 -0.00488,-0.07889s-0.04391,-0.0459 -0.08294,-0.06526c-0.03903,-0.01793 -0.08863,-0.03299 -0.14636,-0.04375c-0.05773,-0.01004 -0.12359,-0.01506 -0.19596,-0.01506l-1.56683,0c-0.07155,0 -0.1431,0.00574 -0.21059,0.01506c-0.06749,0.01076 -0.13172,0.0251 -0.18782,0.04375c-0.05692,0.01865 -0.1057,0.04088 -0.14473,0.06526s-0.0683,0.05092 -0.08294,0.07889m22.79096,-0.20295l-1.56601,0c-0.07237,0 -0.14148,0.00574 -0.2049,0.01506c-0.06342,0.01076 -0.12034,0.0251 -0.16912,0.04375c-0.04879,0.01865 -0.08863,0.04088 -0.1179,0.06526s-0.04553,0.05092 -0.04797,0.07889l-0.04879,0.62176c-0.00244,0.02869 0.01057,0.05594 0.03496,0.08104s0.06261,0.04733 0.10895,0.06741c0.04716,0.01865 0.10326,0.03442 0.16668,0.04446c0.06342,0.01147 0.13335,0.01649 0.20653,0.01649l1.60098,0c0.07318,0 0.14392,-0.00574 0.20815,-0.01649c0.06423,-0.01076 0.12196,-0.02582 0.17075,-0.04446c0.04879,-0.01936 0.08781,-0.04231 0.11546,-0.06741s0.04309,-0.05235 0.04391,-0.08104l0.01545,-0.62176c0.00081,-0.02797 -0.01301,-0.0545 -0.03903,-0.07889c-0.02521,-0.02438 -0.06342,-0.0459 -0.10977,-0.06526c-0.04716,-0.01793 -0.10245,-0.03299 -0.16506,-0.04375c-0.06179,-0.00932 -0.13091,-0.01506 -0.20327,-0.01506m0.15855,3.76425l1.69042,0c0.07806,0 0.15286,-0.00645 0.22035,-0.01793s0.12847,-0.0294 0.17888,-0.0502c0.05041,-0.0208 0.09188,-0.04661 0.11952,-0.07458c0.02846,-0.02797 0.04309,-0.05881 0.04309,-0.09108l-0.00976,-0.69204c0,-0.03155 -0.01626,-0.06096 -0.04472,-0.08821c-0.02846,-0.02725 -0.0683,-0.05163 -0.11871,-0.07243c-0.05041,-0.02008 -0.10977,-0.03729 -0.17644,-0.04805c-0.06586,-0.01147 -0.13823,-0.01721 -0.21547,-0.01721l-1.6522,0c-0.07643,0 -0.1488,0.00645 -0.21466,0.01721c-0.06667,0.01147 -0.12603,0.02797 -0.17725,0.04805c-0.05041,0.02008 -0.09188,0.04446 -0.12034,0.07243s-0.04553,0.05665 -0.04716,0.08821l-0.02846,0.69204c-0.00081,0.03227 0.01301,0.06311 0.04065,0.09108s0.06749,0.05379 0.1179,0.07458s0.10977,0.03873 0.17644,0.0502c0.06667,0.01147 0.13985,0.01793 0.21791,0.01793m21.87217,-1.6236l-0.26669,-0.65546c-0.0122,-0.0294 -0.03822,-0.05737 -0.07643,-0.08319c-0.0374,-0.02582 -0.08537,-0.04877 -0.14229,-0.06813c-0.0561,-0.01936 -0.12034,-0.03514 -0.18864,-0.0459c-0.0683,-0.01076 -0.14148,-0.01649 -0.21547,-0.01649l-1.60911,0c-0.07399,0 -0.14229,0.00645 -0.20246,0.01649c-0.06017,0.01147 -0.11221,0.02653 -0.15367,0.0459c-0.04147,0.01865 -0.07237,0.04231 -0.09025,0.06813s-0.02277,0.05379 -0.01301,0.08319l0.23092,0.65546c0.01138,0.03084 0.03659,0.06024 0.07318,0.08677c0.0374,0.02653 0.08537,0.0502 0.14229,0.071c0.05692,0.02008 0.12115,0.03657 0.19108,0.04733c0.06911,0.01147 0.14392,0.01721 0.21953,0.01721l1.64407,0c0.07562,0 0.14473,-0.00645 0.20571,-0.01721s0.11383,-0.02725 0.15449,-0.04733s0.07155,-0.04446 0.08781,-0.071s0.02114,-0.05594 0.00894,-0.08677m-39.95696,0.69706l-0.26832,0.69204c-0.0122,0.03227 -0.00894,0.06311 0.00894,0.09108c0.01789,0.02797 0.0496,0.05379 0.09188,0.07458c0.04309,0.0208 0.09676,0.03873 0.15937,0.0502s0.13416,0.01793 0.21222,0.01793l1.69042,0c0.07806,0 0.15367,-0.00645 0.22523,-0.01793c0.07155,-0.01219 0.13823,-0.0294 0.19596,-0.0502c0.05854,-0.0208 0.10814,-0.04661 0.14554,-0.07458c0.0374,-0.02797 0.06423,-0.05881 0.0748,-0.09108l0.2301,-0.69204c0.01057,-0.03155 0.00488,-0.06096 -0.01382,-0.08821s-0.05041,-0.05163 -0.09432,-0.07243c-0.04309,-0.02008 -0.09676,-0.03729 -0.15855,-0.04805s-0.13253,-0.01721 -0.20815,-0.01721l-1.6522,0c-0.07562,0 -0.15124,0.00645 -0.22035,0.01721c-0.06993,0.01147 -0.13579,0.02797 -0.19352,0.04805c-0.05773,0.02008 -0.10733,0.04446 -0.14554,0.07243c-0.04065,0.02725 -0.06749,0.05665 -0.07968,0.08821m41.69453,0.69204l-0.29759,-0.69204c-0.01382,-0.03155 -0.04147,-0.06096 -0.08131,-0.08821s-0.09025,-0.05163 -0.1488,-0.07243c-0.05854,-0.02008 -0.12522,-0.03729 -0.19596,-0.04805s-0.14554,-0.01721 -0.22116,-0.01721l-1.6522,0c-0.07643,0 -0.14636,0.00645 -0.20734,0.01721c-0.06179,0.01147 -0.11546,0.02797 -0.15611,0.04805c-0.04228,0.02008 -0.07399,0.04446 -0.09107,0.07243s-0.02195,0.05665 -0.01057,0.08821l0.25938,0.69204c0.0122,0.03227 0.03984,0.06311 0.07887,0.09108s0.08944,0.05379 0.1488,0.07458s0.12522,0.03873 0.19758,0.0502c0.07155,0.01219 0.1488,0.01793 0.22604,0.01793l1.6896,0c0.07806,0 0.14961,-0.00645 0.2114,-0.01793c0.06261,-0.01219 0.11627,-0.0294 0.15693,-0.0502c0.04228,-0.0208 0.07237,-0.04661 0.08863,-0.07458c0.01626,-0.02797 0.0187,-0.05881 0.00488,-0.09108m-36.39887,-2.70432c-0.00813,0.02869 -0.00163,0.05594 0.01789,0.08104c0.01951,0.0251 0.05204,0.04733 0.09432,0.06741c0.04228,0.01865 0.09594,0.03442 0.15611,0.04446c0.06098,0.01147 0.12928,0.01649 0.20327,0.01649l1.60016,0c0.07399,0 0.14554,-0.00574 0.21222,-0.01649c0.06667,-0.01076 0.12766,-0.02582 0.18051,-0.04446c0.05285,-0.01936 0.09757,-0.04231 0.13009,-0.06741s0.05448,-0.05235 0.06098,-0.08104l0.1488,-0.62176c0.0065,-0.02797 -0.00081,-0.0545 -0.02195,-0.07889s-0.05366,-0.0459 -0.09676,-0.06526c-0.04309,-0.01793 -0.09513,-0.03299 -0.1553,-0.04375c-0.06017,-0.01004 -0.12684,-0.01506 -0.19921,-0.01506l-1.56683,0c-0.07155,0 -0.14229,0.00574 -0.20734,0.01506c-0.06586,0.01076 -0.12603,0.0251 -0.17888,0.04375c-0.05204,0.01865 -0.09757,0.04088 -0.13091,0.06526c-0.03415,0.02438 -0.0561,0.05092 -0.06505,0.07889l-0.18213,0.62176m-1.78311,2.01229l-0.22035,0.69204c-0.00976,0.03227 -0.00407,0.06311 0.01545,0.09108s0.05204,0.05379 0.09676,0.07458s0.0992,0.03873 0.16343,0.0502c0.06342,0.01219 0.13579,0.01793 0.21303,0.01793l1.69042,0c0.07806,0 0.15367,-0.00645 0.22441,-0.01793c0.06993,-0.01219 0.13579,-0.0294 0.19189,-0.0502c0.0561,-0.0208 0.10408,-0.04661 0.13985,-0.07458c0.03578,-0.02797 0.05936,-0.05881 0.06749,-0.09108l0.18213,-0.69204c0.00813,-0.03155 0,-0.06096 -0.02033,-0.08821s-0.05448,-0.05163 -0.0992,-0.07243c-0.04472,-0.02008 -0.0992,-0.03729 -0.16262,-0.04805c-0.06261,-0.01147 -0.13335,-0.01721 -0.20896,-0.01721l-1.6522,0c-0.07562,0 -0.15042,0.00645 -0.21953,0.01721s-0.13416,0.02797 -0.19026,0.04805c-0.0561,0.02008 -0.10408,0.04446 -0.14066,0.07243s-0.06098,0.05665 -0.07074,0.08821m19.20441,-2.63476l0.03984,0.62176c0.00163,0.02869 0.01789,0.05594 0.04716,0.08104s0.06911,0.04733 0.11871,0.06741c0.0496,0.01865 0.10733,0.03442 0.17238,0.04446c0.06423,0.01147 0.13497,0.01649 0.20815,0.01649l1.60098,0c0.07399,0 0.14392,-0.00574 0.20571,-0.01649c0.06261,-0.01076 0.11871,-0.02582 0.16424,-0.04446c0.04635,-0.01936 0.08212,-0.04231 0.10652,-0.06741c0.02358,-0.0251 0.03496,-0.05235 0.03171,-0.08104l-0.07399,-0.62176c-0.00407,-0.02797 -0.02114,-0.0545 -0.05041,-0.07889s-0.06993,-0.0459 -0.11952,-0.06526c-0.0496,-0.01793 -0.10652,-0.03299 -0.17075,-0.04375c-0.06342,-0.01004 -0.13253,-0.01506 -0.2049,-0.01506l-1.56683,0c-0.07237,0 -0.14066,0.00574 -0.20165,0.01506c-0.06179,0.01076 -0.1179,0.0251 -0.16343,0.04375c-0.04635,0.01865 -0.08294,0.04088 -0.10733,0.06526s-0.03903,0.05092 -0.03659,0.07889m6.18682,0.62247l-0.11871,-0.62176c-0.00569,-0.02797 -0.02521,-0.0545 -0.0561,-0.07889s-0.07318,-0.0459 -0.12359,-0.06526c-0.05041,-0.01793 -0.10977,-0.03299 -0.174,-0.04375c-0.06423,-0.01004 -0.13416,-0.01506 -0.20653,-0.01506l-1.56683,0c-0.07237,0 -0.13985,0.00574 -0.20083,0.01506c-0.06098,0.01076 -0.11546,0.0251 -0.15937,0.04375c-0.04472,0.01865 -0.0805,0.04088 -0.10326,0.06526s-0.03415,0.05092 -0.03008,0.07889l0.08456,0.62176c0.00407,0.02869 0.02195,0.05594 0.05204,0.08104c0.0309,0.0251 0.07237,0.04733 0.12359,0.06741c0.05041,0.01865 0.11058,0.03442 0.17563,0.04446c0.06505,0.01147 0.13579,0.01649 0.20978,0.01649l1.60098,0c0.07399,0 0.1431,-0.00574 0.20409,-0.01649c0.06179,-0.01076 0.11709,-0.02582 0.16099,-0.04446c0.04472,-0.01936 0.07968,-0.04231 0.10164,-0.06741c0.02195,-0.0251 0.03171,-0.05235 0.02602,-0.08104m-9.11069,-0.82542c-0.07237,0 -0.14066,0.00574 -0.20327,0.01506c-0.06261,0.01076 -0.11871,0.0251 -0.16587,0.04375c-0.04716,0.01865 -0.08537,0.04088 -0.11221,0.06526s-0.04147,0.05092 -0.04147,0.07889l-0.00407,0.62176c0,0.02869 0.01464,0.05594 0.04147,0.08104c0.02683,0.0251 0.06586,0.04733 0.11383,0.06741c0.04797,0.01865 0.10489,0.03442 0.16912,0.04446c0.06423,0.01147 0.13416,0.01649 0.20734,0.01649l1.60098,0c0.07318,0 0.1431,-0.00574 0.20653,-0.01649c0.06342,-0.01076 0.11952,-0.02582 0.1675,-0.04446c0.04716,-0.01936 0.08456,-0.04231 0.11058,-0.06741c0.02602,-0.0251 0.03984,-0.05235 0.03822,-0.08104l-0.0309,-0.62176c-0.00163,-0.02797 -0.01707,-0.0545 -0.04472,-0.07889c-0.02765,-0.02438 -0.06667,-0.0459 -0.11546,-0.06526c-0.04879,-0.01793 -0.10489,-0.03299 -0.16831,-0.04375c-0.06179,-0.01004 -0.13091,-0.01506 -0.20327,-0.01506l-1.56601,0m-8.35045,0.82542l0.10408,-0.62176c0.00488,-0.02797 -0.00569,-0.0545 -0.02765,-0.07889s-0.05692,-0.0459 -0.10082,-0.06526c-0.04391,-0.01793 -0.09757,-0.03299 -0.15855,-0.04375c-0.06098,-0.01004 -0.12847,-0.01506 -0.20002,-0.01506l-1.56683,0c-0.07155,0 -0.14148,0.00574 -0.20653,0.01506c-0.06505,0.01076 -0.1244,0.0251 -0.17563,0.04375c-0.05122,0.01865 -0.09432,0.04088 -0.12603,0.06526s-0.05204,0.05092 -0.05854,0.07889l-0.13823,0.62176c-0.0065,0.02869 0.00244,0.05594 0.02358,0.08104c0.02114,0.0251 0.05529,0.04733 0.0992,0.06741c0.04391,0.01865 0.09838,0.03442 0.15937,0.04446c0.06179,0.01147 0.13009,0.01649 0.20409,0.01649l1.60098,0c0.07318,0 0.14473,-0.00574 0.20978,-0.01649c0.06586,-0.01076 0.12522,-0.02582 0.17725,-0.04446c0.05122,-0.01936 0.09432,-0.04231 0.12522,-0.06741c0.0309,-0.0251 0.05041,-0.05235 0.05529,-0.08104m5.36722,-1.48089l-0.01626,0.26462c-0.00081,0.01793 0.00732,0.03586 0.02439,0.05163s0.04147,0.03012 0.07155,0.04231c0.0309,0.01291 0.06749,0.02223 0.10895,0.02869c0.04147,0.00717 0.08619,0.01076 0.13497,0.01076l1.90426,0c0.04797,0 0.09351,-0.00359 0.13497,-0.01076c0.04147,-0.00645 0.07887,-0.01578 0.10977,-0.02869c0.03171,-0.01219 0.05692,-0.02582 0.0748,-0.04231c0.01789,-0.01578 0.02765,-0.03371 0.02765,-0.05163l0.00081,-0.26462c0,-0.01793 -0.00976,-0.03514 -0.02683,-0.05092c-0.01707,-0.01506 -0.04309,-0.0294 -0.07318,-0.04159c-0.03171,-0.01219 -0.06749,-0.02151 -0.10895,-0.02797c-0.04065,-0.00717 -0.08537,-0.01076 -0.13253,-0.01076l-1.88312,0c-0.04716,0 -0.09269,0.00359 -0.13416,0.01076c-0.04147,0.00645 -0.07887,0.01578 -0.11058,0.02797c-0.03252,0.01219 -0.05773,0.02582 -0.07643,0.04159c-0.0187,0.01578 -0.02927,0.03299 -0.03008,0.05092m30.25677,7.29759l-0.17644,-0.34925c-0.0122,-0.02367 -0.03415,-0.0459 -0.06423,-0.06741c-0.0309,-0.02008 -0.06911,-0.03944 -0.11221,-0.0545c-0.04391,-0.01506 -0.09188,-0.02797 -0.14392,-0.03657c-0.05041,-0.00932 -0.10489,-0.01434 -0.15855,-0.01434l-2.1612,0c-0.05366,0 -0.10326,0.00502 -0.14636,0.01434c-0.04309,0.00861 -0.07968,0.0208 -0.10814,0.03657s-0.0496,0.03442 -0.05936,0.0545c-0.01138,0.0208 -0.0122,0.04375 -0.00081,0.06741l0.15611,0.34925c0.01138,0.02367 0.03252,0.04661 0.06179,0.06813s0.06749,0.04016 0.11058,0.05522c0.04309,0.01578 0.09188,0.0294 0.14392,0.03801c0.05122,0.00932 0.1057,0.01434 0.16018,0.01434l2.18884,0c0.05366,0 0.10408,-0.00502 0.14717,-0.01434c0.04391,-0.00861 0.07968,-0.02151 0.10733,-0.03801c0.02846,-0.01506 0.04797,-0.03442 0.05773,-0.05522c0.00976,-0.02151 0.00894,-0.04446 -0.00244,-0.06813m-48.46027,-7.29759l-0.1179,0.26462c-0.00813,0.01793 -0.00569,0.03586 0.00407,0.05163c0.01057,0.01578 0.02927,0.03012 0.0561,0.04231c0.02602,0.01291 0.05854,0.02223 0.09757,0.02869c0.03903,0.00717 0.08294,0.01076 0.13091,0.01076l1.90426,0c0.04716,0 0.09432,-0.00359 0.13823,-0.01076c0.04391,-0.00645 0.08537,-0.01578 0.12115,-0.02869c0.03578,-0.01219 0.06749,-0.02582 0.09025,-0.04231c0.02358,-0.01578 0.04065,-0.03371 0.04797,-0.05163l0.10326,-0.26462c0.00732,-0.01793 0.00407,-0.03514 -0.0065,-0.05092c-0.01138,-0.01506 -0.0309,-0.0294 -0.05773,-0.04159c-0.02602,-0.01219 -0.05936,-0.02151 -0.09757,-0.02797c-0.03822,-0.00717 -0.08212,-0.01076 -0.12847,-0.01076l-1.88312,0c-0.04797,0 -0.09432,0.00359 -0.13823,0.01076c-0.04391,0.00645 -0.08537,0.01578 -0.12196,0.02797s-0.06749,0.02582 -0.09269,0.04159c-0.02439,0.01578 -0.04147,0.03299 -0.0496,0.05092m27.30444,0l0.03578,0.26462c0.00244,0.01793 0.01464,0.03586 0.03415,0.05163s0.04716,0.03012 0.0805,0.04231c0.03252,0.01291 0.07155,0.02223 0.11465,0.02869c0.04228,0.00717 0.08863,0.01076 0.1366,0.01076l1.90426,0c0.04797,0 0.09188,-0.00359 0.13253,-0.01076c0.03984,-0.00645 0.07562,-0.01578 0.10489,-0.02869c0.02846,-0.01219 0.05122,-0.02582 0.06586,-0.04231s0.02114,-0.03371 0.01707,-0.05163l-0.05041,-0.26462c-0.00325,-0.01793 -0.01626,-0.03514 -0.03659,-0.05092c-0.01951,-0.01506 -0.04797,-0.0294 -0.08131,-0.04159s-0.07237,-0.02151 -0.11465,-0.02797c-0.04228,-0.00717 -0.087,-0.01076 -0.13497,-0.01076l-1.88231,0c-0.04797,0 -0.09188,0.00359 -0.13253,0.01076c-0.03984,0.00645 -0.07562,0.01578 -0.10489,0.02797s-0.05285,0.02582 -0.0683,0.04159c-0.01545,0.01578 -0.02277,0.03299 -0.02033,0.05092m12.13539,0l0.10326,0.26462c0.00732,0.01793 0.02358,0.03586 0.04797,0.05163s0.05448,0.03012 0.09107,0.04231c0.03578,0.01291 0.07724,0.02223 0.12115,0.02869c0.04472,0.00717 0.09107,0.01076 0.13904,0.01076l1.90426,0c0.04879,0 0.09188,-0.00359 0.13091,-0.01076c0.03822,-0.00645 0.07074,-0.01578 0.09676,-0.02869c0.02602,-0.01219 0.04472,-0.02582 0.05448,-0.04231s0.01301,-0.03371 0.00488,-0.05163l-0.11871,-0.26462c-0.00813,-0.01793 -0.02521,-0.03514 -0.0496,-0.05092c-0.02439,-0.01506 -0.05529,-0.0294 -0.09188,-0.04159c-0.03578,-0.01219 -0.07724,-0.02151 -0.12034,-0.02797c-0.04472,-0.00717 -0.09107,-0.01076 -0.13823,-0.01076l-1.88312,0c-0.04716,0 -0.09025,0.00359 -0.12928,0.01076c-0.03822,0.00645 -0.07155,0.01578 -0.09838,0.02797c-0.02602,0.01219 -0.04635,0.02582 -0.05692,0.04159c-0.01138,0.01578 -0.01464,0.03299 -0.00732,0.05092m2.1238,7.29759l-0.13172,-0.34925c-0.00894,-0.02367 -0.02846,-0.0459 -0.0561,-0.06741c-0.02765,-0.02008 -0.06342,-0.03944 -0.10489,-0.0545c-0.04228,-0.01506 -0.08863,-0.02797 -0.13985,-0.03657c-0.05041,-0.00932 -0.10408,-0.01434 -0.15774,-0.01434l-2.15957,0c-0.05366,0 -0.10326,0.00502 -0.14798,0.01434c-0.04391,0.00861 -0.08212,0.0208 -0.11302,0.03657c-0.03008,0.01506 -0.05285,0.03442 -0.06667,0.0545c-0.01382,0.0208 -0.01707,0.04375 -0.00976,0.06741l0.11302,0.34925c0.00813,0.02367 0.02602,0.04661 0.05285,0.06813s0.06261,0.04016 0.10408,0.05522c0.04065,0.01578 0.08781,0.0294 0.13823,0.03801c0.05041,0.00932 0.10408,0.01434 0.15855,0.01434l2.18722,0c0.05448,0 0.1057,-0.00502 0.15042,-0.01434c0.04472,-0.00861 0.08294,-0.02151 0.11302,-0.03801c0.02927,-0.01506 0.05122,-0.03442 0.06423,-0.05522c0.0122,-0.02151 0.01464,-0.04446 0.00569,-0.06813m-32.46188,-7.29759l-0.06749,0.26462c-0.00407,0.01793 0.00081,0.03586 0.01464,0.05163s0.03496,0.03012 0.06423,0.04231c0.02846,0.01291 0.06342,0.02223 0.10326,0.02869c0.03984,0.00717 0.08456,0.01076 0.13253,0.01076l1.90426,0c0.04797,0 0.09351,-0.00359 0.1366,-0.01076c0.04228,-0.00645 0.08212,-0.01578 0.11546,-0.02869c0.03415,-0.01219 0.06261,-0.02582 0.08294,-0.04231s0.03415,-0.03371 0.0374,-0.05163l0.05204,-0.26462c0.00325,-0.01793 -0.00244,-0.03514 -0.01707,-0.05092c-0.01464,-0.01506 -0.03659,-0.0294 -0.06505,-0.04159c-0.02927,-0.01219 -0.06423,-0.02151 -0.10326,-0.02797c-0.03903,-0.00717 -0.08375,-0.01076 -0.13091,-0.01076l-1.88312,0c-0.04716,0 -0.09351,0.00359 -0.13579,0.01076c-0.04309,0.00645 -0.08212,0.01578 -0.11627,0.02797c-0.03415,0.01219 -0.06342,0.02582 -0.08456,0.04159c-0.02114,0.01578 -0.03578,0.03299 -0.03984,0.05092m-3.03365,0l-0.08375,0.26462c-0.00569,0.01793 -0.00163,0.03586 0.01057,0.05163s0.03334,0.03012 0.06098,0.04231c0.02765,0.01291 0.06098,0.02223 0.10082,0.02869c0.03903,0.00717 0.08375,0.01076 0.13172,0.01076l1.90426,0c0.04797,0 0.09513,-0.00359 0.13823,-0.01076c0.04309,-0.00645 0.08375,-0.01578 0.1179,-0.02869c0.03415,-0.01219 0.06423,-0.02582 0.08537,-0.04231s0.03578,-0.03371 0.04065,-0.05163l0.06911,-0.26462c0.00488,-0.01793 0,-0.03514 -0.01382,-0.05092c-0.01382,-0.01506 -0.03496,-0.0294 -0.06261,-0.04159c-0.02846,-0.01219 -0.06261,-0.02151 -0.10164,-0.02797c-0.03903,-0.00717 -0.08375,-0.01076 -0.13091,-0.01076l-1.88312,0c-0.04716,0 -0.09351,0.00359 -0.1366,0.01076c-0.04309,0.00645 -0.08294,0.01578 -0.1179,0.02797c-0.03496,0.01219 -0.06423,0.02582 -0.08619,0.04159c-0.02195,0.01578 -0.0374,0.03299 -0.04309,0.05092m9.10175,0l-0.03252,0.26462c-0.00244,0.01793 0.00488,0.03586 0.02033,0.05163s0.03903,0.03012 0.0683,0.04231c0.03008,0.01291 0.06586,0.02223 0.10652,0.02869c0.04065,0.00717 0.08537,0.01076 0.13416,0.01076l1.90426,0c0.04797,0 0.09432,-0.00359 0.13579,-0.01076c0.04228,-0.00645 0.0805,-0.01578 0.11302,-0.02869c0.03252,-0.01219 0.05854,-0.02582 0.07724,-0.04231c0.0187,-0.01578 0.02927,-0.03371 0.0309,-0.05163l0.01789,-0.26462c0.00163,-0.01793 -0.00732,-0.03514 -0.02358,-0.05092c-0.01626,-0.01506 -0.04065,-0.0294 -0.07074,-0.04159c-0.0309,-0.01219 -0.06667,-0.02151 -0.10733,-0.02797c-0.04065,-0.00717 -0.08537,-0.01076 -0.13253,-0.01076l-1.88312,0c-0.04797,0 -0.09269,0.00359 -0.13497,0.01076c-0.04228,0.00645 -0.07968,0.01578 -0.11221,0.02797c-0.03252,0.01219 -0.05936,0.02582 -0.07806,0.04159c-0.01951,0.01578 -0.0309,0.03299 -0.03334,0.05092m9.10175,0l0.01789,0.26462c0.00163,0.01793 0.0122,0.03586 0.0309,0.05163c0.01789,0.01578 0.04472,0.03012 0.07724,0.04231c0.03171,0.01291 0.06993,0.02223 0.11221,0.02869c0.04147,0.00717 0.087,0.01076 0.13497,0.01076l1.90507,0c0.04797,0 0.09269,-0.00359 0.13335,-0.01076c0.04065,-0.00645 0.07724,-0.01578 0.10733,-0.02869c0.03008,-0.01219 0.05285,-0.02582 0.06911,-0.04231s0.02277,-0.03371 0.02033,-0.05163l-0.03252,-0.26462c-0.00244,-0.01793 -0.01464,-0.03514 -0.03334,-0.05092c-0.0187,-0.01506 -0.04635,-0.0294 -0.07887,-0.04159s-0.07074,-0.02151 -0.11302,-0.02797c-0.04228,-0.00717 -0.087,-0.01076 -0.13497,-0.01076l-1.88231,0c-0.04797,0 -0.09269,0.00359 -0.13253,0.01076c-0.04065,0.00645 -0.07724,0.01578 -0.10733,0.02797s-0.05366,0.02582 -0.06993,0.04159c-0.01707,0.01578 -0.02439,0.03299 -0.02358,0.05092m12.13458,0l0.08619,0.26462c0.00569,0.01793 0.02114,0.03586 0.04391,0.05163c0.02277,0.01578 0.05204,0.03012 0.08781,0.04231c0.03496,0.01291 0.07562,0.02223 0.11871,0.02869c0.04391,0.00717 0.09025,0.01076 0.13823,0.01076l1.90589,0c0.04797,0 0.09188,-0.00359 0.13009,-0.01076c0.03903,-0.00645 0.07318,-0.01578 0.0992,-0.02869c0.02683,-0.01219 0.04716,-0.02582 0.05773,-0.04231c0.0122,-0.01578 0.01545,-0.03371 0.00813,-0.05163l-0.10082,-0.26462c-0.00732,-0.01793 -0.02277,-0.03514 -0.04716,-0.05092c-0.02277,-0.01506 -0.05366,-0.0294 -0.08863,-0.04159c-0.03578,-0.01219 -0.07643,-0.02151 -0.11952,-0.02797c-0.04309,-0.00717 -0.08944,-0.01076 -0.1366,-0.01076l-1.88393,0c-0.04797,0 -0.09107,0.00359 -0.13009,0.01076c-0.03903,0.00645 -0.07237,0.01578 -0.0992,0.02797s-0.04797,0.02582 -0.05936,0.04159c-0.0122,0.01578 -0.01626,0.03299 -0.01057,0.05092m-39.43983,0l-0.13497,0.26462c-0.00894,0.01793 -0.00894,0.03586 0.00081,0.05163s0.02765,0.03012 0.05204,0.04231c0.02521,0.01291 0.05773,0.02223 0.09513,0.02869c0.03822,0.00717 0.08212,0.01076 0.13009,0.01076l1.90589,0c0.04797,0 0.09432,-0.00359 0.13904,-0.01076c0.04472,-0.00645 0.08619,-0.01578 0.12278,-0.02869c0.03659,-0.01219 0.0683,-0.02582 0.09351,-0.04231c0.02439,-0.01578 0.04228,-0.03371 0.05041,-0.05163l0.12034,-0.26462c0.00813,-0.01793 0.0065,-0.03514 -0.00407,-0.05092c-0.01057,-0.01506 -0.02846,-0.0294 -0.05448,-0.04159s-0.05773,-0.02151 -0.09594,-0.02797c-0.0374,-0.00717 -0.08131,-0.01076 -0.12766,-0.01076l-1.88475,0c-0.04797,0 -0.09432,0.00359 -0.13823,0.01076c-0.04472,0.00645 -0.08619,0.01578 -0.12278,0.02797s-0.06911,0.02582 -0.09432,0.04159c-0.02521,0.01578 -0.04391,0.03299 -0.05285,0.05092m24.2716,0l0.00081,0.26462c0,0.01793 0.00976,0.03586 0.02765,0.05163s0.04309,0.03012 0.07399,0.04231c0.03171,0.01291 0.0683,0.02223 0.10977,0.02869c0.04147,0.00717 0.087,0.01076 0.13497,0.01076l1.90426,0c0.04879,0 0.09351,-0.00359 0.13416,-0.01076c0.04147,-0.00645 0.07806,-0.01578 0.10895,-0.02869c0.03008,-0.01219 0.05448,-0.02582 0.07155,-0.04231s0.02439,-0.03371 0.02358,-0.05163l-0.01626,-0.26462c-0.00081,-0.01793 -0.0122,-0.03514 -0.02927,-0.05092c-0.01789,-0.01506 -0.04472,-0.0294 -0.07643,-0.04159s-0.06911,-0.02151 -0.11058,-0.02797c-0.04147,-0.00717 -0.08619,-0.01076 -0.13416,-0.01076l-1.88231,0c-0.04797,0 -0.09269,0.00359 -0.13335,0.01076c-0.04065,0.00645 -0.07724,0.01578 -0.10814,0.02797s-0.0561,0.02582 -0.07318,0.04159c-0.01707,0.01578 -0.02602,0.03299 -0.02602,0.05092m12.13458,0l0.06993,0.26462c0.00488,0.01793 0.0187,0.03586 0.04065,0.05163s0.05041,0.03012 0.08456,0.04231c0.03496,0.01291 0.0748,0.02223 0.1179,0.02869c0.04391,0.00717 0.08944,0.01076 0.13823,0.01076l1.90426,0c0.04797,0 0.09188,-0.00359 0.13172,-0.01076c0.03903,-0.00645 0.07318,-0.01578 0.10082,-0.02869c0.02683,-0.01219 0.04797,-0.02582 0.06017,-0.04231c0.0122,-0.01578 0.01707,-0.03371 0.01057,-0.05163l-0.08375,-0.26462c-0.00569,-0.01793 -0.02033,-0.03514 -0.04309,-0.05092c-0.02195,-0.01506 -0.05122,-0.0294 -0.08619,-0.04159s-0.0748,-0.02151 -0.1179,-0.02797c-0.04309,-0.00717 -0.08944,-0.01076 -0.1366,-0.01076l-1.88312,0c-0.04716,0 -0.09107,0.00359 -0.13009,0.01076c-0.03984,0.00645 -0.07399,0.01578 -0.10164,0.02797s-0.0496,0.02582 -0.06179,0.04159c-0.01382,0.01578 -0.0187,0.03299 -0.01464,0.05092m-21.23633,0l-0.05041,0.26462c-0.00325,0.01793 0.00325,0.03586 0.01707,0.05163c0.01464,0.01578 0.03659,0.03012 0.06586,0.04231c0.02927,0.01291 0.06505,0.02223 0.10408,0.02869c0.04065,0.00717 0.08537,0.01076 0.13335,0.01076l1.90426,0c0.04797,0 0.09432,-0.00359 0.13579,-0.01076c0.04228,-0.00645 0.08131,-0.01578 0.11383,-0.02869c0.03334,-0.01219 0.06017,-0.02582 0.07968,-0.04231s0.03171,-0.03371 0.03415,-0.05163l0.03496,-0.26462c0.00244,-0.01793 -0.00488,-0.03514 -0.01951,-0.05092c-0.01545,-0.01506 -0.03822,-0.0294 -0.06749,-0.04159s-0.06505,-0.02151 -0.10489,-0.02797c-0.03984,-0.00717 -0.08456,-0.01076 -0.13172,-0.01076l-1.88231,0c-0.04716,0 -0.09269,0.00359 -0.13497,0.01076c-0.04228,0.00645 -0.08131,0.01578 -0.11383,0.02797c-0.03334,0.01219 -0.06098,0.02582 -0.08131,0.04159c-0.02033,0.01578 -0.03252,0.03299 -0.03659,0.05092m18.2035,0l0.05204,0.26462c0.00407,0.01793 0.01707,0.03586 0.0374,0.05163s0.0496,0.03012 0.08294,0.04231c0.03334,0.01291 0.07318,0.02223 0.11627,0.02869c0.04228,0.00717 0.08863,0.01076 0.1366,0.01076l1.90426,0c0.04879,0 0.09269,-0.00359 0.13253,-0.01076c0.03984,-0.00645 0.0748,-0.01578 0.10245,-0.02869c0.02846,-0.01219 0.05041,-0.02582 0.06342,-0.04231s0.01789,-0.03371 0.01464,-0.05163l-0.06667,-0.26462c-0.00488,-0.01793 -0.0187,-0.03514 -0.03984,-0.05092c-0.02114,-0.01506 -0.05041,-0.0294 -0.08456,-0.04159s-0.07318,-0.02151 -0.11627,-0.02797c-0.04228,-0.00717 -0.08781,-0.01076 -0.13579,-0.01076l-1.88231,0c-0.04797,0 -0.09188,0.00359 -0.13172,0.01076c-0.03984,0.00645 -0.0748,0.01578 -0.10326,0.02797s-0.05041,0.02582 -0.06423,0.04159c-0.01545,0.01578 -0.02114,0.03299 -0.01789,0.05092m-27.30444,0l-0.10082,0.26462c-0.00732,0.01793 -0.00407,0.03586 0.00732,0.05163c0.01138,0.01578 0.03171,0.03012 0.05773,0.04231c0.02683,0.01291 0.06017,0.02223 0.0992,0.02869c0.03903,0.00717 0.08375,0.01076 0.13172,0.01076l1.90426,0c0.04797,0 0.09513,-0.00359 0.13823,-0.01076c0.04391,-0.00645 0.08456,-0.01578 0.11952,-0.02869c0.03496,-0.01219 0.06505,-0.02582 0.08781,-0.04231s0.0374,-0.03371 0.04391,-0.05163l0.08619,-0.26462c0.00569,-0.01793 0.00163,-0.03514 -0.01057,-0.05092c-0.0122,-0.01506 -0.03252,-0.0294 -0.05936,-0.04159s-0.06098,-0.02151 -0.10001,-0.02797c-0.03822,-0.00717 -0.08212,-0.01076 -0.13009,-0.01076l-1.88312,0c-0.04716,0 -0.09351,0.00359 -0.13741,0.01076c-0.04309,0.00645 -0.08375,0.01578 -0.11871,0.02797s-0.06586,0.02582 -0.08944,0.04159c-0.02358,0.01578 -0.03984,0.03299 -0.04635,0.05092m42.14824,0.26462l-0.13497,-0.26462c-0.00894,-0.01793 -0.02765,-0.03514 -0.05204,-0.05092c-0.02521,-0.01506 -0.05773,-0.0294 -0.09432,-0.04159s-0.07887,-0.02151 -0.12278,-0.02797c-0.04472,-0.00717 -0.09107,-0.01076 -0.13823,-0.01076l-1.88312,0c-0.04797,0 -0.09025,0.00359 -0.12847,0.01076c-0.03822,0.00645 -0.07074,0.01578 -0.09594,0.02797s-0.04391,0.02582 -0.05366,0.04159c-0.01057,0.01578 -0.0122,0.03299 -0.00407,0.05092l0.12034,0.26462c0.00813,0.01793 0.02602,0.03586 0.05041,0.05163s0.0561,0.03012 0.09269,0.04231c0.03659,0.01291 0.07887,0.02223 0.12278,0.02869c0.04472,0.00717 0.09188,0.01076 0.13985,0.01076l1.90426,0c0.04879,0 0.09188,-0.00359 0.12928,-0.01076c0.03822,-0.00645 0.07074,-0.01578 0.09513,-0.02869c0.02521,-0.01219 0.04391,-0.02582 0.05204,-0.04231c0.00976,-0.01578 0.01057,-0.03299 0.00081,-0.05163"/>
   <path id="svg_6" d="m73.77354,65.22121c-0.11058,0.10972 -0.25856,0.20725 -0.43988,0.28757c-0.18213,0.08032 -0.39598,0.14414 -0.63909,0.18861c-0.24393,0.04375 -0.5155,0.06741 -0.80984,0.06741l-68.93392,0c-0.29515,0 -0.56672,-0.02367 -0.81065,-0.06741c-0.24311,-0.04446 -0.45777,-0.10757 -0.6399,-0.18861c-0.18132,-0.08032 -0.3293,-0.17785 -0.4407,-0.28757c-0.11058,-0.109 -0.18376,-0.23092 -0.21547,-0.36287c0.1057,0.44247 0.2114,0.88566 0.31792,1.32957c0.03171,0.13339 0.10489,0.25674 0.21466,0.36789c0.11058,0.11116 0.25775,0.2094 0.43826,0.29044s0.39354,0.14558 0.63502,0.19076c0.24149,0.04446 0.51062,0.06885 0.80333,0.06885l68.32654,0c0.2919,0 0.56103,-0.02438 0.80252,-0.06885c0.24068,-0.04446 0.45452,-0.109 0.63421,-0.19076s0.32768,-0.17928 0.43826,-0.29044c0.10977,-0.11044 0.18295,-0.2345 0.21466,-0.36789c0.10652,-0.44319 0.21222,-0.88566 0.31792,-1.32957c-0.0309,0.13124 -0.10326,0.25315 -0.21384,0.36287z"/>
   <path id="svg_7" d="m61.06572,10.06334l-47.29755,0c-1.30095,0 -2.35471,0.92941 -2.35471,2.07683l0,30.4647c0,1.14742 1.05458,2.07683 2.35471,2.07683l47.29755,0c1.30095,0 2.35471,-0.93013 2.35471,-2.07683l0,-30.4647c0,-1.14742 -1.05377,-2.07683 -2.35471,-2.07683zm-23.64877,0.69204c0.27076,0 0.49111,0.19363 0.49111,0.43315c0,0.23881 -0.21953,0.43243 -0.49111,0.43243s-0.49111,-0.19363 -0.49111,-0.43243c0,-0.23952 0.22035,-0.43315 0.49111,-0.43315zm23.45282,31.67666l-46.90564,0l0,-30.11832l46.90564,0l0,30.11832z"/>
     </g>
</svg>