<svg xmlns="http://www.w3.org/2000/svg" width='100%' height='100%' viewBox='-5 -5 85 85' preserveAspectRatio='none'>
 <g>
  <path  d="m37.80777,7.06081c-4.92014,4.99188 -6.83677,11.80572 -5.91644,18.28775l9.12154,-9.24905c0.01169,-0.01481 0.0409,-0.0237 0.04675,-0.03555c0.61356,-1.1939 1.35567,-2.33744 2.3432,-3.33582c5.18309,-5.26147 13.58882,-5.25851 18.78068,0c5.18601,5.25258 5.19186,13.78173 0.00584,19.04616c-0.99338,1.00726 -2.12407,1.75679 -3.30444,2.38188c-0.01169,0.00593 -0.01753,0.01778 -0.02922,0.02963l-9.12446,9.25201c6.39268,0.93616 13.12427,-1.00726 18.04441,-5.99322c8.27425,-8.38991 8.26841,-21.99093 0,-30.38084c-8.28009,-8.38991 -21.69361,-8.38991 -29.96786,-0.00296zm-3.24309,51.74371c-0.61063,1.19983 -1.34982,2.34337 -2.34028,3.35063c-5.18601,5.25554 -13.60343,5.25554 -18.78944,0c-5.18601,-5.25554 -5.18601,-13.7847 0,-19.04913c0.99046,-1.00134 2.11823,-1.75086 3.29568,-2.37003c0.01169,-0.01778 0.01461,-0.03555 0.03214,-0.0474l9.11862,-9.25201c-6.38975,-0.93616 -13.1155,1.01319 -18.03272,5.99618c-8.27133,8.38695 -8.26841,21.99093 0,30.38084c8.27717,8.38695 21.69069,8.38695 29.96786,0c4.92014,-4.98892 6.84262,-11.80868 5.9106,-18.29368l-9.13031,9.25201c-0.00877,0.02074 -0.02045,0.02666 -0.03214,0.03259zm-14.94741,-9.4268l6.41897,6.5087c1.56895,1.59088 4.14005,1.59088 5.70608,0l24.25594,-24.595c1.5748,-1.58792 1.5748,-4.19792 0.00584,-5.78288l-6.42481,-6.5087c-1.56603,-1.59681 -4.13713,-1.59681 -5.70316,-0.00593l-24.25594,24.59796c-1.57187,1.59088 -1.57187,4.19792 -0.00292,5.78584z"/>
 </g>
</svg>