<svg xmlns="http://www.w3.org/2000/svg" width='100%' height='100%' viewBox='-5 -5 85 85' preserveAspectRatio='none'>
 <g>
  <path transform="rotate(180 37.33332824707031,37.417236328125) " id="svg_2" stroke-miterlimit="79.84032" marker-end="none" marker-start="none"  stroke-linecap="round" stroke-linejoin="round" d="m13.14144,0.52143l0,5.70354l48.38377,0l0,-5.70354l-48.38377,0zm25.9439,7.89422l0,0.39928c6.85159,2.84643 11.68835,9.70117 11.68835,17.70031c0,7.00338 -3.7139,13.13437 -9.24135,16.45973l-2.38976,-6.22037l2.20945,-0.88113l-1.52258,-3.95877l-4.6202,1.84095l-1.89845,-4.93899l-9.14118,3.64401l1.89845,4.93802l-4.7051,1.87592l1.52258,3.96071l2.2333,-0.89182l10.27357,26.72436l3.45632,-1.37853l1.14098,2.96883l-0.92061,0.36916c-0.35966,0.14281 -0.53805,0.55763 -0.39782,0.9229l0.73458,1.90895c0.13928,0.36625 0.54759,0.54791 0.9063,0.40511l8.93989,-3.56338c0.35966,-0.14281 0.5371,-0.55763 0.39782,-0.92485l-0.73362,-1.90992c-0.14119,-0.36528 -0.54855,-0.54694 -0.90725,-0.40316l-0.86718,0.3439l-1.14193,-2.96883l3.41626,-1.36007l-4.10027,-10.66779c9.49893,-5.40918 16.01281,-16.42767 16.01281,-29.12973c0,-5.51313 -1.22684,-10.70762 -3.3905,-15.26482l-18.85285,0zm18.5657,8.92107c0,2.02067 -1.6113,3.66247 -3.59561,3.66247c-1.98431,0 -3.59656,-1.6418 -3.59656,-3.66247c0,-2.0197 1.61225,-3.6615 3.59656,-3.6615c1.98431,0 3.59561,1.6418 3.59561,3.6615zm-40.05063,-1.91089l0,2.4899l27.44835,0c-0.52184,-0.88793 -1.12476,-1.72243 -1.79542,-2.4899l-25.65293,0zm35.2692,1.91089c0,0.66643 0.53138,1.20755 1.18582,1.20755c0.65444,0 1.18486,-0.54111 1.18486,-1.20755c0,-0.66546 -0.53042,-1.20657 -1.18486,-1.20657c-0.65444,0 -1.18582,0.54111 -1.18582,1.20657zm-32.57893,2.17125l0,1.70786l3.51929,0c0.62964,0.30699 1.56741,0.50323 2.61585,0.50323c1.04749,0 1.98526,-0.19624 2.6149,-0.50323l5.11437,0l0,-1.70786l-13.86441,0zm10.35466,6.948l-6.09508,2.43064l0.74602,1.93907l6.09508,-2.42869l-0.74602,-1.94101zm19.05224,17.45355c0,1.07154 -0.85192,1.93907 -1.90513,1.93907c-1.05226,0 -1.90513,-0.86753 -1.90513,-1.93907c0,-1.07154 0.85287,-1.94004 1.90513,-1.94004c1.05321,0 1.90513,0.8685 1.90513,1.94004z"/>
   </g>
 </svg>