<svg xmlns="http://www.w3.org/2000/svg" width='100%' height='100%' viewBox='-5 -5 85 85' preserveAspectRatio='none'>
 <g>
  <path d="m50.61796,50.28502c-2.82341,-1.0678 -3.95078,-4.00247 -3.95078,-4.00247s-1.27203,0.66472 -1.27203,-1.20216s1.27203,1.20216 2.54407,-6.00606c0,0 3.52677,-0.93579 2.82341,-8.67437l-0.84802,0c0,0 2.11756,-8.27365 0,-11.07633c-2.12005,-2.80267 -2.96558,-4.66955 -7.62721,-6.00606s-2.96309,-1.07015 -6.35268,-0.93344c-3.38959,0.13436 -6.2155,1.86688 -6.2155,2.80032c0,0 -2.11756,0.13436 -2.96309,0.93579c-0.84802,0.80143 -2.25973,4.53519 -2.25973,5.47098s0.70585,7.20822 1.41171,8.54237l-0.84054,0.26636c-0.70585,7.73858 2.82341,8.67437 2.82341,8.67437c1.26954,7.20822 2.54157,4.13918 2.54157,6.00606s-1.27203,1.20216 -1.27203,1.20216s-1.12737,2.93467 -3.95078,4.00247c-2.82341,1.06544 -18.49685,6.80278 -19.77138,8.00494c-1.27453,1.20451 -1.12986,6.80749 -1.12986,6.80749l67.21072,0c0,0 0.14716,-5.60299 -1.12737,-6.80749c-1.27702,-1.20216 -16.95046,-6.9395 -19.77387,-8.00494l-0.00002,0zm-31.10245,-0.40543c-0.24692,-0.42429 -0.36914,-0.73072 -0.36914,-0.73072s-1.07749,0.56337 -1.07749,-1.0183s1.07749,1.0183 2.15497,-5.08912c0,0 2.99052,-0.79201 2.39192,-7.352l-0.71832,0c0,0 0.35667,-1.39309 0.59112,-3.14446c-0.00998,-0.72601 0.01497,-1.49916 0.09228,-2.34774l0.09478,-1.00415c-0.05238,-1.15973 -0.26688,-2.21338 -0.77818,-2.88989c-1.79581,-2.37367 -2.51414,-3.95768 -6.46242,-5.08912c-3.94829,-1.13144 -2.51414,-0.90751 -5.38494,-0.79201c-2.8733,0.11314 -5.26771,1.58166 -5.26771,2.37603c0,0 -1.79581,0.11314 -2.51414,0.79201c-0.67592,0.63879 -1.7584,3.44618 -1.8881,4.44326l0,0.66237c0.11723,1.53923 0.6435,5.7727 1.16977,6.76978l-0.71334,0.22629c-0.59611,6.55999 2.39192,7.352 2.39192,7.352c1.07749,6.10742 2.15497,3.50747 2.15497,5.08912s-1.07749,1.0183 -1.07749,1.0183s-0.95527,2.49152 -3.34969,3.39196c-0.15215,0.05657 -0.34669,0.132 -0.57865,0.21686l0,12.33741l1.43415,0c-0.07233,-3.01246 0.19205,-6.89942 1.86066,-8.47166c0.88793,-0.83679 3.79864,-2.21338 15.84304,-6.74621l0.00003,0zm55.69508,-21.3465c-0.09977,-0.89101 -0.31676,-1.68537 -0.7283,-2.22988c-1.79332,-2.37603 -2.51414,-3.95768 -6.45993,-5.08912c-3.95078,-1.13144 -2.51414,-0.90751 -5.38743,-0.79201c-2.8708,0.11314 -5.26522,1.58166 -5.26522,2.37603c0,0 -1.79332,0.11314 -2.51414,0.79201c-0.67592,0.64115 -1.76837,3.46975 -1.89059,4.4574l0.08231,0l0.19953,2.15209c0.04988,0.54451 0.05487,1.02772 0.06734,1.52037c0.22448,1.56987 0.52378,3.18218 0.82308,3.74554l-0.71334,0.22629c-0.59611,6.55999 2.39441,7.352 2.39441,7.352c1.07749,6.10742 2.15248,3.50747 2.15248,5.08912s-1.07749,1.0183 -1.07749,1.0183s-0.13219,0.33471 -0.40655,0.79673c11.89725,4.47862 14.78302,5.84577 15.66097,6.68021c1.6711,1.57223 1.93299,5.45684 1.86066,8.47166l1.19721,0l0,-12.50713c-0.03991,-0.01414 -0.09478,-0.03536 -0.1297,-0.0495c-2.39192,-0.9028 -3.34969,-3.39196 -3.34969,-3.39196s-1.07998,0.56337 -1.07998,-1.0183s1.07998,1.0183 2.15497,-5.08912c0,0 2.00532,-0.53979 2.4019,-4.33954l0,-2.89225c-0.00249,-0.04243 -0.00249,-0.07779 -0.00748,-0.12022l-0.72082,0c0,0 0.53625,-2.09788 0.7283,-4.38669l0,-2.77203l0.00748,0l0.00002,0.00001z" />
 </g>
</svg>