<svg xmlns="http://www.w3.org/2000/svg" width='100%' height='100%' viewBox='-5 -5 85 85 ' preserveAspectRatio='none'>
 <g>
  <path d="m68.23874,24.1205l-7.05092,0c-0.68846,-5.06468 -4.14741,-10.42795 -8.12852,-14.99373c-4.24718,-4.68672 -8.82696,-8.44366 -12.58524,-8.95768c-0.20621,-0.03024 -0.41241,-0.05291 -0.65853,-0.05669l-24.70817,0c-0.39578,0 -0.78159,0.17764 -1.06096,0.49891c-0.27605,0.31371 -0.43902,0.75592 -0.43902,1.20948l0,22.29972l-6.89793,0c-3.6718,0 -6.65182,3.38653 -6.65182,7.55923l0,33.54407l13.54975,0l0,7.85782c0,0.44599 0.15299,0.86931 0.43902,1.20192c0.28603,0.32127 0.66186,0.49513 1.06096,0.49513l44.71683,0c0.39246,0 0.77161,-0.17386 1.05764,-0.49513s0.45898,-0.75214 0.45898,-1.20192l0,-7.85782l13.54975,0l0,-33.54407c0,-4.17269 -2.97669,-7.55923 -6.65182,-7.55923zm-9.91121,47.24895l-41.72684,0l0,-11.81507l41.72684,0l0,11.81507zm0,-40.46076c0,-0.11339 0,-0.23812 -0.00998,-0.36284c-0.04989,-0.25701 -0.20621,-0.51025 -0.41241,-0.75592l-41.30445,0l0,-26.26831l23.23812,0l0,0.00378c1.0144,-0.07181 1.88579,1.06585 2.55762,3.67c0.60864,2.47565 0.76163,5.70344 0.76163,7.94475c0.00333,1.63657 -0.06319,2.74022 -0.06319,2.74022l-0.12306,1.80666l1.59644,0.0189c0.00665,0 3.68843,0.05291 7.30369,0.9827c3.47225,0.85419 6.18619,2.55124 6.44561,4.47506c0.00998,0.17008 0.00998,0.34394 0.00998,0.50269l0,5.24232z" />
 </g>
</svg>