<svg xmlns="http://www.w3.org/2000/svg" width='100%' height='100%' viewBox='-5 -5 85 85' preserveAspectRatio='none'>
 <g>
  <path  d="m40.98603,32.91417c-0.67164,0 -1.21674,0.51292 -1.21674,1.14663l0,10.26537c0,0.63294 0.5451,1.14663 1.21674,1.14663s1.21674,-0.51369 1.21674,-1.14663l0,-10.26537c0,-0.6337 -0.5451,-1.14663 -1.21674,-1.14663zm3.33468,4.22035c-0.67164,0 -1.21674,0.51292 -1.21674,1.14663l0,6.04502c0,0.63294 0.5451,1.14663 1.21674,1.14663s1.21674,-0.51369 1.21674,-1.14663l0,-6.04502c0,-0.63294 -0.5451,-1.14663 -1.21674,-1.14663zm-6.66936,1.70312c-0.67164,0 -1.21674,0.51369 -1.21674,1.14663l0,4.3419c0,0.63294 0.5451,1.14663 1.21674,1.14663s1.21674,-0.51369 1.21674,-1.14663l0,-4.3419c0,-0.63294 -0.5451,-1.14663 -1.21674,-1.14663zm-3.33549,-4.39464c-0.67245,0 -1.21674,0.51292 -1.21674,1.14663l0,8.73654c0,0.63294 0.54429,1.14663 1.21674,1.14663s1.21674,-0.51369 1.21674,-1.14663l0,-8.73654c0,-0.6337 -0.54429,-1.14663 -1.21674,-1.14663zm-3.33468,-5.85162c-0.67245,0 -1.21674,0.51292 -1.21674,1.14663l0,14.58816c0,0.63294 0.54429,1.14663 1.21674,1.14663s1.21674,-0.51369 1.21674,-1.14663l0,-14.58816c0,-0.6337 -0.54429,-1.14663 -1.21674,-1.14663zm38.27136,16.72777l-1.44143,0l0,-32.79966l1.44143,0c2.13822,0 3.87654,-1.63891 3.87654,-3.65315s-1.73913,-3.65315 -3.87654,-3.65315l-30.70242,0l0,-2.61355c0,-0.6337 -0.5451,-1.14663 -1.21674,-1.14663s-1.21674,0.51292 -1.21674,1.14663l0,2.61278l-30.70242,0c-2.13822,0 -3.87654,1.63891 -3.87654,3.65315s1.73913,3.65315 3.87654,3.65315l1.44305,0l0,32.79966l-1.44305,0c-2.13741,0 -3.87654,1.63968 -3.87654,3.65315s1.73913,3.65315 3.87654,3.65315l28.79944,0l-21.64257,18.76494c-0.49481,0.42884 -0.52644,1.15427 -0.07138,1.6198c0.2401,0.24614 0.56781,0.36998 0.89552,0.36998c0.29445,0 0.58971,-0.10014 0.82333,-0.30271l21.89808,-18.98509l0,18.14117c0,0.63294 0.5451,1.14663 1.21674,1.14663s1.21674,-0.51369 1.21674,-1.14663l0,-18.14117l21.8989,18.98509c0.23361,0.20334 0.52888,0.30271 0.82414,0.30271c0.32771,0 0.65623,-0.12384 0.89552,-0.36998c0.45587,-0.46553 0.42261,-1.19173 -0.07138,-1.6198l-21.64419,-18.76418l28.79944,0c2.13822,0 3.87654,-1.63968 3.87654,-3.65315s-1.73913,-3.65315 -3.87654,-3.65315zm-59.96097,-32.79966l56.08606,0l0,32.79966l-13.88544,0c1.69127,-2.47366 2.68575,-5.41055 2.68575,-8.56607c0,-6.51819 -4.14503,-12.30102 -10.55969,-14.73187c-1.99545,-0.75754 -4.11015,-1.14204 -6.28487,-1.14204c-8.48717,0 -15.67324,5.97622 -16.71477,13.90171c-0.08517,0.64823 -0.12897,1.31174 -0.12897,1.9722c0,3.15475 0.99367,6.09165 2.68575,8.56607l-13.88382,0l0,-32.79966zm-3.87735,37.81271c-0.79575,0 -1.44305,-0.61077 -1.44305,-1.3599s0.64731,-1.3599 1.44305,-1.3599l19.6682,0c1.05207,1.05413 2.2534,1.96761 3.57478,2.72056l-23.24299,0l0,-0.00076zm31.91916,0c-7.94532,0 -14.41026,-6.09165 -14.41026,-13.57913c0,-0.56643 0.03731,-1.1344 0.11032,-1.68936c0.89147,-6.77886 7.03844,-11.89053 14.29995,-11.89053c1.86161,0 3.66969,0.32794 5.37637,0.9754c5.48831,2.07998 9.0347,7.0273 9.0347,12.60449c0,7.48824 -6.46495,13.57913 -14.41107,13.57913zm31.91916,0l-23.24299,0c1.32057,-0.75219 2.5219,-1.66643 3.57478,-2.72056l19.6682,0c0.79575,0 1.44305,0.61077 1.44305,1.3599s-0.64731,1.36066 -1.44305,1.36066z"/>
 </g>
</svg>