<svg xmlns="http://www.w3.org/2000/svg" width='100%' height='100%' viewBox='-5 -5 85 85' preserveAspectRatio='none'>
 <g  id="svg_4">
 <circle  id="svg_2" r="13.55796" cy="14.09342" cx="37.83333"/>
   <path  id="svg_3" d="m37.83333,29.30962c-15.61518,0 -28.27367,8.76922 -28.27367,19.58648c0,5.42214 3.19199,10.32203 8.33169,13.86885l0,3.58529l0.28023,0.09168c0.16422,0.05321 16.42646,5.34683 19.42155,7.54957l0.2402,0.17517l0.2402,-0.17599c2.99428,-2.20192 19.25734,-7.49636 19.42155,-7.54957l0.28023,-0.09168l0,-3.58529c5.1397,-3.546 8.33169,-8.44589 8.33169,-13.86885c0,-10.81644 -12.65849,-19.58566 -28.27367,-19.58566zm19.1307,21.46835c-2.62091,0.20791 -4.68382,2.3992 -4.68382,5.07834s2.06291,4.87043 4.68382,5.07834l0,4.82459c-2.2018,0.72115 -15.75325,5.20112 -19.1307,7.4096c-3.37745,-2.20847 -16.92891,-6.68845 -19.1307,-7.4096l0,-4.82459c2.62091,-0.20791 4.68382,-2.3992 4.68382,-5.07834s-2.06291,-4.87125 -4.68382,-5.07834l0,-10.82872l19.1307,7.1141l19.1307,-7.1141l0,10.82872z"/>       </g>
  </svg>