<svg xmlns="http://www.w3.org/2000/svg" width='100%' height='100%' viewBox='-5 -5 85 85' preserveAspectRatio='none'>
 <g>
 <path  id="svg_2" d="m72.19329,37.90274l-20.76609,0l0,-9.27564c0,-0.61508 -0.24447,-1.2046 -0.67517,-1.63911l-11.53936,-11.59496c-0.21002,-0.21025 -0.45038,-0.3669 -0.70634,-0.47986l0,-3.6781l9.45971,0l0,-5.79707l-11.30555,0l0,9.47435c-0.25678,0.11296 -0.49797,0.26961 -0.70798,0.48068l-11.53772,11.59414c-0.43234,0.43451 -0.67599,1.02568 -0.67599,1.63911l0,9.27564l-20.76445,0c-1.27486,0.00082 -2.30771,1.03722 -2.30771,2.31932l0,23.1891c0,1.28045 1.03285,2.31932 2.30771,2.31932l69.21892,0c1.27486,0 2.30771,-1.03887 2.30771,-2.31932l0,-23.1891c-0.00082,-1.2821 -1.03449,-2.3185 -2.30771,-2.3185zm-59.98973,23.1891l-6.9223,0l0,-6.95714l6.9223,0l0,6.95714zm0,-11.59496l-6.9223,0l0,-6.95714l6.9223,0l0,6.95714zm11.53608,11.59496l-6.9223,0l0,-6.95714l6.9223,0l0,6.95714zm0,-11.59496l-6.9223,0l0,-6.95714l6.9223,0l0,6.95714zm13.84378,-24.57921c2.03945,0 3.69168,1.66137 3.69168,3.71026s-1.65223,3.71026 -3.69168,3.71026s-3.69168,-1.66137 -3.69168,-3.71026c0,-2.04889 1.65141,-3.71026 3.69168,-3.71026zm5.33242,36.17418l-10.66484,0l0,-10.71852c0,-2.95996 2.38728,-5.35843 5.3316,-5.35843s5.33324,2.39847 5.33324,5.35843l0,10.71852zm15.43367,0l-6.9223,0l0,-6.95714l6.9223,0l0,6.95714zm0,-11.59496l-6.9223,0l0,-6.95714l6.9223,0l0,6.95714zm11.53608,11.59496l-6.9223,0l0,-6.95714l6.9223,0l0,6.95714zm0,-11.59496l-6.9223,0l0,-6.95714l6.9223,0l0,6.95714z"/>
     </g>
</svg>