<svg xmlns="http://www.w3.org/2000/svg" width='100%' height='100%' viewBox='-5 -5 85 85' preserveAspectRatio='none'>
 <g>
<path  id="svg_1" d="m52.85788,0.66673l-30.21539,0c-2.19221,0 -3.97571,1.83179 -3.97571,4.08335l0,65.33355c0,2.25156 1.7835,4.08335 3.97571,4.08335l30.21539,0c2.19221,0 3.97571,-1.83179 3.97571,-4.08335l0,-65.33355c0,-2.25156 -1.7835,-4.08335 -3.97571,-4.08335zm-15.1077,71.05024c-1.31755,0 -2.38543,-1.09679 -2.38543,-2.45001s1.06788,-2.45001 2.38543,-2.45001s2.38543,1.09679 2.38543,2.45001s-1.06788,2.45001 -2.38543,2.45001zm14.31255,-8.16669c0,0.44917 -0.35781,0.81667 -0.79514,0.81667l-27.03482,0c-0.43733,0 -0.79514,-0.3675 -0.79514,-0.81667l0,-52.26684c0,-0.44917 0.35781,-0.81667 0.79514,-0.81667l27.03482,0c0.43733,0 0.79514,0.3675 0.79514,0.81667l0,52.26684z" />
      </g>
   </svg>