<svg xmlns="http://www.w3.org/2000/svg" width='100%' height='100%' viewBox='-5 -5 85 85 ' preserveAspectRatio='none'>
<g >
    <path id="svg_2" d="m14.66667,3.02315l0,68.78703c0,1.13296 0.86778,2.02315 1.97222,2.02315l43.38889,0c1.10444,0 1.97222,-0.89019 1.97222,-2.02315l0,-68.78703c0,-1.13296 -0.86778,-2.02315 -1.97222,-2.02315l-43.38889,0c-1.10444,0 -1.97222,0.89019 -1.97222,2.02315zm23.27222,68.3824l0,0c-1.10444,0 -1.97222,-0.89019 -1.97222,-2.02315l0,0c0,-1.13296 0.86778,-2.02315 1.97222,-2.02315l0,0c1.10444,0 1.97222,0.89019 1.97222,2.02315l0,0c0,1.13296 -0.86778,2.02315 -1.97222,2.02315zm20.51111,-5.66481l-40.23333,0c-1.10444,0 -1.97222,-0.89019 -1.97222,-2.02315l0,-59.07592c0,-1.13296 0.86778,-2.02315 1.97222,-2.02315l40.23333,0c1.10444,0 1.97222,0.89019 1.97222,2.02315l0,59.07592c0,1.13296 -0.86778,2.02315 -1.97222,2.02315z"/>
  </g>
</svg>