<svg xmlns="http://www.w3.org/2000/svg" width='100%' height='100%' viewBox='-5 -5 85 85 ' preserveAspectRatio='none'>
 <g>
 <path  id="svg_2" d="m54.44727,60.8915c-0.54222,-4.21679 -6.72592,-44.93501 -6.90991,-46.39207c-0.12306,-0.97056 -0.94553,-1.69971 -1.91908,-1.69971l-4.44739,0l-4.44739,0c-0.97355,0 -1.79601,0.72915 -1.91908,1.69971c-0.18521,1.45707 -6.36891,42.17528 -6.90991,46.39207c-0.08773,0.68013 0.09017,1.15806 0.58486,1.65191c3.21065,3.19599 9.22864,9.23381 11.65948,11.66511c0.28634,0.28553 0.65797,0.43013 1.03204,0.43381c0.37407,-0.00368 0.7457,-0.14828 1.03204,-0.43381c2.43205,-2.4313 8.44882,-8.46912 11.65948,-11.66511c0.4947,-0.49508 0.67259,-0.97179 0.58486,-1.65191z" />
   <path  id="svg_3" d="m32.4004,0.35767c-0.50932,0 -0.86511,0.50979 -0.68965,0.99139c0.64213,1.76466 2.01899,5.44592 2.80125,7.45812c0.09626,0.24754 0.51663,0.52204 0.78835,0.5245c3.89055,0.03431 7.78233,0.03676 11.6741,-0.0049c0.28268,-0.00245 0.70062,-0.34068 0.81881,-0.62253c0.52881,-1.26344 0.97112,-2.56488 1.44753,-3.85038c0.4289,-1.15683 0.85902,-2.31243 1.30132,-3.49745c0.17911,-0.48283 -0.17424,-0.99752 -0.68721,-0.99752l-17.45449,0l0,-0.00123z" />
   <path  id="svg_4" d="m29.99637,16.1109c0.92116,0.35538 0.98452,0.95953 0.85049,1.80755c-1.05275,6.66158 -2.06042,13.33173 -3.06687,20.00066c-0.26319,1.74015 -1.56329,2.77811 -2.61482,3.97783c-0.18764,0.21445 -0.62507,0.25244 -0.95528,0.29043c-2.01168,0.22793 -4.0258,0.43871 -6.04114,0.64214c-1.26598,0.12867 -1.87522,-0.36028 -2.01412,-1.62005c-0.22542,-2.05509 -0.46545,-4.11018 -0.62385,-6.17139c-0.03777,-0.48528 0.08286,-1.10904 0.37285,-1.473c4.61554,-5.79518 9.27129,-11.55727 13.91972,-17.32672c0.03777,-0.04657 0.0987,-0.07353 0.17302,-0.12745z" />
 </g>
</svg>