<svg xmlns="http://www.w3.org/2000/svg" width='100%' height='100%' viewBox='-5 -5 85 85' preserveAspectRatio='none'>
 <g>
   <path  d="m52.30993,9.20118c0,-3.33652 -2.64084,-6.05316 -5.88873,-6.05316l-18.51034,0c-3.24626,0 -5.8871,2.7158 -5.8871,6.05316l0,8.34508l-4.21101,0l0,50.97268l38.70655,0l0,-50.97268l-4.20938,0l0,-8.34508zm-25.66693,0c0,-0.71958 0.56875,-1.30345 1.26786,-1.30345l18.51115,0c0.69912,0 1.26868,0.58387 1.26868,1.30345l0,8.34508l-21.04688,0l0,-8.34508l-0.00081,0z" id="svg_1"/>
   <path  id="svg_3" d="m0.50021,22.73744l0,40.59033c0,2.86658 2.26032,5.19034 5.04864,5.19034l7.2723,0l0,-50.97184l-7.2723,0c-2.78833,0 -5.04864,2.32376 -5.04864,5.19117z"/>
   <path stroke="#000" id="svg_4"  d="m68.78402,17.54626l-7.2723,0l0,50.97268l7.2723,0c2.78833,0 5.05027,-2.32376 5.05027,-5.19034l0,-40.59117c0,-2.86742 -2.26195,-5.19117 -5.05027,-5.19117z"/>
    </g>
 </svg>