<svg xmlns="http://www.w3.org/2000/svg" width='100%' height='100%' viewBox='-5 -5 85 85' preserveAspectRatio='none'>
 <g>
  <path  d="m16.20103,59.35856l-14.35867,14.38958l72.16619,0l0,-72.33286l-57.80752,57.94328zm33.84183,-31.79701c0.52142,-0.51421 1.3456,-0.51421 1.86141,0l3.25187,3.25669c0.51581,0.51421 0.52142,1.34876 0.00561,1.86297c-0.25791,0.2557 -0.59711,0.38496 -0.93071,0.38496c-0.3392,0 -0.6728,-0.12926 -0.9251,-0.38496l-3.26308,-3.25669c-0.51301,-0.51421 -0.51301,-1.34595 0,-1.86297zm-4.48814,4.50711c0.51581,-0.51421 1.3456,-0.51421 1.85581,0l6.04399,6.05256c0.51581,0.51421 0.51581,1.34876 0.00561,1.85735c-0.25791,0.25851 -0.59711,0.39058 -0.93631,0.39058s-0.6728,-0.12926 -0.9251,-0.38496l-6.04399,-6.05256c-0.51581,-0.51421 -0.51581,-1.34876 0,-1.86297zm-4.49655,4.49868c0.51581,-0.51421 1.3456,-0.51421 1.86141,0l3.25187,3.26231c0.51581,0.51421 0.51021,1.34876 -0.00561,1.86297c-0.25791,0.25851 -0.5915,0.38777 -0.9251,0.38777c-0.3392,0 -0.6728,-0.12926 -0.93071,-0.38777l-3.25187,-3.2595c-0.51301,-0.51421 -0.51301,-1.35157 0,-1.86578zm-4.48814,4.5043c0.51581,-0.51421 1.3456,-0.50859 1.86141,0.00562l3.24626,3.25669c0.51301,0.51702 0.51301,1.34876 0,1.86297c-0.25791,0.25851 -0.59431,0.38777 -0.93071,0.38777c-0.3336,0 -0.6728,-0.12926 -0.93071,-0.38777l-3.24626,-3.26231c-0.51301,-0.51702 -0.51301,-1.34876 0,-1.86297zm-4.49374,4.50711c0.51301,-0.51702 1.3428,-0.51702 1.85861,0l6.03838,6.04975c0.51581,0.51702 0.51581,1.35157 0,1.86859c-0.25791,0.25851 -0.5915,0.38777 -0.9251,0.38777c-0.3392,0 -0.67841,-0.12926 -0.93631,-0.38777l-6.03558,-6.05537c-0.51301,-0.51702 -0.51301,-1.34876 0,-1.86297zm-5.58144,21.41999c-0.2551,0.26132 -0.59431,0.39058 -0.93071,0.39058c-0.3336,0 -0.66719,-0.12645 -0.9251,-0.38496l-6.03838,-6.04975c-0.51581,-0.51421 -0.51581,-1.34595 0,-1.86297s1.3428,-0.51702 1.85581,0l6.03838,6.04975c0.51301,0.5114 0.51301,1.34314 0,1.85735zm1.71003,-7.29735c-0.26071,0.26132 -0.59991,0.39058 -0.93351,0.39058c-0.3364,0 -0.6728,-0.12645 -0.9251,-0.38496l-3.25747,-3.26231c-0.51581,-0.51421 -0.51581,-1.34595 0,-1.85454c0.51581,-0.51983 1.3456,-0.52545 1.86141,-0.00843l3.25467,3.26512c0.51301,0.50578 0.51301,1.34033 0,1.85454zm4.48814,-4.50149c-0.25791,0.25851 -0.5915,0.38777 -0.93071,0.38777c-0.3336,0 -0.67,-0.12926 -0.9279,-0.38777l-3.24906,-3.2595c-0.51581,-0.51702 -0.51581,-1.34876 0,-1.86578s1.3456,-0.5114 1.85861,0.00562l3.24906,3.26231c0.51301,0.51421 0.51301,1.34876 0,1.85735zm27.29605,4.49868l-24.30489,0l24.30489,-24.36197l0,24.36197zm-0.3364,-31.51883c-0.2523,0.25851 -0.5915,0.38777 -0.9251,0.38777c-0.3392,0 -0.67841,-0.12926 -0.93631,-0.38777l-3.25187,-3.25669c-0.51581,-0.51421 -0.51581,-1.34595 0,-1.86297c0.51021,-0.51421 1.3428,-0.51421 1.85581,0l3.25187,3.25669c0.51581,0.51702 0.51862,1.34876 0.00561,1.86297zm7.27745,-1.70843c-0.25791,0.25851 -0.59711,0.38496 -0.93071,0.38496s-0.6728,-0.12645 -0.9251,-0.38496l-6.03838,-6.05256c-0.51581,-0.51421 -0.51581,-1.35157 0,-1.86578s1.35121,-0.50859 1.86141,0.00562l6.03838,6.05256c0.51301,0.51421 0.5074,1.34876 -0.00561,1.86016z"  />
 </g>
</svg>