<svg xmlns="http://www.w3.org/2000/svg" width='100%' height='100%' viewBox='-5 -5 85 85' preserveAspectRatio='none'>
 <g>
   <path  id="svg_1" d="m56.79973,19.29689a5.20176,4.72782 0 0 1 -0.19185,0.49196l0.00861,-0.01957a3.96438,3.60317 0 0 1 -0.44424,0.69654a3.75487,3.41276 0 0 1 -0.58442,0.53618a4.46992,4.06266 0 0 1 -0.88434,0.46481a7.24772,6.58736 0 0 1 -1.64115,0.38232a14.44747,13.13113 0 0 1 -1.64684,0.08985a16.36555,14.87444 0 0 1 -2.08789,-0.08961a29.7897,27.07549 0 0 1 -4.4409,-1.0701c-0.80391,-0.22696 -1.60946,-0.44203 -2.43017,-0.61202c-0.8294,-0.17148 -1.66845,-0.30241 -2.5106,-0.40697a47.76385,43.41197 0 0 0 -5.2871,-0.37261a23.64469,21.49037 0 0 0 -3.50559,0.10276a24.15782,21.95674 0 0 0 -6.42606,1.56809a30.85616,28.04478 0 0 0 -6.13476,3.12037a29.10048,26.44907 0 0 0 -5.18669,4.31482a25.3419,23.03294 0 0 0 -2.08384,2.56704a20.57611,18.70137 0 0 0 -1.56572,2.74994a14.60556,13.27482 0 0 0 -0.92257,2.71081a13.00979,11.82444 0 0 0 -0.20615,2.94959a12.68654,11.53064 0 0 0 2.11656,5.62135a14.48079,13.16141 0 0 0 1.4933,1.69832l0.00396,-0.00219a18.36328,16.69016 0 0 1 -0.8939,-1.65026l0.0149,0.03287a15.22099,13.83417 0 0 1 -1.04192,-3.42653a14.69589,13.35692 0 0 1 0.01869,-3.32111a18.17229,16.51657 0 0 1 1.17591,-3.8767a20.7274,18.83888 0 0 1 2.5633,-3.93407a27.72911,25.20264 0 0 1 4.73092,-4.26794a29.72933,27.02062 0 0 1 6.35976,-3.39937a23.92205,21.74246 0 0 1 5.77534,-1.48309q0.6794,-0.07748 1.36345,-0.1109c0.61447,-0.02966 1.22826,-0.01878 1.84351,-0.00509a49.25147,44.76405 0 0 1 5.01413,0.32487c0.80521,0.10174 1.60654,0.22923 2.40141,0.38701c0.82544,0.16435 1.63607,0.37473 2.44214,0.60341c0.76577,0.21773 1.52671,0.44563 2.306,0.62219a14.18217,12.89 0 0 0 2.51215,0.36001a11.54008,10.48864 0 0 0 2.31315,-0.11646a12.86341,11.69139 0 0 0 1.58002,-0.28363a6.77325,6.15613 0 0 0 2.9191,-1.36961a3.73662,3.39617 0 0 0 0.87719,-1.13944a3.84047,3.49055 0 0 0 0.28812,-1.43754l-0.00258,-0.00203l-0.00215,0.00133l-0.00017,0.00039zm-37.85045,6.94823q-0.06243,0.04484 -0.12563,0.08906q0.06269,-0.04469 0.12563,-0.08906zm-8.61711,12.22343q-0.00715,0.04751 -0.01464,0.09509l0.01464,-0.09509z"/>
   <path  id="svg_3" d="m43.26648,21.88788c0.01429,0.07959 0.02704,0.15919 0.03978,0.23878l-0.00241,-0.01229a8.09331,7.35591 0 0 1 0.01421,1.90313a7.63314,6.93767 0 0 1 -0.48462,1.59611a10.90554,9.91191 0 0 1 -1.34485,2.02366c-0.77498,0.89471 -1.65088,1.71444 -2.5031,2.54748c-0.40273,0.39359 -0.81029,0.7799 -1.23463,1.15392c-0.40833,0.36001 -0.82148,0.71627 -1.21414,1.09029a8.70907,7.91557 0 0 0 -1.55935,1.91573a4.43376,4.02979 0 0 0 -0.45689,2.27676l0.00474,0.0007a4.6963,4.26841 0 0 1 0.24016,-0.67925a4.52167,4.10969 0 0 1 0.55058,-0.84165a6.60026,5.9989 0 0 1 1.11554,-0.97422c0.76026,-0.52225 1.58802,-0.95693 2.3742,-1.44498a15.09604,13.72061 0 0 0 1.3675,-0.95568a10.196,9.26702 0 0 0 1.42726,-1.30152c-0.05494,0.06512 -0.11065,0.13023 -0.16559,0.19566a13.68084,12.43435 0 0 0 1.33331,-1.55838a10.33524,9.39357 0 0 0 0.94401,-1.67124a7.04217,6.40054 0 0 0 0.41332,-3.46253a6.70497,6.09406 0 0 0 -0.85412,-2.04166l-0.00198,-0.00141l-0.00276,0.00282l-0.00017,-0.00023zm-6.88218,12.27195l-0.0316,0.02191l0.0316,-0.02191z"/>
   <path  id="svg_4" d="m37.6235,21.1893a13.29671,12.08521 0 0 1 -0.6205,1.73103l0.00913,-0.01925l-0.01111,0.02348l-0.01912,0.04164l0.01309,-0.02888a9.18405,8.34727 0 0 1 -1.11666,1.75717a8.04061,7.30801 0 0 1 -1.28862,1.16863a9.65283,8.77334 0 0 1 -1.94667,1.01038a16.73237,15.20785 0 0 1 -2.44136,0.68817c-0.93532,0.20184 -1.88329,0.36244 -2.83299,0.49306c-0.19624,0.02731 -0.39249,0.05275 -0.58916,0.0774c-1.92023,0.229 -3.8533,0.36346 -5.77318,0.59684c-1.01247,0.12225 -2.02262,0.26117 -3.01761,0.47169a14.77391,13.42782 0 0 0 -2.79949,0.86168a10.50815,9.55073 0 0 0 -3.17174,2.021a10.02611,9.11261 0 0 0 -1.18925,1.36085a9.08382,8.25617 0 0 0 -0.83422,1.53303a10.30915,9.36986 0 0 0 -0.63996,3.14619a11.58606,10.53043 0 0 0 0.47997,3.22093a15.40827,14.00439 0 0 0 2.25744,4.10351l0.00474,-0.00219a17.35399,15.77283 0 0 1 -0.78204,-2.99593l0.00276,0.01957l-0.00336,-0.02348l-0.01498,-0.09822l0.01188,0.07693a19.02029,17.28731 0 0 1 -0.05864,-4.32014a11.65288,10.59116 0 0 1 0.73572,-2.49418a9.72172,8.83595 0 0 1 1.09617,-1.72227a8.54107,7.76288 0 0 1 1.3154,-1.19054a9.9239,9.01971 0 0 1 1.97551,-1.03644a17.77455,16.15507 0 0 1 4.2556,-0.93188c1.91679,-0.22743 3.84675,-0.33841 5.76759,-0.53689c1.0619,-0.10957 2.12853,-0.2315 3.17527,-0.43045a15.34937,13.95086 0 0 0 2.89103,-0.83632a8.57121,7.79027 0 0 0 4.1607,-3.23682a8.93201,8.11819 0 0 0 1.00377,-4.49858l-0.00258,-0.00203l-0.00215,0.00133l-0.00034,0zm-26.34903,16.75199l-0.01016,0.07044l0.01016,-0.07044zm0.03884,4.50516l0.0006,0.00368l-0.0037,-0.02504l0.0031,0.02137zm25.64294,-24.01429l0.00603,-0.01276l0.00198,-0.00423l-0.00801,0.01698z"/>
   <path  id="svg_5" d="m36.47394,21.08834c-1.90215,0.78029 -3.71638,1.72657 -5.63584,2.47266a20.6363,18.75608 0 0 1 -2.12991,0.69107a16.59908,15.0867 0 0 1 -2.32228,0.42943a41.94313,38.12159 0 0 0 -4.82504,0.65937a13.30842,12.09586 0 0 0 -3.64801,1.37963a11.6466,10.58545 0 0 0 -4.82693,5.13737c-0.11384,0.26555 -0.21174,0.5361 -0.29932,0.81026l0.00474,0.00141a11.56936,10.51525 0 0 1 0.67113,-0.885l-0.0025,0.00313a10.78086,9.79859 0 0 1 1.88131,-1.71037a13.49329,12.26389 0 0 1 2.80991,-1.46353a21.27876,19.34 0 0 1 3.37746,-0.95341c1.48297,-0.3075 2.99453,-0.45722 4.48783,-0.71337a15.42283,14.01762 0 0 0 2.29489,-0.54698a13.33416,12.11926 0 0 0 2.31797,-0.99262a23.65158,21.49663 0 0 0 3.59867,-2.46921c0.75698,-0.60842 1.49485,-1.2357 2.24951,-1.84631l-0.00241,-0.00376l-0.00121,0.00023zm-21.14693,8.99858l-0.0663,0.0461l0.0663,-0.0461z"/>
   <path  id="svg_6" d="m38.7188,21.09029a5.98579,5.44041 0 0 1 -0.031,1.07221l0.00396,-0.02348l-0.0056,0.03522l-0.00232,0.0162l0.00181,-0.01307a5.08371,4.62052 0 0 1 -0.31938,1.05656a6.03771,5.4876 0 0 1 -0.70609,1.08348c-1.08317,1.25668 -2.55098,2.18645 -3.74032,3.3539c-0.26556,0.26015 -0.51416,0.53368 -0.74975,0.8166a5.15242,4.68297 0 0 0 -0.48962,0.64912a6.52707,5.93237 0 0 0 -0.31206,0.53681a6.65623,6.04977 0 0 0 -0.5182,1.36961a6.17678,5.614 0 0 0 -0.11306,1.50407a7.29533,6.63064 0 0 0 0.36932,1.72328a5.1011,4.63633 0 0 0 1.41133,1.9389a7.316,6.64942 0 0 0 2.28447,1.19007l0.00319,-0.0036a8.89094,8.08086 0 0 1 -1.30025,-1.18483a5.51598,5.0134 0 0 1 -0.6317,-0.96898a5.2592,4.78002 0 0 1 -0.32721,-1.08692a7.89198,7.17293 0 0 1 0.01791,-1.66365a6.45439,5.86632 0 0 1 0.38362,-1.27992a11.00328,10.00074 0 0 1 1.34046,-1.94806c0.53052,-0.61421 1.09359,-1.20307 1.63108,-1.8118a13.57415,12.33738 0 0 0 1.59121,-2.12094a6.03056,5.4811 0 0 0 0.67423,-2.1002a4.90968,4.46235 0 0 0 -0.46172,-2.14074l-0.00215,-0.00133l-0.00267,0.00203l0.00052,-0.00055zm-5.13494,11.26157l-0.00956,0.06723l0.00956,-0.06723zm5.10162,-10.17488l0.00052,-0.00313l0.00164,-0.01143l-0.00215,0.01456z"/>
   <path  id="svg_7" d="m40.85543,21.43872a4.18094,3.80001 0 0 1 -0.00103,0.95192a4.94008,4.48998 0 0 1 -0.32127,1.05116a9.48113,8.61728 0 0 1 -1.20622,1.78895c-1.14861,1.34151 -2.48313,2.54106 -3.58102,3.91944a10.35031,9.40727 0 0 0 -2.14205,4.43754a4.34704,3.95098 0 0 0 0.23327,1.75952a4.58393,4.16628 0 0 0 1.18202,1.58437l0.00396,-0.0029c-0.04882,-0.09008 -0.09532,-0.18149 -0.13907,-0.27392l0.0006,0.00157l-0.00396,-0.00869l-0.00241,-0.00509l0.0006,0.00117a4.59013,4.17191 0 0 1 -0.30999,-0.98612a4.35626,3.95935 0 0 1 0.0006,-0.9448a5.21382,4.73878 0 0 1 0.32842,-1.05789a12.08636,10.98514 0 0 1 1.55126,-2.24186c0.58718,-0.68661 1.19898,-1.35451 1.77591,-2.0487a26.80843,24.36585 0 0 0 1.5578,-2.06616a13.05758,11.86787 0 0 0 1.18366,-2.23622a6.0018,5.45496 0 0 0 0.36381,-2.11906a3.94733,3.58768 0 0 0 -0.47041,-1.50555l-0.00215,-0.00133l-0.00267,0.00203l0.00034,0.00063zm-0.32635,2.01075l-0.02187,0.04837l0.02187,-0.04837zm-1.24488,1.83137l-0.03548,0.04195l0.03548,-0.04195zm-4.40353,11.36746l0.00336,0.00712l-0.00517,-0.01104l0.00181,0.00391z"/>
   <path  id="svg_8" d="m22.23994,29.89869c-0.0279,0.07451 -0.0589,0.1476 -0.09153,0.21992l0,0a4.27532,3.88578 0 0 1 -0.52802,0.81543a7.02125,6.38153 0 0 1 -1.20975,1.06548c-0.90001,0.62454 -1.89251,1.12762 -2.84332,1.68313a20.31839,18.46713 0 0 0 -2.92134,2.11687a13.7344,12.48303 0 0 0 -2.68333,3.07763a8.98118,8.16288 0 0 0 -0.81984,1.85211a7.58785,6.8965 0 0 0 -0.2157,1.88967a4.91683,4.46884 0 0 0 0.80555,2.50318a4.89177,4.44607 0 0 0 2.25985,1.46721l0.00241,-0.0036a5.95995,5.41693 0 0 1 -0.90216,-0.81785l0.02497,0.02857a4.20135,3.81855 0 0 1 -0.52001,-0.78874a3.71294,3.37464 0 0 1 -0.22027,-0.73356a5.20831,4.73377 0 0 1 0.01834,-1.09702a8.66042,7.87135 0 0 1 0.51665,-1.75428a11.6026,10.54546 0 0 1 1.39393,-2.07688c0.80391,-0.93337 1.68662,-1.81188 2.56605,-2.68561c0.39007,-0.38709 0.77447,-0.78209 1.18202,-1.1547c0.39085,-0.35743 0.79677,-0.7003 1.1964,-1.04975a15.15985,13.7786 0 0 0 2.06963,-2.12986a4.7639,4.32985 0 0 0 0.92412,-2.42617l-0.00232,-0.00227l-0.00241,0.00157l0.00009,-0.00047zm-7.83894,9.33417l-0.03685,0.04367l0.03685,-0.04367z"/>
   <path  id="svg_9" d="m16.60892,35.77605a6.99206,6.35499 0 0 0 -0.59226,0.65984a9.224,8.38358 0 0 0 -0.53336,0.72566a7.00782,6.36932 0 0 0 -0.85015,2.04745a7.76704,7.05937 0 0 0 -0.0533,2.24781a6.1692,5.60711 0 0 0 1.31024,2.65008l0.00396,-0.00219a12.7866,11.62158 0 0 1 -0.3608,-1.41242a7.27277,6.61013 0 0 1 0.01412,-1.67171c0.06553,-0.422 0.15569,-0.84071 0.25919,-1.25668c0.10901,-0.43695 0.22285,-0.87178 0.35821,-1.30301a21.40844,19.45787 0 0 1 0.85541,-2.1686a4.65945,4.23492 0 0 1 0.51442,-0.86137a1.94779,1.77032 0 0 1 0.32566,-0.30382l-0.00861,0.0065a1.80054,1.63649 0 0 1 0.15439,-0.09392l-0.00155,-0.0043a2.33003,2.11773 0 0 0 -1.39497,0.74084l-0.0006,-0.00016z"/>
   <path  id="svg_10" d="m22.56586,29.82254a8.62331,7.83762 0 0 0 -1.65484,3.27877a30.29051,27.53067 0 0 1 -1.06896,3.47537q-0.06208,0.12851 -0.12787,0.25553a4.97521,4.52191 0 0 0 -0.24179,0.45542a15.25121,13.86164 0 0 1 -1.34012,1.8561a13.41235,12.19032 0 0 0 -1.86555,2.42899a4.48396,4.07541 0 0 0 -0.39963,1.38112a3.6884,3.35234 0 0 0 0.24197,1.40788l0.0056,-0.0007a4.83606,4.39543 0 0 1 0.03978,-0.44782l-0.00146,0.0126a3.98487,3.6218 0 0 1 0.24352,-0.82177a4.43987,4.03534 0 0 1 0.543,-0.83413a18.33262,16.6623 0 0 1 2.15221,-1.82698a9.11034,8.28028 0 0 0 2.09245,-2.4012l-0.00319,0.00376a1.06241,0.96561 0 0 0 0.0812,-0.13305c0.05735,-0.11356 0.10901,-0.22931 0.16163,-0.34436q0.08714,-0.18995 0.15922,-0.3856a6.35959,5.78015 0 0 0 0.22053,-0.79657a12.42442,11.2924 0 0 0 0.18625,-1.77251a33.7018,30.63115 0 0 1 0.11384,-3.22673a6.70118,6.09062 0 0 1 0.43442,-1.49483l-0.00052,0.00063c0.01111,-0.02246 0.02153,-0.04484 0.03264,-0.06731l-0.00258,-0.00368l-0.00138,0.00078l-0.00034,0.00031zm-0.46215,1.56386c-0.00293,0.02051 -0.00586,0.04093 -0.00947,0.06144l0.00947,-0.06144zm-5.68492,11.6676l-0.01722,0.03866l0.01722,-0.03866zm5.41747,-10.78573l0.00172,-0.01057l-0.00172,0.01057zm6.38688,-14.04391l0.00103,-0.00227l-0.00103,0.00227z"/>
   <path  id="svg_11" d="m20.88544,32.38692a2.33433,2.12164 0 0 1 -0.13476,0.39969l0.00663,-0.01268a5.63842,5.12469 0 0 1 -0.65271,0.96225c-0.25152,0.31305 -0.49711,0.63088 -0.7569,0.93869c-0.54094,0.63104 -1.11761,1.23586 -1.63986,1.87997a20.19043,18.35083 0 0 0 -1.34485,1.82244a3.44195,3.12835 0 0 0 -0.23129,0.38052q-0.11341,0.20943 -0.21329,0.42544a9.16769,8.3324 0 0 0 -0.39317,0.99355a7.39333,6.7197 0 0 0 -0.27305,2.08791a4.1595,3.78052 0 0 0 0.58106,1.97506a9.58342,8.71026 0 0 0 1.33969,1.28055l0.00396,-0.0029c-0.21898,-0.38114 -0.46499,-0.75133 -0.65331,-1.14586a3.27215,2.97401 0 0 1 -0.2015,-0.65131a5.3881,4.89718 0 0 1 -0.00413,-0.80009c0.01627,-0.28676 0.0465,-0.57234 0.08611,-0.85675a7.79804,7.08754 0 0 1 0.45311,-1.66858c0.10936,-0.2236 0.23138,-0.44141 0.36166,-0.65507c0.13777,-0.22454 0.31447,-0.44227 0.43623,-0.67682c0.71582,-1.03942 1.47247,-2.0552 2.11897,-3.13297a12.49047,11.35243 0 0 0 0.84533,-1.7819a3.70484,3.36729 0 0 0 0.27142,-1.76093l-0.00276,-0.00164l-0.00276,0.00164l0.00017,-0.00023zm-0.13864,0.4083l0.00379,-0.00837l-0.00379,0.00837z"/>
   <path  id="svg_12" d="m23.61424,29.88828a3.96748,3.60599 0 0 0 -1.35398,1.05844a4.36926,3.97117 0 0 0 -0.67423,1.42166a10.29115,9.3535 0 0 0 -0.23404,1.78339a12.37887,11.251 0 0 0 0.18944,2.25798a20.43541,18.57349 0 0 0 1.3532,4.08254a7.02874,6.38834 0 0 0 0.52854,0.96585a8.35783,7.59633 0 0 0 0.72995,0.88438a8.95819,8.14198 0 0 0 1.68912,1.35795a8.27741,7.52323 0 0 0 1.94701,0.90363a4.80704,4.36906 0 0 0 1.93909,0.28723a3.01993,2.74478 0 0 0 1.67164,-0.57915a2.73302,2.484 0 0 0 0.85971,-1.15251a3.40131,3.09141 0 0 0 0.09713,-1.55549l-0.00474,0a4.04032,3.6722 0 0 1 -0.26694,0.91107a3.21988,2.92651 0 0 1 -0.37027,0.57915a2.69341,2.448 0 0 1 -0.41152,0.37746a1.93539,1.75905 0 0 1 -0.93153,0.3586a2.80655,2.55084 0 0 1 -0.58253,-0.0025a3.97454,3.61241 0 0 1 -0.81993,-0.21914a7.67327,6.97414 0 0 1 -1.49365,-0.81191a10.01871,9.10588 0 0 1 -1.59905,-1.45163a7.80605,7.09482 0 0 1 -0.9063,-1.38526c-0.47739,-1.03363 -0.9472,-2.07398 -1.36836,-3.12764a18.047,16.4027 0 0 1 -0.94307,-3.28871a7.90826,7.18772 0 0 1 -0.06889,-1.7675a3.89928,3.54401 0 0 1 0.23654,-0.80791a3.98366,3.6207 0 0 1 0.49607,-0.7644l-0.00801,0.00994c0.09593,-0.11121 0.1965,-0.21757 0.3025,-0.32088l-0.00181,-0.00399l-0.00138,0l0.00026,-0.00063zm-0.96976,3.56013l0.00723,0.04774l-0.00723,-0.04774zm0.66623,-3.23033l0.00396,-0.00454l-0.00396,0.00454z"/>
   <path  id="svg_13" d="m21.98273,30.60862a5.19453,4.72124 0 0 0 -0.62722,0.97829l-0.01438,0.02849a4.19351,3.81143 0 0 0 -0.27856,0.48735a6.57727,5.978 0 0 0 -0.50865,2.28975a0.57297,0.52077 0 0 0 0.97751,0.36823a0.61999,0.5635 0 0 0 0.16714,-0.36823c0.05227,-0.41237 0.062,-0.82803 0.11702,-1.24016c0.04245,-0.25381 0.10781,-0.50128 0.16361,-0.75305c0.04374,-0.19464 0.07405,-0.39288 0.10669,-0.58964c0.04305,-0.2614 0.0818,-0.53 0.14639,-0.79132a3.72052,3.38153 0 0 1 0.30999,-0.43123l-0.0006,0.00063l0.04693,-0.05353l-0.00319,-0.0036a2.74197,2.49214 0 0 0 -0.24171,0.1271q0.02532,-0.06621 0.05451,-0.13109a1.303,1.18428 0 0 1 0.14639,-0.23346a0.83173,0.75595 0 0 1 0.10652,-0.09939l-0.00086,0.00039l0.00224,-0.00157l0.00172,-0.00133l-0.00077,0.0007c0.02049,-0.01432 0.04176,-0.02739 0.06372,-0.03976l-0.00077,-0.0043a1.16523,1.05906 0 0 0 -0.73468,0.46082l0.00103,-0.00008zm0.41108,-0.07388l-0.00939,0.01964l0.00939,-0.01964zm0.14811,0.05236l0.00258,-0.00305l-0.00258,0.00305zm0.11065,-0.39453l-0.00138,0.0011l0.00232,-0.00172l-0.00095,0.00063z"/>
   <path  id="svg_14" d="m22.5272,29.24926a2.05275,1.86572 0 0 0 -0.61137,1.22341q-0.00706,0.07474 -0.00766,0.14972c-0.05623,0.09556 -0.11254,0.19112 -0.1674,0.28723l-0.0037,0.0065a3.81816,3.47028 0 0 0 -0.52406,0.98322a0.42047,0.38216 0 0 0 0.19263,0.42974a0.42684,0.38795 0 0 0 0.57228,-0.13602a9.73127,8.84463 0 0 0 0.85971,-1.21402a3.21867,2.92541 0 0 0 0.41711,-1.45625a0.43821,0.39828 0 0 0 -0.43141,-0.38349a0.43158,0.39226 0 0 0 -0.29613,0.11012l0,-0.00016z"/>
   <path  id="svg_15" d="m30.15,33.78635a3.93122,3.57304 0 0 1 -0.50624,0.23479l0.00723,-0.00266c-0.55179,0.20748 -1.13337,0.33818 -1.6725,0.57633a2.80853,2.55264 0 0 0 -1.14938,0.90786c-0.04615,0.06081 -0.08835,0.12373 -0.12813,0.18666c-0.0446,0.07044 -0.07483,0.1505 -0.12658,0.21632a1.2522,1.13811 0 0 0 -0.11625,0.27056c-0.0223,0.06152 -0.03978,0.12444 -0.05571,0.18736a2.76186,2.51022 0 0 0 -0.06605,0.48688a2.27449,2.06725 0 0 0 0.15043,0.79148a2.63279,2.39291 0 0 0 1.14224,1.1979a3.44669,3.13265 0 0 0 0.92894,0.33137l0.00241,-0.0043c-0.05494,-0.03545 -0.10824,-0.07161 -0.16163,-0.10855l0.00379,0.00282a3.98685,3.6236 0 0 1 -0.67355,-0.60177l0.013,0.01565l-0.01438,-0.01737l-0.01826,-0.02097l0.0161,0.01831a2.92711,2.66041 0 0 1 -0.33324,-0.51349a1.89035,1.71812 0 0 1 -0.13347,-0.91764a3.00314,2.72952 0 0 1 0.16877,-0.5455a1.70565,1.55024 0 0 0 0.09713,-0.20709a4.17629,3.79578 0 0 1 0.36579,-0.55458a4.6554,4.23124 0 0 1 0.73907,-0.63652a5.65986,5.14418 0 0 0 1.5231,-1.29096l-0.00181,-0.00329l-0.00138,0.00039l0.00052,0zm-0.47575,0.22282l-0.02239,0.00837l0.02239,-0.00837zm-1.94701,4.44857l0.00138,0.00157l-0.0031,-0.0043l0.00224,0.00266l-0.00052,0.00008z"/>
   <path  id="svg_16" d="m32.17047,32.41439c-0.00637,0.09118 -0.01516,0.18087 -0.02867,0.27134l0.00241,-0.01737a3.9766,3.61429 0 0 1 -0.28166,0.9005c-0.48712,0.99661 -1.31816,1.82816 -1.6725,2.88471a4.19257,3.81057 0 0 0 -0.16636,0.94127a2.49846,2.27081 0 0 0 0.13054,0.88336a3.83461,3.48523 0 0 0 1.01393,1.23414a4.99045,4.53576 0 0 1 0.3955,0.38412a2.03674,1.85117 0 0 1 0.23448,0.36001a1.64615,1.49616 0 0 1 0.10092,0.35117l0,0c0.00319,0.02097 0.00637,0.04195 0.00792,0.06261l0.0056,0.0007a2.01616,1.83246 0 0 0 0.00861,-1.10618a8.60746,7.82322 0 0 0 -0.45638,-0.9988a2.89697,2.63302 0 0 1 -0.17162,-0.5181a2.59524,2.35878 0 0 1 0.01722,-0.45698c0.292,-1.70614 1.66828,-3.42794 0.86462,-5.17619l-0.0025,-0.00188l-0.00232,0.00188l0.00026,-0.00031zm-0.84723,5.08196l-0.00594,0.04187l0.00594,-0.04187z"/>
   <path  id="svg_17" d="m26.11553,29.57124a4.11076,3.73622 0 0 0 -1.45111,0.98534a5.21081,4.73604 0 0 0 -0.9472,1.67335a5.63894,5.12516 0 0 0 -0.13846,2.25141a8.1076,7.3689 0 0 0 0.67165,1.9353c0.10746,0.21632 0.22285,0.42904 0.34306,0.63957l0.00474,-0.0007c-0.00956,-0.65984 -0.03901,-1.3189 -0.0366,-1.97795a17.8096,16.18692 0 0 1 0.12649,-1.85985c0.02997,-0.13892 0.04305,-0.28175 0.06217,-0.42262a9.28833,8.44205 0 0 1 0.51665,-1.99173a5.04763,4.58773 0 0 1 0.63876,-0.99395l-0.01197,0.01448q0.10867,-0.12694 0.22526,-0.24958l-0.00241,-0.00376l-0.00103,0.0007zm-0.82303,1.17481l-0.0149,0.03279l0.0149,-0.03279zm-0.53646,2.0091l-0.00499,0.03569l0.00499,-0.03569zm-0.00715,0.05032l-0.01361,0.09008l0.01361,-0.09008z"/>
   <path  id="svg_18" d="m24.33428,48.35534a0.06131,0.05572 0 1 0 0.06131,-0.05572a0.06183,0.05619 0 0 0 -0.06131,0.05572z"/>
   <path  id="svg_19" d="m32.55167,11.9193a22.50444,20.454 0 0 0 -4.57463,0.96264a25.001,22.7231 0 0 0 -4.01501,1.59744a22.68363,20.61687 0 0 0 -6.06948,4.45225a28.7346,26.11652 0 0 0 -2.39116,2.86491a26.41043,24.00411 0 0 0 -1.86573,3.00148a39.43426,35.84131 0 0 0 -2.56467,6.92507q-0.41909,1.58437 -0.77688,3.1818l0.00474,0.00141c1.22662,-2.14004 2.43577,-4.28798 3.69503,-6.41283c0.61137,-1.03096 1.23058,-2.05903 1.87459,-3.07403c0.6304,-0.99262 1.26804,-1.98007 1.98524,-2.92353q0.37268,-0.49134 0.77223,-0.9653a23.38249,21.25206 0 0 1 3.91529,-3.59362a22.10274,20.08891 0 0 1 4.60434,-2.43047a22.65229,20.58838 0 0 1 5.33205,-1.37885a22.70567,20.63691 0 0 1 5.61776,0.06089a42.38832,38.52622 0 0 1 10.37511,2.74212q2.12276,0.82255 4.17784,1.78073c1.233,0.57226 2.46918,1.1612 3.63449,1.84123c0.55325,0.32268 1.09049,0.66634 1.63607,0.99982c0.58554,0.35813 1.17728,0.70828 1.77901,1.04396a22.03316,20.02567 0 0 0 3.96489,1.78989a9.56672,8.69507 0 0 0 3.31132,0.57085a5.59382,5.08415 0 0 0 2.95716,-0.76111l-0.00155,-0.0036a6.26116,5.69069 0 0 1 -0.73959,0.13391a6.00533,5.45817 0 0 1 -1.409,-0.00321a8.08435,7.34777 0 0 1 -1.93478,-0.49932a19.23599,17.48336 0 0 1 -3.49577,-1.9137c-1.16247,-0.76252 -2.28051,-1.57787 -3.44187,-2.34117q-0.78919,-0.51763 -1.6111,-0.99332c-0.55325,-0.32088 -1.12717,-0.60991 -1.70108,-0.89784q-2.01306,-1.0096 -4.09621,-1.89398a51.9013,47.17245 0 0 0 -9.40061,-3.11575a33.85172,30.76741 0 0 0 -4.96462,-0.77481c-0.7327,-0.06371 -1.46911,-0.09752 -2.20525,-0.09759a20.41586,18.55572 0 0 0 -2.37816,0.12358l0,0.00008z"/>
   <path  id="svg_20" d="m30.28666,15.77597a17.6583,16.04941 0 0 0 -3.82953,0.67134a19.69762,17.90293 0 0 0 -3.15848,1.21473a20.34026,18.48701 0 0 0 -2.71192,1.56848a18.88002,17.15982 0 0 0 -2.57191,2.08001a19.77065,17.9693 0 0 0 -2.06481,2.42617a13.82567,12.56598 0 0 0 -1.53627,2.99303c-0.43916,1.22991 -0.74183,2.49661 -1.25607,3.70492l0.00474,0.00141c1.30963,-1.54836 2.14679,-3.37136 3.43902,-4.93123a25.11897,22.83032 0 0 1 2.37256,-2.3317a33.41782,30.37304 0 0 1 2.53824,-2.00292a20.17536,18.33713 0 0 1 4.20264,-2.25845a16.46406,14.96398 0 0 1 3.85286,-0.9646a26.60659,24.1824 0 0 1 5.52751,-0.01777c0.93928,0.0731 1.87537,0.17218 2.81069,0.27635c0.83741,0.09337 1.67551,0.18079 2.51154,0.28175c1.84015,0.23526 3.66299,0.57132 5.51606,0.73137a18.75017,17.0418 0 0 0 2.92926,0.06363a9.64473,8.76598 0 0 0 2.72234,-0.47459a5.43477,4.9396 0 0 0 1.55806,-0.78623l-0.00241,-0.0036a5.67114,5.15443 0 0 1 -1.30231,0.30382a9.74996,8.86162 0 0 1 -2.43689,-0.03999a45.15638,41.04207 0 0 1 -5.62757,-1.23656c-0.86609,-0.21632 -1.73605,-0.42325 -2.61884,-0.57132c-0.54249,-0.09118 -1.09049,-0.14541 -1.63736,-0.20622c-0.61051,-0.06731 -1.22189,-0.13673 -1.8324,-0.20403a45.33118,41.20095 0 0 0 -5.39422,-0.364c-0.66838,0 -1.33676,0.02348 -2.00453,0.07678l0,-0.00055zm9.91736,2.68499l0.1054,0.01315l-0.1054,-0.01315z"/>
   <path  id="svg_21" d="m34.17836,5.69892a33.37046,30.33 0 0 0 -5.7805,0.62509a26.02699,23.65561 0 0 0 -9.11034,3.53195a31.54977,28.67519 0 0 0 -7.08514,6.0475a44.9095,40.81769 0 0 0 -5.22734,7.69197a27.69862,25.17494 0 0 0 -1.20906,2.64867a26.05127,23.67768 0 0 0 -0.78488,2.5582a40.31085,36.63803 0 0 0 -0.80555,5.46365c-0.09868,1.28407 -0.14725,2.57182 -0.32997,3.84869a12.28536,11.16601 0 0 1 -0.73442,2.67215a6.86289,6.2376 0 0 1 -0.66683,1.10453l0.00396,0.00219a8.52368,7.74707 0 0 0 2.36972,-3.19699a25.88999,23.53109 0 0 0 1.20553,-3.86622c0.37027,-1.54179 0.66149,-3.09861 1.00377,-4.64541a26.98538,24.52668 0 0 1 1.47694,-4.51752a42.57621,38.69699 0 0 1 2.39676,-4.2184a41.23351,37.47663 0 0 1 2.82696,-3.82255a32.27472,29.33409 0 0 1 5.47507,-5.03234a26.24605,23.85471 0 0 1 5.45932,-2.91805a26.24011,23.84931 0 0 1 6.37035,-1.55016a34.82983,31.6564 0 0 1 8.83066,0.01354a36.48838,33.16384 0 0 1 8.89507,2.20789a36.63847,33.30025 0 0 1 4.20565,1.93632a40.71014,37.00094 0 0 1 4.05023,2.51124c1.32298,0.94018 2.57225,1.95408 3.81179,2.98426q0.96115,0.79868 1.90241,1.61771c0.57392,0.49846 1.1518,0.99692 1.69471,1.52363a17.75492,16.13723 0 0 0 2.6618,2.3166a4.19351,3.81143 0 0 0 1.5745,0.64098a2.60428,2.367 0 0 0 1.60318,-0.18306l-0.00155,-0.0043a2.89085,2.62746 0 0 1 -0.70308,0.00587a2.7945,2.53988 0 0 1 -0.61568,-0.15653a3.54339,3.22054 0 0 1 -0.63876,-0.34984a6.0973,5.54176 0 0 1 -0.94548,-0.89745a20.59548,18.71898 0 0 1 -1.12803,-1.57036c-0.36855,-0.55418 -0.75061,-1.09029 -1.1741,-1.61113a29.84437,27.12518 0 0 0 -4.04919,-4.07894a47.89387,43.53015 0 0 0 -4.80067,-3.42638a36.31763,33.00864 0 0 0 -4.96781,-2.61244a36.67575,33.33414 0 0 0 -11.33445,-3.03842a34.40265,31.26814 0 0 0 -4.56326,-0.2733q-0.58141,0 -1.16247,0.01722l0.00017,-0.00008zm-30.31169,32.27594q-0.00973,0.06566 -0.01989,0.1314l0.01989,-0.1314z"/>
   <path  id="svg_22" d="m19.54524,18.2174a20.4497,18.58648 0 0 0 -6.50485,4.30394a23.5752,21.42721 0 0 0 -2.5329,3.01181a32.92122,29.92169 0 0 0 -1.90801,3.23033a37.64956,34.21922 0 0 0 -1.65088,3.72785c-0.45767,1.22631 -0.87237,2.4653 -1.33409,3.69114c-0.27856,0.73724 -0.57633,1.46861 -0.90983,2.18707l0.0006,-0.00117a22.12538,20.10949 0 0 1 -1.39118,2.50146l0.00396,0.0029a27.37408,24.87996 0 0 0 4.60244,-6.45408c0.62489,-1.15251 1.2187,-2.31942 1.83163,-3.47772c0.59062,-1.11486 1.2187,-2.21165 1.90482,-3.28026a58.93306,53.56353 0 0 1 4.00407,-5.60742a32.1936,29.26037 0 0 1 3.88757,-3.83248l-0.00181,-0.00399l-0.00138,0l-0.00017,0.00063z"/>
   <path  id="svg_23" d="m13.79729,24.15118a27.75192,25.22338 0 0 0 -3.2377,2.68264a16.10576,14.63832 0 0 0 -1.42674,1.65825a15.29711,13.90335 0 0 0 -1.12157,1.83614a35.20622,31.99849 0 0 0 -1.76317,4.27319c-0.1934,0.57132 -0.39404,1.14093 -0.56909,1.71749c-0.14888,0.49048 -0.28175,0.98463 -0.41634,1.47808a30.06163,27.32264 0 0 1 -1.34253,4.01265a9.46339,8.60116 0 0 1 -1.153,1.8424l0.02153,-0.02457a6.42064,5.83564 0 0 1 -0.8071,0.79007l0.00241,0.0036a7.34355,6.67447 0 0 0 2.4238,-2.04377a17.57891,15.97726 0 0 0 1.74319,-2.81866c0.52578,-1.04732 0.98595,-2.12094 1.47737,-3.18141c0.24248,-0.52108 0.48445,-1.0409 0.70756,-1.56957c0.25394,-0.59973 0.4792,-1.20894 0.70368,-1.81806c0.42624,-1.15368 0.83362,-2.31777 1.34675,-3.44312a39.36968,35.78261 0 0 1 3.41483,-5.39235l-0.00232,-0.00337l-0.00164,0.00047l0.00009,-0.00008zm-9.84089,17.58181l-0.02092,0.04453l0.02092,-0.04453z"/>
   <path  id="svg_24" d="m14.27123,23.21335a7.78839,7.07878 0 0 0 -1.9136,2.85341c-0.43287,1.04701 -0.73425,2.13706 -1.20234,3.17288c-0.59941,1.27616 -1.28303,2.51797 -1.92195,3.77817c-0.36459,0.71768 -0.70609,1.44404 -1.034,2.17572c-0.29613,0.66054 -0.53336,1.33627 -0.7761,2.01341q-0.31964,0.89275 -0.71324,1.76171a24.1697,21.96754 0 0 1 -1.59302,2.82656c-0.28261,0.42262 -0.58029,0.83562 -0.86367,1.25738a14.98298,13.61785 0 0 1 -0.88692,1.21473a5.27358,4.79309 0 0 1 -0.89803,0.83742l0.00207,-0.00149a4.07787,3.70632 0 0 1 -0.33987,0.21202l0.00155,0.0043a7.28156,6.61812 0 0 0 2.98024,-2.09879c0.47119,-0.4623 0.95357,-0.91232 1.39781,-1.3963a19.15789,17.41237 0 0 0 1.36552,-1.67398a17.22492,15.65551 0 0 0 0.90802,-1.4294c0.30224,-0.53869 0.55695,-1.09671 0.81408,-1.65441c0.63394,-1.35646 1.32203,-2.69226 1.94322,-4.05405c0.3025,-0.66344 0.58503,-1.33408 0.83345,-2.0156a15.4645,14.0555 0 0 0 0.56281,-1.90963c0.20813,-1.0409 0.27262,-2.10012 0.42538,-3.1487c-0.00379,0.02684 -0.00749,0.05361 -0.01154,0.08045a9.65145,8.77208 0 0 1 0.59631,-2.21321a5.78817,5.26079 0 0 1 0.32782,-0.58956l-0.00189,-0.00376l-0.00207,0.00086l0,-0.00016zm-11.80461,21.89296l-0.00723,0.00509l0.00715,-0.00509l0.00009,0z"/>
   <path  id="svg_25" d="m8.49667,35.23235a24.94158,22.6691 0 0 0 -3.86346,5.11209a2.30101,2.09136 0 0 0 -0.2089,0.30742q-0.09317,0.1487 -0.18867,0.29591c-0.11539,0.17946 -0.23327,0.35743 -0.35503,0.53391q-0.32575,0.47146 -0.69748,0.91568a13.93736,12.66749 0 0 1 -2.45411,2.15052l0.02385,-0.01737q-0.30328,0.21272 -0.61215,0.41746l0.00155,0.0043a11.81072,10.73462 0 0 0 3.1999,-1.40874a9.41672,8.55874 0 0 0 1.34649,-1.05797q0.30448,-0.29083 0.57693,-0.60631c0.12262,-0.14087 0.24274,-0.28433 0.35899,-0.43045a2.40778,2.1884 0 0 0 0.28097,-0.40024c1.22938,-1.78949 1.74913,-3.87091 2.59498,-5.81443l-0.00241,-0.00274l-0.00155,0.00055l0.00009,0.00039zm-5.2648,7.10773l-0.03625,0.04226l0.03625,-0.04226z"/>
   <path  id="svg_26" d="m8.97036,37.3626a10.6374,9.6682 0 0 0 -2.8385,4.70833l0.00465,-0.0101a1.63401,1.48513 0 0 0 -0.06355,0.27635c-0.02385,0.1534 -0.04615,0.30671 -0.06208,0.46082c-0.02308,0.22931 -0.03264,0.45941 -0.03109,0.6895a8.02976,7.29815 0 0 0 0.16361,1.40139a6.84119,6.21788 0 0 0 1.23937,2.49958l0.00474,-0.00219a8.29782,7.54178 0 0 1 -0.35305,-1.37603c0.00241,0.01957 0.0056,0.03835 0.00792,0.05791a9.40415,8.54731 0 0 1 0.01361,-2.19701q0.05752,-0.3694 0.13838,-0.7338c0.0279,-0.12585 0.05812,-0.25107 0.08912,-0.37621a3.0976,2.81537 0 0 0 0.10807,-0.47201c0.4333,-1.66419 1.0011,-3.29818 1.58346,-4.92442l-0.00267,-0.00274l-0.00207,0.00055l0.00009,0.00008z"/>
   <path  id="svg_27" d="m8.74673,37.4141a18.30894,16.64077 0 0 0 -0.64702,3.03021l0.00301,-0.01988l-0.00611,0.04093l-0.01455,0.09939l0.00568,-0.04062a18.639,16.94076 0 0 1 -0.54619,2.43885a4.78767,4.35145 0 0 0 -0.21648,0.73286c-0.06286,0.25397 -0.11384,0.51075 -0.15439,0.76831a8.3215,7.5633 0 0 0 -0.09076,1.60174a5.48747,4.9875 0 0 0 1.1685,2.79479l0.00396,-0.00219a6.48324,5.89254 0 0 1 -0.26961,-1.03456a6.31731,5.74172 0 0 1 0.01378,-1.44623a11.04039,10.03447 0 0 1 0.37888,-1.44412c0.08757,-0.26046 0.18307,-0.51803 0.2802,-0.77559l0.14802,-0.395l0.07405,-0.19965a1.80915,1.64432 0 0 0 0.07483,-0.27392l-0.01033,0.06965a8.03071,7.29901 0 0 0 0.29131,-2.87798c-0.09093,-0.91294 -0.29897,-1.81078 -0.43433,-2.71786l0.00052,0.00266c-0.01722,-0.1174 -0.03341,-0.23369 -0.04857,-0.35086l-0.0025,-0.00258l-0.00232,0.00188l0.00043,-0.00023zm-0.65942,3.11035l0.00861,-0.05878l0.0031,-0.02105l-0.01197,0.07983l0.00026,0z"/>
   <path  id="svg_28" d="m28.17371,1.49711a27.13745,24.66489 0 0 0 -4.83804,1.76022a28.71419,26.09798 0 0 0 -4.47983,2.6457a32.60021,29.62993 0 0 0 -3.74755,3.10221a37.00374,33.63224 0 0 0 -3.25088,3.6535a28.12323,25.56085 0 0 0 -1.89207,2.78321a32.45322,29.49633 0 0 0 -1.53705,3.09571a39.98906,36.34556 0 0 0 -1.975,6.45603l0.00474,0.00141q1.69308,-3.26539 3.6958,-6.38677q0.98982,-1.53553 2.06007,-3.027c0.69748,-0.97532 1.40986,-1.93929 2.18717,-2.86397a33.46922,30.41976 0 0 1 5.74141,-5.24678a27.82581,25.29053 0 0 1 5.83105,-3.14275a26.50377,24.08895 0 0 1 6.42847,-1.58875a29.17858,26.52005 0 0 1 7.39281,0.0227a32.8216,29.83114 0 0 1 7.93349,1.98539a34.88279,31.70454 0 0 1 7.44241,3.94644a33.87876,30.79198 0 0 1 3.95112,3.33058c1.26322,1.23656 2.44136,2.54231 3.61856,3.84595c1.17565,1.30223 2.33623,2.62621 3.62657,3.83655a23.76611,21.60072 0 0 0 1.86659,1.57865a19.01693,17.28426 0 0 1 1.62746,1.3189c0.10798,0.10253 0.21036,0.20975 0.30827,0.32018a3.79422,3.44852 0 0 1 0.37449,0.5642a2.51964,2.29007 0 0 1 0.10514,0.3435a2.23591,2.03219 0 0 1 0.00138,0.28848a2.33244,2.11992 0 0 1 -0.11323,0.36001a2.47133,2.24616 0 0 1 -0.20227,0.3165a1.9725,1.79278 0 0 1 -0.19039,0.17406a1.6799,1.52684 0 0 1 -0.21355,0.11411a1.73079,1.5731 0 0 1 -0.28803,0.07044a2.10106,1.90963 0 0 1 -0.40187,-0.0054a2.82438,2.56704 0 0 1 -0.54628,-0.14205a3.60573,3.27721 0 0 1 -0.71772,-0.38709a4.36358,3.966 0 0 1 -0.35752,-0.29255l-0.00396,0.0029a3.25492,2.95836 0 0 0 1.29034,1.2429a2.23806,2.03415 0 0 0 0.84456,0.23221a1.82138,1.65543 0 0 0 0.97114,-0.18235a2.25528,2.0498 0 0 0 0.81666,-0.67213a2.4126,2.19279 0 0 0 0.44174,-0.96804a3.09132,2.80966 0 0 0 -0.06286,-1.05656a4.37038,3.97218 0 0 0 -0.4792,-1.02447a10.26489,9.32963 0 0 0 -1.45671,-1.69002c-0.54447,-0.53219 -1.08816,-1.06352 -1.61825,-1.60753q-1.84713,-1.89398 -3.61942,-3.84383c-1.18124,-1.30152 -2.35612,-2.60883 -3.60427,-3.85839a34.51321,31.36863 0 0 0 -4.00545,-3.45604a34.96218,31.7767 0 0 0 -9.06961,-4.80381a32.11438,29.18837 0 0 0 -11.97545,-2.14622a28.45664,25.86389 0 0 0 -7.91497,0.99989zm4.15115,1.25112l-0.0775,0.00916l0.0775,-0.00916z"/>
   <path  id="svg_29" d="m58.15173,17.38154a28.39878,25.8113 0 0 0 3.12576,3.09571a28.07854,25.52023 0 0 0 3.74988,2.66988c0.15414,0.10542 0.32231,0.19386 0.48721,0.28472c0.17273,0.09548 0.34788,0.18885 0.52458,0.27705a12.27433,11.15599 0 0 0 1.18762,0.51294a7.91661,7.19531 0 0 0 2.14205,0.50785a5.13167,4.66411 0 0 0 3.87887,-1.01868a6.4438,5.85669 0 0 0 0.8071,-0.70249l-0.00319,-0.0036a8.2694,7.51596 0 0 1 -0.8517,0.38568a5.91036,5.37185 0 0 1 -1.36474,0.34819a5.18936,4.71655 0 0 1 -1.24858,0.00094a6.43235,5.84628 0 0 1 -1.42433,-0.36565a12.17436,11.06513 0 0 1 -1.79322,-0.90535c-0.3248,-0.19245 -0.63996,-0.39719 -0.95839,-0.59762c-0.32076,-0.20255 -0.65116,-0.39132 -0.97984,-0.58385c-1.33469,-0.78138 -2.70477,-1.51275 -4.07787,-2.23481c-1.06508,-0.55998 -2.13551,-1.11134 -3.19835,-1.67484l-0.00129,0l-0.00189,0.00399l0.00034,-0.00008zm15.08304,5.99623l-0.01559,0.00587l0.01559,-0.00587z"/>
   <path  id="svg_30" d="m61.76676,23.42114a4.05944,3.68958 0 0 1 0.29699,0.30343l-0.0025,-0.00321l0.00715,0.00845l0.00405,0.00454l-0.00232,-0.00258a3.61124,3.28221 0 0 1 0.43985,0.68089a4.18283,3.80173 0 0 1 0.26883,0.90973a6.49676,5.90482 0 0 1 -0.02015,1.43363a14.62365,13.29125 0 0 1 -0.86264,2.80849c-0.22604,0.5419 -0.48712,1.07143 -0.66545,1.62929a6.46292,5.87407 0 0 0 -0.25712,2.19286a6.60758,6.00555 0 0 0 0.24972,1.17638c0.11306,0.32918 0.27064,0.64458 0.41074,0.96366c0.28976,0.65835 0.566,1.32109 0.8573,1.97866c0.30483,0.68801 0.62722,1.36805 0.99887,2.02789c0.31266,0.55567 0.63721,1.10641 0.91129,1.67805a6.56685,5.96853 0 0 1 0.41651,1.2861a3.34103,3.03662 0 0 1 0.00982,0.59245a2.28577,2.0775 0 0 1 -0.10238,0.35219a1.99472,1.81297 0 0 1 -0.15293,0.23886a2.07032,1.88169 0 0 1 -0.25833,0.23182a3.01855,2.74353 0 0 1 -0.5263,0.27486a5.08354,4.62036 0 0 1 -1.12536,0.25146a11.95487,10.86563 0 0 0 -2.29334,0.33755l0.00077,0.0043a5.99707,5.45066 0 0 1 0.94806,0.05643l-0.03737,-0.00509a16.9845,15.437 0 0 0 2.08074,0.23729a3.24924,2.95319 0 0 0 2.12448,-0.63229a2.67661,2.43274 0 0 0 0.86841,-1.52074a4.84493,4.40349 0 0 0 0.05012,-0.93548a7.58819,6.89681 0 0 0 -0.15758,-0.98753a14.73645,13.39378 0 0 0 -0.70609,-1.96856c-0.2802,-0.65984 -0.54249,-1.3232 -0.79995,-1.99024c-0.269,-0.69529 -0.54128,-1.3898 -0.83026,-2.07852c-0.14087,-0.33497 -0.29854,-0.66524 -0.42426,-1.00561a5.96951,5.42562 0 0 1 -0.23008,-0.84814a6.57417,5.97518 0 0 1 0.01516,-1.29839c0.09369,-0.54886 0.2492,-1.08442 0.37337,-1.62851a16.46001,14.9603 0 0 0 0.26694,-1.61332a8.23995,7.48919 0 0 0 -0.29535,-3.0601a3.91796,3.56099 0 0 0 -1.84592,-2.08502l-0.00077,0l-0.00241,0.00376l-0.00026,0.00031zm0.74941,1.00287l0.01378,0.02919l-0.01378,-0.02919zm0.23981,2.35346l-0.00861,0.06175l0.00861,-0.06175zm-0.68534,-3.04594l-0.00172,-0.00203l-0.00465,-0.00532l0.00637,0.00728l0,0.00008z"/>
   <path  id="svg_31" d="m57.77862,40.88164a4.87214,4.42823 0 0 0 -1.25134,1.16401a2.57871,2.34376 0 0 0 -0.47282,1.53232a2.34553,2.13182 0 0 0 0.23086,0.72347a1.70978,1.554 0 0 0 0.37328,0.44493a1.83223,1.66529 0 0 0 0.51743,0.31978a2.03088,1.84584 0 0 0 0.84955,0.19777l-0.02291,-0.00282a2.90937,2.64429 0 0 0 1.77652,-0.47326c0.06174,-0.03624 0.12279,-0.07325 0.18341,-0.11051a1.99411,1.81243 0 0 0 1.20957,0.16474a1.79012,1.62702 0 0 0 0.7705,-0.24168a1.65071,1.50031 0 0 0 0.35425,-0.27494a1.11081,1.0096 0 0 0 0.269,-0.56937a0.92593,0.84157 0 0 0 -0.25394,-0.59973a1.10564,1.0049 0 0 0 -0.46723,-0.26406a2.12035,1.92716 0 0 0 -0.88038,-0.08319a4.58143,4.16401 0 0 0 -0.86927,0.12154a5.44804,4.95165 0 0 0 -1.02203,0.38999c-0.10419,0.04633 -0.20804,0.09266 -0.31309,0.13618a2.74016,2.4905 0 0 1 -0.45052,0.11982a2.11372,1.92113 0 0 1 -0.27202,0.00407c-0.04762,-0.00939 -0.09472,-0.02066 -0.14096,-0.03412q-0.03582,-0.01769 -0.07044,-0.03725q-0.02704,-0.02301 -0.05244,-0.04751q-0.02583,-0.03686 -0.04796,-0.07529a1.64529,1.49538 0 0 1 -0.04555,-0.15833a1.9781,1.79787 0 0 1 0.0025,-0.24622a3.2935,2.99342 0 0 1 0.18427,-0.55724a5.27203,4.79168 0 0 1 0.59708,-0.9142a4.22942,3.84407 0 0 1 0.65658,-0.60678a2.51869,2.28921 0 0 1 0.49254,-0.26523a1.7518,1.59219 0 0 1 0.37423,-0.09392a1.49106,1.35521 0 0 1 0.3397,-0.00063a1.59887,1.4532 0 0 1 0.17489,0.03201l0.00319,-0.0036a1.48263,1.34754 0 0 0 -0.9472,-0.28644a3.29961,2.99898 0 0 0 -1.77927,0.59605l0,-0.00039zm2.20672,-0.33685l-0.02092,0.00227l0.02092,-0.00227zm1.47143,3.45604q-0.03065,0.04531 -0.06501,0.08852a1.4059,1.27781 0 0 1 -0.17325,0.15919a2.17072,1.97294 0 0 1 -0.38284,0.19417a2.35078,2.13659 0 0 1 -0.50469,0.1282a1.61265,1.46572 0 0 1 -0.21476,0.01135a5.24895,4.77071 0 0 1 0.76353,-0.4148a3.70872,3.37081 0 0 1 0.57693,-0.16639l0.00009,-0.00023z"/>
   <path  id="svg_32" d="m63.96151,28.83368a4.07055,3.69967 0 0 1 -0.16283,0.47459a1.84015,1.67249 0 0 1 -0.22879,0.35305l0.01042,-0.01205l-0.02583,0.03177a7.98395,7.25651 0 0 1 -0.72771,0.6582l0.00241,0.0043a1.71762,1.56112 0 0 0 1.00059,-0.51803a1.36913,1.24439 0 0 0 0.13777,-0.99191l-0.00276,-0.00164l-0.00276,0.00164l-0.00052,0.00008z"/>
   <path  id="svg_33" d="m64.90682,28.65094c-0.00474,0.04265 -0.01033,0.08468 -0.01671,0.12663l0.00155,-0.0072a3.71294,3.37464 0 0 1 -0.22991,0.83202a2.62986,2.39025 0 0 1 -0.29157,0.45244a2.56278,2.32928 0 0 1 -0.40402,0.36651a4.64128,4.2184 0 0 1 -0.80262,0.43334l0.00155,0.0043a1.81897,1.65324 0 0 0 1.59577,-0.58267a1.458,1.32516 0 0 0 0.28416,-0.76229a2.57414,2.33961 0 0 0 -0.13373,-0.86379l-0.00189,-0.00133l-0.00284,0.00203l0.00026,0z"/>
   <path  id="svg_34" d="m64.51157,28.9319c-0.00301,0.03295 -0.0068,0.06535 -0.01197,0.09759l0,-0.00211a1.43647,1.30559 0 0 1 -0.08671,0.28511a2.16659,1.96919 0 0 1 -0.25695,0.37566a3.86285,3.5109 0 0 1 -0.60276,0.5545l0.00241,0.0036a1.33684,1.21504 0 0 0 0.84697,-0.44133a0.98164,0.8922 0 0 0 0.11384,-0.87326l-0.0025,-0.00133l-0.00232,0.00188l0,-0.00031zm-0.10445,0.39367l-0.00301,0.00673l0.00301,-0.00673z"/>
   <path  id="svg_35" d="m65.17961,29.53696a3.32674,3.02363 0 0 1 -0.13777,0.37214l0.00568,-0.01111a3.15814,2.87039 0 0 1 -0.37371,0.5912c-0.11401,0.13039 -0.25092,0.24301 -0.36261,0.37386c0.01197,-0.01377 0.02385,-0.02825 0.0366,-0.04195c-0.07509,0.06504 -0.15284,0.12765 -0.23422,0.18642a2.57294,2.33851 0 0 1 -0.51519,0.27353a2.68996,2.44487 0 0 1 -0.59071,0.14424l0.00129,0l-0.00215,0l0.00069,0l-0.00138,0l-0.07121,0.00837l-0.00077,0.0043a1.60404,1.45789 0 0 0 1.74087,-0.31978a2.08384,1.89398 0 0 0 0.50942,-1.58092l-0.00258,-0.00203l-0.00215,0.00133l-0.00009,0.00039zm-2.1721,1.88842l0,0zm2.03123,-1.50931l0.0031,-0.00697l-0.0031,0.00697z"/>
   <path  id="svg_36" d="m64.6038,31.23661a4.83666,4.39598 0 0 1 -0.80081,0.40204c-0.03642,0.01354 -0.07302,0.02716 -0.10815,0.04289a3.1726,2.88354 0 0 1 -0.72099,0.1847l0.00448,0c-0.06768,0.00783 -0.13528,0.01377 -0.20296,0.01878l-0.00155,0.0043a1.30094,1.1824 0 0 0 1.02685,0.03256a1.69971,1.54484 0 0 0 0.80633,-0.68222l-0.00181,-0.00329l-0.00138,0.00039l0,-0.00016zm-0.7761,0.39304l-0.01722,0.0065l0.01722,-0.0065zm-0.8629,0.238l0.00904,-0.00125l-0.00904,0.00125z"/>
   <path  id="svg_37" d="m64.66407,28.94779a5.9225,5.38288 0 0 1 -0.39963,0.53462l0.01989,-0.02387a5.56006,5.05347 0 0 1 -0.93721,0.88054l0.01007,-0.00657l-0.01636,0.01111l-0.01386,0.00986l0.00861,-0.0061a3.30659,3.00532 0 0 1 -0.61404,0.32949l0.00077,0.0043a1.68825,1.53443 0 0 0 1.35958,-0.47608a2.47219,2.24694 0 0 0 0.58744,-1.25519l-0.0031,-0.00305l-0.00172,0.00086l-0.00043,0.00008zm-1.32901,1.39959l0.0056,-0.00376l0.00646,-0.00454l-0.01188,0.0083l-0.00017,0z"/>
   <path  id="svg_38" d="m64.54834,29.97476a5.43417,4.93905 0 0 1 -0.88374,0.82764a2.52601,2.29586 0 0 1 -0.50804,0.27126l0.01671,-0.00579c-0.09076,0.03397 -0.18229,0.06512 -0.2746,0.09188l0,0.00509a1.30576,1.18679 0 0 0 1.10323,-0.24739l-0.00379,0.00266a1.869,1.69871 0 0 0 0.55385,-0.94315l-0.00232,-0.00305l-0.00164,0.00086l0.00034,0z"/>
   <path  id="svg_39" d="m64.52019,28.57815c-0.01274,0.03131 -0.02583,0.06152 -0.03901,0.09259l0.00241,-0.00579a1.75327,1.59352 0 0 1 -0.199,0.31759a2.72845,2.47986 0 0 1 -0.45793,0.39993a6.23636,5.66815 0 0 1 -0.592,0.36048l0.00155,0.0043a1.55444,1.41281 0 0 0 0.96399,-0.3147a1.08816,0.98902 0 0 0 0.3248,-0.8537l-0.0025,-0.00258l-0.00232,0.00188zm-0.23568,0.40454l-0.00784,0.00963l0.00784,-0.00963zm-0.46921,0.40799l-0.01309,0.00939l0.01309,-0.00939z"/>
   <path  id="svg_40" d="m61.42448,29.51231a10.22468,9.29308 0 0 1 -0.87401,1.30512a2.78993,2.53574 0 0 1 -0.45534,0.42325l0.00301,-0.00203a2.64191,2.4012 0 0 1 -0.47825,0.2596l0.00155,0.0043a1.55745,1.41555 0 0 0 1.40013,-0.63597l-0.00189,0.00211a2.00918,1.82612 0 0 0 0.29957,-0.64747a4.66548,4.24039 0 0 0 0.10988,-0.70758l-0.00224,-0.00258l-0.00198,0.00125l-0.00043,0zm-1.303,1.71029l-0.01507,0.01041l0.01507,-0.01041z"/>
   <path  id="svg_41" d="m60.60644,29.49329a2.75618,2.50506 0 0 1 -0.09395,0.23729l0.0056,-0.01299a4.91493,4.46712 0 0 1 -0.60896,0.85511a11.01172,10.00841 0 0 0 -0.64478,0.8465l0.00396,0.0029a3.3431,3.0385 0 0 0 1.02366,-0.76471l-0.02867,0.03397a1.73372,1.57576 0 0 0 0.34788,-1.19743l-0.00276,-0.00235l-0.00207,0.00164l0.00009,0.00008z"/>
   <path  id="svg_42" d="m59.49917,28.56454a6.86479,6.23932 0 0 1 -0.05167,0.62329a5.06993,4.608 0 0 1 -0.33953,1.09405l0.00921,-0.01933l-0.00921,0.01941l-0.01386,0.03044l0.01352,-0.0299a6.30396,5.72959 0 0 1 -0.67578,1.05577l0.00396,0.0029a2.2905,2.08181 0 0 0 1.21948,-1.16699l-0.00551,0.01166a1.91946,1.74457 0 0 0 0.09067,-0.78436a3.18414,2.89403 0 0 0 -0.23637,-0.83742l-0.00258,-0.00157l-0.00232,0.00188l0,0.00016zm-0.39162,1.71788l0,-0.00063l0,0l0,0.0007l0,-0.00008z"/>
   <path  id="svg_43" d="m58.76345,28.68185c-0.01989,0.18666 -0.04142,0.37402 -0.06846,0.55998l0.00474,-0.02896a4.39329,3.993 0 0 1 -0.26289,0.97141a3.40622,3.09587 0 0 1 -0.41927,0.63253l0.00396,-0.0036c-0.01671,0.01878 -0.03341,0.03835 -0.05012,0.05791l0.00241,0.0036a1.57037,1.42729 0 0 0 0.93213,-0.88986a2.3587,2.14379 0 0 0 -0.13777,-1.30371l-0.00207,-0.00125l-0.00232,0.00227l-0.00034,-0.00031zm-0.31766,1.48489l-0.0068,0.01424l0.0068,-0.01424z"/>
   <path  id="svg_44" d="m57.51693,29.85275a1.65002,1.49968 0 0 1 0.0372,0.15418a1.33073,1.20948 0 0 1 -0.00344,0.28551c-0.03591,0.21726 -0.09326,0.42967 -0.14639,0.64411l0.00474,0.00219a1.19201,1.0834 0 0 0 0.31283,-0.53391a0.72134,0.65561 0 0 0 -0.20063,-0.55418l-0.00155,-0.00055l-0.00241,0.00274l-0.00034,-0.00008z"/>
   <path  id="svg_45" d="m55.70064,30.31717a6.56676,5.96845 0 0 0 0.83655,0.52523l0.00319,-0.0036a1.19692,1.08786 0 0 0 -0.83741,-0.52523l-0.00241,0.0036l0.00009,0z"/>
   <path  id="svg_46" d="m57.73789,28.98426c0.03444,0.06136 0.06596,0.12272 0.09558,0.18611l-0.0025,-0.00524a2.1603,1.96347 0 0 1 0.13777,0.44485c0.00474,0.04289 0.00861,0.08531 0.01472,0.12773a1.91395,1.73956 0 0 1 -0.01438,0.30523a3.30952,3.00798 0 0 1 -0.11943,0.43828l0.00396,0.00219a1.04778,0.95231 0 0 0 0.36381,-0.74734a1.2392,1.12629 0 0 0 -0.47601,-0.75462l-0.00164,-0.00047l-0.00232,0.00337l0.00043,-0.00008zm0.22965,0.61429l0.00095,0.0083l-0.00095,-0.0083zm0.0025,0.01886l0.00146,0.00861l-0.00146,-0.00861zm0.01395,0.12366l0.00344,0.02348l-0.00344,-0.02348zm-0.01162,0.28433l-0.00121,0.00681l0.00121,-0.00681z"/>
   <path  id="svg_47" d="m56.1125,29.67251a3.86173,3.50988 0 0 1 0.57486,0.48594a1.06207,0.9653 0 0 1 0.12546,0.19042a0.96623,0.87819 0 0 1 0.05063,0.1804l0,-0.00524l0.00069,0.00728l0.00095,0.00571l-0.00077,-0.0047a1.63056,1.482 0 0 1 0.00396,0.19495l0.00474,0.00141a0.64444,0.58572 0 0 0 -0.01352,-0.68152a1.32375,1.20314 0 0 0 -0.74424,-0.3784l-0.00129,0l-0.00164,0.00376l0.00017,0zm0.75122,0.85988l0,-0.00102l0,-0.00211l0,0.00313z"/>
   <path  id="svg_48" d="m55.62477,29.94643a4.98055,4.52676 0 0 0 0.76973,0.3147l0.00241,-0.0043a1.03934,0.94464 0 0 0 -0.7705,-0.3147l-0.00155,0.0043l-0.00009,0z"/>
   <path  id="svg_49" d="m56.82806,29.33488c0.03608,0.0198 0.06992,0.04023 0.10376,0.06316a0.82665,0.75133 0 0 1 0.10333,0.09486a0.76387,0.69428 0 0 1 0.07483,0.1174a1.4871,1.35161 0 0 1 0.08318,0.31063a4.19239,3.81041 0 0 1 0.02583,0.46434l0.00577,0.00078a1.01901,0.92617 0 0 0 0.12916,-0.66274a0.58933,0.53564 0 0 0 -0.52458,-0.39288l-0.00077,0.0043l-0.00052,0.00016zm0.10764,0.06527l0.00276,0.00188l-0.00276,-0.00188z"/>
   <path  id="svg_50" d="m60.13344,29.12138a6.10668,5.55029 0 0 1 -0.2517,0.79915a1.91093,1.73682 0 0 1 -0.15741,0.26289l0.00319,0.0029a0.83741,0.76111 0 0 0 0.41332,-0.43405a1.3588,1.235 0 0 0 -0.00241,-0.63088l-0.00207,-0.00164l-0.00267,0.00164l-0.00026,0z"/>
   <path  id="svg_51" d="m61.04732,29.12701a5.64281,5.12868 0 0 0 -0.35744,0.82623l0.00396,0.00219a1.23265,1.12034 0 0 0 0.35821,-0.82764l-0.00232,-0.00203l-0.0025,0.00133l0.00009,-0.00008z"/>
   <path  id="svg_52" d="m54.69815,30.761a1.70074,1.54578 0 0 0 1.23058,0.22141l0.00077,-0.0043a2.78993,2.53574 0 0 0 -0.53568,-0.14181c-0.18944,-0.03256 -0.3837,-0.03913 -0.57469,-0.06222l0.00715,0.0007c-0.04219,-0.00579 -0.08361,-0.01158 -0.12581,-0.01808l-0.00077,0l-0.00155,0.00446l0,-0.00016z"/>
   <path  id="svg_53" d="m54.38851,30.33767l-0.00077,0.0043a4.13823,3.76119 0 0 0 1.09927,0.19386l0.00155,-0.0036a1.31359,1.19391 0 0 0 -0.82975,-0.19926c-0.08921,0 -0.17945,0.00258 -0.27038,0.00462l0.00009,0.00008z"/>
   <path  id="svg_54" d="m54.18977,30.50915a1.0867,0.98769 0 0 0 0.32317,0.62509a1.02134,0.92828 0 0 0 0.74502,0.16788l0.00077,-0.0043a3.06901,2.78939 0 0 1 -0.58623,-0.28519a1.87881,1.70763 0 0 1 -0.30999,-0.29137l0.00611,0.00783c-0.06079,-0.07247 -0.1178,-0.14635 -0.17411,-0.22156l-0.00215,-0.00102l-0.00267,0.00321l0.00009,-0.00055z"/>
   <path  id="svg_55" d="m53.75319,30.65347a0.84258,0.76581 0 0 0 0.10583,0.55199a0.80495,0.73161 0 0 0 0.56358,0.26766l0.00241,-0.0036a2.63589,2.39572 0 0 1 -0.40885,-0.33465l-0.02807,-0.0335a1.25917,1.14445 0 0 1 -0.14509,-0.2308c-0.03212,-0.07114 -0.05933,-0.14408 -0.08508,-0.2171l-0.00258,-0.00188l-0.00215,0.00188zm0.09231,0.22242l0.0025,0.00548l-0.0025,-0.00548z"/>
   <path  id="svg_56" d="m53.24058,31.3918a0.69309,0.62994 0 0 0 0.47041,0.10417l0.00155,-0.0043a1.62686,1.47863 0 0 0 -0.47041,-0.10346l-0.0006,0l-0.00103,0.00368l0.00009,-0.00008z"/>
   <path  id="svg_57" d="m52.94945,30.93608a0.71798,0.65256 0 0 0 0.51579,0.26985l0.00155,-0.0043a3.66368,3.32988 0 0 0 -0.51424,-0.26915l-0.00164,0l-0.00155,0.00399l0.00009,-0.00039z"/>
   <path  id="svg_58" d="m52.7582,31.67739l0,0.0043a0.73434,0.66743 0 0 0 0.36459,0l0,-0.0043a0.74855,0.68034 0 0 0 -0.18083,-0.0209a0.77713,0.70633 0 0 0 -0.18341,0.0209l-0.00034,0z"/>
   <path  id="svg_59" d="m52.29933,31.38155l0,0.0043a0.72168,0.65593 0 0 0 0.42271,0.00579l0,-0.0043a1.01049,0.91842 0 0 0 -0.22509,-0.02348a1.03451,0.94026 0 0 0 -0.19762,0.01784l0,-0.00016z"/>
   <path  id="svg_60" d="m49.49114,32.38583a4.21134,3.82763 0 0 1 0.5182,0.53751l-0.02704,-0.03256a3.92477,3.56717 0 0 0 1.07456,0.99363a2.38074,2.16383 0 0 0 1.85866,-0.0731c0.68293,-0.19386 1.33254,-0.47029 2.01065,-0.67502c0.70523,-0.21272 1.43802,-0.30523 2.15953,-0.46082l0,-0.0043a10.05315,9.13718 0 0 0 -1.38188,-0.12295a6.60457,6.00281 0 0 0 -1.40496,0.11215a11.67355,10.60995 0 0 0 -1.30145,0.31039c-0.20615,0.05862 -0.41074,0.12663 -0.61689,0.18783a4.65936,4.23484 0 0 1 -0.57254,0.15535a0.8827,0.80228 0 0 1 -0.09575,0.00219c-0.07793,-0.01667 -0.15663,-0.04258 -0.23249,-0.06058a2.22859,2.02554 0 0 1 -0.26866,-0.08085a11.85481,10.77469 0 0 0 -1.7165,-0.79242l-0.00077,0l-0.00241,0.00376l-0.00026,-0.00023z"/>
   <path  id="svg_61" d="m55.8701,32.76869c0.01128,0.02051 0.02187,0.04164 0.03238,0.06261l-0.00052,-0.00133l0.00077,0.0018l0.00164,0.00329l-0.00129,-0.0025a1.11683,1.01508 0 0 1 0.06252,0.21452a1.31747,1.19743 0 0 1 0,0.24356a1.27441,1.1583 0 0 1 -0.07431,0.25256a1.12476,1.02228 0 0 1 -0.10083,0.157a0.92369,0.83953 0 0 1 -0.10273,0.09478a0.83267,0.75681 0 0 1 -0.11194,0.05948a0.88236,0.80197 0 0 1 -0.10505,0.02786a2.39512,2.1769 0 0 1 -0.30405,0.00517a0.79453,0.72214 0 0 1 -0.10721,-0.02567a0.58666,0.53321 0 0 1 -0.05666,-0.03013a0.53792,0.48891 0 0 1 -0.04185,-0.03819a0.66769,0.60686 0 0 1 -0.04994,-0.07873a1.13104,1.02799 0 0 1 -0.05235,-0.17414a2.48795,2.26127 0 0 1 0.01808,-0.54784l0,0.00078l0.00672,-0.04563l-0.00474,-0.00141a1.59491,1.4496 0 0 0 -0.33669,0.87326a0.78747,0.71572 0 0 0 0.93136,0.58236a0.9311,0.84626 0 0 0 0.80874,-0.7806a1.02039,0.92742 0 0 0 -0.40833,-0.85589l-0.00112,-0.00047l-0.00207,0.00337l-0.00052,0.00016zm0.09524,0.27259l0.00069,0.00587l-0.00069,-0.00587zm0.00069,0.00587l0.0025,0.0151l-0.0025,-0.0151zm-0.07939,0.50871l-0.00732,0.01612l0.00732,-0.01612zm-0.86695,0.29247l0.00861,0.00313l0,0l-0.00861,-0.00321l0,0.00008zm0.00861,0.00321l0.00353,0.00133l-0.00344,-0.00125l-0.00009,-0.00008zm0.87521,-1.01852l0,-0.00078l0,-0.00047l0.0006,0.00125l-0.0006,0z"/>
   <path  id="svg_62" d="m57.89823,32.37064a1.49761,1.36116 0 0 0 -0.65193,0.72347a1.05243,0.95654 0 0 0 0.25316,0.87616l0.00474,-0.00219a2.39383,2.17572 0 0 1 -0.0533,-0.23659l0.00241,0.01377a1.62522,1.47714 0 0 1 -0.00241,-0.33301a2.43895,2.21673 0 0 1 0.1587,-0.49854c0.08723,-0.18478 0.18875,-0.36244 0.29182,-0.53939l-0.00224,-0.00399l-0.00095,0l0,0.00031z"/>
   <path  id="svg_63" d="m55.22359,34.24036l0.01963,-0.00227a3.78105,3.43655 0 0 0 -1.19562,0.19675l0,0.0043a6.61766,6.01471 0 0 0 1.19562,0.09619c0.43304,-0.0036 0.86049,-0.08319 1.29353,-0.10855l0.00077,-0.0043c-0.22285,-0.04265 -0.44415,-0.09392 -0.66864,-0.13164a2.87174,2.61009 0 0 0 -0.51192,-0.05729a1.14938,1.04466 0 0 0 -0.13347,0.00673l0.00009,0.00008z"/>
   <path  id="svg_64" d="m48.46954,33.76053l0,0.0043a3.77364,3.42982 0 0 0 0.75621,0.07521a5.20099,4.72711 0 0 0 0.8071,-0.0839l0,-0.0043a3.58283,3.25639 0 0 0 -0.75621,-0.11434q-0.02678,-0.00086 -0.05382,-0.00086a2.56364,2.33006 0 0 0 -0.75337,0.12381l0.00009,0.00008z"/>
   <path  id="svg_65" d="m50.59867,34.6179c-0.25712,0.09478 -0.53887,0.1487 -0.78721,0.25976a5.31155,4.8276 0 0 0 -0.74984,0.38631l0.00155,0.0043a3.30314,3.00219 0 0 0 0.84215,-0.18885a2.18097,1.98226 0 0 0 0.69568,-0.45792l-0.00164,-0.00376l-0.00069,0.00016z"/>
   <path  id="svg_66" d="m55.37394,32.5991a0.65529,0.59559 0 0 0 -0.41978,0.26007c-0.19194,0.27181 -0.1246,0.8537 0.20253,0.97978a0.57125,0.5192 0 0 0 0.13106,0.05979a0.57796,0.5253 0 0 0 0.43382,-0.04845a0.65787,0.59793 0 0 0 0.32799,-0.35164a0.80185,0.72879 0 0 0 0.0403,-0.35219a0.57219,0.52006 0 0 0 -0.37544,-0.57555a0.41108,0.37363 0 0 0 -0.13467,-0.02105a0.43967,0.39961 0 0 0 -0.20571,0.04891l-0.00009,0.00031z"/>
   <path  id="svg_67" d="m59.91783,44.68251c0.00474,0.02457 0.00861,0.04845 0.01274,0.07232l0,-0.00086a2.9749,2.70385 0 0 1 -0.01912,0.65107a7.25038,6.58979 0 0 0 -0.16998,1.56073c0.05545,0.50981 0.2579,0.98808 0.3484,1.48998a2.30712,2.09691 0 0 1 0.0062,0.36846a1.54273,1.40217 0 0 1 -0.04977,0.17014q-0.02902,0.05056 -0.06295,0.09822c-0.0322,0.03131 -0.06656,0.06065 -0.10204,0.08883a1.89724,1.72438 0 0 1 -0.24679,0.12616a13.72088,12.47074 0 0 1 -2.05964,0.36189c-0.41866,0.07959 -0.83104,0.19245 -1.24574,0.28723q-0.63876,0.14651 -1.28156,0.27995l0,0.0043c0.52854,0.08899 1.06267,0.15191 1.59836,0.19566c0.49754,0.04124 0.99663,0.04774 1.49408,0.09259a7.15308,6.50135 0 0 0 1.37465,0.05064a2.20577,2.0048 0 0 0 1.52267,-0.60435l-0.0254,0.02997a1.80252,1.63829 0 0 0 0.43382,-0.76698a2.44731,2.22433 0 0 0 -0.02902,-0.92226a9.19137,8.35392 0 0 0 -0.75337,-1.51049a7.08316,6.4378 0 0 1 -0.30689,-1.06524a3.09192,2.81021 0 0 0 -0.43382,-1.05992l-0.00207,-0.0011l-0.00276,0.0025l0,0.00055zm0.0124,0.07091l0,-0.00344l0,0.00344z"/>
   <path  id="svg_68" d="m59.65141,50.30034a2.67937,2.43525 0 0 1 0.11306,0.44203l-0.00474,-0.02825a1.89784,1.72493 0 0 1 0.00439,0.40321a1.27441,1.1583 0 0 1 -0.06484,0.21656a0.66941,0.60842 0 0 1 -0.20899,0.24684a1.32462,1.20393 0 0 1 -0.20821,0.10839a1.91593,1.74136 0 0 1 -0.37389,0.08805a3.80516,3.45846 0 0 1 -0.86204,-0.00869c-0.22819,-0.03021 -0.4544,-0.0731 -0.68026,-0.11896a4.01983,3.65357 0 0 1 -0.67337,-0.17578l0.01989,0.0072a2.91341,2.64797 0 0 1 -0.32317,-0.1469l-0.00396,0.0029a2.81792,2.56117 0 0 0 1.11356,0.88766a2.45221,2.22879 0 0 0 1.71357,0.1487a1.27226,1.15634 0 0 0 0.98578,-0.997a1.56055,1.41837 0 0 0 -0.54249,-1.07871l-0.00164,-0.00055l-0.0031,0.00344l0.00043,-0.00016z"/>
   <path  id="svg_69" d="m29.34325,44.49695c0.10841,1.12512 0.16412,2.25501 0.36476,3.37112l-0.00499,0.03788a1.13965,1.03582 0 0 0 0.03264,0.18595c0.01429,0.07044 0.03022,0.13892 0.04615,0.20834c0.03582,0.15261 0.0756,0.3039 0.1178,0.4551c0.07956,0.28793 0.17032,0.57375 0.269,0.8573a15.19911,13.81429 0 0 0 0.69886,1.63649l0.00474,-0.00219c-0.03109,-0.15481 -0.05649,-0.31039 -0.07956,-0.46661l0.00241,0.01737c-0.07164,-0.49705 -0.10988,-0.9977 -0.1401,-1.49906c-0.01516,-0.25248 -0.02867,-0.50574 -0.04615,-0.75916c-0.00792,-0.12663 -0.01834,-0.25318 -0.03022,-0.37981c-0.0056,-0.05643 -0.01111,-0.11286 -0.01722,-0.16928l-0.00956,-0.08468a0.64229,0.58377 0 0 0 -0.03556,-0.1433a8.82851,8.02412 0 0 0 -1.16798,-3.26719l-0.00215,-0.00094l-0.00267,0.00243l-0.00017,0.00023z"/>
   <path  id="svg_70" d="m27.469,44.05014a15.30503,13.91055 0 0 0 0.26349,4.41954a0.49943,0.45393 0 0 0 0.01429,0.12679c0.01111,0.04054 0.02308,0.08179 0.03505,0.12225c0.02704,0.09548 0.05649,0.19026 0.0868,0.28433c0.06131,0.18955 0.12736,0.37692 0.19745,0.5635c0.1345,0.36244 0.28493,0.72057 0.44656,1.07432a19.88388,18.07221 0 0 0 1.14689,2.10975l0.00474,-0.00219c-0.23008,-0.72707 -0.40196,-1.4694 -0.55403,-2.21313c-0.0775,-0.37692 -0.14087,-0.75603 -0.20373,-1.13482q-0.04538,-0.27345 -0.08912,-0.54698c-0.01593,-0.09838 -0.03264,-0.19605 -0.04857,-0.29443a1.34184,1.21958 0 0 0 -0.06613,-0.27236a25.39142,23.07794 0 0 0 -1.22809,-4.23703l-0.00267,-0.00188l-0.00293,0.00258l0,-0.00023z"/>
   <path  id="svg_71" d="m32.86545,37.08821a10.19463,9.26577 0 0 0 -0.14501,3.47255l-0.0062,0.045a1.38085,1.25503 0 0 0 0.03109,0.19096q0.02153,0.10855 0.04538,0.21702q0.04659,0.21593 0.10187,0.43045c0.07319,0.28723 0.15603,0.57132 0.24197,0.85511c0.17911,0.58604 0.37647,1.16699 0.55558,1.75224l0.00474,0c-0.00792,-0.59105 -0.01197,-1.18178 -0.02704,-1.77322q-0.01076,-0.44062 -0.03341,-0.88117q-0.01197,-0.21914 -0.0279,-0.43984c-0.0056,-0.0731 -0.01197,-0.1469 -0.01834,-0.21992c-0.00319,-0.04414 -0.00792,-0.08828 -0.01197,-0.13164a0.58942,0.53571 0 0 0 -0.02954,-0.12765a28.93205,26.29598 0 0 0 -0.67647,-3.38983l-0.00241,-0.00164l-0.00241,0.00164l0.00009,-0.00008z"/>
   <path  id="svg_72" d="m33.50257,37.21015a8.65164,7.86337 0 0 0 0.18944,1.92129a2.50001,2.27222 0 0 0 0.13674,0.47482c0.05649,0.1606 0.11857,0.31978 0.18229,0.47819c0.13295,0.33278 0.28493,0.65835 0.42107,0.98972l0.00474,-0.0007a18.56331,16.87196 0 0 0 -0.18307,-2.00261c-0.01429,-0.07232 -0.04374,-0.1487 -0.06286,-0.22211c-0.02308,-0.08899 -0.05098,-0.17797 -0.07801,-0.2661c-0.05098,-0.16208 -0.10988,-0.32198 -0.17428,-0.48038a9.0616,8.23598 0 0 0 -0.43141,-0.89346l-0.00207,-0.00078l-0.00267,0.00219l0.00009,-0.00008z"/>
   <path  id="svg_73" d="m37.4276,47.19821c0.18944,0.57445 0.33195,1.15971 0.50942,1.73706a9.73696,8.8498 0 0 0 0.77292,1.77032c0.30801,0.52671 0.62963,1.04756 0.94169,1.57208c0.28933,0.48664 0.5585,0.98166 0.83156,1.47589a4.94903,4.49812 0 0 0 0.48032,0.78788c0.18789,0.26985 0.39722,0.52437 0.6137,0.777a6.97251,6.33723 0 0 0 1.16695,1.07362a6.45939,5.87086 0 0 0 1.56968,0.83922a5.42436,4.93013 0 0 0 1.62944,0.33653a6.04133,5.49089 0 0 0 1.36672,-0.05353l0,-0.00509a7.42923,6.75234 0 0 1 -1.29319,-0.35704a6.21337,5.64726 0 0 1 -1.28733,-0.67674a7.08032,6.43521 0 0 1 -1.15524,-1.06251a18.1412,16.48832 0 0 1 -1.63418,-2.60852a11.66193,10.59938 0 0 0 -1.21784,-1.71608q-0.37888,-0.44712 -0.7817,-0.87616c-0.24713,-0.26195 -0.50107,-0.51654 -0.73537,-0.78804c-0.60888,-0.73122 -1.12476,-1.52387 -1.77281,-2.22887l-0.00138,-0.00047l-0.00344,0.00337l0.00009,0.00008zm1.7878,2.23826l0.05485,0.06519l-0.05485,-0.06519z"/>
   <path  id="svg_74" d="m57.00527,41.81587a5.06261,4.60134 0 0 0 -1.64399,2.71723a1.72855,1.57106 0 0 0 -0.07931,0.34373c-0.02583,0.15121 -0.04779,0.30241 -0.06889,0.45393c-0.0366,0.25537 -0.06846,0.51075 -0.10583,0.76542l0.0006,-0.00391a10.39173,9.44492 0 0 1 -0.35003,1.54414l0.00474,0.00141a8.46168,7.69072 0 0 0 0.79522,-1.41219c0.10669,-0.24379 0.20218,-0.49306 0.29131,-0.74225c0.04615,-0.13023 0.08998,-0.26117 0.13295,-0.3921a1.87244,1.70184 0 0 0 0.11143,-0.41292a21.22589,19.29195 0 0 1 0.86764,-2.7573l-0.00043,0.00157c0.01653,-0.03428 0.03246,-0.06864 0.049,-0.10354l-0.00232,-0.00337l-0.00164,0.00047l-0.00043,-0.00031zm-1.88923,4.22177l-0.00491,0.03287l0.00491,-0.03287zm1.84179,-4.10962l0.00276,-0.00563l-0.00276,0.00563z"/>
   <path  id="svg_75" d="m53.93437,50.32546a1.74991,1.59047 0 0 0 -0.74269,0.54002a2.2589,2.05309 0 0 0 -0.35107,0.86379l0.00474,0.00219c0.17592,-0.2279 0.36062,-0.45002 0.53732,-0.67643c0.17351,-0.22062 0.3248,-0.45432 0.50624,-0.66994l-0.00396,0.0043c0.01722,-0.02027 0.03444,-0.04054 0.05167,-0.06003l-0.00138,-0.00391l-0.00103,0l0.00017,0z"/>
   <path  id="svg_76" d="m57.53924,52.27688a0.55911,0.50816 0 0 0 -0.03901,0.40877a3.20567,2.91359 0 0 0 0.18625,0.48038a2.77056,2.51813 0 0 1 0.17644,0.59785a8.06351,7.32883 0 0 1 -0.07509,1.77118a6.29079,5.71762 0 0 1 -0.38895,1.32453a5.94532,5.40362 0 0 1 -0.6565,1.01672a7.83997,7.12566 0 0 1 -1.25917,1.12496a12.06733,10.96784 0 0 1 -1.2689,0.75133a15.64878,14.22298 0 0 1 -1.50157,0.69733a16.77629,15.24776 0 0 1 -2.06128,0.63096c-0.73709,0.17868 -1.48056,0.33426 -2.21524,0.52233a14.42715,13.11266 0 0 0 -4.19412,1.63508c-0.2951,0.18149 -0.57151,0.38521 -0.85076,0.58494a16.65866,15.14085 0 0 1 -3.52617,1.91581a11.24223,10.21792 0 0 1 -1.43544,0.44868a14.58257,13.25392 0 0 1 -1.65726,0.26555l0,0.00438a9.88868,8.9877 0 0 0 2.22644,0.11215a10.35393,9.41056 0 0 0 2.20009,-0.3939a13.46927,12.24205 0 0 0 2.15273,-0.80306c0.64875,-0.29881 1.24815,-0.67134 1.89207,-0.97665c0.2393,-0.11317 0.48411,-0.2164 0.73193,-0.31399a19.12483,17.38232 0 0 1 1.96914,-0.60983q1.08058,-0.28543 2.17227,-0.53462c0.74347,-0.16999 1.49253,-0.32409 2.22876,-0.52092a10.82021,9.83435 0 0 0 2.19699,-0.83922a11.88409,10.8013 0 0 0 1.65347,-1.02103a7.88036,7.16236 0 0 0 1.80132,-1.84851a6.95684,6.32299 0 0 0 0.43304,-0.80885a5.69844,5.17924 0 0 0 0.40471,-1.62788a8.20663,7.4589 0 0 0 -0.16559,-1.89257a4.31458,3.92147 0 0 0 -0.34702,-0.97524a3.1602,2.87227 0 0 0 -0.37888,-0.51223l0.018,0.02058a2.22506,2.02233 0 0 1 -0.27874,-0.39061a0.63505,0.57719 0 0 1 -0.03548,-0.10832a0.38224,0.34741 0 0 1 0,-0.05032a0.32644,0.2967 0 0 1 0.00964,-0.03326a0.27297,0.2481 0 0 1 0.01576,-0.02504a0.26883,0.24434 0 0 1 0.0366,-0.03311a0.4606,0.41863 0 0 1 0.05855,-0.0299a0.79143,0.71932 0 0 1 0.17971,-0.04015l-0.00077,0.00063l0.03186,-0.00352l0.00077,-0.0043a0.91706,0.83351 0 0 0 -0.1754,-0.01808a0.31344,0.28488 0 0 0 -0.26479,0.10127l-0.00043,-0.00031zm0.2368,-0.03882l-0.00301,0.00125l0.00301,-0.00125zm-0.13054,0.16279l0.00146,0.00783l-0.00146,-0.00783zm-14.29652,11.45253q-0.04925,0.03506 -0.09868,0.06997c0.03272,-0.02348 0.0657,-0.04696 0.09868,-0.06997zm28.9206,-22.38077l-0.01145,-0.01346l0.01145,0.01346zm-14.65112,10.20478l0,0z"/>
   <path  id="svg_77" d="m13.72642,41.72368a14.86699,13.51243 0 0 0 -0.02867,1.77032a5.59967,5.08947 0 0 0 0.45371,1.67124a7.15067,6.49916 0 0 0 1.27037,1.71319a12.51621,11.37583 0 0 0 1.70195,1.3963c0.50942,0.35813 1.02926,0.7039 1.54738,1.05124c0.48221,0.32409 0.95762,0.65741 1.43682,0.98534c0.95951,0.65741 1.93539,1.29299 2.88793,1.95792a46.07146,41.87378 0 0 1 3.60892,2.81678c1.20036,1.04685 2.30127,2.17839 3.39011,3.32072c1.21483,1.27319 2.41915,2.5546 3.55717,3.885l0.05769,0.06762l0.04908,0.0576l-0.01119,-0.0133a13.47676,12.24886 0 0 1 1.03581,1.325c0.27701,0.43194 0.52699,0.87757 0.81666,1.30301a4.77285,4.33799 0 0 0 1.04984,1.15908a1.85298,1.68415 0 0 0 0.636,0.3082a1.9384,1.76179 0 0 0 0.93213,-0.04195c0.05253,-0.0101 0.10505,-0.01957 0.15844,-0.02825l-0.00077,-0.0043c-0.17222,-0.01941 -0.34616,-0.0281 -0.51924,-0.04876a1.58294,1.43872 0 0 1 -0.30009,-0.06582a1.26081,1.14593 0 0 1 -0.23663,-0.12632a1.85746,1.68822 0 0 1 -0.26444,-0.24692a3.3797,3.07176 0 0 1 -0.36304,-0.59379a13.14171,11.94434 0 0 1 -0.49444,-1.44005c-0.06846,-0.2308 -0.13691,-0.4623 -0.21527,-0.69091a7.58492,6.89384 0 0 0 -0.33669,-0.77849a27.6808,25.15874 0 0 0 -2.48115,-3.96898a36.26234,32.9584 0 0 0 -3.35748,-3.7201a39.09025,35.52865 0 0 0 -3.60745,-3.07693a49.87042,45.32661 0 0 0 -4.16768,-2.86061c-0.67423,-0.40947 -1.36354,-0.80306 -2.06877,-1.16769c-0.6726,-0.34726 -1.36431,-0.66195 -2.0401,-1.0042a14.15986,12.86973 0 0 1 -1.6545,-0.95748a7.23092,6.5721 0 0 1 -1.18426,-1.04278a5.36658,4.87762 0 0 1 -0.61887,-0.96945a15.35609,13.95696 0 0 1 -0.63376,-1.94187l-0.00224,-0.00133l-0.00336,0.00203l0.00009,-0.00031zm22.83716,23.5584c0.00861,0.01761 0.01722,0.03514 0.02489,0.05275l-0.02489,-0.05275zm0.37173,0.63159l0.01782,0.02035l-0.01782,-0.02035zm0.0223,0.02567l0.01516,0.01847l-0.01516,-0.01847z"/>
   <path  id="svg_78" d="m24.46956,46.39202a12.18874,11.0782 0 0 0 2.38522,6.75868q0.12537,0.16498 0.25712,0.32409l-0.00766,-0.01651a3.37935,3.07145 0 0 0 0.37544,0.46645c0.10746,0.12225 0.21811,0.24262 0.32954,0.36173q0.32239,0.34506 0.65348,0.68222c0.44338,0.44853 0.90587,0.88117 1.36672,1.31381c0.90191,0.84525 1.81647,1.67993 2.69125,2.54881q0.11341,0.11286 0.2269,0.2279l0.00396,-0.0029a34.48126,31.33959 0 0 0 -1.86977,-3.1051q-1.03873,-1.54179 -2.13645,-3.05087c-0.02867,-0.04054 -0.05812,-0.081 -0.08757,-0.12084c-0.01516,-0.02027 -0.02945,-0.04054 -0.0446,-0.06081a1.04373,0.94863 0 0 0 -0.11194,-0.12874a36.71416,33.36904 0 0 1 -3.76951,-5.60038l0.00723,0.01456q-0.14001,-0.30405 -0.26513,-0.61218l-0.00241,-0.00188l-0.00232,0.00188l0.00052,0.00008zm0.27727,0.62932l-0.00792,-0.0173l0.00792,0.0173z"/>
   <path  id="svg_79" d="m13.66657,42.35143c-0.09395,0.52437 -0.15603,1.05335 -0.23404,1.58092l0.00956,-0.06152a8.81103,8.00823 0 0 1 -0.51597,1.93553a5.22036,4.74472 0 0 1 -0.55265,0.88547a6.79401,6.17499 0 0 0 -1.57166,2.10177a3.93596,3.57735 0 0 0 0.04615,1.79928a7.98068,7.25354 0 0 0 0.82665,1.77392a14.72276,13.38133 0 0 0 1.37387,1.78049a34.24696,31.12664 0 0 0 2.8552,2.77303c1.0563,0.92891 2.13964,1.83035 3.27869,2.67536c1.52981,1.13388 3.12404,2.19263 4.68873,3.28652a33.58891,30.52855 0 0 1 5.97511,5.08447c1.7388,2.09817 2.72441,4.65503 4.69811,6.6034a1.06061,0.96397 0 0 0 1.65252,-0.19386a19.66137,17.86998 0 0 0 1.38636,-2.61322a11.96227,10.87236 0 0 0 0.70919,-2.73476a9.48793,8.62346 0 0 0 -0.25152,-2.88667a10.0485,9.13296 0 0 0 -1.14525,-2.41999c-1.30464,-1.92372 -3.24683,-3.37425 -4.82529,-5.09542l-0.00396,0.0029c0.98784,1.97944 2.37205,3.77535 3.31864,5.77381a11.61457,10.55634 0 0 1 0.76336,2.41991a11.1984,10.17809 0 0 1 -0.00758,2.42781a11.35632,10.32162 0 0 1 -0.72857,2.34243q-0.13149,0.27478 -0.27555,0.54471c-0.85334,-1.16746 -1.53679,-2.43603 -2.31676,-3.6434a19.45669,17.68395 0 0 0 -1.7456,-2.27817a25.52807,23.20215 0 0 0 -1.97276,-1.93123a73.64626,66.93617 0 0 0 -6.38628,-4.74989a53.38298,48.51913 0 0 1 -4.19007,-3.21264c-0.86686,-0.75133 -1.72571,-1.50915 -2.54082,-2.30713q-0.9292,-0.91107 -1.76791,-1.89265a11.43012,10.38869 0 0 1 -1.37775,-1.99173a4.17948,3.79867 0 0 1 -0.22449,-0.69482a2.50354,2.27543 0 0 1 -0.00448,-0.35305a2.5893,2.35338 0 0 1 0.11539,-0.35806c0.22388,-0.44141 0.52759,-0.84525 0.76801,-1.28023a5.57195,5.06427 0 0 0 0.5381,-1.80937a15.57248,14.15364 0 0 0 -0.35976,-3.28386l-0.00207,-0.00164l-0.00267,0.00164l-0.00017,-0.00008zm10.25163,20.56365l0.155,0.10886c-0.05167,-0.03631 -0.10333,-0.07255 -0.155,-0.10886z"/>
   <path  id="svg_80" d="m38.93218,66.2855c-0.07087,1.21183 -0.22845,2.42077 -0.20296,3.6362a11.32472,10.2929 0 0 0 0.24274,1.96277c0.03909,0.16592 0.08421,0.33058 0.13123,0.49486a4.4719,4.06446 0 0 1 -0.61137,-0.35219a7.84764,7.13262 0 0 1 -1.28199,-1.2224l0.0279,0.03326c-0.1847,-0.21773 -0.36217,-0.44062 -0.5381,-0.66524l-0.00396,0.00219a7.70599,7.00388 0 0 0 0.90346,2.25798a4.02991,3.66273 0 0 0 2.35775,1.62131a0.77498,0.70437 0 0 0 0.97191,-0.67307a7.8764,7.15876 0 0 0 -0.37251,-1.80648c-0.18703,-0.58698 -0.35503,-1.17708 -0.51338,-1.77102a28.84956,26.22101 0 0 0 -1.10564,-3.51967l-0.00241,-0.00157l-0.00232,0.00227l-0.00034,0.00078z"/>
   <path  id="svg_81" d="m14.9688,37.84251c-0.40592,0.65835 -0.84697,1.30223 -1.19692,1.98789a6.68327,6.07434 0 0 0 -0.67079,2.36512a3.50076,3.1818 0 0 0 -0.00103,0.58158q0.00956,0.2974 0.01516,0.59613c0.00637,0.38349 0.00715,0.76612 -0.00396,1.14961c-0.02308,0.7727 -0.10109,1.54531 -0.17032,2.31582l0.00474,0.0007a21.04558,19.12806 0 0 0 0.93049,-2.18199a11.12176,10.10843 0 0 0 0.30801,-1.11134c0.04693,-0.22571 0.08043,-0.45432 0.10988,-0.68293a3.30771,3.00634 0 0 0 0.03324,-0.6211c0.01524,-0.33943 0.05072,-0.67886 0.09782,-1.01594c0.17325,-1.12879 0.47704,-2.24241 0.54877,-3.3831l-0.00232,-0.00203l-0.0025,0.00133l-0.00026,0.00023zm-0.53362,3.31399l-0.00861,0.06339l0.00861,-0.06339zm-0.01076,0.07545l-0.0099,0.06558l0.0099,-0.06558z"/>
   <path  id="svg_82" d="m33.14126,28.2075a3.99787,3.63362 0 0 1 -0.31645,0.43695a3.87017,3.51755 0 0 1 -0.61706,0.55661a4.39199,3.99183 0 0 1 -0.87194,0.45682a5.37519,4.88544 0 0 1 -1.17461,0.28684a6.47058,5.88103 0 0 1 -1.22163,0.02293l-0.00362,-0.00133a1.80829,1.64353 0 0 0 -0.26272,-0.02966l-0.04529,-0.00454a9.57533,8.7029 0 0 1 -1.13716,-0.29865a4.45873,4.05248 0 0 0 -1.42803,-0.1534a22.54181,20.48797 0 0 0 -2.74938,0.32088l0,0.0043c0.54051,0.10346 1.08652,0.18001 1.62944,0.26915a8.12637,7.38596 0 0 1 1.5838,0.39578c0.33161,0.13633 0.63678,0.31955 0.96184,0.46731a2.6959,2.45027 0 0 0 1.3241,0.32675l-0.03694,0.00454c2.01624,0.17578 4.23949,-1.12574 4.37081,-3.06104l-0.00258,-0.00203l-0.00215,0.00133l-0.00043,0.00047z"/>
   <path  id="svg_83" d="m32.48115,29.86715a2.20482,2.00394 0 0 0 -1.44913,1.29135a1.91343,1.73909 0 0 0 -0.12451,0.45972a4.19455,3.81237 0 0 0 -0.04219,0.49705a5.15673,4.68689 0 0 0 0.09868,0.921l0.00474,0a12.81648,11.64874 0 0 1 0.6763,-2.02765a4.28177,3.89165 0 0 1 0.50873,-0.80291a3.67591,3.34099 0 0 1 0.33049,-0.33458l-0.00224,-0.00376l-0.00086,-0.00023zm-0.84499,1.1619l-0.00663,0.01401l0.00663,-0.01401z"/>
   <path  id="svg_84" d="m31.60585,30.09725c-0.40471,0.39359 -0.77688,0.81175 -1.17332,1.21183a9.66273,8.78234 0 0 1 -1.259,1.0791l0.00052,-0.00039c-0.07319,0.05134 -0.14802,0.10276 -0.22285,0.1534l0.00155,0.0036a4.43272,4.02885 0 0 0 1.01729,-0.33567a3.06324,2.78415 0 0 0 0.40678,-0.23221a1.9161,1.74152 0 0 0 0.35709,-0.28715l-0.00611,0.0072a3.91461,3.55794 0 0 0 0.88193,-1.59744l-0.00241,-0.00305l-0.00155,0.00055l0.00009,0.00023z"/>
   <path  id="svg_85" d="m29.26928,35.32548a1.53739,1.39732 0 0 1 0.07173,0.2614a1.57046,1.42737 0 0 1 -0.00224,0.32354a5.18816,4.71545 0 0 1 -0.36321,1.01531c-0.13777,0.31689 -0.28338,0.63018 -0.42271,0.94628l0.00474,0.00219a3.14875,2.86186 0 0 0 0.96236,-1.12355l-0.00749,0.01565a1.45748,1.32469 0 0 0 -0.2393,-1.44287l-0.00155,-0.00055l-0.00241,0.00274l0.00009,-0.00016zm0.0688,0.59339l-0.00319,0.02348l0.00319,-0.02348z"/>
   <path  id="svg_86" d="m21.51791,36.59288a6.12528,5.56719 0 0 1 -0.00431,0.99864a2.8038,2.54834 0 0 1 -0.16636,0.5743a3.30099,3.00023 0 0 1 -0.36484,0.55411c-0.641,0.73497 -1.38351,1.39466 -1.95993,2.17643a1.87873,1.70755 0 0 0 -0.26754,0.3766c-0.06768,0.11286 -0.12813,0.22861 -0.1847,0.34585a4.92001,4.47174 0 0 0 -0.30009,0.78209a4.26817,3.87929 0 0 0 -0.06208,1.4694a4.64197,4.21903 0 0 0 1.48297,2.37663l0.00396,-0.0029c-0.11143,-0.18893 -0.21269,-0.38075 -0.30448,-0.57829a5.21287,4.73791 0 0 1 -0.34065,-1.10297a3.78157,3.43702 0 0 1 -0.00215,-0.81308a4.356,3.95911 0 0 1 0.26763,-0.86184a6.62704,6.02324 0 0 1 0.33996,-0.59613c0.07801,-0.12225 0.16163,-0.2409 0.24756,-0.35813a3.63484,3.30366 0 0 0 0.23353,-0.33184a15.60512,14.1833 0 0 0 1.71667,-2.55554a2.67705,2.43313 0 0 0 0.16361,-1.29573a3.86888,3.51638 0 0 0 -0.49349,-1.1583l-0.00215,-0.00133l-0.00267,0.00203l-0.00043,0zm-0.00577,1.01398l-0.00568,0.04156l0.00568,-0.04156zm-0.55652,1.14554l-0.02377,0.02841l0.02377,-0.02841zm-1.00842,5.76864l0.00861,0.01972l-0.00861,-0.01972z"/>
   <path  id="svg_87" d="m31.56701,9.7496a26.5055,24.09052 0 0 0 -7.6923,2.46366a29.78513,27.07134 0 0 0 -6.59088,4.37336a33.34841,30.30996 0 0 0 -2.82257,2.80778a46.01609,41.82346 0 0 0 -2.76531,3.44445a36.18304,32.88632 0 0 0 -3.51893,6.01322c-0.81898,1.90501 -1.39152,3.8904 -2.25787,5.77905l0.00861,-0.01737l-0.01826,0.03913l-0.02075,0.04516l0.01223,-0.027a18.14094,16.48808 0 0 1 -1.20785,2.14966l0.00396,0.0029c2.09822,-1.65817 3.46159,-3.90026 4.74814,-6.10322c0.32317,-0.55348 0.64478,-1.10766 0.9751,-1.65746c0.34624,-0.57516 0.70919,-1.14163 1.06775,-1.711c0.74424,-1.17857 1.48969,-2.35346 2.3116,-3.4893q0.86841,-1.19884 1.8287,-2.3393a32.97194,29.96779 0 0 1 5.63153,-5.20264a27.87213,25.33264 0 0 1 5.89615,-3.14337a25.27724,22.97417 0 0 1 6.35485,-1.55486a31.7498,28.857 0 0 1 8.04775,-0.05478a41.72846,37.92648 0 0 1 10.39388,2.59514q1.43286,0.55238 2.83299,1.1734l0.00319,-0.0036a29.63711,26.9368 0 0 0 -6.80813,-4.10101a22.40868,20.36698 0 0 0 -3.82324,-1.27045a25.13283,22.84292 0 0 0 -4.09225,-0.60412q-1.2807,-0.10589 -2.57242,-0.10425a33.64566,30.58013 0 0 0 -5.92568,0.49705l0,-0.00023zm20.3648,4.40545l0.01722,0.00673l-0.01722,-0.00673zm0.02144,0.0083l0.03332,0.01268l-0.03332,-0.01268zm-46.05286,20.50746l0.00861,-0.01816l0.00982,-0.02144l-0.01843,0.0396z"/>
   <path  id="svg_88" d="m72.02106,24.73393l-0.00155,0.0043a3.11302,2.82938 0 0 0 0.96554,0.26696a3.03552,2.75894 0 0 0 1.02289,-0.07232l0,-0.00509a7.28405,6.62039 0 0 0 -0.97432,-0.18666a3.59462,3.26711 0 0 0 -0.46809,-0.02489c-0.18247,0 -0.36519,0.00877 -0.54438,0.01769l-0.00009,0z"/>
   <path  id="svg_89" d="m74.52305,23.51294c-0.19263,0.10957 -0.39162,0.21131 -0.57633,0.33207c-0.18944,0.12444 -0.36855,0.26187 -0.54765,0.3986l0.00241,0.0036a1.64167,1.49209 0 0 0 1.12553,-0.73145l-0.00258,-0.00329l-0.00138,0.00039l0,0.00008z"/>
   <path  id="svg_90" d="m62.07624,28.28075c-0.06028,0.31251 -0.11857,0.62509 -0.19426,0.9347c-0.03901,0.1613 -0.08275,0.32198 -0.12977,0.48187c-0.04452,0.14823 -0.11194,0.29873 -0.1407,0.45103l0.0006,-0.00391c-0.05063,0.14236 -0.10445,0.28402 -0.16679,0.42262a3.28343,2.98426 0 0 1 -0.37087,0.58698a2.77211,2.51954 0 0 1 -0.46111,0.41949l0.00224,-0.00125c-0.02704,0.01878 -0.05494,0.03764 -0.08275,0.05572l0.00155,0.0043a1.95072,1.77298 0 0 0 1.57123,-1.35662a1.98499,1.80413 0 0 0 0.09644,-0.494a4.13057,3.75422 0 0 0 0.00715,-0.52593a8.50499,7.73008 0 0 0 -0.12744,-0.97501l-0.00276,-0.00219l-0.00276,0.00219zm-0.60629,2.2356l-0.0242,0.05064c0.00758,-0.01714 0.01584,-0.0342 0.0242,-0.05064zm-0.3961,0.63879l-0.02359,0.02825l0.02359,-0.02825zm-0.46378,0.42106l0.00336,-0.00243l-0.00336,0.00243z"/>
   <path  id="svg_91" d="m60.37825,28.49206a1.32134,1.20095 0 0 1 0.08068,0.2823c0.02687,0.19566 0.04305,0.39351 0.049,0.59089l0.00474,0.0007a0.8071,0.73356 0 0 0 -0.13054,-0.87616l-0.00155,-0.00055l-0.00241,0.00274l0.00009,0.00008z"/>
   <path  id="svg_92" d="m61.42827,28.50145c0.05304,0.22775 0.11866,0.45393 0.15603,0.68379l0,0c0.00396,0.08828 0.01989,0.17578 0.02308,0.26477a2.3364,2.12352 0 0 1 -0.0223,0.32487l0.00077,-0.00783c-0.00861,0.05572 -0.01912,0.11145 -0.03022,0.16709l0.00474,0.00219a1.37146,1.2465 0 0 0 0.22767,-0.7763l0.00319,0.02536a1.36552,1.2411 0 0 0 -0.35821,-0.68582l-0.00207,-0.00086l-0.00276,0.00305l0.00009,-0.00031z"/>
   <path  id="svg_93" d="m56.7733,35.84429l-0.12339,0.04774l0.00379,-0.00117a6.77015,6.15331 0 0 1 -1.66897,0.42262c-0.54851,0.06527 -1.10099,0.07545 -1.65329,0.09337l-0.00077,0.0043a2.98971,2.71731 0 0 0 1.77505,0.31673a1.36371,1.23946 0 0 0 0.44983,-0.10839a2.94192,2.67387 0 0 0 0.4259,-0.19175a4.38536,3.9858 0 0 0 0.79522,-0.58025l-0.00189,-0.00399l-0.00129,0l-0.00017,0.00078zm-1.8175,0.47248l-0.02187,0.00282l0.02187,-0.00282z"/>
   <path  id="svg_94" d="m52.16104,34.87836a1.77566,1.61387 0 0 0 1.12157,0.84431a3.55148,3.2279 0 0 0 1.52913,-0.00579l0,-0.00423c-0.34383,-0.07521 -0.68775,-0.1505 -1.03004,-0.23299a7.51508,6.83037 0 0 1 -0.98466,-0.27823a3.49431,3.17593 0 0 1 -0.63204,-0.32659l-0.00129,0l-0.00267,0.00399l0,-0.00047zm0.65443,0.33066l0.01722,0.00697l-0.01722,-0.00697z"/>
   <path  id="svg_95" d="m38.32021,32.44022a5.4904,4.99016 0 0 0 -1.95106,1.52363a2.89964,2.63544 0 0 0 -0.00155,2.51226l0.00474,-0.00141q-0.00861,-0.04344 -0.01429,-0.08679l0,0.00509a3.28282,2.98372 0 0 1 -0.00465,-0.74749l-0.0025,0.01464l0.00276,-0.01636l0.00284,-0.02051l-0.0025,0.01831a3.52289,3.20192 0 0 1 0.22681,-0.7212c0.04607,-0.09666 0.09575,-0.19096 0.14897,-0.28464c0.05959,-0.10706 0.13304,-0.20912 0.18203,-0.32088a7.90369,7.18357 0 0 1 0.6267,-0.83546l-0.04219,0.04923a8.17744,7.43237 0 0 0 0.82665,-1.0845l-0.00189,-0.00399l-0.00129,0l0.00043,0.00008zm-1.96656,3.20309l0,0.00172l0.0006,-0.00399l0,0.00227l-0.0006,0z"/>
   <path  id="svg_96" d="m37.63788,53.12401c0.08189,0.30906 0.14501,0.62149 0.19306,0.93541a20.68022,18.79599 0 0 1 0.14139,2.08142a2.43603,2.21407 0 0 0 0,0.39296c0.0056,0.13532 0.00956,0.27056 0.01352,0.40587q0.01197,0.40587 0.02471,0.81316c0.01834,0.54041 0.04615,1.0809 0.0775,1.62131l0.00474,0.0007c0.14802,-0.51943 0.31438,-1.03386 0.44338,-1.55744c0.0645,-0.26187 0.11857,-0.52523 0.15999,-0.79046c0.02308,-0.1498 0.04374,-0.301 0.0589,-0.45221a1.94908,1.77149 0 0 0 0.01447,-0.43616a4.99381,4.53881 0 0 0 -1.12768,-3.01698l-0.00129,-0.00047l-0.00267,0.00266l0,0.00023z"/>
   <path  id="svg_97" d="m48.70711,58.11753l-0.00077,0.0043c0.0279,0.01088 0.05649,0.02097 0.08439,0.03185l-0.00637,-0.00219c0.30569,0.11794 0.60018,0.26265 0.90983,0.37113a8.67928,7.88849 0 0 0 0.96399,0.27635l0.00241,-0.0036a3.05265,2.77452 0 0 0 -0.88434,-0.54331a2.32133,2.10983 0 0 0 -0.83112,-0.14737a2.00152,1.81916 0 0 0 -0.23792,0.01284l-0.00009,0z"/>
   <path  id="svg_98" d="m32.3209,44.71311a8.94622,8.13111 0 0 0 0.27305,1.49178a11.98759,10.89537 0 0 0 0.61887,1.45132c0.01257,0.02724 0.02523,0.05478 0.03703,0.08171l0.0056,-0.0007a6.86453,6.23909 0 0 0 -0.16955,-1.56339a4.736,4.30449 0 0 0 -0.3168,-0.74444a6.27787,5.70588 0 0 0 -0.44338,-0.71697l-0.00215,-0.00133l-0.00267,0.00203z"/>
   <path  id="svg_99" d="m28.48965,44.5853a6.59389,5.9931 0 0 0 0.15284,1.27476a7.9737,7.2472 0 0 0 0.47756,1.19156l0.00474,-0.00141c0.00155,-0.20622 0.00155,-0.41237 -0.01033,-0.6193a3.27525,2.97683 0 0 0 -0.09713,-0.66524c-0.06527,-0.20403 -0.12581,-0.40439 -0.21329,-0.60263a5.10902,4.64353 0 0 0 -0.30999,-0.57915l-0.00215,-0.00086l-0.00232,0.00203l0.00009,0.00023z"/>
   <path  id="svg_100" d="m8.94599,40.70469c-0.25833,0.81824 -0.51261,1.63868 -0.68293,2.47641a10.23561,9.30302 0 0 0 -0.16955,2.72678l0.01111,-0.07161l-0.01516,0.10174c0.01033,0.07599 0.02153,0.15121 0.03341,0.22642c0.00715,0.05064 0.01593,0.10057 0.02471,0.15121c0.01989,0.10996 0.04374,0.21914 0.07001,0.32871a6.54808,5.95147 0 0 0 0.19805,0.63957a6.32351,5.74736 0 0 0 0.66623,1.27186a5.5171,5.01442 0 0 0 2.32348,1.82894l0.00241,-0.0036a7.85315,7.13763 0 0 1 -0.57349,-0.59347a6.39524,5.81255 0 0 1 -0.76732,-1.1954a8.3686,7.60611 0 0 1 -0.51958,-1.81571c-0.01946,-0.13696 -0.03574,-0.27392 -0.0508,-0.41167c-0.00861,-0.081 -0.01671,-0.16208 -0.02471,-0.24309a2.19974,1.99932 0 0 0 -0.03918,-0.34068c-0.14905,-1.69206 -0.17773,-3.39875 -0.48221,-5.07672l-0.00267,-0.00164l-0.00207,0.00164l0.00026,0.00031z"/>
   <path  id="svg_101" d="m9.03485,41.1378a42.55692,38.67946 0 0 0 0.72151,4.20361a5.15251,4.68305 0 0 0 0.10634,0.56264c0.03505,0.17508 0.06768,0.35015 0.10109,0.52523c0.07242,0.37042 0.14639,0.74014 0.22604,1.10837c0.155,0.72057 0.32954,1.44005 0.56195,2.14364l0.00474,-0.0007c0.07087,-0.76033 0.15284,-1.52074 0.20296,-2.28255a11.05072,10.04387 0 0 0 -0.08611,-2.32599a13.36981,12.15166 0 0 0 -1.83412,-3.93571l-0.00207,-0.00078l-0.00267,0.00219l0.00034,0.00008z"/>
   <path  id="svg_102" d="m9.95717,42.4365a19.40701,17.63879 0 0 1 0.83526,3.12483a9.29866,8.45144 0 0 0 0.18496,0.85644q0.09317,0.41127 0.17988,0.82474c0.11194,0.5354 0.20933,1.07291 0.29932,1.61223l0.00474,0a9.14392,8.3108 0 0 0 0.27624,-3.43358a5.95014,5.40801 0 0 0 -0.64952,-1.67993a5.30053,4.81759 0 0 0 -1.12631,-1.307l-0.00207,-0.00055l-0.00267,0.00274l0.00017,0.00008z"/> </g>
</svg>