<svg xmlns="http://www.w3.org/2000/svg" width='100%' height='100%' viewBox='-5 -5 85 85' preserveAspectRatio='none'>
 <g>
  <path d="m39.55775,25.96496c0,0 1.45541,1.01344 1.60096,1.77351c0.14552,0.76003 6.84046,-2.28018 8.29588,-4.05369c1.45541,-1.77351 4.80287,-1.57701 4.80287,-4.8138c0,-1.01344 -0.66402,-3.64202 0.58218,-2.78696c0.24235,0.16636 0.29111,1.52018 0.29111,1.52018c0,0 -0.25469,-1.25099 -0.62767,-0.90263c-0.18212,0.17015 0.2641,2.26725 0.4821,2.92947c0,0 12.18401,-3.29033 14.84528,-2.02685c1.06732,0.50666 4.65738,1.26677 4.56033,3.96923c0,0 -4.9482,2.95293 -5.72465,13.76579c-0.097,1.35119 -6.34724,-1.72024 -10.47901,11.90773c-0.92178,3.04024 -1.16435,1.94234 -1.45544,1.77351c-0.29109,-0.16891 -6.11277,-6.5029 -10.91565,5.57379c0,0 0.24257,-0.08442 0.29109,0.25337c0.04851,0.33783 2.37719,-0.92895 2.47422,1.26686c0,0 -1.08504,-0.85669 -0.84246,-0.01207c0.24255,0.84448 0.11953,1.8128 -0.03077,1.27876c-0.02879,-0.10229 -0.63069,-1.0134 -0.43666,-0.25329c0.19406,0.76003 -0.93228,2.50394 -0.99185,2.24818c-0.23705,-1.01792 0.55524,-2.16377 -0.90017,-3.26158c-1.45544,-1.0979 -5.4821,1.5201 -7.56818,9.62752c0,0 -0.14554,0.42224 -0.43663,-0.25337c-0.29109,-0.67562 -2.32868,-9.71202 -6.5494,-10.13426c0,0 -0.19406,1.26677 -0.87324,1.52014c-0.6792,0.25337 -0.53364,4.1381 -0.87326,2.78691c-0.3396,-1.35123 -0.26943,0.26122 -0.29109,0c-0.07869,-0.95031 0.24889,-2.43369 -0.72772,-1.77351c-0.12793,0.08646 -0.19406,1.43573 -0.43661,0.76012c-0.24257,-0.67562 0.29934,-1.88549 0.63892,-2.39218c0.3396,-0.5067 -1.13167,-0.56266 -0.49337,-1.15485c0.64608,-0.59939 2.4742,1.35127 1.7465,-0.76003c-0.72772,-2.11135 -4.91091,-11.9724 -10.91565,-5.3205c-1.06732,1.18232 -0.72772,-0.25341 -1.3099,-1.52023c-0.58215,-1.26673 -4.66154,-13.33297 -10.18793,-11.90773c-1.3099,0.33787 -0.72772,-1.77347 -1.16433,-2.53355c-0.43666,-0.76007 -3.0726,-14.05427 -5.67614,-12.92118c-0.58218,0.25329 -0.16455,-4.34093 4.80287,-3.80036c0.77623,0.08442 0.29109,-1.01344 1.16435,-0.76012c0.87324,0.25341 11.64334,2.87141 12.80767,3.54703c1.16435,0.67562 2.47422,1.318 2.47422,-2.78691c0,-0.07921 -0.19104,-0.28502 -0.58218,0.25333c-0.17282,-0.26919 1.26138,-1.68906 1.01881,1.01344c-0.24257,2.70246 -0.77279,1.97604 0.14554,2.78687c1.30033,1.1481 2.33059,3.13959 4.36624,3.2937c1.11584,0.08446 6.74264,4.89293 8.00482,4.30706c0.72772,-0.33783 1.69799,-1.0979 1.30987,-1.52018c-0.38809,-0.4222 -1.69799,-3.1247 -1.60096,-4.56039c0.09703,-1.43569 0.38812,-2.53355 0,-3.04028c-0.38812,-0.5067 0.43663,-1.94238 1.16435,-0.25337c0.72769,1.68906 0.72769,2.95583 1.30987,3.04028c0.58218,0.0845 1.6495,-0.4222 2.03759,0c0,0 1.69801,-4.22256 2.61974,-3.54703c0.92178,0.67566 0.19406,1.6046 0.29109,2.28022c0.09703,0.67562 -0.97027,5.74283 -2.03757,5.57387l0.00002,0.00001z" />
 </g>
</svg>