<svg xmlns="http://www.w3.org/2000/svg" width='100%' height='100%' viewBox='-5 -5 85 85 ' preserveAspectRatio='none'>
 <g>
 <path id="svg_1" d="m46.61217,21.9534c0,0 1.5594,-1.2595 2.87258,-1.2595c0,0 -1.39525,-1.09157 0.24622,-2.77091c1.64147,-1.67934 3.28295,-1.5114 5.33479,1.0076c0,0 0.16415,-0.41983 0.90281,-0.67174c0,0 0.49244,-1.42744 2.21599,-1.42744c1.72355,0 1.80562,1.17554 1.80562,1.17554s2.29806,-0.5038 4.10368,0.5038c1.80562,1.0076 4.02161,1.67934 6.64797,1.7633c2.54428,0.08397 4.10368,0.5038 3.36502,1.5114c0,0 -0.16415,0.58777 -0.57452,0.83967s-0.41037,0.58777 -0.49244,0.92364c-0.08207,0.33587 -0.57452,2.18314 -1.31318,2.68694c-0.65659,0.5038 -4.26783,2.01521 -5.66308,2.68694c-1.39525,0.67174 -5.9093,3.77851 -6.48382,4.19834c-0.57452,0.41983 -0.90281,1.17554 -1.39525,1.42744c-0.49244,0.2519 -0.32829,1.2595 -0.32829,1.7633s-0.24622,1.59537 0,2.18314c0.24622,0.58777 0.98488,2.51901 1.31318,3.27471c0.32829,0.7557 0.49244,2.01521 1.31318,2.77091s0.57452,1.34347 1.06696,1.93124c0.49244,0.67174 1.39525,2.09917 1.64147,2.77091c0.16415,0.58777 1.14903,1.84727 1.80562,2.93884c0.65659,1.0076 1.31318,1.7633 1.39525,2.43504s1.47733,1.34347 1.96977,2.68694c0.49244,1.34347 0.32829,1.5114 0,1.93124c-0.32829,0.41983 -0.16415,-0.2519 -0.49244,-0.7557c-0.32829,-0.5038 0,0.5038 -0.41037,0.58777s-0.41037,-1.0076 -0.73866,-1.09157c-0.32829,-0.08397 -0.08207,0.92364 -0.41037,0.92364c-0.32829,0 -0.16415,-0.7557 -0.65659,-0.92364c-0.49244,-0.16793 -0.24622,0.33587 -0.73866,0c-0.49244,-0.33587 -1.39525,-1.0076 -1.80562,-1.42744c-0.41037,-0.41983 -0.82074,-1.42744 -1.31318,-1.17554c-0.49244,0.16793 -0.32829,0.16793 -0.82074,0c-0.49244,-0.2519 -0.98488,0.41983 -1.23111,0.2519s-0.73866,0 -1.23111,-0.41983s-3.69332,-2.18314 -4.84235,-3.02281c-0.90281,-0.58777 -3.28295,-3.77851 -3.28295,-3.77851s-1.23111,-0.83967 -1.39525,-1.34347c-0.16415,-0.5038 0,0.33587 -0.49244,1.17554c-0.49244,0.83967 -1.96977,3.35868 -2.38014,4.11438c-0.41037,0.7557 -0.98488,2.85487 -1.31318,3.35868c-0.32829,0.58777 -0.90281,2.43504 -0.82074,3.02281c0.08207,0.67174 0.65659,1.7633 1.5594,2.09917s2.70843,0.2519 3.03673,0.7557c0.41037,0.58777 1.06696,1.59537 0.57452,1.5114c-0.41037,-0.08397 -1.14903,-0.83967 -1.39525,-0.83967s0.65659,0.92364 0.24622,1.0076c-0.41037,0.08397 -1.47733,-0.7557 -1.72355,-0.83967c-0.16415,-0.08397 0.49244,0.7557 0,0.83967c-0.49244,0.08397 -1.39525,-0.5038 -1.96977,-0.58777c-0.57452,-0.08397 -3.44709,0.2519 -4.3499,0.08397c-0.90281,-0.16793 -1.14903,-0.7557 -1.23111,-1.34347c-0.08207,-0.58777 -0.57452,-1.09157 -0.82074,-1.59537c-0.24622,-0.41983 -1.80562,-4.03041 -1.80562,-4.03041s-1.72355,-3.77851 -1.64147,-5.62578c0.08207,-1.84727 -0.32829,-2.85487 -0.24622,-3.61058s-3.28295,2.01521 -4.6782,2.26711s-1.14903,1.0076 -1.14903,1.67934c0,0.58777 0.73866,3.35868 0.82074,4.19834c0.08207,0.92364 0.49244,3.19074 0.65659,4.03041c0.08207,0.92364 0.82074,1.59537 1.80562,1.84727c0.98488,0.2519 2.62636,0.83967 2.87258,1.59537s-0.32829,0.16793 -0.90281,0.08397c-0.65659,-0.08397 -0.90281,0.5038 -1.39525,0.33587c-0.49244,-0.16793 -1.31318,-0.41983 -2.13392,-0.41983s-2.70843,0.33587 -3.85746,0.16793c-1.14903,-0.08397 -1.80562,-0.41983 -2.05184,-0.92364c-0.32829,-0.5038 -0.90281,-1.84727 -1.5594,-2.60297c-0.65659,-0.7557 -1.64147,-2.60297 -1.88769,-2.93884c-0.24622,-0.33587 -1.80562,-2.77091 -2.29806,-3.77851c-0.49244,-1.09157 -1.96977,-2.18314 -2.38014,-2.43504c-0.41037,-0.2519 -1.5594,-0.5038 -2.05184,0.08397c-0.49244,0.58777 -2.70843,3.61058 -2.87258,4.28231c-0.16415,0.67174 -1.80562,4.28231 -2.46221,5.12198c-0.57452,0.83967 -1.64147,1.59537 -1.31318,2.09917c0.32829,0.5038 2.54428,0.58777 2.95465,1.34347c0.41037,0.83967 0.08207,0.67174 -0.49244,0.58777s-0.90281,0.08397 -1.47733,0.08397c-0.49244,0 0.08207,1.0076 -0.65659,0.58777c-0.73866,-0.41983 -1.72355,-1.2595 -1.96977,-1.0076c-0.24622,0.16793 -0.82074,0.5038 -1.31318,0.33587c-0.82074,-0.2519 -2.54428,-0.2519 -3.28295,-0.08397s-0.73866,-1.34347 -0.82074,-2.01521c-0.08207,-0.67174 -0.08207,-4.53421 0.16415,-5.54182c0.24622,-1.0076 -0.08207,-3.19074 0,-4.53421c0.08207,-1.34347 0.49244,-7.30512 0.73866,-8.73256c0.16415,-1.34347 0.90281,-8.06082 3.61124,-12.4271s5.25272,-7.72495 11.57239,-9.06842s10.5875,1.84727 14.93741,1.7633s3.44709,-0.41983 5.58101,-1.2595s4.6782,-1.67934 7.22248,-0.83967c2.05184,0.58777 2.46221,1.5114 2.46221,1.5114z"/> 
 </g>
</svg>