<svg xmlns="http://www.w3.org/2000/svg" width='100%' height='100%' viewBox='-5 -5 85 85' preserveAspectRatio='none'>
 <g>
  <path d="m22.02085,74.53968c-3.01035,-1.19873 0.91793,-3.5954 2.40515,-4.65557c1.00177,-0.81647 -5.74121,0.11453 -2.89438,-2.71976c3.12338,-2.31547 1.94353,-6.23272 -1.1785,-8.05361c-4.29657,-2.56174 -9.80934,-4.75423 -11.39665,-9.53769c-1.60501,-2.97941 2.20129,-6.11733 -0.2469,-8.80781c-1.97057,-3.49331 0.33162,-7.13609 1.76259,-10.3721c0.65807,-4.47636 -3.37315,-8.01631 -5.59008,-11.69388c-2.74506,-3.51437 -4.32743,-7.60943 -4.55482,-11.87696c-0.59698,-1.82156 0.06368,-4.6504 2.44752,-2.19457c4.99212,3.52974 10.47263,6.87904 13.96653,11.71041c0.66136,1.74513 3.30956,6.80301 3.45744,2.22281c0.06926,-6.29516 2.24665,-13.16098 7.82604,-17.37954c3.795,-3.0535 5.84163,2.29305 6.01871,5.00997c0.98777,5.34575 -0.64958,10.64692 -2.47415,15.69671c-0.66982,2.3468 -2.4142,8.77788 2.5608,6.40663c11.46061,-3.90712 25.34598,0.19641 32.81093,8.58973c3.43157,4.06394 4.93438,9.28517 4.90045,14.29842c-1.76699,2.94526 4.79832,-0.05517 2.41937,3.34277c-1.40046,3.76411 -5.35732,5.80657 -8.12899,8.6477c-2.8204,2.27664 -0.72775,7.14419 -5.39186,7.86142c-6.80551,1.85256 -13.95186,2.66405 -21.03664,3.13639c-3.96462,0.71723 -5.88867,-3.28591 -2.08872,-4.95012c1.8218,-2.47993 7.03391,-2.65372 8.58254,-3.04659c-3.7007,0.31973 -8.26459,-1.01404 -11.38298,1.00977c-1.88853,2.70718 -3.40108,6.27041 -7.36136,7.04312c-1.77974,0.43647 -3.60963,0.7865 -5.43203,0.31238l0,0z" />
 </g>
</svg>