<svg xmlns="http://www.w3.org/2000/svg" width='100%' height='100%' viewBox='-5 -5 85 85' preserveAspectRatio='none'>
 <g>
  <path d="m32.95413,36.11211c0.26765,0.2028 0.83407,-0.1813 1.10925,-0.22876c-0.30972,-0.46097 0.85689,-2.70676 0.45425,-3.52232c-0.12389,-1.8439 -3.25979,-6.00611 -3.65472,-6.4891c0.15065,-0.3239 1.83896,-0.0225 1.78856,0.02397c-0.70453,0.64976 2.37745,4.37877 2.73338,6.53604c0.65584,-0.04156 1.51732,-0.32288 1.89964,0.14184c0.35702,-0.44665 3.11179,-3.85933 3.26239,-6.80823c0.02158,-0.42259 1.51672,-0.15515 1.23547,0.10243c-0.45083,1.83601 -3.63004,6.99092 -3.87841,7.1786c0.28906,1.60748 0.17203,1.71766 2.01835,2.96759c0.83092,-2.23381 2.60137,-4.12998 4.22292,-6.01723c1.831,-2.11901 3.05983,-4.14899 5.07679,-6.35489c2.65516,-2.80212 6.0461,-5.35896 9.15179,-6.88525c2.1605,-1.06177 5.78038,-1.972 6.3353,-2.03158c1.02803,-0.11426 1.95769,-0.09398 3.17624,0.1133c1.798,0.30583 3.5536,0.47664 5.44132,1.49112c1.77501,1.30202 1.16141,2.93383 0.83045,4.46234c-2.73381,3.45157 -5.53382,7.5853 -6.41566,11.81432c-0.29649,1.56592 -0.82958,4.2643 -2.08775,5.9593c-2.02271,2.60724 -4.49821,2.51082 -6.8241,2.86425c1.41721,0.46457 2.95433,1.98151 4.33333,3.50584c2.15118,2.3976 3.19938,4.85637 2.64386,7.53316c-0.11826,0.56145 -2.16937,4.82 -3.1726,6.15623c-3.8078,5.0881 -8.9918,8.53877 -13.17,7.97874c-1.50463,-0.20167 -5.65491,-3.81854 -6.40109,-4.88579c-1.85236,-2.64937 -3.37386,-5.845 -3.4364,-8.63502c-0.23026,-0.26339 -0.51186,-0.28285 -0.3877,-0.63524c-0.23073,0.80692 -0.96341,3.43472 -2.04811,5.09599c-1.56816,2.40172 -3.00364,-1.18849 -3.58467,-4.1c-0.19919,-0.99806 -0.053,-1.17084 -0.28532,-1.76764c-1.09852,0.4772 -0.52011,1.86086 -0.95122,2.9786c-0.3655,0.97335 -2.00234,3.94633 -2.45436,4.62409c-1.44492,2.16649 -4.68937,5.44491 -7.04234,6.23157c-2.18384,0.73013 -4.03474,0.62769 -5.78987,-0.40293c-2.26382,-1.3293 -5.45421,-4.41658 -7.41695,-6.92686c-2.48471,-3.10608 -4.65641,-7.77284 -2.58948,-11.06005c1.31927,-2.05103 3.80257,-5.10762 6.22923,-5.85871c-1.71299,-0.24019 -5.50294,-1.53273 -6.9124,-5.12285c-0.45239,-1.13825 -0.62021,-2.90802 -0.73528,-4.17426c-0.18722,-2.09053 -1.02035,-4.49236 -1.71195,-6.55079c-0.55596,-1.8819 -1.5386,-4.29117 -2.56698,-6.35009c-1.07773,-2.16062 -1.96131,-5.73329 -0.08573,-7.49257c0.65517,-0.61464 2.68385,-1.33152 3.10783,-1.38264c1.48203,-0.18118 3.50117,0.65206 5.00005,1.15195c0.98199,0.33023 5.29072,2.09268 6.48231,3.06311c7.85552,6.39752 13.44137,14.3665 17.07035,21.70841l0.00003,0.00002z"/>
 </g>
</svg>