<svg xmlns="http://www.w3.org/2000/svg" width='100%' height='100%' viewBox='-5 -5 85 85' preserveAspectRatio='none'>
 <g>
  <path d="m26.24139,74.65224c2.60365,-2.04872 -3.30427,-3.78188 -4.18155,-5.71661c-2.58218,-3.79862 -3.38663,-8.84775 -4.10603,-13.53712c1.23641,-2.51979 0.73561,-5.12301 1.1836,-7.74188c2.19024,-3.8884 3.40188,-8.45006 5.60302,-12.32449c2.45114,0.61876 5.10162,2.99739 7.55712,3.90115c2.21667,4.76635 -1.83728,8.73535 -1.36064,13.34987c0.92977,4.30221 -1.56104,7.88757 -2.06164,11.89727c0.01745,3.79314 2.90144,7.63296 6.05317,5.02518c-0.15992,-2.76612 -4.65571,-3.62364 -2.64309,-7.51386c0.66224,-4.02213 2.83293,-7.24228 4.47429,-10.62117c-0.92736,-3.96188 0.30684,-8.98389 2.3963,-11.95386c2.12151,2.45128 3.58679,6.76146 3.91141,10.19388c0.04111,3.93472 4.42148,6.56787 4.33818,11.20198c0.32729,4.09702 1.93142,7.9984 4.15609,10.21928c1.16328,2.89188 8.38172,1.38327 4.53718,-2.05232c-3.17475,-3.42679 -6.82748,-7.06085 -7.30956,-12.52181c-1.31703,-3.24167 1.71023,-7.83507 -2.00755,-9.18915c0.2304,-4.39275 -0.74242,-9.37904 1.35055,-13.29719c3.0147,-3.08153 7.42981,-3.30996 10.31297,-6.71899c3.49864,-2.77409 5.48475,-7.31912 6.6039,-12.02905c1.69544,-2.27164 4.32856,-7.1818 7.25785,-4.62915c2.87398,2.12562 0.75287,-3.22154 2.40325,-4.40144c-1.3619,-5.87779 -6.88915,-3.05588 -10.33887,-4.52236c-3.13205,-2.50895 -6.37493,-1.06237 -8.65925,1.80342c-1.7108,0.92204 -0.78526,3.33561 0.89311,2.42769c-1.20386,4.78364 -2.86322,10.04791 -6.51222,12.88073c-4.18674,2.19109 -6.52211,-4.30058 -9.00814,-7.11818c-2.71344,-3.17657 -4.39576,-7.81107 -7.81339,-9.99173c-4.75367,-1.43968 -8.36532,3.55292 -11.95552,6.36399c-3.56303,2.13366 -7.84139,3.18811 -10.27216,7.34977c-4.03401,5.79911 -1.4767,14.54853 -5.71852,20.25122c-1.74718,3.16238 -5.5938,5.4398 -5.06521,9.78611c1.87347,4.65451 0.23157,10.20988 1.25454,15.21782c0.75601,3.61923 1.8754,8.26822 5.54002,8.8057c2.88293,2.18605 4.45311,-2.39307 1.40053,-3.71926c-3.68487,-1.95824 -4.1884,-7.47035 -4.48444,-11.70448c-0.81274,-4.18985 1.96293,-6.96185 3.10925,-10.2505c-0.96803,-3.21235 2.44545,-7.57884 4.61055,-6.92857c-1.61812,2.97317 -3.98065,6.83131 -0.15062,9.28015c-0.05028,0.15026 0.56194,-2.74449 1.54816,-3.61425c-0.14722,-2.26786 -2.07045,-4.19862 -0.03048,-6.49327c3.57896,-2.85428 2.7901,5.42527 2.047,7.77301c-0.03932,3.60528 -4.07945,6.46871 -2.01652,10.08174c2.25999,4.45614 3.32044,9.57181 4.18765,14.62051c1.24438,4.18805 4.38815,7.25101 8.31934,6.16871l0.64635,-0.00845l0,-0.00002z" />
 </g>
</svg>