<svg xmlns="http://www.w3.org/2000/svg" width='100%' height='100%' viewBox='-5 -5 85 85' preserveAspectRatio='none'>
 <g>
  <path d="m9.57318,19.78022c0.38097,-0.09485 3.14801,3.77424 3.2002,4.55389c0.07619,1.13846 1.82869,1.13846 2.28585,1.13846c0.45719,0 3.73358,2.46668 5.94324,5.12313c2.20969,2.65642 8.68628,0.18974 9.14344,0c0.45719,-0.18977 21.33472,-5.21799 26.97317,-1.7077c2.70799,1.68588 8.04569,-4.27033 8.74343,-16.65014c-0.28573,-8.25389 -6.24706,-8.56365 -7.4862,-6.04811c-0.91435,1.11474 -2.47635,0.7827 -2.09536,-1.25706c0.34643,-1.36591 2.66682,-5.57375 6.95282,-3.72374c3.6335,1.56837 5.73512,5.34063 6.51471,10.88659c0.51431,11.95394 -6.68616,20.77707 -6.68616,20.77707c0,0 0.57146,3.13081 1.37153,5.12313c0.80004,1.99232 1.02862,8.82313 0.91432,9.67696c-0.11428,0.85387 3.42881,5.55007 4.57173,5.69235c0.99054,0.56924 3.77169,11.1001 3.88597,13.37702c1.02865,0.64038 -0.11428,3.84234 -1.37151,4.26927c-1.25723,0.42693 -1.60011,-2.56157 -1.60011,-3.98465c0,-1.42308 -1.25723,-8.1116 -4.80031,-8.82313c-3.54308,-0.71155 -6.62898,-3.13081 -6.62898,-3.13081c0,0 -0.22861,1.42311 -0.68577,1.99235c0,0 1.14293,2.41923 1.14293,5.97694c-0.11428,1.56539 -1.94297,6.4039 -3.2002,6.83084c0,0 -2.05727,3.98465 -2.97162,3.98465c-0.91435,0 -2.51446,1.42308 -5.02889,-0.28462c0,0 0.45716,-3.55771 2.74304,-2.56157c0,0 5.37178,-5.1231 2.74302,-7.40005c0,0 -1.60009,-2.84616 -2.51444,-3.98465c-0.91435,-1.13846 -1.82869,-2.98847 -2.05727,-5.1231c0,0 -7.65763,-0.56924 -9.60063,-1.13849c-1.94297,-0.56921 -5.48606,0.85387 -5.48606,1.7077c0,0.85387 0.57146,8.96547 1.60009,10.53086c0,0 0.34288,1.99232 0,2.56157c-0.34288,0.56921 1.25723,5.26542 -1.82869,4.83848c-2.91447,0.64038 -4.34313,-2.20577 -0.91432,-3.13078c0.17143,-3.05964 -4.34315,-16.00973 -7.31477,-14.23089c-3.88597,0.71155 -2.57159,-3.48654 -6.4004,3.13081c-4.00027,5.83463 -10.85786,9.96159 -11.20072,12.52315c0,0 -2.05727,-0.56924 -2.51446,1.42308c0,0 -5.37178,0.85387 -5.02889,-0.28462c0.34288,-1.13846 0.62861,-3.48654 2.74304,-2.56154c0,0 4.80031,-2.34812 9.37202,-14.51551c0,0 -0.57146,-3.13078 0.22858,-5.69235c0.80007,-2.56154 -0.45716,-13.0924 -6.17182,-12.52315c0,0 -2.13347,0.94872 -3.42878,-3.4154c0,0 -0.53338,-0.85387 0,-1.7077c0.53335,-0.85387 1.82869,-2.18206 2.05727,-3.13078c0.22858,-0.94875 0.76196,-2.37183 3.65736,-3.70006c1.37153,-1.77884 -0.15236,-5.31284 0.22861,-5.40773z" />
 </g>
</svg>