<svg xmlns="http://www.w3.org/2000/svg" width='100%' height='100%' viewBox='-5 -5 85 85' preserveAspectRatio='none'>
 <g>
  <path d="m17.16798,75.02152c-0.23048,-2.90353 0.44096,-5.91737 -0.6809,-8.75353c-1.82391,-6.2378 -5.8557,-11.72084 -7.67282,-17.94459c-0.78579,-4.17579 -2.11636,-8.64617 -0.54704,-12.78241c2.26936,-5.08166 6.01384,-9.71847 11.00997,-12.7902c2.80285,-1.70751 8.1689,0.45056 8.18126,-4.10315c0.88625,-5.19287 3.77647,-10.0168 7.45732,-13.98709c4.37009,-4.34777 11.7369,-5.16375 17.43684,-2.66451c3.22855,1.08484 6.58705,2.96344 7.30325,6.29762c-0.49922,3.28822 3.26895,5.56847 3.03691,8.58276c-3.42078,-0.0084 -6.70911,0.56041 -9.56674,2.48406c-2.00589,0.96587 -6.47045,1.51138 -3.15281,3.94354c3.10947,5.27486 3.0309,11.93412 0.00598,17.23447c-2.01589,4.12897 -4.59409,8.23772 -8.89893,10.68698c-3.26888,2.27373 -6.79532,4.20783 -10.44083,5.91231c-2.84461,2.77764 1.30324,6.77578 2.37575,9.65033c0.82302,0.87982 1.10666,2.69599 2.72963,2.25874c3.73909,0.06317 8.01377,-0.47994 11.00397,1.94139c-2.18768,2.05253 -6.33422,-0.35045 -9.30183,1.19295c-2.14782,1.43092 -4.66326,1.84844 -7.67217,1.8837c-3.23781,1.06908 -6.66145,-0.89815 -9.56112,0.41491c-1.00633,0.10248 -2.05069,0.8454 -3.04568,0.54172l0,0l-0.00001,0zm14.25739,-4.02887c-1.18453,-2.45442 -5.02414,0.3899 -1.4929,0.5787c0.56454,-0.11703 3.13419,0.75501 1.4929,-0.5787zm-4.36676,-1.07464c3.62757,-2.32022 1.89446,-6.33202 -0.43798,-8.85501c-0.7932,-0.73937 -1.15816,-2.22247 -2.23445,-2.47019c-1.64718,0 -3.29435,0 -4.94152,0c-1.13769,2.11038 -0.60765,4.43977 0.21824,6.56849c0.85878,2.7049 1.50764,7.10887 5.7637,5.71658c0.65573,-0.11429 1.19845,-0.51554 1.632,-0.95987z"/>
 </g>
</svg>