<svg xmlns="http://www.w3.org/2000/svg" width='100%' height='100%' viewBox='-5 -5 85 85' preserveAspectRatio='none'>
 <g>
  <path d="m61.86973,0.39248c-3.0373,0.68124 -5.38234,5.17095 -5.165,8.84843c0.35903,4.18649 4.46509,1.56158 5.67662,0.37796c-0.72425,3.50452 -6.508,4.22482 -6.1832,-0.03777c-4.40535,3.98229 -7.7056,10.22474 -13.16223,12.24242c-4.92392,1.39993 -10.08488,0.93748 -15.0501,0.11898c-3.01856,-0.34644 -5.89995,-2.21463 -8.94278,-1.82349c-3.25928,1.09513 -5.87411,4.01458 -9.12558,5.16558c-3.42828,1.83904 -2.11885,6.91644 -2.41596,10.5135c0.09169,5.35487 -0.71182,11.0279 -3.7589,15.11252c-1.77154,3.21721 -1.93307,7.45081 -3.35616,10.80837c4.72953,-0.06029 1.87849,-7.80518 4.48069,-10.95309c3.63067,-2.059 3.52535,-7.71483 4.03187,-11.87945c0.36931,-1.68315 0.18553,-7.64874 1.64756,-6.84412c1.79734,4.94714 2.82084,10.47625 2.41408,15.89504c-2.37893,2.73359 -6.16083,4.68058 -5.61384,9.71917c0.18039,4.56367 -2.08642,7.84954 -3.85664,11.4314c1.13714,2.1019 0.25048,6.31087 3.51432,5.07842c2.18371,0.51502 3.26349,-0.72486 1.10936,-2.56874c-3.25603,-3.83171 1.27856,-8.89487 3.03883,-12.24927c1.81916,-3.7452 5.51755,-3.92411 8.22245,-6.14165c3.73614,-2.73182 6.46795,-6.95063 8.94531,-11.21791c2.16956,2.82464 -3.4252,5.41128 -4.25002,8.29568c-1.79941,2.36355 -5.01837,6.66516 -0.74662,8.128c3.30217,1.38386 6.41305,4.20571 6.31369,8.63089c0.0549,3.00259 6.0701,5.72249 4.83891,0.84575c-2.08157,-4.55256 -7.05582,-6.34043 -8.37975,-11.49923c-0.91407,-3.95943 2.89127,-5.8774 4.71421,-2.66609c3.22763,-0.43261 6.61744,-3.06179 10.15865,-3.46568c3.65057,-1.66433 4.49861,4.43081 7.42276,6.02787c2.43748,2.95183 4.6755,6.68935 4.36755,11.12409c0.29692,3.75362 2.37189,7.67523 5.95583,7.28894c4.18267,-0.8568 -1.27001,-6.31345 -3.18567,-7.56776c-2.7757,-4.05492 -2.31706,-9.81977 -4.04468,-14.48901c-1.24536,-1.37863 0.05648,-8.06758 0.10131,-3.28229c-0.22418,5.48376 6.15763,2.33668 5.72106,-1.85761c1.0859,-3.34121 -2.88429,-1.27902 -2.35923,-4.64822c-0.43094,-4.19288 -0.18512,-9.37753 -3.15516,-12.25077c-1.71131,-2.06119 -1.19082,-2.26221 0.67271,-0.63189c3.63349,2.30484 2.92761,7.56066 3.18246,11.70308c1.0521,5.42881 5.30483,-1.59896 5.18024,-4.54303c0.7287,-6.3928 3.21706,-12.95119 8.07156,-16.06524c-1.30463,-0.78279 -7.70488,2.05394 -7.16793,-1.51497c2.63883,2.7453 6.27058,-0.24419 9.38977,0.56497c4.1382,0.20808 5.16593,-6.9508 0.63037,-7.30088c-2.93364,-2.12875 -5.45967,-5.89134 -9.25111,-5.59861c-5.49654,2.25643 -2.10108,-3.99841 -0.63161,-6.82429l0,0zm5.37964,2.8976c-0.41376,1.76749 -3.14064,5.37478 0.14184,3.91516c0.47109,-1.1924 0.27712,-2.73592 -0.14184,-3.91516zm-0.87128,8.03508c1.47135,2.99436 -2.93913,0.31408 0,0zm6.07363,3.09615c-0.51045,1.27627 1.37296,1.51487 -0.08105,1.51394c-0.76912,1.25067 -1.10351,-1.6161 0.08105,-1.51394z" />
 </g>
</svg>