<svg xmlns="http://www.w3.org/2000/svg" width='100%' height='100%' viewBox='-5 -5 85 85' preserveAspectRatio='none'>
 <g>
  <path d="m6.6488,67.70646c-2.81158,-0.34788 -0.06524,-5.72728 -1.12574,-8.21864c-0.01072,-3.66733 -1.12291,-7.27887 -0.76102,-10.9267c2.21261,-6.43128 0.36881,-13.45517 -0.11636,-20.07976c-0.21934,-1.46263 -0.21289,-5.21952 -0.75813,-1.87946c-1.50994,5.63152 -0.03497,12.59235 -1.32642,18.29584c-2.15844,3.1755 -3.78882,-1.86254 -1.72836,-3.7944c2.40723,-4.63866 1.82542,-10.88664 1.90637,-16.67043c-0.10362,-3.65697 1.09488,-8.24944 4.64182,-8.3537c3.03444,-0.28093 5.90781,1.48915 8.96904,1.27017c8.92819,0.1703 17.94442,0.2653 26.75965,-1.72625c4.40012,-1.24128 8.78074,0.9501 13.18775,0.06133c2.47654,0.32741 3.78672,-1.09009 2.69522,-3.75123c1.84469,-1.55784 3.26407,2.95426 4.0834,-1.06464c2.97077,-2.50622 3.38483,4.89261 6.67485,2.80302c3.96853,0.62953 -1.72441,4.97501 1.59835,7.15012c2.00893,1.89741 5.0853,6.59738 1.08877,7.95199c-3.43607,-0.29541 -6.87997,-0.0195 -10.31812,0.18417c-1.5913,3.25272 -4.9014,5.69246 -4.53872,9.95473c-0.27487,5.08473 -3.18459,10.0978 -7.16767,11.67698c-1.7022,-0.4125 -2.4448,0.26125 -2.23212,2.39547c-0.87946,2.78881 -1.03448,5.73033 -0.93014,8.6969c-0.26032,1.63545 0.29295,2.90742 1.07967,4.16712c-0.92522,1.9623 -6.2262,0.79997 -4.21782,-2.91239c0.5136,-4.86915 -0.09073,-9.75852 -0.54102,-14.59968c-2.11256,-1.83949 -4.67367,-1.166 -6.81183,0.31216c-4.71697,2.11774 -10.17686,4.1229 -15.01504,1.40496c-2.69733,-0.92214 -6.76581,-1.60804 -8.77061,1.17704c-0.90208,4.20023 -0.66093,8.71111 -1.42989,12.97394c-0.01294,2.2287 1.719,4.14218 -1.21517,3.52018c-1.22622,0.03448 -2.45575,0.08175 -3.6807,-0.01885l0.00001,0l-0.00002,0.00001zm2.50368,-4.74322c0.48258,-1.99605 -0.69604,-7.06722 -0.79706,-2.33723c-0.40143,1.50071 0.10909,8.70853 0.70882,3.92357c0.03794,-0.528 0.06487,-1.0571 0.08824,-1.58633l0,-0.00001z" />
 </g>
</svg>