<svg xmlns="http://www.w3.org/2000/svg" width='100%' height='100%' viewBox='-5 -5 85 85' preserveAspectRatio='none'>
 <g>
  <path d="m11.12454,3.7755c2.25776,-2.81408 7.39667,-3.31377 11.28979,-3.69447c4.34136,0.31453 7.68733,3.04288 10.23259,5.68128c2.96086,2.15652 6.57584,3.98651 8.05772,7.14387c3.74667,1.49663 8.16987,2.29715 10.46325,5.49928c3.46635,3.61229 5.46395,7.9846 7.27116,12.22018c0.28697,3.15752 2.01766,6.03802 2.6072,9.16706c1.01101,3.10213 1.81695,6.16889 2.90632,9.24363c1.21071,3.19666 2.93073,6.23865 4.13599,9.43979c2.20132,2.80924 4.20549,5.77323 5.57219,8.9018c-3.2702,-0.22345 0.30205,3.98692 0.91535,5.64674c0.89422,3.41632 -4.00582,1.46042 -4.86269,-0.11725c-3.02636,2.30798 -9.22219,2.8262 -11.96469,-0.20301c-2.88895,-3.06927 -4.48455,-6.96371 -8.47249,-9.18554c-1.56801,-1.05223 -3.08938,-5.6469 -3.65054,-1.58908c1.99112,4.03724 -5.84485,1.73621 -8.62816,2.46123c-4.98854,-0.80874 1.89374,-3.10733 4.01326,-2.83501c1.99148,-1.59757 5.30571,-4.2732 0.54851,-5.11184c-3.25798,-1.04423 -7.4347,-3.69231 -9.26641,0.24938c-2.30005,0.98085 -6.42226,5.63409 -1.85653,5.97701c1.84494,3.04445 -5.32442,0.84239 -7.32632,1.56249c-1.88748,0.47975 -6.59174,-0.36142 -2.21035,-1.13108c3.76962,-0.49895 5.56692,-4.23191 7.93358,-6.49309c-0.07848,-2.90108 -2.95892,-5.20353 -5.11797,-7.39394c-2.29682,-3.0874 -5.50156,-5.73185 -7.09745,-9.11093c-1.04684,-3.50875 -3.03993,-6.75284 -4.05073,-10.26966c-1.14117,-3.52438 -2.44981,-7.49839 0.0059,-10.87572c1.11927,-2.96313 1.58533,-5.72767 -0.76349,-8.16663c-3.24548,-2.12663 -7.85818,-1.2737 -11.60039,-2.68398c-0.45103,-2.27772 5.5405,-3.14678 8.14455,-3.65556c0.98865,-0.02768 1.74536,-0.69435 2.77083,-0.67696l0,0.00001z" />
 </g>
</svg>