<svg xmlns="http://www.w3.org/2000/svg" width='100%' height='100%' viewBox='-5 -5 85 85' preserveAspectRatio='none'>
 <g>
  <path d="m74.68689,6.77595c-2.07529,-4.6738 -6.40063,-3.83031 -9.6199,-4.89198c-2.67304,-1.56292 -6.7669,-3.0612 -8.6688,1.4092c-2.53808,4.17237 -4.79078,8.67143 -6.79551,13.37274c-4.20422,6.49783 -9.30932,11.70809 -14.44097,16.62408c-4.32271,2.9956 -9.05506,5.33173 -12.55435,10.21262c-6.64496,6.01271 -14.73962,7.1089 -22.08675,10.63372c1.3023,0.63871 7.06793,-1.6827 3.19231,0.85933c-2.88337,1.33947 1.13481,2.58429 2.4179,1.69064c-1.01309,1.52804 -1.29176,1.65299 -0.04584,1.63c-2.26349,1.78412 5.02642,-0.55411 1.01219,1.94284c-1.74769,0.72095 -6.04507,7.37167 -2.10458,4.37548c3.66361,-2.15055 7.56891,-3.23229 11.38001,-4.71029c-2.85043,4.1334 -6.91247,6.71827 -8.87156,11.95927c0.04453,1.35277 3.03245,-2.74867 4.29583,-3.42054c7.18441,-6.12444 14.71198,-11.80053 22.80534,-15.10721c1.10525,0.37553 1.32139,4.55029 3.47561,2.416c0.18909,2.66014 4.92079,-4.17273 3.68509,1.1564c2.04927,-4.56304 -0.00368,4.95382 1.89318,6.39461c0.96804,1.80356 4.94341,4.29309 1.70285,4.91113c-1.43228,3.0228 2.00796,-1.21257 2.75918,1.61931c2.80739,1.43825 0.76242,2.91281 -1.26971,2.04191c-1.55742,-0.29335 -1.87875,2.59356 -0.30454,0.80219c1.87981,1.81784 4.86531,1.16493 7.26238,1.94644c2.39549,0.28025 5.29922,-3.45976 6.20712,-2.55321c-2.208,-2.23495 -5.4043,0.49395 -7.82771,-1.23116c-0.51111,-2.31926 5.68054,0.83006 5.69307,-3.09019c2.90029,-0.38071 -2.43913,-0.90907 -3.47522,0.01578c-3.56858,0.26913 -5.39945,-4.4102 -7.91168,-7.06705c0.07608,-5.51438 2.94362,-10.25171 5.9448,-13.36576c3.91557,-3.32566 7.93288,-7.60913 9.04182,-14.24659c1.14964,-5.91124 1.78981,-12.0025 2.31246,-18.06431c0.70705,-3.91119 2.73937,-7.52309 5.85675,-7.23131c1.68119,-0.33048 3.36851,-0.6049 5.03921,-1.0341l0,0.00001z" />
 </g>
</svg>