<svg xmlns="http://www.w3.org/2000/svg" width='100%' height='100%' viewBox='-5 -5 85 85' preserveAspectRatio='none'>
 <g>
  <path d="m12.65298,29.83551c0,0 -2.22885,-4.46162 -3.86944,-5.92839c-1.64141,-1.46588 -3.34082,-3.24982 -4.04428,-4.07871c0,0 -1.40774,-0.12793 1.46493,3.37775c0,0 0.46979,1.0199 0.46979,1.40192c0,0 -1.34809,-1.27487 -1.81788,-1.52985c-0.46897,-0.25497 -0.93795,-0.95505 -1.0556,-1.21091c0,0 -0.05801,1.08298 0.64627,1.91187c0.70183,0.82889 4.04346,5.22743 4.04346,6.94829c0,0 -3.04751,1.21091 -3.57531,1.27576c-0.5278,0.06308 -2.1112,-1.02079 -2.63818,-2.0398c0,0 -0.41096,1.65778 0.52698,2.8678c0,0 -2.81302,0.70096 -1.64059,5.99236c0,0 0.58499,-0.70185 0.99514,-0.70185c0,0 2.81547,2.16684 5.15952,2.10288c2.34487,-0.06308 4.39642,-0.06308 5.56804,-0.38202c0,0 1.64141,1.78482 5.4512,2.16773c0,0 1.64222,0.70007 1.64222,2.74076c0,2.03891 -0.17648,2.99485 -0.64463,4.01475s-1.23289,2.4849 -1.23289,2.99573c0,0.50906 -1.28845,2.29477 -1.58176,2.48578c-0.2925,0.1919 -1.34728,0.31805 -1.46493,1.27576c0,0 0.82029,-0.25497 1.52294,-0.06397c0.70346,0.19101 3.40046,0.38291 3.69378,0.19101c0.2925,-0.19101 3.10633,-4.90671 3.34082,-5.86442c0.2353,-0.95593 1.28927,-4.65263 1.28927,-4.65263l0.7631,0c0,0 0.5278,3.2516 0.87912,4.39765c0.35214,1.14783 0.41096,2.54975 0.41096,3.12278c0,0.57392 -0.35214,1.53252 -0.99759,1.97761c-0.64382,0.44687 -1.17162,1.08387 -1.11279,1.46588c0,0 0.46897,-0.06308 1.11279,-0.06308c0.64545,0 3.16598,0.06308 3.57776,0.06308c0.40933,0 1.52294,0.06308 1.52294,-0.38291s0.46816,-4.0796 0.46816,-4.58955s0,-2.99662 0,-3.69758s0,-1.72086 0,-1.91098s0,-0.44687 0,-0.44687s7.50194,0.25586 9.319,-0.50906c0,0 -0.82029,3.76066 -0.82029,5.41844s-0.82111,2.86869 -1.58258,3.44172c-0.76229,0.57392 -3.45929,1.65778 -3.45929,2.54975c0,0 2.40369,-0.31894 3.16598,0c0.7631,0.31805 4.33923,0.25409 4.63091,0.06397c0.29413,-0.1919 3.22399,-8.67004 3.22399,-8.67004s1.05396,2.86869 1.93308,3.69669c0.87912,0.82978 1.11361,1.46677 0.93713,2.16684c-0.17566,0.70185 0.23449,0.95771 -0.5278,1.33884c-0.76147,0.3838 -1.99273,0.76581 -1.99273,1.33884c0,0 4.39724,0.38291 5.04105,0.31805c0.6479,-0.06397 0.23857,-1.52896 0.23857,-1.52896l1.69942,-4.01652c0,0 -0.87912,-2.67857 -1.87589,-3.69758s-1.29008,-2.42182 -1.34809,-3.18585c-0.05883,-0.76492 -0.05883,-0.76492 -0.05883,-0.76492s2.28522,0.31716 4.33759,2.86869c2.05074,2.54975 6.2715,5.09861 7.85408,5.99147c1.5834,0.89197 9.14334,3.69669 10.55108,3.69669c1.40855,0 2.1112,-0.38291 1.5834,-0.70185c-0.5278,-0.31805 -2.34487,-0.95505 -2.34487,-0.95505s-3.5173,-1.97672 -3.98627,-2.48667c-0.46897,-0.50906 -3.63332,-2.61194 -6.09665,-7.64747c-2.46088,-5.03642 -5.5664,-13.57675 -6.97414,-15.67963c-1.40774,-2.10377 -5.15789,-7.45646 -14.47934,-6.9474c-9.31982,0.50995 -12.3085,2.54975 -12.3085,2.54975s0.05801,-0.31894 -0.05964,-0.63788c-0.11683,-0.31805 -0.46816,-0.06308 -0.70183,0c0,0 0.3505,-0.828 0.17566,-1.21002c0,0 -0.58581,-0.31983 -0.82111,-0.06397c0,0 0.41015,-0.51084 0.17566,-0.82889c0,0 -0.46816,-0.06397 -0.76229,0.19101c0,0 0.05801,-1.52985 -0.35132,-1.97583c-0.41178,-0.44598 -0.29331,0.50906 -0.41178,1.08298c-0.11765,0.57392 -3.86617,7.51865 -12.77666,9.56023z"  />
 </g>
</svg>