<svg xmlns="http://www.w3.org/2000/svg" width='100%' height='100%' viewBox='-5 -5 85 85' preserveAspectRatio='none'>
 <g>
  <path d="m13.66915,0.32268l-3.40123,0c0,0 -2.64541,-0.23306 -3.40123,2.79671c-1.34633,2.18489 -3.86181,1.22354 -4.53496,2.09752c-0.74403,0 -2.45645,0.40785 -2.26749,1.39832c0.18896,0.99051 0.75585,1.16529 0.56687,1.39835c-0.18896,0.23306 -0.70859,5.01076 4.25154,4.89422c0,0 0.51963,1.39832 2.83436,0c0,0 0.51961,-0.52438 1.41716,0.34957c0.89757,0.87398 2.69264,1.51489 3.11781,1.39835c0.42514,-0.11653 3.11778,5.5351 3.11778,13.63385c0,8.09878 3.63744,13.69214 4.81841,13.98348c0,0 2.86977,11.27415 2.97606,21.32476c0,0 0.70859,4.25331 -2.40919,4.19503c-1.6829,1.72609 -2.42692,2.90594 -1.41718,2.79671c0,0 0.38973,0.78654 1.13373,0.69916c0.32219,-0.14192 -2.60406,2.57821 -1.41718,2.44711c0,0 0.51966,1.86445 2.55092,0.69916c0,0 3.11781,0.3496 3.40123,-2.09752c0.28345,-2.44711 0.42517,-6.42364 1.70063,-5.94298c0,0 0.18893,-19.51855 1.7006,-20.97516c0,0 7.50904,0.76453 16.15583,-5.59339c2.45645,-1.8062 4.96011,-4.48638 5.38525,1.74792c0.42517,6.2343 8.03068,11.41984 9.06995,15.03221c1.03927,3.6124 1.60614,2.33058 1.41716,10.83718c0,0 -1.79507,-0.52438 -3.11778,1.39835c-0.85031,1.04876 0.28345,1.04876 0.28345,1.04876c0,0 -0.66136,0.81569 1.41718,0.69919c0,0 0.28342,0.39325 1.7006,0c0,0 2.36196,0.17478 1.98405,-2.09752c0,0 0.14172,-12.93472 0.85031,-12.23553c0.70859,0.69916 4.34601,4.77766 4.25152,13.63385c0,0 -1.60614,0.29131 -1.7006,2.44711c0,0 -0.80306,1.10701 0.28342,1.39835c0,0 1.52347,0.48066 1.98405,0c0,0 1.93684,0.81569 1.98405,-2.09755c0.04723,-2.91321 -1.55888,-13.02207 -0.85029,-15.38177c0,0 -6.09387,-4.36985 -7.0859,-17.82892c0,0 2.83436,11.41984 11.90431,9.43882c0,0 0.66136,-0.34957 -0.28345,-0.69916c-0.9448,-0.3496 -8.4086,0.87398 -10.20369,-10.48758c-1.31089,-8.12791 -0.31886,-9.00185 -4.53496,-12.23553c-5.6687,-6.68583 -19.79325,0.05825 -24.092,-2.09752c-3.9681,-2.44711 -4.10982,-2.4908 -8.50306,-4.19503c-4.49955,-2.9278 -3.73188,-6.29255 -7.08588,-10.83718c-2.56865,-4.26058 -2.59815,-3.78719 -2.83436,-4.19503c-0.23621,-0.40788 -0.04723,-2.33058 -3.11778,-2.79671z" />
 </g>
</svg>