<svg xmlns="http://www.w3.org/2000/svg" width='100%' height='100%' viewBox='-5 -5 85 85' preserveAspectRatio='none'>
 <g>
  <path d="m37.89202,17.45087c-1.38813,0.54424 -2.65482,1.26982 -3.93164,1.91653c-0.43513,0.22022 -0.92947,0.57027 -1.33272,0.67729c-1.02762,0.27172 -2.63559,-0.20359 -3.94555,-0.25321c-3.27413,-0.12312 -5.39389,0.13224 -8.08539,0.56249c-1.25961,0.2009 -2.56375,0.3892 -3.66929,0.73281c-0.94439,0.29371 -2.02717,0.95008 -3.08388,1.50211c-1.66995,0.87257 -2.80737,1.69417 -4.10948,2.74618c-2.17643,1.7572 -3.54659,3.96932 -5.13913,6.39979c-0.69546,1.06086 -1.69702,2.64157 -1.74686,3.8969c-0.92061,1.47931 -2.31936,2.38245 -2.67025,4.5479c0.49054,1.26633 1.76179,0.14028 2.52782,-0.28138c0.63347,-0.34978 1.31501,-0.76769 1.87639,-0.93533c2.91767,-0.87203 6.98364,0.37445 9.82441,-0.42462c1.00688,-0.28299 1.87917,-0.85432 2.87947,-1.09627c0.94996,-0.23041 1.67653,0.17757 2.35377,0.48765c0.35974,0.16523 0.73872,0.38894 1.06557,0.56677c2.11647,1.15957 4.23193,2.38889 7.07345,2.85186c2.28066,0.37097 4.26203,-0.3369 6.11591,-0.7194c0.47055,-0.09737 1.07847,-0.06196 1.43544,-0.48792c-1.47971,-0.35434 -2.7077,-0.95867 -4.25293,-1.60377c-2.0297,-0.84654 -3.6063,-1.41922 -4.37335,-3.11876c0.90847,-0.25214 1.96063,-0.06518 2.90629,0.11051c1.03268,0.19098 2.05752,0.37043 3.04847,0.54317c4.18411,0.7304 7.33529,1.9565 10.52037,3.54712c1.54725,0.77171 2.97308,1.84705 4.28455,2.74966c2.68594,1.85081 4.97874,4.14904 7.14125,6.65273c0.9788,1.13356 1.85311,2.55305 2.91464,3.90602c0.46397,0.59146 0.93048,1.25131 1.42633,1.98171c0.47384,0.69392 1.19687,1.54449 1.29705,2.1515c0.11283,0.67031 -0.22288,1.40528 -0.39187,2.13782c-0.2922,1.2725 -0.50774,2.63754 -0.40984,3.94411c0.12801,1.68987 0.48421,3.33575 1.23102,4.61603c0.32407,-0.30552 0.45638,-0.84333 0.62335,-1.3358c0.81866,-1.10942 1.90776,-2.21749 1.93483,-4.06374c2.23613,1.22529 6.57963,1.12256 9.18739,1.09064c0.784,-0.00966 1.58267,0.07833 2.23208,-0.2449c-1.36966,-0.84172 -2.37502,-1.90687 -3.56557,-2.9943c-1.80125,-1.64293 -3.29108,-3.02702 -5.94641,-3.90602c-0.86065,-0.28486 -1.84603,-0.4391 -2.31759,-0.96698c-0.36253,-0.40396 -0.47283,-1.29879 -0.65675,-2.16063c-0.49459,-2.33015 -1.13767,-4.80245 -1.71144,-6.76351c-1.72181,-5.8947 -4.34982,-11.13357 -7.84632,-15.20214c-1.77191,-2.06325 -3.88787,-3.74347 -6.16929,-5.61172c-0.38985,-0.64805 -1.12022,-1.52222 -1.271,-2.5104c-0.15432,-1.01741 0.12396,-1.91036 0.71696,-2.59382c1.29731,-1.00373 3.3356,-1.11478 4.217,-2.61715c-1.15235,-0.87953 -2.58222,-1.13731 -3.98527,-1.28108c-3.03101,-0.31088 -5.87076,-0.06947 -8.222,0.85352l0.00001,0.00001z" />
 </g>
</svg>