<svg xmlns="http://www.w3.org/2000/svg" width='100%' height='100%' viewBox='-5 -5 85 85' preserveAspectRatio='none'>
 <g>
  <path  d="m47.72803,74.52197c-3.85929,-1.81468 3.22526,-1.83032 4.85064,-1.95504c4.22128,-0.06996 4.79336,-4.55073 4.35934,-7.40286c-0.61749,-1.16901 -0.01338,-3.70676 -2.18832,-3.32766c-4.34562,-0.17826 -8.64429,-1.13472 -12.42542,-3.04212c-0.23205,3.20606 -2.05453,6.13943 -3.26655,9.17169c-1.59401,1.53492 4.05217,7.01474 0.1221,4.56671c-2.54571,-2.09273 0.01837,2.17689 -3.14239,0.97477c-4.28912,-0.07824 -8.73284,0.59927 -12.92291,-0.30999c-1.40811,-0.52224 -5.81676,0.12913 -2.6051,-1.61601c1.82404,-0.29414 3.42174,1.11502 4.80025,-0.50717c3.26359,1.19302 8.45781,1.20121 9.6428,-2.55857c1.97197,-2.84559 3.1802,-6.03579 3.25383,-9.37861c-2.30927,-1.57259 -4.13845,-3.60592 -5.18872,-6.02562c-2.4287,-3.53982 -6.86092,-5.48095 -10.49464,-7.93313c-4.82138,-2.77625 -10.3728,-5.97302 -11.31742,-11.44894c-1.14849,-4.06223 0.00624,-8.51059 3.26332,-11.59154c2.19664,-2.77991 6.28053,-5.36359 5.34595,-9.18009c-2.37469,-3.73559 -7.50989,0.48341 -9.84189,2.29828c-2.80907,1.75761 -5.83163,6.01559 -9.6665,4.10559c-0.48334,-2.89127 3.8571,-4.70565 4.92517,-7.4028c2.21193,-3.03601 3.52132,-6.56465 5.33532,-9.68906c3.28113,-2.70074 8.70629,-2.71728 11.94885,0.071c4.13784,2.84887 6.71821,7.35268 6.31303,12.03441c0.39893,3.23291 -1.16613,7.4454 2.32341,9.6898c5.04409,2.47922 10.99123,3.07397 16.11824,5.45017c6.41182,2.61774 11.22198,7.34159 16.61817,11.22913c3.32034,2.66739 6.73381,5.25599 9.89053,8.07536c-2.11022,-0.55819 -4.06177,-1.50794 -6.08192,-2.2793c2.61434,3.00663 3.78902,6.70539 4.40804,10.40054c1.01775,3.9164 3.86547,7.74509 2.43677,11.89099c-1.24588,3.44759 -5.21519,-2.1282 -7.15608,-3.10409c-2.2184,-1.84898 -4.41293,-4.13812 -7.62897,-4.45724c-0.58037,3.32452 -1.17681,6.78287 -0.51654,10.11303c0.38696,2.94928 7.04281,1.17943 6.07854,3.36287c-5.57576,-0.53799 -11.17394,-0.0846 -16.76323,-0.14901l-0.82768,-0.07548l0,0l-0.00001,0z" />
 </g>
</svg>