<svg xmlns="http://www.w3.org/2000/svg" width='100%' height='100%' viewBox='-5 -5 85 85' preserveAspectRatio='none'>
 <g>
  <path d="m59.71422,34.78152c0,0 7.29723,1.85959 9.03036,8.28838c0,0 1.55064,2.49716 1.09458,3.82542c-0.45606,1.32824 -1.18582,1.75329 -1.36823,1.9127c0,0 0.91217,-1.22203 -2.18917,-3.18786c0,0 -1.59629,-0.31878 -1.91554,-0.63757c-0.31925,-0.31878 -5.01685,-1.3814 -6.02024,1.27513c-1.00337,2.65656 -1.2314,7.11952 -1.09458,7.33204c0.13681,0.21251 4.78882,4.25048 5.19929,5.41934c0.41047,1.16886 2.59966,3.55972 3.55742,3.50661c0.95774,-0.05311 3.23815,-0.05311 3.83105,-0.95635c0.59288,-0.90324 2.326,-1.00948 2.73647,0c0.41047,1.00946 0.27365,0.95635 0.27365,0.95635c0,0 1.45945,-0.37189 1.91554,0.95635c0.45606,1.32827 -0.68414,1.9127 -0.82096,1.9127c-0.13681,0 0.86655,-2.01897 -0.5473,-1.59391c0,0 -0.82093,0.03986 -0.82093,-0.31878c0,-0.35864 0.47888,1.87287 0,1.9127c0,0 -1.60769,-2.07207 -1.91554,-0.95635c0,0 -1.02616,0.23909 -1.36823,0.31878c-0.34205,0.07969 -0.27365,0.31878 -0.27365,0.31878c0,0 -0.88935,0.39847 -0.27363,1.59391c0,0 0,0.43833 -0.27365,0.63759c-0.27365,0.19924 0.17104,1.15558 1.36823,0.31878c0,0 0.30785,-0.31878 0.27365,0c-0.03422,0.31878 -1.23142,2.03224 -2.73647,-0.31878c0,0 -0.5473,-1.79318 0.27365,-2.23151c0.82093,-0.43833 -0.27365,-1.31499 -1.36823,-0.63757c0,0 -0.06842,1.27513 0.27363,1.59391c0.34207,0.31878 -0.5815,0.03986 -0.82093,-0.31878c-0.23943,-0.35861 -0.5473,0.75711 -0.5473,0.95635c0,0.19924 -0.30785,0.87666 -0.54728,0.63759c-0.23945,-0.23909 -2.49704,-0.51805 -2.46284,-0.31881c0.03422,0.19926 -1.06036,1.03607 -1.36823,0.63759c-0.30785,-0.3985 -2.01813,-2.43075 -2.18917,-2.23151c-0.17104,0.19924 1.163,2.43075 1.91554,2.86908c0.75251,0.4383 3.89947,0.71725 4.92563,-0.31878c0,0 1.57347,-0.35864 1.64189,0c0,0 1.7787,0.8368 1.64189,1.27513c-0.13684,0.43833 -0.13684,0.19924 -0.27365,0c-0.13681,-0.19926 -1.26562,-0.91652 -1.36823,-0.63757c-0.10262,0.27892 0,0.31878 0,0.31878c0,0 1.43665,0.47816 1.36823,0.63757c0,0 1.67608,0.79694 1.36823,2.55026c0,0 -0.51308,0.43833 -0.5473,0c-0.0342,-0.43833 0.20523,-1.63377 -0.82093,-1.59391c0,0 -0.17104,0.63757 -0.82093,0.31878c-0.64992,-0.31878 0.37624,-0.99621 -3.01012,-0.63757c0,0 0.13681,0.75711 0.54728,0.95635c0.41047,0.19924 1.09461,0.19924 1.09461,0.95635c0,0 0.44466,0.63757 0,1.27513c0,0 -0.27365,0.19924 -0.27365,0c0,-0.19924 0.27365,-1.15558 -1.09458,-1.59391c-1.36826,-0.43833 -1.09461,-0.31878 -1.09461,-0.31878c0,0 0.23945,1.9127 -0.27365,1.9127c-0.51308,0 0.34207,1.19544 1.36826,0.63757c0,0 0.10259,-0.47816 0.27363,-0.31878c0.17104,0.15941 -0.85513,2.47057 -2.73647,-0.31878c0,0 -0.6157,-1.47437 0,-1.9127c0,0 0.41047,-1.47437 -1.64189,-0.95635c0,0 -0.85513,0.15938 -0.82093,0c0.0342,-0.15941 -0.13681,0.75711 0,0.95635c0.13681,0.19924 -1.60769,-0.43833 -1.64189,-0.63757l-0.54728,0c0,0 0.31925,1.85959 0.54728,1.9127c0.22803,0.05311 -1.04896,-0.90324 -1.36823,-1.59391c0,0 0,1.32824 0.27365,1.59391c0.27365,0.26568 -1.23142,-1.43454 -1.09458,-1.59391c0,0 0.0456,1.70019 0.54728,2.55026c0.50168,0.85008 -1.09458,-0.79694 -1.36823,-1.27513c0,0 -0.27363,0.21251 0,0.63757c0.27365,0.42505 -0.91215,-0.42505 -1.09458,-1.59391c0,0 -0.77533,-0.74384 -1.09458,-0.95635c0,0 0.0456,1.80643 0.27365,1.9127c0,0 -0.63852,-0.58446 -0.82096,-1.27513c0,0 -0.36484,0.63757 -0.27365,0.95635c0,0 -1.04896,-1.3814 -1.36823,-2.55026c-0.31925,-1.16886 -0.27363,0.31878 -0.27363,0.31878c0,0 -0.63852,-0.1063 -1.09461,-2.23148c0,0 -2.64525,3.24094 -3.5574,3.50661c-0.91215,0.26565 1.09458,-1.27513 1.09458,-1.27513c0,0 -1.50505,0.5313 -1.64189,0.95635c0,0 0.13684,-0.58446 0.82096,-1.27513c0.68412,-0.6907 -0.82096,-0.31878 -0.82096,-0.31878c0,0 -0.31925,-0.1063 -0.27363,-3.50664c0,0 -2.05238,2.55029 -3.28377,2.55029c-1.23142,0 1.1402,-1.06265 1.36823,-1.91273c0.22803,-0.85008 -0.50168,-0.58443 -0.82096,-0.31878c-0.31925,0.26568 -2.69085,1.85959 -2.73647,2.23151c-0.0456,0.37189 -0.27363,-0.63757 -0.27363,-0.63757c0,0 -0.5473,0.31878 -1.09461,0.31878c-0.54728,0 1.59627,-1.16886 1.91554,-1.91273c0.31927,-0.74384 -2.9645,1.32827 -4.1047,2.23151c0,0 -0.95777,0.37189 -1.09458,0c-0.13684,-0.37192 1.64189,-1.80643 1.64189,-1.91273c0,-0.10627 0.6385,-1.00946 -0.5473,-0.31878c-1.1858,0.6907 -2.73647,0.15941 -3.83105,0.63757c-1.09461,0.47819 -2.28038,1.96583 -3.83108,1.91273c-1.55067,-0.05314 -1.5503,2.23148 -4.37833,2.23148c-1.64189,0 -0.95777,0.74384 -1.64189,0.63757c-0.68412,-0.10627 0.82093,-0.95635 0.82093,-0.95635c0,0 -1.64189,0.63757 -1.91551,0.63757c-0.27365,0 -1.50507,0.05311 1.36821,-1.27513c0,0 -2.09795,0 -1.36821,-0.31878c0.72971,-0.31878 2.55403,-0.95635 2.46282,-1.27513c-0.09124,-0.31878 -1.96113,-0.26568 -1.36823,-0.63757c0.59288,-0.37192 3.83105,-1.75332 3.01012,-1.91273c-0.82096,-0.15938 -2.00676,-0.21251 -1.36823,-0.63757c0.63852,-0.42505 8.48303,-1.43451 9.57764,-2.55026c1.09458,-1.11575 3.92227,-4.35669 4.65198,-4.46296c0.72974,-0.1063 0,-0.90324 -0.54728,-0.63759c-0.5473,0.26568 -1.04899,-0.15938 -0.82096,-1.9127c0.22806,-1.75329 -2.34711,3.84479 -3.83105,1.9127c-0.77533,-1.00946 -0.18243,-1.75329 -1.09458,-1.59391c-0.91215,0.15941 -0.86655,-1.16886 -1.09458,-0.63757c-0.22803,0.5313 -2.14357,3.82542 -3.01012,3.50664c-0.86655,-0.31878 -0.22803,-0.5313 -0.82096,-0.63757c-0.5929,-0.1063 -1.00337,-0.31878 -1.09458,-0.95638c-0.09122,-0.63757 -0.6385,0.42508 -0.82093,-0.63757c-0.18243,-1.06262 -0.31925,-2.39086 -1.09458,-1.27513c-0.77536,1.11575 -1.04901,0.37192 -1.09461,0c-0.0456,-0.37189 -1.68748,0.21251 -1.64186,-0.95635c0.04557,-1.16886 -1.59629,0.37192 -1.36826,-0.95635c0.22806,-1.32824 -1.38703,-0.18002 -1.09458,-1.27513c0.63852,-2.39089 -2.18917,-0.21251 -1.91551,-1.27513c0.27363,-1.06262 -1.32264,-0.21251 -1.09461,-1.27513c0.22806,-1.06262 -1.51851,-0.69354 -1.36823,-1.59391c0.31925,-1.91273 -1.64186,-0.58446 -1.36823,-2.23151c0.27365,-1.64702 -1.24531,-0.01104 -1.09458,-1.27513c0.22806,-1.9127 -1.95466,-1.21811 -1.36823,-2.55026c0.91217,-2.0721 -0.93793,-1.18135 -0.5473,-2.23148c0.5929,-1.59391 -3.8094,0.17683 -2.73647,-2.55029c0.50171,-1.27513 -2.97958,-2.12411 -1.36823,-3.18783c2.73647,-1.80643 -4.1959,-0.90324 -0.82093,-3.82539c3.14693,-1.70019 3.33977,-1.86032 -0.5473,-1.59391c-1.55067,0.10627 -3.87667,-2.39089 -1.64186,-2.55029c2.23479,-0.15938 6.79555,-1.43451 1.64186,-1.9127c-5.15366,-0.47816 -5.3361,-2.65653 -3.28375,-2.55026c2.05235,0.10627 10.07932,0.10627 7.93575,-0.63757c-2.14357,-0.74384 -11.95357,-2.56168 -8.20941,-4.46296c1.7787,-0.90324 14.31215,3.89926 10.67222,0.63757c-0.59288,-0.5313 -6.38509,-2.44402 -8.48306,-5.10056c-2.09795,-2.65653 -1.68748,-3.02845 -0.54728,-2.55026c1.1402,0.47816 14.36639,7.49141 12.31411,5.10053c-0.36487,-0.42505 -7.93575,-4.62237 -9.03036,-8.28836c-1.09458,-3.66602 -0.0456,-2.70967 0.82096,-1.59394c0.86653,1.11575 13.31183,11.77044 11.21953,8.28838c-0.63852,-1.06262 -6.20265,-5.31304 -7.38848,-9.56352c-1.18582,-4.25045 -0.27365,-3.08156 0.5473,-1.9127c0.82093,1.16886 13.5024,17.0938 11.49315,11.47621c-0.45606,-1.27513 -4.46957,-5.25993 -4.92563,-8.92595c-0.45606,-3.66602 0.72971,-2.28459 1.36823,-0.95635c0.63852,1.32827 9.62326,17.8519 9.85129,14.98285c0,0 0.04562,0.05311 0.27365,0c0.22803,-0.05314 -0.18243,-1.54081 0.27365,-1.27513c0,0 0.18243,-1.16886 0.54728,-0.95638c0.36487,0.21251 0.72974,0.05314 0.82096,-1.27513c0.09119,-1.32824 2.78206,0.21251 3.5574,7.01325c0,0 0.5473,0.68983 0.5473,2.23148c0,0.79697 3.28375,4.6755 5.19929,4.46299c1.91554,-0.21251 4.65201,4.46296 5.47294,4.78174c0.82093,0.31878 2.64525,2.23148 5.47294,0.31878c2.82769,-1.9127 5.60978,-2.55026 3.28377,-2.86905c-2.326,-0.31878 -1.86992,-1.3814 -0.82093,-1.59391c1.04896,-0.21251 5.60975,-0.31878 4.1047,-1.27513c-1.50507,-0.95638 -2.80519,-6.06592 -0.82096,-4.78177c0.82096,0.5313 3.73642,5.25245 3.28377,1.9127c-0.13684,-1.00946 -1.91554,-2.23148 -1.36823,-5.73809c0.54728,-3.50664 1.30609,-0.71688 1.36823,-0.31878c0.09122,0.58443 2.30378,7.84055 2.73647,4.14418c0.13681,-1.16886 -1.00337,-2.70967 -0.5473,-7.01325c0.45606,-4.30355 1.09458,0 1.09458,0c0,0 1.30128,4.40716 1.09461,6.69447c-0.09124,1.00948 1.1858,0.63757 1.09458,-1.27513c-0.09124,-1.9127 -0.77533,-6.11001 -0.27365,-6.0569c0.50171,0.05314 2.00486,2.84542 1.64189,5.10056c-0.13684,0.85008 1.96113,1.70019 -0.27365,3.50661c-2.23476,1.80643 -4.65201,5.41934 -4.65201,5.41934c0,0 0.54068,2.33494 -2.18917,3.50661c-1.7331,0.74384 -0.27365,2.23148 -0.27365,2.23148z" />
 </g>
</svg>