<svg xmlns="http://www.w3.org/2000/svg" width='100%' height='100%' viewBox='-5 -5 85 85 ' preserveAspectRatio='none'>
 <g>
  <path id="svg_1" d="m73.25884,44.27499c-0.33593,-0.71421 -0.63052,-1.68827 -0.87417,-2.92219l-0.25398,-1.34258l-0.49615,-0.25985l-1.98977,-4.3947c-0.58844,-0.97406 -1.15621,-1.79615 -1.6841,-2.45681c-0.54783,-0.65987 -0.93471,-1.18037 -1.19829,-1.52606l-3.73515,-2.5324l-1.86721,-2.12136c-0.25398,-0.17324 -0.64898,-0.4764 -1.18648,-0.86618c-0.53823,-0.40002 -1.14808,-0.69295 -1.80666,-0.86618c-1.91815,-0.52995 -3.36968,-0.80083 -4.36493,-0.80083l-5.36831,0.27088l-2.49625,0.52995l-2.86246,0.40081l-4.36493,-0.40081l-2.49625,-0.80083l-2.49625,-1.86229l-0.75161,-0.52995l-1.23816,-1.33156l-2.37517,-0.80083c-0.9133,-0.43309 -1.86721,-0.43309 -2.86172,0l-2.61807,0.80083l-1.86794,1.33156l-0.50722,0l-0.49763,0.52995c-0.41567,0.27088 -0.73093,0.42207 -0.93397,0.46538c-0.21337,0.05433 -0.39574,0.07559 -0.55817,0.07559c-0.42675,0 -1.12667,0.25985 -2.13152,0.7898l-1.23816,1.33156c-0.83208,0.88744 -1.46113,1.33156 -1.86721,1.33156c-0.66965,0.18426 -1.40059,0.3575 -2.19206,0.52995c-0.79148,0.17324 -1.55342,0.25985 -2.30429,0.25985c-0.66006,0 -1.2891,-0.10788 -1.86721,-0.32442c-0.57884,-0.21655 -1.08607,-0.69295 -1.49214,-1.39613c-1.00485,-1.0717 -1.25883,-2.26231 -0.75087,-3.59387c0,-0.70397 0.12182,-1.28825 0.36547,-1.72134c0.25398,-0.45514 0.67039,-0.98509 1.25883,-1.60244l1.98903,-2.13239c0.66965,-0.70397 1.15694,-1.39613 1.50248,-2.05679c0.32486,-0.66066 0.40607,-1.44023 0.24364,-2.32767l-0.99451,-2.13239l-1.2485,-1.06147c-0.49763,-0.18347 -0.75087,0 -0.75087,0.53073s-0.12182,0.97406 -0.3758,1.33156c-0.66965,0.44333 -0.79148,0.65987 -0.36547,0.65987l0.74127,1.47251l-0.74127,1.72134l-3.36894,2.66312l-2.49699,3.86475l-0.12182,4.78448c0.08121,1.68906 0.48729,2.96628 1.23816,3.85373c1.16728,1.77489 2.37443,3.05211 3.61333,3.85373c0.92364,0.71421 1.87754,1.36384 2.88239,1.92686c0.99451,0.58428 2.07024,0.99611 3.23752,1.27723l-1.00485,0.51971l-5.60383,0c-0.99451,-0.25985 -1.89821,-0.49845 -2.67935,-0.72602c-0.79148,-0.22678 -1.35998,-0.42207 -1.68484,-0.5953l-0.62978,0l0,0.25985l3.24786,1.86151c1.49214,0.45435 2.88239,0.7583 4.17076,0.93154c1.2891,0.17324 2.68969,0.27088 4.18183,0.27088c0.99451,-0.18426 1.94842,-0.3575 2.87206,-0.53073c0.9133,-0.17324 1.8266,-0.41104 2.7399,-0.67169l3.61333,0.54176l1.74538,0l-2.24301,1.99143c-0.08121,0.34647 -0.08121,0.53073 0,0.53073l1.2485,0.27088l1.6243,0l0.61871,0.51971c0.17203,-0.25985 0.27392,-0.28112 0.31452,-0.06536c0.04061,0.22757 0.18236,0.69295 0.43635,1.40715l0,1.86151l0,3.31276c-0.25398,0.71421 -0.45702,1.27723 -0.61871,1.66622c-0.17277,0.40081 -0.42601,0.73704 -0.75087,0.99611l-0.62978,2.53319l-1.74538,2.53319l-0.75161,2.12136l-0.87269,2.66312l0,1.86151l-0.36547,1.73237c-0.17277,0.43309 -0.29459,0.77878 -0.3854,0.99611c-0.08121,0.21576 -0.24364,0.32442 -0.48729,0.32442l-1.25883,1.47172l0,0.66066l1.25883,1.33077l1.62356,0.53073l4.23204,0c0.17203,0 0.25398,-0.44333 0.25398,-1.33077l0,-2.66312l0.49689,-1.73158l0.49763,-2.12136l1.50174,-2.66312l1.11634,-1.73237c0.32486,-0.51892 0.75161,-0.7898 1.2485,-0.7898l3.35935,-3.19385l0.75161,-1.73158l1.99936,7.05782l0.49689,1.72134l0.50796,2.66312c0.08121,1.15832 0.08121,1.99143 0,2.52217l-0.50796,0.80161l0,0.80083l-0.75087,1.32132c0,0.71421 0.25398,1.07092 0.75087,1.07092l0.62978,0l4.98364,0c0.83208,0 1.2485,-0.18347 1.2485,-0.53073l-0.37654,-1.99143c-0.17129,-0.35671 -0.27392,-0.69295 -0.31452,-0.99611c-0.04061,-0.3134 -0.06054,-0.82287 -0.06054,-1.53708l-0.49763,-1.99143l-0.25398,-12.24232l1.12593,0.52995l2.75171,0.80161l5.35871,1.19061l2.99388,0l0.25398,1.0717c0.24364,0.98509 0.36621,1.91663 0.36621,2.79305c0,0.98509 -0.12256,1.63394 -0.36621,2.00246l-0.25398,3.0529l0,0.80083c0.25398,0.88823 0.25398,1.32132 0,1.32132l-0.49763,1.73158c-0.50796,0.88744 -1.16654,1.60165 -1.99863,2.13239c-0.25398,0.27088 -0.43708,0.48664 -0.55817,0.66066c-0.12256,0.18347 -0.10263,0.41104 0.06054,0.6709l0.49763,0.53073l7.35881,0l0.75013,-1.86151l0,-1.33077c0.57958,-0.61735 0.57958,-1.64575 0,-3.0529c0,-0.97406 0.40681,-2.53319 1.2389,-4.65455c0.42675,-1.94891 1.08607,-3.46316 2.0001,-4.52462l0.37507,0.51971c0,0.28112 0.08048,0.73626 0.24364,1.40715c0.17277,0.65987 0.34479,1.52606 0.50796,2.59776l1.2389,3.31197l0.87269,1.86229l0.87269,2.53319l0.75161,3.19307l3.62366,0l0.99378,-0.53073l0.75161,-0.80083l0.49763,-1.1914c0.24364,-0.71421 0.24364,-1.20084 0,-1.47172l-0.99525,-1.06147l-0.25398,-1.19061l-0.99378,-1.60165l-1.2485,-2.26231l-0.24364,-1.59141l0,-1.33077l0.24364,-2.66312l0,-10.11308l0.62905,-0.27088l3.1061,5.19552l0.87269,1.59141l0,-2.52217l-0.48581,-1.60165c-0.1735,-0.70397 -0.42749,-1.40715 -0.75235,-2.12215z"/>
 </g>
</svg>