<svg xmlns="http://www.w3.org/2000/svg" width='100%' height='100%' viewBox='-5 -5 85 85' preserveAspectRatio='none'>
 <g>
 <path  id="svg_1" d="m50.85149,68.86715c0,0 -10.2331,-0.53069 -15.65252,-2.55949c-5.41943,-2.02883 -7.94848,-4.61558 -7.94848,-4.61558c0,0 2.84408,2.23119 6.8352,3.92173c2.43326,1.03066 5.29306,1.86039 8.19467,1.86039c0,0 -4.47984,-1.77518 -7.84016,-0.50725c0,0 2.42073,-1.16656 6.61174,-0.27895c4.19126,0.88759 6.28651,0.38034 6.28651,0.38034c0,0 -7.08111,-0.02535 -10.15229,-1.44554c-3.07121,-1.42019 -3.82997,-2.23156 -3.82997,-2.23156c0,0 3.17953,2.30778 5.63635,2.58675c2.45682,0.27897 6.68397,-0.05087 6.68397,-0.05087c0,0 -4.37156,0.07622 -5.74466,-0.35502c-1.37286,-0.43101 -6.79229,-1.29328 -7.76769,0.50725c0,0 1.08372,-1.90209 6.0335,-1.34414c4.94978,0.55795 5.41971,0.38054 5.41971,0.38054c0,0 -8.77974,-2.38402 -13.69339,-1.03985c-4.91368,1.34414 -4.58848,2.48536 -4.58848,2.48536c0,0 0.32524,-3.95624 12.32032,-3.24624c0,0 -5.59997,-0.58329 -7.65965,-1.74983c-2.05911,-1.16656 -2.20381,-1.92727 -2.20381,-1.92727c0,0 2.34826,2.51053 5.23889,2.53588c2.89038,0.02552 3.72137,-0.15206 3.72137,-0.15206c0,0 -5.63631,-0.91294 -8.31006,-0.71021c-2.6735,0.20295 -7.00893,0.86227 -9.28524,-2.0288c0,0 2.13162,2.76436 7.94876,1.80072c5.81686,-0.96381 9.46575,0.10137 9.46575,0.10137c0,0 -8.81559,-1.19191 -10.62222,-2.3838c-1.80638,-1.19191 -2.02302,-3.24626 -2.02302,-3.24626c0,0 0.75876,3.44899 4.47984,3.77886c3.72165,0.32964 9.35771,0.25343 10.83914,1.44551c0,0 -3.72137,-1.92744 -7.58742,-1.67381c-3.86578,0.25363 -9.82733,3.75331 -12.86216,2.84038c-3.03479,-0.91294 -4.4079,-0.15223 -4.4079,-0.15223c0,0 1.26479,-0.88759 3.43222,-0.48193c2.168,0.40588 2.63765,1.0145 6.35902,-0.78603c3.72137,-1.80053 10.044,-4.03226 14.05448,-2.10502c0,0 -18.73895,-3.64313 -20.76197,-11.04819c0,0 1.78152,4.93732 10.9346,7.13491c9.15337,2.19759 9.68292,2.02883 9.68292,2.02883c0,0 -14.11438,-1.04847 -20.71433,-9.97529c0,0 5.73234,6.93195 14.64474,7.84489c0,0 -7.5152,-1.82585 -13.34439,-7.40504c-5.82837,-5.57939 -6.07015,-7.4394 -6.07015,-7.4394c0,0 7.08218,8.92679 20.4747,10.51631c0,0 -10.49034,-2.10539 -18.00531,-8.82579c-7.51492,-6.7204 -5.16642,-8.0392 -5.16642,-8.0392c0,0 -1.62584,-2.40917 -0.39771,-2.94177c0,0 -2.42073,-1.92744 -1.73416,-3.49969c0,0 1.73416,5.95953 10.58613,9.8651c8.85194,3.90537 9.6107,4.38728 9.6107,4.38728c0,0 -9.17717,-4.41262 -12.06755,-6.54299c-2.89038,-2.1302 -6.1421,-3.77866 -8.02095,-8.34335c0,0 1.80666,4.51399 7.5152,7.60799c5.70829,3.094 6.82863,3.04313 6.82863,3.04313c0,0 -11.70622,-4.20969 -14.48825,-11.18372c0,0 1.62584,5.14815 14.52438,10.06803c0,0 -12.93463,-5.35108 -14.52438,-11.05718c0,0 -0.28886,-0.83689 0.25298,-1.24258c0,0 -0.65044,-1.09054 -0.43352,-2.46004c0.21664,-1.36932 0.46965,-2.84018 0.46965,-2.84018c0,0 -0.57797,5.78212 7.44273,10.24544c0,0 -9.46603,-7.96355 -6.09342,-14.52307c0,0 -0.72319,3.61813 1.54108,5.27487c0,0 -1.92727,-2.9076 -1.01153,-6.32299c0,0 -0.24122,3.61815 2.16771,6.89801c2.40897,3.27986 10.11647,9.6368 10.11647,9.6368c0,0 -9.05628,-7.43921 -10.50161,-11.632c-1.44505,-4.1928 -0.62664,-6.93161 -0.62664,-6.93161c0,0 -0.81841,3.9221 2.69808,7.84472c3.51649,3.92247 4.7211,4.36195 4.7211,4.36195c0,0 -9.68345,-7.06734 -6.02251,-14.91186c0,0 -0.24044,7.94608 3.75774,11.3613c3.99896,3.41537 5.20251,3.51676 5.20251,3.51676c0,0 -8.23758,-4.56488 -7.94873,-10.95562c0.28935,-6.39076 1.8315,-6.72885 1.8315,-6.72885c0,0 -3.42099,5.40968 2.07066,10.61733c5.4919,5.20764 4.3841,4.22677 4.3841,4.22677c0,0 -7.80378,-7.10074 -6.26218,-12.64633c1.54161,-5.54556 4.47984,-5.4778 4.47984,-5.4778c0,0 -3.2271,1.48758 -3.08269,4.90278c0.14445,3.41522 4.76923,10.04268 4.76923,10.04268c0,0 -5.1549,-9.09558 -3.7577,-11.90235c1.39666,-2.80658 4.33571,-3.65175 4.33571,-3.65175c0,0 -5.73344,2.29935 -2.4095,8.45353c0,0 -2.07116,-5.84934 3.46835,-8.58832c0,0 -3.94976,2.63762 -2.31213,7.54042c0,0 -0.4817,-6.01922 4.76895,-8.08164c0,0 -3.37126,1.86004 -3.41968,5.61333c0,0 0.72266,-3.78746 4.7206,-5.91765c0,0 -3.03508,3.24606 -2.842,7.91231c0,0 2.26427,-4.59811 3.37261,-7.97971c0,0 0.19206,1.82605 -0.62664,4.09123c-0.8187,2.26553 -1.20408,2.46829 -1.20408,2.46829c0,0 2.93824,-3.04313 3.08293,-6.01867c0,0 0.14445,2.90814 -1.1078,5.34283c0,0 2.38517,-1.34618 2.68554,-4.32905c0.0047,-0.04445 0.00837,-0.08927 0.01201,-0.13444c0,0 0.674,4.36156 -1.78282,8.04748c-2.45682,3.68609 -3.61305,4.02401 -3.61305,4.02401c0,0 5.4443,-3.61832 6.26298,-8.62249c0,0 0.09627,2.80621 -1.34878,5.24072c-1.44509,2.43466 -2.98694,4.29471 -2.98694,4.29471c0,0 7.27395,-4.633 6.06987,-12.95063c0,0 1.39666,4.63208 0.14445,8.14884c-1.25225,3.51676 -7.41921,8.92681 -7.41921,8.92681c0,0 9.58717,-5.95145 10.02045,-15.38531c0,0 1.15622,5.57919 -3.25171,10.65112c0,0 6.50342,-5.17333 6.35902,-10.0932c0,0 1.44533,2.48519 0.21664,5.88351c-1.22817,3.3983 -7.08111,11.3613 -13.15127,13.28874c0,0 16.47521,-6.2387 15.39146,-16.94049c0,0 1.80638,4.86901 -0.43352,9.58613c-2.23994,4.71692 -10.76692,11.91923 -10.76692,11.91923c0,0 12.21197,-7.91231 14.01863,-16.53498c0,0 0.57797,-2.63725 -0.1447,-4.20969c0,0 2.96286,0.91294 3.17949,4.81851c0.21664,3.90537 -2.67346,9.18041 -4.69676,12.88286c-2.0233,3.70262 -6.35874,8.62249 -6.35874,8.62249c0,0 14.09058,-15.11462 12.06703,-22.51985c0,0 3.6133,3.19537 3.17949,7.35456c-0.43327,4.15897 -3.46835,15.72323 -11.92261,20.94741c0,0 9.1047,-5.07194 11.63375,-14.30305c0,0 1.30064,-4.91988 1.08375,-7.60819c0,0 1.80638,5.68075 1.15618,9.94131c-0.65019,4.26056 -7.44273,13.79599 -7.44273,13.79599c0,0 7.44273,-7.96318 7.94848,-12.93375c0,0 0.79489,2.99244 0.21692,5.73145c-0.57797,2.73881 -3.90191,7.86162 -6.72034,10.85405c0,0 5.92546,-5.98487 7.15387,-8.62249c1.22845,-2.63745 1.01153,-4.159 1.01153,-4.159c0,0 1.44533,8.21681 -0.86708,12.07149c-2.31241,3.85468 -9.61045,9.58613 -10.11619,12.27424c0,0 3.39613,-6.2385 10.76663,-7.20231c7.3705,-0.96363 11.56153,0.50725 11.56153,0.50725c0,0 -11.20019,-2.53606 -17.19787,2.23173c0,0 -3.03479,2.58675 -3.10726,4.91988c0,0 7.80431,-3.85468 9.03247,-9.12974c1.22866,-5.27487 6.93723,-6.08644 6.93723,-6.08644c0,0 -6.35902,1.67381 -6.28679,6.2387c0.07222,4.56486 -7.2261,9.94112 -8.96025,9.78906c0,0 5.92546,-1.16656 8.02095,-4.66625c0,0 -1.3731,3.55036 -4.33543,5.60453c-2.96286,2.05415 -1.98746,2.94174 -1.98746,2.94174c0,0 1.01178,-2.20621 3.97438,-4.05763c2.96286,-1.85122 6.86473,-5.04659 6.90086,-7.20231c0.0361,-2.15552 3.25171,-4.31123 3.25171,-4.31123c0,0 -2.52905,2.25708 -2.63765,3.8802c-0.10832,1.62294 0.25302,4.159 -3.9741,6.28937c-4.22739,2.1302 -5.99768,5.95955 -5.92546,7.63334c0,0 2.95081,-5.9766 11.62223,-7.15989c0,0 -8.28629,1.14949 -11.22453,7.70958c0,0 5.49137,-6.55972 12.81399,-8.28423c0,0 -7.80403,2.33313 -11.56153,8.04767c0,0 2.21589,-4.05818 9.15259,-4.22694c0,0 -5.78076,0.54085 -8.14078,4.36193c0,0 1.05963,-1.62257 5.00996,-2.19759c3.9503,-0.57502 7.2737,-2.57005 6.45501,-4.46387c0,0 1.01153,2.63707 -4.1426,4.39573c-5.15466,1.75865 -7.32029,5.96976 -7.32029,5.96976c0,0 4.19745,2.78956 7.59114,5.1403c-0.26792,1.31642 -1.19313,1.67864 -2.05406,1.81795c-0.30782,0.0498 -7.49426,-5.62285 -7.90373,-5.73586l0.00001,-0.00001z"/> </g>
</svg>