<svg xmlns="http://www.w3.org/2000/svg" width='100%' height='100%' viewBox='-5 -5 85 85' preserveAspectRatio='none'>
 <g>
  <path d="m32.16378,65.49457c0.36285,-4.90454 1.21343,-9.97185 3.1119,-14.18046c1.81421,-2.76384 4.74239,-2.68121 7.1879,-3.62676c-3.42649,-1.17021 -6.62497,-3.24218 -9.76327,-5.43447c-5.13679,-2.83954 -10.3655,1.25182 -14.99572,4.12213c-3.43785,2.09205 -6.8385,4.56012 -10.54035,5.59609c-2.42836,-2.14876 -0.40028,-8.24484 1.30734,-10.81878c2.16205,-3.55468 5.36241,-5.39112 7.70632,-8.63712c1.03113,-4.58486 -3.71992,-5.71287 -5.85441,-7.51434c-3.30999,-1.90864 -6.12239,-5.03477 -8.63873,-8.52514c5.84378,-0.43369 11.01311,4.18777 16.28605,6.99373c2.85205,1.31483 5.54199,3.16413 8.20869,4.99341c1.22265,-0.00786 5.37149,1.14809 4.958,-0.62743c-3.10991,-0.17562 -2.79819,-5.29927 -0.70537,-7.33064c3.07603,-3.0828 6.82604,-4.90278 9.38685,-8.98618c1.12346,-1.14857 1.71466,-3.95805 2.66416,-4.84453c4.09416,4.07512 6.48954,10.50339 8.74839,16.59936c3.67824,1.05838 7.39301,1.91685 11.14209,2.17596c3.66116,2.13193 6.78722,5.8475 9.65378,9.62083c2.17221,2.08708 2.7511,7.76617 -0.20161,8.90548c-7.2849,4.99729 -15.41918,6.52494 -23.44131,7.00519c-1.13022,-0.1015 -2.11433,0.05651 -2.1219,1.94892c-0.70659,2.69519 -0.99543,5.8272 -2.32564,8.02167c-1.46804,-0.47817 -0.07727,-5.98563 -1.58497,-3.36887c-2.96561,4.09994 -6.53257,7.17475 -10.18823,9.92444c0,-0.67083 0,-1.3417 0,-2.01249l0,0l0.00004,-0.00001z" />
 </g>
</svg>