<svg xmlns="http://www.w3.org/2000/svg" width='100%' height='100%' viewBox='-5 -5 85 85' preserveAspectRatio='none'>
 <g>
  <path  d="m55.04122,65.25c-2.76875,-5.41742 -9.13318,-8.25408 -15.70804,-8.90775c-3.52923,-6.28692 -4.2085,-16.82575 1.89752,-27.19191c1.72032,0.67217 3.58092,1.04833 5.55227,1.04833c11.15622,0 25.06642,-10.508 27.71703,-29.69866c-38.77357,0 -43.78317,15.70033 -39.22765,23.77558c1.90859,-2.146 3.86887,-4.02375 6.06172,-5.71033c-0.06645,-7.68983 14.64115,-10.75775 24.11397,-11.544c-4.26757,12.25008 -14.49717,18.31808 -20.48137,16.7425c2.82782,-3.57358 6.21307,-6.56133 8.53513,-8.61792c-11.88347,4.72058 -19.8464,15.60167 -22.3715,26.90208c-1.36222,-0.69683 -3.10469,-1.47383 -5.05389,-2.19225c2.9238,-5.75967 -8.69018,-11.80917 -21.56302,-6.41025c3.99438,8.9725 15.71173,12.68792 20.44076,7.96425c2.22238,1.34742 4.18635,2.80275 5.58918,4.03917c-0.56113,4.55717 -0.14028,8.48533 0.6645,11.211c-4.2528,0.78933 -7.93708,2.54375 -9.92689,5.18925c-10.07825,-3.47183 -20.61427,3.20975 -20.61427,12.65092l66.45,0c0,-6.55208 -6.30537,-9.57067 -12.07544,-9.25zm-45.26722,-30.23516c8.3284,-2.00108 14.0431,1.5725 12.83962,3.76783c-1.98981,-0.75233 -4.12359,-1.28267 -6.95141,-1.5725c2.42173,0.82017 5.01697,1.8315 6.15032,2.479c-2.98287,2.1275 -9.84198,-0.93733 -12.03852,-4.67433z" />
 </g>
</svg>