<svg xmlns="http://www.w3.org/2000/svg" width='100%' height='100%' viewBox='-5 -5 85 85' preserveAspectRatio='none'>
 <g>
  <path d="m5.34539,71.36597c2.49678,-7.96073 5.91418,-14.70264 9.15581,-18.0627c3.47288,-3.59977 1.93208,-5.16124 -1.65048,-1.67262c-1.50722,1.46769 -1.93786,0.40199 -1.93786,-4.7957c0,-12.40126 6.60169,-20.0748 22.48571,-26.13645c13.44024,-5.12908 23.34912,-10.89706 27.45756,-15.98312l3.34787,-4.14453l0,7.21108c0,8.9166 -2.84087,22.38743 -5.98545,28.38182c-3.33584,6.359 -14.76985,18.09676 -20.38069,20.92216c-5.02682,2.53132 -15.76251,3.27653 -21.50023,1.49242c-2.85935,-0.88908 -3.76681,-0.20978 -5.24837,3.92878c-0.9852,2.75203 -1.79127,6.66723 -1.79127,8.7004c0,2.30822 -0.9507,3.69667 -2.53115,3.69667c-1.8771,0 -2.2444,-0.91425 -1.42144,-3.5382l0,0l0.00001,-0.00001z" />
 </g>
</svg>