<svg xmlns="http://www.w3.org/2000/svg" width='100%' height='100%' viewBox='-5 -5 85 85' preserveAspectRatio='none'>
 <g>
  <path d="m20.80631,63.41811c-1.2715,2.98812 -2.16175,4.5566 -6.48704,6.12311c-0.76431,0.42694 0.25362,1.42365 0.76431,1.28071c3.8146,-1.7076 4.70482,-3.13309 6.48704,-6.2661c0.89025,3.98877 2.92434,6.55195 6.35938,8.11846l0.25534,-0.85573c4.70656,2.84912 8.26754,3.41903 11.31957,2.70621c2.92606,-0.71276 6.35938,-1.28066 9.15951,-0.85372c-1.7805,-1.56664 -2.80012,-3.419 -3.1797,-5.69634c2.92437,-3.41889 8.64884,-2.13633 11.44725,-4.1298l-0.63663,-1.56846c6.10577,-2.27737 11.32128,-5.98026 18.57092,-4.84055l-11.9562,-9.68505l0.25362,-1.28264c-3.56098,-2.99007 -7.63091,-3.70289 -12.21151,-1.70751c1.52686,-4.98547 0,-10.39596 4.1993,-14.24165c-1.01791,-2.13638 0,-5.12648 1.7805,-7.83269c0.25536,-5.12646 1.52514,-9.6841 3.8146,-13.81393c-3.68863,2.70621 -7.37557,5.12646 -11.19189,7.26382l-0.63663,-1.56748c-1.52514,2.7071 -3.68866,4.70055 -6.61472,5.83827l-0.50895,-1.5665c-3.94399,4.41565 -8.64884,6.69299 -11.57493,13.10393c0.89025,-6.268 -0.76429,-12.39117 -3.05372,-17.37569l-0.89025,0.99766c-1.65282,-6.12412 -7.50325,-10.11193 -11.19189,-15.09643c1.52514,13.67183 -2.9278,15.38038 -2.79843,22.92912l-1.52858,0.14095c2.16349,7.69165 -0.7626,11.25161 0.63663,16.52103c-3.56098,-1.99347 -8.1416,-0.56988 -11.19363,-3.70292c3.68863,6.55204 4.9619,14.52568 11.19363,19.93801l-0.89025,0.42694c2.28943,2.84716 5.21552,5.26942 10.30335,6.69497z" />
 </g>
</svg>