<svg xmlns="http://www.w3.org/2000/svg" width='100%' height='100%' viewBox='-5 -5 85 85' preserveAspectRatio='none'>
 <g>
  <path d="m56.8481,5.37857c0,0 0,-2.09622 0.90328,-3.45321c0.51761,-0.76663 2.17067,-1.15626 2.17067,-1.15626c0,0 1.77516,-0.56361 3.92634,-0.44389c1.66659,0.09235 3.82152,0.87155 3.82152,0.87155c0,0 2.3811,0.05153 3.19829,1.1048c0.99769,1.29508 -0.57748,2.80568 -0.57748,2.80568c0,0 0.20897,0.88148 1.01264,1.62201c0.66213,0.60879 1.95045,1.1125 1.95045,1.1125c0,0 0.24417,0.153 0.42696,0.44402c0.16177,0.26557 0.25613,0.6813 0.25613,0.6813c0,0 0.79397,0.50094 0.84867,1.12172c0.06065,0.66367 -0.61945,1.45215 -0.61945,1.45215c0,0 -0.31007,1.22671 -0.87335,2.11234c-0.36326,0.57496 -1.06736,0.94274 -1.06736,0.94274c0,0 -1.61336,1.16892 -3.58404,1.43886c-1.49054,0.20351 -3.48071,-0.47357 -3.48071,-0.47357c0,0 1.02243,2.75986 0.90709,5.57125c0.16337,4.41274 -3.73867,8.13772 -5.40791,13.10751c-0.58949,1.49729 -0.2262,3.23763 -0.2262,3.23763c0,0 -0.16928,4.36779 -0.79245,8.25706c-0.50786,3.19606 -1.48307,6.0525 -1.48307,6.0525c0,0 0.59681,1.72643 0.45167,2.83955c0.50584,0.28374 2.67,1.5254 2.39461,2.51819c-0.41321,0.06263 -1.17822,-0.32132 -1.17822,-0.32132c0,0 -0.35052,0.35231 -0.78348,0.4059c-0.3183,0.04219 -0.61567,0.10221 -0.75502,-0.20584c-0.74599,0.15285 -2.06878,-0.41149 -2.06878,-0.41149c0,0 -1.01789,-0.69898 -1.49802,-1.44293c-0.25991,-0.39887 -0.66995,-0.02935 -0.13782,-1.0753c0.53215,-1.04595 -0.05467,-1.25269 -0.05467,-1.25269c0,0 -1.18945,0.53684 -1.9819,0.50449c-0.38947,-0.01833 -0.68309,-0.61999 -0.68309,-0.61999c0,0 0.14304,-1.25567 0.04866,-2.35617c-0.13929,-1.56561 -0.5348,-3.13683 -0.5348,-3.13683c0,0 -0.95273,-0.96539 -1.69576,-3.73233c-0.51384,-1.91007 -0.56851,-4.58828 -0.92804,-6.56041c-0.35954,-2.00595 -1.08166,-3.324 -1.0224,-3.29328c-1.73157,2.0801 -3.90239,2.57386 -3.90239,2.57386c0,0 0.35429,3.16087 0.05619,5.73818c-0.28614,2.48508 -1.22316,4.38892 -1.22316,4.38892c0,0 -0.99053,2.2924 -1.28756,3.84435c-0.21141,1.10468 0.04221,1.37554 0.2352,1.65012c1.1767,1.29895 6.42315,-1.0602 7.66919,0.63834c0.12809,0.06767 0.39923,0.38608 0.71307,0.56645c0.33331,0.19171 0.99394,1.13873 0.79471,1.24581c-0.16553,0.093 -0.52131,-0.01269 -0.52131,-0.01269c0,0 0.09585,0.57914 -0.12434,0.79054c-0.2352,0.21558 -0.78348,0.06899 -0.78348,0.06899c0,0 -0.35728,-0.26773 -1.02765,-0.34377c-0.63815,-0.07189 -1.59615,0.04785 -1.59615,0.04785c0,0 -2.60292,-0.89549 -4.90008,0.58626c-1.21141,0.59803 -2.13693,0.60173 -3.36384,0.74542c-0.68309,0.08034 -0.99245,-0.4213 -0.99245,-0.4213c0,0 -0.22547,0.28325 -0.67711,0.52843c-0.51457,0.27336 -1.06361,0.67636 -1.06361,0.67636c0,0 0.25765,0.30023 0.67189,0.51293c0.2614,0.12973 0.75499,0.21145 0.75499,0.21145c0,0 1.90664,0.27967 3.7084,-0.26348c0.29886,-0.01691 2.48299,1.09204 2.76687,1.32877c0.21647,0.17758 -0.21101,0.7255 -0.57375,0.86807c-1.85257,1.03656 -3.16419,-0.49483 -6.13145,0.56796c-2.73825,0.3134 -3.87018,-0.03951 -4.78324,-0.66513c-0.60594,-0.41434 -0.65539,-1.29932 -0.65539,-1.29932c0,0 -0.8771,-1.10908 -0.94675,-2.1406c-0.02998,-0.45512 1.15797,-2.07432 1.65457,-2.90007c0.40896,-0.67358 0.88909,-1.49794 0.88909,-1.49794c0,0 0.38349,-0.76658 0.6434,-1.74456c0.19399,-0.71033 0.22995,-1.5487 0.4689,-2.22935c0.28612,-0.8343 0.79395,-1.49369 0.79395,-1.49369c0,0 -1.3737,-1.03013 -2.42606,-2.31957c-1.30254,-1.60154 -2.33095,-3.52224 -2.33095,-3.52224c0,0 -3.39005,-2.37025 -5.92172,-5.2217c-1.60214,-1.80031 -2.79384,-4.58411 -2.79384,-4.58411c0,0 -0.59371,0.5845 -1.43588,1.32396c-5.98387,5.25416 -6.46282,15.94095 -8.34477,27.52127c-1.22418,7.53273 -4.14583,12.34106 -6.0416,13.90101c-1.72574,1.42185 -3.89114,1.49516 -3.89114,1.49516c0,0 -1.35348,0.02111 -1.50775,-0.2424c-0.14832,-0.24384 0.90929,-0.77792 0.90929,-0.77792c0,0 1.9409,-0.94048 3.1586,-2.42941c5.09913,-6.2348 5.61297,-24.31327 7.89725,-31.97856c1.15438,-3.87376 2.71066,-14.23769 13.57034,-19.89423c7.8914,-4.11044 24.94735,-6.88424 29.21991,-12.01187c0.8584,-1.03021 1.78867,-2.09478 1.78867,-2.09478z" />
 </g>
</svg>