<svg xmlns="http://www.w3.org/2000/svg" width='100%' height='100%' viewBox='-5 -5 85 85' preserveAspectRatio='none'>
 <g>
    <path id="svg_1" d="m22.30195,43.41858l-0.52823,3.07676l-1.63579,3.67103l-0.62053,1.29305l-0.57603,1.39668l-0.52823,0.79974l-0.45983,1.05304l-0.74002,2.30624l-1.06635,2.56574l-0.87764,1.93781l-0.91884,1.66591l-1.24765,1.39579l-1.04246,1.13806l-0.78205,0.73332l-0.57933,0.92551l0.41863,0.25773l1.48498,0.02214l2.12529,-0.15145l0.80265,-0.29847l0.6197,-0.64564l0.50433,0.08502l0.27112,-1.00964l-0.0923,-1.48967l0.1986,-1.07961l0.62053,-1.78725l0.38072,-0.84049l1.00455,-2.00423l0.98065,-1.61809l1.36385,-1.63226c0.83726,-0.82986 1.40258,-2.08571 1.50559,-2.37355l1.30286,-1.78725l1.16277,-1.85367l0.86363,-1.72525l0.62053,-1.65794l0.36012,-1.12035c0.0478,0.62616 0.02719,1.19475 -0.05851,1.70223l-0.12032,1.4631l-0.58345,3.51604l-0.30161,1.2718l-0.09806,0.71384l-0.0206,0.62261l0.06181,0.51899l0.14092,0.43131l0.36012,0.58187l0.52164,0.74838l0.47302,0.41271l6.38411,5.77535l1.05976,0.79532l0.98395,0.6049l0.82325,0.43043l0.88506,0.14348l1.00043,0.43486l0.74084,0.25773l1.40587,0.04428l0.64113,-0.1727l0.55131,-0.23647l-1.05152,-1.37453l-0.52494,-0.7776l-0.50021,-0.64741l-0.45983,-0.51634l-0.32633,-0.32415l-0.41863,-0.0186l-0.73755,0.03985l0.28431,-0.33123l0.08241,-0.3764l-0.51422,0.06288l-1.24435,0.19219l-0.86116,-0.04074l-0.50021,-0.21787l-0.70294,-0.38703l-0.96005,-0.6669l-1.08366,-0.88034l-0.92214,-0.95119l-0.64113,-0.68815l-0.92296,-1.18323l-0.25958,-0.58187l-0.07911,-0.62616l0.07911,-0.71207l0.1986,-0.77318l0.32221,-0.88477l2.40712,-5.47245l0.45983,-1.57292l0.0412,-1.03533l0.22003,-0.58276l0.34282,-0.25773l0.50021,-0.1479l0.52494,-0.03985l0.51752,0l0.68233,0.01506l1.5402,0.02126l0.98642,-0.03985l1.64321,-0.08945l0.78452,-0.10274l1.04328,-0.25773l1.18337,-0.34718l1.26084,-0.31972l0.98065,-0.26215l0.69964,-0.12931l0.60075,0.02214l0.4211,0.90602l0.76145,1.48435l0.34282,0.53848l0.84385,1.48524l0.45654,0.6049l0.82243,1.12035l0.88094,1.12035l0.48291,0.55973l0.52164,0.77849l0.1986,0.43043l-0.00824,0.75635l-0.03131,0.25861l-0.28101,0.64121l-0.18212,0.32415l-0.3766,0.79532l-0.48785,1.03976l-0.62712,1.26028l-0.87187,1.7102l-1.09272,2.09988l-0.62795,1.02027l-2.0091,3.42748l-1.02103,1.12035l-0.88094,0.8396l-0.72024,0.84049l-0.17882,0.22053l-0.16399,0.36135l0.01978,0.19573l0.42193,0.14702l0.51834,0.04428l1.58717,0.04074l1.22458,-0.12931l0.89742,-0.36489l0.52164,-0.75192l0.27442,0.24975l0.089,0.15499l0.1574,-0.33123l0.08241,-0.33123l-0.178,-1.24966l0.19448,-1.27091l0.14092,-0.51988l0.55955,-1.24966l0.94274,-1.87493l0.60322,-1.01053l0.50021,-0.94676l0.88423,-1.5065l1.63909,-2.432l1.869,-2.46123l0.58262,-0.83251l0.51422,-0.69612l0.36342,-0.6483l0.10301,-0.41271l-0.19201,-0.4384l-0.2431,-0.46762l-0.38072,-0.52696l-0.29832,-0.55708l-0.15163,-0.41714l2.19122,0.86263l1.13887,0.34275l1.20315,0.39057l1.19985,0.38792l1.16277,0.86617l0.1813,0.16916l0.84303,2.02283l1.30369,3.68432l0.27771,0.90425l0.69222,2.07774l0.20932,0.85554l0.34282,0.81834l0.33952,1.20803l0.16069,0.43043l0.45983,0.81923l0.60075,0.73332l0.74744,0.73244l0.92544,0.47205l0.73425,0.27898l1.74457,0.51634l0.69634,0.062l0.66915,-0.04428l0.35682,-0.16916l0.28431,-0.12133l-0.20519,-0.43486l-0.23981,-0.49774l-0.38814,-0.58985l-0.49032,-0.73332l-0.70294,-0.91754l-0.33952,-0.02126l-0.33952,-0.04605l-0.10301,-0.062l0.0206,-0.21344l-0.52494,-0.55265l-0.63701,0.01506l-0.48044,0l-0.37743,-0.08502l-0.30079,-0.27987l-0.54554,-0.99813l-1.38939,-3.54527l-0.67162,-1.66591l-2.19369,-8.7228l-0.41533,-1.2346l-0.38072,-0.32415l-1.7866,-1.01407l-1.14134,-0.6669l-0.90236,-0.83606l-0.59993,-0.73332l-0.36095,-0.88388l-0.14421,-1.09821l-0.19531,-1.24966l-0.1335,-1.11238l-0.08818,-1.00256l-0.05933,-0.68904l0.62135,0.40917l0.42193,0.02214l0.35682,-0.49774l0,-0.67398l-0.1368,-1.19829l-0.68233,-1.64377l-0.76145,-1.66857l-0.2703,-0.55619l-0.59004,-0.71915l-0.76474,-0.73332l-1.18337,-0.79532l-1.10097,-0.53759l-1.40917,-0.52342l-1.69018,-0.35072l-1.13146,-0.11425l-3.93579,-0.38703l-3.66219,-0.26127l-2.92794,-0.23647l-1.34077,-0.24001l-0.94604,-0.29847l-0.90154,-0.43131l-0.87105,-0.70055l-1.50147,-0.97688l-0.58921,-0.32415l-1.34077,-0.64564l-1.13228,-0.40829l-1.28226,-0.23647l-1.22705,-0.02923l-1.03586,0.08857l-2.34532,0.883l-1.74539,0.70321l-5.23535,0.2471l0.81913,-1.216l0.28101,-0.48622l-0.77133,0.0186l-0.98724,0.13196l-1.16277,0.34629l-0.98724,0.51634l-0.45983,0.27987l-1.05234,0.01506l-0.44912,-0.20636l-0.07911,-0.24001l0.05439,-0.27987l0.12691,-0.30201l0.43923,-0.36489l0.88423,-0.40917l1.24106,-0.40829l1.7866,-0.39057l1.9852,-0.49065l0.75815,-0.19484l1.78577,-0.77406l0.98395,-0.73332l1.03916,-0.90602l1.00455,-1.09821l0.98065,-1.33734l0.94274,-1.61455l0.95016,-1.70577l0.47302,-0.94322l0.09971,-0.36489l0,-0.26215l-0.11949,-0.10628l-0.22332,0.02214l-0.31892,0.19573l-0.44253,0.38703l-0.52082,0.49774l-0.61064,0.34629l-0.54883,0.36489l-0.56202,0.01506l-0.0412,-0.18776l0.10301,-0.30201l0.44912,-0.53405l0.14751,-0.52342l0.0206,-0.25861l-0.23651,-0.10274l-0.46643,0.23558l-0.45654,0.34629l-0.54142,0.48977l-0.46313,0.4756l-0.69964,0.62704l-0.56202,0.49419l-0.38072,0.1727l-0.50351,-0.10716l-0.11702,-0.27987l0,-0.43131l0.09971,-0.39057l0.1541,-0.42688l0.0445,-0.28341l0.01978,-0.27987l-0.09889,-0.1479l-0.33952,0l-0.27771,0.17359l-0.65432,0.77406l-0.65514,1.0247l-0.49032,0.88034l-0.66915,1.0247l-0.86033,1.02382l-0.22332,0.11779l-0.2192,0.04428l-0.16069,-0.12931l-0.06181,-0.30201l0,-0.4756l0.10301,-0.64476l0.2192,-0.84049l0.44253,-1.4631l0.14751,-0.75546l0.05109,-0.1913l-0.02143,-0.27987l-0.07664,-0.13019l-0.11619,0l-0.32633,0.21344l-0.40132,0.43131l-3.54847,6.59546l-1.05646,1.09821l-0.2431,0.27632l-0.58345,0.30201l-0.44912,0.11779l-0.73425,0.01151l-0.79523,-0.30201l-1.40917,-1.03267l-0.96005,-0.84049l-0.46313,-0.27987l-0.33952,-0.15145l-0.24063,0l-0.10301,0.15145l0,0.25773l0.16152,0.41271l0.2225,0.40563l0.1574,0.38703l-0.03708,0.23558l-0.29832,0.08857l-1.42647,-0.67044l-0.37331,-0.1665l-0.32633,-0.24001l-0.28431,0.00709l-0.31727,-0.04605l-0.09971,0.16562l0.0412,0.26127l0.1302,0.23204l0.35682,0.49774l0.33622,0.49774l-0.06181,0.43131l-0.35682,0.04428l-0.76392,-0.30201l-0.42193,-0.25861l-0.40132,-0.19484l-0.32221,-0.04428l-0.19531,0.08857l-0.06181,0.1913l0.09971,0.32415l0.23981,0.40917l0.2637,0.44991l1.27897,0.9689l0.90154,0.49774l0.98395,0.34275l1.10426,0.21787l1.16277,0.12931l1.14547,0.07085l0.57933,0.25064l0.25711,0.1913l-0.01731,0.24001l-0.22003,0.25773l-0.84303,0.58276l-2.40712,1.59152l-3.68939,2.08926l-0.60982,0.43486l-0.65514,0.48977l-0.48044,0.6483l-0.38072,0.77406l-0.27112,1.01673l-0.08241,0.79266l-0.02307,0.87148l0.08241,0.64476l0.1335,0.57213l0.12032,0.45345l0.94274,0.04074l0.99466,-0.33212l0.75073,0.22496l0.45983,0.02214l0.44253,-0.10716l1.9646,-1.29305l1.06306,0.17359l1.52207,0.36489l0.66173,1.52952l0.86033,1.59152l0.2637,0.47914l0.38072,0.46851l0.58262,0.69258l0.63783,0.40829l0.45983,0l0.12032,-0.21787l0.07911,-0.32415l-0.01731,-1.16109l0.01731,-1.32671l0.0412,-0.86971l6.29841,2.95188l0.38072,0.32061l0.35682,0.58187l0.20602,0.55973l0.1541,0.92816l0.12361,1.76599l0.19531,0.54113l0.54554,1.01407l1.09025,1.70931l-0.0445,-0.11779" />
 </g>
</svg>