<svg xmlns="http://www.w3.org/2000/svg" width='100%' height='100%' viewBox='-5 -5 85 85' preserveAspectRatio='none'>
 <g>
  <path d="m0.58856,37.73324c0,0 -1.19101,-1.66108 0.47639,-2.38328c1.66741,-0.72218 7.146,-7.25814 11.43357,-7.36647c0,0 0.2382,-6.49982 3.33479,-5.41653c3.09662,1.08332 1.66741,1.94995 1.66741,1.94995c0,0 5.24039,-5.63317 6.6696,0.64998c0,0 1.42918,1.62497 6.90777,-3.03324c5.47859,-4.65821 24.28288,-5.76535 33.34795,2.8166c5.83587,5.52486 13.93466,13.75798 7.62237,21.23279c0,0 3.65402,16.4194 -26.87776,13.95369c0,0 -11.82967,-2.03735 -17.90374,-1.82068c-6.07409,0.21665 -11.07629,2.05828 -8.09878,-0.43333c2.97748,-2.49159 10.95718,-2.49159 21.67616,-0.64998c10.71898,1.84163 27.86934,1.51663 27.86934,-9.53309c0,0 -2.6202,0.86665 -3.81118,0.21667c0,0 0.59548,2.38326 -2.85839,2.16662c-3.4539,-0.21667 -6.6696,-1.19163 -10.24259,0.21665c0,0 -1.0719,0.65 -1.42921,0c0,0 -1.78649,0 -1.19099,-0.64998c0,0 -1.01234,-0.37916 0,-1.08329c1.01234,-0.70414 8.09878,-0.59583 7.86059,-0.64998c-0.2382,-0.05416 0.11909,-0.70414 -0.47639,-0.64998c-0.59551,0.05416 -18.22228,1.02914 -22.86717,-0.21667c0,0 -0.2382,1.46248 -1.19099,0.86665c0,0 -8.8134,0.81247 -10.71898,1.73328c-1.9056,0.92083 -1.25057,0.21667 -1.9056,0.43333c-0.65506,0.21665 -1.36965,1.24579 -2.1438,0.64998c0,0 -2.6202,0.5958 -1.9056,-0.43333c0,0 -0.83368,0.27085 -1.19099,-0.43331c0,0 -1.13146,-0.32498 0.47639,-1.51663c1.60785,-1.19163 8.09878,-1.13745 8.57518,-1.73328c0.47642,-0.59583 0.29775,-1.02914 -1.19099,-0.86665c-1.48874,0.16249 -4.5258,-0.32498 -6.9078,-1.73328c-2.382,-1.4083 -1.61116,-2.10858 -6.66958,-2.59995c-4.08908,-0.3972 -4.92279,-0.93885 -5.95498,-1.29996c-1.03222,-0.36109 -2.382,-2.38326 -2.382,-2.38326l0,-0.00002z" />
 </g>
</svg>