<svg xmlns="http://www.w3.org/2000/svg" width='100%' height='100%' viewBox='-5 -5 85 85' preserveAspectRatio='none'>
 <g>
  <path d="m33.01608,0.61185c-1.46121,2.83804 -6.64486,1.03316 -8.52141,3.10827c0.18164,1.51048 -2.85483,1.93998 -4.47894,2.09772c-2.92752,0.95672 -7.8538,-1.19278 -9.10963,0.99783c3.77651,0.42397 8.0953,0.24155 11.49398,1.8991c2.34538,2.06492 6.4757,2.31731 8.21925,4.72351c1.72694,2.95964 0.07371,6.16279 -2.10287,8.74188c-1.862,2.89208 -4.9047,5.47529 -5.90877,8.60243c0.07161,3.23726 1.62785,6.38645 1.10224,9.647c0.33076,2.52126 2.28663,4.75936 3.45923,7.12167c1.72494,2.62886 3.42134,5.39414 6.06858,7.59069c2.42048,2.20626 10.29536,2.90091 8.14241,6.19314c-1.38407,2.7613 -2.54877,6.08673 -6.6788,7.34705c-3.27479,1.48768 -7.36697,2.22147 -10.00838,4.31795c1.32563,0.09061 9.69832,-3.57038 8.23008,0.42193c-3.28058,2.79693 5.83709,-0.17207 8.06823,-0.54241c1.63379,-0.24837 1.47969,3.6354 2.93659,0.94516c2.05205,-2.50754 2.14709,-5.30553 3.87793,-7.58484c0.85336,-2.54951 1.31877,1.97372 3.32124,2.51614c2.43654,2.36207 2.68496,-3.49806 3.86761,-4.89848c0.9048,-2.12291 1.59723,-5.79651 2.76288,-6.93997c0.06842,-0.70417 2.26863,0.97727 1.73124,-0.94173c0.31112,-5.83802 -0.63245,-12.14732 -5.39739,-17.05034c-3.30793,-2.14439 -4.5536,-5.36245 -7.35749,-7.82471c-3.45019,-1.19779 -2.77345,-4.88948 -6.95335,-5.25103c-0.94994,-2.54445 0.90235,-5.68323 1.59444,-8.38576c0.96006,-2.51767 2.91818,-5.13592 1.21295,-7.74485c-1.2972,-2.70128 -4.07648,-5.22939 -8.11875,-5.84426c-1.79429,-0.65529 -3.40802,-1.03711 -0.99603,-1.95068c1.62396,-1.92327 -2.50939,1.83925 -0.54611,-0.74125l0.08903,-0.57114l-0.00001,0l0.00001,0l0.00001,-0.00002zm-19.65611,5.99563c4.40324,0.08247 -3.04255,0.08757 0,0zm31.84204,54.36946c3.80826,1.16717 0.27628,5.35815 -1.88337,6.70743c-4.51356,-0.79758 0.82548,-4.77755 1.88337,-6.70743l0,0zm-3.66542,7.9105c-2.0265,0.59949 -5.31814,1.02873 -1.31922,0.11604l0.67911,-0.0852l0.64012,-0.03084l-0.00001,0l0.00001,0z" />
 </g>
</svg>