<svg xmlns="http://www.w3.org/2000/svg" width='100%' height='100%' viewBox='-5 -5 85 85' preserveAspectRatio='none'>
 <g>
  <path  d="m8.50209,48.4703c-0.22057,-0.81224 -0.24121,-1.68351 -0.24121,-1.68351c0,0 -2.78037,-2.70595 -4.14562,-4.2395c-1.15087,-1.29381 -3.06092,-5.00203 -3.06092,-5.00203c0,0 -0.10155,-0.93717 0.07666,-0.96343c0.28905,-0.04159 1.7876,1.4208 3.25,2.27457c1.50633,0.87953 3.23485,1.45801 3.23485,1.45801l1.89063,0c0,0 -1.55292,-4.56336 0.43912,-3.9653c0.71972,0.06788 1.11747,1.79421 2.2137,1.98405c1.28448,-0.35295 1.91698,-4.49166 1.91698,-4.49166c0,0 -0.39063,-0.77059 -0.37305,-1.50235c0.01417,-0.48381 0.43996,-1.03606 0.43996,-1.03606c0,0 -0.9082,0.16914 -1.53077,-0.05471c-0.56103,-0.20197 -1.41811,-0.98736 -1.64503,-1.56801c-0.28086,-0.71875 -0.208,-1.51392 -0.50635,-1.97086c-0.0296,-0.35859 0.38327,-0.48082 0.60255,-0.31253c0.82543,0.63356 1.91939,0.70096 2.15549,0.83064c0.98787,0.54277 2.654,0.61847 2.89695,0.50972c-2.18638,-3.04471 0.58745,-3.67683 0.97392,-3.74137c0.48365,0.58791 1.21245,1.29472 1.42138,1.93693c0.27692,0.39083 0.25439,-0.16473 0.25439,-0.16473c0,0 0.01417,-1.63864 0.6455,-2.86569c0.14553,-0.28625 0.95001,-1.20018 1.48634,-1.28016c0.19443,-0.02898 0.60673,-0.09429 1.04542,-0.53467c1.12084,-1.1252 4.17918,-0.93701 4.17918,-0.93701c0,0 0.24756,0.12806 0.71045,0.12587c0.40869,-0.0027 7.60034,-0.47716 10.54148,0.7055c1.97694,0.79493 5.51284,0.55719 9.77198,-0.80289c1.34432,-0.42927 5.22704,-0.54074 5.22704,-0.54074c0,0 1.46847,0.09106 2.66035,0.54156c1.85819,0.70234 5.39677,0.43044 7.56523,0.68768c0.8369,0.09961 2.43924,0.97655 3.76511,1.79514c4.1686,2.57356 6.59792,8.33676 6.30421,10.29965c-0.57242,3.82559 -3.98186,10.37907 -5.48805,13.26068c-0.60936,1.1658 -0.92314,2.93597 -0.78979,4.282c0.03884,0.392 -0.46129,1.37245 -1.40968,2.04084c-1.33655,0.94201 -0.32909,2.32332 -0.20554,2.95819c0.12303,0.63321 0.08201,1.44543 -0.28079,1.62605c-0.36129,0.17948 -5.52524,1.19019 -5.67672,-0.15709c-0.75627,-1.52108 2.95731,-3.83144 2.53269,-6.51675c-1.21515,-1.78662 -1.49737,-5.7668 -1.6919,-6.37768c-0.20346,-2.74885 -4.18448,1.55748 -6.19188,2.43877c-5.76939,2.53288 -12.27994,1.39109 -12.79198,1.17836c-0.70262,2.38754 0.03908,3.56785 0.08693,3.85848c-0.15793,1.62814 1.39683,4.2379 1.74412,5.83748c0.28432,1.282 -4.57428,1.282 -5.90672,1.2309c-1.09685,-0.32947 0.55207,-2.72972 0.8208,-2.99757c0.36588,-2.06208 -1.67472,-3.91065 -1.67472,-3.91065c0,0 -0.14575,1.84857 -0.55135,3.40058c0.01691,0.73154 0.66748,1.26317 0.76222,1.91553c0.1006,0.69671 -0.37305,0.78756 -0.37305,0.78756c0,0 -3.72469,0.74693 -4.66307,-0.12095c-0.47063,-0.16516 -0.88088,0.10399 -1.21047,-0.18226c-0.229,-0.20032 0.14892,-1.34632 0.43263,-1.66324c0.24266,-0.27252 1.86197,-0.33134 1.87451,-2.52468c-0.40124,-3.89609 -3.70508,-5.52716 -3.95116,-7.04271c-1.60019,0.69999 -3.2827,-0.61566 -3.2827,-0.61566c0,0 -0.43994,0.56972 -0.92433,0.6775c-0.38867,0.0854 -1.8145,-0.93856 -2.29199,-1.53515c-0.15411,2.33641 -1.87644,1.71306 -1.87644,1.71306c0,0 -0.6089,1.14793 -1.57669,1.70264c-2.38556,1.36737 -2.82284,1.25863 -3.80759,2.30198c-0.5546,0.58759 -1.52934,-0.28059 -2.17336,-0.01034c-2.33212,0.97866 -3.74111,-0.27185 -3.62988,-3.048z"/>
 </g>
</svg>