<svg xmlns="http://www.w3.org/2000/svg" width='100%' height='100%' viewBox='-5 -5 85 85' preserveAspectRatio='none'>
 <g>
  <path d="m32.26045,74.63322c-0.77237,-2.00244 -14.74265,0.50097 -7.43208,-2.09259c2.83204,-0.55944 8.64721,0.14203 2.86559,-1.37056c6.58379,1.89746 9.50165,-4.75184 9.92668,-9.23462c-6.12804,-1.63106 -7.18931,-7.72307 -13.64708,-9.36369c-4.92031,-3.29503 -12.13357,-3.19427 -15.25658,-8.27467c-2.96504,-4.52381 -1.29048,-10.03036 -0.79965,-14.91709c1.16843,-5.15889 3.54055,-10.38038 3.07144,-15.62255c-4.78225,2.35198 -6.53069,-2.9059 -6.63975,-4.54822c-3.52012,0.76897 -5.75003,0.80305 -1.9221,-1.87185c1.71061,-2.02643 2.5596,-6.45263 5.29235,-5.78823c0.72097,-2.6793 2.63444,1.21817 4.75006,-1.14914c1.29639,0.83615 4.03817,1.76826 0.99901,3.24253c5.48769,2.36538 9.93116,5.9641 12.21722,10.56294c2.29086,4.67392 6.85491,9.72492 14.22519,8.46031c6.67342,0.97878 14.4921,-2.44204 14.18828,-8.18197c0.12936,-4.06675 4.81505,-13.56434 11.13013,-8.73716c4.73265,1.55038 10.17833,5.39063 9.06183,9.74873c-0.6466,4.4935 -0.14702,9.02584 0.46673,13.55594c-3.96372,2.5099 -3.25209,6.86972 -6.02024,10.15256c2.29643,4.6224 0.08479,9.61608 -3.67423,13.36998c-3.76012,3.46005 -9.25593,6.53297 -15.34718,6.08353c-2.32714,3.30935 2.7478,6.22109 4.53825,6.4065c-4.66564,-1.27756 -4.0085,1.17218 -2.47021,3.7899c1.44125,4.90093 -3.08323,-4.36611 -6.0057,0.06785c-2.266,1.91426 -11.32577,2.56224 -3.99099,0.26782c6.25965,-1.98371 -7.02912,-3.22408 -4.0794,1.24614c0.97621,1.86504 6.63648,2.68625 0.67845,1.97563c-2.63072,-1.18124 -4.03786,3.01312 -6.12604,2.222l0,0zm12.55715,-8.62008c2.29037,-2.38125 2.94949,-9.27052 -2.00395,-4.24778c-3.91526,2.71064 -5.33081,7.376 2.00395,4.24778z"/>
 </g>
</svg>