<svg xmlns="http://www.w3.org/2000/svg" width='100%' height='100%' viewBox='-5 -5 85 85' preserveAspectRatio='none'>
 <g>
  <path d="m1.69586,50.24682c-0.25117,-0.98621 3.81203,-3.32822 6.77273,-5.32797c2.35064,-1.58137 4.91732,-3.49822 7.36196,-5.18948c2.0434,-1.41359 6.55274,-3.79975 7.06101,-5.34528c0.59382,-1.80562 1.65568,-5.13306 2.79622,-7.6161c0.86762,-1.89746 2.51398,-4.39227 3.40894,-4.43601c0.34707,-0.01696 0.64438,0.8879 0.64438,0.8879c0,0 0.94081,6.02911 3.02397,8.9355c0.83145,1.16279 3.24122,1.11611 4.12744,1.04417c5.91482,-0.48007 13.68279,0.48441 13.68279,0.48441c0,0 2.5242,-1.95238 2.94624,-2.16c1.07005,-0.51386 -0.00109,0.71931 2.64078,2.95627c1.44847,1.22646 2.24403,0.87005 3.38725,0.47226c0.46089,-0.16492 0.73565,-0.70321 1.11703,-1.01462c0.48804,-0.39694 10.30829,-7.85898 11.30503,-8.19468c0.99676,-0.3357 0.95328,1.81166 0.78896,2.33398c-1.81085,5.75692 -6.72661,9.71762 -6.72661,9.71762c0,0 -0.37955,0.84255 -0.20878,1.73254c0.15456,0.80802 2.78921,6.74604 1.40805,6.38579c-0.57406,0.06939 -1.98913,-0.66452 -1.98913,-0.66452c0,0 -1.4198,-0.88894 -2.43561,-2.14975c-0.7185,-0.89664 -1.13693,-2.28934 -1.13693,-2.28934c0,0 -0.32655,-1.13214 -1.29237,-1.45922c-2.33304,-0.79014 -4.07502,0.11292 -4.67421,0.89245c-0.51333,0.66656 -0.19795,1.78907 -0.19795,1.78907c0,0 0.72574,0.88535 0.28199,0.93112c-1.92499,0.18673 -2.82422,-1.39066 -4.16268,-2.26379c-0.46633,-0.30167 -1.17984,-0.80144 -2.38771,0.22597c-0.60726,0.51654 -1.04828,3.16359 -1.99279,4.04416c-0.63626,0.59318 -1.65385,-0.09058 -1.65385,-0.09058c0,0 -1.54814,-0.60354 -2.64258,-0.6371c-4.99085,2.76745 -14.05513,5.30914 -14.05513,5.30914c0,0 1.2083,1.60847 1.84184,2.7177c0.31448,0.55311 0.30185,1.02989 0.30185,1.02989c0,0 0.31541,0.75759 -0.34163,0.86294c-0.38953,0.06107 -4.17895,-0.64363 -6.20335,-1.53362c-1.7045,-0.75002 -3.05106,-1.8481 -3.05106,-1.8481c0,0 -6.20275,0.57172 -10.18107,0.75492c-2.31722,0.1028 -9.22005,0.06683 -9.56502,-1.28764l0,0.00001z"/>
 </g>
</svg>