<svg xmlns="http://www.w3.org/2000/svg" width='100%' height='100%' viewBox='-5 -5 85 85' preserveAspectRatio='none'>
 <g>
  <path d="m7.66672,18.61581c-0.31216,0 -0.47262,-0.32075 -0.47262,-0.7054c0,-0.32068 0.08021,-0.63202 0.31216,-0.63202c0.16045,0 0.40199,0.31134 0.48221,0.63202c0.16045,0.4669 0,0.7054 -0.32175,0.7054zm53.36124,18.30182c0.71418,0 0.87461,0.08226 0.47262,0.63195c-0.23195,0.38464 -0.71416,0.70532 -0.94611,0.70532c-0.24152,0 -0.48221,-0.32068 -0.48221,-0.70532c0,-0.39408 0.32178,-0.63195 0.9557,-0.63195zm-49.86108,-22.38725c-0.71416,-0.15563 -0.7944,-0.94374 0,-1.18168c0.40197,-0.07327 0.63394,0.15561 0.63394,0.63202c0,0.39403 -0.23197,0.62301 -0.63394,0.54966zm-8.90213,24.89684c0.9557,-0.22901 0.9557,-0.39361 0.63394,-0.93433c-0.24069,-0.39361 -0.3209,-0.86997 -0.16045,-1.02563c0.08021,-0.23837 0.48221,0 0.71416,0.46695c0.32175,0.63202 0.56242,0.71478 1.19636,0.32068c0.39328,-0.23792 0.71416,-0.39398 0.71416,-0.15561c0,0.15561 0.24154,0 0.5537,-0.32068c0.48223,-0.46695 0.56244,-1.493 0.08024,-2.04271c-0.3924,-0.46695 -2.38401,-0.31129 -2.93772,0.23792c-0.3209,0.3941 -0.56244,0.31179 -0.87461,-0.39353c-0.48221,-1.17277 -0.48221,-1.33742 0.63392,-1.41069c0.9557,0 0.9557,0 0.16045,-0.47636c-0.40112,-0.22901 -0.79437,-0.70532 -0.79437,-1.01666c0,-0.78805 1.10741,-1.25501 1.58962,-0.7053c0.16045,0.22896 0.47264,0.46695 0.7944,0.46695c0.63394,0 3.66059,-2.66535 3.66059,-3.21506c0,-0.23834 0.31304,-0.39395 0.63394,-0.23834c0.39325,0.08273 1.10743,-0.15561 1.83118,-0.54971c1.02632,-0.63197 1.02632,-0.70532 0.47262,-1.73095c-0.3924,-0.70532 -0.87461,-0.94374 -1.99076,-0.94374c-1.26786,0 -1.58962,0.15568 -1.98202,1.09942c-0.16133,0.63195 -0.64351,1.09893 -0.9557,1.09893c-0.5537,0 -0.71416,-0.7049 -0.16045,-1.09893c0.24067,-0.15568 0.40112,-0.70532 0.40112,-1.25503c0,-0.86103 -0.16045,-1.01666 -1.19636,-0.78763c-1.03591,0.15561 -1.03591,0.08226 -0.7944,-1.09947c0.16045,-0.7053 0.3924,-1.33727 0.55373,-1.41062c0.16045,-0.08226 0.32088,-0.78763 0.32088,-1.49295c0,-1.41077 0.47349,-1.64869 1.34897,-0.63202c0.40109,0.54969 0.64266,0.63202 0.79437,0.15561c0.16045,-0.31129 0.72287,-0.38464 1.59836,-0.22903c1.18765,0.31134 1.26786,0.22903 1.10741,-0.70532c-0.08021,-0.54964 -0.1613,-1.18166 -0.24152,-1.33727c0,-0.238 -0.3924,-0.54971 -0.86589,-0.78771c-0.9557,-0.39395 -1.19636,-1.33727 -0.32175,-1.33727c0.24154,0 0.47347,-0.15568 0.47347,-0.46745c0,-0.238 0.48223,-0.39361 1.11615,-0.32073c0.87548,0.08273 1.3481,-0.22891 2.54446,-1.87752c0.87548,-1.18173 1.5094,-1.81371 1.58964,-1.49303c0.08021,0.39361 0.48221,0.62256 0.87546,0.62256c0.63394,0 0.71418,-0.22896 0.48223,-1.25459c-0.08109,-0.70537 -0.48223,-1.5663 -0.72375,-1.9604c-0.71418,-0.87032 -0.71418,-1.88698 0,-1.57576c0.56242,0.31179 2.31249,-0.54921 2.31249,-1.0989c0,-0.23837 0.23282,-0.39403 0.5537,-0.39403c0.32178,0 0.47349,0.47634 0.47349,1.0994c0,0.78763 0.16045,1.09898 0.56244,0.86994c0.31216,-0.16462 0.55373,-0.63202 0.55373,-0.94329c0,-0.94379 2.54444,-2.59243 3.17836,-2.12505c0.24156,0.15573 0.48221,0 0.56334,-0.54964c0.23193,-1.0994 1.66896,-1.9604 2.30287,-1.41069c0.32178,0.22896 0.63397,0.15568 0.71506,-0.08226c0.16043,-0.31177 0.79437,-0.54971 1.50853,-0.62311c0.71416,-0.08226 1.66985,-0.39403 2.07185,-0.71471c1.50853,-1.01666 3.01795,-0.94332 3.65187,0.15616c0.40199,0.78758 0.56242,0.78758 0.56242,0.23787c0,-0.70537 0.31306,-0.78763 2.22358,-0.54964c3.02667,0.31177 3.50016,0.31177 4.61631,-0.08234c0.71416,-0.22901 0.95567,-0.15566 0.95567,0.47629c0,0.3941 0.23197,0.7054 0.55373,0.7054c0.24067,0 0.47262,-0.22903 0.47262,-0.4674c0,-0.63195 1.27748,-0.94329 2.3936,-0.63195c0.86589,0.31177 0.94611,0.39395 0.71416,2.51001c-0.08021,1.264 0,2.125 0.15174,2.125c0.16043,0 0.32175,-0.54971 0.32175,-1.33734c0,-1.32838 0.87461,-1.87764 1.19636,-0.78766c0.08024,0.39363 0.31216,0.23795 0.47262,-0.38462c0.40202,-1.64911 1.27748,-0.78813 1.03591,1.01666c-0.24064,1.49295 -0.24064,1.49295 0.47352,0.94324c0.40197,-0.23795 0.71413,-0.86093 0.71413,-1.25459c0,-0.39405 0.24156,-0.86143 0.56247,-1.02607c0.63389,-0.31122 1.34895,0.87002 1.11613,1.73137c-0.08021,0.39368 -0.08021,0.70537 0.15171,0.70537c0.16133,0 0.32178,-0.22896 0.32178,-0.39403c0,-0.22901 0.39325,-0.31134 0.87546,-0.15561c1.03506,0.23795 1.18677,0.86989 0.31219,1.25454c-0.23195,0.16507 -0.47349,0.54971 -0.47349,0.87044c0,0.54971 0.1613,0.54971 1.03591,0c1.42831,-0.94329 2.06223,-0.87044 2.3038,0.15561c0.16043,0.54971 0.47347,0.78808 0.79437,0.54971c0.32175,-0.08231 1.03591,0.23837 1.58964,0.78763c0.48221,0.46738 1.19636,0.86101 1.51812,0.86101c0.47349,0 0.47349,0.39408 0.31216,1.49343c-0.16043,1.18173 -0.16043,1.33734 0.32178,0.86105c0.63392,-0.77874 0.87461,-0.70545 1.10743,0.39353c0.08021,0.54971 0.64263,0.94374 1.27658,1.18168c0.71416,0.15616 1.10743,0.54969 1.10743,1.01709c0,0.47634 0.24064,1.02563 0.48221,1.33739c0.63394,0.54964 0.47262,2.19827 -0.24156,2.74796c-0.24064,0.16465 -0.55368,0.08234 -0.63392,-0.15561c-0.16043,-0.23842 -0.71416,-0.23842 -1.75009,0c-1.66985,0.54921 -1.98202,0.70532 -1.58962,1.41961c0.24154,0.46695 3.0188,0.31134 4.53607,-0.23837c0.47349,-0.23797 0.63394,0 0.63394,1.09942c0,0.78758 -0.16045,1.41069 -0.40112,1.41069c-0.16133,0 -0.31304,0.23792 -0.31304,0.63195c0,0.94369 0.39328,0.86093 1.42919,-0.238c0.55283,-0.63195 0.87458,-0.78805 1.26786,-0.39395c0.40112,0.39395 0.48221,0.39395 0.48221,-0.238c0,-0.38511 -0.16133,-0.70532 -0.40197,-0.70532c-0.15174,0 -0.31306,-0.31177 -0.31306,-0.62311c0,-0.39398 0.23282,-0.70532 0.5537,-0.70532c0.24154,0 0.56244,0.15561 0.56244,0.38464c0,0.23847 0.31304,0.54969 0.71503,0.63202c0.55286,0.23842 0.71416,0.54971 0.63392,1.493c-0.1613,1.80467 0.16048,2.35443 1.3481,2.04314c0.56244,-0.15616 0.87458,0 0.63394,0.31129c-0.0715,0.15561 0,0.54971 0.16045,0.71423c0.64351,0.46742 0.40197,1.56643 -0.31219,1.56643c-0.87546,0 -1.11615,0.39395 -0.64263,1.09935c0.32088,0.39403 0.56242,0.46695 0.87458,0.15566c0.72375,-0.78763 0.87548,-0.15566 0.9557,2.98645c0,1.57522 0.16045,2.8303 0.3209,2.8303c0.39325,0 0.24154,1.73137 -0.3209,2.43669c-0.31304,0.39361 -0.31304,0.77822 -0.08021,1.0989c0.56242,0.7054 0,2.74811 -0.71506,2.74811c-0.63389,0 -1.83028,1.49295 -1.83028,2.19832c0,0.86148 -1.02632,0 -1.26786,-0.94332c-0.24067,-0.86098 -0.24067,-0.86098 -0.40199,-0.23837c-0.15171,0.71473 0.71503,2.91306 1.43793,3.53604c0.47347,0.47641 -0.40199,1.264 -1.03594,0.94332c-0.32178,-0.15561 -0.47349,-0.62256 -0.47349,-1.09893c0,-1.33727 -1.99076,-4.70841 -3.50016,-5.97236c-0.80309,-0.62311 -1.51727,-1.32843 -1.51727,-1.56635c0,-0.47636 -2.54531,-1.9604 -3.97363,-2.43674c-0.79527,-0.23837 -1.03594,-0.15563 -1.03594,0.47634c0,0.46695 -0.15171,0.62256 -0.47349,0.46695c-0.71416,-0.31134 -1.03591,0.3941 -0.40197,1.09942c0.87546,0.86098 0.72375,1.88698 -0.23195,1.49295c-0.64266,-0.23795 -0.7229,-0.15568 -0.48221,1.18171c0.08021,0.77867 0.24154,1.80467 0.24154,2.27162c0,0.47636 0.16043,0.78771 0.32088,0.78771c0.23285,0 0.31304,-0.15568 0.15174,-0.39361c-0.08021,-0.23842 0.08111,-0.4674 0.40197,-0.4674c0.24156,0 0.47349,0.31172 0.47349,0.62301c0,0.32073 -0.31301,0.63195 -0.87546,0.54976c-0.47262,0 -0.87461,-0.22903 -0.87461,-0.38469c0,-0.71478 -2.14334,-5.5788 -2.77726,-6.29309c-0.71418,-0.77874 -0.24069,-1.01666 -5.8842,2.67466c-0.87458,0.54971 -1.83028,1.73137 -2.31249,2.59243c-0.39328,0.86093 -1.0272,1.73137 -1.3481,1.88698c-0.32175,0.15568 -1.5094,1.41069 -2.54534,2.74804c-4.45586,5.8896 -3.73211,6.59497 -3.41992,18.62255c1.34895,9.114 1.34895,9.114 1.34895,9.114c-3.17926,0 -3.17926,0 -3.17926,0c-2.62468,0 -2.62468,0 -2.62468,0c0.24067,-8.40915 0.24067,-8.40915 0.24067,-8.40915c0.16043,-0.70485 0.24154,-2.12493 0.32178,-2.91263c0.08021,-0.46738 -2.2323,-2.51009 -2.15206,-2.97699c0,-0.39403 2.39273,0.7054 2.39273,0.31129c0.39325,-5.73399 0,-10.29573 -1.03594,-12.72349c-0.24067,-1.49303 -2.23227,-6.29262 -2.54444,-6.29262c-0.08024,0 -0.64266,-0.46738 -1.19636,-1.01709c-0.95572,-1.02558 -1.3481,-1.09898 -6.67944,-1.41069c-5.72372,-0.32026 -5.72372,-0.32026 -5.72372,-0.32026c-1.35682,1.09898 -1.35682,1.09898 -1.35682,1.09898c-0.79437,0.71471 -1.58962,1.18168 -1.82159,1.18168c-0.48221,0 -2.47381,1.64903 -3.33971,2.59228c-0.08021,0 -0.16043,-0.08219 -0.16043,-0.15561c-0.08024,0 -0.08024,0 -0.08024,-0.08231c-0.08021,-0.22896 -0.1613,-0.46738 -0.32175,-0.70532c0.48221,-0.39403 0.87546,-0.6324 1.03591,-0.54964c0.24067,0.15561 0.47349,0 0.47349,-0.3941c0,-0.39361 -0.47349,-0.54969 -1.74135,-0.39361c-1.51814,0.238 -1.91139,0.32026 -2.15206,1.25461c-0.39328,0.47634 -0.47349,1.18171 -0.24067,1.73142c-0.08111,0.70532 -0.08111,1.18166 0,1.18166c0.08021,0 0.16043,-0.15561 0.40112,-0.32068c0,0.08234 0.08021,0.16507 0.1613,0.23837c-0.79524,0.23795 -1.19724,0.94332 -1.11615,1.64864c-0.40197,0.32068 -0.79524,0.47634 -1.27743,0.71428c0,0 0,-0.08226 -0.07152,-0.08226c0.31304,-0.70532 0.47349,-1.49303 0.5537,-2.67469c0.16133,-1.32843 0.08021,-2.19832 -0.16043,-2.19832c-0.16045,0 -0.32175,0.32068 -0.32175,0.78756c0.08019,0.3941 -0.07152,0.78771 -0.39243,0.86105c-0.24154,0.08226 -0.40197,-0.07335 -0.40197,-0.46695c0,-0.94374 -0.31219,-0.94374 -1.02722,-0.08273c-0.32088,0.32068 -0.95482,0.70537 -1.50853,0.87044c-0.72375,0.22896 -0.9557,0.07327 -1.27745,-0.78771c-0.24067,-0.70532 -0.40112,-1.49343 -0.24067,-1.80472c0.08021,-0.39403 0.08021,-0.71428 -0.23195,-0.71428c-0.87548,0 -0.24154,-1.25508 0.79437,-1.49345zm6.83987,-18.06345c-0.48221,-0.08226 -0.87548,-0.31129 -1.03591,-0.63197c-0.08024,-0.46738 -0.16045,-0.46738 -0.16045,0c0,0.32068 -0.32175,0.54971 -0.63394,0.63197c-0.56242,0 -0.56242,0.08231 0.08024,0.3941c0.39238,0.15561 0.79437,0.39353 0.87458,0.39353c0.0715,0 0.47349,-0.23792 0.87548,-0.39353c0.71416,-0.3941 0.71416,-0.3941 0,-0.3941zm63.05774,12.65014c0.15174,0.15568 0.31219,-0.08273 0.31219,-0.47634c0,-0.31172 -0.16045,-0.62306 -0.31219,-0.62306c-0.24152,0 -0.40197,0.15566 -0.40197,0.38464c0,0.23842 0.16045,0.5591 0.40197,0.71476zm-0.56242,0.70537c-0.08021,-0.23842 -0.47349,-0.54969 -0.79524,-0.54969c-0.23195,0 -0.3924,0.31127 -0.23195,0.54969c0.0715,0.23795 0.39325,0.39363 0.71416,0.39363c0.31304,0 0.39325,-0.15568 0.31304,-0.39363zm-0.71416,3.53562c0.24067,0 0.56242,-0.08226 0.56242,-0.15561c0,-0.16507 -0.32175,-0.32068 -0.56242,-0.47636c-0.31304,-0.15566 -0.55373,-0.07335 -0.55373,0.15568c0,0.23837 0.24069,0.47629 0.55373,0.47629zm0.63394,-7.46531c0.32088,-0.15573 0.48218,-0.39408 0.40112,-0.62311c-0.24069,-0.5586 -1.58879,-0.5586 -1.58879,0c0,0.62311 0.47264,0.86105 1.18767,0.62311zm-4.3669,-5.89015c-0.40199,0.23842 -0.64266,0.70537 -0.56247,0.94374c0.40199,0.62264 0.87551,0.46695 1.2766,-0.54971c0.39328,-0.94374 0.23282,-1.09935 -0.71413,-0.39403zm-1.51814,12.10045c2.07182,2.11599 2.15206,2.19832 2.15206,1.493c0,-0.39361 -0.16045,-0.71428 -0.40199,-0.71428c-0.23193,0 -0.63392,-0.3941 -0.87458,-0.86098c-0.23197,-0.46745 -0.71416,-0.94381 -1.10743,-0.94381c-0.72287,0 -0.72287,0.08276 0.23195,1.02607zm-1.669,-3.70074c0.48136,0 0.71418,-0.15561 0.40114,-0.22898c-0.24067,-0.15566 -0.63394,-0.15566 -0.87461,0c-0.24156,0.07337 0,0.22898 0.47347,0.22898zm-2.30377,-10.68038c0.24067,0.238 0.95482,0.54929 1.58874,0.7054c1.11617,0.23792 1.19639,0.23792 0.56244,-0.39403c-0.72287,-0.77874 -2.70489,-1.01666 -2.15119,-0.31137zm-4.84913,-13.03471c-0.24067,0.22896 -0.32088,0.70532 -0.24067,1.01659c0.16045,0.63202 0.63394,0.08234 0.63394,-0.86098c0,-0.47636 -0.08024,-0.54971 -0.39328,-0.15561zm2.38401,16.96448c0.63394,0.39356 0.87548,0.39356 1.19726,-0.15611c0.63392,-0.86103 0.23193,-1.25459 -0.95572,-0.7053c-0.9557,0.38506 -0.9557,0.38506 -0.24154,0.8614zm-1.58874,-3.92977c1.19636,-0.86091 1.19636,-0.86091 0.24067,-0.86091c-0.64266,0 -1.11615,0.31122 -1.35682,0.86091c-0.15174,0.54929 -0.31304,0.86105 -0.23282,0.86105c0,0 0.63394,-0.46742 1.34897,-0.86105zm-1.75009,12.73248c0.55283,0.86105 1.50855,0.86105 1.19636,-0.08231c-0.08021,-0.31172 -0.1613,-0.70532 -0.1613,-0.78808c0,-0.07335 -0.3209,-0.07335 -0.71416,0.08276c-0.64266,0.15566 -0.64266,0.39361 -0.3209,0.78763zm-2.4651,-3.22437c0.63392,0.86103 0.9557,0.94329 1.66985,0.31134c0.47349,-0.39361 0.47349,-0.39361 0,-0.46695c-0.24067,0 -0.87461,-0.08276 -1.42831,-0.23842c-0.79524,-0.31129 -0.79524,-0.31129 -0.24154,0.39403zm-0.08021,-8.56479c0.40197,0 0.87546,-1.25501 0.63394,-1.64861c-0.31219,-0.39403 -0.95485,0.23792 -0.95485,0.94329c0,0.39405 0.16045,0.70532 0.3209,0.70532zm-3.89256,5.34039c-0.48221,0.32068 -0.40197,0.3941 0.23197,0.3941c0.40197,0 0.87458,-0.15616 1.03591,-0.3941c0.24064,-0.62298 -0.55373,-0.62298 -1.26789,0zm0.08024,6.91573c0.0715,0.08276 0.31216,-0.08231 0.5537,-0.46695c0.24064,-0.32068 0.95485,-0.71471 1.50853,-0.87039c0.71416,-0.238 1.03594,-0.62261 1.03594,-1.18171c0,-1.32788 -1.11615,-0.93435 -2.30382,0.7881c-0.48218,0.86997 -0.87458,1.57534 -0.79435,1.73095zm-0.87546,-3.61798c0.71413,-0.86093 0.71413,-1.01709 0.15169,-1.25503c-0.63392,-0.31134 -1.10654,0.3941 -1.10654,1.64864c-0.08109,0.94374 -0.08109,0.94374 0.95485,-0.39361zm-1.2766,-9.27008c0.08021,0.63195 0.24067,0.54969 0.71413,-0.62306c0.56247,-1.25461 0.56247,-1.41968 0.08024,-1.41968c-0.31216,0 -0.63394,0.238 -0.71416,0.63205c-0.16045,0.31127 -0.16045,1.02605 -0.08021,1.41069zm-0.39328,-6.43939c0,0.32026 0.15171,1.09898 0.31304,1.64864c0.24067,1.0994 0.24067,1.0994 0.48221,0.15566c0.31216,-0.94324 0,-2.35393 -0.48221,-2.35393c-0.23282,0 -0.31304,0.23787 -0.31304,0.54964zm-5.57113,2.59193c-0.39325,0.54971 -0.39325,1.09942 -0.08109,2.74804c0.16133,1.18168 0.56332,2.36339 0.79524,2.59243c0.40199,0.39403 0.48221,0 0.56242,-2.43632c0,-2.97707 -0.40197,-3.92073 -1.27658,-2.90414zm0.71416,8.32684c0.08024,0.15568 0.24067,-0.15566 0.16045,-0.62303c0,-0.47636 -0.08021,-0.54971 -0.24067,-0.23795c-0.07152,0.31129 -0.07152,0.70532 0.08021,0.86098zm2.86622,-7.3831c-0.08021,0.15568 -0.08021,1.25508 0.16045,2.43632c0.24154,2.04314 0.31304,2.1254 0.39328,0.6324c0.08021,-2.43674 -0.08024,-3.6184 -0.55373,-3.06871zm-2.70577,22.15824c0.48221,-0.94374 1.2766,-2.51908 1.83031,-3.46274c0.63392,-1.01674 1.03591,-2.35401 1.19636,-3.69135c0.23282,-2.11606 0.23282,-2.11606 0.23282,-2.11606c-0.9557,1.17275 -0.9557,1.17275 -0.9557,1.17275c-0.47349,0.63202 -0.7944,1.33734 -0.7944,1.57534c0,0.62301 -1.5094,4.5527 -1.98289,5.25808c-0.24067,0.39353 -0.64266,1.264 -0.71416,1.88698c-0.40199,1.80435 0.31304,1.493 1.18765,-0.62298zm-5.64351,8.08842c0.24154,1.5663 0.24154,1.5663 1.03594,-1.80474c0.47349,-1.81373 1.18765,-4.71733 1.66985,-6.5221c0.63392,-2.28066 0.87546,-4.16764 0.87546,-6.83334c0,-3.46239 -0.08109,-3.53574 -0.71501,-3.14164c-1.43705,1.01664 -2.2323,3.84694 -2.5532,9.34293c-0.15171,2.83084 -0.31304,5.66114 -0.47347,6.2842c-0.08024,0.63197 0,1.81368 0.16043,2.67469zm0.16133,-20.10661c0.31216,0.77872 0.63394,1.41069 0.63394,1.41069c0.08021,0 0.47259,-0.47636 0.79437,-1.09935c0.40197,-0.54926 1.03591,-1.18124 1.2766,-1.41027c0.94696,-0.71471 1.18762,-2.91303 0.39325,-4.40603c-0.63394,-1.33734 -2.38401,-2.83079 -2.70579,-2.35443c-0.16043,0.15566 -0.39238,1.64911 -0.5537,3.38006c-0.32088,2.59235 -0.32088,3.38041 0.16133,4.47933zm-0.48221,-17.99048c0.16045,0.15611 0.32088,0.07335 0.32088,-0.16457c0,-0.31177 -0.16043,-0.62311 -0.32088,-0.77874c-0.24154,-0.16505 -0.39328,-0.08231 -0.39328,0.22903c0,0.23795 0.15174,0.54971 0.39328,0.71428zm-25.76112,21.12315c1.10741,0.08273 1.10741,0.08273 1.10741,0.08273c1.11615,0 2.2323,-1.01709 2.2323,-1.88698c0,-0.54971 -0.08021,-0.54971 -3.33971,1.80425zm0.47349,-2.19835c0,0.23849 0.16045,0.47636 0.40199,0.47636c0.3924,0 1.50853,-1.41069 1.26786,-1.64861c-0.24154,-0.32068 -1.66985,0.7053 -1.66985,1.17225zm0.87546,-5.41366c1.19639,1.56672 1.75009,1.72238 2.38401,0.7053c0.64266,-0.94324 0.08024,-1.57526 -1.83116,-1.8043c-1.58877,-0.23842 -1.58877,-0.23842 -0.55286,1.099zm-0.87546,-4.40564c0,0.16457 0.56242,0.54921 1.19636,0.86989c2.93774,1.49303 3.50016,1.49303 3.41992,0.07342c0,-0.86105 -1.19636,-2.74808 -1.66985,-2.74808c-0.56242,0 -2.94643,1.493 -2.94643,1.80477zm4.29541,11.15671c0.87461,0 0.95482,-0.238 0.24067,-0.62264c-0.32175,-0.08273 -0.63394,0 -0.71416,0.22903c-0.16133,0.23787 0.08021,0.39361 0.47349,0.39361zm0.63394,-18.4575c-0.55373,-0.39408 -1.26876,-0.54969 -1.58964,-0.39408c-0.5537,0.31177 -0.47349,0.39408 0.32088,0.63195c0.39328,0.15616 1.19726,0.31179 1.58964,0.38514c0.47349,0 0.47349,-0.15611 -0.32088,-0.62301zm-0.0715,2.8303c0.47259,0 0.5537,-0.08231 0.23195,-0.32026c-0.23195,-0.0733 -0.55373,-0.0733 -0.71418,0.08234c-0.08021,0.15561 0.16045,0.31134 0.48223,0.23792zm0.47259,1.80479c-1.11613,0 -1.11613,0.07327 -0.47259,0.7053c0.79437,0.70532 1.02632,0.78758 1.3481,0.31129c0.55368,-0.62264 0.16043,-1.01659 -0.87551,-1.01659zm1.58966,-8.87613c-0.32178,-0.39403 -0.40199,0.31134 -0.24069,1.17232c0.08021,0.54971 0.40112,1.026 0.56244,1.026c0.31216,0 0.08021,-1.73137 -0.32175,-2.19832zm2.54444,10.36901c-0.16043,0.07342 0.24154,0.54971 0.71503,0.94379c0.48221,0.39361 0.87458,0.54924 0.87458,0.31129c0,-0.54964 -1.34808,-1.57569 -1.58962,-1.25508zm-1.99076,0.54971c-0.71416,0.54976 -0.31216,1.96038 0.7229,2.19837c0.5537,0.15563 1.42919,0.78766 1.98289,1.41064c0.48221,0.63202 0.87458,0.87044 0.87458,0.63202c0,-0.78763 -3.17838,-4.56172 -3.58037,-4.24104zm3.25949,6.52217c-0.47347,-1.26447 -1.0272,-1.8871 -2.06313,-2.28113c-0.79437,-0.31129 -1.58962,-0.47629 -1.83028,-0.39356c-0.24154,0.08226 0.71416,1.09893 2.07185,2.28061c2.54444,2.04271 2.54444,2.04271 1.82157,0.39408zm4.22303,-12.1005c-0.16045,0 -0.32178,0.31134 -0.32178,0.62264c0,0.39403 0.16133,0.63202 0.32178,0.63202c0.23195,0 0.39328,-0.238 0.39328,-0.63202c0,-0.31129 -0.16133,-0.62264 -0.39328,-0.62264zm-0.72287,6.43939c0,0.54964 1.35682,0.15566 1.91052,-0.54971c0.7944,-1.18166 0.71416,-1.493 -0.32175,-1.493c-0.71416,0 -1.58877,1.09945 -1.58877,2.04271zm2.31251,-16.96455c-0.24154,1.01666 -0.40199,1.87764 -0.32175,1.9604c0.24152,0.31134 0.87548,-2.04266 0.87548,-2.9864c0,-0.39361 -0.24156,0.08276 -0.55373,1.026zm4.1341,15.86513c-0.40199,0 -0.71418,0.15616 -0.71418,0.46738c0,0.238 0.23195,0.3941 0.47262,0.3941c0.32175,0 0.63394,-0.15611 0.71503,-0.3941c0.16045,-0.31122 -0.08109,-0.46738 -0.47347,-0.46738zm-0.95572,14.76615c0.47349,1.4201 1.18765,2.74804 1.58964,3.06871c0.40199,0.238 1.19636,1.33739 1.66985,2.43674c0.47349,1.09898 0.9557,1.95998 1.03594,1.95998c0.39238,0 -0.40199,-7.22702 -0.9557,-9.42577c-0.48223,-1.88656 -0.63397,-3.61798 -0.55373,-6.36601c0.0715,-2.04266 0,-3.84743 -0.16043,-4.00307c-0.08024,-0.15566 -0.63394,-0.15566 -1.11615,0c-0.87548,0.31129 -0.9557,0.54971 -0.9557,2.28108c0,1.32796 -0.16048,2.04271 -0.55373,2.35393c-1.11613,0.7054 -1.03591,4.70844 0,7.69439zm-2.30377,-10.52467c-0.16045,-1.18168 -0.32088,-1.33734 -1.19636,-1.33734c-1.03594,0 -1.03594,0.08231 -0.9557,1.73095c0,1.01709 0.1613,2.19875 0.24152,2.74801c0.08024,0.54971 0.39328,1.09935 0.71418,1.18168c0.63392,0.39408 1.34808,-2.35393 1.19636,-4.3233zm-1.19636,7.93232c-0.71418,-0.94332 -1.19636,-1.95998 -1.26789,-2.19832c0,-0.31129 -0.40197,-1.09893 -0.87461,-1.8043c-0.48221,-0.70532 -1.03591,-1.57571 -1.27745,-1.88706c-0.79437,-1.09935 -0.63394,-0.15561 0.24154,2.28066c0.5537,1.64903 1.50855,3.14206 2.62468,4.39707c2.06311,2.12498 2.3038,1.73102 0.55373,-0.78805zm-1.26789,3.85635c0.86589,0 0.7944,-0.08226 -0.40197,-1.33727c-0.7944,-0.78771 -1.3481,-1.64869 -1.3481,-2.04274c0,-0.31127 -1.03594,-1.41966 -2.23227,-2.43632c-1.18767,-1.02598 -2.30382,-2.04264 -2.46425,-2.35436c-0.16133,-0.39361 -0.24154,-0.39361 -0.24154,0.07335c0,0.47636 -0.3924,0.54964 -1.66985,0.31129c-0.87461,-0.15568 -1.58877,-0.15568 -1.58877,-0.07293c0,0.15566 0.32088,1.09898 0.64266,2.04264c0.55373,1.56638 0.79437,1.8871 2.54446,2.50969c1.10743,0.39403 2.85748,1.33732 3.97363,2.04264c1.03594,0.71478 2.3038,1.264 2.786,1.264zm-12.41185,2.6657c0.32175,0 0.79524,-0.15561 1.11613,-0.39395c0.55373,-0.54929 0.08111,-0.54929 -0.95482,0c-0.47349,0.23834 -0.5537,0.31169 -0.1613,0.39395zm-0.87461,-1.96038c0.7944,-0.32021 3.33971,-0.63197 5.65222,-0.63197c4.36605,-0.07335 5.24151,-0.31122 3.49142,-0.78763c-0.55368,-0.15561 -1.82157,-0.54971 -2.85748,-0.94332c-1.83031,-0.70532 -5.57201,-0.46738 -5.96441,0.32033c-0.08109,0.15603 -0.48221,0.23834 -0.87546,0.15603c-0.7944,-0.23837 -1.58964,0.39365 -1.83031,1.64869c-0.32175,1.01659 0.24067,1.09935 2.38401,0.23787zm-6.35766,1.80477c0.16045,0.63202 0.9557,0.70532 1.58964,0.15561c0.39238,-0.31127 0.39238,-0.46688 0,-0.94324c-0.32175,-0.46745 -0.5537,-0.46745 -1.03591,-0.07335c-0.32175,0.22903 -0.55373,0.62264 -0.55373,0.86098zm-2.54446,5.49607c0.31219,0 0.47264,0.238 0.31219,0.70537c-0.07152,0.32068 -0.31219,0.63197 -0.47349,0.63197c-0.24067,0 -0.3924,-0.31129 -0.3924,-0.63197c0,-0.38464 0.23195,-0.70537 0.5537,-0.70537z"/>
 </g>
</svg>