<svg xmlns="http://www.w3.org/2000/svg" width='100%' height='100%' viewBox='-5 -5 85 85' preserveAspectRatio='none'>
 <g>
  <path d="m45.80633,74.34201c-1.74486,-1.95939 -4.45818,-2.18283 -5.11063,-4.97176c-0.51139,-1.51695 -5.33233,-3.55148 -2.47907,-0.82876c2.20323,1.64069 4.8208,7.69232 -0.5996,5.7803c-4.12263,-1.24221 -4.2994,-5.07802 -5.40447,-7.94976c-3.59358,-2.04698 0.9291,-6.37516 -2.94016,-8.99788c-3.28391,-2.73781 -0.99687,-7.86531 -5.6893,-9.80656c-2.35528,-0.78485 -3.37476,4.63416 -3.77133,0.6698c-1.29036,-4.00955 -5.84757,1.94908 -8.88643,1.31737c-2.45219,-0.17502 4.10189,-1.57468 0.97425,-1.95134c-1.83882,0.82645 -3.54016,2.25544 -3.83108,-0.10996c-2.21198,-1.07859 -6.85056,-2.80105 -6.73007,-4.51449c1.92088,-0.49543 8.40556,0.93812 7.2818,-1.05375c-1.92832,-0.60083 -2.27861,-2.24323 0.0832,-1.14096c4.65447,0.11988 10.11084,-1.40553 13.98365,1.51198c2.02008,1.02049 4.00629,4.68047 5.08773,1.12365c3.48607,-3.45208 10.5204,-3.74448 12.6694,-8.21406c0.52003,-2.16244 -1.59715,-3.39617 -3.39576,-3.83419c-0.34992,-0.71065 -0.94559,-3.72783 -2.43292,-2.20527c0.06779,-1.3326 1.46298,-4.51932 -1.62742,-3.10856c-0.31345,-2.83836 2.6419,-5.67011 -1.26763,-7.73703c3.66302,0.5579 2.94069,-2.87069 2.14285,-3.41445c2.17141,-0.25315 4.71966,-1.85742 3.52242,-3.84484c2.35809,3.51477 2.43985,-4.26407 4.38126,-0.91115c3.57317,0.48094 -1.11006,-2.62097 2.17638,-1.92861c1.87659,0.05272 1.45981,-1.68816 3.14563,-0.37426c2.23116,-0.99951 -1.71041,-4.02018 1.89204,-1.92138c1.21101,0.86377 5.06654,3.12611 4.37477,0.14075c3.42313,2.99798 6.11695,-2.78462 8.96143,-3.98214c1.12828,-1.10823 3.58179,-2.28109 1.319,-0.16559c-1.5022,2.6966 -6.59865,5.61375 -5.22755,8.29322c-1.24107,0.92764 2.50403,2.09353 -0.47722,1.74234c-1.76619,1.56528 2.36788,4.49381 2.69779,6.95732c-0.94695,1.68794 -4.55272,3.60419 -6.01134,3.54363c0.53311,-2.17322 -0.6226,-5.00577 -3.99823,-3.77737c1.89096,2.8407 4.44751,5.55446 6.04929,8.64367c1.56562,3.03684 4.10399,6.54377 7.44358,2.63536c2.12856,-2.49106 8.20932,-2.455 6.53899,1.59049c-0.85388,3.97255 1.43222,9.21552 -2.96047,11.95195c-2.64991,4.19234 -5.58769,-1.5588 -3.50581,-3.73451c-0.53048,-0.62175 -0.94087,-1.06065 0.61147,-1.91053c-0.32053,-0.63751 4.46736,-3.03597 2.05428,-4.50771c-2.74449,2.5551 -6.7603,5.51264 -5.64426,9.31076c0.90579,2.5452 -6.56473,6.90871 -5.96735,2.68472c0.13381,-1.64159 2.98847,-4.82317 2.33137,-5.23305c-2.08416,3.21064 -5.04898,6.29515 -9.52914,7.2484c-3.72661,0.18131 -5.67875,2.64481 -3.90906,5.37809c0.3382,3.87318 -2.152,7.3786 -2.72531,11.14968c1.06571,3.99973 7.55402,4.80798 8.43471,8.88801c1.5133,2.74015 -2.27206,2.3352 -4.03571,1.56847l0.00001,0l0.00001,-0.00004zm-9.22693,-11.93249c-0.54624,-1.808 -1.67037,4.69991 -0.28468,1.24578l0.20744,-0.61025l0.07724,-0.63553l0,0z"/>
 </g>
</svg>