<svg xmlns="http://www.w3.org/2000/svg" width='100%' height='100%' viewBox='-5 -5 85 85' preserveAspectRatio='none'>
 <g>
  <path d="m30.98149,6.29139c0,-3.33043 2.73408,-6.02808 6.10948,-6.02808c3.3754,0 6.10947,2.69765 6.10947,6.02808c0,3.33043 -2.73407,6.02808 -6.10947,6.02808c-3.3754,0 -6.10948,-2.69765 -6.10948,-6.02808zm20.54111,17.0633l0,-3.04435c0,-3.2031 -2.63023,-5.80014 -5.87847,-5.80014l-17.12526,0c-3.24636,0 -5.87846,2.59704 -5.87846,5.80014l0,3.04435c-0.00568,0.0691 -0.00947,0.14008 -0.00947,0.21198l0,17.53491c0,1.36249 1.11872,2.46629 2.49961,2.46629c1.379,0 2.50055,-1.10381 2.50055,-2.46629l0,-17.27529l1.67618,0l0,19.74345l0.0123,0l0,27.8969c0,1.81353 1.49257,3.28714 3.33249,3.28714c1.84086,0 3.33249,-1.47175 3.33249,-3.28714l0,-27.8969l2.19863,0l0,27.8969c0,1.81353 1.4935,3.28714 3.33248,3.28714c1.84086,0 3.33248,-1.47175 3.33248,-3.28714l0,-27.8969l0.01041,0l0,-19.74345l1.67618,0l0,17.27435c0,1.36249 1.12155,2.46723 2.50055,2.46723c1.3809,0 2.49961,-1.10474 2.49961,-2.46723l0,-17.5349c-0.00094,-0.07284 -0.00663,-0.14195 -0.01231,-0.21105l0,0z" />
 </g>
</svg>