<svg xmlns="http://www.w3.org/2000/svg" width='100%' height='100%' viewBox='-5 -5 85 85' preserveAspectRatio='none'>
 <g>
  <path d="m37 1 C 33.733752528095785 1.004256808063944 31.089389827553045 3.682513427890173 31.089389827553042 6.988384448612903 L 31.089389827553042 6.988384448612903 C 31.089389827553045 10.294255469335639 33.733752528095785 12.972512089161873 37 12.976768897225806 L 37 1 Z M 37 44.02128395139175 L 37 44.02128395139175 L 35.93599077773426 44.02128395139174 L 35.93599077773426 71.73450339750649 C 35.93599077773426 73.53794039051581 34.49101092030296 75 32.70772309399819 75 C 30.925345869562513 75 29.479455410262123 73.53609263724682 29.479455410262126 71.73450339750649 L 29.479455410262123 44.02128395139175 L 29.46754008793259 44.02128395139175 L 29.467540087932584 24.40783003811129 L 27.843781959288624 24.40783003811129 L 27.843781959288624 41.56937496838208 C 27.843781959288627 42.92288404039161 26.757307995167448 44.0194262639654 25.42143567870977 44.0194262639654 C 24.083732471259992 44.0194262639654 23.000000000000007 42.92289397454897 23 41.56937496838208 L 23 24.149919444726343 C 23.000000000000004 24.078492853306663 23.003671469238128 24.007980204364127 23.00917382946835 23.939335177005287 L 23.00917382946835 20.915029981059526 C 23.009173829468352 17.733020037020946 25.55895593544968 15.153079633953304 28.703787301117217 15.153079633953293 L 37 15.153079633953295 L 37 44.02128395139175z" />
 </g>
</svg>