<svg xmlns="http://www.w3.org/2000/svg" width='100%' height='100%' viewBox='-5 -5 85 85' preserveAspectRatio='none'>
 <g>
  <path d="m37.17826,12.26557c3.48619,0 6.31567,-2.7102 6.31567,-6.05361c0,-3.3453 -2.82948,-6.05737 -6.31567,-6.05737c-3.48914,0 -6.31958,2.71207 -6.31958,6.05737c0,3.34342 2.82947,6.05361 6.31958,6.05361zm17.71284,26.10757l-5.66776,-20.1487c-0.05285,-0.18293 -0.12724,-0.35742 -0.21727,-0.51877c-0.644,-1.88747 -2.4928,-3.2543 -4.67632,-3.2543l-14.34507,0c-2.2765,0 -4.18795,1.48409 -4.7507,3.49821c-0.03817,0.08818 -0.06949,0.18106 -0.09787,0.27674l-5.56695,20.14776c-0.37094,1.32085 0.44727,2.6783 1.82726,3.03384c1.37804,0.35367 2.79425,-0.43059 3.16519,-1.75144l4.37193,-15.82683l1.82139,0l-7.93448,28.63577l7.47644,0l0,19.7697c0,1.52068 1.28407,2.75241 2.87253,2.75241c1.58455,0 2.87156,-1.2308 2.87156,-2.75241l0,-19.7697l2.28433,0l0,19.7697c0,1.52068 1.28603,2.75241 2.8745,2.75241c1.58454,0 2.87156,-1.2308 2.87156,-2.75241l0,-19.7697l7.47251,0l-7.96383,-28.63577l1.86936,0l4.45218,15.82683c0.37093,1.32085 1.78715,2.10511 3.16518,1.75144c1.3751,-0.35554 2.19331,-1.71392 1.82433,-3.03478l0,0z" />
 </g>
</svg>