<svg xmlns="http://www.w3.org/2000/svg" width='100%' height='100%' viewBox='-5 -5 85 85' preserveAspectRatio='none'>
 <g>
  <path d="m38 12.97598191227579 C 37.98261596287933 12.97611175642494 37.96521549927042 12.976176801285636 37.94779887262405 12.976176801285636 L 37.94779887262405 12.976176801285636 C 34.40851223122228 12.976176801285645 31.539174195101268 10.296153004278597 31.539174195101523 6.989947475002327 C 31.539174195101268 3.681882871366561 34.40949589879784 1 37.94779887262405 1 C 37.96521549927042 1 37.982615962879336 1.0000650897407313 38 1.0001950234268504 L 38 12.97598191227579 Z M 38 52.72857594529896 L 38 52.72857594529896 L 36.79449427433543 52.72857594529896 L 36.79449427433543 72.27822613945143 C 36.79449427433516 73.7828996161316 35.48934993780992 74.99999999999999 33.8824731781571 75 C 32.27163132549299 74.99999999999999 30.96946841440296 73.78197996764526 30.96946841440322 72.27822613945142 L 30.96946841440322 52.72857594529895 L 23.387683250829607 52.72857594529896 L 31.433962328127297 24.411540960438018 L 29.58690842559062 24.411540960438018 L 25.153376689873838 40.062207899355556 C 24.777210039893642 41.368355967305305 23.3410452386641 42.143886636018856 21.94358826357849 41.7941532164846 C 20.544153812438395 41.44257061128429 19.71441500109401 40.10022992548469 20.09058165107421 38.79408185753493 L 25.73597155808291 18.870579720641743 C 25.764751440345094 18.77596470217527 25.796512748042755 18.684118517861258 25.835220574186692 18.596920019445985 C 26.40589988155746 16.605218504043815 28.344282755079192 15.137647405006419 30.652859286807825 15.137647405006415 L 38 15.13764740500641 L 38 52.72857594529896z" />
 </g>
</svg>