<svg xmlns="http://www.w3.org/2000/svg" width='100%' height='100%' viewBox='-5 -5 85 85' preserveAspectRatio='none'>
 <g>
<path id="svg_1" d="m25.33907,28.08289c-6.85992,6.22767 -15.58987,9.85306 -24.86974,10.32947c0.21091,8.56754 3.35731,17.07417 9.45641,23.85635l24.80256,-24.79823l-9.38923,-9.38759z" />
   <path id="svg_3" d="m9.94449,12.69099c-5.60542,6.22299 -8.72058,13.90019 -9.36423,21.74453c8.17847,-0.49047 15.86639,-3.70349 21.94674,-9.16422l-12.5825,-12.58031z" />
   <path id="svg_4" d="m37.53257,34.66514l24.76819,-24.76387c-6.59121,-5.93246 -14.96496,-9.25638 -23.8652,-9.47194c-0.46399,9.26419 -4.07908,17.98637 -10.29534,24.84665l9.39235,9.38915z" />
   <path id="svg_5" d="m34.45959,0.54023c-8.08942,0.65604 -15.6508,3.90343 -21.70771,9.34854l12.57782,12.57562c5.44919,-6.08085 8.65028,-13.75961 9.12989,-21.92416z" />
   <path id="svg_6" d="m37.53257,40.27583l-24.80256,24.79823c6.51309,5.86529 14.76968,9.18609 23.55431,9.47194c0.41088,-9.40009 4.04784,-18.24879 10.34065,-25.18092l-9.0924,-9.08925z" />
   <path id="svg_7" d="m49.4308,46.56286c6.92553,-6.27141 15.75703,-9.89524 25.1322,-10.30136c-0.27808,-8.46601 -3.42605,-16.85393 -9.45641,-23.55489l-24.76819,24.76387l9.0924,9.09237z" />
   <path id="svg_8" d="m65.12691,62.25466c5.65853,-6.29796 8.77057,-14.08139 9.35486,-22.01944c-8.28627,0.41705 -16.08355,3.62695 -22.23888,9.13767l12.88402,12.88177z" />
   <path id="svg_9" d="m40.25873,74.46477c8.2269,-0.59668 15.92107,-3.86594 22.06391,-9.40321l-12.88871,-12.88646c-5.53199,6.16207 -8.75495,13.97986 -9.1752,22.28967z" /> </g>
</svg>