<svg xmlns="http://www.w3.org/2000/svg" width='100%' height='100%' viewBox='-5 -5 85 85' preserveAspectRatio='none'>
 <g>
   <path d="m59.07267,27.16668l-43.1438,0c-0.84762,0 -1.54113,0.82494 -1.54113,1.83319l0,14.66555c0,1.00826 0.69351,1.83319 1.54113,1.83319l43.1438,0c0.84762,0 1.54113,-0.82494 1.54113,-1.83319l0,-14.66555c0,-1.00826 -0.69351,-1.83319 -1.54113,-1.83319z"/>
   <path d="m69.28109,41.43259c-0.53015,-0.78827 -0.53015,-2.07701 0,-2.86345l4.23809,-6.30252c0.53015,-0.78827 0.2697,-1.43356 -0.57792,-1.43356l-10.78633,0l0,12.83236c0,2.02201 -1.38239,3.66639 -3.08225,3.66639l-0.00154,0l0,0.00367c0,1.00826 0.69351,1.83319 1.54113,1.83319l12.329,0c0.84762,0 1.10807,-0.64528 0.57792,-1.43172l-4.23809,-6.30435z"/>
   <path d="m12.84663,43.66542l0,-12.83052l-10.78788,0c-0.84762,0 -1.10807,0.64528 -0.57792,1.43172l4.23964,6.30435c0.52861,0.78827 0.52861,2.07701 0,2.86345l-4.23964,6.30252c-0.52861,0.78827 -0.26816,1.43172 0.57792,1.43172l12.329,0c0.84762,0 1.54113,-0.82494 1.54113,-1.83319l0,-0.00367c-1.69986,0 -3.08225,-1.64437 -3.08225,-3.66639z"/> </g>
 </svg>