<svg xmlns="http://www.w3.org/2000/svg" width='100%' height='100%' viewBox='-5 -5 85 85' preserveAspectRatio='none'>
 <g>
  
   <path  id="svg_2" d="m62.68998,39.01107c-0.10286,0.10299 -0.1784,0.17806 -0.2668,0.26883c0.09,0.10649 0.16715,0.19639 0.2668,0.31248c0,0.16933 0.00563,0.36485 -0.00161,0.56036c-0.00563,0.1929 -0.0233,0.38405 -0.03456,0.56211c-0.41547,0.10649 -49.99133,0.1318 -50.56913,0.0384c-0.14867,-0.31597 -0.16715,-0.74191 -0.04902,-1.24816c0.12456,-0.0323 0.26037,-0.06808 0.38975,-0.10125c0.09322,-0.36921 -0.29975,-0.20163 -0.42913,-0.3919c0,-3.87017 0,-7.78659 0,-11.73182c0.21296,-0.03055 0.40181,-0.05673 0.61557,-0.08728c0.01045,-0.07245 0.0217,-0.14053 0.03697,-0.23828c-0.21215,-0.03055 -0.4002,-0.05673 -0.61477,-0.08816c-0.12858,-0.39801 -0.0659,-0.79516 -0.04259,-1.18357c0.39859,-0.10125 49.60399,-0.14315 50.67039,-0.04626c0.05866,2.21614 0.01286,4.44013 0.02411,6.66237c0.01527,2.23185 0.00402,4.46457 0.00402,6.71213zm-30.83956,-11.85402c0.31743,0.1126 0.61075,0.09339 0.92014,0.02182c0.00723,-0.07681 0.01205,-0.13267 0.02089,-0.23217c-0.29814,0 -0.58021,0 -0.8896,0c-0.01527,0.0611 -0.03214,0.12743 -0.05143,0.21035zm2.13762,-0.2217c-0.33511,0 -0.61637,0 -0.88076,0c-0.03134,0.05761 -0.05625,0.08379 -0.05625,0.1091c-0.00161,0.04102 0.01366,0.08292 0.02893,0.15362c0.28609,0 0.56816,0 0.86469,0c0.01366,-0.08292 0.0225,-0.13791 0.0434,-0.26272zm1.17087,0.0096c-0.30939,-0.04801 -0.60191,-0.07594 -0.9121,0.01571c-0.00563,0.07332 -0.00964,0.12918 -0.01527,0.20075c0.30778,0.10649 0.6011,0.09078 0.9105,0.01484c0.00563,-0.07594 0.01045,-0.1318 0.01688,-0.2313zm0.25876,0.23392c0.32386,0.06808 0.61798,0.09427 0.92175,-0.02095c-0.00321,-0.0707 -0.00643,-0.12743 -0.01125,-0.21821c-0.29734,0 -0.57941,0 -0.8888,0c-0.00804,0.08467 -0.01366,0.151 -0.0217,0.23916zm2.1111,0.01658c-0.00804,-0.11085 -0.01125,-0.16671 -0.01447,-0.21821c-0.6453,-0.15187 -0.84299,-0.1091 -0.88639,0.21821c0.28609,0 0.56816,0 0.90085,0zm1.13712,0.00524c0.01366,-0.07594 0.02732,-0.15275 0.04902,-0.2636c-0.32386,0 -0.60593,0 -0.90728,0c0,0.0995 0,0.16584 0,0.2636c0.2885,0 0.55851,0 0.85826,0zm0.29734,-0.0096c0.3118,0 0.59307,0 0.90407,0c0.01125,-0.07245 0.02089,-0.13965 0.03777,-0.24789c-0.3118,0 -0.59226,0 -0.90246,0c-0.01205,0.07332 -0.0225,0.13965 -0.03938,0.24789zm2.11753,-0.25138c-0.30859,0 -0.58985,0 -0.90085,0c-0.00884,0.08467 -0.01447,0.151 -0.0233,0.25487c0.3118,0 0.59226,0 0.90487,0c0.00563,-0.08467 0.01045,-0.151 0.01929,-0.25487zm0.23707,0.25836c0.34073,0 0.6212,0 0.92737,0c0,-0.09427 0,-0.16235 0,-0.22519c-0.61477,-0.13529 -0.7771,-0.10561 -0.92737,0.22519zm2.12155,-0.21996c-0.64771,-0.15187 -0.84299,-0.1091 -0.88558,0.22607c0.29975,0.01658 0.59387,0.08379 0.89684,-0.05062c-0.00402,-0.06983 -0.00804,-0.12569 -0.01125,-0.17544zm1.20864,-0.03928c-0.33672,0 -0.61878,0 -0.91612,0c0,0.10038 0,0.16671 0,0.25749c0.30457,0 0.58584,0 0.88157,0c0.01286,-0.08816 0.01929,-0.14402 0.03456,-0.25749zm1.14676,0.25225c0,-0.08641 0,-0.16409 0,-0.26272c-0.29895,0 -0.56816,0 -0.86228,0c-0.01527,0.08728 -0.02572,0.15449 -0.045,0.26272c0.3118,0 0.59307,0 0.90728,0zm1.2231,-0.25225c-0.33591,0 -0.61798,0 -0.91612,0c0,0.10038 0,0.16671 0,0.25749c0.30537,0 0.58584,0 0.88237,0c0.01125,-0.08816 0.01929,-0.14402 0.03375,-0.25749zm0.27484,0.00436c0,0.08728 0,0.16409 0,0.26272c0.30136,0 0.57057,0 0.86549,0c0.01366,-0.08728 0.02411,-0.15362 0.04259,-0.26272c-0.3102,0 -0.59146,0 -0.90809,0zm2.09101,-0.00087c-0.311,0 -0.59307,0 -0.90246,0c-0.01125,0.07506 -0.02009,0.14315 -0.03536,0.24963c0.3118,0 0.59307,0 0.90326,0c0.00884,-0.07506 0.01929,-0.14227 0.03456,-0.24963zm1.18855,-0.00349c-0.3343,0 -0.61637,0 -0.91451,0c0,0.10038 0,0.16671 0,0.25749c0.30377,0 0.58503,0 0.88076,0c0.01205,-0.08816 0.01929,-0.14402 0.03375,-0.25749zm1.14756,0.25225c0,-0.08641 0,-0.16409 0,-0.26272c-0.29975,0 -0.56896,0 -0.86389,0c-0.01447,0.08728 -0.02572,0.15362 -0.0442,0.26272c0.3118,0 0.59468,0 0.90809,0zm1.22873,-0.25574c-0.33511,0 -0.61718,0 -0.92094,0c0,0.09863 0,0.16497 0,0.2636c0.29734,0 0.57941,0 0.87594,0c0.01447,-0.08379 0.0233,-0.13878 0.045,-0.2636zm0.22019,0.26272c0.33913,0 0.622,0 0.92657,0c0,-0.09427 0,-0.16235 0,-0.22519c-0.61557,-0.13529 -0.7779,-0.10561 -0.92657,0.22519zm1.25444,-0.26447c-0.01366,0.07768 -0.02813,0.15362 -0.04902,0.2636c0.32466,0 0.60673,0 0.90728,0c0,-0.0995 0,-0.16584 0,-0.2636c-0.2893,0 -0.56012,0 -0.85826,0zm1.13872,0.24527c0.32386,0.06808 0.61878,0.09427 0.92255,-0.02095c-0.00402,-0.07157 -0.00723,-0.12743 -0.01125,-0.21821c-0.29653,0 -0.57941,0 -0.89121,0c-0.00563,0.08467 -0.01125,0.151 -0.02009,0.23916zm1.16042,0.0192c0.34073,0 0.622,0 0.92657,0c0,-0.09427 0,-0.16148 0,-0.22519c-0.61316,-0.13529 -0.77388,-0.10561 -0.92657,0.22519zm2.13762,-0.00262c-0.00884,-0.11085 -0.01286,-0.16671 -0.01527,-0.21821c-0.64611,-0.15187 -0.8438,-0.1091 -0.88639,0.21821c0.28609,0 0.56816,0 0.90166,0zm0.24832,-0.00524c0.32386,0 0.61798,0 0.93943,0c-0.01607,-0.1091 -0.02652,-0.17631 -0.03857,-0.26098c-0.29493,0 -0.56494,0 -0.85826,0c-0.01527,0.08816 -0.02411,0.15449 -0.04259,0.26098zm1.16203,-0.04713c0.33189,0.13354 0.62521,0.10125 0.93139,0.0419c0,-0.09078 0,-0.15711 0,-0.21821c-0.60994,-0.11696 -0.7345,-0.09776 -0.93139,0.17631zm2.16253,0.05935c-0.03295,-0.13093 -0.04902,-0.19901 -0.06268,-0.254c-0.3102,0 -0.59146,0 -0.90487,0c0.02732,0.11521 0.0442,0.18155 0.06107,0.254c0.29573,0 0.56575,0 0.90648,0zm-49.70765,12.20926c0.33189,0 0.61396,0 0.92818,0c-0.03295,-0.11783 -0.05143,-0.18504 -0.0667,-0.23654c-0.311,0 -0.59226,0 -0.89121,0c0.01366,0.10387 0.02009,0.15973 0.02973,0.23654zm2.09583,-0.21035c-0.56253,-0.11521 -0.67986,-0.10299 -0.98604,0.10998c0.31341,0.23916 0.63245,0.12918 0.95711,0.1091c0.01125,-0.08205 0.01848,-0.13791 0.02893,-0.21908zm0.27001,0.21297c0.33109,0 0.61316,0 0.92496,0c-0.02491,-0.11347 -0.03938,-0.18068 -0.05304,-0.2409c-0.30939,0 -0.59066,0 -0.8896,0c0.00723,0.09863 0.01045,0.15537 0.01768,0.2409zm2.04681,0.02531c0.01527,-0.08903 0.02813,-0.16497 0.04902,-0.28716c-0.33832,-0.00349 -0.63405,-0.08816 -0.94505,0.06808c0.02732,0.07856 0.04982,0.14489 0.07554,0.21908c0.27644,0 0.53521,0 0.82049,0zm1.20221,-0.31248c-0.32788,0.01309 -0.60834,0.02444 -0.92737,0.03753c0.04179,0.13093 0.06268,0.19901 0.09242,0.29502c0.29653,-0.01222 0.5778,-0.02269 0.87674,-0.03579c-0.01688,-0.11871 -0.02491,-0.17457 -0.04179,-0.29677zm1.21587,0.03928c-0.3343,0 -0.61637,0 -0.92577,0c0.00804,0.10387 0.01286,0.17108 0.01929,0.254c0.31261,0 0.59387,0 0.8896,0c0.00643,-0.09165 0.00964,-0.14751 0.01688,-0.254zm0.26921,0.25225c0.32788,0 0.60994,0 0.91853,0c-0.01286,-0.10736 -0.02089,-0.17369 -0.03054,-0.24963c-0.311,0 -0.59226,0 -0.888,0c0,0.09339 0,0.15013 0,0.24963zm2.07011,-0.29153c-0.32707,0.01309 -0.60914,0.02444 -0.92818,0.03666c0.04098,0.1318 0.06188,0.19988 0.09242,0.29589c0.29573,-0.01222 0.577,-0.02269 0.87594,-0.03579c-0.01527,-0.11958 -0.0225,-0.17544 -0.04018,-0.29677zm0.26519,0.03055c0.03375,0.1318 0.05063,0.19901 0.06509,0.25487c0.3102,0 0.59146,0 0.90407,0c-0.02893,-0.11521 -0.04581,-0.18155 -0.06429,-0.25487c-0.29412,0 -0.56414,0 -0.90487,0zm2.13521,0.00873c-0.3335,0 -0.61557,0 -0.92577,0c0.00804,0.10387 0.01366,0.17108 0.01929,0.254c0.31261,0 0.59387,0 0.8896,0c0.00723,-0.09165 0.01045,-0.14751 0.01688,-0.254zm0.29332,0.29677c0.32707,-0.01571 0.60673,-0.02706 0.92898,-0.04277c-0.04741,-0.13354 -0.06991,-0.19901 -0.10286,-0.29415c-0.29573,0.01309 -0.57539,0.02619 -0.87594,0.04015c0.01929,0.12045 0.02893,0.17544 0.04982,0.29677zm2.08458,-0.29938c-0.33511,0 -0.61718,0 -0.9121,0c0,0.0995 0,0.16584 0,0.26011c0.30377,0 0.58584,0 0.88237,0c0.00964,-0.08816 0.01607,-0.14402 0.02973,-0.26011zm0.266,0.2505c0.33189,0 0.61316,0 0.92416,0c-0.0233,-0.1126 -0.03697,-0.17893 -0.04982,-0.24178c-0.3102,0 -0.59226,0 -0.8896,0c0.00643,0.09863 0.01045,0.15537 0.01527,0.24178zm2.11672,0.01484c-0.03134,-0.13005 -0.04741,-0.19813 -0.06107,-0.25487c-0.3102,0 -0.59307,0 -0.90487,0c0.02813,0.11521 0.045,0.18242 0.06349,0.25487c0.29252,0 0.56333,0 0.90246,0zm1.15158,-0.26272c-0.32225,0 -0.60352,0 -0.91291,0c0.00964,0.10561 0.01607,0.17282 0.0225,0.254c0.3118,0 0.59387,0 0.89041,0c0,-0.09252 0,-0.14926 0,-0.254zm0.29332,0.24439c0.33109,0 0.61236,0 0.92818,0c-0.03375,-0.11783 -0.05224,-0.18504 -0.0667,-0.23479c-0.3118,0 -0.59226,0 -0.89121,0c0.01286,0.10299 0.02009,0.15886 0.02973,0.23479zm1.16283,0.01047c0.3327,0 0.61477,0 0.92255,0c-0.00643,-0.10387 -0.01045,-0.17108 -0.01688,-0.25487c-0.31341,0 -0.59468,0 -0.89121,0c-0.00482,0.0899 -0.00804,0.14751 -0.01447,0.25487zm2.11994,-0.25749c-0.33591,0 -0.61718,0 -0.91291,0c0,0.0995 0,0.16584 0,0.26011c0.30377,0 0.58584,0 0.88237,0c0.01045,-0.08816 0.01688,-0.14402 0.03054,-0.26011zm0.2668,0.2505c0.33109,0 0.61236,0 0.92335,0c-0.0233,-0.1126 -0.03697,-0.17893 -0.04982,-0.24178c-0.3102,0 -0.59146,0 -0.8888,0c0.00563,0.09863 0.00884,0.15537 0.01527,0.24178zm1.18935,-0.00349c0.33109,0 0.61316,0 0.92818,0c-0.03295,-0.11783 -0.05143,-0.18504 -0.0667,-0.23479c-0.3118,0 -0.59226,0 -0.89201,0c0.01447,0.10299 0.02089,0.15886 0.03054,0.23479zm2.07735,-0.24439c-0.32145,0 -0.60352,0 -0.91291,0c0.00964,0.10561 0.01607,0.17282 0.0233,0.254c0.3118,0 0.59307,0 0.8896,0c0,-0.09252 0,-0.14926 0,-0.254zm1.20301,0.03491c-0.56253,-0.11521 -0.67986,-0.10299 -0.98604,0.10998c0.31261,0.23828 0.63245,0.13005 0.95711,0.1091c0.01125,-0.08205 0.01848,-0.13791 0.02893,-0.21908zm0.28448,0.21559c0.311,0 0.59226,0 0.90166,0c-0.01688,-0.10823 -0.02572,-0.17544 -0.03697,-0.24701c-0.311,0 -0.59226,0 -0.90246,0c0.01607,0.1091 0.02652,0.17631 0.03777,0.24701zm1.18212,0.00786c0.32064,0 0.59066,0 0.87674,0c0,-0.0995 0,-0.16584 0,-0.2732c-0.31582,-0.00175 -0.61236,-0.08903 -0.91291,0.06459c0.01286,0.0707 0.0225,0.12569 0.03616,0.20861zm1.17408,-0.01047c0.33029,0 0.61316,0 0.92416,0c-0.02491,-0.11347 -0.04018,-0.18068 -0.05304,-0.2409c-0.3102,0 -0.59146,0 -0.8896,0c0.00723,0.09863 0.01125,0.15537 0.01848,0.2409zm2.09503,-0.24789c-0.3335,0 -0.61637,0 -0.92496,0c0.00723,0.10387 0.01286,0.17108 0.01848,0.254c0.31261,0 0.59387,0 0.8896,0c0.00643,-0.09165 0.00964,-0.14751 0.01688,-0.254zm1.17167,0c-0.32225,0 -0.60432,0 -0.91371,0c0.01045,0.10561 0.01607,0.17282 0.0233,0.254c0.31261,0 0.59307,0 0.8896,0c0.0008,-0.09252 0.0008,-0.14926 0.0008,-0.254zm0.30216,0.2505c0.311,0 0.59226,0 0.90085,0c-0.01527,-0.1091 -0.02572,-0.17544 -0.03536,-0.24701c-0.3118,0 -0.59307,0 -0.90326,0c0.01527,0.1091 0.02652,0.17631 0.03777,0.24701zm2.03315,0.02269c0.01527,-0.08816 0.02813,-0.16497 0.045,-0.26534c-0.33511,-0.05412 -0.62843,-0.09689 -0.94184,0.04364c0.02732,0.08117 0.05063,0.14751 0.07554,0.2217c0.27805,0 0.5344,0 0.8213,0zm0.30457,-0.01833c0.33189,0 0.61396,0 0.90326,0c0,-0.10212 0,-0.16846 0,-0.25574c-0.30778,0 -0.58825,0 -0.88558,0c-0.00723,0.0899 -0.01045,0.14576 -0.01768,0.25574zm1.18453,0.00087c0.3327,0 0.61396,0 0.92255,0c-0.00402,-0.10299 -0.00804,-0.16933 -0.01286,-0.25749c-0.31421,0 -0.59548,0 -0.89201,0c-0.00643,0.09078 -0.01045,0.14664 -0.01768,0.25749zm1.21426,0.00262c0.32064,0 0.59146,0 0.87755,0c0,-0.0995 0,-0.16584 0,-0.2732c-0.31582,-0.00175 -0.61236,-0.08903 -0.91291,0.06459c0.01205,0.0707 0.0225,0.12569 0.03536,0.20861zm1.17328,-0.01047c0.33189,0 0.61396,0 0.88558,0c0.01607,-0.0707 0.03134,-0.10038 0.02491,-0.12743c-0.00964,-0.04102 -0.03616,-0.07943 -0.05304,-0.11521c-0.29252,0 -0.57459,0 -0.87273,0c0.00482,0.0995 0.00964,0.15624 0.01527,0.24265zm2.12476,-0.19552c-0.3327,-0.13442 -0.62602,-0.0995 -0.9113,-0.04888c-0.0225,0.05499 -0.045,0.08292 -0.0434,0.1091c0.00402,0.04102 0.0225,0.08292 0.03375,0.11783c0.59789,0.11434 0.72486,0.09514 0.92094,-0.17806zm0.24671,0.19552c0.33029,0 0.61236,0 0.92335,0c-0.02411,-0.11347 -0.03938,-0.18068 -0.05304,-0.2409c-0.3102,0 -0.59146,0 -0.8888,0c0.00804,0.09863 0.01125,0.15537 0.01848,0.2409zm1.16444,-0.00349c0.30618,0.06023 0.59869,0.07245 0.90648,0c0,-0.09078 0,-0.15711 0,-0.24614c-0.30618,0 -0.58744,0 -0.88639,0c-0.00643,0.08903 -0.01045,0.14489 -0.02009,0.24614zm2.08378,-0.28367c-0.32707,0.01309 -0.60834,0.02444 -0.92657,0.03753c0.04098,0.13093 0.06107,0.19901 0.09081,0.29502c0.29653,-0.01222 0.5786,-0.02269 0.87835,-0.03579c-0.01688,-0.11871 -0.02491,-0.17457 -0.04259,-0.29677zm1.2456,0.09165c-0.3327,-0.13442 -0.62762,-0.0995 -0.9113,-0.04888c-0.02411,0.05499 -0.04661,0.08292 -0.0434,0.1091c0.00241,0.04102 0.0217,0.08292 0.03295,0.11783c0.59789,0.11434 0.72567,0.09514 0.92175,-0.17806zm0.22662,0.20337c0.3335,0 0.61557,0 0.92335,0c-0.00563,-0.10299 -0.00804,-0.16933 -0.01205,-0.25749c-0.31502,0 -0.59628,0 -0.89282,0c-0.00643,0.09078 -0.01045,0.14664 -0.01848,0.25749zm1.18132,-0.25138c0.01688,0.10736 0.02572,0.17457 0.03697,0.24614c0.30859,0 0.58985,0 0.88478,0c0,-0.09514 0,-0.151 0,-0.24614c-0.30618,0 -0.6011,0 -0.92175,0zm-45.08365,-11.97534c-0.00723,-0.11085 -0.01205,-0.16671 -0.01527,-0.21821c-0.6453,-0.15187 -0.84299,-0.1091 -0.88719,0.21821c0.28689,0 0.56896,0 0.90246,0zm47.47441,12.21712c0.3327,0 0.61477,0 0.92577,0c-0.02572,-0.11434 -0.04179,-0.18068 -0.05465,-0.23828c-0.3118,0 -0.59146,0 -0.8896,0c0.00723,0.10038 0.01205,0.15624 0.01848,0.23828zm-47.24055,-12.2145c0.33993,0 0.6212,0 0.92657,0c0,-0.09427 0,-0.16148 0,-0.22519c-0.61396,-0.13529 -0.77549,-0.10561 -0.92657,0.22519zm2.10708,-0.00698c0,-0.08641 0,-0.16409 0,-0.26272c-0.30055,0 -0.56976,0 -0.86389,0c-0.01527,0.08728 -0.02572,0.15362 -0.0442,0.26272c0.3118,0 0.59387,0 0.90809,0zm0.27564,-0.03317c0.31743,0.11172 0.61075,0.09252 0.91934,0.02095c0.00643,-0.07681 0.01125,-0.13267 0.01929,-0.23217c-0.29814,0 -0.58021,0 -0.88719,0c-0.01527,0.0611 -0.03134,0.12743 -0.05143,0.21123zm1.17248,-0.02619c0.39458,0.12743 0.49503,0.12918 0.92657,0.02444c0,-0.06284 0,-0.13005 0,-0.19202c-0.61718,-0.11347 -0.7337,-0.09514 -0.92657,0.16758zm1.23516,-0.18853c0,0.08728 0,0.16409 0,0.26272c0.29975,0 0.56896,0 0.86469,0c0.01366,-0.08728 0.02491,-0.15362 0.04179,-0.26272c-0.3102,0 -0.59226,0 -0.90648,0zm2.07092,0.03404c-0.64771,-0.151 -0.84299,-0.10823 -0.88398,0.21035c0.29895,0.05586 0.59307,0.09078 0.89684,-0.03404c-0.00482,-0.06983 -0.00884,-0.12569 -0.01286,-0.17631zm0.29895,-0.03404c0,0.08728 0,0.16409 0,0.26272c0.30055,0 0.56976,0 0.86469,0c0.01447,-0.08728 0.02411,-0.15362 0.04179,-0.26272c-0.30939,0 -0.59146,0 -0.90648,0zm2.07092,0.03404c-0.64771,-0.151 -0.8438,-0.10823 -0.88478,0.21035c0.29975,0.05586 0.59307,0.09078 0.89684,-0.03404c-0.00402,-0.06983 -0.00804,-0.12569 -0.01205,-0.17631zm0.26118,0.21297c0.311,0 0.59307,0 0.90326,0c0.01205,-0.06895 0.02411,-0.13616 0.0434,-0.24701c-0.3102,0 -0.59226,0 -0.90005,0c-0.01366,0.0707 -0.02572,0.13704 -0.04661,0.24701zm2.10949,-0.2121c-0.6445,-0.15187 -0.84299,-0.1091 -0.88558,0.20861c0.29895,0.05761 0.59307,0.09078 0.89764,-0.03142c-0.00563,-0.0707 -0.00884,-0.12656 -0.01205,-0.17719zm1.22792,0.01135c-0.3327,-0.12831 -0.62602,-0.10125 -0.93621,-0.03666c-0.00884,0.07681 -0.01607,0.13267 -0.0225,0.18591c0.50226,0.16148 0.75701,0.13093 0.95871,-0.14926zm1.10738,0.21035c0.01366,-0.07594 0.02893,-0.15187 0.04982,-0.26272c-0.32466,0 -0.60593,0 -0.90809,0c0,0.0995 0,0.16584 0,0.26272c0.2885,0 0.55932,0 0.85826,0zm1.21909,-0.2217c-0.6437,-0.15187 -0.84139,-0.1091 -0.88558,0.20861c0.29975,0.05673 0.59307,0.09078 0.89684,-0.03142c-0.00402,-0.0707 -0.00804,-0.12656 -0.01125,-0.17719zm1.17087,0.21297c0,-0.08641 0,-0.16409 0,-0.26272c-0.29975,0 -0.56976,0 -0.86389,0c-0.01447,0.08728 -0.02572,0.15362 -0.0442,0.26272c0.3118,0 0.59387,0 0.90809,0zm1.21426,-0.24527c-0.29734,0 -0.57941,0 -0.88719,0c-0.01527,0.06197 -0.03214,0.12831 -0.05143,0.21123c0.31743,0.11172 0.60994,0.09165 0.92014,0.02095c0.00563,-0.07594 0.01045,-0.1318 0.01848,-0.23217zm28.46729,12.42311c0.33189,0.13442 0.62682,0.10038 0.9338,0.04364c0,-0.09165 0,-0.15886 0,-0.21996c-0.60753,-0.11696 -0.73772,-0.09601 -0.9338,0.17631z" clip-rule="evenodd" fill-rule="evenodd"/>
   <path  id="svg_3" d="m54.30585,45.98417c0.90809,-0.5045 1.73661,-0.96536 2.55871,-1.42185c0.36323,0.20163 0.72084,0.18155 1.09854,0.08903c0,-0.07681 0,-0.13354 0,-0.23043c-0.21055,-0.02095 -0.41306,-0.04102 -0.72165,-0.0707c2.06449,-1.15389 4.05183,-2.26676 6.07775,-3.40058c-0.09402,-0.10038 -0.16233,-0.17282 -0.2435,-0.25923c0,-0.28542 0,-0.58393 0,-0.92783c0.15429,0.05935 0.27644,0.10823 0.41868,0.16409c0.05465,-0.0611 0.10527,-0.11609 0.21858,-0.24003c-0.21537,-0.15537 -0.41868,-0.302 -0.62762,-0.453c0,-0.50886 0,-1.00289 0,-1.51961c0.18403,-0.15711 0.37609,-0.31946 0.577,-0.48966c-0.05143,-0.08292 -0.09,-0.14402 -0.14787,-0.23479c-0.13983,0.05761 -0.2668,0.10998 -0.42511,0.17544c0,-2.09219 0,-4.16606 0,-6.29316c0.13019,-0.0192 0.26841,-0.05935 0.40663,-0.05935c3.35751,-0.00175 6.71341,-0.00175 10.07011,0.00087c0.06349,0 0.12617,0.01658 0.29412,0.03928c-3.0007,2.54869 -5.98613,5.0066 -8.98684,7.55005c3.02963,2.53996 6.01024,5.04064 9.03987,7.5806c-6.54465,0.00087 -13.03063,0.00087 -19.60742,0.00087zm9.60883,-8.94921c0.22742,-0.18504 0.43797,-0.35612 0.66459,-0.54116c-0.09242,-0.09689 -0.14545,-0.15013 -0.23787,-0.24614c-0.23787,0.18679 -0.46208,0.36485 -0.71522,0.56298c0.12215,0.09427 0.19046,0.14751 0.2885,0.22432zm3.99156,-3.67116c-0.25555,0.21035 -0.4661,0.3823 -0.67423,0.55163c0.07152,0.12743 0.11411,0.20075 0.17358,0.30898c0.29573,-0.24352 0.50628,-0.41634 0.72888,-0.59964c-0.08599,-0.09863 -0.1334,-0.15362 -0.22823,-0.26098zm-2.43576,7.77612c-0.25796,-0.19726 -0.47574,-0.36136 -0.72004,-0.5464c-0.07875,0.12132 -0.12295,0.19028 -0.18965,0.29327c0.23626,0.17631 0.45485,0.33953 0.69111,0.51585c0.08036,-0.09776 0.12858,-0.15449 0.21858,-0.26272zm0.2009,-5.52681c0.23466,-0.18853 0.45645,-0.36485 0.69513,-0.55687c-0.09965,-0.10125 -0.15108,-0.15275 -0.24591,-0.24789c-0.23385,0.18853 -0.45324,0.36572 -0.69272,0.55949c0.09965,0.10038 0.15188,0.15187 0.2435,0.24527zm-0.86791,0.70525c0.2226,-0.18068 0.43476,-0.35088 0.66861,-0.53941c-0.10126,-0.09776 -0.16153,-0.15624 -0.25073,-0.24352c-0.23707,0.18941 -0.45002,0.36048 -0.65736,0.52807c0.05063,0.08467 0.06991,0.12482 0.09724,0.15973c0.01929,0.02182 0.05063,0.03579 0.14224,0.09514zm4.30818,-4.30746c-0.00563,0.56734 -0.00563,0.56734 0.1109,0.68518c0.20653,-0.03666 0.19849,-0.17631 0.23948,-0.32906c0.03054,-0.11172 0.34877,-0.1318 0.16715,-0.35612c-0.17519,0 -0.34636,0 -0.51753,0zm-0.77951,1.47248c0.25635,-0.21385 0.4669,-0.38841 0.69513,-0.57782c-0.09804,-0.09427 -0.15028,-0.14576 -0.24028,-0.23217c-0.22983,0.1798 -0.44761,0.34826 -0.67745,0.52894c0.07875,0.10038 0.12536,0.15798 0.2226,0.28105zm-2.0227,1.17309c0.12697,0.09252 0.20412,0.14838 0.29975,0.21734c0.2226,-0.18766 0.41949,-0.3535 0.63566,-0.53505c-0.09563,-0.09252 -0.15751,-0.151 -0.24671,-0.23654c-0.23385,0.18853 -0.4436,0.35786 -0.6887,0.55425zm-1.73742,5.7651c-0.23385,-0.18504 -0.44681,-0.35263 -0.68227,-0.53767c-0.08679,0.09776 -0.14385,0.16235 -0.23224,0.26185c0.23385,0.18417 0.44842,0.35175 0.68548,0.5368c0.08518,-0.09689 0.14063,-0.15973 0.22903,-0.26098zm1.09051,0.8868c-0.08518,0.11085 -0.13822,0.17806 -0.21778,0.28193c0.23466,0.17631 0.45244,0.34128 0.6895,0.52108c0.09,-0.10474 0.14706,-0.16846 0.2218,-0.25487c-0.22742,-0.18242 -0.43395,-0.34477 -0.69352,-0.54814zm1.59357,1.26911c-0.25957,-0.19988 -0.47735,-0.36659 -0.72165,-0.55425c-0.07956,0.12394 -0.12456,0.19552 -0.18965,0.29764c0.22823,0.17195 0.43877,0.33081 0.66138,0.49752c0.08277,-0.07943 0.13581,-0.1318 0.24992,-0.2409zm1.05997,0.86673c-0.08197,0.1414 -0.12215,0.21385 -0.17921,0.31073c0.22983,0.17282 0.43877,0.33255 0.67022,0.50625c0.07795,-0.10387 0.12938,-0.17282 0.20251,-0.26883c-0.2226,-0.17544 -0.42913,-0.33866 -0.69352,-0.54814zm-0.89925,-0.73318c-0.07393,0.16497 -0.11251,0.25138 -0.15429,0.34564c0.22823,0.16758 0.42913,0.31684 0.65013,0.48006c0.07795,-0.09514 0.13099,-0.16322 0.20653,-0.25574c-0.22341,-0.1798 -0.42752,-0.34652 -0.70236,-0.56996zm-3.31331,-10.43304c-0.01768,-0.12482 -0.02572,-0.19115 -0.03536,-0.2636c-0.31261,0 -0.59307,0 -0.90407,0c0.01688,0.1091 0.02572,0.17631 0.03857,0.2636c0.29493,0 0.56414,0 0.90085,0zm0.27885,-0.26272c0,0.08467 0,0.16322 0,0.24789c0.31341,0 0.59468,0 0.888,0c0,-0.09601 0,-0.15187 0,-0.24789c-0.29332,0 -0.57539,0 -0.888,0zm2.06529,0.00611c-0.33511,0 -0.61557,0 -0.92898,0c0.03134,0.11696 0.04902,0.1833 0.06268,0.23567c0.3102,0 0.59146,0 0.8896,0c-0.00884,-0.10212 -0.01607,-0.15798 -0.0233,-0.23567zm0.27403,0.24527c0.3335,0 0.61557,0 0.9105,0c0.00804,-0.09078 0.01366,-0.14751 0.0217,-0.24527c-0.30778,-0.05935 -0.60191,-0.07245 -0.9121,-0.00087c-0.00723,0.08117 -0.01045,0.13704 -0.02009,0.24614zm2.10226,-0.22519c-0.29814,-0.10212 -0.59226,-0.08816 -0.9121,-0.00873c0.00804,0.08816 0.01688,0.15537 0.0225,0.23217c0.31261,0 0.59307,0 0.8888,0c0.0008,-0.09427 0.0008,-0.15013 0.0008,-0.22345zm-9.69321,12.37423c-0.31904,0 -0.58825,0 -0.87755,0c0,0.09776 0,0.16409 0,0.2732c0.31341,0.00436 0.60834,0.08641 0.90809,-0.06372c-0.00884,-0.06895 -0.01768,-0.12482 -0.03054,-0.20948zm1.16444,0.27756c0.01688,-0.08728 0.02973,-0.16409 0.04822,-0.26709c-0.33511,-0.04888 -0.62843,-0.09776 -0.94103,0.04451c0.02572,0.08117 0.04741,0.14664 0.07152,0.22257c0.27725,0 0.53521,0 0.8213,0zm1.21989,-0.24439c-0.29734,-0.10212 -0.58985,-0.08816 -0.9105,-0.00786c0.00884,0.08728 0.01527,0.15449 0.0233,0.2313c0.3102,0 0.59146,0 0.88719,0c0,-0.09427 0,-0.15013 0,-0.22345zm1.20301,0.2217c-0.01527,-0.10823 -0.0225,-0.17544 -0.03375,-0.24701c-0.311,0 -0.59226,0 -0.90246,0c0.01688,0.1091 0.02572,0.17631 0.03536,0.24701c0.311,0 0.59307,0 0.90085,0zm0.25234,0.00436c0.3335,0 0.61396,0 0.90326,0c0,-0.10212 0,-0.16846 0,-0.25487c-0.30618,0 -0.58744,0 -0.88317,0c-0.00723,0.08903 -0.01205,0.14489 -0.02009,0.25487zm1.20542,-0.0096c0.3335,0 0.61557,0 0.92657,0c-0.02813,-0.11434 -0.045,-0.18155 -0.05866,-0.23654c-0.3102,0 -0.59146,0 -0.8896,0c0.00884,0.10038 0.01447,0.15711 0.0217,0.23654zm2.08056,-0.24178c-0.33029,0 -0.61075,0 -0.92094,0c0.01768,0.11085 0.02893,0.17806 0.04018,0.24527c0.30939,0 0.58985,0 0.88157,0c-0.0008,-0.09601 -0.0008,-0.15187 -0.0008,-0.24527zm0.28448,0.24527c0.33189,0 0.61396,0 0.92335,0c-0.02009,-0.11172 -0.03295,-0.17806 -0.045,-0.24352c-0.311,0 -0.59146,0 -0.87916,0c0.0008,0.09776 0.0008,0.15362 0.0008,0.24352zm1.14113,-0.04626c0.33189,0.13442 0.62602,0.0995 0.90969,0.04713c0.0225,-0.05499 0.04661,-0.08205 0.045,-0.10736c-0.00241,-0.0419 -0.02009,-0.08205 -0.02973,-0.11783c-0.59789,-0.11609 -0.72808,-0.09514 -0.92496,0.17806z" clip-rule="evenodd" fill-rule="evenodd"/>
   <path  id="svg_4" d="m0.71031,45.98417c3.02722,-2.53734 6.00864,-5.03715 9.0447,-7.58322c-3.00713,-2.52163 -5.96283,-5.00049 -8.90326,-7.46626c0.00241,-0.04451 -0.00161,-0.06197 0.00563,-0.07332c0.00723,-0.01222 0.02411,-0.02531 0.03857,-0.02706c0.13099,-0.00873 0.26118,-0.02269 0.39136,-0.02269c3.3551,0.00436 6.71019,0.0096 10.06529,0.01658c0.045,0.00087 0.0892,0.03055 0.16956,0.05848c0,0.40849 0,0.82571 0,1.27347c-0.09242,0.06372 -0.21055,0.14576 -0.37127,0.25574c0.15671,0.10125 0.26841,0.17369 0.40663,0.2636c0,1.3241 0.00161,2.66652 0,4.00807c-0.00161,1.32933 -0.00723,2.65867 -0.01125,4.00546c-0.0667,0.06459 -0.14224,0.13878 -0.25394,0.24876c2.01306,1.12683 4.00201,2.2397 5.99096,3.35257c-0.05786,0.11347 -0.1101,0.21734 -0.16554,0.32557c0.266,0.14489 0.45163,0.08903 0.61075,-0.07594c0.85344,0.47482 1.68116,0.93481 2.59086,1.44018c-6.57358,0 -13.05393,0 -19.60903,0zm5.56102,-13.56478c-0.01929,-0.04451 -0.03857,-0.08903 -0.05706,-0.13354c-0.30055,0 -0.6003,0 -0.91371,0c-0.02652,0.10299 -0.04822,0.18679 -0.07474,0.29327c0.21939,0.16409 0.43154,0.32208 0.67825,0.50625c0.08518,-0.07506 0.14224,-0.12394 0.19206,-0.16846c-0.05786,-0.12831 -0.09483,-0.20861 -0.12617,-0.27844c0.10126,-0.07419 0.2009,-0.14664 0.30136,-0.21908zm-0.38734,11.14265c-0.25635,0.20599 -0.47092,0.37881 -0.72245,0.58044c0.09,0.10561 0.14626,0.17108 0.22501,0.2636c0.28046,-0.22519 0.49422,-0.39714 0.72406,-0.58218c-0.08117,-0.09427 -0.12938,-0.15013 -0.22662,-0.26185zm0.41708,-10.57618c-0.09161,0.11871 -0.14304,0.18679 -0.22019,0.28629c0.2435,0.18155 0.46529,0.34739 0.70959,0.52981c0.07956,-0.10823 0.12938,-0.17544 0.19849,-0.27058c-0.22582,-0.1798 -0.43235,-0.3439 -0.6879,-0.54552zm0.65655,0.98893c0.26118,0.19901 0.47896,0.36485 0.71843,0.54814c0.08117,-0.10736 0.13179,-0.17457 0.20653,-0.27407c-0.23626,-0.1833 -0.45244,-0.35088 -0.68147,-0.52981c-0.08599,0.09078 -0.13661,0.14315 -0.2435,0.25574zm2.92034,6.81338c0.23466,-0.18591 0.45002,-0.35525 0.68468,-0.54029c-0.08759,-0.0995 -0.14304,-0.16322 -0.22823,-0.25923c-0.23787,0.18417 -0.45404,0.35263 -0.69031,0.53592c0.0892,0.10125 0.14465,0.16409 0.23385,0.2636zm-1.77358,1.43145c0.23546,-0.18591 0.45083,-0.35525 0.68388,-0.53941c-0.09402,-0.0995 -0.15188,-0.16235 -0.24189,-0.25836c-0.23466,0.18853 -0.44842,0.35961 -0.68147,0.5464c0.09402,0.09863 0.15188,0.15973 0.23948,0.25138zm-2.06449,1.20364c0.14385,0.10038 0.21537,0.15013 0.311,0.21646c0.2218,-0.17806 0.42592,-0.34128 0.64691,-0.51672c-0.08277,-0.09601 -0.13822,-0.16148 -0.22582,-0.2636c-0.23787,0.1833 -0.45645,0.35175 -0.73209,0.56385zm5.19055,-4.1582c-0.25796,0.20861 -0.46931,0.38143 -0.69673,0.5656c0.09563,0.09863 0.14706,0.15187 0.23707,0.24439c0.22742,-0.18155 0.44199,-0.3535 0.67584,-0.54029c-0.07474,-0.09339 -0.11974,-0.14838 -0.21617,-0.26971zm-1.79608,1.44106c-0.23144,0.18853 -0.45083,0.36834 -0.68709,0.56211c0.10286,0.09863 0.1559,0.15013 0.21939,0.21123c0.27162,-0.151 0.52958,-0.28978 0.67664,-0.57084c-0.06268,-0.0611 -0.11572,-0.1126 -0.20894,-0.2025zm-1.57911,-6.01735c0.24912,0.19377 0.45485,0.35437 0.68468,0.5333c0.09242,-0.09339 0.15831,-0.16148 0.25073,-0.25574c-0.24992,-0.18853 -0.46931,-0.3535 -0.70236,-0.52894c-0.08438,0.09078 -0.1342,0.14489 -0.23305,0.25138zm0.02893,7.73247c-0.07795,-0.14227 -0.11894,-0.21821 -0.18001,-0.32819c-0.29734,0.24789 -0.50789,0.42333 -0.73531,0.61186c0.10688,0.09252 0.16313,0.14053 0.24992,0.21559c0.22341,-0.16758 0.43315,-0.32382 0.66539,-0.49926zm2.6889,-6.01822c-0.26118,-0.19639 -0.47896,-0.36048 -0.72567,-0.54727c-0.07634,0.13005 -0.11894,0.2025 -0.1768,0.30026c0.23144,0.17195 0.44199,0.32906 0.667,0.49577c0.07795,-0.08379 0.12938,-0.13616 0.23546,-0.24876zm0.87594,0.70351c-0.23787,-0.17893 -0.45726,-0.3439 -0.70638,-0.52981c-0.07474,0.12394 -0.11813,0.19552 -0.1776,0.29327c0.22823,0.17282 0.43717,0.33342 0.6662,0.50799c0.07956,-0.10038 0.1334,-0.16846 0.21778,-0.27145zm-1.99699,-1.14604c0.09322,-0.11958 0.13742,-0.17719 0.21135,-0.27233c-0.23224,-0.18504 -0.44601,-0.35699 -0.68227,-0.54727c-0.08599,0.11521 -0.13742,0.1833 -0.21215,0.28193c0.22421,0.17631 0.43074,0.33953 0.68307,0.53767zm-2.01868,-3.61442c-0.39458,-0.12743 -0.49262,-0.12918 -0.91291,-0.0288c-0.01205,0.02706 -0.03456,0.05499 -0.03295,0.08117c0.00321,0.04102 0.0233,0.08205 0.03456,0.11783c0.60593,0.11172 0.72567,0.09252 0.9113,-0.1702zm1.14515,-0.05412c-0.33189,0 -0.61316,0 -0.92657,0c0.03214,0.11783 0.05063,0.18417 0.06349,0.23654c0.30778,0 0.58905,0 0.888,0c-0.01045,-0.10212 -0.01688,-0.15798 -0.02491,-0.23654zm0.25876,0.18068c0.38493,0.13005 0.48538,0.13267 0.9113,0.03404c0.01205,-0.02706 0.03456,-0.05412 0.03375,-0.07943c-0.00161,-0.04102 -0.02089,-0.08205 -0.03054,-0.11783c-0.59869,-0.11609 -0.72888,-0.09601 -0.91451,0.16322zm2.11271,-0.18155c-0.3327,0 -0.61316,0 -0.88478,0c-0.01366,0.07245 -0.02893,0.10474 -0.0217,0.13005c0.01205,0.04102 0.03777,0.07856 0.05304,0.10823c0.29332,0 0.57459,0 0.87273,0c-0.00723,-0.0995 -0.01205,-0.15624 -0.01929,-0.23828zm-4.69392,12.17871c-0.33109,-0.13267 -0.62441,-0.09776 -0.92978,-0.04451c0,0.09427 0,0.16148 0,0.22345c0.61477,0.11521 0.73611,0.09689 0.92978,-0.17893zm2.32245,-0.04102c-0.3327,0 -0.61316,0 -0.92577,0c0.03134,0.11696 0.04902,0.1833 0.06268,0.23567c0.30859,0 0.59066,0 0.888,0c-0.01125,-0.10125 -0.01688,-0.15798 -0.02491,-0.23567zm0.32225,-0.01484c-0.01205,0.07768 -0.0233,0.15449 -0.03938,0.2636c0.32305,0 0.60432,0 0.90166,0c0,-0.0995 0,-0.16584 0,-0.2636c-0.29252,0 -0.56253,0 -0.86228,0zm1.12185,0.19464c0.38493,0.12918 0.48378,0.1318 0.92175,0.02968c0,-0.06372 0,-0.12918 0,-0.1929c-0.60432,-0.11696 -0.7345,-0.09601 -0.92175,0.16322zm1.19819,-0.20075c0.01768,0.12482 0.02652,0.19202 0.03697,0.26272c0.3102,0 0.59146,0 0.90085,0c-0.01447,-0.10823 -0.0233,-0.17544 -0.03536,-0.26272c-0.29734,0 -0.56735,0 -0.90246,0zm1.21105,0.25749c0.33189,0 0.61316,0 0.92496,0c-0.02893,-0.11521 -0.04581,-0.18155 -0.05947,-0.23654c-0.3102,0 -0.59146,0 -0.8888,0c0.01045,0.10125 0.01527,0.15711 0.0233,0.23654zm1.19658,0.04888c0.32707,-0.01397 0.60753,-0.02619 0.92818,-0.04015c-0.04259,-0.13267 -0.06268,-0.19901 -0.09322,-0.29415c-0.29653,0.01309 -0.5778,0.02357 -0.87674,0.03666c0.01607,0.12045 0.0233,0.17631 0.04179,0.29764zm2.10788,-0.24439c-0.33189,-0.1318 -0.62441,-0.0995 -0.93059,-0.04102c0,0.09078 0,0.15798 0,0.22083c0.61637,0.11434 0.73611,0.09514 0.93059,-0.1798zm0.22662,-0.04713c0.01527,0.1091 0.02491,0.17631 0.03456,0.24701c0.30939,0 0.59146,0 0.88639,0c0,-0.09514 0,-0.15187 0,-0.24701c-0.29493,0 -0.57619,0 -0.92094,0zm-9.43204,-0.00873c-0.01205,0.07768 -0.0233,0.15449 -0.03938,0.2636c0.32305,0 0.60432,0 0.90166,0c0,-0.10038 0,-0.16584 0,-0.2636c-0.29252,0 -0.56333,0 -0.86228,0z" clip-rule="evenodd" fill-rule="evenodd"/>
   <path  id="svg_5" d="m62.02298,41.25252c-2.71702,1.51699 -5.43325,3.03399 -8.20974,4.58327c0,-1.5746 0,-3.08286 0,-4.58851c0.41788,-0.10387 6.39357,-0.14489 8.20974,0.00524z" clip-rule="evenodd" fill-rule="evenodd"/>
   <path  id="svg_7" d="m12.50498,41.19753c2.83194,0 5.55057,0 8.30457,0c0,1.53881 0,3.05144 0,4.63739c-2.76846,-1.54667 -5.49352,-3.06803 -8.30457,-4.63739z" clip-rule="evenodd" fill-rule="evenodd"/>
   <path  id="svg_8" d="m31.85042,27.15705c0.01929,-0.08205 0.03616,-0.14838 0.05063,-0.21035c0.30939,0 0.59146,0 0.8896,0c-0.00884,0.0995 -0.01366,0.15537 -0.02089,0.23217c-0.30859,0.07157 -0.60271,0.09078 -0.91934,-0.02182z" fill="none" clip-rule="evenodd" fill-rule="evenodd"/>
   <path  id="svg_9" d="m33.98804,26.93535c-0.02089,0.12482 -0.02973,0.1798 -0.0442,0.2636c-0.29653,0 -0.5778,0 -0.86469,0c-0.01527,-0.0707 -0.03054,-0.1126 -0.02893,-0.15362c0,-0.02531 0.02491,-0.05237 0.05625,-0.1091c0.26519,-0.00087 0.54646,-0.00087 0.88157,-0.00087z" fill="none" clip-rule="evenodd" fill-rule="evenodd"/>
   <path  id="svg_10" d="m35.1589,26.94495c-0.00643,0.09863 -0.01125,0.15449 -0.01688,0.2313c-0.30939,0.07506 -0.60271,0.09078 -0.9105,-0.01484c0.00563,-0.07157 0.00964,-0.12743 0.01527,-0.20075c0.3102,-0.09165 0.60271,-0.06284 0.9121,-0.01571z" fill="none" clip-rule="evenodd" fill-rule="evenodd"/>
   <path  id="svg_11" d="m35.41767,27.17887c0.00804,-0.08816 0.01447,-0.15449 0.0217,-0.23916c0.3102,0 0.59146,0 0.8888,0c0.00482,0.09078 0.00723,0.14664 0.01125,0.21821c-0.30377,0.11521 -0.59789,0.08903 -0.92175,0.02095z" fill="none" clip-rule="evenodd" fill-rule="evenodd"/>
   <path  id="svg_12" d="m37.52877,27.19546c-0.3335,0 -0.61477,0 -0.90085,0c0.0434,-0.32731 0.24108,-0.37008 0.88639,-0.21821c0.00321,0.0515 0.00643,0.10736 0.01447,0.21821z" fill="none" clip-rule="evenodd" fill-rule="evenodd"/>
   <path  id="svg_13" d="m38.66588,27.20069c-0.29975,0 -0.56976,0 -0.85826,0c0,-0.09689 0,-0.16409 0,-0.2636c0.30136,0 0.58343,0 0.90728,0c-0.0217,0.11085 -0.03616,0.18766 -0.04902,0.2636z" fill="none" clip-rule="evenodd" fill-rule="evenodd"/>
   <path  id="svg_14" d="m38.96322,27.19109c0.01688,-0.10823 0.02732,-0.17544 0.03938,-0.24789c0.3102,0 0.59066,0 0.90246,0c-0.01688,0.10823 -0.02652,0.17544 -0.03777,0.24789c-0.311,0 -0.59307,0 -0.90407,0z" fill="none" clip-rule="evenodd" fill-rule="evenodd"/>
   <path  id="svg_15" d="m41.08075,26.93971c-0.00884,0.10387 -0.01366,0.1702 -0.01929,0.25487c-0.31261,0 -0.59307,0 -0.90487,0c0.00964,-0.10387 0.01527,-0.1702 0.0233,-0.25487c0.3102,0 0.59226,0 0.90085,0z" fill="none" clip-rule="evenodd" fill-rule="evenodd"/>
   <path  id="svg_16" d="m41.31782,27.19808c0.15028,-0.33081 0.31261,-0.36048 0.92737,-0.22519c0,0.06372 0,0.13093 0,0.22519c-0.30537,0 -0.58664,0 -0.92737,0z" fill="none" clip-rule="evenodd" fill-rule="evenodd"/>
   <path  id="svg_17" d="m43.43936,26.97812c0.00321,0.04975 0.00723,0.10649 0.01205,0.17544c-0.30296,0.13442 -0.59709,0.06721 -0.89684,0.05062c0.04179,-0.33604 0.23707,-0.37881 0.88478,-0.22607z" fill="none" clip-rule="evenodd" fill-rule="evenodd"/>
   <path  id="svg_18" d="m44.648,26.93884c-0.01527,0.11347 -0.0217,0.16933 -0.03456,0.25749c-0.29493,0 -0.577,0 -0.88157,0c0,-0.09078 0,-0.15711 0,-0.25749c0.29734,0 0.57941,0 0.91612,0z" fill="none" clip-rule="evenodd" fill-rule="evenodd"/>
   <path  id="svg_19" d="m45.79476,27.19109c-0.31421,0 -0.59548,0 -0.90728,0c0.01848,-0.10823 0.02973,-0.17631 0.045,-0.26272c0.29412,0 0.56333,0 0.86228,0c0,0.0995 0,0.17719 0,0.26272z" fill="none" clip-rule="evenodd" fill-rule="evenodd"/>
   <path  id="svg_20" d="m47.01786,26.93884c-0.01527,0.11347 -0.0225,0.16933 -0.03375,0.25749c-0.29573,0 -0.577,0 -0.88237,0c0,-0.09078 0,-0.15711 0,-0.25749c0.29895,0 0.58021,0 0.91612,0z" fill="none" clip-rule="evenodd" fill-rule="evenodd"/>
   <path  id="svg_21" d="m47.2927,26.94321c0.31662,0 0.59789,0 0.90809,0c-0.01768,0.1091 -0.02893,0.17631 -0.04259,0.26272c-0.29493,0 -0.56414,0 -0.86549,0c0,-0.09776 0,-0.17544 0,-0.26272z" fill="none" clip-rule="evenodd" fill-rule="evenodd"/>
   <path  id="svg_22" d="m49.38371,26.94233c-0.01527,0.10736 -0.02491,0.17457 -0.03456,0.24963c-0.3102,0 -0.59146,0 -0.90326,0c0.01527,-0.10736 0.02411,-0.17457 0.03536,-0.24963c0.30859,0 0.59146,0 0.90246,0z" fill="none" clip-rule="evenodd" fill-rule="evenodd"/>
   <path  id="svg_23" d="m50.57226,26.93884c-0.01527,0.11347 -0.0217,0.16933 -0.03375,0.25749c-0.29573,0 -0.577,0 -0.88076,0c0,-0.09078 0,-0.15711 0,-0.25749c0.29814,0 0.58021,0 0.91451,0z" fill="none" clip-rule="evenodd" fill-rule="evenodd"/>
   <path  id="svg_24" d="m51.71982,27.19109c-0.31341,0 -0.59628,0 -0.90809,0c0.01768,-0.1091 0.02973,-0.17631 0.0442,-0.26272c0.29493,0 0.56414,0 0.86389,0c0,0.0995 0,0.17719 0,0.26272z" fill="none" clip-rule="evenodd" fill-rule="evenodd"/>
   <path  id="svg_25" d="m52.94855,26.93535c-0.0217,0.12482 -0.03054,0.1798 -0.04581,0.2636c-0.29653,0 -0.5786,0 -0.87594,0c0,-0.09776 0,-0.16409 0,-0.2636c0.30537,0 0.58664,0 0.92175,0z" fill="none" clip-rule="evenodd" fill-rule="evenodd"/>
   <path  id="svg_26" d="m53.16874,27.19808c0.14947,-0.33081 0.3118,-0.36048 0.92657,-0.22519c0,0.06372 0,0.13093 0,0.22519c-0.30457,0 -0.58825,0 -0.92657,0z" fill="none" clip-rule="evenodd" fill-rule="evenodd"/>
   <path  id="svg_27" d="m54.42318,26.93361c0.29814,0 0.56896,0 0.85826,0c0,0.09689 0,0.16409 0,0.2636c-0.30055,0 -0.58262,0 -0.90728,0c0.02089,-0.1091 0.03536,-0.18591 0.04902,-0.2636z" fill="none" clip-rule="evenodd" fill-rule="evenodd"/>
   <path  id="svg_28" d="m55.56191,27.17887c0.00884,-0.08816 0.01447,-0.15449 0.02009,-0.23916c0.31261,0 0.59468,0 0.89121,0c0.00402,0.09078 0.00723,0.14576 0.01125,0.21821c-0.30377,0.11521 -0.59869,0.08903 -0.92255,0.02095z" fill="none" clip-rule="evenodd" fill-rule="evenodd"/>
   <path  id="svg_29" d="m56.72233,27.19808c0.15188,-0.33081 0.31341,-0.36048 0.92657,-0.22519c0,0.06459 0,0.13093 0,0.22519c-0.30377,0 -0.58584,0 -0.92657,0z" fill="none" clip-rule="evenodd" fill-rule="evenodd"/>
   <path  id="svg_30" d="m58.85994,27.19546c-0.3335,0 -0.61557,0 -0.90085,0c0.04259,-0.32731 0.24028,-0.37008 0.88639,-0.21821c0.00161,0.0515 0.00563,0.10736 0.01447,0.21821z" fill="none" clip-rule="evenodd" fill-rule="evenodd"/>
   <path  id="svg_31" d="m59.10826,27.19022c0.01768,-0.10649 0.02732,-0.17369 0.04259,-0.26098c0.29332,0 0.56333,0 0.85826,0c0.01205,0.08554 0.0225,0.15187 0.03857,0.26098c-0.32145,0 -0.61557,0 -0.93943,0z" fill="none" clip-rule="evenodd" fill-rule="evenodd"/>
   <path  id="svg_32" d="m60.27029,27.14309c0.19608,-0.27407 0.32064,-0.29327 0.93139,-0.17719c0,0.0611 0,0.12831 0,0.21821c-0.30537,0.06023 -0.59869,0.09252 -0.93139,-0.04102z" fill="none" clip-rule="evenodd" fill-rule="evenodd"/>
   <path  id="svg_33" d="m62.43282,27.20244c-0.34073,0 -0.61075,0 -0.90648,0c-0.01688,-0.07157 -0.03375,-0.13878 -0.06107,-0.254c0.31341,0 0.59468,0 0.90487,0c0.01366,0.05499 0.02973,0.12307 0.06268,0.254z" fill="none" clip-rule="evenodd" fill-rule="evenodd"/>
   <path  id="svg_34" d="m12.72517,39.4117c-0.00964,-0.07681 -0.01688,-0.13267 -0.02973,-0.23654c0.29895,0 0.58021,0 0.89121,0c0.01447,0.0515 0.03375,0.11871 0.0667,0.23654c-0.31421,0 -0.59628,0 -0.92818,0z" fill="none" clip-rule="evenodd" fill-rule="evenodd"/>
   <path  id="svg_35" d="m14.821,39.20135c-0.01045,0.08117 -0.01768,0.13704 -0.02893,0.21908c-0.32546,0.02008 -0.6445,0.13005 -0.95711,-0.1091c0.30618,-0.21297 0.42351,-0.22519 0.98604,-0.10998z" fill="none" clip-rule="evenodd" fill-rule="evenodd"/>
   <path  id="svg_36" d="m15.09101,39.41432c-0.00643,-0.08641 -0.01045,-0.14227 -0.01848,-0.2409c0.29895,0 0.58021,0 0.8896,0c0.01366,0.06023 0.02813,0.12743 0.05304,0.2409c-0.311,0 -0.59307,0 -0.92416,0z" fill="none" clip-rule="evenodd" fill-rule="evenodd"/>
   <path  id="svg_37" d="m17.13782,39.43963c-0.28528,0 -0.54324,0 -0.82049,0c-0.02572,-0.07419 -0.04822,-0.14053 -0.07554,-0.21908c0.311,-0.15624 0.60673,-0.07157 0.94505,-0.06808c-0.0217,0.1222 -0.03456,0.19901 -0.04902,0.28716z" fill="none" clip-rule="evenodd" fill-rule="evenodd"/>
   <path  id="svg_38" d="m18.34003,39.12716c0.01688,0.1222 0.02491,0.17806 0.04179,0.29677c-0.29975,0.01309 -0.58021,0.02357 -0.87674,0.03579c-0.02973,-0.09601 -0.05063,-0.16409 -0.09242,-0.29502c0.31904,-0.01309 0.5995,-0.02444 0.92737,-0.03753z" fill="none" clip-rule="evenodd" fill-rule="evenodd"/>
   <path  id="svg_39" d="m19.5559,39.16643c-0.00723,0.10649 -0.01045,0.16322 -0.01688,0.254c-0.29573,0 -0.5778,0 -0.8896,0c-0.00643,-0.08292 -0.01125,-0.15013 -0.01929,-0.254c0.30939,0 0.59226,0 0.92577,0z" fill="none" clip-rule="evenodd" fill-rule="evenodd"/>
   <path  id="svg_40" d="m19.82511,39.41868c0,-0.0995 0,-0.15624 0,-0.24963c0.29573,0 0.577,0 0.888,0c0.00964,0.07594 0.01768,0.14227 0.03054,0.24963c-0.30859,0 -0.59066,0 -0.91853,0z" fill="none" clip-rule="evenodd" fill-rule="evenodd"/>
   <path  id="svg_41" d="m21.89523,39.12716c0.01688,0.12132 0.02491,0.17719 0.04018,0.29677c-0.29975,0.01309 -0.58021,0.02357 -0.87594,0.03579c-0.03054,-0.09601 -0.05143,-0.16409 -0.09242,-0.29589c0.31904,-0.01222 0.6011,-0.02357 0.92818,-0.03666z" fill="none" clip-rule="evenodd" fill-rule="evenodd"/>
   <path  id="svg_42" d="m22.16042,39.15771c0.34073,0 0.61075,0 0.90487,0c0.01848,0.07332 0.03536,0.13965 0.06429,0.25487c-0.31261,0 -0.59387,0 -0.90407,0c-0.01447,-0.05586 -0.03134,-0.1222 -0.06509,-0.25487z" fill="none" clip-rule="evenodd" fill-rule="evenodd"/>
   <path  id="svg_43" d="m24.29563,39.16643c-0.00643,0.10649 -0.01045,0.16322 -0.01688,0.254c-0.29573,0 -0.5778,0 -0.8896,0c-0.00563,-0.08292 -0.01125,-0.15013 -0.01929,-0.254c0.3102,0 0.59226,0 0.92577,0z" fill="none" clip-rule="evenodd" fill-rule="evenodd"/>
   <path  id="svg_44" d="m24.58895,39.4632c-0.02089,-0.12132 -0.03054,-0.17631 -0.05063,-0.29677c0.30055,-0.01397 0.58101,-0.02706 0.87594,-0.04015c0.03375,0.09514 0.05625,0.1606 0.10286,0.29415c-0.32225,0.01571 -0.6011,0.02706 -0.92818,0.04277z" fill="none" clip-rule="evenodd" fill-rule="evenodd"/>
   <path  id="svg_45" d="m26.67353,39.16382c-0.01366,0.11609 -0.02009,0.17195 -0.03054,0.26011c-0.29653,0 -0.5778,0 -0.88237,0c0,-0.09339 0,-0.1606 0,-0.26011c0.29573,0 0.5778,0 0.91291,0z" fill="none" clip-rule="evenodd" fill-rule="evenodd"/>
   <path  id="svg_46" d="m26.93952,39.41432c-0.00563,-0.08728 -0.00884,-0.14315 -0.01527,-0.24178c0.29734,0 0.57941,0 0.8896,0c0.01286,0.06284 0.02652,0.12918 0.04982,0.24178c-0.311,0 -0.59226,0 -0.92416,0z" fill="none" clip-rule="evenodd" fill-rule="evenodd"/>
   <path  id="svg_47" d="m29.05625,39.42916c-0.33913,0 -0.60994,0 -0.90326,0c-0.01768,-0.07245 -0.03456,-0.13965 -0.06349,-0.25487c0.31261,0 0.59468,0 0.90487,0c0.01447,0.05673 0.03054,0.12394 0.06188,0.25487z" fill="none" clip-rule="evenodd" fill-rule="evenodd"/>
   <path  id="svg_48" d="m30.20783,39.16643c0,0.10474 0,0.16148 0,0.254c-0.29653,0 -0.57941,0 -0.89041,0c-0.00643,-0.08117 -0.01286,-0.14838 -0.0225,-0.254c0.30939,0 0.59066,0 0.91291,0z" fill="none" clip-rule="evenodd" fill-rule="evenodd"/>
   <path  id="svg_49" d="m30.50115,39.41083c-0.00964,-0.07594 -0.01688,-0.1318 -0.02973,-0.23479c0.29895,0 0.57941,0 0.89121,0c0.01447,0.04975 0.03375,0.11696 0.0667,0.23479c-0.31582,0 -0.59789,0 -0.92818,0z" fill="none" clip-rule="evenodd" fill-rule="evenodd"/>
   <path  id="svg_50" d="m31.66398,39.4213c0.00643,-0.10736 0.00884,-0.16409 0.01447,-0.25487c0.29653,0 0.5786,0 0.89121,0c0.00643,0.08379 0.01045,0.151 0.01688,0.25487c-0.30778,0 -0.58985,0 -0.92255,0z" fill="none" clip-rule="evenodd" fill-rule="evenodd"/>
   <path  id="svg_51" d="m33.78392,39.16382c-0.01366,0.11609 -0.02009,0.17195 -0.03054,0.26011c-0.29653,0 -0.5786,0 -0.88237,0c0,-0.09339 0,-0.1606 0,-0.26011c0.29573,0 0.577,0 0.91291,0z" fill="none" clip-rule="evenodd" fill-rule="evenodd"/>
   <path  id="svg_52" d="m34.05072,39.41432c-0.00643,-0.08728 -0.00964,-0.14315 -0.01607,-0.24178c0.29734,0 0.5786,0 0.8888,0c0.01286,0.06284 0.02652,0.12918 0.04982,0.24178c-0.3102,0 -0.59226,0 -0.92255,0z" fill="none" clip-rule="evenodd" fill-rule="evenodd"/>
   <path  id="svg_53" d="m35.24007,39.41083c-0.00964,-0.07594 -0.01688,-0.1318 -0.03054,-0.23479c0.29975,0 0.58021,0 0.89201,0c0.01447,0.04975 0.03375,0.11696 0.0667,0.23479c-0.31502,0 -0.59628,0 -0.92818,0z" fill="none" clip-rule="evenodd" fill-rule="evenodd"/>
   <path  id="svg_54" d="m37.31742,39.16643c0,0.10474 0,0.16148 0,0.254c-0.29653,0 -0.5778,0 -0.8896,0c-0.00723,-0.08117 -0.01366,-0.14838 -0.0233,-0.254c0.30939,0 0.59146,0 0.91291,0z" fill="none" clip-rule="evenodd" fill-rule="evenodd"/>
   <path  id="svg_55" d="m38.52043,39.20135c-0.01045,0.08117 -0.01768,0.13704 -0.02813,0.21908c-0.32466,0.02095 -0.6453,0.12918 -0.95711,-0.1091c0.30537,-0.21297 0.4227,-0.22519 0.98523,-0.10998z" fill="none" clip-rule="evenodd" fill-rule="evenodd"/>
   <path  id="svg_56" d="m38.80491,39.41694c-0.01125,-0.0707 -0.02089,-0.13791 -0.03777,-0.24701c0.3102,0 0.59146,0 0.90246,0c0.01125,0.07157 0.02009,0.13878 0.03697,0.24701c-0.30939,0 -0.59146,0 -0.90166,0z" fill="none" clip-rule="evenodd" fill-rule="evenodd"/>
   <path  id="svg_57" d="m39.98703,39.42479c-0.01447,-0.08292 -0.0233,-0.13791 -0.03616,-0.20774c0.30055,-0.15362 0.59709,-0.06634 0.91291,-0.06459c0,0.10649 0,0.17282 0,0.2732c-0.28528,-0.00087 -0.5553,-0.00087 -0.87674,-0.00087z" fill="none" clip-rule="evenodd" fill-rule="evenodd"/>
   <path  id="svg_58" d="m41.16111,39.41432c-0.00723,-0.08641 -0.01125,-0.14227 -0.01848,-0.2409c0.29814,0 0.58021,0 0.8896,0c0.01366,0.06023 0.02813,0.12743 0.05304,0.2409c-0.311,0 -0.59387,0 -0.92416,0z" fill="none" clip-rule="evenodd" fill-rule="evenodd"/>
   <path  id="svg_59" d="m43.25614,39.16643c-0.00723,0.10649 -0.01045,0.16322 -0.01688,0.254c-0.29573,0 -0.5778,0 -0.8896,0c-0.00643,-0.08292 -0.01205,-0.15013 -0.01848,-0.254c0.30859,0 0.59146,0 0.92496,0z" fill="none" clip-rule="evenodd" fill-rule="evenodd"/>
   <path  id="svg_60" d="m44.42781,39.16643c0,0.10474 0,0.16148 0,0.254c-0.29653,0 -0.5778,0 -0.8896,0c-0.00804,-0.08117 -0.01366,-0.14838 -0.0233,-0.254c0.30859,0 0.58985,0 0.91291,0z" fill="none" clip-rule="evenodd" fill-rule="evenodd"/>
   <path  id="svg_61" d="m44.72997,39.41694c-0.01125,-0.0707 -0.0217,-0.13791 -0.03777,-0.24701c0.3102,0 0.59146,0 0.90326,0c0.00964,0.07157 0.02009,0.13791 0.03536,0.24701c-0.30859,0 -0.59066,0 -0.90085,0z" fill="none" clip-rule="evenodd" fill-rule="evenodd"/>
   <path  id="svg_62" d="m46.76312,39.43963c-0.28609,0 -0.54324,0 -0.8213,0c-0.02491,-0.07419 -0.04822,-0.14053 -0.07554,-0.2217c0.31341,-0.14053 0.60673,-0.09689 0.94184,-0.04364c-0.01688,0.10038 -0.03054,0.17806 -0.045,0.26534z" fill="none" clip-rule="evenodd" fill-rule="evenodd"/>
   <path  id="svg_63" d="m47.06769,39.4213c0.00723,-0.10998 0.01125,-0.16584 0.01768,-0.25574c0.29653,0 0.5778,0 0.88558,0c0,0.08728 0,0.15362 0,0.25574c-0.29011,0 -0.57137,0 -0.90326,0z" fill="none" clip-rule="evenodd" fill-rule="evenodd"/>
   <path  id="svg_64" d="m48.25222,39.42218c0.00723,-0.11085 0.01125,-0.16671 0.01768,-0.25749c0.29653,0 0.5786,0 0.89201,0c0.00482,0.08816 0.00884,0.15449 0.01286,0.25749c-0.30859,0 -0.58985,0 -0.92255,0z" fill="none" clip-rule="evenodd" fill-rule="evenodd"/>
   <path  id="svg_65" d="m49.46648,39.42479c-0.01366,-0.08292 -0.0233,-0.13791 -0.03536,-0.20774c0.30055,-0.15362 0.59709,-0.06634 0.91291,-0.06459c0,0.10649 0,0.17282 0,0.2732c-0.28609,-0.00087 -0.5561,-0.00087 -0.87755,-0.00087z" fill="none" clip-rule="evenodd" fill-rule="evenodd"/>
   <path  id="svg_66" d="m50.63976,39.41432c-0.00563,-0.08728 -0.01045,-0.14315 -0.01607,-0.24178c0.29814,0 0.58021,0 0.87273,0c0.01688,0.03579 0.0442,0.07419 0.05304,0.11521c0.00643,0.02619 -0.00964,0.05586 -0.02491,0.12743c-0.27082,-0.00087 -0.55289,-0.00087 -0.88478,-0.00087z" fill="none" clip-rule="evenodd" fill-rule="evenodd"/>
   <path  id="svg_67" d="m52.76452,39.2188c-0.19528,0.2732 -0.32225,0.29327 -0.92094,0.17806c-0.01125,-0.03491 -0.02973,-0.07681 -0.03375,-0.11783c-0.00161,-0.02619 0.02009,-0.05412 0.0434,-0.1091c0.28448,-0.0515 0.5786,-0.08641 0.9113,0.04888z" fill="none" clip-rule="evenodd" fill-rule="evenodd"/>
   <path  id="svg_68" d="m53.01123,39.41432c-0.00723,-0.08641 -0.01125,-0.14227 -0.01848,-0.2409c0.29734,0 0.57941,0 0.8888,0c0.01447,0.06023 0.02893,0.12743 0.05304,0.2409c-0.311,0 -0.59307,0 -0.92335,0z" fill="none" clip-rule="evenodd" fill-rule="evenodd"/>
   <path  id="svg_69" d="m54.17567,39.41083c0.00964,-0.10125 0.01366,-0.15798 0.02009,-0.24614c0.29814,0 0.58021,0 0.88639,0c0,0.0899 0,0.15624 0,0.24614c-0.30698,0.07245 -0.6003,0.0611 -0.90648,0z" fill="none" clip-rule="evenodd" fill-rule="evenodd"/>
   <path  id="svg_70" d="m56.25944,39.12716c0.01688,0.1222 0.02572,0.17806 0.04259,0.29677c-0.29975,0.01309 -0.58182,0.02357 -0.87835,0.03579c-0.02973,-0.09601 -0.05063,-0.16409 -0.09081,-0.29502c0.31823,-0.01309 0.5995,-0.02444 0.92657,-0.03753z" fill="none" clip-rule="evenodd" fill-rule="evenodd"/>
   <path  id="svg_71" d="m57.50505,39.2188c-0.19608,0.2732 -0.32386,0.29327 -0.92094,0.17806c-0.01125,-0.03491 -0.03054,-0.07681 -0.03295,-0.11783c-0.00321,-0.02619 0.01848,-0.05412 0.0434,-0.1091c0.28287,-0.0515 0.5778,-0.08641 0.9105,0.04888z" fill="none" clip-rule="evenodd" fill-rule="evenodd"/>
   <path  id="svg_72" d="m57.73167,39.42218c0.00804,-0.11085 0.01205,-0.16671 0.01848,-0.25749c0.29653,0 0.5786,0 0.89282,0c0.00402,0.08816 0.00643,0.15449 0.01205,0.25749c-0.30778,0 -0.58985,0 -0.92335,0z" fill="none" clip-rule="evenodd" fill-rule="evenodd"/>
   <path  id="svg_73" d="m58.91298,39.1708c0.32064,0 0.61557,0 0.92094,0c0,0.09514 0,0.151 0,0.24614c-0.29412,0 -0.57619,0 -0.88478,0c-0.01045,-0.07157 -0.02009,-0.13878 -0.03616,-0.24614z" fill="none" clip-rule="evenodd" fill-rule="evenodd"/>
   <path  id="svg_74" d="m13.82933,27.19546c-0.3335,0 -0.61557,0 -0.90166,0c0.0442,-0.32731 0.24108,-0.37008 0.88719,-0.21821c0.00241,0.0515 0.00723,0.10736 0.01447,0.21821z" fill="none" clip-rule="evenodd" fill-rule="evenodd"/>
   <path  id="svg_75" d="m61.30374,39.41257c-0.00643,-0.08205 -0.01125,-0.13791 -0.01848,-0.23828c0.29814,0 0.5786,0 0.8896,0c0.01366,0.05761 0.02893,0.12482 0.05465,0.23828c-0.3118,0 -0.59307,0 -0.92577,0z" fill="none" clip-rule="evenodd" fill-rule="evenodd"/>
   <path  id="svg_76" d="m14.06319,27.19808c0.15108,-0.33081 0.31261,-0.36048 0.92657,-0.22519c0,0.06459 0,0.13093 0,0.22519c-0.30457,0 -0.58664,0 -0.92657,0z" fill="none" clip-rule="evenodd" fill-rule="evenodd"/>
   <path  id="svg_77" d="m16.17027,27.19109c-0.31421,0 -0.59628,0 -0.90809,0c0.01848,-0.1091 0.02973,-0.17631 0.0442,-0.26272c0.29412,0 0.56414,0 0.86389,0c0,0.0995 0,0.17719 0,0.26272z" fill="none" clip-rule="evenodd" fill-rule="evenodd"/>
   <path  id="svg_78" d="m16.44591,27.15792c0.02009,-0.08292 0.03616,-0.14926 0.05143,-0.21123c0.30778,0 0.58985,0 0.88719,0c-0.00804,0.0995 -0.01286,0.15537 -0.01929,0.23217c-0.30859,0.07157 -0.60271,0.09078 -0.91934,-0.02095z" fill="none" clip-rule="evenodd" fill-rule="evenodd"/>
   <path  id="svg_79" d="m17.61838,27.13174c0.19287,-0.26272 0.30939,-0.28105 0.92657,-0.16758c0,0.06197 0,0.12918 0,0.19202c-0.43154,0.10474 -0.53199,0.10299 -0.92657,-0.02444z" fill="none" clip-rule="evenodd" fill-rule="evenodd"/>
   <path  id="svg_80" d="m18.85354,26.94321c0.31421,0 0.59628,0 0.90648,0c-0.01688,0.1091 -0.02813,0.17631 -0.04179,0.26272c-0.29493,0 -0.56494,0 -0.86469,0c0,-0.09776 0,-0.17544 0,-0.26272z" fill="none" clip-rule="evenodd" fill-rule="evenodd"/>
   <path  id="svg_81" d="m20.92446,26.97725c0.00402,0.05062 0.00804,0.10736 0.01286,0.17719c-0.30296,0.12394 -0.59789,0.0899 -0.89684,0.03404c0.04018,-0.31946 0.23626,-0.3631 0.88398,-0.21123z" fill="none" clip-rule="evenodd" fill-rule="evenodd"/>
   <path  id="svg_82" d="m21.2234,26.94321c0.31502,0 0.59709,0 0.90648,0c-0.01688,0.1091 -0.02732,0.17631 -0.04179,0.26272c-0.29493,0 -0.56494,0 -0.86469,0c0,-0.09776 0,-0.17544 0,-0.26272z" fill="none" clip-rule="evenodd" fill-rule="evenodd"/>
   <path  id="svg_83" d="m23.29432,26.97725c0.00321,0.05062 0.00723,0.10736 0.01205,0.17719c-0.30296,0.12394 -0.59709,0.0899 -0.89684,0.03404c0.04098,-0.31946 0.23707,-0.3631 0.88478,-0.21123z" fill="none" clip-rule="evenodd" fill-rule="evenodd"/>
   <path  id="svg_84" d="m23.5555,27.19022c0.02089,-0.10998 0.03295,-0.17631 0.04661,-0.24701c0.30778,0 0.58985,0 0.90005,0c-0.01929,0.10998 -0.03134,0.17806 -0.0434,0.24701c-0.3102,0 -0.59226,0 -0.90326,0z" fill="none" clip-rule="evenodd" fill-rule="evenodd"/>
   <path  id="svg_85" d="m25.66499,26.97812c0.00321,0.05062 0.00643,0.10736 0.01205,0.17806c-0.30377,0.12132 -0.59869,0.08903 -0.89764,0.03142c0.04259,-0.31946 0.24108,-0.36223 0.88558,-0.20948z" fill="none" clip-rule="evenodd" fill-rule="evenodd"/>
   <path  id="svg_86" d="m26.89291,26.98947c-0.20171,0.28018 -0.45645,0.31073 -0.95871,0.14926c0.00723,-0.05324 0.01366,-0.1091 0.0225,-0.18591c0.3102,-0.06459 0.60352,-0.09165 0.93621,0.03666z" fill="none" clip-rule="evenodd" fill-rule="evenodd"/>
   <path  id="svg_87" d="m28.00029,27.19982c-0.29975,0 -0.56976,0 -0.85907,0c0,-0.09601 0,-0.16322 0,-0.26272c0.30216,0 0.58343,0 0.90809,0c-0.02009,0.11085 -0.03536,0.18679 -0.04902,0.26272z" fill="none" clip-rule="evenodd" fill-rule="evenodd"/>
   <path  id="svg_88" d="m29.21938,26.97812c0.00321,0.05062 0.00723,0.10736 0.01205,0.17806c-0.30377,0.12132 -0.59789,0.08816 -0.89684,0.03142c0.0434,-0.31946 0.24108,-0.36223 0.88478,-0.20948z" fill="none" clip-rule="evenodd" fill-rule="evenodd"/>
   <path  id="svg_89" d="m30.39025,27.19109c-0.31421,0 -0.59628,0 -0.90809,0c0.01848,-0.1091 0.03054,-0.17631 0.0442,-0.26272c0.29412,0 0.56494,0 0.86389,0c0,0.0995 0,0.17719 0,0.26272z" fill="none" clip-rule="evenodd" fill-rule="evenodd"/>
   <path  id="svg_90" d="m31.60451,26.94582c-0.00804,0.0995 -0.01286,0.15537 -0.01848,0.23305c-0.3102,0.0707 -0.60271,0.09078 -0.92014,-0.02095c0.01929,-0.08292 0.03616,-0.14926 0.05143,-0.21123c0.30778,-0.00087 0.58985,-0.00087 0.88719,-0.00087z" fill="none" clip-rule="evenodd" fill-rule="evenodd"/>
   <path  id="svg_91" d="m60.0718,39.36893c0.19528,-0.2732 0.32546,-0.29327 0.9338,-0.17631c0,0.0611 0,0.12743 0,0.21996c-0.30618,0.05761 -0.60191,0.09165 -0.9338,-0.04364z" fill="none" clip-rule="evenodd" fill-rule="evenodd"/>
   <path  id="svg_92" d="m63.91469,37.03496c-0.09804,-0.07681 -0.16635,-0.12918 -0.28769,-0.22519c0.25234,-0.19813 0.47735,-0.37619 0.71522,-0.56298c0.09242,0.09601 0.14545,0.14926 0.23787,0.24614c-0.22742,0.18504 -0.43797,0.35699 -0.66539,0.54203z" fill="none" clip-rule="evenodd" fill-rule="evenodd"/>
   <path  id="svg_93" d="m67.90625,33.3638c0.09402,0.10736 0.14224,0.16235 0.22823,0.26098c-0.2226,0.1833 -0.43315,0.35612 -0.72888,0.59964c-0.05947,-0.10823 -0.10206,-0.18155 -0.17358,-0.30898c0.20814,-0.16933 0.41868,-0.34128 0.67423,-0.55163z" fill="none" clip-rule="evenodd" fill-rule="evenodd"/>
   <path  id="svg_94" d="m65.47049,41.13992c-0.09,0.10823 -0.13822,0.16497 -0.21858,0.26272c-0.23626,-0.17631 -0.45485,-0.33953 -0.69111,-0.51585c0.0667,-0.10299 0.1117,-0.17195 0.18965,-0.29327c0.2443,0.18504 0.46208,0.34914 0.72004,0.5464z" fill="none" clip-rule="evenodd" fill-rule="evenodd"/>
   <path  id="svg_95" d="m65.67139,35.61311c-0.09161,-0.09252 -0.14385,-0.14489 -0.2435,-0.24527c0.23948,-0.19377 0.45886,-0.37096 0.69272,-0.55949c0.09402,0.09427 0.14626,0.14576 0.24591,0.24789c-0.23787,0.19115 -0.46047,0.36834 -0.69513,0.55687z" fill="none" clip-rule="evenodd" fill-rule="evenodd"/>
   <path  id="svg_96" d="m64.80349,36.31836c-0.09161,-0.05935 -0.12295,-0.07332 -0.14224,-0.09514c-0.02732,-0.03491 -0.04741,-0.07419 -0.09724,-0.15973c0.20814,-0.16758 0.42029,-0.33866 0.65736,-0.52807c0.0884,0.08728 0.14947,0.14576 0.25073,0.24352c-0.23385,0.18853 -0.44601,0.35961 -0.66861,0.53941z" fill="none" clip-rule="evenodd" fill-rule="evenodd"/>
   <path  id="svg_97" d="m69.11167,32.01091c0.17117,0 0.34234,0 0.51753,0c0.18162,0.22432 -0.13661,0.24439 -0.16715,0.35612c-0.04098,0.15275 -0.03295,0.29153 -0.23948,0.32906c-0.11572,-0.11783 -0.11572,-0.11783 -0.1109,-0.68518z" fill="none" clip-rule="evenodd" fill-rule="evenodd"/>
   <path  id="svg_98" d="m68.33216,33.48338c-0.09724,-0.12307 -0.14385,-0.18068 -0.2218,-0.28018c0.22983,-0.18068 0.44761,-0.34914 0.67745,-0.52894c0.09,0.08641 0.14224,0.13704 0.24028,0.23217c-0.22903,0.18853 -0.43958,0.3631 -0.69593,0.57695z" fill="none" clip-rule="evenodd" fill-rule="evenodd"/>
   <path  id="svg_99" d="m66.30946,34.65648c0.2451,-0.19639 0.45485,-0.36659 0.6887,-0.55513c0.0884,0.08641 0.15108,0.14489 0.24671,0.23654c-0.21617,0.18155 -0.41306,0.34739 -0.63566,0.53505c-0.09563,-0.06808 -0.17278,-0.12394 -0.29975,-0.21646z" fill="none" clip-rule="evenodd" fill-rule="evenodd"/>
   <path  id="svg_100" d="m64.57205,40.42158c-0.0884,0.10038 -0.14385,0.16409 -0.22903,0.26098c-0.23707,-0.18504 -0.45163,-0.35263 -0.68548,-0.5368c0.0884,-0.0995 0.14545,-0.16409 0.23224,-0.26185c0.23546,0.18504 0.44842,0.3535 0.68227,0.53767z" fill="none" clip-rule="evenodd" fill-rule="evenodd"/>
   <path  id="svg_101" d="m65.66255,41.30838c0.25876,0.20337 0.46529,0.36572 0.69352,0.54814c-0.07554,0.08641 -0.13179,0.15013 -0.2218,0.25487c-0.23787,-0.1798 -0.45485,-0.34477 -0.6895,-0.52108c0.08036,-0.10387 0.1326,-0.17108 0.21778,-0.28193z" fill="none" clip-rule="evenodd" fill-rule="evenodd"/>
   <path  id="svg_102" d="m67.25612,42.57749c-0.11411,0.1091 -0.16715,0.16148 -0.25073,0.2409c-0.2226,-0.16671 -0.43315,-0.32557 -0.66138,-0.49752c0.06509,-0.10212 0.1109,-0.17369 0.18965,-0.29764c0.2451,0.18766 0.46288,0.35437 0.72245,0.55425z" fill="none" clip-rule="evenodd" fill-rule="evenodd"/>
   <path  id="svg_103" d="m68.31609,43.44421c0.26439,0.20861 0.47092,0.3727 0.69352,0.54902c-0.07313,0.09514 -0.12456,0.16409 -0.20251,0.26883c-0.23144,-0.17369 -0.44038,-0.33342 -0.67022,-0.50625c0.05706,-0.09776 0.09804,-0.1702 0.17921,-0.3116z" fill="none" clip-rule="evenodd" fill-rule="evenodd"/>
   <path  id="svg_104" d="m67.41685,42.71103c0.27484,0.22345 0.47896,0.38929 0.70156,0.56996c-0.07554,0.09252 -0.12858,0.1606 -0.20653,0.25574c-0.22019,-0.16322 -0.42109,-0.3116 -0.65013,-0.48006c0.04259,-0.09339 0.08117,-0.1798 0.1551,-0.34564z" fill="none" clip-rule="evenodd" fill-rule="evenodd"/>
   <path  id="svg_105" d="m64.10354,32.27799c-0.33672,0 -0.60593,0 -0.90085,0c-0.01286,-0.08728 -0.0217,-0.15362 -0.03857,-0.2636c0.311,0 0.59146,0 0.90407,0c0.00964,0.07332 0.01768,0.13965 0.03536,0.2636z" fill="none" clip-rule="evenodd" fill-rule="evenodd"/>
   <path  id="svg_106" d="m64.38239,32.01527c0.31341,0 0.59468,0 0.888,0c0,0.09514 0,0.151 0,0.24789c-0.29332,0 -0.57539,0 -0.888,0c0,-0.08554 0,-0.16322 0,-0.24789z" fill="none" clip-rule="evenodd" fill-rule="evenodd"/>
   <path  id="svg_107" d="m66.44768,32.02138c0.00723,0.07681 0.01447,0.13267 0.0233,0.23567c-0.29814,0 -0.58021,0 -0.8896,0c-0.01447,-0.05237 -0.03134,-0.11871 -0.06268,-0.23567c0.31341,0 0.59387,0 0.92898,0z" fill="none" clip-rule="evenodd" fill-rule="evenodd"/>
   <path  id="svg_108" d="m66.72172,32.26665c0.00964,-0.1091 0.01366,-0.16497 0.02009,-0.24614c0.3102,-0.07157 0.60432,-0.05848 0.9121,0.00087c-0.00884,0.09776 -0.01447,0.15449 -0.0217,0.24527c-0.29573,0 -0.577,0 -0.9105,0z" fill="none" clip-rule="evenodd" fill-rule="evenodd"/>
   <path  id="svg_109" d="m68.82398,32.04145c0,0.07332 0,0.12918 0,0.22257c-0.29573,0 -0.577,0 -0.8888,0c-0.00643,-0.07681 -0.01527,-0.14402 -0.0225,-0.23217c0.31904,-0.07856 0.61316,-0.09252 0.9113,0.0096z" fill="none" clip-rule="evenodd" fill-rule="evenodd"/>
   <path  id="svg_110" d="m59.13076,44.41568c0.01286,0.08554 0.02089,0.14053 0.03054,0.20861c-0.29975,0.15013 -0.59468,0.06808 -0.90809,0.06372c0,-0.10823 0,-0.17457 0,-0.2732c0.2893,0.00087 0.55851,0.00087 0.87755,0.00087z" fill="none" clip-rule="evenodd" fill-rule="evenodd"/>
   <path  id="svg_111" d="m60.2952,44.69325c-0.28528,0 -0.54405,0 -0.8213,0c-0.02411,-0.07594 -0.04581,-0.1414 -0.07152,-0.22257c0.31261,-0.14227 0.60593,-0.09252 0.94103,-0.04451c-0.01848,0.10299 -0.03214,0.1798 -0.04822,0.26709z" fill="none" clip-rule="evenodd" fill-rule="evenodd"/>
   <path  id="svg_112" d="m61.51509,44.44885c0,0.07332 0,0.12918 0,0.22345c-0.29493,0 -0.577,0 -0.88719,0c-0.00884,-0.07681 -0.01527,-0.14402 -0.0233,-0.2313c0.32064,-0.0803 0.61316,-0.09427 0.9105,0.00786z" fill="none" clip-rule="evenodd" fill-rule="evenodd"/>
   <path  id="svg_113" d="m62.7181,44.67055c-0.30859,0 -0.58985,0 -0.90085,0c-0.00964,-0.0707 -0.01848,-0.13791 -0.03536,-0.24701c0.3102,0 0.59146,0 0.90246,0c0.01125,0.0707 0.01929,0.13878 0.03375,0.24701z" fill="none" clip-rule="evenodd" fill-rule="evenodd"/>
   <path  id="svg_114" d="m62.97044,44.67492c0.00804,-0.10998 0.01366,-0.16497 0.02009,-0.25487c0.29493,0 0.577,0 0.88317,0c0,0.08641 0,0.15275 0,0.25487c-0.29011,0 -0.56976,0 -0.90326,0z" fill="none" clip-rule="evenodd" fill-rule="evenodd"/>
   <path  id="svg_115" d="m64.17586,44.66532c-0.00723,-0.07943 -0.01286,-0.13529 -0.0217,-0.23654c0.29814,0 0.58021,0 0.8896,0c0.01447,0.05499 0.03054,0.12307 0.05866,0.23654c-0.3118,0 -0.59307,0 -0.92657,0z" fill="none" clip-rule="evenodd" fill-rule="evenodd"/>
   <path  id="svg_116" d="m66.25642,44.42354c0,0.09252 0,0.14926 0,0.24527c-0.29091,0 -0.57217,0 -0.88157,0c-0.01125,-0.06721 -0.0217,-0.13442 -0.04018,-0.24527c0.311,0 0.59146,0 0.92175,0z" fill="none" clip-rule="evenodd" fill-rule="evenodd"/>
   <path  id="svg_117" d="m66.5409,44.66881c0,-0.0899 0,-0.14576 0,-0.24352c0.28689,0 0.56816,0 0.87916,0c0.01205,0.06546 0.02411,0.1318 0.045,0.24352c-0.3102,0 -0.59226,0 -0.92416,0z" fill="none" clip-rule="evenodd" fill-rule="evenodd"/>
   <path  id="svg_118" d="m67.68204,44.62255c0.19689,-0.2732 0.32707,-0.29415 0.92416,-0.17806c0.00964,0.03579 0.02732,0.07594 0.02973,0.11783c0.00161,0.02531 -0.0217,0.05324 -0.045,0.10736c-0.28287,0.05237 -0.577,0.08728 -0.90889,-0.04713z" fill="none" clip-rule="evenodd" fill-rule="evenodd"/>
   <path  id="svg_119" d="m6.27133,32.41939c-0.10045,0.07245 -0.2001,0.14489 -0.30136,0.21821c0.03134,0.06983 0.0675,0.15013 0.12617,0.27844c-0.04982,0.04451 -0.10688,0.09339 -0.19206,0.16846c-0.24671,-0.18417 -0.45886,-0.34215 -0.67825,-0.50625c0.02732,-0.10736 0.04822,-0.19115 0.07474,-0.29327c0.31421,0 0.61396,0 0.91371,0c0.01848,0.04539 0.03777,0.09078 0.05706,0.13442z" fill="none" clip-rule="evenodd" fill-rule="evenodd"/>
   <path  id="svg_120" d="m5.88398,43.56205c0.09724,0.11172 0.14545,0.16671 0.22662,0.26185c-0.23064,0.18504 -0.4444,0.35699 -0.72406,0.58218c-0.07875,-0.09165 -0.1342,-0.15798 -0.22501,-0.2636c0.25153,-0.20163 0.4661,-0.37445 0.72245,-0.58044z" fill="none" clip-rule="evenodd" fill-rule="evenodd"/>
   <path  id="svg_121" d="m6.30106,32.98587c0.25555,0.20163 0.46208,0.36572 0.6879,0.54552c-0.06911,0.09514 -0.11894,0.16322 -0.19849,0.27058c-0.2451,-0.18242 -0.4661,-0.34739 -0.70959,-0.52981c0.07715,-0.0995 0.12858,-0.16758 0.22019,-0.28629z" fill="none" clip-rule="evenodd" fill-rule="evenodd"/>
   <path  id="svg_122" d="m6.95762,33.97479c0.10688,-0.11172 0.15751,-0.16409 0.2435,-0.25487c0.22903,0.17893 0.4452,0.34652 0.68147,0.52981c-0.07474,0.0995 -0.12536,0.16671 -0.20653,0.27407c-0.23948,-0.18417 -0.45726,-0.35001 -0.71843,-0.54902z" fill="none" clip-rule="evenodd" fill-rule="evenodd"/>
   <path  id="svg_123" d="m9.87796,40.78817c-0.0892,-0.0995 -0.14465,-0.16322 -0.23385,-0.2636c0.23546,-0.1833 0.45244,-0.35175 0.69031,-0.53592c0.08438,0.09601 0.14063,0.15973 0.22823,0.25923c-0.23546,0.18504 -0.45002,0.35437 -0.68468,0.54029z" fill="none" clip-rule="evenodd" fill-rule="evenodd"/>
   <path  id="svg_124" d="m8.10438,42.21962c-0.08759,-0.09165 -0.14545,-0.15275 -0.23948,-0.25138c0.23305,-0.18679 0.44681,-0.35786 0.68147,-0.5464c0.0892,0.09601 0.14787,0.15886 0.24189,0.25836c-0.23305,0.18417 -0.44842,0.3535 -0.68388,0.53941z" fill="none" clip-rule="evenodd" fill-rule="evenodd"/>
   <path  id="svg_125" d="m6.03989,43.42327c0.27564,-0.2121 0.49422,-0.38056 0.73209,-0.56385c0.08759,0.10212 0.14304,0.16671 0.22582,0.2636c-0.22099,0.17544 -0.42511,0.33866 -0.64691,0.51672c-0.09563,-0.06634 -0.16715,-0.11609 -0.311,-0.21646z" fill="none" clip-rule="evenodd" fill-rule="evenodd"/>
   <path  id="svg_126" d="m11.23044,39.26506c0.09643,0.12132 0.14144,0.17631 0.21698,0.27058c-0.23385,0.18679 -0.44842,0.35874 -0.67584,0.54029c-0.09,-0.09252 -0.14144,-0.14576 -0.23707,-0.24439c0.22662,-0.18504 0.43797,-0.35699 0.69593,-0.56647z" fill="none" clip-rule="evenodd" fill-rule="evenodd"/>
   <path  id="svg_127" d="m9.43436,40.70612c0.09402,0.09078 0.14626,0.1414 0.20894,0.20163c-0.14706,0.28105 -0.40502,0.41984 -0.67664,0.57084c-0.06349,-0.0611 -0.11652,-0.1126 -0.21939,-0.21123c0.23626,-0.1929 0.45565,-0.37357 0.68709,-0.56124z" fill="none" clip-rule="evenodd" fill-rule="evenodd"/>
   <path  id="svg_128" d="m7.85525,34.68877c0.09884,-0.10649 0.14867,-0.15973 0.23385,-0.25138c0.23224,0.17544 0.45244,0.34041 0.70236,0.52894c-0.09242,0.09427 -0.15831,0.16235 -0.25073,0.25574c-0.22983,-0.17893 -0.43636,-0.33953 -0.68548,-0.5333z" fill="none" clip-rule="evenodd" fill-rule="evenodd"/>
   <path  id="svg_129" d="m7.88418,42.42125c-0.23224,0.17457 -0.44279,0.33168 -0.66539,0.49926c-0.08679,-0.07506 -0.14304,-0.12307 -0.24992,-0.21559c0.22742,-0.18853 0.43797,-0.36397 0.73531,-0.61186c0.06107,0.10998 0.10286,0.18591 0.18001,0.32819z" fill="none" clip-rule="evenodd" fill-rule="evenodd"/>
   <path  id="svg_130" d="m10.57308,36.40303c-0.10608,0.1126 -0.15671,0.16497 -0.23546,0.24876c-0.22501,-0.16671 -0.43556,-0.32382 -0.667,-0.49577c0.05786,-0.09689 0.10045,-0.16933 0.1768,-0.30026c0.24591,0.18679 0.46449,0.35088 0.72567,0.54727z" fill="none" clip-rule="evenodd" fill-rule="evenodd"/>
   <path  id="svg_131" d="m11.44902,37.10654c-0.08358,0.10299 -0.13822,0.17108 -0.21778,0.27145c-0.22823,-0.17457 -0.43797,-0.33517 -0.6662,-0.50799c0.05947,-0.09776 0.10286,-0.16933 0.1776,-0.29327c0.24832,0.18591 0.46851,0.35088 0.70638,0.52981z" fill="none" clip-rule="evenodd" fill-rule="evenodd"/>
   <path  id="svg_132" d="m9.45204,35.9605c-0.25234,-0.19813 -0.45886,-0.36136 -0.68307,-0.53767c0.07474,-0.09863 0.12617,-0.16671 0.21215,-0.28193c0.23626,0.19028 0.45083,0.36223 0.68227,0.54727c-0.07393,0.09514 -0.11813,0.15275 -0.21135,0.27233z" fill="none" clip-rule="evenodd" fill-rule="evenodd"/>
   <path  id="svg_133" d="m7.43336,32.34608c-0.18564,0.26272 -0.30537,0.28105 -0.9113,0.16933c-0.01205,-0.03579 -0.03134,-0.07681 -0.03456,-0.11783c-0.00161,-0.02619 0.02089,-0.05412 0.03295,-0.08117c0.42029,-0.09863 0.51914,-0.09776 0.91291,0.02968z" fill="none" clip-rule="evenodd" fill-rule="evenodd"/>
   <path  id="svg_134" d="m8.57851,32.29196c0.00804,0.07768 0.01447,0.13354 0.02491,0.23654c-0.29895,0 -0.58021,0 -0.888,0c-0.01366,-0.05237 -0.03214,-0.11871 -0.06349,-0.23654c0.31341,0 0.59468,0 0.92657,0z" fill="none" clip-rule="evenodd" fill-rule="evenodd"/>
   <path  id="svg_135" d="m8.83727,32.47264c0.18644,-0.25923 0.31662,-0.27844 0.91371,-0.16409c0.00964,0.03579 0.02893,0.07681 0.03054,0.11783c0.00161,0.02531 -0.02089,0.05324 -0.03375,0.07943c-0.42511,0.09863 -0.52556,0.09601 -0.9105,-0.03317z" fill="none" clip-rule="evenodd" fill-rule="evenodd"/>
   <path  id="svg_136" d="m10.94998,32.29109c0.00643,0.08117 0.01205,0.13791 0.01929,0.23828c-0.29814,0 -0.57941,0 -0.87273,0c-0.01607,-0.02968 -0.04179,-0.06721 -0.05304,-0.10823c-0.00643,-0.02531 0.00804,-0.05673 0.0217,-0.13005c0.27162,0 0.55208,0 0.88478,0z" fill="none" clip-rule="evenodd" fill-rule="evenodd"/>
   <path  id="svg_137" d="m6.25606,44.4698c-0.19367,0.27494 -0.31502,0.29415 -0.92978,0.17893c0,-0.06197 0,-0.12831 0,-0.22345c0.30457,-0.05324 0.59869,-0.08816 0.92978,0.04451z" fill="none" clip-rule="evenodd" fill-rule="evenodd"/>
   <path  id="svg_138" d="m8.57851,44.42878c0.00804,0.07768 0.01366,0.13354 0.02491,0.23567c-0.29814,0 -0.57941,0 -0.888,0c-0.01366,-0.05237 -0.03134,-0.11871 -0.06268,-0.23567c0.31261,0 0.59307,0 0.92577,0z" fill="none" clip-rule="evenodd" fill-rule="evenodd"/>
   <path  id="svg_139" d="m8.90076,44.41394c0.30055,0 0.56976,0 0.86148,0c0,0.09689 0,0.16409 0,0.2636c-0.29653,0 -0.5778,0 -0.90166,0c0.01688,-0.10998 0.02813,-0.18591 0.04018,-0.2636z" fill="none" clip-rule="evenodd" fill-rule="evenodd"/>
   <path  id="svg_140" d="m10.02261,44.60858c0.18644,-0.25923 0.31743,-0.28018 0.92175,-0.16322c0,0.06284 0,0.12831 0,0.1929c-0.43797,0.10299 -0.53682,0.10038 -0.92175,-0.02968z" fill="none" clip-rule="evenodd" fill-rule="evenodd"/>
   <path  id="svg_141" d="m11.2208,44.40783c0.33511,0 0.60432,0 0.90246,0c0.01205,0.08728 0.02089,0.15449 0.03536,0.26272c-0.30939,0 -0.59066,0 -0.90085,0c-0.00964,-0.0707 -0.01929,-0.13878 -0.03697,-0.26272z" fill="none" clip-rule="evenodd" fill-rule="evenodd"/>
   <path  id="svg_142" d="m12.43185,44.66532c-0.00723,-0.07943 -0.01286,-0.13442 -0.0225,-0.23654c0.29734,0 0.5786,0 0.8888,0c0.01366,0.05499 0.03054,0.1222 0.05947,0.23654c-0.31341,0 -0.59387,0 -0.92577,0z" fill="none" clip-rule="evenodd" fill-rule="evenodd"/>
   <path  id="svg_143" d="m13.62843,44.71419c-0.01768,-0.1222 -0.02572,-0.17719 -0.04259,-0.29764c0.29975,-0.01309 0.58021,-0.02357 0.87674,-0.03666c0.03054,0.09514 0.05063,0.16148 0.09322,0.29415c-0.31984,0.01397 -0.6003,0.02706 -0.92737,0.04015z" fill="none" clip-rule="evenodd" fill-rule="evenodd"/>
   <path  id="svg_144" d="m15.73631,44.4698c-0.19448,0.27407 -0.31421,0.29415 -0.93059,0.1798c0,-0.06284 0,-0.12918 0,-0.22083c0.30618,-0.05848 0.59869,-0.09078 0.93059,0.04102z" fill="none" clip-rule="evenodd" fill-rule="evenodd"/>
   <path  id="svg_145" d="m15.96293,44.42267c0.34475,0 0.62602,0 0.92094,0c0,0.09514 0,0.15187 0,0.24701c-0.29493,0 -0.57619,0 -0.88639,0c-0.00964,-0.06983 -0.01929,-0.13791 -0.03456,-0.24701z" fill="none" clip-rule="evenodd" fill-rule="evenodd"/>
   <path  id="svg_146" d="m6.5309,44.41394c0.29975,0 0.56976,0 0.86148,0c0,0.09689 0,0.16322 0,0.2636c-0.29653,0 -0.5778,0 -0.90166,0c0.01688,-0.10998 0.02813,-0.18591 0.04018,-0.2636z" fill="none" clip-rule="evenodd" fill-rule="evenodd"/> 
  </g>  
 </svg>