<svg xmlns="http://www.w3.org/2000/svg" width='100%' height='100%' viewBox='-5 -5 85 85' preserveAspectRatio='none'>
 <g>
   <path  id="svg_1" d="m6.70038,42.09173l0,-9.74165l-4.54494,0c-0.48782,0 -0.94535,0.21432 -1.23016,0.57615c-0.28482,0.36462 -0.36662,0.83222 -0.20907,1.25528l2.86937,7.91022l-2.86937,7.91022c-0.15453,0.42307 -0.07575,0.89067 0.20604,1.25528c0.28785,0.36114 0.74234,0.57615 1.23319,0.57615l23.05191,0l-17.69495,-8.50933c-0.49691,-0.24424 -0.81203,-0.71462 -0.81203,-1.23232l0.00001,0z"/>
   <path  id="svg_3" d="m70.41052,42.09173l2.8671,-7.91022c0.1568,-0.42307 0.07272,-0.89067 -0.20376,-1.25528c-0.28406,-0.36183 -0.74385,-0.57615 -1.2294,-0.57615l-4.54494,0l0,9.74165c0,0.52327 -0.31815,0.99922 -0.82415,1.23858l-18.1305,8.50307l23.49959,0c0.49085,0 0.94838,-0.21501 1.23016,-0.57615c0.28482,-0.36392 0.36587,-0.83152 0.20604,-1.25528l-2.87013,-7.91022l-0.00001,0z"/>
   <path  id="svg_4" d="m46.08982,43.48339l0,6.2785l13.39241,-6.2785l-13.39241,0z"/>
   <path  id="svg_5" d="m27.91007,49.99082l0,-6.50742l-13.53179,0l13.53179,6.50742z"/>
   <path  id="svg_6" d="m64.26956,32.35008l0,-6.95832c0,-0.76542 -0.68174,-1.39166 -1.51498,-1.39166l-51.50927,0c-0.83627,0 -1.51498,0.62625 -1.51498,1.39166l0,15.30831l54.53922,0l0,-8.34999l0.00001,0z"/>    </g>
</svg>