<svg xmlns="http://www.w3.org/2000/svg" width='100%' height='100%' viewBox='-5 -5 85 85' preserveAspectRatio='none'>
 <g>
   <path d="m19.28044,31.12302c0.57362,-0.01397 1.16361,-0.03492 1.76607,-0.06145c0.22446,-0.01047 0.45126,-0.02863 0.67728,-0.0433l-0.07326,-9.407c-0.7217,-0.02933 -1.46055,-0.04749 -2.21889,-0.04749c-10.01423,0 -16.99201,2.74508 -16.99201,5.20803c0,2.46854 7.22951,4.33235 16.84081,4.3512z"/>
   <path d="m62.48839,38.47977l11.88864,-11.3141c-2.23136,-0.081 -4.35517,-0.12221 -6.38233,-0.12221c-5.56009,0 -10.42419,0.30516 -14.97887,0.92736c-3.86883,0.52932 -7.73065,1.28071 -11.47089,2.00137c-2.84161,0.55167 -5.77753,1.1201 -8.70176,1.58867c-0.79808,0.13058 -1.61487,0.26955 -2.43244,0.40782c-2.91799,0.4965 -5.92405,1.00418 -8.84361,1.18714c-0.19718,0.01257 -0.39514,0.02793 -0.59155,0.03701c-0.58064,0.02654 -1.15114,0.04609 -1.71307,0.06006c-0.03975,0.0007 -0.08106,0.00279 -0.12158,0.00419c-0.59545,0.01466 -1.18076,0.02165 -1.7536,0.02165c-0.87446,0 -1.71697,-0.01676 -2.52752,-0.05168c-0.64533,-0.02584 -1.23843,-0.05726 -1.81907,-0.10405c-0.5557,-0.04818 -0.91889,-0.08729 -1.28286,-0.13058c-0.22368,-0.02165 -0.325,-0.03003 -0.42788,-0.0433c-0.15276,-0.01327 -0.3063,-0.02654 -0.4536,-0.0426c-0.71469,-0.09218 -1.41067,-0.20461 -2.07471,-0.32681c-0.68975,-0.13338 -1.35378,-0.28142 -1.97261,-0.44203c-0.64455,-0.16969 -1.27039,-0.36103 -1.85102,-0.56843c-0.65702,-0.23463 -1.23843,-0.46857 -1.72321,-0.7032c-0.49802,-0.23952 -0.91967,-0.48673 -1.2509,-0.72555c-0.29383,-0.21508 -0.51751,-0.43994 -0.68741,-0.66619c-0.02572,-0.03352 -0.06235,-0.06774 -0.08495,-0.10265c-0.04131,-0.06006 -0.09664,-0.1236 -0.1286,-0.18575c-0.06313,-0.07681 -0.08495,-0.15503 -0.14029,-0.23394l0,20.29374c0,0.27374 0.08885,0.55097 0.26889,0.81633c0.17224,0.26047 0.43411,0.52024 0.77236,0.76885c0.33124,0.23882 0.75288,0.48533 1.2509,0.72415c0.48555,0.23463 1.06619,0.46927 1.72321,0.7032c0.58064,0.2088 1.20648,0.40013 1.85102,0.56843c0.61883,0.16061 1.28286,0.30796 1.97261,0.44343c0.66403,0.12081 1.36002,0.23463 2.07471,0.32541c0.14652,0.01746 0.30006,0.03073 0.4536,0.0433c0.1021,0.01327 0.2042,0.02165 0.42788,0.0433c0.36397,0.0433 0.72794,0.0824 1.28286,0.13128c0.58064,0.04679 1.17452,0.07751 1.81907,0.10335c0.81133,0.03561 1.65384,0.05237 2.52752,0.05237c1.14958,0 2.34983,-0.03073 3.58826,-0.08729c3.10271,-0.14734 6.31998,-0.69413 9.43437,-1.22345c0.81757,-0.13896 1.63436,-0.27793 2.43244,-0.40921c2.92345,-0.46857 5.86015,-1.037 8.70176,-1.58797c3.74024,-0.71996 7.60206,-1.47205 11.47089,-2.00137c4.55469,-0.6208 9.41879,-0.92666 14.97887,-0.92666c2.08406,0 4.26554,0.0433 6.56392,0.12779l-12.06945,-9.38117z"/>
 </g>
 </svg>