<svg xmlns="http://www.w3.org/2000/svg" width='100%' height='100%' viewBox='-5 -5 85 85' preserveAspectRatio='none'>
 <g>
  <path stroke="null" id="svg_1" d="m59.29208,42.37379c-15.29304,-2.769 -29.05833,-2.739 -44.34183,0.104c-0.84316,-4.702 -1.26518,-7.053 -2.10834,-11.753c16.72199,-3.109 31.78453,-3.144 48.51692,-0.11c-0.82756,4.702 -1.24091,7.053 -2.06674,11.759z"/>
   <path stroke="null" id="svg_2" d="m0.53504,36.55479c2.86398,1.45 4.25394,2.227 6.94721,3.87c-1.60313,2.989 -2.34838,4.501 -3.734,7.544c3.89085,-1.459 5.86141,-2.08 9.82851,-3.105c-0.90902,-4.685 -1.36396,-7.027 -2.27298,-11.71c-4.34666,1.122 -6.50526,1.802 -10.76873,3.401z"/>
   <path stroke="null" id="svg_3" d="m74.13191,36.55479c-2.86398,1.45 -4.25481,2.228 -6.94807,3.87c1.60313,2.99 2.34924,4.501 3.73574,7.544c-4.0555,-1.521 -6.11011,-2.162 -10.24793,-3.212c0.89342,-4.689 1.34057,-7.035 2.23399,-11.722c4.5321,1.15 6.78343,1.854 11.22627,3.52z"/>    </g>
</svg>