<svg xmlns="http://www.w3.org/2000/svg" width='100%' height='100%' viewBox='-5 -5 85 85' preserveAspectRatio='none'>
 <g  id="svg_4">
   <ellipse  id="svg_2" ry="15.9135" rx="14.23627" cy="17.41346" cx="37.41701" />
   <g  id="svg_3">
    <path  id="svg_5" d="m37.41701,36.22032c-9.43509,0 -17.08352,3.23912 -17.08352,7.23341s7.64844,7.23341 17.08352,7.23341c9.43438,0 17.08352,-3.23912 17.08352,-7.23341s-7.64915,-7.23341 -17.08352,-7.23341zm0,9.04176c-4.71719,0 -8.54176,-0.80942 -8.54176,-1.80835s3.82457,-1.80835 8.54176,-1.80835c4.71719,0 8.54176,0.80942 8.54176,1.80835s-3.82457,1.80835 -8.54176,1.80835z" />
   </g>
   <path  id="svg_6" d="m50.94146,50.68714c0,5.05977 -1.356,5.95454 -2.92627,6.99109c-1.55104,1.02353 -3.48148,2.29661 -3.4829,6.75166c-0.00142,3.71219 -3.0608,6.51079 -7.11671,6.51079c-0.00071,0 -0.00071,0 -0.00214,0c-1.68344,0 -3.2836,-0.68428 -4.50649,-1.92698c-1.22361,-1.2427 -1.89627,-2.87094 -1.89627,-4.58309c0,-4.50063 -2.13544,-5.76864 -3.85162,-6.78783c-1.7532,-1.04089 -3.26651,-1.94 -3.26651,-6.95565l-2.84725,-1.44668l0,1.44668c0,6.17299 2.11836,7.9336 4.67661,9.45334c1.52257,0.90418 2.44152,1.4503 2.44152,4.29013c0,2.4854 0.96949,4.83915 2.7298,6.6287c1.76031,1.78955 4.07584,2.77474 6.5195,2.77474c0.00071,0 0.00142,0 0.00285,0c5.5856,0 9.96254,-4.13028 9.96396,-9.40271c0.00071,-2.88468 0.82286,-3.42719 2.18527,-4.32558c2.31055,-1.52553 4.2239,-3.28614 4.2239,-9.41862l0,-1.44668l-2.84725,1.44668z" />
  </g>
  </svg>