<svg xmlns="http://www.w3.org/2000/svg" width='100%' height='100%' viewBox='-5 -5 85 85' preserveAspectRatio='none'>
 <g>
  <path   d="m74.83321,38.91244c0,7.93436 -6.07854,17.96872 -16.96967,21.75934l0,-6.74999c10.70447,-5.71874 13.47052,-19.54684 5.27078,-19.54684l-5.27078,0l0,-6.24999l6.4892,0c7.27659,0 10.48047,4.79374 10.48047,10.78748zm-16.96967,31.17182l0,4.91562l-54.30294,0l0,-4.91562c2.25357,0 3.39393,-1.68437 3.39393,-3.75937l0,-40.05306c-4.00824,-1.77812 -6.78787,-5.48124 -6.78787,-9.84373c0,-7.05311 7.07296,-12.00936 14.38349,-10.94061c3.55345,-2.92187 8.49162,-3.79374 12.87998,-2.475c2.71854,-2.00625 5.46763,-3.0125 8.76314,-3.0125c5.15199,0 10.08338,2.39062 12.68652,5.73124c6.27199,0.325 11.26786,5.12812 11.26786,10.98436c0,4.19062 -1.92436,7.84374 -5.68145,9.69998l0,39.91244c0.00339,2.07187 1.14376,3.75624 3.39733,3.75624zm-37.33327,-35.70932c0,-1.725 -1.51709,-3.12499 -3.39393,-3.12499s-3.39393,1.4 -3.39393,3.12499l0,24.99996c0,1.725 1.51709,3.12499 3.39393,3.12499s3.39393,-1.4 3.39393,-3.12499l0,-24.99996zm13.57574,0c0,-1.725 -1.51709,-3.12499 -3.39393,-3.12499s-3.39393,1.4 -3.39393,3.12499l0,24.99996c0,1.725 1.51709,3.12499 3.39393,3.12499s3.39393,-1.4 3.39393,-3.12499l0,-24.99996zm13.57574,0c0,-1.725 -1.51709,-3.12499 -3.39393,-3.12499s-3.39393,1.4 -3.39393,3.12499l0,24.99996c0,1.725 1.51709,3.12499 3.39393,3.12499s3.39393,-1.4 3.39393,-3.12499l0,-24.99996zm7.12047,-17.65935c0,-3.35624 -2.95612,-6.07499 -6.59781,-6.07499c-0.82473,0 -1.61551,0.14062 -2.33842,0.39375c-1.23879,-3.54374 -4.84993,-6.10937 -9.11271,-6.10937c-3.46521,0 -6.50956,1.7 -8.18617,4.24687c-1.39151,-1.14062 -3.22424,-1.83125 -5.23005,-1.83125c-3.05793,0 -5.7086,1.60937 -7.00847,3.95624c-1.04533,-0.64375 -2.30109,-1.01875 -3.65187,-1.01875c-9.46908,0 -9.35368,12.15311 0,12.15311c2.19588,0 4.14399,-0.99062 5.34205,-2.5125c1.3983,1.18437 3.26836,1.90937 5.31829,1.90937c2.39612,0 4.53769,-0.98437 5.98351,-2.54062c1.75466,1.99062 4.43248,3.26562 7.42932,3.26562c2.37915,0 4.55466,-0.8 6.23126,-2.12187c1.20485,1.4375 3.09527,2.3625 5.21987,2.3625c3.64508,-0.00312 6.6012,-2.725 6.6012,-6.07812z" />
 </g>
</svg>