<svg xmlns="http://www.w3.org/2000/svg" width='100%' height='100%' viewBox='-5 -5 85 85 ' preserveAspectRatio='none'>
 <g>
  <path id="svg_1" d="m73.03233,55.25973l-1.39075,-1.19417c-0.02309,-0.02032 -2.75767,-2.4281 -2.89473,-5.48861c-0.16537,-3.65672 0.96541,-6.21112 0.96541,-6.21112c-1.89431,1.90255 -2.81726,4.02239 -2.74128,6.29591c0.08343,2.51996 1.40342,4.60446 2.42767,5.84633l-29.66019,12.05745l-0.00521,0l-2.7167,-3.80422l-4.41584,2.33712l2.33232,3.42442l-4.7004,1.90874c-0.16016,0.02826 -0.31957,0.04946 -0.47302,0.04946c-1.78779,0 -3.40947,-2.39983 -3.40947,-5.03196c0,-2.618 1.51515,-5.22805 2.98934,-6.2385l41.78738,-18.32422l-30.84908,-38.71969l-36.21841,14.54119c-1.78705,0.8073 -3.05936,3.11704 -3.05936,5.78362c0,1.39644 0.35532,2.75137 0.99446,3.83867l0.33149,-0.2588l-0.31957,0.27293l1.54495,2.87768c-0.2488,-5.58665 3.42734,-7.03256 5.25015,-7.98648l1.77587,2.63213c-1.34978,0.70131 -5.32687,2.20463 -5.10787,7.18006l0.01192,0.16075c0,1.03872 0.26072,2.04299 0.72852,2.83528l-0.00596,0.00618l12.31117,22.38105c-0.24284,-2.82821 2.34946,-6.84972 6.23269,-7.82485l1.69244,2.51289c-3.99497,1.81776 -6.06732,4.56206 -5.67028,7.97147l0.01192,0.15545c0,1.0396 0.25476,2.04917 0.72852,2.83528l-0.02533,0.0212l4.34508,7.96528l0.0298,-0.02032c0.97062,1.53688 2.38596,2.54027 3.90111,2.54027c0.29052,0 0.58625,-0.03445 0.86931,-0.10511l5.48107,-2.22494l2.58038,3.79009l1.18367,-3.10291l2.98859,0l-1.90027,-2.65951l32.0685,-13.02551zm-46.98985,-24.72524l-1.77587,-2.63125l6.45169,-2.88474l-4.82406,-7.46801l4.29144,-1.75416l4.89557,7.27015l6.05465,-2.70897l2.2191,2.45636l-6.49266,2.89799l9.74793,14.47142l-4.73467,2.1057l-9.43507,-14.60479l-6.39806,2.8503z"/>
 </g>
</svg>