<svg xmlns="http://www.w3.org/2000/svg" width='100%' height='100%' viewBox='-5 -5 85 85' preserveAspectRatio='none'>
 <g>
  <path d="m59.06643,27.20559c-1.57687,0 -3.09197,0.26897 -4.50897,0.75665c-1.09872,-2.47686 -2.38274,-5.37491 -3.88621,-8.7769l0.9592,-2.68228l3.29689,-0.06133l0,-2.8042l-12.41001,0c-1.08564,1.51035 0.43963,1.5037 5.93541,2.74287l-0.9592,2.74361l-24.51991,0c1.65171,-5.86629 0.71867,-5.43919 8.1532,-5.42589l0,-2.86479c-10.23437,0.10123 -8.45985,-1.07143 -13.94037,16.85478c-0.83857,-0.15887 -1.70258,-0.24606 -2.58693,-0.24606c-7.77461,0 -14.09951,6.4323 -14.09951,14.33801s6.32491,14.33727 14.09951,14.33727c7.77533,0 14.10024,-6.43156 14.10024,-14.33727c0,-5.9158 -3.5425,-11.00622 -8.58339,-13.19342c0.30665,-0.98129 0.63656,-2.02908 0.99045,-3.14854c20.62716,22.12402 12.88889,18.5373 23.98872,18.98582c0.05305,0 0.10391,-0.00074 0.15696,-0.00148c1.31454,6.53132 7.00943,11.45918 13.81393,11.45918c7.77533,0 14.10024,-6.43156 14.10024,-14.33727s-6.32491,-14.33875 -14.10024,-14.33875zm-33.66501,14.57447c0,6.05619 -4.84541,10.98331 -10.80117,10.98331s-10.8019,-4.92712 -10.8019,-10.98331s4.84541,-10.98331 10.80117,-10.98331c0.53701,0 1.06457,0.04138 1.5805,0.11897c-3.44077,11.03356 -3.02802,9.7774 -3.04909,10.7077c-0.01671,0.78473 0.60604,1.4069 1.38939,1.46085c1.40392,-0.14483 1.08782,0.09163 4.59617,-11.27667c3.706,1.7409 6.28494,5.55447 6.28494,9.97247zm13.92293,-0.6835l-17.05995,-18.90454l23.99381,-0.0436l-6.93385,18.94814zm5.64329,0.3968l-2.62327,-0.00813l6.80669,-18.16858l2.64071,5.94979c-4.07369,2.50494 -6.80596,7.04635 -6.82413,12.22692zm8.19462,-9.13971l4.07224,9.17518l-8.96852,-0.02586c0.01453,-3.82465 1.96127,-7.19339 4.89628,-9.14931zm5.90417,20.17401c-4.98057,0 -9.18361,-3.4478 -10.42621,-8.11926c11.24226,0.01108 12.24506,0.59705 12.40202,-1.38621c-0.01526,-0.57784 -0.22672,-0.9739 -5.12009,-11.98529c0.99481,-0.30887 2.05065,-0.4766 3.14356,-0.4766c5.95576,0 10.80117,4.92712 10.80117,10.98405s-4.84469,10.98331 -10.80045,10.98331z" />
 </g>
</svg>