<svg xmlns="http://www.w3.org/2000/svg" width='100%' height='100%' viewBox='-5 -5 85 85' preserveAspectRatio='none'>
 <g>
    <path id="svg_1" d="m55.31105,20.77572l-35.77176,0c-1.51148,0 -2.77105,1.20134 -2.77105,2.64295l0,10.49169l20.65693,-6.48723l20.65693,6.48723l0,-10.49169c0,-1.44161 -1.25957,-2.64295 -2.77105,-2.64295z" fill="none"/>
   <path id="svg_3" d="m73.19693,39.67679c-0.33589,-0.80089 -1.1756,-1.36152 -2.01531,-1.68187l-6.21387,-1.92214l0,-15.29705c0,-3.68411 -3.10694,-6.7275 -6.96962,-6.7275l-9.48875,0c-0.50383,0 -0.92368,-0.32036 -1.09163,-0.80089l-1.84737,-5.92661c-0.25191,-0.88098 -1.09163,-1.44161 -2.01531,-1.5217l0,-3.52393c0,-0.80089 -0.67177,-1.44161 -1.51148,-1.44161l-0.41986,0c-0.83971,0 -1.51148,0.64071 -1.51148,1.44161l0,3.52393l-8.73301,0c-1.00766,0 -1.84737,0.64071 -2.18325,1.5217l-1.84737,6.0067c-0.16794,0.48054 -0.5878,0.80089 -1.09163,0.80089l-9.48875,0c-3.77871,0 -6.88564,3.04339 -6.88564,6.7275l0,15.21696l-6.1299,1.92214c-0.83971,0.32036 -1.67943,0.80089 -2.01531,1.68187c-0.33589,0.80089 -0.50383,1.60179 -0.16794,2.64295l8.22918,21.6241l0.16794,0c5.5421,0 10.32847,-2.9633 13.77129,-6.64741c3.44282,3.68411 8.22918,6.64741 13.77129,6.64741s10.32847,-3.04339 13.77129,-6.64741c3.44282,3.68411 8.22918,6.64741 13.77129,6.64741l0.16794,0l8.22918,-21.6241c0.25191,-0.80089 0.08397,-1.76196 -0.25191,-2.64295zm-15.11483,-5.76643l-20.65693,-6.48723l-20.65693,6.48723l0,-10.49169c0,-1.44161 1.25957,-2.64295 2.77105,-2.64295l35.77176,0c1.51148,0 2.77105,1.20134 2.77105,2.64295l0,10.49169z" />
   <path id="svg_4" d="m51.19645,62.90268c-8.39713,5.68634 -19.06148,5.68634 -27.54258,0c0,0 -9.32081,10.01116 -17.21411,10.01116l3.44282,0c4.78636,0 9.48875,-1.84205 13.77129,-4.00446c8.56507,4.32482 18.89354,4.32482 27.54258,0c4.28253,2.16241 8.90095,4.00446 13.77129,4.00446l3.44282,0c-7.72536,0 -17.21411,-10.01116 -17.21411,-10.01116z" />
 </g>
</svg>