<svg xmlns="http://www.w3.org/2000/svg" width='100%' height='100%' viewBox='-5 -5 85 85 ' preserveAspectRatio='none'>
 <g>
   <path  id="svg_1" d="m57.97636,67.82084c-0.23532,-3.9375 -4.75535,-5.04207 -6.54662,-5.09052c-0.28736,-0.24691 5.08796,-4.08288 3.48524,-8.69189c0.14255,-1.05687 0.75422,-1.92068 -0.8945,-4.56132c-0.69539,-2.33527 -1.22259,-6.96428 -1.27161,-7.20427c-0.04676,-0.24076 -0.32884,-4.3221 -3.39097,-6.05125c-0.42312,-0.19153 -2.63675,-1.29609 -4.61356,-1.96837c0,0 -1.81163,-2.39681 -2.77402,-2.39681c-0.01735,0 -0.03545,0.00154 -0.0543,0.00385c0,0 -1.55444,-2.01683 -0.3756,-3.65059c0,0 0.08221,1.21917 0.67201,1.21917c0.04148,0 0.08372,-0.00615 0.12973,-0.01769c0.70821,-0.1923 0.70821,-0.86457 0.5189,-1.58531c-0.18855,-0.72073 0.3311,-1.34455 0.42387,-1.63223c0.09428,-0.28845 1.69548,-3.16985 0.14028,-3.84289c0,0 0.84699,-4.80208 -3.20241,-6.24201c0,0 0.88696,-1.81222 -0.45253,-3.29292c-0.36655,-0.61151 -1.10946,-1.08687 -2.0296,-1.2884c0.0543,-0.1323 0.08523,-0.27768 0.08523,-0.43075c0,-0.60536 -1.07627,-1.44224 -1.07627,-1.44224s-1.07552,0.83688 -1.07552,1.44224c0,0.15307 0.03092,0.29845 0.08749,0.43075c-0.92015,0.20153 -1.66381,0.67612 -2.0296,1.28763c-1.34025,1.4807 -0.45253,3.29369 -0.45253,3.29369c-4.05091,1.43993 -3.20317,6.24201 -3.20317,6.24201c-1.55444,0.67304 0.04676,3.55444 0.14255,3.84289c0.09201,0.28768 0.61167,0.91226 0.42312,1.63223c-0.1878,0.72073 -0.1878,1.39301 0.51815,1.58531c0.04525,0.01231 0.089,0.01769 0.12897,0.01769c0.58904,0 0.67125,-1.21917 0.67125,-1.21917c1.17884,1.63377 -0.37711,3.65059 -0.37711,3.65059c-0.01735,-0.00231 -0.0362,-0.00385 -0.05506,-0.00385c-0.95786,0 -2.771,2.39681 -2.771,2.39681c-1.97756,0.67228 -4.18968,1.77684 -4.61431,1.96837c-3.05986,1.72915 -3.3427,5.81049 -3.3887,6.05125c-0.04752,0.23999 -0.57622,4.869 -1.27086,7.20427c-1.64872,2.64064 -1.03705,3.50445 -0.89601,4.56132c-1.60121,4.60901 3.77486,8.44498 3.48524,8.69189c-1.78901,0.04846 -6.30828,1.15302 -6.54586,5.09052c0,5.56896 15.16281,6.3297 15.16281,6.3297c2.05902,0.13692 4.09616,0.20076 6.22683,0.20384c0.0445,0 0.08824,0 0.13199,0c1.74903,0 3.53578,-0.03231 5.76751,-0.20384c-0.00226,0 15.16055,-0.75996 15.16055,-6.3297z" fill="#000000"/>
   <path  id="svg_2" d="m22.76944,35.53547c0.23456,-0.17615 0.47817,-0.34152 0.73461,-0.4869l0.05129,-0.03l0.0543,-0.02308c0.06486,-0.03 0.17573,-0.0823 0.32356,-0.1523c0.25643,-0.12153 0.62751,-0.29845 1.06345,-0.4969c-3.63986,-3.30369 -5.95003,-8.10115 -5.95003,-13.45089c0,-9.93568 7.92608,-18.01836 17.66832,-18.01836c9.74224,0 17.66832,8.08269 17.66832,18.01836c0,5.33667 -2.29961,10.12567 -5.9259,13.42858c0.46384,0.21153 0.85604,0.39844 1.12379,0.52613c0.14179,0.06769 0.24738,0.11846 0.31225,0.14692l0.0528,0.02308l0.04978,0.02923c0.24135,0.13692 0.46988,0.29383 0.69237,0.45921c3.72659,-3.70751 6.04431,-8.88265 6.04431,-14.6116c0,-11.27484 -8.96238,-20.41594 -20.01772,-20.41594c-11.0576,0 -20.01847,9.1411 -20.01847,20.41594c0.00075,5.74203 2.32978,10.9287 6.07297,14.63853z" fill="#000000"/>
   <path  id="svg_3" d="m28.15833,24.26909c-0.10559,-0.61459 -0.10559,-1.2284 0.10484,-1.78914c0.10182,-0.27229 0.24437,-0.51536 0.42387,-0.72535c-0.01056,-0.19614 -0.01282,-0.40383 -0.00905,-0.61766l-8.66371,0.86457c0.12143,1.92375 0.54002,3.76597 1.23692,5.46512l6.90713,-3.19754z" fill="#000000"/>
   <path  id="svg_4" d="m44.64178,19.5447l8.6705,-0.86534c-0.23984,-1.88914 -0.78665,-3.67828 -1.58386,-5.32359l-8.09427,3.74828c0.51815,0.76535 0.8319,1.61223 1.00764,2.44065z" fill="#000000"/>
   <path  id="svg_6" d="m41.79008,15.36875c0.30772,0.18153 0.58452,0.38537 0.83794,0.60305l7.40492,-5.40359c-1.09135,-1.45993 -2.3954,-2.74448 -3.88272,-3.78289l-4.56981,6.51353c0.26096,0.72073 0.29188,1.44301 0.20967,2.0699z" fill="#000000"/>
   <path  id="svg_7" d="m39.06433,10.55975c0.5815,0.2623 1.07702,0.62459 1.45715,1.05687l2.84718,-6.39662c-1.60422,-0.7115 -3.33666,-1.16994 -5.15282,-1.33532l-0.46535,4.86669c0.48195,0.40767 1.1004,1.05149 1.31385,1.80837z" fill="#000000"/>
   <path  id="svg_8" d="m29.81384,17.18328l-8.14028,-3.76828c-0.78514,1.63377 -1.32215,3.4083 -1.55897,5.28052l8.73989,0.8715c0.16744,-0.80612 0.46837,-1.63146 0.95937,-2.38373z" fill="#000000"/>
   <path  id="svg_9" d="m31.71145,15.36875c-0.07391,-0.56151 -0.05204,-1.20148 0.14028,-1.8476l-4.67238,-6.65968c-1.47073,1.04226 -2.75969,2.32373 -3.83671,3.78059l7.42981,5.42128c0.27906,-0.25306 0.58904,-0.48844 0.939,-0.69458z" fill="#000000"/>
   <path  id="svg_10" d="m34.43418,10.56052c0.18403,-0.65458 0.66975,-1.22302 1.11096,-1.62838l-0.48345,-5.03976c-1.81012,0.18076 -3.53201,0.66535 -5.12718,1.38916l2.90072,6.51892c0.39446,-0.51382 0.93976,-0.94149 1.59894,-1.23994z" fill="#000000"/>
   <path  id="svg_11" d="m29.36583,27.50663c-0.00377,-0.08077 -0.1154,-0.28999 -0.17498,-0.40229c-0.07467,-0.13922 -0.15084,-0.28306 -0.2059,-0.43998c-0.01282,-0.03 -0.03168,-0.06923 -0.05355,-0.11615c-0.06486,-0.14153 -0.13123,-0.28845 -0.19534,-0.43767l-5.88743,4.29672c0.8666,1.31148 1.89007,2.5068 3.06892,3.52752c0.64109,-0.27845 1.34628,-0.56997 2.04544,-0.8215c0.78288,-0.98611 1.78674,-2.03067 2.77477,-2.42834c-0.48195,-0.15768 -1.98435,-0.84227 -1.37192,-3.17831z" fill="#000000"/>
   <path  id="svg_12" d="m44.5739,26.53821c-0.02187,0.05154 -0.04148,0.09307 -0.05581,0.12461c-0.05883,0.16384 -0.13274,0.3046 -0.2059,0.44075c-0.06034,0.1123 -0.17121,0.32075 -0.1795,0.37537c0.16819,0.63535 0.1961,1.17225 0.08674,1.64377c-0.17498,0.76227 -0.70293,1.3284 -1.45564,1.55992c0.98953,0.39921 1.99189,1.44301 2.77402,2.42834c0.67729,0.2446 1.36287,0.52613 1.98887,0.79612c1.1434,-0.99303 2.14198,-2.14682 2.99349,-3.41368l-5.80824,-4.2621c-0.04676,0.10461 -0.09051,0.20845 -0.13802,0.30691z" fill="#000000"/>
   <path  id="svg_13" d="m52.09572,27.4974l-0.00151,0.00154c0.00603,0.00462 0.01358,0.01077 0.02036,0.01615c0.71123,-1.71299 1.17583,-3.55675 1.30103,-5.5005l-8.59281,-0.85611c0.00302,0.20537 0.00151,0.40537 -0.00905,0.59459c0.178,0.20922 0.32281,0.45306 0.42312,0.72458c0.22249,0.59074 0.21344,1.23917 0.08975,1.88606l6.76911,3.1337z" />
 </g>
</svg>