<svg xmlns="http://www.w3.org/2000/svg" width='100%' height='100%' viewBox='-5 -5 85 85' preserveAspectRatio='none'>
 <g>
    <path id="svg_1" d="m74.3509,26.59431l0,11.97866c0,1.3413 -1.10103,2.42696 -2.46133,2.42696l-0.59646,0l0,20.15509c0,1.49501 -1.22902,2.70687 -2.7452,2.70687l-3.26454,0l0,4.08619c0,2.61788 -2.15366,4.74147 -4.80698,4.74147c-2.65495,0 -4.80862,-2.12359 -4.80862,-4.74147l0,-4.08619l-36.13314,0l0,4.08619c0,2.61788 -2.15366,4.74147 -4.80698,4.74147c-2.65495,0 -4.80862,-2.12359 -4.80862,-4.74147l0,-4.08619l-3.36218,0c-1.51782,0 -2.7452,-1.21186 -2.7452,-2.70687l0,-20.15428l-0.86721,0c-1.36029,0 -2.46133,-1.08566 -2.46133,-2.42696l0,-11.97947c0,-1.34049 1.10103,-2.42696 2.46133,-2.42696l0.86721,0l0,-18.65037c0,-1.49501 1.22738,-2.70687 2.7452,-2.70687l61.99186,0c1.51618,0 2.7452,1.21186 2.7452,2.70687l0,18.65037l0.59646,0c1.35947,0 2.46051,1.08647 2.46051,2.42696zm-59.62324,19.22233c-2.35221,0 -4.25892,1.87847 -4.25892,4.19783c0,2.31775 1.90671,4.19783 4.25892,4.19783c2.35057,0 4.25728,-1.88008 4.25728,-4.19783c0,-2.31936 -1.90671,-4.19783 -4.25728,-4.19783zm45.74873,0c-2.35221,0 -4.25728,1.87847 -4.25728,4.19783c0,2.31775 1.90507,4.19783 4.25728,4.19783s4.25728,-1.88008 4.25728,-4.19783c0.00082,-2.31936 -1.90425,-4.19783 -4.25728,-4.19783zm9.05605,-33.52278l-63.97077,0l0,28.70689l63.97077,0l0,-28.70689zm-7.50213,-5.25113c0,-1.34049 -0.84342,-2.42696 -1.88456,-2.42696l-45.19821,0c-1.04032,0 -1.88374,1.08647 -1.88374,2.42696l0,1.00476c0,1.34049 0.84424,2.42696 1.88374,2.42696l45.19821,0c1.04114,0 1.88456,-1.08647 1.88456,-2.42696l0,-1.00476z"/>
 </g>
</svg>