<svg xmlns="http://www.w3.org/2000/svg" width='100%' height='100%' viewBox='-5 -5 85 85' preserveAspectRatio='none'>
 <g>
       <path  id="svg_2" d="m74.11506,43.84712c-0.39441,-3.74984 -3.58012,-6.06724 -7.9853,-6.12474c-0.79171,-0.01125 -1.58198,0 -2.57525,0l0,-0.24999c0,-0.01875 0,-0.03875 0,-0.0575l0,-15.21935c0,-0.02 0,-0.03875 0,-0.0575l0,-0.34499l-0.05365,0a1.99089,1.71618 0 0 0 -1.93289,-1.31494l-6.47872,0a1.99089,1.71618 0 0 0 -1.93289,1.31494l-0.05655,0l0,0.37498c0,0.00875 0,0.01625 0,0.025l0,15.21185c0,0.00875 0,0.01625 0,0.025l0,0.13624l-10.79545,0l0,-15.77433l-0.1015,0a1.99089,1.71618 0 0 0 -1.93289,-1.31494l-6.47727,0a1.99234,1.71743 0 0 0 -1.99089,1.71868l0,15.21185c0,0.05625 0,0.1125 0.01015,0.16874l-10.5765,0l0,-15.75933l-0.05075,0a1.99089,1.71618 0 0 0 -1.94014,-1.33869l-6.47727,0a1.99089,1.71618 0 0 0 -1.94014,1.33869l-0.12615,0l0,15.93182c-1.25282,0 -2.30989,-0.04375 -3.35971,0.00875c-3.05811,0.15374 -6.21626,2.08866 -6.69332,4.65105c-0.53651,2.87488 -0.45821,5.83975 -0.64816,8.77088l0.66991,0.38373c1.24847,-0.61622 2.4897,-1.24995 3.74977,-1.84367c1.99524,-0.94871 3.89187,-2.2499 6.03211,-2.72988c3.59317,-0.81372 6.92533,0.15749 9.67893,2.3749c1.67478,1.33869 3.52502,2.38365 5.88856,1.75867c1.19917,-0.31749 2.35629,-0.95746 3.33506,-1.65743c5.07509,-3.61735 10.57795,-3.68734 15.48049,-0.10875c3.62507,2.64114 5.80011,2.51989 9.58033,-0.02875a15.04693,12.9707 0 0 1 5.60145,-2.36865c3.40321,-0.70122 6.52512,0.19499 9.21057,2.20366c1.37463,1.02621 2.69125,2.30115 4.93009,1.98992c0.0058,-2.46489 0.21025,-4.90479 -0.04205,-7.30594z"/>
   <path  id="svg_3" d="m60.67767,51.49804c-1.30502,0.32499 -2.5187,1.1437 -3.60912,1.91492c-3.73527,2.64489 -7.80404,3.32111 -12.22228,1.57118c-1.33402,-0.52873 -2.4839,-1.42869 -3.65407,-2.2299c-2.7681,-1.89492 -5.25345,-1.90992 -7.9534,0.01125c-0.48286,0.34374 -0.95702,0.69622 -1.45003,1.02621c-2.83915,1.88492 -6.05096,2.77238 -9.49043,1.78992c-2.00539,-0.57373 -3.88172,-1.65618 -5.6058,-2.74988c-2.8232,-1.79992 -5.47095,-2.08991 -7.83014,-0.27374c-2.49405,1.91617 -5.1882,3.31486 -8.63636,3.42735l0,13.51192l73.88612,0l0,-13.51067c-3.23066,-0.16499 -5.90161,-1.22995 -8.12015,-3.12487c-1.50368,-1.27745 -3.35101,-1.84867 -5.31435,-1.36369z"/>
   <path  id="svg_4" d="m19.36495,18.26946c3.67002,-2.88363 1.66028,-10.98078 -3.20166,-12.44572c-0.56406,3.05862 -0.56406,3.05862 -3.89767,5.901c-1.99089,1.69993 -1.98364,4.45856 0.01595,6.24223c1.94884,1.73743 5.08524,1.87117 7.08338,0.30249z"/>
   <path  id="svg_5" d="m58.56788,19.26067c1.34562,-0.19749 2.9508,-0.83496 3.74977,-1.73243c2.8841,-3.24111 0.58871,-10.10832 -3.81067,-11.7495c-0.49881,2.98862 -0.58001,3.10737 -3.77877,5.821c-1.67188,1.41869 -2.11414,3.24986 -1.21222,5.01729s2.83915,2.96862 5.05189,2.64364z"/>
   <path  id="svg_6" d="m37.10748,19.32941c2.24319,0.02 4.11373,-0.91621 4.71694,-2.81238c0.44951,-1.41619 0.63511,-3.01737 0.37121,-4.45481c-0.47126,-2.59739 -1.81543,-4.88229 -4.93009,-6.56222c0.0203,2.90488 -1.61533,4.59855 -3.68307,6.12474c-1.59503,1.18245 -2.05179,3.20611 -1.27747,4.87479a5.11279,4.40731 0 0 0 4.80249,2.82988z"/>
 </g>
</svg>