<svg xmlns="http://www.w3.org/2000/svg" width='100%' height='100%' viewBox='-5 -5 85 85' preserveAspectRatio='none'>
 <g>
  <path d="m66.88155,14.77618l-13.08375,0l0,-5.11808l-32.70936,0l0,5.11808l-13.08375,0c-3.85185,0 -6.978,3.0572 -6.978,6.8241l0,35.40003c0,3.7669 3.12614,6.8241 6.978,6.8241l58.87686,0c3.85185,0 6.978,-3.0572 6.978,-6.8241l0,-35.40003c0,-3.7669 -3.12614,-6.8241 -6.978,-6.8241zm-29.44017,45.20626c-11.66023,0 -21.14333,-9.27737 -21.14333,-20.68044c0,-11.40307 9.4831,-20.68385 21.14333,-20.68385s21.15031,9.28078 21.15031,20.68385c0,11.40307 -9.49357,20.68044 -21.15031,20.68044zm0,-34.5436c-7.82931,0 -14.17231,6.20652 -14.17231,13.85975c0,7.65664 6.34649,13.85975 14.17231,13.85975c7.82931,0 14.17231,-6.20311 14.17231,-13.85975c0.00349,-7.65323 -6.33951,-13.85975 -14.17231,-13.85975z" />
 </g>
</svg>