<svg xmlns="http://www.w3.org/2000/svg" width='100%' height='100%' viewBox='-5 -5 85 85' preserveAspectRatio='none'>
 <g>
  <path  d="m17.01031,30.42837l4.91374,-5.41662c5.75495,3.31509 9.39913,5.8384 15.8618,11.33272c12.15554,-16.43485 20.18577,-24.77437 35.11324,-35.8444l1.5986,4.38805c-12.30764,12.80157 -21.32496,27.06089 -34.30308,54.80996c-8.0054,-11.24022 -13.35061,-18.40318 -23.1843,-29.26972zm38.86296,12.27249l0,24.39698l-49.66513,0l0,-59.19802l46.99873,0c2.62604,-2.52702 5.38246,-4.96153 8.35305,-7.39975l-61.55992,0l0,73.99752l62.08141,0l0,-42.58187c-2.03627,3.28549 -4.09116,6.85957 -6.20814,10.78514z" />
 </g>
</svg>