<svg xmlns="http://www.w3.org/2000/svg" width='100%' height='100%' viewBox='-5 -5 85 85' preserveAspectRatio='none' >
 <g>
  <path  d="m35.97124,7.61863l-3.09618,-2.9839l4.2538,-0.5893l1.87118,-3.87876l1.87118,3.87876l4.2538,0.5893l-3.09618,2.9839l0.75337,4.24044l-3.78218,-2.0298l-3.78218,2.0298l0.75337,-4.24044l0.00001,0zm-0.03369,67.3794l6.12497,0l0,-9.35392l-6.12497,0l0,9.35392zm-7.04679,-30.61849c-3.16968,0 -6.25667,-0.79197 -8.16153,-2.09528c6.02085,-2.94648 10.66665,-7.55173 12.35101,-12.59661c-1.57106,0 -4.67642,-0.66101 -5.92285,-1.69306c5.40835,-3.04626 9.73259,-8.69603 11.84264,-13.70661c2.11006,5.01058 6.43429,10.66035 11.83958,13.70661c-1.24337,1.03205 -4.35179,1.69306 -5.92285,1.69306c1.68437,5.048 6.33017,9.65013 12.35101,12.59973c-1.90487,1.30019 -4.99186,2.09528 -8.15847,2.09528c1.10556,4.48676 7.08047,10.93785 14.38757,13.51329c-6.63948,3.08991 -15.56663,4.63019 -24.48766,4.63019c-8.94246,0 -17.88187,-1.54963 -24.50909,-4.63019c7.31016,-2.57856 13.27895,-9.02653 14.39063,-13.51641l0.00001,0zm17.32449,6.28272l-1.16068,2.43202l-2.62455,0.37104l1.91099,1.8739l-0.4655,2.66275l2.34281,-1.27525l2.34281,1.27525l-0.4655,-2.66275l1.91406,-1.8739l-2.63068,-0.37104l-1.16375,-2.43202l-0.00001,0zm-4.0823,-12.80551c0,1.08817 0.86362,1.97056 1.93243,1.97056s1.93243,-0.88239 1.93243,-1.97056c0,-1.08817 -0.86362,-1.96744 -1.93243,-1.96744s-1.93243,0.87927 -1.93243,1.96744zm-0.686,9.08266c0,-1.32514 -1.05962,-2.40084 -2.35812,-2.40084c-1.30462,0 -2.35812,1.07258 -2.35812,2.40084c0,1.32514 1.0535,2.40084 2.35812,2.40084c1.2985,0 2.35812,-1.0757 2.35812,-2.40084zm-4.34873,-23.71218c0,1.08817 0.86362,1.97056 1.93243,1.97056c1.06575,0 1.93243,-0.88239 1.93243,-1.97056c0,-1.08505 -0.86668,-1.96744 -1.93243,-1.96744c-1.06881,0 -1.93243,0.88239 -1.93243,1.96744zm0,8.26886c0,1.08505 0.86362,1.96744 1.93243,1.96744c1.06575,0 1.93243,-0.88239 1.93243,-1.96744c0,-1.08817 -0.86668,-1.97056 -1.93243,-1.97056c-1.06881,0.00312 -1.93243,0.8855 -1.93243,1.97056zm-5.46654,6.39184l1.3965,1.36567l-0.33993,1.93626l1.70581,-0.92916l1.70274,0.92916l-0.33993,-1.93626l1.39343,-1.36567l-1.91406,-0.26815l-0.83912,-1.76789l-0.84218,1.76789l-1.92324,0.26815zm-3.06249,16.71857c0,1.70553 1.35668,3.08991 3.03186,3.08991c1.67824,0 3.03493,-1.38438 3.03493,-3.08991c0,-1.70553 -1.35668,-3.08991 -3.03493,-3.08991c-1.67518,0 -3.03186,1.38438 -3.03186,3.08991z"/>
 </g>
</svg>