<svg xmlns="http://www.w3.org/2000/svg" width='100%' height='100%' viewBox='-5 -5 85 85' preserveAspectRatio='none'>
 <g>
  <path id="svg_2" d="m73.18524,41.868l-33.94619,-23.13125l0,-9.56337l4.71737,0c0.86957,0 1.57246,-0.66005 1.57246,-1.47333s-0.70289,-1.47333 -1.57246,-1.47333l-4.71737,0l0,-4.41998c0,-0.81328 -0.70446,-1.47333 -1.57246,-1.47333s-1.57246,0.66005 -1.57246,1.47333l0,4.41998l-4.71737,0c-0.868,0 -1.57246,0.66005 -1.57246,1.47333s0.70446,1.47333 1.57246,1.47333l4.71737,0l0,9.56337l-33.94619,23.13125c-0.55036,0.3757 -0.78151,1.04017 -0.5708,1.64718c0.21071,0.60701 0.81453,1.01807 1.49541,1.01807l7.86228,0l0,27.99323c0,0.81475 0.70446,1.47333 1.57246,1.47333l18.86947,0c0.868,0 1.57246,-0.65858 1.57246,-1.47333l0,-17.67993c0,-2.43688 2.11653,-4.41998 4.71737,-4.41998s4.71737,1.9831 4.71737,4.41998l0,17.67993c0,0.81475 0.70289,1.47333 1.57246,1.47333l18.86947,0c0.86957,0 1.57246,-0.65858 1.57246,-1.47333l0,-27.99323l7.86228,0c0.68245,0 1.2847,-0.41106 1.49541,-1.0166c0.21071,-0.60848 -0.02044,-1.27296 -0.5708,-1.64865z"/>
 </g>
</svg>