<svg xmlns="http://www.w3.org/2000/svg" width='100%' height='100%' viewBox='-5 -5 85 85' preserveAspectRatio='none'>
 <g>
  <path  d="m62.53607,34.52505c0.05397,-0.57238 0.08522,-1.15064 0.08522,-1.73476c0,-10.13267 -7.94789,-18.34565 -17.7535,-18.34565c-7.60986,0 -14.0835,4.95773 -16.60876,11.9144c-1.67309,-1.89621 -4.05916,-3.10849 -6.73781,-3.10849c-5.05052,0 -9.14377,4.22977 -9.14377,9.44874c0,0.61641 0.06533,1.21815 0.17611,1.79934c-6.73781,1.1477 -11.89343,7.1504 -11.89343,14.43583c0,8.10731 6.36002,14.67652 14.2028,14.67652l45.0939,0c7.84563,0 14.2028,-6.56921 14.2028,-14.67652c0.00284,-7.19443 -5.01359,-13.1531 -11.62357,-14.40941z"  />
 </g>
</svg>