<svg xmlns="http://www.w3.org/2000/svg" width='100%' height='100%' viewBox='-5 -5 85 85' preserveAspectRatio='none'>
 <g>
     <path  id="svg_2" d="m23.13435,50.94775l29.03278,0c4.18488,-0.00745 7.03985,-3.39402 7.02591,-6.87804l0,-2.34265c8.28552,-0.00626 14.2968,-5.99146 14.29371,-12.97052c0.0031,-7.10333 -5.89018,-12.93924 -12.74977,-12.93417l-44.75056,0l0,28.24794c0.0065,3.83597 3.44033,6.87059 7.14794,6.87744l-0.00001,0.00001zm36.05776,-29.81188l0,0l1.54393,0c5.67648,-0.00864 7.4973,5.15674 7.47004,7.65942c0.00557,4.041 -3.1049,7.9166 -9.01398,7.54051l0,-15.19993l0.00001,0zm-59.20377,31.53199c0.00527,5.22141 4.14214,7.64273 7.4719,7.65763l60.05704,0c3.9718,-0.0149 7.45301,-3.01972 7.47066,-7.65763l-74.9996,0z"/>
 </g>
</svg>