<svg xmlns="http://www.w3.org/2000/svg" width='100%' height='100%' viewBox='-5 -5 85 85' preserveAspectRatio='none'>
 <g>
   <path d="m22.81427,20.3901l0,8.01896c0.01118,1.46666 1.25379,3.14068 1.25379,3.14068s-1.24601,0.551 -1.24601,2.7655c0.43678,5.55675 2.71859,3.16187 3.18941,5.59662c0.78265,4.04771 4.48259,6.97552 6.78579,7.98663c1.32737,0.58239 2.69315,0.88018 4.12846,0.91032l0,-0.00314c1.43158,-0.03092 2.7938,-0.32871 4.11776,-0.90969c2.3032,-1.0111 6.00331,-3.93892 6.78579,-7.98663c0.47066,-2.4349 2.75231,-0.03987 3.18958,-5.59662c0,-2.2145 -1.24617,-2.7655 -1.24617,-2.7655s1.24277,-1.67403 1.25379,-3.14068l0,-8.01896c3.68389,-0.84675 6.43604,-4.05351 6.43604,-7.87737c0,-4.46872 -3.75326,-8.1042 -8.36696,-8.1042c-1.10225,0 -2.17663,0.21192 -3.18196,0.62242c-2.00029,-2.68858 -5.33784,-4.34722 -8.99856,-4.36166l0,0.00267c-3.65667,0.01758 -6.98951,1.67559 -8.98802,4.36151c-1.00517,-0.4105 -2.07971,-0.62242 -3.1818,-0.62242c-4.6137,0 -8.36696,3.63548 -8.36696,8.1042c0,3.82385 2.75214,7.03078 6.43604,7.87737z"/>
   <path d="m55.61892,53.8188c-2.60936,-0.91142 -5.2534,-2.16082 -6.84689,-3.09249c-0.33581,-0.2069 -0.73257,-0.32824 -1.15946,-0.32824c-0.57795,0 -1.10225,0.22056 -1.49025,0.57815c-0.00194,0.00063 -0.00373,0.00173 -0.00567,0.00235c-2.5045,2.37164 -7.13457,3.08542 -8.71072,3.08542c-0.13452,0 -0.40907,0.00204 -0.55331,0.00298c-0.14408,-0.00094 -0.41863,-0.00298 -0.55331,-0.00298c-1.57599,0 -6.20606,-0.71378 -8.71056,-3.08542c-0.00178,-0.00063 -0.00389,-0.00173 -0.00567,-0.00235c-0.38816,-0.35728 -0.91198,-0.57815 -1.49025,-0.57815c-0.4269,0 -0.82381,0.12103 -1.15946,0.32824c-1.59365,0.93198 -4.23769,2.18138 -6.84721,3.09249c-8.29079,2.89532 -12.01958,5.84794 -12.01958,7.86261c0,2.01012 0,13.19017 0,13.19017l29.98201,0l0.04181,0l0.76206,0l0.76222,0l0.04181,0l29.98201,0c0,0 0,-11.18052 0,-13.19017c0,-2.01467 -3.72863,-4.96713 -12.01958,-7.86261zm-18.74313,18.12575c-0.00113,0 -0.00243,0 -0.00357,0s-0.00243,0 -0.00357,0c-1.03937,0 -1.88182,-0.81551 -1.88182,-1.82268c0,-1.00624 0.84261,-1.82268 1.88182,-1.82268c0.00113,0 0.00243,0.00031 0.00357,0.00031s0.00243,-0.00031 0.00357,-0.00031c1.03937,0 1.88198,0.81645 1.88198,1.82268c0,1.00702 -0.84261,1.82268 -1.88198,1.82268zm0,-6.23992c-0.00113,0 -0.00243,0 -0.00357,0s-0.00243,0 -0.00357,0c-1.03937,0 -1.88182,-0.81551 -1.88182,-1.82268c0,-1.00624 0.84261,-1.82268 1.88182,-1.82268c0.00113,0 0.00243,0.00031 0.00357,0.00031s0.00243,-0.00031 0.00357,-0.00031c1.03937,0 1.88198,0.81645 1.88198,1.82268c0,1.00702 -0.84261,1.82268 -1.88198,1.82268zm0,-6.08325c-0.00113,0 -0.00243,-0.00031 -0.00357,-0.00031s-0.00243,0.00031 -0.00357,0.00031c-1.03937,0 -1.88182,-0.81582 -1.88182,-1.823c0,-1.00624 0.84261,-1.82268 1.88182,-1.82268c0.00113,0 0.00243,0.00016 0.00357,0.00016s0.00243,-0.00016 0.00357,-0.00016c1.03937,0 1.88198,0.81645 1.88198,1.82268c0,1.00702 -0.84261,1.823 -1.88198,1.823z"/>
   </g>
</svg>