<svg xmlns="http://www.w3.org/2000/svg" width='100%' height='100%' viewBox='-5 -5 85 85 ' preserveAspectRatio='none'>
 <g>
  <path id="svg_1" d="m26.08575,0.49746c3.07585,0 20.58755,-0.01729 22.17182,0c-2.5372,4.34555 -4.531,9.05643 -5.90773,13.85075c-0.7351,2.60763 -1.29197,5.26638 -1.54862,7.9582c1.15572,0.00301 2.30986,-0.00301 3.464,0.00075c0.01267,1.11702 -0.0198,2.23479 0.01584,3.35106c7.26862,-0.65999 14.31702,-2.84442 20.8442,-5.90232c0.71926,-0.32248 1.39099,-0.74192 2.1245,-1.03133c-0.01267,1.87398 -0.09743,18.79014 -0.08476,21.03846c-4.08741,-2.1724 -8.43305,-3.89829 -12.91574,-5.1882c-3.25488,-0.92008 -6.5953,-1.61389 -9.98405,-1.89578c-0.00475,1.16137 0.01267,2.32199 -0.00951,3.48336c-1.17157,0.01278 -2.35026,-0.04886 -3.51787,0.02856c0.45468,4.85445 1.44485,9.64877 2.66553,14.37844c1.29355,5.02734 2.87941,9.98327 4.63081,14.88207c-2.00489,0.50589 -3.90522,1.39966 -5.52355,2.6362c-2.53404,1.93336 -4.42327,4.57933 -5.54494,7.46584c-0.0206,0.02856 -0.06495,0.08569 -0.08713,0.11426c-0.55291,-1.62366 -1.42822,-3.13983 -2.46512,-4.52671c-1.3086,-1.73191 -2.96971,-3.23455 -4.91281,-4.31173c-1.14067,-0.6412 -2.38195,-1.09672 -3.64778,-1.45829c1.58189,-4.26512 2.99902,-8.58512 4.22682,-12.95397c1.28167,-4.60188 2.38353,-9.26089 3.01407,-13.98756c0.08872,-0.75395 0.20358,-1.50715 0.24002,-2.26636c-1.22068,-0.01128 -2.44136,0 -3.66124,-0.00451c-0.00951,-1.17265 0.01426,-2.34604 -0.01109,-3.51794c-6.48361,0.59083 -12.78504,2.44151 -18.69673,4.99427c-1.37514,0.59083 -2.71464,1.25233 -4.04384,1.93035c-0.03565,-1.26435 0.05624,-19.95076 0.06099,-21.04147c0.34379,0.12929 0.64955,0.32774 0.97591,0.48785c3.27468,1.67252 6.71254,3.05188 10.23753,4.17417c3.72144,1.16212 7.55933,2.03033 11.46376,2.39039c0.02297,-1.08695 0.00871,-2.17466 0.00554,-3.26086c1.24365,-0.02631 2.48888,0.00601 3.73333,-0.01579c-0.4127,-4.36359 -1.5209,-8.64901 -3.06556,-12.77206c-1.0472,-2.77676 -2.28214,-5.49414 -3.73887,-8.10103c-0.16793,-0.31045 -0.36993,-0.60436 -0.50776,-0.9291z" />
 </g>
</svg>