<svg xmlns="http://www.w3.org/2000/svg" width='100%' height='100%' viewBox='-5 -5 85 85 ' preserveAspectRatio='none'>
 <g>
 <path  id="svg_1" d="m63.43306,42.18152l-3.41167,-11.32733l-14.02575,0c1.13722,-3.14648 1.89537,-6.92226 1.89537,-11.01268c-0.12636,-10.85536 -4.80161,-19.50818 -10.48772,-19.50818c-5.68611,0 -10.36136,8.65282 -10.36136,19.50818c0,4.09042 0.63179,7.8662 1.89537,11.01268l-14.27846,0l-3.15895,11.32733l21.60723,-2.83183l-3.53803,35.08325l15.79476,0l-3.28531,-34.92593l21.35452,2.67451zm-26.02977,-10.22606c-2.52716,0 -6.69698,-7.70888 -6.69698,-13.68719c0,-5.97831 3.03259,-10.85536 6.69698,-10.85536s6.69698,4.87704 6.69698,10.85536c0,5.82099 -3.9171,13.52986 -6.69698,13.68719z" />
 </g>
</svg>