<svg xmlns="http://www.w3.org/2000/svg" width='100%' height='100%' viewBox='-5 -5 85 85' preserveAspectRatio='none'>
 <g>
    <path id="svg_1" d="m68.7913,19.22611c-5.12288,-2.28633 -11.10298,0.06988 -13.35658,5.26374c-0.09099,0.20879 -0.16158,0.42103 -0.23812,0.63241l-17.97857,2.56069l-14.855,-14.64632c-1.51033,-1.4969 -5.38736,-3.4062 -7.51169,-4.03688c-2.12348,-0.62896 -8.0466,-1.61165 -6.53627,-0.11475l20.20069,20.03774l-28.0415,3.99461c-2.08946,0.29938 3.25538,3.06972 5.33379,3.83931c2.07841,0.76959 6.31516,1.56592 8.40633,1.26913l20.58508,-2.86956l12.06225,11.96484c-0.63441,1.10261 -1.08087,2.33982 -1.27392,3.6797c-0.81895,5.61316 3.01556,10.84152 8.54834,11.66115c5.53278,0.83084 10.67523,-3.04988 11.49417,-8.66217c0.81895,-5.62265 -3.00621,-10.84065 -8.54834,-11.6715c-1.6566,-0.24848 -3.27579,-0.0673 -4.75721,0.45036l-8.7669,-8.64405l11.68807,-1.6289c0.9329,2.47355 2.79956,4.58301 5.37716,5.73481c5.12118,2.28633 11.09873,-0.07075 13.35488,-5.26374c2.25359,-5.19558 -0.06718,-11.25996 -5.18666,-13.5506zm-19.19891,32.17254c0.48899,-3.37428 3.58534,-5.70375 6.9011,-5.20766c3.32511,0.49609 5.62208,3.63742 5.13309,7.00048c-0.48984,3.37428 -3.58534,5.70375 -6.9011,5.20852c-3.32511,-0.49695 -5.62208,-3.62707 -5.13309,-7.00135zm-10.76112,-18.74791c-0.39034,0.90159 -1.42614,1.31054 -2.31652,0.91281c-0.88613,-0.39601 -1.28923,-1.44686 -0.89719,-2.34845c0.39034,-0.899 1.42614,-1.30795 2.31482,-0.91281c0.88613,0.3986 1.28923,1.45204 0.89889,2.34845zm31.43804,-1.53227c-1.35471,3.11545 -4.94175,4.52952 -8.01259,3.15945c-3.07339,-1.37439 -4.46637,-5.01353 -3.11421,-8.13071c1.35216,-3.11804 4.9409,-4.53125 8.01259,-3.15772c3.07339,1.37266 4.46637,5.01353 3.11421,8.12898z"/>
 </g>
</svg>