<svg xmlns="http://www.w3.org/2000/svg" width='100%' height='100%' viewBox='-5 -5 85 85' preserveAspectRatio='none'>
 <g>
  <path  d="m59.4121,37.16667l10.78791,-17.36l-21.49219,0l-11.70781,-18.80667l-11.70781,18.80667l-21.49219,0l10.78791,17.36l-10.78791,17.36l21.49219,0l11.70781,18.80667l11.70781,-18.80667l21.49219,0l-10.78791,-17.36zm1.67254,-12.37704l-4.5995,7.55482l-4.68312,-7.55482l9.28262,0zm-7.61008,12.37704l-7.6937,12.37704l-17.56171,0l-7.6937,-12.37704l7.6937,-12.37704l17.56171,0l7.6937,12.37704zm-16.47456,-26.52222l5.68665,9.16222l-11.3733,0l5.68665,-9.16222zm-24.08464,14.14519l9.36625,0l-4.68312,7.55482l-4.68312,-7.55482zm0,24.75408l4.68312,-7.55482l4.68312,7.55482l-9.36625,0zm24.08464,14.14519l-5.68665,-9.16222l11.3733,0l-5.68665,9.16222zm19.48514,-21.7l4.68312,7.55482l-9.36625,0l4.68312,-7.55482z"/>
 </g>
</svg>