<svg xmlns="http://www.w3.org/2000/svg" width='100%' height='100%' viewBox='-5 -5 85 85' preserveAspectRatio='none'  fill-rule="evenodd" clip-rule="evenodd">
 <g>
  <path d="m66.39893,47.49192c4.10438,0 6.88312,3.00349 6.19481,6.72319c-0.68831,3.71971 -4.56325,6.7463 -8.66763,6.7463c-4.10438,0 -6.88312,-3.02659 -6.19481,-6.7463c0.68831,-3.71971 4.56325,-6.72319 8.66763,-6.72319zm-0.48437,2.58762c2.52381,0 4.23184,1.8483 3.79846,4.13557c-0.40789,2.28727 -2.80423,4.13557 -5.30255,4.13557c-2.52381,0 -4.23184,-1.8483 -3.79846,-4.13557c0.40789,-2.28727 2.80423,-4.13557 5.30255,-4.13557zm-22.96923,-9.72668l7.92833,2.79555c0.48437,0.18483 0.94324,0.76242 0.7393,1.2476l-2.82973,7.00044c-1.04521,2.56452 3.03367,2.37969 3.97691,0.39276c1.17268,-2.51831 3.59452,-7.9939 3.72198,-9.12598c0.30592,-2.65693 -4.89466,-4.02005 -7.342,-4.9442l1.75902,-5.22145c0.07648,-0.23104 0.53535,-0.41587 0.71381,-0.27725l1.93747,1.66347c0.71381,0.6238 1.4786,1.13208 3.13564,0.85484c0.76479,-0.13862 3.90043,-1.10898 5.83791,-1.8714c3.16114,-1.2245 1.98846,-3.51177 -0.71381,-2.81866c-1.52958,0.36966 -3.56903,1.2476 -5.25157,1.54795c-1.04521,-0.92415 -2.5493,-2.51831 -3.84945,-4.15868c-1.60606,-2.03313 -6.37326,-3.25763 -7.44397,-0.04621l-3.41607,10.16565c-0.7393,2.19486 -0.61183,2.19486 1.0962,2.79555zm18.45696,-5.61421l1.27465,8.20183c-4.86917,3.55798 -6.5772,5.22145 -9.5344,11.0667l-8.76961,0l-2.01395,-6.90802c5.60847,-2.33348 5.481,-3.99695 -0.02549,-4.66696l-15.21934,0.04621l-24.29487,0c-0.89226,0 -1.75902,0.64691 -1.91198,1.45554l0,0c-0.15296,0.80863 0.43338,1.45554 1.32564,1.45554l22.61233,0c-0.7393,1.34002 -1.22367,2.86487 -1.35113,4.80558c1.07071,-0.48518 6.2203,-6.1225 12.41511,-3.0497c3.13564,1.57106 4.28283,5.86835 6.32227,8.75632l12.92497,0c2.24339,-5.38318 5.17509,-11.41326 13.1799,-9.68048c2.29437,0.50828 2.80423,2.03313 5.02213,0.32345c-1.50409,-4.02005 -5.91438,-4.13557 -6.90861,-4.69006c-0.89226,-0.50828 -0.63733,-1.38623 -1.07071,-2.42589c1.27465,-0.27725 3.21212,-0.20793 3.36508,-2.31038c-0.10197,-1.80209 -2.52381,-1.91761 -4.18086,-2.05623l-0.61183,-1.17829l-2.5493,0.85484l0,0zm-35.86871,-6.81561l8.20876,0l5.35354,0c0.96874,0 1.65705,0.71622 1.4786,1.59416l-1.93747,9.61116c-0.15296,0.87794 -1.07071,1.59416 -2.03944,1.59416l-13.5623,0c-0.96874,0 -1.65705,-0.71622 -1.4786,-1.59416l0,-0.06931l-13.10342,0c-0.89226,0 -1.4786,-0.64691 -1.32564,-1.45554l0,0c0.17845,-0.80863 1.01972,-1.45554 1.91198,-1.45554l13.15441,0l0.48437,-2.37969l9.86581,0c0.89226,0 1.75902,-0.64691 1.91198,-1.45554l0,0c0.17845,-0.80863 -0.43338,-1.47864 -1.30014,-1.47864l-9.91679,0l-17.99809,0c-0.89226,0 -1.4786,-0.64691 -1.32564,-1.45554l0,0c0.15296,-0.80863 1.01972,-1.45554 1.91198,-1.45554l19.70612,0zm27.91488,-11.50567c1.35113,0 2.42184,0.57759 3.00818,1.47864l0,0l1.73353,1.8252c0.10197,0.09242 -0.10197,0.46208 -0.28042,0.43897l-1.01972,-0.09242l-0.02549,0.06931c-0.3824,2.03313 -2.52381,3.6966 -4.7672,3.6966c-2.26888,0 -3.79846,-1.66347 -3.41607,-3.6966c0.3824,-2.05623 2.52381,-3.71971 4.7672,-3.71971zm-21.54162,31.07456c4.10438,0 6.88312,3.00349 6.19481,6.72319c-0.68831,3.71971 -4.56325,6.7463 -8.66763,6.7463c-4.10438,0 -6.88312,-3.02659 -6.19481,-6.7463c0.68831,-3.71971 4.56325,-6.72319 8.66763,-6.72319zm-0.48437,2.58762c2.52381,0 4.23184,1.8483 3.79846,4.13557c-0.40789,2.28727 -2.80423,4.13557 -5.30255,4.13557c-2.52381,0 -4.23184,-1.8483 -3.79846,-4.13557c0.40789,-2.28727 2.80423,-4.13557 5.30255,-4.13557z"/>
 </g>
</svg>