<svg xmlns="http://www.w3.org/2000/svg" width='100%' height='100%' viewBox='-5 -5 85 85' preserveAspectRatio='none'  fill-rule="evenodd" clip-rule="evenodd">
 <g>
  <path d="m23.46847,17.33324l22.42679,0l8.20876,0c1.25684,0 2.12092,1.20501 1.92454,2.68809l-0.6677,4.68099l6.79481,0c1.09974,0 2.23875,0.46346 2.86717,1.39039l5.97,8.4814c0.70697,1.01962 0.94263,2.5954 0.74625,4.03214l-1.37467,9.59372l1.64961,0c0.74625,0 1.21757,0.74154 1.09974,1.57578l-0.51059,3.56868c-0.11783,0.83424 -0.8248,1.57578 -1.57105,1.57578l-8.83718,0c0.62842,-4.35657 -1.84599,-7.92524 -5.53796,-7.92524c-3.73125,0 -7.22685,3.56868 -7.85527,7.92524l-13.86455,0c0.62842,-4.35657 -1.88526,-7.92524 -5.57724,-7.92524c-3.69198,0 -7.18757,3.56868 -7.81599,7.92524l-6.71625,0c-0.70697,0 -1.21757,-0.74154 -1.09974,-1.57578l0.39276,-2.5954l2.51369,0c0.98191,0 1.92454,-0.97328 2.08165,-2.08559l0,0c0.15711,-1.15866 -0.47132,-2.08559 -1.45322,-2.08559l-0.31421,0l-14.13948,0c-0.98191,0 -1.64961,-0.97328 -1.45322,-2.08559l0,0c0.15711,-1.15866 1.09974,-2.08559 2.04237,-2.08559l14.17876,0l0.58915,-4.21753l24.74409,0c0.94263,0 1.88526,-0.92693 2.04237,-2.08559l0,0c0.19638,-1.11232 -0.47132,-2.08559 -1.45322,-2.08559l-24.70482,0l-10.60461,0c-0.98191,0 -1.61033,-0.92693 -1.45322,-2.08559l0,0c0.15711,-1.11232 1.09974,-2.08559 2.04237,-2.08559l10.60461,0l0.58915,-4.17118l24.74409,0c0.94263,0 1.88526,-0.92693 2.04237,-2.08559l0,0c0.19638,-1.15866 -0.47132,-2.08559 -1.45322,-2.08559l-24.70482,0l-7.14829,0c-0.98191,0 -1.64961,-0.92693 -1.4925,-2.08559l0,0c0.19638,-1.15866 1.09974,-2.08559 2.08165,-2.08559l9.42632,0zm30.20351,19.14109l1.3354,-9.7791l6.67698,0c0.74625,0 1.53178,0.32443 2.00309,0.97328l4.59533,6.5812l-1.61033,2.22463l-13.00047,0zm2.59224,13.20874c2.43513,0 4.08474,2.31732 3.69198,5.23715c-0.43204,2.87348 -2.74934,5.23715 -5.22375,5.23715c-2.43513,0 -4.08474,-2.36367 -3.69198,-5.23715c0.43204,-2.91983 2.74934,-5.23715 5.22375,-5.23715zm-27.29706,0c2.47441,0 4.12402,2.31732 3.69198,5.23715c-0.39276,2.87348 -2.74934,5.23715 -5.18448,5.23715c-2.47441,0 -4.12402,-2.36367 -3.69198,-5.23715c0.39276,-2.91983 2.74934,-5.23715 5.18448,-5.23715z"/>
 </g>
</svg>