<svg xmlns="http://www.w3.org/2000/svg" width='100%' height='100%' viewBox='-5 -5 85 85' preserveAspectRatio='none'>
 <g>
   <path  id="svg_2" d="m1.86667,49.90239c0,13.17937 11.53664,23.93095 25.67833,23.93095c10.14108,0 18.8866,-5.54921 22.98024,-13.43949l-2.69809,-4.68214l-5.02402,0c-2.41897,5.63591 -8.37337,9.62441 -15.35117,9.62441c-9.11767,0 -16.56066,-6.93651 -16.56066,-15.43373c0,-6.06944 3.7215,-11.27183 9.11767,-13.78631l0,-9.10417c-10.51323,2.94802 -18.1423,12.05218 -18.1423,22.89048"/>
   <path  id="svg_3" d="m65.69034,68.80438c-3.25631,0 -4.27972,-0.26012 -4.74491,-0.43353c-0.7443,-0.26012 -1.30252,-0.78036 -1.67467,-1.3873l-8.93159,-16.30079l-21.58468,0c-1.76771,0 -3.16327,-1.3006 -3.16327,-2.94802l0,-31.21429c0,0 0,0 0,-0.08671c-1.86075,-1.73413 -2.9772,-3.98849 -2.9772,-6.41627c0,-4.94226 4.27972,-9.01746 9.67589,-9.01746s9.67589,4.0752 9.67589,9.01746c0,3.98849 -2.88416,7.54345 -6.97781,8.67064l0,8.75734l15.25814,0c1.76771,0 3.16327,1.3006 3.16327,2.94802l0,2.08095c0,1.64742 -1.39556,2.94802 -3.16327,2.94802l-15.35117,0l0,7.28333l18.70052,0c0.93037,0 1.86075,0.43353 2.41897,1.12718l0,0c0.83734,0.86706 2.79112,3.98849 9.76893,16.73433l4.18668,0c1.76771,0 3.16327,1.3006 3.16327,2.94802l0,2.16766c0,1.64742 -1.39556,2.94802 -3.16327,2.94802c-1.76771,0.17341 -3.16327,0.17341 -4.27972,0.17341z"/>
    </g>
</svg>