<svg xmlns="http://www.w3.org/2000/svg" width='100%' height='100%' viewBox='-5 -5 85 85' preserveAspectRatio='none'>
 <g>
  <path d="m28.92714,73.37345c-10.56238,-3.86644 -18.13315,-16.15199 -16.41262,-26.6338c1.08491,-6.60957 23.97389,-46.73428 25.97282,-45.53075c0.65242,0.39281 6.45819,9.74756 12.9017,20.78834c10.32183,17.68616 11.71547,20.98409 11.71547,27.72358c0,13.66068 -11.22259,24.85032 -24.69763,24.62514c-3.9322,-0.06572 -8.1981,-0.50335 -9.47975,-0.9725l0,0l0,-0.00001zm10.58232,-6.87081c0.34962,-1.76858 -0.46708,-2.63109 -2.49132,-2.63109c-4.61345,0 -11.01306,-5.69222 -12.44283,-11.06744c-1.52518,-5.7339 -5.56909,-6.41583 -6.16641,-1.03985c-1.15079,10.35761 19.1618,24.54561 21.10055,14.73839l0,0l0,-0.00001z" />
 </g>
</svg>