<svg xmlns="http://www.w3.org/2000/svg" width='100%' height='100%' viewBox='-5 -5 85 85' preserveAspectRatio='none'>
 <g>
  <path  d="m53.99906,25.82435c-0.31505,-1.15027 -0.74079,-1.14471 0.62726,-4.276l4.71152,-9.7773c0.0596,-0.1417 0.56765,-1.14471 0.54495,-2.62839c0.04257,-1.46979 -0.88838,-3.5814 -3.17602,-4.56218c-3.32645,-1.54203 -3.32077,-1.54759 -6.65289,-3.07572c-2.2252,-1.10026 -4.4873,-0.47511 -5.61693,0.49734c-1.19207,0.92522 -1.65755,1.9449 -1.7285,2.08382l-4.72003,9.76896c-1.60078,3.01182 -1.85906,2.69508 -2.9745,3.18686c-1.33115,0.35842 -3.5308,1.55036 -5.0663,5.04285c-3.1448,6.5182 -3.1448,6.5182 -3.1448,6.5182l-0.78336,1.62816l3.32077,1.53647l-10.21491,21.17997c-1.07854,2.30054 -0.47115,3.98983 -0.47115,5.64577c0.02838,1.74208 -0.21855,4.19265 -2.48632,8.91876l-0.78336,1.62816l9.98218,4.61497l0.78336,-1.62538c2.29332,-4.72055 4.06156,-6.46263 5.45514,-7.54899c1.3056,-1.05858 3.02559,-1.66706 4.15806,-3.94537l10.21491,-21.16608l3.32645,1.53925l0.79188,-1.6365c0,0 0,0 3.13628,-6.51542c1.77959,-3.38413 1.32831,-5.78747 0.76633,-7.03221zm-21.56514,33.27726c-0.44277,0.98079 -1.1722,1.21973 -3.09655,2.6534c-1.63768,1.24474 -3.58757,3.25632 -5.70207,7.22392l-3.38037,-1.56148c1.78243,-4.11208 2.1287,-6.87384 2.07193,-8.89931c-0.08799,-2.36444 -0.3633,-3.06739 0.12772,-4.02595l10.21491,-21.17441l9.98218,4.61775l-10.21775,21.16608z"  />
 </g>
</svg>