<svg xmlns="http://www.w3.org/2000/svg" width='100%' height='100%' viewBox='-5 -5 85 85' preserveAspectRatio='none'  fill-rule="evenodd" clip-rule="evenodd">
 <g>
   <path id="svg_1" stroke-linejoin="inherit" stroke-linecap="inherit" d="m30.10561,54.44458c8.82306,3.64445 23.71465,1.37778 23.71465,-9.60001c0,-6.35556 -4.99256,-7.06668 -6.97237,-7.15557c-9.08129,-0.4 -9.46865,-4.53334 -14.93464,-4.53334c-6.45589,0 -9.55472,5.2889 -9.55472,10.44446c0,4.22223 2.195,8.4889 7.74707,10.84446zm13.2561,-19.8667c1.24814,0 2.15196,-0.93333 2.15196,-2.17778c0,-1.33334 -0.9899,-2.22223 -2.15196,-2.22223c-1.2051,0 -2.15196,1.02222 -2.15196,2.22223c0,1.11111 0.81775,2.17778 2.15196,2.17778zm7.05844,0c1.24814,0 2.15196,-0.93333 2.15196,-2.17778c0,-1.33334 -0.9899,-2.22223 -2.15196,-2.22223c-1.2051,0 -2.15196,1.02222 -2.15196,2.22223c0,1.11111 0.81775,2.17778 2.15196,2.17778zm-3.65834,-6.26668c1.24814,0 2.15196,-0.93333 2.15196,-2.17778c0,-1.33334 -0.9899,-2.22223 -2.15196,-2.22223c-1.2051,0 -2.15196,1.02222 -2.15196,2.22223c0,1.11111 0.81775,2.17778 2.15196,2.17778zm-19.41072,19.77781c1.07598,0.84445 2.36716,-1.15556 3.22795,-2.75556c0.25824,-0.57778 0.77471,-0.31111 1.33422,-0.13333c4.21785,1.6 9.59776,2.88889 9.76992,1.11111c0.2152,-2.22223 -4.69128,-2.31111 -8.82306,-4.13334c-0.60255,-0.26667 -0.81775,-0.4 -0.60255,-1.02222c0.81775,-2.48889 1.46334,-4.62223 0.30128,-5.11112c-1.85069,-0.75556 -2.4102,2.84445 -3.91658,6.0889c-1.37726,2.97778 -3.01275,4.66667 -1.29118,5.95556zm10.75982,18.5778c-14.07385,0 -25.82358,-12.13335 -25.82358,-26.6667c0,-14.53335 11.74973,-26.6667 25.82358,-26.6667c14.07385,0 25.82358,12.13335 25.82358,26.6667c0,14.53335 -11.74973,26.6667 -25.82358,26.6667zm-32.06428,0c-2.36716,0 -2.10893,0 -2.15196,-2.22223l0,-27.77782c0.04304,-3.2 -3.18491,-2.13334 -3.22795,-13.33335l0,-7.77779c0.04304,-2.22223 0.04304,-2.22223 1.07598,-2.22223c1.03294,0 1.03294,0 1.07598,2.22223l0,10.00001c-0.04304,1.24445 2.15196,1.24445 2.15196,0l0,-10.00001c0,-2.22223 0,-2.22223 1.07598,-2.22223c1.11902,0 1.11902,0 1.07598,2.22223l0,10.00001c0.04304,1.24445 2.10893,1.24445 2.15196,0l0,-10.00001c-0.04304,-2.22223 -0.04304,-2.22223 1.07598,-2.22223c1.07598,0 1.07598,0 1.07598,2.22223l0,7.77779c0,11.20002 -3.22795,10.13335 -3.22795,13.33335l0,27.77782c0,2.22223 -0.25824,2.22223 -2.15196,2.22223zm65.63493,0c-2.15196,0 -2.15196,0 -2.15196,-2.22223l0,-19.11114c0,-3.02223 -3.01275,1.55556 -3.01275,-18.22225c0,-13.11113 7.31668,-16.5778 7.31668,-11.51113l0,48.84451c0,2.22223 0,2.22223 -2.15196,2.22223zm0,0"/>
 </g>
</svg>