<svg xmlns="http://www.w3.org/2000/svg" width='100%' height='100%' viewBox='-5 -5 85 85 ' preserveAspectRatio='none'>
 <g>
     <path id="svg_2" d="m34.95331,24.66181c-0.01595,2.39059 -2.63795,4.96235 -6.03618,4.96235l0,40.51662c-0.00089,5.76981 -9.39896,5.76981 -9.41314,0l0,-40.51662c-3.2981,0 -6.17796,-2.12957 -6.17175,-5.30027l0,-22.32651c-0.0062,-1.93806 3.3557,-2.01274 3.37785,0.07542l0,16.49902l2.7939,0l0,-16.6506c0,-1.77982 3.23607,-1.89517 3.24405,0.07616l0,16.57444l2.88074,0l0,-16.61289c0.02127,-1.87743 3.16607,-1.95211 3.15278,0.07542l0,16.53747l2.88429,0l0,-16.61289c-0.01063,-1.8582 3.27418,-1.93362 3.28835,0.07542l0,22.62746l-0.00089,0z"/>
   <path id="svg_3" d="m59.99477,7.18377l0,62.957c0.01241,5.62414 -9.4034,5.54059 -9.41226,0l0,-24.99513l-5.00032,0l0,-37.96187c-0.00532,-8.83847 14.42498,-8.83847 14.41257,0l0,0z"/>
 </g>
</svg>