<svg xmlns="http://www.w3.org/2000/svg" width='100%' height='100%' viewBox='-5 -5 85 85' preserveAspectRatio='none'>
 <g>
  <path d="m42.96123,50.07319l-2.11492,-7.34927c0.6198,-0.53979 1.20154,-1.11737 1.75066,-1.73543l7.39679,2.09979c0.78018,-1.12817 1.45163,-2.32651 2.0524,-3.57073l-5.50478,-5.28997c0.26369,-0.7773 0.49203,-1.5681 0.65514,-2.38318l7.41854,-1.84609c0.05437,-0.68014 0.10602,-1.36298 0.10602,-2.05931s-0.05437,-1.37647 -0.10602,-2.05661l-7.41854,-1.84609c-0.16582,-0.81509 -0.39417,-1.60588 -0.65514,-2.38318l5.5075,-5.28997c-0.60349,-1.24152 -1.27493,-2.44256 -2.05512,-3.57073l-7.39679,2.09709c-0.5464,-0.61536 -1.13086,-1.19294 -1.75066,-1.73543l2.11492,-7.34657c-1.1363,-0.7719 -2.34599,-1.44125 -3.59917,-2.03772l-5.32808,5.4681c-0.78018,-0.2618 -1.5794,-0.48581 -2.40036,-0.65045l-1.85667,-7.36817c-0.68776,-0.05128 -1.3728,-0.10526 -2.07415,-0.10526s-1.38639,0.05398 -2.07143,0.10526l-1.85939,7.36817c-0.82096,0.16464 -1.61745,0.38865 -2.40036,0.65045l-5.32808,-5.4681c-1.25047,0.60457 -2.45744,1.27121 -3.59374,2.04581l2.11492,7.34657c-0.6198,0.53979 -1.20426,1.12007 -1.74794,1.73273l-7.39951,-2.09979c-0.78018,1.12817 -1.45163,2.3292 -2.0524,3.57343l5.5075,5.28997c-0.26097,0.7773 -0.48931,1.5681 -0.65514,2.38318l-7.42126,1.84609c-0.05165,0.68014 -0.10602,1.36298 -0.10602,2.05661s0.05437,1.37647 0.10602,2.05931l7.42126,1.84609c0.16582,0.81509 0.39417,1.60588 0.65514,2.38318l-5.5075,5.28997c0.60077,1.24152 1.27222,2.44256 2.0524,3.57073l7.39951,-2.09979c0.54368,0.61806 1.12814,1.19294 1.74794,1.73543l-2.11492,7.34927c1.1363,0.7719 2.34599,1.43855 3.59646,2.03772l5.32808,-5.4681c0.7829,0.2618 1.5794,0.48851 2.40036,0.65045l1.85939,7.36547c0.68504,0.05398 1.3728,0.10526 2.07415,0.10526s1.38639,-0.05398 2.07415,-0.10526l1.85667,-7.36547c0.82096,-0.16464 1.62017,-0.39135 2.40036,-0.65045l5.32808,5.4681c1.24775,-0.60457 2.45744,-1.27121 3.59374,-2.04311zm-15.25571,-12.95772c-5.10245,0 -9.23987,-4.10782 -9.23987,-9.17377s4.13742,-9.17107 9.23987,-9.17107s9.23716,4.10512 9.23716,9.17107s-4.1347,9.17377 -9.23716,9.17377zm42.1136,19.17612c0.05165,-1.47633 -0.1631,-2.97965 -0.62523,-4.46408l3.3817,-4.78526c-0.51106,-0.94464 -1.08736,-1.84069 -1.7425,-2.65578l-5.76846,1.20104c-1.16348,-0.98242 -2.48734,-1.74893 -3.90364,-2.29682l-1.66095,-5.61114c-1.04931,-0.18353 -2.1122,-0.28339 -3.18869,-0.28609l-2.64773,5.22519c-0.75844,0.14574 -1.51687,0.34547 -2.26172,0.62886c-0.69863,0.2645 -1.35105,0.59377 -1.97628,0.95273l-5.45313,-2.21045c-0.80737,0.70713 -1.54406,1.47093 -2.21007,2.29952l2.4656,5.31156c-0.70407,1.33599 -1.18794,2.77453 -1.41085,4.27785l-5.14051,2.8609c0.05165,1.0472 0.2066,2.09439 0.44582,3.14429l5.71953,1.40076c0.62795,1.41426 1.47066,2.68007 2.49006,3.75965l-0.95688,5.77038c0.86989,0.62076 1.79415,1.15516 2.75375,1.61938l4.66207,-3.56263c1.45707,0.38055 2.9821,0.5263 4.518,0.40484l3.94713,4.33723c0.54368,-0.15384 1.08465,-0.31848 1.62017,-0.5209c0.47572,-0.17813 0.92426,-0.38865 1.3728,-0.60187l0.10058,-5.84325c1.23688,-0.91495 2.29162,-2.01612 3.13161,-3.25495l5.87448,-0.36166c0.4132,-0.96893 0.75844,-1.97564 1.00037,-3.00934l-4.53703,-3.72997zm-11.31674,5.41682c-3.26481,1.23612 -6.91835,-0.38865 -8.1661,-3.6301s0.38873,-6.87156 3.65354,-8.11038c3.26481,-1.23612 6.92379,0.38865 8.17154,3.6301c1.24503,3.24145 -0.39417,6.87156 -3.65898,8.11038z" />
 </g>
</svg>