<svg xmlns="http://www.w3.org/2000/svg" width='100%' height='100%' viewBox='-5 -5 85 85' preserveAspectRatio='none'>
 <g>
  <path  d="m7.00759,60.62066c-4.03036,-0.588 -6.81008,-5.12654 -5.49653,-9.12003c0.81194,-3.87152 4.96759,-4.9306 7.72307,-6.97381c8.75465,-5.3316 17.55918,-10.57622 26.34097,-15.86043c0.4613,-2.57762 -1.40026,-4.18337 -3.38886,-5.39505c-3.97904,-3.24379 -3.7622,-9.70875 -0.39257,-13.31995c3.94918,-4.76145 12.25887,-3.26465 14.72311,2.36726c2.39045,2.50301 -0.04544,8.63384 -3.39839,5.68278c-0.34974,-3.35253 -3.14089,-7.28365 -6.82407,-5.15438c-3.84284,2.26585 -1.57218,7.54739 1.9772,8.61121c2.39584,1.6469 2.07647,4.7013 2.20359,7.27624c10.5242,6.44931 21.18117,12.67779 31.56115,19.36935c4.13246,3.29363 2.43295,11.22118 -2.77118,12.2955c-3.9454,0.58296 -7.99326,0.17235 -11.9782,0.33177c-16.75894,0.01328 -33.52228,0.13038 -50.27929,-0.11046l0,0l-0.00001,-0.00001zm60.97648,-5.44842c3.01731,-3.08619 -2.62573,-4.74605 -4.48453,-6.2578c-8.56044,-5.1593 -17.09349,-10.37305 -25.75485,-15.35135c-10.14891,5.91599 -20.27483,11.89104 -30.23486,18.13673c-2.10897,0.86644 -0.64113,4.3303 1.31968,3.79687c19.28612,-0.04255 38.57412,0.10439 57.85876,-0.10714c0.42699,-0.05606 0.90806,0.01997 1.2958,-0.2173l0,0z" />
 </g>
</svg>