<svg xmlns="http://www.w3.org/2000/svg" width='100%' height='100%' viewBox='-5 -5 85 85' preserveAspectRatio='none'>
 <g>
  <path  d="m34.38599,69.52688c-1.56763,-1.94291 -5.48192,-5.73066 -8.69843,-8.41721c-9.53025,-7.96003 -10.82732,-9.112 -14.6968,-13.05276c-7.13363,-7.26503 -10.16317,-14.56401 -10.15278,-24.46084c0.00507,-4.83124 0.3028,-6.69256 1.52607,-9.54033c2.07537,-4.83147 5.13251,-8.42164 9.04104,-10.6174c2.76828,-1.55518 4.13359,-2.24612 8.75644,-2.27439c4.83583,-0.02956 5.85382,0.59406 8.69843,2.32247c3.46237,2.10377 7.02613,6.5999 7.76281,9.79374l0.45499,1.97263l1.12205,-2.71677c6.34062,-15.3523 26.58398,-15.12261 33.62878,0.38158c2.23481,4.91836 2.48016,15.4203 0.49847,21.33598c-2.58505,7.71679 -7.44038,13.59994 -18.66426,22.61525c-7.36081,5.9124 -15.69157,14.85801 -16.2715,16.11443c-0.67319,1.45848 -0.03211,0.22856 -3.00529,-3.45639z" />
 </g>
</svg>