<svg xmlns="http://www.w3.org/2000/svg" width='100%' height='100%' viewBox='-5 -5 85 85' preserveAspectRatio='none'>
 <g>
 <path   d="m63.70517,33.15789l-23.98502,-18.11577c-1.32389,-0.99993 -3.22806,-0.99993 -4.5521,0l-23.98532,18.11577c-0.8343,0.63017 -1.31804,1.57273 -1.31804,2.56767l0,32.27796c0,1.83259 1.60915,3.31773 3.59409,3.31773l14.61598,0l0,-18.84323c0,-1.34378 1.18006,-2.43324 2.63578,-2.43324l13.46714,0c1.45556,0 2.63563,1.08919 2.63563,2.43324l0,18.84351l14.61628,0c1.98494,0 3.59394,-1.48542 3.59394,-3.31759l0,-32.27837c-0.0003,-0.99508 -0.48419,-1.9375 -1.31834,-2.56767z"/>
   <path  d="m74.54825,30.85021c-0.00796,-1.04789 -0.52923,-2.03576 -1.41773,-2.68783l-30.56756,-22.42692c-1.47943,-1.10873 -3.28826,-1.66351 -5.0977,-1.66503c-0.00601,0 -0.01186,-0.00042 -0.01772,-0.00042c-0.01727,0 -0.03438,0.00083 -0.0518,0.00097c-1.79877,0.0079 -3.59529,0.56212 -5.06647,1.66448l-30.56741,22.42706c-0.8885,0.65193 -1.40977,1.63995 -1.41788,2.68783c0,0.01386 -0.01066,1.39284 -0.01066,2.59442c0,1.91366 1.68047,3.46477 3.75338,3.46477c2.07292,0 3.75338,-1.55111 3.75338,-3.46477c0,-0.29478 0.0006,-0.59941 0.00165,-0.89114l27.30887,-20.03622c0,0 1.09449,-0.75407 2.29557,-0.75407c1.20108,0 2.27605,0.73966 2.27605,0.73966l27.32839,20.05064c0.0012,0.2916 0.0018,0.59636 0.0018,0.89114c0,1.91366 1.68047,3.46477 3.75338,3.46477s3.75338,-1.55111 3.75338,-3.46477c0,-1.20158 -0.01066,-2.5807 -0.01096,-2.59456z"/>

   </g>
</svg>