<svg xmlns="http://www.w3.org/2000/svg" width='100%' height='100%' viewBox='-5 -5 85 85' preserveAspectRatio='none'>
 <g>
     <path id="svg_2" d="m68.47396,52.29454l0,11.62646l6.09756,0l0,-17.3817l-68.1882,0l0,-25.14689c0,-1.6822 -1.33949,-3.05908 -3.02983,-3.05908l0,0c-1.67176,0 -3.02016,1.37689 -3.02016,3.05908l0,42.52858l6.04999,0l0,-11.62646l62.09063,0z"/>
   <path id="svg_3" d="m15.69134,33.65045c3.02983,0 5.47985,-2.46642 5.47985,-5.52625c0,-3.04037 -2.45003,-5.5068 -5.47985,-5.5068c-3.02983,0 -5.4806,2.46642 -5.4806,5.5068c0,3.05908 2.45003,5.52625 5.4806,5.52625z"/>
   <path id="svg_4" d="m74.66667,41.96864l-0.01858,-7.59158c-0.01933,-2.40955 -2.03227,-4.07304 -4.36931,-4.35964l-43.04792,-4.32223c-0.08548,-0.01871 -0.1613,-0.05762 -0.23712,-0.05762c-1.49113,0 -2.69681,1.22348 -2.69681,2.71486l0,8.18499l-11.25555,0c-1.51045,0 -2.71614,1.22423 -2.71614,2.71561c0,1.51083 1.20643,2.71561 2.71614,2.71561l61.62531,0z"/>
 </g>
</svg>