<svg xmlns="http://www.w3.org/2000/svg" width='100%' height='100%' viewBox='-5 -5 85 85' preserveAspectRatio='none'>
 <g>
  <path  d="m35.872,72.84373c-4.60227,-1.13614 -7.26849,-5.80708 -6.954,-10.0444c-0.11782,-5.53473 0.43092,-11.35869 -2.41315,-16.44781c-1.62108,-3.79974 -4.38261,-7.15458 -5.53504,-11.11433c-1.43408,-6.14328 0.33731,-13.10606 5.6746,-17.23028c6.0192,-4.7997 15.63142,-5.42528 22.25737,-1.34583c4.67333,2.99563 8.04525,7.93644 7.91998,13.32804c0.54836,4.02872 -1.16025,7.81807 -3.17023,11.28141c-1.44007,2.78858 -3.12187,5.51734 -4.42896,8.33701c-0.34458,5.78137 -0.14696,11.61577 -1.0816,17.34742c-1.55694,4.44137 -7.42443,7.46106 -12.26898,5.88878l0,0zm12.15528,-10.33719c-2.73132,-1.37007 -6.6562,-0.47932 -9.83096,-0.77427c-2.59336,0.48271 -7.20147,-0.99007 -8.58015,1.21916c3.15296,1.14778 6.85834,0.28739 10.21496,0.47728c2.6858,-0.24005 5.77588,0.22764 8.19615,-0.92217l0,0zm-0.20456,-2.57808c0.40196,-3.48079 -5.51293,-1.70461 -7.91577,-2.22277c-3.18033,0.59904 -8.24153,-1.28227 -10.2417,1.39214c1.18524,2.68758 6.47111,0.79743 9.24681,1.39374c2.96001,-0.09761 6.03087,0.09873 8.91067,-0.5631l0,0zm0.03683,-6.09865c0.78084,-6.78067 5.23595,-12.42645 7.81566,-18.62904c2.12101,-7.42629 -2.07959,-15.91048 -9.68473,-19.02772c-7.56975,-3.49125 -17.65512,-0.85382 -21.93303,5.98721c-4.1218,5.65087 -3.33519,13.32882 0.69336,18.82424c2.87447,4.80271 5.16785,10.19995 4.79427,15.7892c5.96673,0 11.93346,0 17.90019,0c0.1381,-0.98128 0.27616,-1.96263 0.41429,-2.94389zm-13.20934,-9.60638c-2.36404,-3.82519 -4.79091,-7.67986 -6.43711,-11.82543c1.48004,-1.78287 1.91059,-3.76879 2.37036,-5.86357c4.15403,-0.75932 -0.52876,4.40529 3.39324,4.52168c3.48137,1.40958 1.95414,-6.83973 4.84653,-3.86624c-2.07626,3.26338 4.07832,6.50982 4.3042,1.84141c-0.29836,-3.52487 3.71999,-2.86446 2.15332,0.33333c0.12931,1.645 3.00736,2.1166 3.05663,3.43965c-2.07191,4.18221 -3.87284,8.50001 -6.32622,12.50377c-0.55223,-1.55014 2.17196,-5.43532 3.04244,-7.71651c1.67972,-1.9719 3.12311,-7.28601 -1.2558,-6.56164c-2.54016,3.68699 -5.95721,-2.32408 -8.44438,1.20934c-2.11135,0.58608 -5.43203,-3.40274 -6.04451,0.43259c1.59018,4.55539 4.89898,8.43774 6.6302,12.94611c-0.58745,-0.32231 -0.92196,-0.88779 -1.28891,-1.39448l0,0zm-3.31819,-16.69495c-1.14957,-0.52211 0.48453,2.77564 -0.00002,0l0.00002,0zm6.87097,0.38951c-1.49227,-2.3502 -0.69194,2.85153 0,0zm6.65993,0c-1.49227,-2.3502 -0.69195,2.85153 0,0zm-31.00507,-17.36594c-2.63755,-2.49106 -5.55303,-4.82852 -7.84684,-7.57436c5.73041,4.41426 10.97537,9.38566 16.13958,14.36951c1.37132,1.7536 -2.39237,-1.63757 -3.09285,-2.20601c-1.75268,-1.51054 -3.48241,-3.04405 -5.1999,-4.58915l0,0zm40.72906,7.12221c4.4581,-5.16923 8.61761,-10.58844 13.4241,-15.48231c-0.80484,2.10706 -3.39567,4.6283 -5.02469,6.79838c-2.72045,3.14962 -5.26336,6.47976 -8.37427,9.3037c-0.38827,0.38192 -0.96806,-0.52268 -0.0251,-0.61977l-0.00004,0l0,0zm-9.65635,-4.90398c1.54031,-4.09994 3.77456,-8.0026 6.26718,-11.67195c-0.05793,2.03557 -2.70154,5.89366 -3.97222,8.41769c-0.71882,1.01569 -1.32512,2.63551 -2.29496,3.25426zm-19.72518,-5.25802c-1.07297,-1.45645 -4.3029,-4.84773 -3.69982,-5.31021c3.11406,3.21309 6.28131,6.5295 8.5183,10.32926c-1.90502,-1.35966 -3.27577,-3.32345 -4.81849,-5.01905l0,0zm12.3316,-1.14624c-0.21715,-1.3678 0.45696,-7.89737 0.83146,-3.46366c0.00133,2.77793 0.31292,5.9052 -0.51798,8.43363c-0.35581,-1.62558 -0.26948,-3.31792 -0.31348,-4.96997z"  />
 </g>
</svg>