<svg xmlns="http://www.w3.org/2000/svg" width='100%' height='100%' viewBox='-5 -5 85 85 ' preserveAspectRatio='none'>
 <g>

    <path d="m31.8339,5.34547c-17.39357,0.32725 -31.40729,14.39049 -31.40729,31.67211c0,17.48654 14.35151,31.68146 32.0309,31.68146c8.26572,0 15.80266,-3.10534 21.48622,-8.19606c-4.00711,2.27827 -8.65542,3.57935 -13.60605,3.57935c-15.0966,0 -27.34438,-12.11416 -27.34438,-27.04606c0,-14.9319 12.24778,-27.04606 27.34438,-27.04606c4.98999,0 9.67179,1.32342 13.70053,3.63542c-5.69441,-5.1413 -13.26895,-8.28017 -21.5807,-8.28017c-0.20718,0 -0.41736,-0.00388 -0.62361,0z"/>
   <path  d="m74.46491,37.03611l-27.56147,8.85757l17.03392,-23.18941l0,28.66368l-17.03392,-23.18941l27.56147,8.85757z"/>

 </g>
</svg>