<svg xmlns="http://www.w3.org/2000/svg" width='100%' height='100%' viewBox='-5 -5 85 85' preserveAspectRatio='none'>
 <g>
  <path  d="m-125.943,-102.709l0,-8.278c15.947,-1.556 28.494,-14.886 28.494,-31.233l-6.131,0c0,12.965 -9.797,23.577 -22.363,25.104l0,-8.063c8.113,-1.449 14.295,-8.519 14.295,-17.042l-6.129,0c0,5.124 -3.473,9.41 -8.166,10.745l0,-10.745l-6.128,0l0,10.738c-4.687,-1.346 -8.152,-5.62 -8.152,-10.738l-6.129,0c0,8.519 6.178,15.581 14.281,17.042l0,8.063c-12.558,-1.538 -22.35,-12.146 -22.35,-25.104l-6.129,0c0,16.341 12.539,29.658 28.479,31.233l0,8.278c-20.44,-1.58 -36.596,-18.675 -36.596,-39.512l-6.129,0c0,24.213 18.908,44.049 42.725,45.641l0,19.305l-11.217,0l0,6.129l28.576,0l0,-6.129l-11.23,0l0,-19.305c23.824,-1.58 42.74,-21.416 42.74,-45.641l-6.131,0c-0.001,20.842 -16.161,37.944 -36.61,39.512z" />
  <path d="m-29.614,-95.508l0,16.318l-9.696,0l0,9.191l28.587,0l0,-9.191l-9.696,0l0,-16.318c23.948,-2.316 42.737,-22.547 42.737,-47.095l-9.194,0c0,19.471 -14.677,35.548 -33.543,37.83l0,-5.219c16.047,-2.263 28.479,-15.946 28.479,-32.61l-9.192,0c0,11.594 -8.315,21.267 -19.286,23.416l0,-5.167c8.188,-2.064 14.294,-9.426 14.294,-18.25l-9.194,0c0,3.675 -2.077,6.835 -5.1,8.481l0,-8.481l-9.194,0l0,8.481c-3.023,-1.646 -5.1,-4.806 -5.1,-8.481l-9.194,0c0,8.823 6.105,16.185 14.294,18.25l0,5.167c-10.972,-2.149 -19.286,-11.822 -19.286,-23.416l-9.194,0c0,16.664 12.433,30.347 28.48,32.61l0,5.219c-18.86,-2.281 -33.532,-18.358 -33.532,-37.83l-9.193,0c-0.003,24.548 18.78,44.773 42.723,47.095z"/>
  <path d="m-316.896,-100.717l0,-11.265c15.823,-0.814 28.482,-13.832 28.482,-29.856l-3.064,0c0,14.336 -11.283,25.983 -25.418,26.792l0,-11.127c7.999,-0.784 14.291,-7.464 14.291,-15.665l-3.064,0c0,6.506 -4.921,11.834 -11.227,12.6l0,-12.6l-3.065,0l0,12.6c-6.306,-0.766 -11.226,-6.094 -11.226,-12.6l-3.064,0c0,8.195 6.294,14.88 14.29,15.665l0,11.127c-14.135,-0.814 -25.417,-12.462 -25.417,-26.792l-3.065,0c0,16.024 12.654,29.037 28.482,29.856l0,11.265c-22.003,-0.813 -39.666,-18.926 -39.666,-41.121l-3.064,0c0,23.889 19.037,43.367 42.73,44.187l0,22.289l-12.758,0l0,3.066l28.581,0l0,-3.066l-12.758,0l0,-22.288c23.694,-0.814 42.731,-20.292 42.731,-44.187l-3.064,0c0,22.201 -17.665,40.308 -39.667,41.12z"/>
  <path d="m-412.667,-99.908l0,-12.761c15.767,-0.413 28.482,-13.307 28.482,-29.168l-1.532,0c0,15.018 -12.028,27.223 -26.95,27.636l0,-12.661c7.94,-0.406 14.29,-6.937 14.29,-14.976l-1.532,0c0,7.195 -5.665,13.042 -12.758,13.443l0,-13.443l-1.532,0l0,13.443c-7.097,-0.407 -12.759,-6.249 -12.759,-13.443l-1.532,0c0,8.039 6.351,14.569 14.291,14.976l0,12.661c-14.922,-0.42 -26.951,-12.618 -26.951,-27.636l-1.532,0c0,15.862 12.716,28.749 28.483,29.168l0,12.761c-22.785,-0.418 -41.199,-19.046 -41.199,-41.929l-1.533,0c0,23.727 19.101,43.042 42.732,43.462l0,23.781l-13.525,0l0,1.531l28.582,0l0,-1.531l-13.524,0l0,-23.781c23.628,-0.414 42.731,-19.735 42.731,-43.462l-1.532,0c-0.001,22.882 -18.416,41.517 -41.2,41.929z"/>
  <path d="m38.99891,41.30448l0,-7.82865c12.65051,-0.95866 22.68474,-11.5047 22.68474,-24.46221l-3.66199,0c0,10.93447 -8.39199,19.8323 -19.02355,20.78135l0,-7.68449c6.41445,-0.9066 11.38418,-6.39987 11.38418,-13.09686l-3.66199,0c0,4.66435 -3.32908,8.55184 -7.72219,9.4152l0,-9.416l-3.66119,0l0,9.4152c-4.39311,-0.86415 -7.72299,-4.75085 -7.72299,-9.4152l-3.66119,0c0,6.697 4.96973,12.19026 11.38418,13.09686l0,7.68449c-10.63076,-0.94905 -19.02036,-9.84607 -19.02036,-20.78135l-3.66119,0c0,12.95831 10.03264,23.50436 22.68155,24.46221l0,7.82865c-16.90185,-0.96266 -30.37109,-15.05743 -30.37109,-32.29086l-3.6604,0c0,19.26127 15.11148,35.00425 34.03228,35.97252l0,16.65439l-9.55398,0l0,3.68247l22.76836,0l0,-3.68247l-9.55319,0l0,-16.65439c18.91921,-0.96827 34.03069,-16.71045 34.03069,-35.97252l-3.66199,0c0.0008,17.23343 -13.46764,31.3282 -30.3687,32.29166z"/>
 </g>
</svg>