<svg xmlns="http://www.w3.org/2000/svg" width='100%' height='100%' viewBox='-5 -5 85 85' preserveAspectRatio='none'>
 <g>
  <path  d="m49.26636,37.03222l0.02754,-0.01816l-1.77478,-2.7609c5.06119,-6.73876 5.7405,-16.1022 0.91799,-23.61292c-6.25151,-9.72671 -19.28698,-12.59658 -29.11865,-6.41182c-9.82862,6.18174 -12.73865,19.07803 -6.48713,28.81079c4.67563,7.27157 13.15786,10.70755 21.24842,9.39068l1.29743,2.02526l0.63035,0.13623l2.38371,-1.3532l-0.93329,4.16859l7.5979,1.67107l-0.90575,4.01117l5.82312,1.28357l-2.08078,9.26353l4.30231,0.94754l-1.29743,5.77003l12.65297,2.77906l2.31946,-10.26859l-16.60339,-25.83193zm-22.61316,-21.38786c-2.09608,1.3199 -4.87453,0.70536 -6.20867,-1.36834c-1.33109,-2.0737 -0.71603,-4.82551 1.38005,-6.14239s4.87759,-0.70536 6.20561,1.36834c1.33721,2.0737 0.71603,4.82551 -1.37699,6.14239z"  />
 </g>
</svg>