<svg xmlns="http://www.w3.org/2000/svg" width='100%' height='100%' viewBox='-5 -5 85 85' preserveAspectRatio='none'>
 <g>
  <path d="m51.10468,27.6718c0,0 2.3626,-8.84825 0,-11.84556c-2.36539,-2.99732 -3.30876,-4.99384 -8.50982,-6.42317s-3.30597,-1.14448 -7.08781,-0.99827c-3.78183,0.14369 -6.93475,1.99652 -6.93475,2.99479c0,0 -2.3626,0.14369 -3.30597,1.00078c-0.94615,0.85709 -2.52122,4.85015 -2.52122,5.85093s0.78753,7.70882 1.57507,9.13562l-0.93781,0.28486c-0.78753,8.27601 3.15014,9.2768 3.15014,9.2768c1.41645,7.70882 2.83568,4.42664 2.83568,6.42317s-1.41923,1.28564 -1.41923,1.28564s-1.25783,3.13848 -4.40797,4.28043c-3.15014,1.13943 -20.6373,7.27522 -22.05931,8.56086c-1.42201,1.28817 -1.26061,7.28027 -1.26061,7.28027l74.9883,0c0,0 0.16419,-5.99211 -1.25783,-7.28027c-1.4248,-1.28817 -18.91196,-7.42143 -22.06209,-8.56086c-3.15014,-1.14195 -4.40797,-4.28043 -4.40797,-4.28043s-1.41923,0.71088 -1.41923,-1.28564s1.41923,1.28564 2.83846,-6.42317c0,0 3.93489,-1.00078 3.15014,-9.2768l-0.94615,0l-0.00002,0.00001z" />
 </g>
</svg>