<svg xmlns="http://www.w3.org/2000/svg" width='100%' height='100%' viewBox='-5 -5 85 85 ' preserveAspectRatio='none'>
 <g>

 <path  id="svg_1" d="m44.14912,55.36101c0,-4.84738 -3.24262,-6.14327 -6.43487,-8.7755c-3.29297,2.63306 -6.43487,3.92812 -6.43487,8.7755c0,2.15733 0.57299,3.78276 1.51983,4.92419l0,14.38192l9.82932,0l0,-14.38192c0.94761,-1.14144 1.5206,-2.76686 1.5206,-4.92419z"/>
   <path  id="svg_2" d="m25.50447,60.22574c0,-3.62666 -2.42548,-4.59465 -4.81357,-6.56449c-2.46362,1.96984 -4.81357,2.93866 -4.81357,6.56449c0,1.61387 0.42879,2.82964 1.13682,3.68365l0,10.75774l7.35273,0l0,-10.75774c0.70803,-0.85484 1.13759,-2.06978 1.13759,-3.68365z"/>
   <path  id="svg_3" d="m59.55193,60.22574c0,-3.62666 -2.42624,-4.59465 -4.81357,-6.56449c-2.46362,1.96984 -4.81357,2.93866 -4.81357,6.56449c0,1.61387 0.42879,2.82964 1.13682,3.68365l0,10.75774l7.35273,0l0,-10.75774c0.70803,-0.85484 1.13759,-2.06978 1.13759,-3.68365z"/>
   <path  id="svg_4" d="m69.71161,41.62993l-3.81484,0l0,-8.2593l-2.2889,0l-10.68156,0l0,-4.12965c1.92421,-1.28349 3.05187,-3.4623 3.05187,-7.43337c0,-10.24896 -8.01117,-12.29892 -17.62838,-17.77814l-0.68286,-3.69604l-0.6943,3.75633c-9.61264,6.20686 -17.61694,7.47301 -17.61694,17.71785c0,3.97107 1.12767,6.14987 3.05187,7.43337l0,4.12965l-10.68156,0l-1.52594,0l-0.76297,0l0,8.2593l-3.81484,0l-2.2889,0l0,33.03719l2.2889,0l0,-30.5594c0,0.91183 0.68286,1.65186 1.52594,1.65186s1.52594,-0.74003 1.52594,-1.65186c0,0.91183 0.68286,1.65186 1.52594,1.65186s1.52594,-0.74003 1.52594,-1.65186c0,0.91183 0.68286,1.65186 1.52594,1.65186s1.52594,-0.74003 1.52594,-1.65186c0,0.91183 0.68286,1.65186 1.52594,1.65186s1.52594,-0.74003 1.52594,-1.65186c0,0.91183 0.68286,1.65186 1.52594,1.65186s1.52594,-0.74003 1.52594,-1.65186c0,0.91183 0.68286,1.65186 1.52594,1.65186s1.52594,-0.74003 1.52594,-1.65186c0,0.91183 0.68286,1.65186 1.52594,1.65186s1.52594,-0.74003 1.52594,-1.65186c0,0.91183 0.68286,1.65186 1.52594,1.65186s1.52594,-0.74003 1.52594,-1.65186c0,0.91183 0.68286,1.65186 1.52594,1.65186s1.52594,-0.74003 1.52594,-1.65186c0,0.91183 0.68286,1.65186 1.52594,1.65186s1.52594,-0.74003 1.52594,-1.65186c0,0.91183 0.68286,1.65186 1.52594,1.65186c0.84308,0 1.52594,-0.74003 1.52594,-1.65186c0,0.91183 0.68286,1.65186 1.52594,1.65186s1.52594,-0.74003 1.52594,-1.65186c0,0.91183 0.68286,1.65186 1.52594,1.65186s1.52594,-0.74003 1.52594,-1.65186c0,0.91183 0.68286,1.65186 1.52594,1.65186s1.52594,-0.74003 1.52594,-1.65186c0,0.91183 0.68286,1.65186 1.52594,1.65186s1.52594,-0.74003 1.52594,-1.65186c0,0.91183 0.68286,1.65186 1.52594,1.65186s1.52594,-0.74003 1.52594,-1.65186c0,0.91183 0.68286,1.65186 1.52594,1.65186s1.52594,-0.74003 1.52594,-1.65186c0,0.91183 0.68286,1.65186 1.52594,1.65186s1.52594,-0.74003 1.52594,-1.65186c0,0.91183 0.68286,1.65186 1.52594,1.65186s1.52594,-0.74003 1.52594,-1.65186c0,0.91183 0.68286,1.65186 1.52594,1.65186s1.52594,-0.74003 1.52594,-1.65186c0,0.91183 0.68286,1.65186 1.52594,1.65186s1.52594,-0.74003 1.52594,-1.65186l0,30.5594l2.2889,0l0,-33.03719l-2.2889,0zm-48.067,-19.82232c0,-6.07554 3.05874,-8.00491 9.97734,-11.79015c1.86775,-1.02168 3.94836,-2.15981 6.11672,-3.53663c1.52823,0.85897 2.9977,1.62791 4.42827,2.3762c7.78151,4.07183 11.52235,6.32249 11.52235,12.95058c0,3.53746 -0.99262,4.67641 -1.96312,5.32394l-0.58443,0.38901l-26.94957,0l-0.58443,-0.38984c-0.9705,-0.6467 -1.96312,-1.78566 -1.96312,-5.32312zm4.57781,9.91116c0.42192,0 0.76297,-0.37002 0.76297,-0.82593l0,-1.17034l0.76297,0l0,1.17034c0,0.45591 0.34105,0.82593 0.76297,0.82593s0.76297,-0.37002 0.76297,-0.82593l0,-1.17034l0.76297,0l0,1.17034c0,0.45591 0.34105,0.82593 0.76297,0.82593s0.76297,-0.37002 0.76297,-0.82593l0,-1.17034l0.76297,0l0,1.17034c0,0.45591 0.34105,0.82593 0.76297,0.82593s0.76297,-0.37002 0.76297,-0.82593l0,-1.17034l0.76297,0l0,1.17034c0,0.45591 0.34105,0.82593 0.76297,0.82593s0.76297,-0.37002 0.76297,-0.82593l0,-1.17034l0.76297,0l0,1.17034c0,0.45591 0.34181,0.82593 0.76297,0.82593s0.76297,-0.37002 0.76297,-0.82593l0,-1.17034l0.76297,0l0,1.17034c0,0.45591 0.34105,0.82593 0.76297,0.82593s0.76297,-0.37002 0.76297,-0.82593l0,-1.17034l0.76297,0l0,1.17034c0,0.45591 0.34105,0.82593 0.76297,0.82593s0.76297,-0.37002 0.76297,-0.82593l0,-1.17034l0.76297,0l0,1.17034c0,0.45591 0.34105,0.82593 0.76297,0.82593s0.76297,-0.37002 0.76297,-0.82593l0,-1.17034l0.76297,0l0,1.17034c0,0.45591 0.34105,0.82593 0.76297,0.82593s0.76297,-0.37002 0.76297,-0.82593l0,-1.17034l0.76297,0l0,1.17034c0,0.45591 0.34105,0.82593 0.76297,0.82593s0.76297,-0.37002 0.76297,-0.82593l0,-1.17034l0.76297,0l0,2.8222l-25.94092,0l0,-2.8222l0.76297,0l0,1.17034c0,0.45591 0.34105,0.82593 0.76297,0.82593zm37.38545,9.91116l-1.52594,0l0,-2.47779c0,-0.91183 -0.68362,-1.65186 -1.52594,-1.65186s-1.52594,0.74003 -1.52594,1.65186l0,2.47779l-1.52594,0l0,-2.47779c0,-0.91183 -0.68362,-1.65186 -1.52594,-1.65186s-1.52594,0.74003 -1.52594,1.65186l0,2.47779l-1.52594,0l0,-2.47779c0,-0.91183 -0.68362,-1.65186 -1.52594,-1.65186s-1.52594,0.74003 -1.52594,1.65186l0,2.47779l-1.52594,0l0,-2.47779c0,-0.91183 -0.68362,-1.65186 -1.52594,-1.65186s-1.52594,0.74003 -1.52594,1.65186l0,2.47779l-1.52594,0l0,-2.47779c0,-0.91183 -0.68362,-1.65186 -1.52594,-1.65186s-1.52594,0.74003 -1.52594,1.65186l0,2.47779l-1.52594,0l0,-2.47779c0,-0.91183 -0.68362,-1.65186 -1.52594,-1.65186s-1.52594,0.74003 -1.52594,1.65186l0,2.47779l-1.52594,0l0,-2.47779c0,-0.91183 -0.68362,-1.65186 -1.52594,-1.65186s-1.52594,0.74003 -1.52594,1.65186l0,2.47779l-1.52594,0l0,-2.47779c0,-0.91183 -0.68362,-1.65186 -1.52594,-1.65186s-1.52594,0.74003 -1.52594,1.65186l0,2.47779l-1.52594,0l0,-2.47779c0,-0.91183 -0.68362,-1.65186 -1.52594,-1.65186s-1.52594,0.74003 -1.52594,1.65186l0,2.47779l-1.52594,0l0,-2.47779c0,-0.91183 -0.68362,-1.65186 -1.52594,-1.65186s-1.52594,0.74003 -1.52594,1.65186l0,2.47779l-1.52594,0l0,-2.47779c0,-0.91183 -0.68362,-1.65186 -1.52594,-1.65186s-1.52594,0.74003 -1.52594,1.65186l0,2.47779l-1.52594,0l0,-5.78151l51.88184,0l0,5.78151z"/>

 </g>
</svg>