<svg xmlns="http://www.w3.org/2000/svg" width='100%' height='100%' viewBox='-5 -5 85 85' preserveAspectRatio='none'>
 <g>
  <path  d="m53.47313,9.63584c-2.7367,-1.22332 -6.03286,-0.17294 -7.36676,2.35762c-1.32839,2.53056 -0.1819,5.57232 2.5548,6.79818c8.58491,3.85561 14.51029,11.96612 14.50478,21.36607c-0.02756,13.10805 -11.52004,23.71351 -25.72166,23.7364c-14.20438,-0.02543 -25.69686,-10.6309 -25.72442,-23.7364c-0.00551,-9.40504 5.92262,-17.52318 14.5158,-21.37116c2.74221,-1.22586 3.88043,-4.26762 2.5548,-6.79818c-1.32839,-2.52547 -4.61904,-3.58348 -7.36125,-2.35762c-12.26967,5.48076 -20.73056,17.09845 -20.73607,30.52695c0.00551,18.72869 16.45051,33.90697 36.75113,33.91206c20.29787,-0.00509 36.74562,-15.18336 36.74838,-33.91206c-0.00551,-13.42342 -8.45538,-25.03348 -20.71954,-30.52187zm-16.02884,25.01059c3.04261,0 5.50923,-2.27369 5.50923,-5.08655l0,-23.73895c0,-2.81032 -2.46661,-5.08401 -5.50923,-5.08401c-3.04813,0 -5.51198,2.27623 -5.51198,5.08401l0,23.7364c0,2.81286 2.46386,5.0891 5.51198,5.0891z" />
 </g>
</svg>