<svg xmlns="http://www.w3.org/2000/svg" width='100%' height='100%' viewBox='-5 -5 85 85 ' preserveAspectRatio='none'>
 <g>
  <path d="m52.97552,16.34012l0,36.41629c0,8.36665 -6.94248,15.17345 -15.47588,15.17345s-15.47588,-6.80681 -15.47588,-15.17345l0,-36.41629c0,-5.01938 4.16611,-9.10408 9.28553,-9.10408s9.28553,4.0847 9.28553,9.10408l0,27.31223c0,1.67212 -1.38974,3.03469 -3.09518,3.03469s-3.09518,-1.36257 -3.09518,-3.03469l0,-24.27753l-6.19035,0l0,24.27753c0,5.02848 4.15682,9.10408 9.28553,9.10408s9.28553,-4.0756 9.28553,-9.10408l0,-27.31223c0,-8.37878 -6.9301,-15.17345 -15.47588,-15.17345s-15.47588,6.79468 -15.47588,15.17345l0,36.41629c0,11.73212 9.70028,21.24284 21.66624,21.24284s21.66624,-9.51072 21.66624,-21.24284l0,-36.41629l-6.19035,0l-0.00002,0z"/>
 </g>
</svg>