<svg xmlns="http://www.w3.org/2000/svg" width='100%' height='100%' viewBox='-5 -5 85 85' preserveAspectRatio='none'>
 <g>
 <path d="m36.52239,39.28887c-5.72426,0 -10.63499,2.35584 -14.59432,7.00216c-5.58716,6.55816 -7.29906,15.23616 -7.2324,16.8619c0.14089,3.41619 1.36043,6.1218 3.43289,7.61511c0.71657,0.51701 1.48011,0.77849 2.27092,0.77849c1.91036,0 4.00554,-1.44662 6.43099,-3.1199c0.32496,-0.22412 0.70067,-0.51277 1.12182,-0.83367c2.00201,-1.53406 5.02738,-3.8517 8.27241,-3.8517c3.51167,0 7.25891,2.85503 9.2738,4.38909l0.62492,0.47117c2.25122,1.66225 4.3714,3.22687 6.26055,3.22687c0.70521,0 1.39224,-0.21224 2.0467,-0.63162c2.42999,-1.54679 4.00933,-3.50702 3.82678,-8.05147c-0.18861,-4.73546 -4.65091,-23.85643 -21.73507,-23.85643z"/>
   <path d="m25.63895,33.19169c0.31663,0 0.63477,-0.02462 0.95442,-0.07386c5.25917,-0.81499 8.72008,-8.11684 7.71415,-16.27528c-0.9264,-7.51069 -5.50005,-13.39308 -10.41077,-13.39308c-0.31663,0 -0.63628,0.02462 -0.95594,0.07386c-2.47695,0.38373 -4.64788,2.23954 -6.11285,5.22446c-1.52783,3.11226 -2.09594,7.03782 -1.60055,11.05252c0.9264,7.50899 5.49929,13.39138 10.41153,13.39138z"/>
   <path d="m6.80124,27.70491c-0.46964,0 -0.93927,0.06622 -1.3983,0.19781c-3.98509,1.14609 -6.00528,6.86039 -4.59638,13.00935c1.22863,5.36878 4.60849,9.1186 8.22091,9.1186c0.46964,0 0.93927,-0.06622 1.39755,-0.19781c3.98585,-1.14609 6.00604,-6.85954 4.59865,-13.00851c-1.22863,-5.36963 -4.61001,-9.11945 -8.22242,-9.11945z"/>
   <path d="m47.68156,33.11698c5.28113,0.81584 10.38048,-5.32548 11.36671,-13.31837c0.49463,-4.0147 -0.07348,-7.94026 -1.59979,-11.05252c-1.46648,-2.98492 -3.63665,-4.84073 -6.11285,-5.22446c-0.31966,-0.04924 -0.63931,-0.07386 -0.95594,-0.07386c-4.91073,0 -9.48438,5.88324 -10.41077,13.39393c-1.00745,8.16014 2.45347,15.46113 7.71264,16.27528z"/>
   <path d="m68.872,27.90271c-0.45827,-0.13159 -0.92943,-0.19781 -1.39906,-0.19781c-3.61241,0 -6.99228,3.74983 -8.22166,9.11945c-1.40664,6.14897 0.61356,11.86242 4.59865,13.00851c0.45752,0.13159 0.92791,0.19781 1.39755,0.19781c3.61241,0.00085 6.99076,-3.74898 8.22091,-9.1186c1.40815,-6.14982 -0.61204,-11.86327 -4.59638,-13.00935z"/> 
   </g>
</svg>