<svg xmlns="http://www.w3.org/2000/svg" width='100%' height='100%' viewBox='-5 -5 85 85' preserveAspectRatio='none'>
 <g>
 <path d="m71.57636,58.48735l-11.11143,-11.32542c-2.21319,-2.2465 -5.87828,-2.17825 -8.16857,0.15673l-5.59798,5.7039c-0.35367,-0.19866 -0.71975,-0.40616 -1.10463,-0.6263c-3.53507,-1.99624 -8.37342,-4.73232 -13.46477,-9.92494c-5.10644,-5.20357 -7.79361,-10.14213 -9.75834,-13.74719c-0.20732,-0.38193 -0.40597,-0.75017 -0.60213,-1.09987l3.75707,-3.82331l1.84712,-1.8848c2.2938,-2.33835 2.35706,-6.07255 0.14903,-8.32559l-11.11143,-11.32668c-2.20802,-2.24988 -5.87476,-2.18162 -8.16856,0.15673c-1.09942,1.06995 -2.19883,2.47324 -3.29825,3.54319l0.25224,-0.24674c-1.05006,1.36551 -1.92752,2.94042 -2.58051,4.63878c-0.60192,1.61663 -0.97668,3.15931 -1.14804,4.70515c-1.46719,12.39621 4.09111,23.72543 19.17562,39.09894c20.85137,21.24909 37.65483,19.64384 38.37974,19.56548c1.57882,-0.19234 3.0919,-0.5768 4.62958,-1.1854c1.65198,-0.65769 3.19628,-1.55069 4.53531,-2.61854l0.06842,0.06194l3.17251,-3.16605c2.28905,-2.33793 2.35499,-6.07339 0.148,-8.33001z"/>
   </g>
</svg>