<svg xmlns="http://www.w3.org/2000/svg" width='100%' height='100%' viewBox='-5 -5 85 85' preserveAspectRatio='none'>
  <g >
   <path id="svg_4" d="m13.72697,7.71421l20.96206,21.82072l-20.46688,8.31424l-9.74046,-5.23148c-1.19313,0.46928 -3.16503,1.01099 -4.35669,1.47725c2.99752,3.12652 5.9583,6.28623 8.91762,9.41576c-0.32914,3.33022 0.37175,8.39572 0.04114,11.68822c1.48113,-0.54774 2.95931,-1.13472 4.4375,-1.6885l2.95931,-8.27199l21.45723,-8.14222c-0.08522,10.76022 -1.93075,17.93672 -1.97337,28.69695c-2.96078,18.27472 8.13885,-1.1815 9.16888,-7.13274c5.58508,-0.20974 12.16199,-5.90899 1.19166,-4.89499c0.69795,-2.65875 1.3959,-5.319 2.09092,-7.97473c7.81118,-0.12977 12.00624,-5.86825 2.9167,-4.73051c0.78611,-3.50073 1.56488,-7.00297 2.34806,-10.50672c23.18081,-8.39874 29.58874,-19.24497 -2.18202,-7.55675c-3.28258,-1.90126 -5.75112,-4.13448 -9.08072,-6.07347c5.91716,-8.18749 -3.69841,-3.54902 -6.16548,-1.98576c-2.09679,-1.435 -4.19065,-2.91225 -6.28891,-4.34423c8.0551,-4.22653 4.52273,-6.41901 -3.45008,-3.039c-2.14087,-1.05927 -23.34832,-8.91027 -12.78647,0.15995z" />
      </g>
</svg>