<svg xmlns="http://www.w3.org/2000/svg" width='100%' height='100%' viewBox='-5 -5 85 85' preserveAspectRatio='none'>
 <g>
 <path  d="m24.21197,33.01553c-1.77997,-0.48071 -3.55994,-0.72462 -5.29139,-0.72462c-2.67374,0 -4.90477,0.57315 -6.6347,1.27502c1.66777,-5.72728 5.67422,-15.60957 13.65527,-16.72245c0.73913,-0.10311 1.34483,-0.60444 1.54648,-1.27929l1.74434,-5.85243c0.14707,-0.49493 0.05989,-1.02471 -0.24107,-1.45422s-0.78461,-0.71609 -1.32664,-0.78578c-0.58903,-0.07538 -1.18943,-0.11378 -1.78452,-0.11378c-9.57984,0 -19.06719,9.37954 -23.0706,22.80955c-2.35004,7.87909 -3.03914,19.72476 2.74955,27.18074c3.23927,4.17208 7.96513,6.39999 14.04644,6.62256c0.02502,0.00071 0.04928,0.00142 0.07429,0.00142c7.50346,0 14.15712,-4.74026 16.18119,-11.52637c1.20914,-4.05688 0.66256,-8.31145 -1.54042,-11.98291c-2.17948,-3.63021 -5.76898,-6.27625 -10.10822,-7.44745z"/>
   <path d="m71.18176,40.46369c-2.17948,-3.63093 -5.76898,-6.27696 -10.10822,-7.44816c-1.77997,-0.48071 -3.55994,-0.72462 -5.29063,-0.72462c-2.67374,0 -4.90553,0.57315 -6.63546,1.27502c1.66777,-5.72728 5.67422,-15.60957 13.65603,-16.72245c0.73913,-0.10311 1.34407,-0.60444 1.54648,-1.27929l1.74434,-5.85243c0.14707,-0.49493 0.05989,-1.02471 -0.24107,-1.45422c-0.3002,-0.42951 -0.78385,-0.71609 -1.32664,-0.78578c-0.58827,-0.07538 -1.18867,-0.11378 -1.78452,-0.11378c-9.57984,0 -19.06719,9.37954 -23.07136,22.80955c-2.34929,7.87909 -3.03838,19.72476 2.75107,27.18216c3.23851,4.17137 7.96513,6.39999 14.04568,6.62185c0.02502,0.00071 0.04928,0.00142 0.07505,0.00142c7.5027,0 14.15712,-4.74026 16.18119,-11.52637c1.20762,-4.05688 0.66029,-8.31216 -1.54193,-11.98291z"/>
   </g>
</svg>