<svg xmlns="http://www.w3.org/2000/svg" width='100%' height='100%' viewBox='-5 -5 85 85' preserveAspectRatio='none'>
 <g  >
   <path id="svg_2" d="m74.36798,10.81844l0,28.43313c0,17.72195 -8.40975,26.58172 -25.23239,26.58172c-1.86015,0 -4.70196,-0.09871 -8.53168,-0.28409l0,-11.00249c11.6361,0 17.43851,-4.14339 17.43851,-12.42776l-0.18758,-5.00288l-12.05502,0l0,-26.29282l28.56815,-0.00482l0,0zm-69.80095,26.29041l12.05502,0l0.18758,5.00047c0,7.80767 -5.31784,11.95347 -15.95665,12.43016l0,11.00249c3.33576,0.18779 5.68674,0.28168 7.04669,0.28168c16.82263,0 25.23239,-8.85977 25.23239,-26.57932l0,-28.43072l-28.57128,0l0,26.29282l0.00625,0.00241l0,0z"/>
   </g>
</svg>