<svg xmlns="http://www.w3.org/2000/svg" width='100%' height='100%' viewBox='-5 -5 85 85' preserveAspectRatio='none'>
 <g>
  <path d="m46.26611,23.6133l-8.51702,-1.58517l3.13785,-1.72187c1.72581,-0.94704 3.2906,-1.86384 3.4773,-2.03733c0.46378,-0.43094 -5.31186,-9.81019 -6.03622,-9.80243c-0.31842,0.00379 -2.53719,3.63562 -4.9306,8.07159c-2.41073,4.468 -4.80995,7.87073 -5.37917,7.62898c-6.73712,-2.86092 -12.2341,-5.75553 -12.2341,-6.44226c0,-0.46907 2.11382,-4.65334 4.69742,-9.2984l4.69742,-8.44555l12.80767,0l12.80767,0l3.34316,5.55657l3.34318,5.55657l3.48767,-1.88035c2.41773,-1.30352 3.33834,-1.4907 3.00083,-0.61024c-2.97161,7.75296 -7.40572,16.79305 -8.1939,16.70535c-0.54569,-0.06067 -4.8248,-0.82364 -9.50916,-1.69547l0,0zm-39.72217,34.58927c-3.24121,-5.86571 -6.14609,-11.3577 -6.45526,-12.20446c-0.31729,-0.8689 0.60714,-3.97375 2.12228,-7.12794l2.68441,-5.58848l-2.74414,-1.70352c-3.65189,-2.26701 -2.29445,-2.96523 7.39296,-3.80273l7.65622,-0.66188l3.00313,8.33882c1.65174,4.58635 3.21448,8.93112 3.47279,9.6551c0.26939,0.75504 -1.01987,0.25267 -3.02354,-1.17816l-3.49317,-2.4945l-2.4385,4.94679c-1.34115,2.72078 -2.45752,5.25001 -2.48077,5.62051c-0.02331,0.3705 4.09293,0.79449 9.14711,0.94216l9.18941,0.26849l0.5997,7.06405c0.32985,3.88525 0.53155,7.11598 0.44826,7.17941c-0.08328,0.06337 -4.4346,0.4069 -9.66958,0.76332l-9.51817,0.64801l-5.89315,-10.665l0,0.00001zm36.27407,10.36407c-5.56429,-8.82577 -5.661,-8.16929 2.60928,-17.70927l5.30896,-6.12402l-0.56386,4.47525l-0.56388,4.47525l5.94929,0c3.2721,0 5.94932,-0.27499 5.94932,-0.61105c0,-0.33611 -1.81549,-4.11107 -4.0344,-8.3889c-2.21891,-4.27783 -4.02598,-8.13657 -4.01572,-8.57499c0.02304,-0.98304 11.65429,-9.10053 12.20724,-8.51944c0.2191,0.23025 2.37762,4.33108 4.79672,9.11306l4.39843,8.69437l-5.91821,10.03198c-3.25506,5.51752 -6.38246,10.57011 -6.94973,11.22791c-0.56734,0.6578 -3.73957,1.46178 -7.04944,1.78655c-6.31772,0.62001 -6.14574,0.47068 -7.07206,6.14013c-0.1621,0.99219 -2.0524,-1.25912 -5.05194,-6.01683l0,0.00001z" />
 </g>
</svg>