<svg xmlns="http://www.w3.org/2000/svg" width='100%' height='100%' viewBox='-5 -5 85 85' preserveAspectRatio='none'>
 <g>
<path  id="svg_1" d="m30.96903,29.07455c0,3.46516 2.93005,6.28303 6.53056,6.28303c3.60212,0 6.53136,-2.81864 6.53136,-6.28303s-2.93005,-6.28303 -6.53136,-6.28303c-3.60132,-0.00078 -6.53056,2.81787 -6.53056,6.28303z"/>
   <path  id="svg_2" d="m71.05089,21.59383c1.46341,-2.20778 1.61491,-4.65665 0.4408,-7.07993c-1.35785,-2.80314 -3.98893,-4.34579 -7.40812,-4.34579c-3.8479,0 -8.75146,1.96979 -13.45356,5.40705c-2.73423,1.99615 -5.06715,4.26517 -6.76748,6.51481c2.02025,1.70467 3.29993,4.20238 3.29993,6.98458c0,2.46902 -1.00811,4.71324 -2.64639,6.37915c1.75593,2.41011 4.24438,4.85975 7.17684,7.00319c4.80363,3.51167 9.81115,5.5241 13.73803,5.5241c0.00081,0 0.00161,0 0.00242,0c3.47802,0 6.15584,-1.57056 7.53786,-4.42099c1.19345,-2.46437 1.03873,-4.95278 -0.44805,-7.19932c-2.53599,-3.82563 -3.80036,-11.24975 -1.47228,-14.76685z"/>
   <path  id="svg_3" d="m9.57065,47.98021c3.92688,0 8.9352,-2.01243 13.73883,-5.5241c2.93327,-2.14421 5.42091,-4.59308 7.17604,-7.00319c-1.63747,-1.66514 -2.64559,-3.91013 -2.64559,-6.37915c0,-2.78221 1.27887,-5.27991 3.29912,-6.98458c-1.70033,-2.24964 -4.03405,-4.51866 -6.76667,-6.51481c-4.7029,-3.43725 -9.60646,-5.40705 -13.45356,-5.40705c-3.4192,0 -6.05108,1.54266 -7.40893,4.34579c-1.17411,2.42329 -1.02342,4.87215 0.4416,7.07993c2.32647,3.5171 1.06291,10.94122 -1.47066,14.76608c-1.48678,2.24654 -1.6415,4.73494 -0.44886,7.19932c1.38202,2.85042 4.05984,4.42099 7.53786,4.42099c0,0.00078 0,0.00078 0.00081,0.00078z"/>
   <path  id="svg_4" d="m20.60991,71.66501l16.01695,-33.33841c-1.85828,-0.16047 -3.56425,-0.83102 -4.97044,-1.86204c-1.87359,2.53414 -4.42731,5.01712 -7.40168,7.18924c-3.28462,2.40236 -6.68931,4.13959 -9.84016,5.06518l-10.66131,14.25832l11.87008,-1.52715l4.98656,10.21486z"/>
   <path  id="svg_5" d="m50.74605,43.65303c-2.97356,-2.17212 -5.52809,-4.6551 -7.40248,-7.18846c-1.33528,0.97986 -2.94133,1.63335 -4.69243,1.83413l15.33763,31.6097l4.80847,-9.51175l11.39302,1.46203l-9.89012,-13.22497c-3.07026,-0.94575 -6.36778,-2.65042 -9.55408,-4.98068z"/>
 </g>  
 </svg>