<svg xmlns="http://www.w3.org/2000/svg" width='100%' height='100%' viewBox='-5 -5 85 85' preserveAspectRatio='none'>
 <g>
    <path d="m42.35593,36.61879c3.36912,-6.86953 6.90001,-14.79766 7.51258,-18.96418c-0.25855,-1.06071 -2.59347,-6.41797 -4.63868,-10.96751c-0.1074,-0.24097 -0.21546,-0.47983 -0.32153,-0.71586c-0.07823,1.33914 -0.29501,2.62033 -0.60528,3.8464c-0.0053,0.24875 -0.12662,0.70808 -0.18563,0.689c-0.08884,0.31376 -0.1843,0.62328 -0.28507,0.92927c-0.64969,1.98362 -1.51153,3.80542 -2.37138,5.46256c-0.5171,0.99499 -2.27989,4.42234 -4.61614,8.96693c-0.1717,0.33355 -0.34606,0.67275 -0.52307,1.01831c-1.66335,3.23584 -3.57331,6.95434 -5.51112,10.72795c-0.18762,0.36605 -0.37589,0.73211 -0.56417,1.09816c-5.31887,10.35907 -10.68679,20.81849 -11.57913,22.5576c0.75046,1.29462 4.15605,7.19036 5.30959,9.58385c2.13139,-3.23089 7.57887,-13.55816 10.30162,-18.71826c0.2738,-0.5187 0.52042,-0.98651 0.73455,-1.39285c0.22607,-0.42683 0.41567,-0.78511 0.56484,-1.06354c0.10674,-0.2014 0.19425,-0.36252 0.25524,-0.47488c0.24264,-0.44096 2.9992,-5.4668 6.01364,-11.55051c0.16905,-0.33991 0.33943,-0.68476 0.50915,-1.03244z"/>
   <path d="m42.38046,38.68439c-2.72407,5.46256 -5.18893,9.97676 -5.75841,11.01203c-0.11469,0.20847 -0.31689,0.58724 -0.5887,1.10099c0.84261,2.06206 1.50225,3.62239 1.84433,4.35167c0.37523,0.79995 0.93344,1.93698 1.58048,3.25351c2.7665,5.63428 5.30627,10.91663 6.18071,13.83871c1.07398,-2.55673 2.00543,-4.15734 3.06019,-5.96853c0.94802,-1.62887 2.01935,-3.46975 3.40625,-6.37699c-1.7734,-3.62733 -3.38702,-7.35148 -4.8137,-10.64386c-1.43861,-3.32276 -2.79832,-6.46108 -4.08511,-8.96481c-0.21082,-0.40987 -0.49058,-0.95188 -0.82604,-1.60273z"/>
   <path d="m35.80331,25.86328c-2.47878,-4.88662 -4.75668,-9.46725 -6.41672,-12.99777c-0.14187,-0.30245 -0.2791,-0.59643 -0.41236,-0.88334c-0.58008,-1.2501 -1.06802,-2.34332 -1.44325,-3.24291c-0.09016,-0.21695 -0.17502,-0.4233 -0.25192,-0.61763c-0.12198,0.66144 -0.26651,1.44161 -0.42296,2.28608c-0.08685,0.46923 -0.17701,0.95824 -0.26982,1.45857c-0.69345,3.75312 -1.49827,8.11681 -1.66136,9.11109c-0.00729,0.62611 1.42469,5.02583 5.43886,15.47324c1.92654,-3.74959 3.81198,-7.42003 5.43953,-10.58732z"/>
   <path d="m36.00816,9.49328c0.40772,-0.02261 0.82405,-0.03463 1.23707,-0.03463c2.52519,0 4.63139,0.42047 5.98911,0.78723c0.55091,-1.92355 0.87178,-3.99056 0.77234,-6.19467c-1.78798,-2.08892 -3.28891,-2.47758 -5.56416,-2.47758c-0.57942,0 -1.20724,0.02544 -1.87218,0.05229c-3.36912,0.13568 -7.18839,2.5532 -8.92268,4.78345c0.22408,0.85295 1.00901,2.68958 2.12277,5.08661c1.63153,-0.9434 3.81198,-1.86702 6.23772,-2.0027z"/>
 </g>
</svg>