<svg xmlns="http://www.w3.org/2000/svg" width='100%' height='100%' viewBox='-5 -5 85 85 ' preserveAspectRatio='none'>
 <g>
  <path d="m35.51814,64.16068c-0.56912,0.7376 -1.44586,1.12689 -2.33492,1.12689c-0.5968,0 -1.19668,-0.17562 -1.71658,-0.53564c-1.28897,-0.90444 -1.56584,-2.62258 -0.62141,-3.84899l3.31318,-4.26169c0.9475,-1.22056 2.75637,-1.48691 4.04535,-0.58247c1.29513,0.89566 1.57199,2.61965 0.61834,3.84314l-3.30396,4.25877zm-2.53795,-8.30972c0.9475,-1.22348 0.66756,-2.94748 -0.61834,-3.85192c-1.29513,-0.90151 -3.10092,-0.63223 -4.0515,0.59418l-3.30088,4.24121c-0.95058,1.22641 -0.66756,2.95333 0.62141,3.85484c1.28282,0.89859 3.09784,0.63809 4.04535,-0.59125l3.30396,-4.24706l0,-0.00001zm-5.84499,-4.06266c0.95058,-1.22056 0.66756,-2.94748 -0.62449,-3.84899c-1.2859,-0.89859 -3.09784,-0.63223 -4.04227,0.59125l-3.33164,4.27633c-0.9475,1.22641 -0.64295,2.91236 0.64295,3.81679c1.29513,0.90151 3.07631,0.67028 4.02381,-0.55613l3.33164,-4.27926l0,0.00001zm-5.83883,-4.05681c0.9475,-1.22641 0.67371,-2.94748 -0.62449,-3.84899c-1.28897,-0.90444 -3.09784,-0.63809 -4.04535,0.58833l-3.30703,4.24706c-0.9475,1.22348 -0.66756,2.95041 0.62141,3.84899c1.28897,0.89859 3.10092,0.63809 4.04535,-0.59125l3.31011,-4.24414zm53.20168,-24.69794s-4.78366,0.88102 -8.20451,1.40203c-6.60176,1.00689 -12.74822,-1.21763 -19.5684,-4.57196c-1.36896,-0.67028 -2.94403,-1.36398 -4.48526,-1.36398c-1.41818,0 -2.80867,0.61174 -3.97459,1.87034c-4.20224,4.52805 -6.64483,8.53218 -11.64383,11.30989c-2.46412,1.36983 0.43068,5.6608 5.72193,3.89582c2.701,-0.90151 5.34047,-2.61965 8.32449,-4.90856c2.34415,-1.8001 3.7531,-1.53374 5.78038,0.39514c3.80847,3.62362 16.62437,15.66232 16.62437,15.66232c4.0515,-2.37672 7.45082,-3.84021 11.42233,-5.24517l0,-18.44589l0.00308,0l0.00001,0.00001zm-32.37507,37.06154c-0.48606,1.34349 -1.90116,2.92992 -2.93172,4.25877c0.91366,0.68784 1.8704,0.97761 2.7133,0.97761c2.20571,0 3.65465,-1.96401 1.66736,-3.85777l-1.44894,-1.37861l0,0.00001zm20.01446,-10.13617c-3.29165,-3.08797 -14.55709,-13.66026 -17.85182,-16.72189c-0.50759,-0.47125 -1.29513,-0.52686 -1.8704,-0.12879c-1.96576,1.35812 -6.40487,4.34658 -9.05665,5.23346c-5.18358,1.72693 -9.5827,-0.64979 -10.52713,-3.97778c-0.59065,-2.08402 0.2861,-4.12998 2.23648,-5.21297c3.10092,-1.724 5.09744,-4.02461 7.55541,-6.91648c-2.13803,-1.57765 -4.15302,-2.14256 -6.12493,-2.14256c-5.24818,0 -10.20412,3.99827 -16.41518,3.60313c-4.22377,-0.26343 -9.41658,-1.17957 -9.41658,-1.17957l0,18.53662c4.54063,0.93956 7.55234,1.35812 12.05913,3.50946l1.42125,-1.82644c1.11978,-1.45179 2.91942,-2.31818 4.81135,-2.31818c2.67639,0 4.98977,1.6918 5.72501,4.06266c2.92557,0 5.12821,1.76205 5.83883,4.05974c2.54103,-0.09073 5.04822,1.51911 5.83576,4.05388c3.60236,0 6.20491,2.69283 6.09417,5.87447l3.59313,3.41872c1.12901,1.07713 2.96249,1.07421 4.09457,0c1.13208,-1.07713 1.13208,-2.82162 0,-3.89875l-5.18666,-4.93783c-0.67679,-0.64394 0.34762,-1.61863 1.02441,-0.97469l6.25106,5.95057c1.13208,1.07713 2.96249,1.07713 4.09457,0s1.13208,-2.81869 0,-3.89582l-7.69385,-7.32333c-0.67986,-0.63809 0.34762,-1.61863 1.02441,-0.97469l8.30603,7.9058c1.13208,1.07713 2.96249,1.07713 4.09457,0c1.10132,-1.04201 1.11055,-2.69868 0.08306,-3.77874l0,-0.00001z" />
 </g>
</svg>