<svg xmlns="http://www.w3.org/2000/svg" width='100%' height='100%' viewBox='-5 -5 85 85' preserveAspectRatio='none'>
 <g>
  <path  d="m0.88292,19.04719l0,8.90358l14.32133,0l7.00016,20.07599l39.41118,0l12.92199,-30.5242l-61.26923,0l0,1.54438l-12.38542,0l0,0.00024zm32.72311,38.84583c0,3.16062 -2.60316,5.72274 -5.81416,5.72274s-5.81441,-2.56236 -5.81441,-5.72274s2.60316,-5.72249 5.81441,-5.72249s5.81416,2.56211 5.81416,5.72249zm26.92775,0c0,3.16062 -2.60316,5.72274 -5.81416,5.72274s-5.81441,-2.56236 -5.81441,-5.72274s2.6034,-5.72249 5.81441,-5.72249s5.81416,2.56211 5.81416,5.72249z"  />
 </g>
</svg>