<svg xmlns="http://www.w3.org/2000/svg" width='100%' height='100%' viewBox='-5 -5 85 85' preserveAspectRatio='none'>
 <g stroke="null" id="svg_1">
   <g stroke="null" id="svg_2">
    <path stroke="null" id="svg_3" d="m11.72819,43.58303c0,0.15234 0,0.30558 0,0.45702c-0.06471,-0.15144 -0.03685,-0.30647 0,-0.45702z" fill="#000000" clip-rule="evenodd" fill-rule="evenodd"/>
    <path stroke="null" id="svg_4" d="m15.79255,36.52787c-0.03146,0.03047 -0.06202,0.05914 -0.08898,0.08603c-0.02696,-0.0699 -0.01258,-0.11291 0.08898,-0.08603z" fill="#000000" clip-rule="evenodd" fill-rule="evenodd"/>
    <path stroke="null" id="svg_5" d="m11.70752,44.35549c-0.03775,-0.07169 -0.03955,-0.12635 0.0018,-0.19535c0.03595,0.06631 0.04494,0.12008 -0.0018,0.19535z" fill="#000000" clip-rule="evenodd" fill-rule="evenodd"/>
    <path stroke="null" id="svg_6" d="m74.09753,45.42098c-0.09887,-0.05198 -0.0755,-0.13979 -0.0755,-0.21776c-0.0009,-0.46688 0.0018,-0.93645 -0.0018,-1.40333c-0.0009,-0.07617 0.02696,-0.15772 -0.03056,-0.23837c-0.12134,0 -0.24627,0 -0.38109,0c0,-1.76267 0,-3.51369 0,-5.26471c0,-0.00807 -0.00539,-0.01792 -0.01079,-0.02509c-0.00539,-0.00807 -0.01438,-0.01344 -0.03415,-0.03136c-0.32806,0 -0.6705,0 -1.02193,0c0,-0.716 0,-1.41946 0,-2.11843c-0.09707,-0.05108 -0.20313,0.01255 -0.29481,-0.04839c0.01528,-0.10753 -0.02607,-0.22134 0.05393,-0.31633c-0.07909,-0.04301 -0.16808,0.0242 -0.23099,-0.05287c0.02337,-0.19356 -0.0036,-0.37996 -0.08539,-0.56097c-0.10067,0.02868 -0.15909,-0.03943 -0.2211,-0.10305c-0.33076,-0.34142 -0.67769,-0.66492 -1.05878,-0.9481c-0.05662,-0.04122 -0.02067,-0.11739 -0.05393,-0.13083c-0.52849,0 -1.02733,0 -1.52346,0c-0.00539,0.06004 -0.00989,0.10753 -0.01348,0.15593c-0.05573,0.00627 -0.10067,0.01255 -0.1465,0.01792c-0.00809,0.00717 -0.01528,0.01523 -0.02157,0.02151c-0.31817,0.31812 -0.62826,0.64431 -0.9725,0.93465c-0.07011,0.05825 -0.1501,0.0233 -0.20942,0.08065c0,0.12815 0.0027,0.25719 -0.0009,0.38533c-0.0036,0.14965 -0.02607,0.16578 -0.23998,0.17116c0,-0.51258 0,-1.02516 0,-1.54133c-0.55096,0 -1.08125,0.0009 -1.61244,-0.0009c-0.08089,0 -0.15729,-0.00269 -0.2229,0.12008c0,3.67231 0,7.38494 -0.0009,11.09667c0,0.00627 -0.01438,0.01255 -0.02067,0.01882c-0.04674,-0.00986 -0.09797,0.02151 -0.1483,-0.03405c0,-1.19005 0,-2.39264 0,-3.61585c-0.16268,0 -0.31548,0 -0.46917,0c0,-0.2993 -0.0009,-0.578 0.0018,-0.8558c0,-0.01255 0.02607,-0.0233 0.04045,-0.03495c0.05573,-0.0242 0.07011,0.05287 0.11684,0.04839c0.02876,-0.0242 0.02696,-0.06362 0.01348,-0.08065c-0.0755,-0.08603 -0.16538,-0.15861 -0.20852,-0.27242c-0.02607,-0.06542 -0.11235,-0.07975 -0.1501,-0.05018c-0.10156,0.08424 -0.19144,-0.05646 -0.27773,-0.00269c-0.11055,0.06811 -0.19863,-0.01882 -0.30739,-0.01344c0,-0.79665 0,-1.57986 0,-2.36486c-0.61568,0 -1.21877,0 -1.82546,0c0,0.20252 0,0.39071 0,0.57979c0,0.18908 -0.00449,0.37816 0.0009,0.56724c0.00629,0.18819 0.02696,0.38175 0.01977,0.56276c-0.00719,0.18191 0.0009,0.3692 -0.02067,0.55201c-0.00719,0.05646 0.02247,0.11918 -0.02517,0.16937c-0.09078,0.02688 -0.14201,-0.06631 -0.24088,-0.06273c-0.40176,0.01703 -0.80532,0.01255 -1.20888,0.00179c-0.0728,-0.00179 -0.13033,0.08961 -0.2229,0.01255c-0.05483,-0.0466 -0.16897,0.01434 -0.24987,-0.03047c0,-0.13352 0,-0.26256 0,-0.39161c0,-0.11918 0,-0.23926 0,-0.35845c0,-0.12994 0,-0.25898 0,-0.38892c0,-0.11918 0,-0.23926 0,-0.35845c0,-0.12994 0,-0.25898 0,-0.38802c0,-0.12008 -0.04224,-0.26346 0.00989,-0.35307c0.0773,-0.13442 -0.03415,-0.2312 -0.01079,-0.34411c0.00989,-0.0466 -0.01977,-0.10037 0.02607,-0.1389c0.03326,-0.02778 0.05213,-0.07169 0.02247,-0.09947c-0.08718,-0.08424 -0.04584,-0.18639 -0.04674,-0.27959c-0.00449,-0.58786 -0.0018,-1.17571 -0.0027,-1.76267c0,-0.07796 -0.00539,-0.15593 -0.01258,-0.23478c-0.0018,-0.0224 -0.05393,-0.02509 -0.02517,-0.07259c0.02786,-0.02688 0.06381,-0.06094 0.11145,-0.10574c-0.04674,-0.05646 -0.02786,-0.13531 -0.05033,-0.19535c-0.03236,-0.08872 -0.02067,-0.17295 -0.02157,-0.25898c-0.0027,-0.82622 -0.0018,-1.65245 -0.0009,-2.47957c0,-0.10126 -0.01887,-0.20521 0.04314,-0.29751c-0.10067,-0.08334 0.0027,-0.21059 -0.071,-0.31454c-0.35862,0.00986 -0.72803,-0.01255 -1.10552,0.01523c0,0.24554 0,0.47226 0,0.70883c-0.13572,0 -0.26065,0 -0.3757,0c-0.09437,0.09499 -0.17706,0.17922 -0.27144,0.27421c0,0.1165 0,0.24285 0,0.37996c-0.13482,0 -0.26065,0 -0.37839,0c-0.09527,0.11112 -0.21481,0.18639 -0.24537,0.33425c0.05393,0.03674 0.03595,0.10574 0.04584,0.17206c0.01708,0.12277 -0.03505,0.22224 -0.08539,0.32171c-0.46018,0 -0.91947,0 -1.38954,0c0,-0.19356 0,-0.37996 0,-0.52065c-0.11774,-0.11918 -0.20582,-0.20969 -0.31009,-0.31454c-0.09347,0 -0.21032,0 -0.33615,0c0,-0.13173 0,-0.25898 0,-0.34859c-0.11325,-0.1147 -0.20313,-0.20521 -0.31368,-0.31723c-0.09707,0 -0.22021,0 -0.35413,0c0,-0.24195 0,-0.46778 0,-0.70256c-0.1474,0 -0.28312,0 -0.42064,0c-0.12853,0 -0.26964,-0.03405 -0.38109,0.00896c-0.12943,0.04839 -0.24357,-0.07079 -0.36851,0.01882c0,0.0914 0,0.18908 0,0.28676c0,0.19984 0,0.39877 0,0.59771c0,0.19984 0,0.39877 0,0.59771c0,0.2088 0,0.41849 0,0.62729c0,0.19984 0,0.39788 0,0.59771c0,0.19984 0,0.39877 0,0.59771c0,0.19984 0,0.39877 0,0.59771c0,0.2088 0,0.41759 0,0.62729c0,0.19894 0,0.39788 0,0.59771s0,0.39877 0,0.59771s0,0.39877 0,0.59771c0,0.20969 0,0.41849 0,0.62729c0,0.19894 0,0.39877 0,0.59771s0,0.39788 0,0.59771s0,0.39877 0,0.59771c0,0.2088 -0.00809,0.41938 0.0018,0.62729c0.00899,0.19446 0.0027,0.39071 0.01708,0.58517c0.01258,0.18012 -0.01798,0.37279 -0.01887,0.56008c-0.0009,0.84683 0,1.69277 -0.0009,2.53961c-0.0009,0.04301 0.02517,0.10126 -0.04494,0.12546c-0.12134,-0.02151 -0.13482,-0.10664 -0.13302,-0.21597c0.00449,-0.34501 0.0018,-0.69091 0.0018,-1.04577c-0.13122,0 -0.23638,0 -0.35502,0c0,-0.13711 0,-0.26525 0,-0.3925c0,-0.13979 0,-0.27959 0,-0.41849c0,-0.12994 0.02427,-0.26615 -0.00719,-0.38712s0.01079,-0.22761 0.00809,-0.34053c-0.0036,-0.1389 -0.0009,-0.27959 -0.0009,-0.41938c0,-0.12994 0,-0.25808 0,-0.38802s0,-0.25898 0,-0.38892s0,-0.25898 0,-0.38892c0,-0.1389 0,-0.27959 0,-0.41849c0,-0.12994 0,-0.25898 0,-0.38802s0,-0.25898 0,-0.38892c0,-0.13979 0,-0.27869 0,-0.41759c0,-0.12815 0,-0.25539 0,-0.32977c-0.07011,-0.18998 -0.21571,-0.08424 -0.30559,-0.16309c0,-0.64073 0,-1.28414 0,-1.93114c-0.03955,-0.00179 -0.06741,-0.00448 -0.09617,-0.00538c-0.03685,-0.0009 -0.0746,0 -0.11055,0c-0.02157,-0.18908 -0.02157,-0.18819 -0.2238,-0.3002c-0.01438,-0.00807 -0.02966,-0.02957 -0.02966,-0.04481c0.0027,-0.14338 -0.13572,-0.02599 -0.17347,-0.10037c-0.0036,-0.06362 -0.00719,-0.13083 -0.01258,-0.22582c-0.05932,0.03584 -0.11684,-0.01703 -0.17706,0.05287c0,0.05556 0,0.12187 0,0.18639c-0.02786,0.00627 -0.05033,0.01882 -0.06381,0.01255c-0.25166,-0.10216 -0.51501,-0.04481 -0.77297,-0.05735c-0.12583,-0.00627 -0.19055,0.08155 -0.24537,0.17833c-0.06651,0.00986 -0.13572,-0.01882 -0.20762,0.02599c0,0.08155 0,0.16847 0,0.2769c-0.10246,0 -0.19684,0 -0.2993,0c0,0.72586 0,1.42931 0,2.13456c-0.37929,0 -0.7469,0 -1.12529,0c0,-0.06094 0,-0.10843 0,-0.16757c-0.35862,0.00717 -0.70645,-0.00717 -1.05519,0.00896c0,0.7617 0,1.49832 0,2.23403c-0.02786,0.02868 -0.05662,0.05646 -0.08089,0.08155c-0.13752,0.02061 -0.26784,0.01613 -0.39277,-0.08065c0,-0.21865 0,-0.44448 0,-0.69091c-0.25975,0 -0.51052,0 -0.77117,0c0,-0.3477 0,-0.67299 0,-1.00455c-0.08449,-0.02509 -0.1483,0.00179 -0.23279,0.05646c0,-1.04577 0,-2.07631 0,-3.10596c-0.5195,0 -1.01834,0 -1.53784,0c0,1.69367 0,3.38107 0,5.05861c-0.2238,0.05018 -0.4458,-0.05018 -0.64624,0.08334c0,1.13359 0,2.25643 0,3.38017c-0.05662,0.03943 -0.12763,-0.01255 -0.17796,0.05018c0.06022,0.12635 -0.09078,0.05646 -0.12403,0.13979c0,0.24016 0,0.50541 0,0.77425c-0.08449,0.00627 -0.16088,0.03047 -0.22829,-0.01971c0,-3.98684 0,-7.9701 0,-11.91125c-0.05393,-0.16847 -0.15369,-0.25898 -0.24268,-0.3459c0.05303,-0.13263 0.01887,-0.21417 -0.11415,-0.30199c0,-0.37637 0,-0.75453 0,-1.12911c-0.19863,-0.2321 -0.21751,-0.3226 -0.11684,-0.53409c-0.0764,-0.08872 -0.12314,-0.18639 -0.11774,-0.30827c0.00449,-0.11829 0.0009,-0.23747 0.0009,-0.35038c-0.06112,-0.06183 -0.11774,-0.11829 -0.18156,-0.1846c0.01348,-0.1156 0.03775,-0.29393 -0.06022,-0.33873c-0.12853,-0.05735 -0.13841,-0.22313 -0.28851,-0.24375c-0.00539,-0.19804 0.00809,-0.39967 -0.05303,-0.59771c-0.02157,-0.0699 -0.0737,-0.12635 -0.06921,-0.21238c0.01079,-0.26794 0.01258,-0.53767 -0.0009,-0.80561c-0.00449,-0.08155 0.11505,-0.12725 0.05842,-0.18012c-0.10606,-0.09947 -0.01168,-0.2303 -0.08269,-0.34232c-0.05752,0.07438 0.0018,0.16847 -0.04045,0.22134c-0.10067,0.12725 -0.0773,0.28765 -0.03865,0.39429c0.08089,0.22582 0.02157,0.44716 0.04674,0.66671c0.0036,0.02688 0.0009,0.07259 -0.01438,0.08155c-0.12583,0.07079 -0.09797,0.19984 -0.10246,0.30647c-0.11774,0.03316 -0.15819,-0.07348 -0.23279,-0.07707c-0.01258,-0.05735 0.01887,-0.11202 -0.03236,-0.14965c-0.07011,0.06273 -0.0018,0.15144 -0.04134,0.22134c-0.06112,0.01971 -0.12673,0.04033 -0.16628,0.11022c0,0.08334 -0.01079,0.17385 0.0027,0.26167c0.01708,0.11202 -0.10965,0.14876 -0.11235,0.22045c-0.00449,0.10753 -0.15729,0.06721 -0.13752,0.18102c0.00809,0.04749 -0.13033,0.01344 -0.08898,0.05646c0.0737,0.07707 -0.02337,0.09409 -0.02067,0.14069c0.0036,0.05646 0.01887,0.11739 -0.01528,0.17206c-0.02696,0.00717 -0.05393,0.01344 -0.07999,0.02151c-0.00809,0.00269 -0.01348,0.01434 -0.01977,0.02151c0,0.17833 0,0.35755 0,0.57173c-0.02876,0.01882 -0.07999,0.05198 -0.12224,0.07886c0,0.17474 0,0.33246 0,0.52244c-0.03326,0.01971 -0.08359,0.05018 -0.12134,0.07259c0,0.40505 0,0.78142 0,1.11926c-0.11055,0.0923 -0.16897,0.17385 -0.17077,0.29393c0,0.03764 0.02247,0.0914 -0.02157,0.10843c-0.18695,0.07348 -0.15369,0.23478 -0.15369,0.37996c-0.0009,1.09596 0,2.19102 -0.0018,3.28697c0,0.07527 0.02696,0.15682 -0.01708,0.21597c-0.27503,0 -0.53748,0 -0.80982,0c0,-0.854 0,-1.69725 0,-2.56112c-0.14381,0.01075 -0.27863,-0.02688 -0.40086,0.05108c-0.14021,-0.16668 -0.01887,-0.35934 -0.09437,-0.52602c-0.0755,0 -0.15369,0.00717 -0.23009,-0.0009c-0.24088,-0.02599 -0.43502,0.04839 -0.63096,0.19894c-0.20133,0.15503 -0.41165,0.33425 -0.71005,0.27601c0,1.58703 0,3.14807 0,4.70912c-0.11145,0.01434 -0.20582,0.04839 -0.302,0.11202c0,0.13979 0,0.28676 0,0.43193c-0.29121,0.01344 -0.29121,0.01344 -0.42513,-0.05018c-0.04045,-0.01971 -0.0782,-0.0457 -0.12044,-0.06542c-0.0719,-0.03405 -0.09887,0.1147 -0.16897,0.0242c-0.02786,-0.03584 -0.03955,0.01971 -0.06022,0.02868c-0.0746,0.03226 -0.1492,0.06542 -0.2211,0.09678c0,0.52692 0,1.04488 0,1.56104c-0.02966,0.02957 -0.05752,0.05646 -0.09527,0.09588c-0.13392,0 -0.27953,0 -0.43412,0c0,0.37637 0,0.74199 0,1.09237c-0.10246,0.15413 -0.24357,0.07527 -0.36132,0.0932c-0.08988,0.01344 -0.17527,0.0009 -0.23998,-0.11022c0,-0.24375 0,-0.50989 0,-0.78679c-0.58781,0 -1.16574,0 -1.74007,0c-0.05483,-0.44627 -0.10156,-0.88178 -0.07999,-1.32357c0.0036,-0.07886 0.00539,-0.15951 -0.0018,-0.23837c-0.0027,-0.03136 -0.03146,-0.06004 -0.04494,-0.08334c0.02966,-0.07438 0.08179,-0.12008 0.0782,-0.21597c-0.0036,-0.0932 -0.04494,-0.17564 -0.03505,-0.27063c0.01348,-0.11829 0.0036,-0.23926 0.0036,-0.35755c0,-1.5933 0,-3.1875 -0.0009,-4.77991c0,-0.08603 0.02337,-0.17564 -0.02696,-0.26794c-1.03002,0 -2.06004,0 -3.09995,0c0,-0.2769 0,-0.54305 0,-0.80651c-0.09078,-0.05287 -0.20942,0.02599 -0.27323,-0.08513c-0.01258,-0.02151 -0.02607,-0.02957 0.01168,-0.05466c0.05662,0.01703 0.09707,-0.00986 0.08359,-0.0914c-0.02247,-0.05198 -0.09887,-0.00538 -0.12044,-0.07527c0.02607,-0.09499 0.12224,-0.19446 0.04045,-0.30199c-0.21122,0 -0.41435,0 -0.61388,0c-0.05932,0.12546 0.03056,0.22403 0.04584,0.31185c-0.04134,0.05825 -0.12583,0.00807 -0.11954,0.0932c-0.02427,0.10037 0.16808,0.03316 0.11505,0.15772c-0.06112,0.06183 -0.1492,-0.00358 -0.23728,0.05108c0,1.65514 0,3.32282 0,4.98871c-0.08718,0.00448 -0.15369,0.00807 -0.23998,0.01344c0,0.62012 0,1.23217 0,1.83436c-0.46018,0 -0.90059,0 -1.35089,0c0,-0.47494 0,-0.94003 0,-1.41229c-0.83049,0 -1.65109,0 -2.48248,0c0,1.13359 0,2.25643 0,3.38107c-0.10426,0 -0.19594,0 -0.29121,0c0,-1.23754 0,-2.46254 0,-3.68664c0,-0.0699 -0.00719,-0.14069 0.0018,-0.2088c0.00899,-0.07527 -0.04494,-0.10395 -0.09168,-0.15682c-0.31278,0 -0.63455,0 -0.97699,0c0,-1.4786 0,-2.94734 0,-4.41161c-0.93295,0 -1.84523,0 -2.75032,0c-0.04674,0.05556 0.01168,0.12815 -0.03595,0.1613c-0.11774,0 -0.2238,0 -0.32177,0c-0.03865,-0.05735 0.01528,-0.13083 -0.04674,-0.16847c-0.35592,0 -0.71005,0 -1.09114,0c0,0.12008 0,0.21955 0,0.31812c0,0.12994 0,0.25898 0,0.38802s0,0.25898 0,0.38892c0,0.12904 0,0.25898 0,0.38892c0,0.12994 0,0.25898 0,0.38802s0,0.25898 0,0.38802c0,0.12994 0,0.25898 0,0.38892c0,0.12994 0,0.25898 0,0.38892s0,0.25898 0,0.38802c0,0.12994 0,0.25898 0,0.38892c0,0.12904 0,0.25898 0,0.38802c0,0.1389 0,0.27869 0,0.41849c0,0.12904 0,0.25898 0,0.38802c0,0.12994 0,0.25988 0,0.38892c0,0.12994 0,0.25898 0,0.38892c0,0.12904 0,0.25898 0,0.38802c0,0.12994 0,0.25898 0,0.38892c0,0.12904 0,0.25808 0,0.38802s-0.00629,0.25988 0.0018,0.38892c0.00719,0.12546 0.0036,0.24912 0.02067,0.37547c0.01438,0.10753 -0.02247,0.23478 -0.02247,0.35397c0,1.10581 0,2.21073 0,3.31655c0,0.08692 0,0.17385 0,0.25629c-0.11864,0.01703 -0.21571,0.03405 -0.30289,-0.09678c0,-0.81995 0,-1.67037 0,-2.53154c-0.10696,0 -0.19324,0 -0.28851,0c0,-0.23658 0,-0.46329 0,-0.70525c-0.21301,-0.11918 -0.44131,-0.0466 -0.65792,-0.05825c-0.23189,-0.01344 -0.46468,-0.00269 -0.70735,-0.00269c0,0.27421 0,0.52065 0,0.77335c-0.10336,-0.0009 -0.19774,0.02061 -0.2984,-0.01882c0,-0.57441 0,-1.13897 0,-1.71338c-0.31278,0 -0.61568,0 -0.93385,0c0,-0.14786 0,-0.28497 0,-0.42297c0,-0.12994 0,-0.25808 0,-0.38802c0,-0.13979 0,-0.27959 0,-0.41849c0,-0.12994 0,-0.25898 0,-0.38892c0,-0.13979 0,-0.27869 0,-0.41849c0,-0.1389 0.00719,-0.27959 -0.0018,-0.41759c-0.00899,-0.12366 0.04854,-0.25629 -0.04404,-0.3692c0.0773,-0.12187 0.03955,-0.25808 0.04494,-0.38892c0.00539,-0.12904 0.0009,-0.25898 0.0009,-0.38802c0,-0.1389 0,-0.27869 0,-0.41849c0,-0.12904 0,-0.25898 0,-0.38802c0,-0.138 0,-0.27601 0,-0.43462c-0.24178,0 -0.47277,0 -0.70825,0c0,-0.11022 0.00539,-0.19894 -0.0018,-0.28765c-0.00719,-0.0932 0.04134,-0.19984 -0.05573,-0.27511c0.11954,-0.13173 0.03775,-0.17654 -0.08539,-0.21417c-0.03326,-0.00986 -0.05303,-0.05825 -0.08628,-0.07617c-0.16808,-0.09051 -0.2966,-0.23389 -0.44401,-0.34949c-0.15459,-0.12098 -0.35053,-0.2079 -0.45659,-0.40684c0,-0.14786 0,-0.30558 0,-0.45523c-0.04134,-0.04212 -0.0764,-0.07707 -0.11145,-0.11291c0,-0.4382 0,-0.87551 -0.0009,-1.31371c0,-0.00717 -0.01168,-0.01613 -0.01977,-0.02061c-0.03236,-0.0224 -0.00809,0.04033 -0.03056,-0.02957c0,0.47674 0,0.92301 0,1.37823c-0.24357,0.05646 -0.03505,0.25719 -0.12314,0.37279c-0.02696,0.03405 0.03505,0.06183 0.06561,0.10753c-0.33166,0.40505 -0.77207,0.68284 -1.1954,1.00366c0,0.21865 0,0.44448 0,0.68105c-0.21391,0 -0.41794,0 -0.55636,0c-0.17886,0.05735 -0.14561,0.15861 -0.1474,0.24464c-0.0018,0.11022 0,0.21865 0,0.32888c0,0.10933 0,0.21955 0,0.32888c0,0.11022 0,0.21955 0,0.32888c0,0.09947 0,0.19894 0,0.29841c0,0.10933 0,0.21955 0,0.32888c0,0.10933 -0.03326,0.23568 0.00989,0.3235c0.05573,0.11202 -0.04854,0.18819 -0.01258,0.28497c0.01618,0.04301 -0.01079,0.11381 0.01438,0.14159c0.06112,0.06721 0.06292,0.1156 -0.00719,0.16847c0.08808,0.06452 -0.01708,0.12277 -0.00719,0.18729c0.01168,0.07796 0.0027,0.15861 0.0027,0.23926c0,0.5072 0,1.01531 0,1.52341c0,0.95616 -0.0009,1.91322 0.0018,2.86848c0,0.08334 -0.02696,0.16757 0.03685,0.2545c0.05752,0.07975 -0.0737,0.1622 -0.04134,0.26436c0.02067,0.06721 -0.05033,0.0932 -0.08898,0.13173c-0.02876,-0.02868 -0.05662,-0.05735 -0.09437,-0.09499c0,-0.43462 0,-0.87999 0,-1.33522c-0.50063,0 -0.99137,0 -1.48212,0c-0.03685,0 -0.04134,0.06273 -0.10786,0.03943c0,-1.68202 0,-3.36942 0,-5.0595c-0.09887,0 -0.20223,0.03136 -0.25076,-0.00717c-0.08269,-0.06631 -0.18695,-0.01434 -0.24088,-0.05914c-0.08359,-0.0699 -0.17167,-0.0242 -0.24537,-0.05646c-0.20582,-0.08603 -0.42873,-0.10037 -0.64084,-0.1622c-0.19414,-0.05556 -0.39727,-0.09409 -0.5977,-0.12904c-0.15729,-0.02688 -0.31728,0.01971 -0.47816,0.0457c-0.23908,0.03853 -0.47636,0.09768 -0.71005,0.15144c-0.35952,0.08244 -0.71544,0.17833 -1.08934,0.23658c0,0.49107 0,0.97588 0,1.48308c-0.16268,0 -0.31548,0 -0.47546,0c0,1.00455 0,1.9867 0,2.9796c-0.56085,0 -1.11001,-0.0009 -1.66008,0c-0.00809,0 -0.01798,0.00627 -0.02427,0.01255c-0.00719,0.00538 -0.01168,0.01434 -0.02067,0.02688c0.01079,0.07886 0.06831,0.14428 0.06741,0.23926c-0.00719,0.8549 -0.00449,1.7107 -0.00449,2.57008c-0.05033,0.01703 -0.05932,0.08424 -0.13572,0.07886c-0.04134,-0.00269 -0.05752,-0.05914 -0.09258,-0.08244c0,-2.8192 0,-5.63481 0,-8.44684c0.04314,-0.01523 0.0773,-0.02688 0.09887,-0.03495c0,-0.25719 0,-0.50362 0,-0.75901c-0.27503,-0.16578 -0.58332,-0.207 -0.88352,-0.2312c-0.3721,-0.02957 -0.7478,-0.00717 -1.1208,-0.00538c-0.01618,0 -0.03236,0.01703 -0.04854,0.02509c-0.00449,0.03674 0.00629,0.08065 -0.04943,0.0932c-0.0764,-0.00179 -0.11415,-0.05198 -0.13392,-0.13263c0.01887,-0.02688 0.04045,-0.05646 0.0737,-0.10216c-0.0782,-0.08244 -0.09977,-0.18281 -0.02517,-0.28765c-0.09347,-0.0923 -0.03236,-0.20611 -0.04224,-0.31006c-0.01168,-0.11829 -0.0027,-0.23926 -0.0027,-0.35845c0,-0.10933 0,-0.21955 0,-0.32798c0,-0.12008 0,-0.23926 0,-0.35845s0,-0.23926 0,-0.35845c0,-0.10933 0,-0.21955 0,-0.32888c0,-0.11918 0,-0.23926 0,-0.35845c0,-0.10933 -0.0009,-0.21955 0,-0.32888c0.0018,-0.10933 -0.02247,-0.22224 0.05123,-0.32171c-0.04494,-0.01434 -0.04674,-0.07438 -0.11774,-0.04839c0,1.2241 0,2.45268 0,3.6508c-0.70106,0.13442 -1.37696,0.26346 -2.06004,0.39429c0,1.65693 0,3.29773 0,4.94211c-0.10156,0.03764 -0.23548,-0.03584 -0.302,0.15593c0,1.26712 0,2.58889 0,3.90619c-0.04134,0.0224 -0.08808,0.00448 -0.09887,0.02509c0,1.72145 0,3.4205 0,5.12044c1.42459,0.05018 73.73643,0.02778 74.00967,-0.01971c0,-1.70173 0,-3.40168 0,-5.11237c-0.11415,-0.01075 -0.21841,-0.01075 -0.32447,-0.01075z" clip-rule="evenodd" fill-rule="evenodd"/>
   </g>
  </g>
</svg>