<svg xmlns="http://www.w3.org/2000/svg" width='100%' height='100%' viewBox='-5 -5 85 85' preserveAspectRatio='none'>
 <g>
  <path  d="m37.58334,6.81944c16.96321,0 30.76389,13.80068 30.76389,30.76389s-13.80068,30.76389 -30.76389,30.76389s-30.76389,-13.80068 -30.76389,-30.76389s13.80068,-30.76389 30.76389,-30.76389zm0,-6.15278c-20.38723,0 -36.91667,16.52944 -36.91667,36.91667s16.52944,36.91667 36.91667,36.91667s36.91667,-16.52944 36.91667,-36.91667s-16.52944,-36.91667 -36.91667,-36.91667zm16.94167,42.88794c-4.6515,3.67628 -9.76446,5.94051 -16.9386,5.94051c-7.18029,0 -12.29325,-2.26422 -16.94475,-5.94051l-1.51666,1.51666c3.46709,5.29139 9.84445,10.9704 18.46141,10.9704c8.61389,0 14.98817,-5.67901 18.45526,-10.9704l-1.51666,-1.51666zm-27.70904,-18.27683c-2.54725,0 -4.61458,2.06426 -4.61458,4.61458s2.06733,4.61458 4.61458,4.61458s4.61458,-2.06426 4.61458,-4.61458s-2.06733,-4.61458 -4.61458,-4.61458zm21.53472,0c-2.54725,0 -4.61458,2.06426 -4.61458,4.61458s2.06733,4.61458 4.61458,4.61458s4.61458,-2.06426 4.61458,-4.61458s-2.06733,-4.61458 -4.61458,-4.61458z" />
 </g>
</svg>