<svg xmlns="http://www.w3.org/2000/svg" width='100%' height='100%' viewBox='-5 -5 85 85' preserveAspectRatio='none'>
 <g>
<path  id="svg_1" d="m74.16767,64.34397c-1.6053,0 -3.13652,-0.36086 -4.51008,-0.98944c-1.40069,-0.63877 -2.98985,-1.02437 -4.65015,-1.02437c-1.66543,0 -3.25386,0.3885 -4.65675,1.02437c-1.37209,0.62859 -2.90405,0.98944 -4.51008,0.98944c-1.6053,0 -3.14239,-0.36086 -4.51008,-0.98944c-1.42489,-0.63877 -3.01405,-1.02437 -4.65602,-1.02437c-1.65956,0 -3.24946,0.3885 -4.65822,1.02437c-1.36622,0.62859 -2.92019,0.98944 -4.50935,0.98944c-1.60676,0 -3.13726,-0.36086 -4.52255,-0.98944c-1.40802,-0.63877 -2.99205,-1.02437 -4.63768,-1.02437c-1.6603,0 -3.25019,0.3885 -4.65822,1.02437c-1.36696,0.62859 -2.92092,0.98944 -4.52841,0.98944c-1.58256,0 -3.13652,-0.36086 -4.50421,-0.98944c-1.40729,-0.63877 -2.99645,-1.02437 -4.65675,-1.02437c-1.64783,0 -3.23039,0.3885 -4.63915,1.02437c-1.38969,0.62859 -2.92019,0.98944 -4.52768,0.98944l0,-6.78933c1.60603,0 3.13726,-0.37031 4.52768,-0.97417c1.40876,-0.65623 2.99132,-1.04255 4.63915,-1.04255c1.6603,0 3.24946,0.38559 4.65675,1.04255c1.36769,0.60385 2.92092,0.97417 4.50421,0.97417c1.60603,0 3.16146,-0.37031 4.52841,-0.97417c1.40729,-0.65623 2.99719,-1.04255 4.65822,-1.04255c1.64563,0 3.22966,0.38559 4.63768,1.04255c1.38602,0.60385 2.91579,0.97417 4.52255,0.97417c1.58916,0 3.14312,-0.37031 4.50935,-0.97417c1.40876,-0.65623 2.99865,-1.04255 4.65822,-1.04255c1.64123,0 3.22966,0.38559 4.65602,1.04255c1.36769,0.60385 2.90478,0.97417 4.51008,0.97417c1.60603,0 3.13799,-0.37031 4.51008,-0.97417c1.40289,-0.65623 2.99132,-1.04255 4.65675,-1.04255c1.6603,0 3.24946,0.38559 4.65015,1.04255c1.37356,0.60385 2.90478,0.97417 4.51008,0.97417l0,6.78933z"/>
   <path  id="svg_3" d="m63.54661,45.13785c4.81515,0 8.72315,-3.9374 8.72315,-8.76967c0,-4.83518 -3.90727,-8.7544 -8.72315,-8.7544c-4.82542,0 -8.72755,3.91922 -8.72755,8.7544c-0.00073,4.83227 3.55746,8.76967 8.72755,8.76967z"/>
   <path  id="svg_4" d="m12.73525,50.06542c0.67761,0.16369 1.31489,0.39942 1.92283,0.67442c1.36622,0.62059 2.92092,0.99017 4.50495,0.99017c1.6053,0 3.16072,-0.37031 4.52768,-0.99017c1.40729,-0.64023 2.99645,-1.04474 4.65675,-1.04474c1.6471,0 3.23112,0.40451 4.63842,1.04474c1.38456,0.62059 2.91505,0.99017 4.52181,0.99017c1.58916,0 3.14312,-0.37031 4.51008,-0.99017c1.40802,-0.64023 2.99792,-1.04474 4.65748,-1.04474c1.64123,0 3.23039,0.40451 4.65675,1.04474c1.36769,0.62059 2.90405,0.99017 4.51008,0.99017c1.16749,0 2.29611,-0.20007 3.35799,-0.53328l-14.55326,-26.34394l16.92563,-3.09856c2.48384,-0.47581 4.28861,-2.4336 4.28861,-4.9414c0,-2.76462 -2.24331,-4.97996 -4.98309,-4.97996c-0.19874,0 -0.38134,0 -0.56761,0.01673l-26.14526,4.77552c-1.83483,0.42124 -4.26514,3.11675 -2.88132,6.42629c0.07627,0.18261 0.14594,0.35213 0.22294,0.53328l6.82379,12.35859l-25.59525,14.12213z"/>
</g>
   </svg>