<svg xmlns="http://www.w3.org/2000/svg" width='100%' height='100%' viewBox='-5 -5 85 85' preserveAspectRatio='none'>
 <g>
  <path  d="m45.41117,43.65608l0,-34.62947c0,-4.47816 -3.72695,-8.10425 -8.30634,-8.10425c-4.5893,0 -8.30138,3.6261 -8.30138,8.10425l0,34.35594c-5.21872,2.7934 -8.7623,8.20834 -8.7623,14.42935c0,9.08219 7.53815,16.44331 16.83322,16.44331c9.30003,0 16.83322,-7.36112 16.83322,-16.44331c0.00248,-6.03462 -3.33542,-11.29948 -8.29643,-14.15582zm-8.53432,27.90013c-7.75374,0 -14.06527,-6.16775 -14.06527,-13.74915c0,-5.01554 2.80512,-9.63409 7.32009,-12.05229l1.43973,-0.76492l0,-35.96565c0,-2.97979 2.48546,-5.40042 5.54086,-5.40042c3.05045,0 5.53095,2.42063 5.53095,5.40042l0,36.16899l1.35796,0.78428c4.35141,2.50777 6.95334,6.92541 6.95334,11.8296c-0.00496,7.5814 -6.31896,13.74915 -14.07766,13.74915zm5.71928,-23.24769l-2.72335,-1.56614l0,-23.62288l-5.53343,0l0,23.46796l-2.87699,1.5371c-3.62783,1.9486 -5.88531,5.64974 -5.88531,9.6825c0,6.08545 5.07252,11.04047 11.29979,11.04047c6.23223,0 11.29979,-4.95502 11.29979,-11.04047c0.00496,-3.87784 -2.13358,-7.51604 -5.58051,-9.49853z"/>
 </g>
</svg>