<svg xmlns="http://www.w3.org/2000/svg" width='100%' height='100%' viewBox='-5 -5 85 85 ' preserveAspectRatio='none'>
 <g>
  <path  id="svg_2" d="m37.05722,0.66867l0,0l0,0l0,0z"/>
   <path  id="svg_3" d="m52.58525,56.44002c4.08558,-0.62941 8.14859,-4.69994 8.14859,-9.66152l0,-36.28027c0,-5.12078 -4.50676,-9.82293 -10.62735,-9.82293l-13.04927,-0.00663l-13.14581,0.00663c-6.12293,0 -10.63202,4.70215 -10.63202,9.82293l0,36.28027c0,4.96158 4.0669,9.03285 8.14937,9.66152l-12.24508,17.56011l7.06258,0l8.75894,-12.27571l11.99128,0l0.0109,0l0.0109,0l11.98895,0l8.75972,12.27571l7.06647,0l-12.24819,-17.56011zm-22.4785,-52.0288c0,-0.89105 0.8112,-1.63838 1.74618,-1.63838l5.14357,0l0.0109,0l0.0109,0l5.14591,0c0.93109,0 1.74073,0.74733 1.74073,1.63838l0,2.88173c0,0.89105 -0.76527,1.65681 -1.74073,1.65681l-5.14591,0l-0.0109,0l-0.0109,0l-5.14357,0c-0.98091,0 -1.74618,-0.76576 -1.74618,-1.65681l0,-2.88173zm-6.41798,46.73703c-2.57607,0 -4.66246,-1.9951 -4.66246,-4.45525c0,-2.45942 2.08717,-4.45673 4.66246,-4.45673c2.57451,0 4.65856,1.99731 4.65856,4.45673c0.00078,2.46015 -2.08405,4.45525 -4.65856,4.45525zm13.31863,-23.5712l-0.0109,0l-12.73242,0c-2.92562,0 -5.3234,-1.91992 -5.29694,-5.05739l0,-6.53068c0,-2.71516 1.83649,-5.08245 5.29694,-5.08245l12.73242,0l0.02102,0l12.73242,0c3.45733,0 5.2946,2.36729 5.2946,5.08245l0,6.53068c0.0288,3.13747 -2.36821,5.05739 -5.2946,5.05739l-12.73164,0l-0.0109,0zm8.55108,19.11594c0,-2.45942 2.08483,-4.45673 4.65934,-4.45673c2.5714,0 4.6609,1.99731 4.6609,4.45673c0,2.46237 -2.09028,4.45525 -4.6609,4.45525c-2.57451,0 -4.65934,-1.9951 -4.65934,-4.45525z"/> </g>
</svg>