<svg xmlns="http://www.w3.org/2000/svg" width='100%' height='100%' viewBox='-5 -5 85 85' preserveAspectRatio='none'>
 <g>
  <path d="m34.49661,0.63043l0,7.31383c-19.08208,1.0265 -34.11237,11.90977 -34.11237,25.18432c0,-2.39129 4.15362,-4.33348 9.26853,-4.33348c5.1179,0 9.27152,1.94219 9.27152,4.33348c0,-2.39129 4.15062,-4.33348 9.26853,-4.33348c2.43467,0 4.64774,0.45493 6.3038,1.17231l0,35.65932c0,1.59516 -1.32964,2.88704 -2.96473,2.88704c-1.63809,0 -2.96773,-1.29188 -2.96773,-2.88704l0,-1.44644l-5.93246,0l0,1.44644c0,4.78549 3.98891,8.66987 8.90018,8.66987s8.89719,-3.88438 8.89719,-8.66987l0,-35.65932c1.65606,-0.7203 3.87212,-1.17231 6.30679,-1.17231c5.11191,0 9.27152,1.94219 9.27152,4.33348c0,-2.39129 4.15362,-4.33348 9.26553,-4.33348c5.12389,0 9.27751,1.94219 9.27751,4.33348c0,-13.27164 -15.03328,-24.1549 -34.11836,-25.18432l0,-7.31383l-5.93545,0z" />
 </g>
</svg>