<svg xmlns="http://www.w3.org/2000/svg" width='100%' height='100%' viewBox='-5 -5 85 85' preserveAspectRatio='none'>
 <g>
  <path  d="m0.69982,22.32473l0,30.28141l17.31801,0l25.92501,21.19239l0.01541,-72.66618l-25.92886,21.19239l-17.32957,0zm53.19848,-3.48221c-1.51412,-1.49183 -3.94519,-1.49183 -5.45161,0.00767c-1.50256,1.4995 -1.50256,3.92707 0.00771,5.43041l0,-0.00767c3.3249,3.31347 5.37456,7.85798 5.37456,12.90872c0,5.0469 -2.0458,9.57607 -5.36685,12.88954c-1.51798,1.49183 -1.51798,3.9194 -0.00771,5.42657c0.75128,0.74783 1.73758,1.12366 2.72388,1.12366c0.99015,0 1.97645,-0.37583 2.72773,-1.12366c4.70803,-4.67874 7.6284,-11.17912 7.62455,-18.31611c0.00385,-7.15233 -2.92807,-13.66038 -7.63226,-18.33912zm8.84201,-8.79756c-1.51412,-1.4995 -3.94519,-1.4995 -5.44391,0c-1.51027,1.4995 -1.51027,3.93091 0,5.42274c5.58646,5.56463 9.0308,13.21935 9.0308,21.71012c0,8.48309 -3.44434,16.13398 -9.02309,21.70245c-1.51027,1.49566 -1.51027,3.92324 0,5.42274c0.75128,0.74783 1.73758,1.12366 2.72773,1.12366c0.9863,0 1.9726,-0.37583 2.72388,-1.12366c6.96573,-6.93757 11.28464,-16.54816 11.27694,-27.12518c0.00385,-10.58469 -4.31506,-20.20295 -11.29235,-27.13285z"/>
 </g>
</svg>