<svg xmlns="http://www.w3.org/2000/svg" width='100%' height='100%' viewBox='-5 -5 85 85' preserveAspectRatio='none'>
 <g  id="svg_4">
   <path id="svg_2" d="m15.51339,1.45605l14.69646,14.96055c0,0 0,4.3787 -4.3014,9.12229c-4.65985,4.3787 -8.96126,4.3787 -8.96126,4.3787l-14.69646,-14.96055c-2.1507,8.3925 0.7169,18.60947 6.81056,24.81262c9.31971,9.48718 20.79012,1.09467 23.29927,3.64891c12.90421,13.13609 23.29927,26.63708 24.01617,27.36686c3.94295,4.01381 10.39506,4.01381 13.97956,0.36489c3.94295,-4.01381 3.5845,-10.21696 -0.35845,-14.23077c-0.35845,-0.36489 -14.33801,-11.67653 -27.24222,-24.81262c-2.50915,-2.55424 6.45211,-13.86588 -3.22605,-23.71795c-5.73521,-6.20316 -15.77181,-9.12229 -24.01617,-6.93294zm51.2584,61.30177c0,2.55424 -1.79225,4.3787 -4.3014,4.3787s-4.3014,-1.82446 -4.3014,-4.3787s1.79225,-4.3787 4.3014,-4.3787s4.3014,1.82446 4.3014,4.3787z"/>
       </g>
  </svg>