<svg xmlns="http://www.w3.org/2000/svg" width='100%' height='100%'  stroke-width="0.25" viewBox='-5 -5 85 85' preserveAspectRatio='none'>
 <g>
  <path d="m37.9292,0.79491c9.97471,0 18.06676,8.21761 18.06676,18.33733c0,10.11973 -8.09205,18.32943 -18.06676,18.32943c-9.97471,0 -18.06677,8.21761 -18.06677,18.33734c0,10.11973 8.09205,18.32943 18.06677,18.32943c19.94942,0 36.14131,-16.42732 36.14131,-36.66677c0,-20.23945 -16.1919,-36.66676 -36.14131,-36.66676l0,0zm0,12.60692c-3.1187,0 -5.6483,2.56637 -5.6483,5.73042c0,3.16405 2.52959,5.73042 5.6483,5.73042c3.11871,0 5.64829,-2.56637 5.64829,-5.73042c0,-3.16405 -2.52959,-5.73042 -5.64829,-5.73042zm0,36.66677c3.11709,0 5.64829,2.568 5.64829,5.73042c0,3.16241 -2.5312,5.73042 -5.64829,5.73042c-3.1171,0 -5.6483,-2.56801 -5.6483,-5.73042c0,-3.16241 2.53121,-5.73042 5.6483,-5.73042zm35.33069,-12.58356c0,20.22442 -16.16018,36.61954 -36.09478,36.61954c-19.9346,0 -36.09478,-16.39513 -36.09478,-36.61954c0,-20.22442 16.16019,-36.61956 36.09478,-36.61956c19.93461,0 36.09478,16.39513 36.09478,36.61956z" />
 </g>
</svg>