<svg xmlns="http://www.w3.org/2000/svg" width='100%' height='100%' viewBox='-5 -5 85 85' preserveAspectRatio='none'  fill-rule="evenodd" clip-rule="evenodd">
 <g>
      <path id="svg_1" d="m51.74903,31.06646c0.29533,0.00923 0.58067,0.03076 0.88292,0.03076c11.87179,0 21.53472,-6.90034 21.53472,-15.38195s-9.66294,-15.38195 -21.53472,-15.38195c-11.87717,0 -21.53472,6.90034 -21.53472,15.38195c0,5.70363 4.41769,10.85965 11.34265,13.52381c-0.60297,1.11673 -1.42437,1.99042 -2.39958,2.72568c-4.30694,-2.51956 -9.59218,-3.94393 -15.09584,-3.94393c-13.56995,0 -24.61111,8.27856 -24.61111,18.45833c0,10.18592 11.04116,18.45833 24.61111,18.45833c3.43633,0 6.74345,-0.51068 9.84137,-1.52589l18.62446,10.55894c0.24303,0.13459 0.50145,0.19612 0.76602,0.19612c0.3784,0 0.75679,-0.13844 1.04597,-0.40916c0.49222,-0.45531 0.62989,-1.18441 0.34148,-1.78354l-8.35932,-17.58849c1.54512,-2.45188 2.35113,-5.16526 2.35113,-7.90017c0,-3.00563 -1.00982,-5.90667 -2.83643,-8.53083c2.07349,-1.5505 4.01469,-3.81472 5.0299,-6.88804z"/>
 </g>
</svg>