<svg xmlns="http://www.w3.org/2000/svg" width='100%' height='100%' viewBox='-5 -5 85 85' preserveAspectRatio='none'>
 <g>
  <path  d="m72.83213,18.14827c-1.33125,-6.36279 -5.30757,-12.10716 -10.91525,-14.2016c-11.78798,-3.78343 -36.7119,-3.78343 -48.50061,0c-5.60696,2.09445 -9.58327,7.83963 -10.91525,14.2016c-1.55725,8.65054 -1.55725,17.59023 0,26.23995c1.33198,6.36279 5.30757,12.10716 10.91525,14.2016c2.64216,0.84777 5.94776,1.50387 9.61452,1.9724c0.06685,2.18537 -0.75573,5.51256 -4.55184,9.79729c-5.36425,6.05399 6.45934,2.19601 10.89636,-0.83794c3.66821,-2.50891 7.23033,-5.01946 10.55628,-8.11567c8.40171,-0.14252 16.57671,-1.07958 21.98529,-2.81607c5.60768,-2.09445 9.58327,-7.83881 10.91525,-14.2016c1.55652,-8.64972 1.55652,-17.58941 0,-26.23995z" />
 </g>
</svg>