<svg xmlns="http://www.w3.org/2000/svg" width='100%' height='100%' viewBox='-5 -5 85 85' preserveAspectRatio='none'>
 <g>
 <path  id="svg_1" d="m68.08829,6.64267l-67.76196,3.47146l1.72975,49.1075l4.39641,3.71467l9.09546,-1.48449l0.10997,4.07413l4.6999,3.98541l10.82691,-10.6813l41.61028,-6.89015l1.71099,-43.45405l-6.41771,-1.84318zm2.80988,43.8311l-40.06809,6.6347l-0.6479,0.10784l-0.44246,0.4367l-7.51149,7.40945l-0.07928,-4.39687l-0.03836,-2.06422l-2.26257,0.37017l-1.60699,0.26156l-2.73997,0.44741l-7.1577,1.1671l-1.37851,-46.73966l65.51559,-3.75061l-1.58227,40.11643z" />
  <path id="svg_4" d="m7.08335,14.00001c0,0 1.16667,46.66665 1.16667,46.66665c0,0 13.83333,-2.33333 13.83333,-2.33333c0,0 0.16667,6.5 0.16667,6.5c0,0 8,-7.66666 8,-7.66666c0,0 40.49998,-6.66666 40.49998,-6.66666c0,0 1.66667,-40.16665 1.66667,-40.16665c0,0 -65.33331,3.66667 -65.33331,3.66667z" fill="#ffffff"/>
   </g>
</svg>