<svg xmlns="http://www.w3.org/2000/svg" width='100%' height='100%' viewBox='-5 -5 85 85' preserveAspectRatio='none'>
 <g>
  <path d="m69.25985,27.8039a11.09183,11.11748 0 0 0 0.46702,-3.13843c0,-7.56415 -7.64222,-13.69206 -17.06762,-13.69206a20.28372,20.33063 0 0 0 -8.57627,1.87242a19.25414,19.29868 0 0 0 -12.30185,-4.2555a18.58545,18.62844 0 0 0 -13.92582,5.78748c-7.30256,1.55326 -12.73703,6.87263 -12.73703,13.22396a11.03876,11.06429 0 0 0 0.20167,2.00008a12.10018,12.12817 0 0 0 -3.91664,8.73441c0,6.17047 5.09481,11.39409 12.08956,13.09629l13.86213,15.44745l-3.25856,-15.59639l0.40334,-0.11703a19.40274,19.44762 0 0 0 11.85605,3.86186a18.68097,18.72418 0 0 0 13.69231,-5.5747a20.76136,20.80938 0 0 0 6.29421,0.97876c9.4254,0 17.06762,-6.12791 17.06762,-13.69206a12.17448,12.20264 0 0 0 -4.15015,-8.93654z"  />
 </g>
</svg>