<svg xmlns="http://www.w3.org/2000/svg" width='100%' height='100%' viewBox='-5 -5 85 85' preserveAspectRatio='none'>
 <g>
  <path  d="m8.71039,45.21502c-0.44325,1.26413 -0.62055,2.60727 -0.62055,3.95042c0,5.76761 3.81195,10.90315 9.66284,13.11538c-1.0638,3.16033 -2.8368,6.08364 -5.1417,8.76992c-0.3546,0.39504 -0.44325,1.02711 -0.26595,1.50116c0.26595,0.47405 0.79785,0.86909 1.4184,0.86909c0.79785,0.07901 1.68435,0.07901 2.4822,0.07901c7.97849,0 15.51374,-3.55537 19.94624,-9.481c2.57085,1.10612 5.40765,1.65917 8.33309,1.65917c10.28339,0 18.70514,-6.95273 19.59164,-15.95968c6.3828,-3.55537 10.28339,-9.79703 10.28339,-16.51274c0,-7.18976 -4.34385,-13.74745 -11.43584,-17.14481c-2.6595,-8.84893 -11.96774,-15.32762 -22.42843,-15.32762c-7.71254,0 -15.07049,3.55537 -19.23704,9.32298c-11.70179,0.47405 -21.09869,9.08596 -21.09869,19.67307c0,6.08364 3.10275,11.77224 8.51039,15.48563z" />
 </g>
</svg>