<svg xmlns="http://www.w3.org/2000/svg" width='100%' height='100%' viewBox='-5 -5 85 85' preserveAspectRatio='none'>
 <g>
  <path d="m9.61742,53.67027c0,3.39385 3.33315,6.17064 7.39796,6.17064c2.92667,0 5.52815,-1.48095 6.6663,-3.57897c1.30074,0.30853 2.76407,0.49365 4.14611,0.49365c5.77204,0 10.73111,-2.71508 13.3326,-6.66429c2.60148,3.64068 7.39796,6.04723 12.92611,6.04723c8.29222,0 15.03982,-5.61528 15.03982,-12.58811c0,-1.60437 -0.40648,-3.14703 -1.05685,-4.56627c3.65833,-2.28314 6.09722,-5.98552 6.09722,-10.11985c0,-6.97282 -6.74759,-12.58811 -15.03982,-12.58811c-3.90222,0 -7.47926,1.23413 -10.08074,3.27044c-2.35759,-4.50457 -7.72315,-7.7133 -13.98297,-7.7133c-5.85333,0 -10.975,2.77679 -13.41389,6.91112c-1.70722,-0.55536 -3.57704,-0.86389 -5.60945,-0.86389c-8.29222,-0.06171 -15.03982,5.55358 -15.03982,12.5264c0,6.04723 5.12167,11.10715 11.95056,12.34128c-0.0813,0.49365 -0.0813,0.9873 -0.0813,1.48095c0,1.41925 0.24389,2.77679 0.81296,4.01092c-2.43889,0.9873 -4.06482,3.08532 -4.06482,5.43016zm-8.12963,6.35576c0,2.03631 1.95111,3.64068 4.39,3.64068s4.39,-1.66607 4.39,-3.64068s-1.95111,-3.70238 -4.39,-3.70238s-4.39,1.66607 -4.39,3.70238z"  />
 </g>
</svg>