<svg xmlns="http://www.w3.org/2000/svg" width='100%' height='100%' viewBox='-5 -5 85 85' preserveAspectRatio='none'>
 <g>
  <path d="m14.47959,66.00014c-3.6752,-3.30878 -8.41212,-8.91932 -7.75875,-15.96846c0,-0.35965 0.08167,-0.7193 0.16334,-1.07895l0.08167,-0.50351l-0.32668,-0.43158c-3.1035,-4.10001 -5.0636,-8.77546 -5.71697,-13.52284c-0.81671,-5.82633 0.89838,-11.07722 4.98193,-15.1053c5.14528,-5.25089 13.63906,-8.05616 23.76627,-8.05616c2.61347,0 5.30862,0.21579 8.08543,0.57544c14.3741,2.01404 27.03312,7.9123 32.9951,15.46495c3.02183,3.81229 4.08355,7.9123 3.18517,11.72459c-2.85849,12.01231 -19.43771,22.2983 -37.16033,23.0176c-0.49003,0 -0.89838,0 -1.30674,0c-6.28867,0 -12.57734,-1.65439 -18.13097,-4.81931l-1.63342,-0.93509l-0.5717,1.58246c-0.81671,2.08597 -1.30674,4.89124 -0.65337,8.05616z"/>
 </g>
</svg>