<svg xmlns="http://www.w3.org/2000/svg" width='100%' height='100%' viewBox='-5 -5 85 85' preserveAspectRatio='none'>
 <g>
  <path d="m-0.10856,8.85181l0,0c0,-4.81635 3.84753,-8.72078 8.5937,-8.72078l3.90623,0l0,0l18.7499,0l35.15606,0c2.2792,0 4.46504,0.91879 6.07667,2.55426c1.61163,1.63546 2.51703,3.85363 2.51703,6.16652l0,21.80195l0,0l0,13.08117l0,0c0,4.81636 -3.84753,8.72078 -8.59371,8.72078l-35.15606,0l-24.49443,22.17492l5.74453,-22.17492l-3.90623,0c-4.74617,0 -8.5937,-3.90442 -8.5937,-8.72078l0,0l0,-13.08117l0,0l0,-21.80195z" />
 </g>
</svg>