<svg xmlns="http://www.w3.org/2000/svg" width='100%' height='100%' viewBox='-5 -5 85 85' preserveAspectRatio='none'>
 <g>
  <path d="m2.8129,0.10687c-1.53031,0 -2.76229,1.39723 -2.76229,3.13281l0,41.86567c0,1.73557 1.23198,3.13281 2.76229,3.13281l12.34398,0c-0.51013,0.66224 -0.79259,1.38096 -0.79259,2.136c0,3.22564 5.11322,5.83841 11.42583,5.83841c6.31262,0 11.42583,-2.61277 11.42583,-5.83841c0,-0.75505 -0.28246,-1.47377 -0.79259,-2.136l35.69789,0c1.53031,0 2.76229,-1.39723 2.76229,-3.13281l0,-41.86567c0,-1.73557 -1.23198,-3.13281 -2.76229,-3.13281l-69.30836,0zm13.56033,56.6753c-3.46847,0 -6.27793,1.52942 -6.27793,3.41761c0,1.88818 2.80946,3.41761 6.27793,3.41761c3.46847,0 6.27793,-1.52942 6.27793,-3.41761c0,-1.88818 -2.80946,-3.41761 -6.27793,-3.41761zm-6.27793,8.54402c-1.94234,0 -3.51564,1.14707 -3.51564,2.5632c0,1.41614 1.5733,2.5632 3.51564,2.5632c1.94234,0 3.51564,-1.14707 3.51564,-2.5632c0,-1.41614 -1.5733,-2.5632 -3.51564,-2.5632zm-6.02681,6.26561c-1.24865,0 -2.26006,0.63726 -2.26006,1.424c0,0.78674 1.0114,1.424 2.26006,1.424c1.24865,0 2.26006,-0.63726 2.26006,-1.424c0,-0.78674 -1.0114,-1.424 -2.26006,-1.424z" />
 </g>
</svg>