<svg xmlns="http://www.w3.org/2000/svg" width='100%' height='100%' viewBox='-5 -5 85 85' preserveAspectRatio='none'>
 <g>
  <path d="m1.04997,72.67592c0,-0.50538 0.56064,-0.91474 1.25279,-0.91474c0.69215,0 1.25279,0.40935 1.25279,0.91474c0,0.50537 -0.56064,0.91472 -1.25279,0.91472c-0.69215,0 -1.25279,-0.40935 -1.25279,-0.91472zm2.56822,-6.57237c0,-1.26349 1.4016,-2.28689 3.13198,-2.28689c1.73037,0 3.13197,1.0234 3.13197,2.28689c0,1.26343 -1.4016,2.28685 -3.13197,2.28685c-1.73038,0 -3.13198,-1.0234 -3.13198,-2.28685zm5.95075,-9.96464c0,-3.49321 4.87757,-6.32268 10.89928,-6.32268c6.02168,0 10.89926,2.82947 10.89926,6.32268c0,3.49318 -4.87758,6.32263 -10.89926,6.32263c-6.0217,0 -10.89928,-2.82945 -10.89928,-6.32263zm-9.35417,-28.62207c0,-15.06029 16.70709,-27.25913 37.33314,-27.25913c20.62605,0 37.33314,12.19884 37.33314,27.25913c0,15.06031 -16.70709,27.25913 -37.33314,27.25913c-20.62604,0 -37.33314,-12.19883 -37.33314,-27.25913z" />
 </g>
</svg>