<svg xmlns="http://www.w3.org/2000/svg" width='100%' height='100%' viewBox='-5 -5 85 85' preserveAspectRatio='none'>
 <g>
  <path d="m37.51993,0.25724c-20.61689,0 -37.33314,13.33273 -37.33314,29.78063c0,9.40789 5.48752,17.79023 14.03126,23.24584c-1.21565,4.83679 -3.64169,10.19392 -8.33059,14.93208c0,0 10.9449,-0.86951 18.67545,-10.27867c0.44505,0.13101 0.90571,0.22963 1.35497,0.3506c-0.42221,-1.5121 -0.67077,-3.08401 -0.67077,-4.71955c0,-11.09708 10.29395,-19.78636 23.44126,-19.78636c9.44321,0 17.38909,4.49994 21.12952,11.1395c3.1842,-4.38273 5.03517,-9.45907 5.03517,-14.88722c0,-16.44412 -16.71624,-29.77685 -37.33312,-29.77685l0,0zm31.88096,53.31347c0,-9.12349 -9.27166,-16.52526 -20.71565,-16.52526c-11.43775,0 -20.71463,7.40177 -20.71463,16.52526c0,9.12839 9.27688,16.52647 20.71463,16.52647c2.53314,0 4.94572,-0.38053 7.18878,-1.04418c4.28849,5.22353 10.36143,5.70385 10.36143,5.70385c-2.6007,-2.62992 -3.94425,-5.60166 -4.62023,-8.28765c4.73778,-3.02405 7.78567,-7.67502 7.78567,-12.8985z" />
 </g>
</svg>