<svg xmlns="http://www.w3.org/2000/svg" width='100%' height='100%' viewBox='-5 -5 85 85 ' preserveAspectRatio='none'>
 <g>
  <path   d="m36.98508,0.42079l0,0c6.30703,0 11.4199,5.0984 11.4199,11.3876c0,6.2892 -5.11286,11.3876 -11.4199,11.3876c-6.30704,0 -11.4199,-5.09839 -11.4199,-11.3876c0,-6.2892 5.11285,-11.3876 11.4199,-11.3876zm0,74.00005c-6.30704,0 -11.4199,-5.0984 -11.4199,-11.3876c0,-6.2892 5.11285,-11.3876 11.4199,-11.3876c6.30703,0 11.4199,5.0984 11.4199,11.3876c0,6.2892 -5.11286,11.3876 -11.4199,11.3876zm-33.58335,-48.38763l67.16672,0l0,22.77521l-67.16672,0l0,-22.77521z" />
 </g>
</svg>