<svg xmlns="http://www.w3.org/2000/svg" width='100%' height='100%' viewBox='-5 -5 85 85 ' preserveAspectRatio='none'>
 <g>
  <path  d="m51.00968,1.78491c-10.33222,1.88941 -13.76384,10.48297 -13.89775,15.39667c5.67992,0.40819 9.23921,-2.78 10.68722,-4.64466c2.36974,-2.64703 2.94272,-6.37327 3.21053,-10.75201zm1.27051,16.97375c-7.47046,0 -11.64321,3.03048 -13.69534,3.06449c-2.36352,-0.18245 -9.23921,-2.92843 -13.25004,-2.97172c-14.0441,0.41437 -18.06115,15.56984 -17.88677,22.08536c1.14284,24.93957 16.4699,31.38088 18.97355,31.98388c2.01164,0.39272 8.78457,-3.07686 13.76384,-2.91605c5.44014,0.5628 9.24545,2.79855 11.42524,2.64394c2.76834,-0.19173 11.78023,-7.42157 14.49874,-18.57558c-5.4744,-4.59828 -8.85619,-8.76982 -9.15825,-12.72181c-0.14324,-1.79046 2.56904,-11.90543 6.88815,-14.74728c0.62279,-3.49432 -5.79202,-7.92871 -10.82423,-7.82976c-0.24912,-0.00928 -0.49201,-0.01546 -0.73491,-0.01546l0.00001,0z"  />
 </g>
</svg>