<svg xmlns="http://www.w3.org/2000/svg" width='100%' height='100%' viewBox='-5 -5 85 85 ' preserveAspectRatio='none'>
 <g>
  <path  d="m38.17813,17.88488c-7.74094,0 -14.05414,6.16275 -14.05414,13.71573s6.31321,13.71573 14.05414,13.71573c7.74094,0 14.05414,-6.16275 14.05414,-13.71573s-6.31321,-13.71573 -14.05414,-13.71573zm35.64756,13.65074c-0.99215,-5.13987 -2.87159,-8.6239 -4.64349,-11.28849c0.13444,0.36451 0.24199,0.73184 0.37105,1.09635c-6.2917,-17.95704 -31.46923,-27.69142 -50.91702,-15.34331c-0.15057,0.76293 -0.19628,1.5202 -0.19628,2.27183c0,-0.14411 -0.01613,-0.27691 -0.01076,-0.42385c-4.68651,-0.37864 -10.36248,5.82367 -15.40928,17.18846c-2.56239,6.43402 -3.49001,13.47837 -1.11315,21.73776c1.3874,4.82057 3.57067,9.76546 6.71921,13.6027c9.33268,11.37891 23.62881,16.02146 31.95321,13.66204c0.01076,0.00283 0.0242,0.00848 0.03764,0.0113c16.0492,-0.35321 28.21583,-11.94687 32.6012,-27.03869c1.5783,-5.44786 1.68047,-9.90675 0.60766,-15.47611zm-63.16432,26.99631c-2.58121,-3.14213 -4.71877,-7.49081 -6.18146,-12.57981c-1.97086,-6.83808 -1.64552,-13.13929 1.01904,-19.82197c2.70489,-6.08363 5.34525,-10.08194 7.61725,-12.48657c0.40331,2.09664 1.40084,4.60017 2.99259,7.48516c0.58615,1.07092 1.23414,1.98078 1.86062,2.85956c0.48129,0.66968 0.9572,1.33936 1.37933,2.0599c0.33341,0.57078 0.64261,1.25742 0.95182,2.08251c-0.64261,7.78185 2.39837,14.51821 8.46421,18.87255l-6.84558,6.35772l-0.54313,0.48319c-0.55926,0.48319 -1.20188,1.05397 -1.75038,1.66431c-3.65671,4.08025 -0.67219,7.99943 0.76898,9.88414l0.18284,0.24583c0.63724,0.83922 1.37933,1.75191 2.19134,2.65046c-4.2563,-2.1701 -8.52605,-5.39135 -12.10748,-9.75699zm59.98889,-12.34811c-4.30201,14.78383 -15.96316,24.5832 -29.76456,25.03248c-6.68157,-1.64736 -11.72837,-5.02967 -15.01941,-10.05085c0.01076,-0.0113 0.02689,-0.02261 0.04033,-0.03673l13.29322,-10.83921c5.98518,-0.35038 10.36248,-2.50918 13.03241,-6.43684c3.28566,-3.98982 4.81826,-8.54761 4.55207,-13.73551c4.88547,1.06527 9.1122,2.55157 13.05392,5.32071l0.3119,0.2204l0.36029,0.1215c0.41945,0.13846 0.8362,0.21475 1.23414,0.22888c0.29307,3.50381 -0.05646,6.59225 -1.09432,10.17518zm0.68563,-13.09126c-5.24577,-3.69031 -10.92174,-5.2755 -17.72967,-6.45662c1.42773,6.66289 -0.22586,11.50607 -3.56529,15.57501c-2.37149,3.48968 -6.40462,5.14834 -11.81441,5.2981l-14.03532,11.44955c-1.33631,1.15569 -1.58906,2.31421 -0.75823,3.47273c2.28276,3.60836 5.18662,6.22209 8.3943,8.13223c-0.03495,0 -0.06991,0.00565 -0.10486,0.00848c-0.00269,-0.00283 -0.01076,-0.00565 -0.01613,-0.0113c-0.05378,0.00848 -0.11024,0.0113 -0.1667,0.01413c-0.2151,0.00283 -0.4302,-0.00283 -0.64261,-0.02826c-0.41945,-0.05934 -0.84427,-0.18084 -1.23414,-0.33343c-2.41451,-0.94094 -5.08175,-3.82029 -6.98271,-6.32664c-1.56217,-2.06273 -3.24264,-4.04916 -1.10508,-6.42836c0.6937,-0.7714 1.56486,-1.45239 2.12143,-1.97231l6.77836,-6.29838c0.46247,-0.38711 0.94107,-0.78271 1.43849,-1.19525c0.1425,-0.11868 0.2877,-0.23735 0.43558,-0.35886c1.51646,-1.24894 1.29867,-0.90421 -0.29039,-1.81407c-6.50411,-3.72986 -9.88657,-10.21192 -9.0181,-18.05311c-0.40063,-1.15852 -0.85234,-2.23792 -1.39278,-3.17604c-0.97602,-1.69539 -2.24242,-3.11387 -3.21038,-4.8686c-2.41988,-4.39672 -4.96614,-11.0257 0.03495,-10.40406c-0.01344,-0.14976 -0.00538,-0.31082 -0.01344,-0.46341c0.25274,5.65414 4.10305,10.80248 4.68382,13.8118c0.20972,1.0794 0.7905,1.99209 1.64552,0.79118c6.82407,-9.5931 16.31808,-8.62672 22.39198,-3.70726c1.19112,0.96072 1.83911,2.13337 2.91461,3.13648c0.41407,0.38994 0.88191,0.73184 1.43849,0.9918c1.99775,0.93812 4.85859,0.8816 7.00959,1.22633c3.68629,0.58774 7.27847,1.3111 10.67706,2.29443c0.67219,0.08477 1.14003,-0.0113 1.40084,-0.28539c0.56733,-0.58774 -0.00538,-2.50636 -0.32534,-3.5688c0.74479,2.27465 1.44117,4.54648 2.07841,6.82396c0.48667,1.77451 0.37105,3.20712 -1.03786,2.72393z"/>
 </g>
</svg>