<svg xmlns="http://www.w3.org/2000/svg" width='100%' height='100%' viewBox='-5 -5 85 85 ' preserveAspectRatio='none'>
 <g>
  <path d="m68.27616,2.92719c-5.413,-5.22921 -17.68163,1.04584 -24.44789,5.28397c-1.94051,-0.32854 -3.9755,-0.50649 -6.09729,-0.50649c-8.55102,0 -15.4526,2.69674 -20.69708,7.78359c-5.96452,5.85617 -9.27105,13.52477 -9.27105,22.38705c0,0.07666 0.00255,0.15332 0.00255,0.22998c8.39271,-14.09971 21.29967,-21.32752 24.7211,-23.23577c0.5413,-0.27104 0.86302,0.42436 0.36002,0.69267c-0.0383,0.11499 -0.0383,0 0,0c-5.75515,3.69604 -16.42796,14.39813 -23.35253,29.80377l-0.00766,-0.01916c-4.38402,9.711 -8.08631,23.35076 -0.68173,28.35821c5.60961,3.78365 15.65176,-0.67898 23.73297,-6.34624c1.95072,0.29568 4.00102,0.45174 6.16623,0.45174c14.9113,0 25.37218,-8.82395 29.10512,-21.69439l-20.48261,-0.03833c-0.86047,4.5475 -3.73804,6.97593 -8.2293,6.97593c-5.6428,0 -9.52127,-3.31548 -9.77405,-10.98408l38.88172,-0.03833c0.07149,-1.58245 -0.10724,-2.69674 -0.10724,-3.93149c0,-14.37623 -8.02504,-25.61219 -21.07752,-29.19324c5.31342,-3.54272 15.25344,-8.78562 20.03833,-4.60225c3.5925,3.1211 1.61624,9.67267 0.75322,12.36941c-0.14298,0.6954 0.6128,0.81039 0.75578,0.15606c1.79242,-4.84866 2.33372,-11.3619 -0.29108,-13.90259l-0.00002,-0.00002zm-37.59996,64.09207c-6.30411,4.03827 -14.99556,6.95129 -19.24936,3.52903c-3.17376,-2.55985 -1.7771,-9.49472 1.01622,-16.2571c1.6954,2.7159 3.81719,5.1635 6.31433,7.20043c3.37547,2.72138 7.34075,4.56392 11.91883,5.52763l-0.00001,0.00001zm-1.42474,-34.57851c0.10724,-6.66656 4.56276,-9.55495 9.2353,-9.55495c4.92277,0 8.91103,3.04444 8.91103,9.55495l-18.14634,0l0.00001,0z" />
 </g>
</svg>