<svg xmlns="http://www.w3.org/2000/svg" width='100%' height='100%' viewBox='-5 -5 85 85' preserveAspectRatio='none'>
 <g  id="svg_4">
  <path d="m70.53407,74.80792c2.26689,0 4.10517,-1.84243 4.10517,-4.11502l0,-66.32348c0,-2.27288 -1.83799,-4.11473 -4.10517,-4.11473l-66.17394,0c-2.26776,0 -4.10546,1.84185 -4.10546,4.11473l0,66.32348c0,2.2723 1.83741,4.11502 4.10546,4.11502l66.17394,0z" />
   <path d="m51.57895,74.80792l0,-28.87112l9.66878,0l1.44776,-11.25159l-11.11654,0l0,-7.18343c0,-3.25759 0.90254,-5.47754 5.56332,-5.47754l5.9446,-0.0026l0,-10.06351c-1.0281,-0.13712 -4.55687,-0.44347 -8.66233,-0.44347c-8.57083,0 -14.43866,5.24351 -14.43866,14.87281l0,8.29774l-9.6936,0l0,11.25159l9.6936,0l0,28.87112l11.59307,0z" fill="#FFFFFF" />
    </g>
  </svg>