<svg xmlns="http://www.w3.org/2000/svg" width='100%' height='100%' viewBox='-5 -5 85 85 ' preserveAspectRatio='none'>
 <g>
  <path  d="m69.82322,53.94285c1.25429,-2.5741 2.22839,-5.31643 2.86732,-8.18693c2.49548,-9.77571 1.74396,-18.30176 1.74396,-18.30176l-0.85627,5.61816c0,0 -1.2281,-10.40322 -2.73377,-14.29374c-2.30695,-5.95728 -3.33342,-5.91189 -3.33604,-5.90121c1.41926,3.68225 1.29357,5.79173 1.26476,6.10949c-0.02619,-0.04272 -0.04975,-0.08545 -0.0707,-0.1255c-0.34303,-0.86515 -2.08699,-4.85715 -5.82628,-7.68492c-6.55162,-6.62484 -15.56207,-10.7183 -25.51781,-10.72097c-10.62086,0 -20.17596,4.65955 -26.80876,12.08279c-0.83794,-1.23632 -1.52138,-2.73699 -1.58423,-4.3952c0,0 -0.00524,0.00534 -0.01571,0.01335c0,-0.02937 -0.00786,-0.05607 -0.00786,-0.08278c0,0 -4.21587,3.32978 -3.76024,12.3151c-0.78295,1.53271 -1.46639,3.12951 -2.03462,4.78238c-0.98196,2.18158 -1.96392,5.35114 -2.77305,10.00268c0,0 0.34827,-1.12684 1.0448,-2.63819c-0.16759,1.28705 -0.26971,2.59279 -0.30375,3.91723c-0.23567,2.25634 -0.30899,4.97998 -0.10212,8.24567c0,0 0.08379,-1.08411 0.35612,-2.72631c2.18387,18.30176 17.4579,32.48335 35.98679,32.48335l0,0c4.87051,0 9.52106,-0.98799 13.76312,-2.76636c9.6389,-3.58879 15.34211,-10.46463 18.70433,-17.74635zm-32.46484,-51.03611c6.40498,0 12.38576,1.81576 17.49194,4.96663c-5.95459,-1.40988 -8.9895,-0.69693 -8.96331,-0.66222c0.03404,0.04005 8.86119,1.57277 10.42446,3.76769c0,0 -3.74715,0 -7.47859,1.09479c-0.17021,0.05073 13.72646,1.77036 16.56759,15.93059c0,0 -1.524,-3.23899 -3.40674,-3.79173c1.23858,3.84246 0.91911,11.13486 -0.26186,14.76103c-0.15188,0.46462 -0.30899,-2.01602 -2.62903,-3.08412c0.74367,5.43926 -0.04713,14.06677 -3.74977,16.44328c-0.28542,0.18692 2.32266,-8.51536 0.52633,-5.15354c-10.71774,16.75836 -23.45963,6.77971 -28.63127,3.22564c4.15041,1.03605 8.55482,0.28838 11.10791,-1.49266c2.57142,-1.79439 4.09542,-3.10281 5.46492,-2.79573c1.36689,0.31242 2.27814,-1.08678 1.21501,-2.32844c-1.06051,-1.24433 -3.64503,-2.9506 -7.13556,-2.02136c-2.46144,0.65955 -5.51729,3.43659 -10.1757,0.62216c-3.97497,-2.40054 -3.94616,-4.35248 -3.94616,-5.59413c0,-0.9773 0.67297,-2.3498 1.92202,-2.745c1.51876,0.16555 2.73377,0.57143 4.02472,1.24433c0.01309,-0.36048 0.01571,-0.84112 -0.00262,-1.38585c0.10212,-0.20561 0.03928,-0.83044 -0.12307,-1.59146c-0.09427,-0.76636 -0.254,-1.55407 -0.49753,-2.27237c0.02619,-0.00534 0.04452,-0.01869 0.05499,-0.05607c0.19901,-0.91856 5.62204,-4.12284 6.02006,-4.42991c0.40064,-0.30441 1.4402,-1.00935 1.32499,-3.15888c-0.03928,-0.70761 -0.15188,-0.78505 -5.84461,-0.76369c-2.40121,0.00801 -3.73144,-2.38719 -4.16088,-3.32444c0.58132,-3.28705 2.25981,-5.63419 5.02501,-7.2203c0.05237,-0.02937 0.03928,-0.05607 -0.02095,-0.0721c0.57346,-0.33912 -6.60923,-0.01602 -9.84576,4.28305c-0.86674,0.1255 -2.05818,-0.12817 -3.39103,-0.12817c-1.67064,0 -2.98253,0.18692 -4.19754,0.49933c-0.13093,0.03471 -0.31946,0.02937 -0.54466,-0.00267c-0.34041,-0.25634 -0.84841,-0.68358 -1.39831,-1.23899c0.42159,-0.48064 0.84841,-0.9506 1.29618,-1.40454c6.13004,-6.25368 14.58535,-10.1175 23.93882,-10.12017z" />
 </g>
</svg>