<svg xmlns="http://www.w3.org/2000/svg" width='100%' height='100%' viewBox='-5 -5 85 85 ' preserveAspectRatio='none'>
 <g>
  <path  d="m70.65279,28.26118c-2.44543,2.7173 -12.9766,6.16382 -14.33489,6.16382l-11.54414,0c-1.91592,0 -4.80131,0.37612 -6.1596,1.23839c0.15603,0.13817 0.31208,0.27634 0.463,0.41706c1.04365,0.96973 3.48396,2.33606 5.64289,2.33606c1.01551,0 1.84942,-0.29425 2.55798,-0.90577c3.01329,-2.57658 4.57878,-2.8785 5.48686,-2.8785c1.0769,0 2.0029,0.49382 2.54774,1.35865c1.02319,1.60173 0.27114,3.69727 -0.49625,5.33993c-1.83662,3.8994 -7.82229,8.11352 -14.31186,8.11352c-0.00511,0 -0.00511,0 -0.01023,0c-0.90553,0 -1.79314,-0.08443 -2.64238,-0.25331l0,8.31822c0,1.89853 2.64238,6.48109 10.65908,6.48109s10.11679,-9.46961 10.11679,-11.09948l0,-11.54469c5.70428,-2.99108 11.54159,-4.61839 14.33489,-9.96599c2.62704,-5.02522 0.13302,-5.83631 -2.30985,-3.11901l-0.00001,0.00001zm-17.9314,12.09225c2.03615,-4.34717 -0.13558,-4.34717 -3.93928,-1.08743s-9.37497,0.26866 -11.27556,-1.49682c-1.90057,-1.76292 -3.80115,-3.12157 -7.19814,-2.98596c-3.39699,0.13561 -11.40857,-0.41195 -16.03083,-1.49682c-4.61714,-1.08743 -12.52129,-7.67599 -13.17357,-5.97448c-0.68042,1.76548 0.53973,2.98852 2.98771,5.97448c2.44287,2.99108 12.98172,7.10797 12.98172,7.10797s0,8.83507 0,12.50163c0,3.67168 7.60485,9.23678 11.54159,9.23678s6.92699,-2.7173 6.92699,-4.62095l0,-11.54469c6.52028,3.40302 15.14321,-1.26398 17.17935,-5.61371l0,-0.00001zm-4.09276,-9.6999c4.46111,0 8.08064,-3.61795 8.08064,-8.08026c0,-4.46487 -3.61953,-8.08282 -8.08064,-8.08282s-8.07808,3.61795 -8.07808,8.08282c0,4.46231 3.61697,8.08026 8.07808,8.08026zm-21.29002,0c4.46111,0 8.07808,-3.61795 8.07808,-8.08026c0,-4.46487 -3.61697,-8.08282 -8.07808,-8.08282c-4.46367,0 -8.08064,3.61795 -8.08064,8.08282c0,4.46231 3.61441,8.08026 8.08064,8.08026z"/>
 </g>
</svg>