<svg xmlns="http://www.w3.org/2000/svg" width='100%' height='100%' viewBox='-5 -5 85 85 ' preserveAspectRatio='none'>
 <g>
  <path  d="m68.4041,37.69334c-2.9855,-0.52614 -6.09281,-0.87257 -8.61595,-0.96634l-0.44496,-0.01563c0.10192,-0.23442 0.17898,-0.39331 0.20384,-0.41675c0.05469,-0.04688 0.09943,-0.24484 0.10441,-0.43758c0,-0.1068 0.04475,-0.45321 0.11435,-0.91164c0.68361,0.02605 1.59095,0.04688 2.58031,0.0547c3.82074,0.03126 7.81799,0.35424 10.55987,0.86215c1.6332,0.30214 2.17263,0.29172 0.96699,-0.01563c-1.22055,-0.30996 -4.83994,-0.76578 -7.72352,-0.96374c-1.93648,-0.13805 -4.71317,-0.19015 -6.34885,-0.16149c0.04724,-0.29693 0.10192,-0.62773 0.1591,-0.96634c0.23118,-1.31015 0.30824,-2.62813 0.31322,-5.25104c0.00497,-4.06852 -0.20384,-5.18853 -1.46914,-7.87918c-0.51457,-1.09918 -1.09626,-2.03165 -1.79975,-2.87557c0.61401,-1.89882 0.59909,-4.83951 -0.03729,-7.41815c-0.52451,-2.115 -0.70847,-2.25045 -2.53805,-1.84412c-1.55117,0.34643 -2.79409,0.81787 -4.38752,1.65919c-0.75321,0.39852 -1.79229,1.01843 -2.54551,1.50551c-1.96381,-0.7241 -3.99475,-1.20337 -6.16241,-1.46123c-2.19748,-0.26047 -7.58432,-0.11461 -9.49594,0.25526c-1.86935,0.36205 -3.55227,0.80485 -5.0761,1.33099c-0.76067,-0.49229 -1.86439,-1.15648 -2.6524,-1.57323c-1.60088,-0.84392 -2.8438,-1.31276 -4.39995,-1.65919c-1.82462,-0.40894 -2.01354,-0.27089 -2.53556,1.84412c-0.64632,2.6125 -0.6513,5.60268 -0.01243,7.49629c0.07457,0.21619 0.11932,0.36986 0.13672,0.48968c-2.59025,3.41735 -3.43544,7.24103 -2.87364,12.57803c0.14666,1.3909 0.37288,2.6672 0.68858,3.8367c-1.65308,-0.01042 -4.0047,0.05209 -5.70253,0.1667c-2.88855,0.20056 -6.50795,0.65117 -7.72849,0.96113c-1.20315,0.30735 -0.6687,0.31777 0.96699,0.01823c2.74189,-0.50531 6.74162,-0.8335 10.55987,-0.86215c0.72089,-0.0026 1.39456,-0.01823 1.97376,-0.03386c0.17401,0.61731 0.37288,1.20597 0.59909,1.76598l-0.0174,0.0026c-2.52314,0.09117 -5.62796,0.43758 -8.61346,0.96374c-2.23974,0.39331 -5.54592,1.17992 -5.93123,1.40653c-0.40519,0.23703 -0.07457,0.18494 1.66055,-0.27609c3.16448,-0.83871 7.27856,-1.48206 12.37454,-1.93007l0.56926,-0.05209c1.09377,2.66199 2.77918,4.69364 5.16062,6.27729c1.4567,0.97155 3.79092,1.96914 4.96672,2.12542c0.32316,0.04167 1.26281,0.24484 2.08811,0.448c0.82779,0.20316 2.44608,0.50792 3.59453,0.68242l0.02735,0c-0.02237,0.01563 -0.04226,0.02605 -0.06215,0.04167c-1.39208,0.75796 -2.29692,1.93788 -2.90595,3.79503c-0.27344,0.08596 -0.61401,0.20316 -0.98191,0.33601c-1.31502,0.46884 -1.82709,0.56522 -3.15951,0.57564c-1.38213,0.01042 -1.71026,-0.05209 -2.53556,-0.45842c-1.20066,-0.58606 -2.31929,-1.6644 -3.06505,-2.95111c-1.24541,-2.15147 -3.39815,-3.6726 -5.19293,-3.6726c-1.53376,0 -1.82462,0.65117 -0.71592,1.60188c1.67048,1.42997 2.91839,2.88859 3.43046,4.0034c0.28836,0.62512 0.73084,1.59146 0.98688,2.14626c0.27096,0.59126 0.85015,1.3935 1.40202,1.9483c1.29762,1.29714 2.55047,1.91705 4.41984,2.20877c1.25287,0.19275 1.56111,0.19275 3.04019,-0.00521c0.71343,-0.09117 1.31502,-0.19795 1.85444,-0.3308c0,0.63554 0,1.36746 0,2.22701c0,4.59988 -0.0522,6.07934 -0.22621,6.51171c-0.32813,0.82308 -1.06395,1.66961 -1.77987,2.04989c-0.71343,0.38028 -0.93468,0.79964 -0.6339,1.18513c0.16655,0.20837 0.48723,0.24484 1.5636,0.17191c2.04336,-0.13284 3.48764,-0.92466 4.22346,-2.32078c0.23616,-0.448 0.29084,-1.34923 0.36542,-6.03766c0.07955,-5.08695 0.11435,-5.57663 0.43005,-6.30334c0.19141,-0.43238 0.46734,-0.90123 0.62146,-1.02885c0.25853,-0.224 0.27593,0.21879 0.27593,6.30334c-0.00249,6.71488 -0.06712,7.52493 -0.70847,8.81686c-0.14418,0.29433 -0.41763,0.67722 -0.60903,0.85955c-0.33559,0.32038 -0.47729,1.14086 -0.24362,1.38829c0.3853,0.40112 2.31681,-0.22921 3.3708,-1.09918c1.79478,-1.48988 2.00856,-2.72189 2.02348,-11.6195l0.00746,-5.21979l0.5444,0.0547l0.5444,0.05209l0.08949,6.82688c0.10192,7.68643 0.11683,7.79843 1.36473,9.2831c0.70847,0.83871 1.4219,1.30234 2.5828,1.6644c1.55365,0.48968 2.02099,-0.26568 0.97694,-1.57584c-1.13603,-1.42476 -1.19072,-1.96914 -1.12857,-10.40312c0.04226,-5.40733 0.04226,-5.40733 0.37537,-5.09216c0.70101,0.6668 0.83524,1.76077 0.83524,6.83209c0,6.29813 0.17152,6.89721 2.29443,7.99638c0.99185,0.50792 1.27027,0.57043 2.54054,0.57564c1.3523,0.00521 1.43434,-0.01563 1.48405,-0.38549c0.04226,-0.29954 -0.1243,-0.50271 -0.75569,-0.90643c-0.82779,-0.53396 -1.40202,-1.21639 -1.76247,-2.07594c-0.13672,-0.3308 -0.22869,-2.49789 -0.29084,-6.95972c-0.08949,-6.23301 -0.10937,-6.51692 -0.47976,-7.49368c-0.49965,-1.31276 -1.26281,-2.34943 -2.22981,-3.03706c-0.25107,-0.17191 -0.50214,-0.31517 -0.82779,-0.42196c0.40022,-0.04167 0.78802,-0.08596 1.16337,-0.14326c3.90775,-0.54438 5.97349,-0.99759 7.63155,-1.66961c3.50753,-1.41434 5.87903,-3.76377 7.16421,-7.09517c0.11435,-0.29693 0.22869,-0.57824 0.32564,-0.80485l0.98936,0.08596c5.09847,0.45061 9.21254,1.09397 12.37703,1.93528c1.73512,0.46103 2.06574,0.51572 1.66055,0.2735c-0.37785,-0.2214 -3.68402,-1.00541 -5.92129,-1.39871l-0.00002,0zm-14.94988,-0.08075c-0.5792,1.3336 -2.19501,3.04748 -3.50007,3.71949c-1.28767,0.6668 -3.30618,1.17471 -5.59316,1.41695c-1.5636,0.1667 -10.28394,0.21619 -11.72325,0.06772c-4.76537,-0.48968 -7.43516,-1.45081 -9.40395,-3.37567c-1.86439,-1.82849 -2.73443,-4.31075 -2.5828,-7.36605c0.09695,-1.91184 0.53694,-3.1126 1.68789,-4.57122c1.04654,-1.32839 2.14777,-2.14887 3.44539,-2.56561c1.08631,-0.34903 4.41984,-0.38028 8.90181,-0.07814c1.98122,0.13284 3.6194,0.13284 5.59812,0c4.68831,-0.30996 7.81799,-0.27609 8.9739,0.09898c1.81715,0.58866 3.47273,2.1723 4.46706,4.28211c0.44745,0.9429 0.53446,1.34402 0.59909,2.80003c0.08949,2.00561 -0.24113,4.13624 -0.87004,5.57142l0,-0.00001zm-23.64039,-8.61109c-2.66731,-0.48968 -4.19113,4.29512 -2.14528,6.73832c0.97196,1.15908 1.83455,1.34923 2.91341,0.64596c0.99931,-0.65378 1.54122,-1.87537 1.54122,-3.45902c0,-2.1124 -0.91728,-3.66479 -2.30935,-3.92526zm16.19032,0.28651c-2.66731,-0.48968 -4.19362,4.28992 -2.14777,6.73571c0.97445,1.15908 1.83455,1.35183 2.9159,0.64336c0.99682,-0.65117 1.54122,-1.87537 1.54122,-3.45902c0,-2.10458 -0.91728,-3.66218 -2.30935,-3.92005zm-7.17416,9.40813c-0.05717,0.19275 -0.33559,0.47926 -0.61649,0.63294c-0.71096,0.38289 -1.22303,0.25005 -1.97376,-0.46624c-0.46485,-0.44019 -0.67615,-0.67201 -0.81784,-0.21098c-0.13175,0.42717 0.69603,1.28411 1.3349,1.54718c0.58666,0.24484 1.00676,0.25266 1.64315,-0.02605c0.63141,-0.27609 1.18326,-1.01843 1.18326,-1.5003c0,-0.448 -0.61401,-0.42717 -0.75321,0.02344zm-0.78802,-1.49769c0.40519,-0.37507 0.49717,-1.14606 0.10937,-1.555s-1.17581,-0.34643 -1.48405,0.112c-0.35797,0.53656 -0.16655,0.9455 0.08949,1.38048c0.39774,0.32298 0.93219,0.3881 1.28518,0.06251z"/>
 </g>
</svg>