<svg xmlns="http://www.w3.org/2000/svg" width='100%' height='100%' viewBox='-5 -5 85 85 ' preserveAspectRatio='none'>
 <g>
 <path  id="svg_2" d="m37.20033,52.36323c8.05842,0 14.60821,-6.5529 14.60821,-14.61131c0,-4.37377 -1.9339,-8.30054 -4.98529,-10.98254c-1.07404,-0.94056 -2.28156,-1.72592 -3.59463,-2.32192c-1.84077,-0.83813 -3.8771,-1.30685 -6.02519,-1.30685s-4.18752,0.46873 -6.02519,1.30685c-1.31617,0.60221 -2.52679,1.38756 -3.59463,2.32502c-3.0576,2.682 -4.9915,6.60877 -4.9915,10.98254c0,8.05531 6.556,14.60821 14.60821,14.60821zm0.04967,-25.4045c5.9631,0 10.7994,4.83319 10.7994,10.79629c0,5.9631 -4.83629,10.7994 -10.7994,10.7994s-10.7994,-4.83319 -10.7994,-10.7994c0,-5.9631 4.83629,-10.79629 10.7994,-10.79629zm16.21306,1.14544l21.03694,0l0,31.90463c0,8.09567 -6.56221,14.65788 -14.65788,14.65788l-44.98869,0c-8.09567,0 -14.85344,-6.56221 -14.85344,-14.65788l0,-31.90463l20.94381,0c-1.68867,2.8341 -2.70683,6.1121 -2.70683,9.65085c0,10.47346 8.4899,18.96335 18.96335,18.96335s18.96335,-8.4899 18.96335,-18.96335c0.0031,-3.53875 -1.01506,-6.81675 -2.70063,-9.65085zm6.37906,-27.9375l-38.11296,0l0,15.52083l-3.10417,0l0,-15.52083l-3.10417,0l0,15.52083l-3.10417,0l0,-15.28181c-1.07404,0.17694 -2.11704,0.4439 -3.10417,0.83813l0,14.44369l-3.10417,0l0,-12.73329c-3.73121,2.66027 -6.20833,6.97196 -6.20833,11.87033l0,10.17546l23.19744,0c3.62256,-3.97954 8.68546,-6.20833 14.0029,-6.20833c5.34538,0 10.40206,2.25052 14.0029,6.20833l23.29677,0l0,-10.17546c0,-8.09567 -6.56221,-14.65788 -14.65788,-14.65788zm8.44954,16.34344c0,1.26029 -1.03369,2.28156 -2.3126,2.28156l-7.79456,0c-1.27581,0 -2.3095,-1.02127 -2.3095,-2.28156l0,-7.85354c0,-1.26029 1.03369,-2.28156 2.3095,-2.28156l7.79456,0c1.27892,0 2.3126,1.02127 2.3126,2.28156l0,7.85354z"/>
 </g>
</svg>