<svg xmlns="http://www.w3.org/2000/svg" width='100%' height='100%' viewBox='-5 -5 85 85 ' preserveAspectRatio='none'>
 <g>
  <path  d="m58.97807,0l-43.45753,0c-8.57045,0 -15.52055,6.9501 -15.52055,15.52055l0,43.45753c0,8.57045 6.9501,15.52055 15.52055,15.52055l43.45753,0c8.57355,0 15.52055,-6.9501 15.52055,-15.52055l0,-43.45753c0,-8.57045 -6.947,-15.52055 -15.52055,-15.52055zm-34.1452,58.97807l-9.31233,0l0,-34.1452l9.31233,0l0,34.1452zm-4.65616,-38.08121c-2.99857,0 -5.43219,-2.45225 -5.43219,-5.47565s2.43362,-5.47565 5.43219,-5.47565s5.43219,2.45225 5.43219,5.47565s-2.43052,5.47565 -5.43219,5.47565zm41.90547,38.08121l-9.31233,0l0,-17.39543c0,-10.45464 -12.41644,-9.66309 -12.41644,0l0,17.39543l-9.31233,0l0,-34.1452l9.31233,0l0,5.47875c4.33334,-8.02723 21.72876,-8.62011 21.72876,7.68577l0,20.98067z"/>
 </g>
</svg>