<svg xmlns="http://www.w3.org/2000/svg" width='100%' height='100%' viewBox='-5 -5 85 85 ' preserveAspectRatio='none'>
 <g>
  <path  d="m37.37214,0.47184c-21.44105,0 -36.85261,14.66182 -36.85261,36.65726c0,19.56889 14.98497,37.34284 36.85547,37.34284c22.0795,0 37.14464,-17.76855 37.14464,-37.34284c0,-22.17088 -15.90113,-36.65726 -37.1475,-36.65726zm-0.00573,66.13476l0,0c-6.55342,0 -9.99189,-4.34834 -11.79845,-10.246c-0.81309,-2.79903 -1.31126,-5.89766 -1.61187,-9.01789c-0.32638,-3.70864 -0.36933,-7.48476 -0.36933,-10.87221c0,-2.68026 0.05153,-5.34163 0.21186,-7.89773c0.35501,-4.66414 1.10512,-9.26081 2.54808,-13.04503c1.98693,-4.63715 5.35668,-7.61702 11.01971,-7.61702c7.15751,0 10.77349,4.8099 12.55428,11.66576c1.22823,5.1122 1.60328,11.13133 1.60328,16.93451c0,6.20536 -0.29489,13.90876 -2.18447,20.08713c-1.89245,5.7735 -5.41681,10.00848 -11.97309,10.00848z" />
 </g>
</svg>