<svg xmlns="http://www.w3.org/2000/svg" width='100%' height='100%' viewBox='-5 -5 85 85 ' preserveAspectRatio='none'>
 <g>
  <path  d="m37.58333,0.5c-20.38723,0 -36.91667,16.56367 -36.91667,37c0,15.67567 9.73062,29.0635 23.46362,34.45316c-0.32302,-2.92608 -0.61528,-7.41542 0.12921,-10.60975c0.67065,-2.88908 4.32848,-18.39208 4.32848,-18.39208s-1.10442,-2.21692 -1.10442,-5.4945c0,-5.143 2.97487,-8.98483 6.67884,-8.98483c3.14715,0 4.66996,2.37108 4.66996,5.21083c0,3.17275 -2.01503,7.918 -3.05793,12.31792c-0.87062,3.6815 1.84276,6.68775 5.46674,6.68775c6.56194,0 11.60414,-6.93442 11.60414,-16.94292c0,-8.85842 -6.34967,-15.05283 -15.41886,-15.05283c-10.50279,0 -16.66787,7.89642 -16.66787,16.05492c0,3.17892 1.22133,6.59217 2.74722,8.44217c0.30149,0.36692 0.34456,0.69067 0.25534,1.06375l-1.02444,4.19333c-0.16305,0.67833 -0.53529,0.82325 -1.23671,0.49642c-4.61151,-2.15217 -7.49408,-8.90775 -7.49408,-14.33442c0,-11.67042 8.46007,-22.39117 24.39269,-22.39117c12.80701,0 22.75912,9.14825 22.75912,21.37058c0,12.75267 -8.02015,23.014 -19.15667,23.014c-3.74089,0 -7.2572,-1.94558 -8.46007,-4.24883l-2.30114,8.79675c-0.8337,3.21592 -3.08254,7.24583 -4.58997,9.70017c3.45786,1.06992 7.12799,1.64958 10.93349,1.64958c20.38723,0 36.91667,-16.56675 36.91667,-37c0,-20.43633 -16.52944,-37 -36.91667,-37z" />
 </g>
</svg>