<svg xmlns="http://www.w3.org/2000/svg" width='100%' height='100%' viewBox='-5 -5 85 85 ' preserveAspectRatio='none'>
 <g>
  <path  d="m74.1653,36.68899c0,-5.34956 -3.65043,-9.69814 -8.13691,-9.69814c-2.18965,0 -4.17411,1.04865 -5.6349,2.73528c-5.54302,-4.36691 -13.04295,-7.14619 -21.34829,-7.50185l4.5416,-17.11933l12.29877,3.45026l-0.01837,0.21266c0,4.37425 2.98588,7.93084 6.65775,7.93084c3.66881,0 6.65163,-3.5566 6.65163,-7.93084s-2.98588,-7.93451 -6.65163,-7.93451c-2.81745,0 -5.2184,2.10462 -6.1892,5.05623l-13.25732,-3.72159c-0.5788,-0.16866 -1.16679,0.231 -1.34748,0.91298l-5.06528,19.09195c-8.69122,0.12466 -16.56476,2.92594 -22.35584,7.42485c-1.4516,-1.60597 -3.37788,-2.61061 -5.50934,-2.61061c-4.48648,0 -8.13385,4.35225 -8.13385,9.70181c0,3.5566 1.63228,6.6402 4.03324,8.32683c-0.15925,1.03398 -0.26337,2.07896 -0.26337,3.14227c0,14.34005 14.72423,26.00715 32.82633,26.00715s32.8294,-11.6671 32.8294,-26.00715c0,-1.00465 -0.08881,-1.99463 -0.22968,-2.96994c2.54795,-1.63897 4.30273,-4.81057 4.30273,-8.49916zm-52.74753,6.65853c0,-3.1826 2.17433,-5.77489 4.84479,-5.77489c2.67045,0 4.84172,2.59228 4.84172,5.77489s-2.17127,5.77122 -4.84172,5.77122s-4.84479,-2.58862 -4.84479,-5.77122zm27.7488,17.11933c-2.44077,2.90761 -6.27188,4.32291 -11.71078,4.32291l-0.03981,-0.011l-0.03981,0.011c-5.44196,0 -9.27308,-1.41531 -11.71078,-4.32291c-0.44405,-0.52799 -0.44405,-1.38964 0,-1.91763c0.44405,-0.53166 1.16679,-0.53166 1.61085,0c1.99059,2.37229 5.29497,3.5236 10.09994,3.5236l0.03981,0.011l0.03981,-0.011c4.80497,0 8.10935,-1.15498 10.09994,-3.52726c0.44405,-0.53166 1.16679,-0.52799 1.61085,0c0.44405,0.53166 0.44405,1.38964 0,1.9213zm-0.5788,-11.34811c-2.67045,0 -4.84172,-2.58862 -4.84172,-5.77122c0,-3.1826 2.17127,-5.77489 4.84172,-5.77489s4.84172,2.59228 4.84172,5.77489s-2.17127,5.77122 -4.84172,5.77122z" />
 </g>
</svg>