<svg xmlns="http://www.w3.org/2000/svg" width='100%' height='100%' viewBox='-5 -5 85 85 ' preserveAspectRatio='none'>
 <g>
  <path d="m0.29014,39.87148c9.26069,0 17.96779,3.60298 24.50864,10.13917c6.5559,6.53918 10.16028,15.25211 10.16028,24.52418l14.27615,0c0,-26.93414 -21.96029,-48.84204 -48.94808,-48.84204l0,14.17869l0.00301,0zm0.01805,-25.14012c33.01415,0 59.86655,26.83546 59.86655,59.81842l14.27013,0c0,-40.80187 -33.25786,-74.0001 -74.13969,-74.0001l0,14.18168l0.00301,0zm19.73689,49.90649c0,5.42689 -4.42576,9.82821 -9.88349,9.82821s-9.88349,-4.40132 -9.88349,-9.82821c0,-5.42091 4.42576,-9.82223 9.88349,-9.82223s9.88349,4.39833 9.88349,9.82223z"/>
 </g>
</svg>