<svg xmlns="http://www.w3.org/2000/svg" width='100%' height='100%' viewBox='-5 -5 85 85 ' preserveAspectRatio='none'>
 <g>
  <path  d="m38.27404,9.54834c-1.31656,0 -2.61223,0.08123 -3.887,0.2332l-0.09404,-0.47164c-0.05486,-0.2725 -0.15673,-0.5188 -0.29257,-0.74152c0.99526,-0.80703 1.63265,-2.03853 1.63265,-3.422c0,-2.42894 -1.96179,-4.39672 -4.38332,-4.39672s-4.38332,1.96778 -4.38332,4.39672c0,1.95206 1.26693,3.60542 3.02235,4.17924c-0.05486,0.27512 -0.05486,0.56597 0,0.85943l0.0862,0.43758c-13.92841,3.6814 -24.20231,16.39992 -24.20231,31.52904c0,18.0035 14.55273,32.59809 32.50136,32.59809c17.94863,0 32.49875,-14.5946 32.49875,-32.59809c0.00261,-18.00612 -14.55012,-32.60333 -32.49875,-32.60333l-0.00001,0zm0.56163,7.76894c11.63748,0 21.37588,8.16459 23.83137,19.0935l-1.50464,0.61313c-0.38661,-1.78437 -1.97223,-3.12068 -3.8661,-3.12068c-2.18644,0 -3.96014,1.77913 -3.96014,3.97225c0,0.19652 0.0209,0.38779 0.04702,0.57907l-7.23849,-0.07337c-0.14106,-0.30132 -0.29779,-0.59217 -0.47542,-0.87253l8.87897,-13.3893l0.14367,-0.21748l-12.44989,10.63545c-0.9195,-0.41137 -1.93305,-0.64981 -2.99884,-0.67077l0.22465,-0.04716l-3.07459,-6.77325c1.67182,-0.46378 2.90219,-1.99922 2.90219,-3.82289c0,-2.19312 -1.77109,-3.96963 -3.96014,-3.96963c-0.19592,0 -0.384,0.01834 -0.57208,0.04716l0.15151,-1.66122c1.27738,-0.21486 2.58611,-0.32229 3.92095,-0.32229l-0.00003,0.00001zm-11.03145,-12.1709c0,-1.9049 1.54383,-3.45344 3.44292,-3.45344c1.89909,0 3.44292,1.54855 3.44292,3.45344c0,1.11359 -0.53029,2.10141 -1.34791,2.73288c-0.47804,-0.32229 -1.07885,-0.46116 -1.69011,-0.34063c-0.59036,0.11791 -1.07885,0.45592 -1.39754,0.91445c-1.41583,-0.42972 -2.45027,-1.7503 -2.45027,-3.30671l0,0.00001zm-13.39812,36.67515c0,-11.64161 8.09269,-21.38881 18.94389,-23.88588l0.77584,1.50138c-1.59346,0.51356 -2.74545,2.01232 -2.74545,3.77835c0,2.19312 1.77109,3.97225 3.95752,3.97225c0.17763,0 0.35266,-0.01572 0.52244,-0.0393l-0.15151,7.45451l0.13584,-0.02882c-1.1546,0.53452 -2.15247,1.34417 -2.91525,2.34509l0.24294,-0.38517l-4.11165,-1.57999l3.06154,3.24645l0.06792,-0.11005c-0.49632,0.9721 -0.79934,2.06473 -0.84636,3.22024l-0.00784,-0.04192l-6.85188,3.16784c-0.51984,-1.58261 -2.00358,-2.72764 -3.75639,-2.72764c-2.18644,0 -3.96014,1.77651 -3.96014,3.97225c0,0.16769 0.01306,0.33539 0.03396,0.50046l-2.04538,-0.19914c-0.22988,-1.35203 -0.35004,-2.74074 -0.35004,-4.1609l0,-0.00001zm24.42957,24.50687c-11.56957,0 -21.25832,-8.06502 -23.78696,-18.89437l1.80505,-0.92494c0.38138,1.79747 1.96701,3.14426 3.87133,3.14426c2.18644,0 3.95752,-1.77913 3.95752,-3.97225c0,-0.27512 -0.02873,-0.54238 -0.08098,-0.80441l7.46576,0.07861c0.11755,0.24892 0.25077,0.48998 0.39183,0.72318l-9.01219,13.82687l0.59298,-0.51094l11.83079,-10.27124c0.87771,0.40089 1.84162,0.64981 2.85778,0.69698l-0.04963,0.01048l3.2026,6.8833c-1.71101,0.43496 -2.98317,1.99136 -2.98317,3.84648c0,2.19312 1.77109,3.96963 3.96014,3.96963c0.19853,0 0.39445,-0.01834 0.58776,-0.04716l0.01045,1.80271c-1.49419,0.28822 -3.03802,0.44282 -4.62103,0.44282l-0.00001,-0.00001zm5.98985,-0.74414l-1.01616,-1.57213c1.72669,-0.42972 3.00929,-1.98874 3.00929,-3.85172c0,-2.19312 -1.77631,-3.97225 -3.96014,-3.97225c-0.17241,0 -0.33959,0.0131 -0.50416,0.03668l0,-7.49381l-0.06531,0.01048c1.0684,-0.48474 2.01141,-1.20268 2.7559,-2.09093l3.96014,1.72672l-2.88391,-3.41676c0.41273,-0.87777 0.66873,-1.84463 0.7262,-2.86914l6.66641,-3.04993c0.49632,1.61929 2.00096,2.79839 3.77989,2.79839c2.18904,0 3.96014,-1.77913 3.96014,-3.97225c0,-0.18079 -0.01567,-0.35897 -0.0418,-0.53452l1.69795,0.31443c0.23249,1.35465 0.35526,2.74861 0.35526,4.16876c0.00261,11.46606 -7.84192,21.09011 -18.43973,23.76797l0.00001,0.00001z" />
 </g>
</svg>