<svg xmlns="http://www.w3.org/2000/svg" width='100%' height='100%' viewBox='-5 -5 85 85 ' preserveAspectRatio='none'>
 <g>
  <path  d="m18.55815,13.29278c-1.84168,4.35708 -1.11422,12.16352 -0.81955,17.62285c-1.98902,1.16383 -4.54282,-0.87855 -5.98855,-0.87855c-1.50404,0 -3.29969,1.04388 -3.58208,2.59999c-0.20259,1.12169 0.27318,2.7556 3.68644,4.17878c1.31987,0.55112 4.45995,1.19949 5.18741,3.00846c1.02214,2.54163 -5.2488,14.27399 -15.09568,15.9857c-0.77044,0.13292 -1.31987,0.8591 -1.2769,1.68253c0.17189,3.16083 6.88176,4.39923 9.85608,4.88551c0.30388,0.43441 0.54944,2.26931 0.93926,3.66656c0.17496,0.62568 0.62617,1.37456 1.78643,1.37456c1.51325,0 4.02715,-1.23191 8.40422,-0.46683c4.29113,0.75536 8.32442,7.18076 16.0687,7.18076c7.19792,0 11.49211,-6.45458 15.62363,-7.18076c2.39112,-0.4182 4.4446,-0.28529 6.74057,0.18803c1.58078,0.32743 2.99888,0.50897 3.45009,-1.13142c0.39596,-1.4167 0.63845,-3.21594 0.93619,-3.64063c2.9467,-0.48304 9.68726,-1.7182 9.85608,-4.87903c0.04297,-0.82344 -0.50646,-1.54638 -1.2769,-1.68253c-9.68112,-1.68578 -16.14237,-13.38247 -15.09568,-15.9857c0.7244,-1.80573 3.84298,-2.44762 5.18741,-3.00846c2.49855,-1.04064 3.7509,-2.32118 3.72327,-3.80272c-0.03376,-1.8965 -2.19467,-3.02791 -3.78466,-3.02791c-1.61761,0 -3.94121,2.02293 -5.82279,0.92718c0.29467,-5.50471 1.01907,-13.27549 -0.81955,-17.62933c-3.48385,-8.24409 -11.23428,-12.41315 -18.98163,-12.41315c-7.69824,0 -15.39035,4.1107 -18.90182,12.42612z" />
 </g>
</svg>