<svg xmlns="http://www.w3.org/2000/svg" width='100%' height='100%' viewBox='-5 -5 85 85 ' preserveAspectRatio='none'>
 <g>
  <path d="m23.44138,68.92998c27.92747,0 43.19991,-24.08428 43.19991,-44.9693c0,-0.68408 -0.01339,-1.36505 -0.04286,-2.04296c2.96459,-2.23094 5.54129,-5.01497 7.57364,-8.18422c-2.72048,1.25876 -5.64807,2.10613 -8.7192,2.48823c3.1347,-1.95669 5.54129,-5.05194 6.67667,-8.74182c-2.93355,1.81032 -6.18224,3.12609 -9.64126,3.83646c-2.77065,-3.07206 -6.71516,-4.99352 -11.08283,-4.99352c-8.3847,0 -15.18404,7.07809 -15.18404,15.80285c0,1.24025 0.13321,2.44663 0.39371,3.6038c-12.61901,-0.66097 -23.80862,-6.95013 -31.29734,-16.51322c-1.30394,2.33568 -2.05582,5.04883 -2.05582,7.94382c0,5.48338 2.6805,10.32412 6.75663,13.15603c-2.49102,-0.08012 -4.83106,-0.79192 -6.87633,-1.97672c-0.00223,0.06631 -0.00223,0.13096 -0.00223,0.20183c0,7.6543 5.23361,14.04502 12.18095,15.49316c-1.27583,0.36206 -2.61817,0.55619 -4.00362,0.55619c-0.97684,0 -1.92855,-0.10008 -2.85359,-0.28503c1.93297,6.27983 7.53813,10.84966 14.18351,10.97736c-5.1966,4.23997 -11.7429,6.7653 -18.85762,6.7653c-1.22403,0 -2.43324,-0.07247 -3.62168,-0.21878c6.71963,4.48349 14.69855,7.09954 23.27421,7.09954l-0.00082,0.001l0.00001,0.00001z"/>
 </g>
</svg>